<svg version="1.1" xmlns="http://www.w3.org/2000/svg" xmlns:xlink="http://www.w3.org/1999/xlink" width="75.07788" height="55.90982" viewBox="0,0,75.07788,55.90982"><g transform="translate(-202.46106,-152.04207)"><g fill-rule="evenodd" stroke-width="0.4"><path d="M253.91402,152.25194c0.2422,0.02826 0.71651,0.22504 1.64292,0.61862c1.57329,0.6943 5.27591,4.25766 6.34057,6.15489c0.27752,0.60146 0.55504,1.52687 0.55504,2.0819c0.04642,2.12833 1.20292,5.46058 2.31401,6.61708c0.9254,1.01825 1.43503,1.15751 2.68437,0.9254c1.34219,-0.2311 1.75897,-0.04642 4.02656,2.12933c1.99007,1.89723 2.68437,2.91446 3.28584,4.99738c1.15751,3.97913 0.32394,8.42147 -2.08291,11.33694c-0.41578,0.50862 -0.4622,0.74073 -0.13826,0.55504c0.27752,-0.18468 0.55504,-0.09184 0.55504,0.13926c0,0.27752 0.37036,0.50862 0.87999,0.50862c0.73972,0 3.8873,1.34219 3.28584,1.38861c-0.13927,0.04642 -1.89824,0.60146 -3.93473,1.29577c-3.47051,1.20292 -3.70161,1.34219 -4.39592,3.10015c-1.15751,3.05373 -2.77722,5.2749 -4.86013,6.70993c-1.11109,0.78614 -2.22117,1.38861 -2.45328,1.38861c-0.2311,0 -0.6933,0.32293 -1.01724,0.6933c-0.32495,0.37036 -1.29677,0.78715 -2.2686,0.97182c-0.9254,0.18569 -1.85081,0.46321 -2.12833,0.64788c-1.11109,0.83357 -9.71925,1.85081 -15.3191,1.75897c-4.16583,-0.04642 -5.32334,-0.13926 -3.88831,-0.37036c1.94365,-0.32394 1.85182,-0.32394 -1.20292,-0.37036c-1.75897,-0.04642 -3.47152,-0.32394 -3.74904,-0.60146c-0.41679,-0.41679 -0.87898,-0.32394 -1.80539,0.32394c-3.05474,2.17475 -3.74803,2.49869 -5.64627,2.49869c-2.26759,0 -4.72087,-1.06467 -4.72087,-2.0819c0,-1.01825 0.92641,-1.29577 1.80539,-0.50963c1.20292,1.06467 4.62802,0.97182 6.06305,-0.2311c0.64788,-0.50862 0.87898,-0.83256 0.60146,-0.64788c-0.32394,0.13927 -0.60146,0 -0.60146,-0.32394c0,-0.6943 -2.03649,-1.75796 -3.33226,-1.75796c-0.9254,0 -2.7308,0.87898 -3.24042,1.57329c-0.18468,0.27752 -1.52686,0.27752 -3.47051,0c-2.4997,-0.32394 -3.194,-0.60247 -3.28584,-1.25035c-0.13927,-0.78614 0.04642,-0.83256 2.45227,-0.55504c2.03649,0.27752 3.00832,0.18568 4.44335,-0.4622c1.66613,-0.78715 1.75897,-0.9254 1.11109,-1.61971c-0.37036,-0.41679 -0.6943,-0.97182 -0.6943,-1.24934c0,-0.27752 -0.32394,-0.74073 -0.74073,-1.11109c-0.41679,-0.32394 -1.06467,-1.3876 -1.43503,-2.35942c-0.78614,-2.03649 -1.38861,-2.12933 -4.25766,-0.83357c-2.36043,1.11109 -3.14758,1.20393 -2.40685,0.32394c0.27752,-0.37036 0.37036,-0.78614 0.23211,-0.9254c-0.18569,-0.18468 0.27752,-0.50862 0.97182,-0.78614c0.6943,-0.27752 1.1565,-0.60146 0.97183,-0.78715c-0.27752,-0.27752 -2.36043,0.27752 -6.75736,1.80438c-4.21225,1.48145 -4.16583,1.48145 -4.16583,0.50963c0,-0.50963 -0.13825,-1.06467 -0.32394,-1.24934c-0.55504,-0.55504 -1.43402,-4.44234 -1.06366,-4.67344c0.2311,-0.13927 2.35942,-0.27853 4.8127,-0.32394c2.45328,-0.04642 4.44335,-0.27853 4.44335,-0.46321c0,-0.18468 0.37036,-0.2311 0.83256,-0.09284c0.41679,0.13927 0.18569,-0.2311 -0.60146,-0.9254c-0.74073,-0.64788 -1.61971,-1.20292 -1.89723,-1.20292c-0.2311,0 -1.57329,-0.50862 -2.91547,-1.1565c-2.68438,-1.29577 -2.68438,-1.89723 0.04541,-3.28584c0.78715,-0.41679 1.29678,-1.06467 1.29678,-1.66613c0,-0.97182 1.20292,-2.68337 1.89723,-2.68337c0.18468,0 1.43503,1.1565 2.77722,2.54511c1.29577,1.3876 2.59153,2.40585 2.82263,2.26759c0.18569,-0.13927 0.32394,0 0.27752,0.32394c-0.09183,0.27752 0.13927,0.64788 0.46321,0.73972c0.6943,0.27752 0.74073,-1.98906 0.09284,-5.46058c-0.41679,-2.0819 -0.37036,-2.77621 0.27752,-4.25665c0.41679,-0.9254 0.9254,-1.71255 1.11008,-1.71255c0.13927,0 0.27853,-0.73972 0.32495,-1.61971c0.04541,-0.87898 0.55504,-2.45227 1.11008,-3.51693c1.41989,-1.33411 0.9254,-0.37339 2.11319,-0.84366l1.66007,3.50482c0.45715,0.99705 0.35018,2.46438 1.08687,2.47548c0.73568,0.01211 3.14657,-1.98906 3.33226,-2.40585c0.09183,-0.18569 0.50862,-0.37036 0.87898,-0.37036c0.37036,0 2.63795,-0.9254 5.04481,-2.0819c2.36043,-1.15751 4.76729,-2.08291 5.36875,-2.08291c0.60146,0 1.38861,-0.27752 1.66613,-0.60146c0.6943,-0.64788 9.16421,-0.78614 12.5883,-0.18468l2.08291,0.36935l-1.61971,-1.06366c-2.31401,-1.48145 -3.74904,-2.22117 -4.21225,-2.22117c-0.2311,0 -1.29577,-0.37036 -2.40585,-0.87898c-1.06467,-0.46321 -2.54612,-1.06467 -3.24042,-1.38861c-3.05373,-1.24934 0.23211,-2.86905 3.93473,-1.94365c3.6562,0.87898 6.24773,2.31401 9.25605,5.09022c1.48145,1.34219 2.82263,2.40584 2.91547,2.26759c0.6943,-0.6943 -2.26759,-5.87737 -5.04481,-8.83825c-0.9254,-0.97182 -1.66613,-1.94365 -1.66613,-2.22117c0,-0.27752 0.01211,-0.41679 0.25532,-0.38752zM247.13345,164.25392c-3.6562,0.04642 -5.04481,0.27752 -8.74743,1.52686c-2.45328,0.83357 -5.36875,2.03649 -6.47984,2.7308c-3.05474,1.80438 -6.01663,4.02555 -6.01663,4.53417c0,0.23211 1.34219,1.34219 2.91648,2.4997c3.14657,2.26658 7.26598,6.38498 7.26598,7.26497c0,0.32394 -1.11109,-0.50963 -2.45327,-1.75897c-1.34219,-1.29577 -3.37868,-2.86905 -4.48876,-3.60877c-3.98014,-2.45328 -6.94304,-5.92379 -6.94304,-8.14496c0,-1.43402 -0.73972,-2.17475 -1.48044,-1.43402c-0.83357,0.83256 -1.29577,3.97913 -0.74073,5.32132c0.60146,1.52686 0.09284,2.26759 -0.78715,1.11008c-0.50862,-0.6933 -0.64788,-0.6933 -1.1565,-0.09183c-0.74073,0.87898 -0.32394,3.10015 0.9254,4.85811c1.11109,1.5743 1.15751,1.85182 0.2311,1.85182c-0.83256,0 -0.9254,1.94264 -0.18468,4.02555c0.46321,1.34219 1.43503,1.94365 5.46159,3.19299c0.37036,0.09284 0.55504,0.32394 0.41578,0.4622c-0.4622,0.41679 -4.16482,-0.41578 -4.85912,-1.1565c-0.6943,-0.64788 -0.6943,-0.4622 -0.41679,2.26759c0.64788,5.59884 3.194,9.57898 7.58992,11.9384c4.67444,2.49869 7.91487,3.00832 17.68054,2.7308c9.34889,-0.23211 11.47722,-0.64788 16.38377,-3.23941c3.47051,-1.85081 7.68276,-6.98745 6.57167,-8.05212c-0.13927,-0.13826 -1.85181,0 -3.74904,0.32394c-1.89723,0.32394 -3.60978,0.46321 -3.74904,0.32394c-0.13826,-0.13826 0.04642,-1.29577 0.41679,-2.54511l0.64788,-2.313l-1.89723,1.34118c-3.84189,2.7308 -8.0067,2.08291 -11.33896,-1.71154c-3.00832,-3.47051 -4.11941,-8.65358 -2.7308,-13.23518c0.78715,-2.68337 3.93372,-5.92278 7.49808,-7.72716c1.71154,-0.87898 2.91547,-1.71255 2.72979,-1.89723c-0.18468,-0.18569 -1.24934,-0.55504 -2.26759,-0.83357c-1.06467,-0.32394 -3.8873,-0.55504 -6.24773,-0.55504zM254.07549,169.80734c-2.82263,0 -2.96189,0.04541 -4.85912,2.03548c-1.52787,1.61971 -2.08291,2.63795 -2.4997,4.71986c-1.38861,6.66351 1.85182,12.86482 7.26598,13.88306c2.31401,0.41578 5.41517,-1.29576 6.89662,-3.74904l1.1565,-2.03548l1.48145,0.87898c0.83256,0.46321 2.68438,1.11109 4.21124,1.43503l2.7308,0.60146l1.29577,-1.48145c1.71255,-1.94365 2.45328,-4.71986 2.03649,-8.14395c-0.37036,-3.33226 -1.06467,-4.76628 -3.23941,-6.70993c-1.29577,-1.11008 -2.08291,-1.43402 -3.56436,-1.43402c-1.66613,0 -2.17475,0.27752 -3.8873,2.0819l-2.03649,2.08291l-2.08291,-2.08291c-1.99007,-2.03649 -2.12833,-2.0819 -4.90554,-2.0819zM263.42438,187.80779l-0.50862,1.89723c-0.27853,1.06467 -0.46321,1.99007 -0.37036,2.0819c0.37036,0.32394 10.0432,-1.80438 9.81109,-2.12833c-0.13826,-0.2311 -0.73972,-0.41678 -1.34219,-0.41678c-0.60146,0 -1.57329,-0.18468 -2.17475,-0.41578c-0.60146,-0.18569 -2.03649,-0.50963 -3.23941,-0.6943z" fill="#000000" stroke="#000000" stroke-miterlimit="8"/><path d="M268.05846,176.68076c0.67109,-0.10798 1.3543,0.57724 1.69943,1.86291c0.73871,2.40786 0.69229,3.51996 -0.18367,4.26069c-0.64587,0.50963 -0.87696,0.46321 -1.61466,-0.46321c-0.87696,-1.06467 -1.24531,-4.63105 -0.55403,-5.27994c0.20789,-0.22 0.4299,-0.34412 0.65293,-0.38045z" fill="#000000" stroke="#2f528f" stroke-miterlimit="8"/><path d="M258.30893,177.67882c1.13329,0 2.13034,3.80757 1.45017,5.33948c-0.63476,1.39265 -1.67723,1.48549 -2.3564,0.27853c-0.49853,-1.02127 -0.63476,-4.82885 -0.13624,-5.29306c0.13624,-0.18569 0.63476,-0.32495 1.04247,-0.32495z" fill="#000000" stroke="#2f528f" stroke-miterlimit="8"/><path d="M220.35227,181.31887c0.1867,-0.06358 1.16458,0.33908 1.70851,0.79522c0.8154,0.65394 0.8154,0.65394 -0.27247,0.14027c-0.63375,-0.28055 -1.22311,-0.60752 -1.31393,-0.70137c-0.15844,-0.14027 -0.18468,-0.21293 -0.12211,-0.23413z" fill="#4472c4" stroke="#2f528f" stroke-miterlimit="8"/><path d="M264.32253,188.75439c0.3633,-0.07569 0.76091,0.01817 1.06568,0.29972c0.18771,0.23514 0.5621,0.42284 0.79623,0.42284c0.23413,0.04743 0.65596,0.09385 0.89008,0.14128c1.12421,0.14027 0.32798,0.8921 -1.26448,1.12723c-1.92044,0.32899 -2.76309,-0.14128 -2.34227,-1.26852c0.16449,-0.39963 0.49247,-0.64587 0.85476,-0.72256z" fill="#000000" stroke="none" stroke-miterlimit="10"/><path d="M247.18088,164.25695c2.36043,0 5.18508,0.2311 6.24975,0.55504c1.01825,0.27752 2.08291,0.64788 2.26759,0.83256c0.18569,0.18468 -1.01825,1.01724 -2.7308,1.89622c-3.56436,1.80338 -6.71195,5.04077 -7.49909,7.72313c-1.38861,4.57858 -0.27752,9.75861 2.7308,13.22711c3.33327,3.79244 7.49909,4.43931 11.34199,1.71053l1.89723,-1.34118l-0.64788,2.313c-0.37036,1.24833 -0.55504,2.40484 -0.41679,2.54309c0.13927,0.13927 1.85182,0 3.75005,-0.32293c1.89723,-0.32394 3.61079,-0.46321 3.74904,-0.32394c1.11109,1.06366 -3.10116,6.19727 -6.57268,8.04707c-4.90756,2.58951 -7.0369,3.0063 -16.3878,3.2374c-9.76668,0.27752 -13.00711,-0.2311 -17.68256,-2.72878c-4.39793,-2.35841 -6.94405,-6.33654 -7.59194,-11.93235c-0.27752,-2.72878 -0.27752,-2.91345 0.41679,-2.26557c0.6943,0.73972 4.39793,1.57228 4.86013,1.15549c0.13927,-0.13826 -0.04541,-0.36935 -0.41578,-0.4622c-4.02757,-1.24833 -4.99939,-1.8498 -5.4626,-3.19098c-0.74073,-2.0809 -0.64788,-4.02353 0.18468,-4.02353c0.92641,0 0.87999,-0.27752 -0.2311,-1.8498c-1.25035,-1.75796 -1.66613,-3.97711 -0.9254,-4.85609c0.50862,-0.60146 0.64788,-0.60146 1.1565,0.09284c0.87999,1.15549 1.38861,0.41578 0.78715,-1.11008c-0.55504,-1.34118 -0.09284,-4.48674 0.74073,-5.31829c0.74073,-0.74073 1.48145,0 1.48145,1.43301c0,2.22016 2.9629,5.68866 6.94305,8.13991c1.11109,0.73972 3.14859,2.31199 4.49078,3.60675c1.34219,1.24934 2.45328,2.0819 2.45328,1.75796c0,-0.87898 -4.1194,-4.99435 -7.26799,-7.26093c-1.57329,-1.1565 -2.91547,-2.26658 -2.91547,-2.49768c0,-0.50862 2.96189,-2.72878 6.01764,-4.53215c1.11109,-0.6933 4.02656,-1.89622 6.48085,-2.72878c3.70262,-1.24833 5.09123,-1.47943 8.74844,-1.52586zM220.31393,181.31988c-0.06358,0.02119 -0.03835,0.09284 0.12413,0.23211c0.09284,0.09284 0.6943,0.41578 1.34219,0.6933c1.11109,0.50862 1.11109,0.50862 0.27752,-0.13826c-0.55504,-0.4511 -1.5531,-0.84972 -1.74383,-0.78715z" fill="#71e4ff" stroke="#71e4ff" stroke-miterlimit="8"/><path d="M254.12191,169.80734c2.77015,0 2.90942,0.04642 4.89444,2.0809l2.07787,2.0809l2.03246,-2.0809c1.70851,-1.80338 2.21612,-2.0809 3.87922,-2.0809c1.47741,0 2.26254,0.32394 3.55528,1.43402c2.17071,1.94163 2.86401,3.37565 3.23336,6.70488c0.41578,3.42207 -0.32394,6.19727 -2.03246,8.13991l-1.29274,1.47944l-2.72474,-0.60146c-1.52384,-0.32394 -3.3706,-0.97082 -4.20216,-1.43301l-1.47842,-0.87898l-1.15448,2.03447c-1.47741,2.45126 -4.57151,4.1628 -6.88048,3.74601c-5.40306,-1.01724 -8.63541,-7.21451 -7.24983,-13.87297c0.41477,-2.0819 0.96981,-3.09914 2.49364,-4.71784c1.89319,-1.98805 2.03145,-2.03447 4.84903,-2.03447zM268.05442,176.68782c-0.22302,0.03633 -0.44504,0.16046 -0.65293,0.38046c-0.6933,0.64687 -0.32394,4.20821 0.55403,5.27187c0.73871,0.92439 0.96981,0.97082 1.61567,0.4622c0.87797,-0.73972 0.92439,-1.8498 0.18468,-4.25463c-0.34614,-1.28366 -1.03036,-1.96787 -1.70145,-1.85989zM258.31095,177.66873c-0.41578,0 -0.92338,0.13825 -1.06265,0.32293c-0.50761,0.46321 -0.36935,4.25463 0.13927,5.27187c0.69229,1.20292 1.75493,1.11008 2.4008,-0.27752c0.6933,-1.52586 -0.32293,-5.31728 -1.47741,-5.31728z" fill="#ffffff" stroke="#000000" stroke-miterlimit="8"/><path d="M263.36181,187.72l2.18585,0.32596c1.20999,0.18569 2.65208,0.51165 3.25657,0.69834c0.60449,0.23211 1.58136,0.4188 2.18585,0.4188c0.60449,0 1.20999,0.18569 1.34925,0.4188c0.23211,0.32596 -9.48916,2.4674 -9.86154,2.14145c-0.09284,-0.09385 0.09284,-1.0243 0.37238,-2.09502zM264.2852,188.71806c-0.36027,0.07569 -0.68623,0.3199 -0.84871,0.7155c-0.4188,1.11714 0.4188,1.58237 2.32612,1.25641c1.58136,-0.23211 2.37154,-0.97687 1.2554,-1.11714c-0.23211,-0.04642 -0.65091,-0.09284 -0.88403,-0.13926c-0.23211,0 -0.60449,-0.18569 -0.79017,-0.4188c-0.30275,-0.27954 -0.69834,-0.37238 -1.05861,-0.29669z" fill="#ed7d31" stroke="none" stroke-miterlimit="10"/></g></g></svg>