<svg version="1.1" xmlns="http://www.w3.org/2000/svg" xmlns:xlink="http://www.w3.org/1999/xlink" width="546.91883" height="214.66556" viewBox="0,0,546.91883,214.66556"><g transform="translate(34.41427,-72.10269)"><g fill-rule="evenodd" stroke="#000000" stroke-width="1.5" stroke-miterlimit="8"><path d="M145.39014,265.03085c31.73286,-42.31595 17.09408,-38.27848 25.64111,-57.41772h15.97853c8.54704,19.13924 2.05428,42.03706 25.64111,57.41772z" fill="#843c0c"/><path d="M114.76736,237.5068c38.99119,-21.62552 43.50441,-31.95889 65.2557,-47.93924c21.75129,15.98035 22.5041,26.31372 65.2557,47.93924c-60.42896,-9.72273 -80.42491,-9.72273 -130.51139,0z" fill="#548235"/><path d="M122.0585,210.89414c35.92891,-14.08466 48.67018,-37.26501 57.96456,-37.54937c11.80071,0.28435 8.56162,15.93661 57.96456,37.54937c-52.11706,-6.90106 -71.01934,-6.58754 -115.92911,0z" fill="#548235"/><path d="M131.3547,188.10933c28.40628,-13.08395 31.77661,-24.912 47.66582,-37.36709c15.88922,12.45509 3.29924,12.97276 47.66582,37.36709c-47.73691,-8.1679 -36.3281,-9.1121 -95.33165,0z" fill="#548235"/><path d="M141.56229,166.96503c34.14076,-17.47139 27.89225,-18.91868 37.92486,-29.16456c8.78218,11.50177 12.5517,18.29165 39.17894,29.16456c-35.72111,-6.912 -39.81873,-7.22734 -77.1038,0z" fill="#548235"/><path d="M174.16736,236.23104l-11.27848,22.7026" fill="none"/><path d="M176.55976,259.07034l2.40179,-19.9234" fill="none"/><path d="M185.67368,238.23592l9.69175,20.70501" fill="none"/><path d="M159.0022,225.29487l-17.43991,2.04079" fill="none"/><path d="M141.56229,227.4669l13.36708,-7.82416" fill="none"/><path d="M145.93698,203.35511l12.94627,-2.30411" fill="none"/><path d="M154.81044,197.95291l-8.87346,5.52615" fill="none"/><path d="M149.9471,182.02852l11.06653,-2.12256" fill="none"/><path d="M149.9471,182.09779l7.30703,-4.19558" fill="none"/><path d="M171.95034,158.3971l-11.06653,2.12256" fill="none"/><path d="M168.19084,156.39335l-7.30703,4.19558" fill="none"/><path d="M224.80523,230.61668l-17.44041,-2.04152" fill="none"/><path d="M224.92371,230.74792l-13.36648,-7.82339" fill="none"/><path d="M209.36989,203.78528l12.94542,2.304" fill="none"/><path d="M213.38001,200.68655l8.87332,5.52668" fill="none"/><path d="M211.50437,182.57536l-11.06613,-2.12172" fill="none"/><path d="M211.57364,182.8269l-7.30754,-4.19605" fill="none"/><path d="M188.40786,157.66883l11.06613,2.12172" fill="none"/><path d="M199.36098,160.04209l-7.30754,-4.19605" fill="none"/><path d="M176.15695,214.9741l-12.19628,4.52177" fill="none"/><path d="M163.98072,219.57425l8.38657,-7.05398" fill="none"/><path d="M189.87957,211.82433l7.17376,10.85047" fill="none"/><path d="M188.34994,216.07134l8.77448,6.56518" fill="none"/><path d="M177.31777,188.0468l-10.50626,7.9078" fill="none"/><path d="M166.87348,196.07672l5.4168,-8.94063" fill="none"/><path d="M183.40067,188.96787l10.50653,7.90724" fill="none"/><path d="M193.84523,196.99723l-5.41732,-8.94076" fill="none"/><path d="M176.5073,169.69837l-11.06653,2.12256" fill="none"/><path d="M165.44077,171.8902l7.30703,-4.19558" fill="none"/><path d="M186.15831,165.8038l5.45219,9.86138" fill="none"/><path d="M191.73991,175.62326l-6.25611,-5.64417" fill="none"/><path d="M178.71691,156.43797l0.81399,-11.23881" fill="none"/><path d="M181.56108,153.30847l-2.16142,-8.14395" fill="none"/><path d="M-6.33862,286.01825c26.32949,-70.60122 14.18316,-63.86511 21.27474,-95.79855h13.25895c7.09158,31.93344 1.70447,70.13556 21.27474,95.79855z" fill="#843c0c"/><path d="M-31.75456,240.16291c32.3369,-36.07997 36.07997,-53.32016 54.11996,-79.98023c18.03999,26.66008 18.66383,43.90026 54.11996,79.98023c-50.11739,-16.22177 -66.70174,-16.22177 -108.23992,0z" fill="#548235"/><path d="M-25.71161,195.72945c29.80064,-23.46798 40.36869,-62.08954 48.07701,-62.56232c9.7878,0.47277 7.10047,26.55344 48.07701,62.56232c-43.22665,-11.4976 -58.90455,-10.97507 -96.15402,0z" fill="#548235"/><path d="M-18.06905,157.69438c23.62083,-21.78128 26.42369,-41.47064 39.63465,-62.20685c13.21096,20.73621 2.74243,21.59644 39.63465,62.20685c-39.69508,-13.59842 -30.20765,-15.16781 -79.2693,0z" fill="#548235"/><path d="M-9.71556,122.50309c28.41076,-29.06873 23.21026,-31.47631 31.5602,-48.52134c7.30664,19.13625 10.44364,30.42981 32.60172,48.52134c-29.72421,-11.50116 -33.13492,-12.0237 -64.16192,0z" fill="#548235"/><path d="M8.05783,275.90518l9.36453,-37.8742" fill="none"/><path d="M21.42698,242.82927l-1.99419,33.23765" fill="none"/><path d="M26.89761,241.40705l8.04779,34.5408" fill="none"/><path d="M4.76486,219.90207l-14.48042,3.40456" fill="none"/><path d="M-9.71556,223.53412l11.09875,-13.05286" fill="none"/><path d="M-5.98315,183.04459l10.74931,-3.84389" fill="none"/><path d="M-5.98315,183.26496l7.36764,-9.21918" fill="none"/><path d="M-2.6062,147.54936l9.18859,-3.54101" fill="none"/><path d="M3.46086,140.80945l-6.06707,6.99939" fill="none"/><path d="M15.64681,108.1061l-9.18859,3.54101" fill="none"/><path d="M12.52529,104.90721l-6.06707,6.99939" fill="none"/><path d="M59.50645,228.81637l-14.47998,-3.40538" fill="none"/><path d="M59.68062,229.04387l-11.09948,-13.05277" fill="none"/><path d="M46.62608,183.99902l10.74934,3.84438" fill="none"/><path d="M57.37008,188.06379l-7.36707,-9.21906" fill="none"/><path d="M39.33898,145.07529l9.18884,3.54046" fill="none"/><path d="M48.42829,148.69752l-6.06783,-6.99916" fill="none"/><path d="M38.39699,110.5807l-9.18884,-3.54046" fill="none"/><path d="M38.4752,110.84019l-6.06783,-6.99916" fill="none"/><path d="M9.48147,208.74312l9.86397,-4.73469" fill="none"/><path d="M15.47343,199.25949l-5.95641,9.61515" fill="none"/><path d="M39.02973,216.33946l-11.07279,-18.58004" fill="none"/><path d="M39.09016,216.30747l-11.20708,-12.78685" fill="none"/><path d="M12.35721,168.42418l7.85052,-8.28808" fill="none"/><path d="M14.86443,157.07456l-2.40414,11.55402" fill="none"/><path d="M32.86414,169.95981l-7.8505,-8.28773" fill="none"/><path d="M30.35809,158.60972l2.40296,11.55448" fill="none"/><path d="M19.55696,126.94589l-9.18859,3.54101" fill="none"/><path d="M10.36837,130.56865l6.06707,-6.99939" fill="none"/><path d="M33.39201,137.5376l-7.40497,-17.00357" fill="none"/><path d="M26.40392,126.99492l7.09473,10.50713" fill="none"/><path d="M23.12255,86.62787l-3.07601,18.28917" fill="none"/><path d="M23.01413,86.59854l0.20986,12.6764" fill="none"/><path d="M291.90378,178.56924h10.04901c0,31.83676 15.93661,95.81833 0,95.5121h-10.04901c-9.43656,-18.26977 0,-63.67534 0,-95.5121z" fill="#843c0c"/><path d="M298.2817,229.06038l0.00007,-40.46637" fill="none"/><path d="M293.72474,267.99141l0.00007,-28.17697" fill="none"/><path d="M301.745,245.75344l0.00007,-28.17697" fill="none"/><path d="M285.06105,132.81734c2.05792,0 4.03018,0.36273 5.85661,1.02805l2.58835,1.47463l0.01094,-0.00547c2.03787,-0.85671 4.2799,-1.33063 6.63129,-1.33063c9.40922,0 17.03757,7.58278 17.03757,16.93549l-0.10572,1.03534l1.18299,0.96972c3.08415,3.06592 4.99078,7.30025 4.99078,11.9757c0,9.35453 -7.62835,16.93732 -17.03757,16.93732c-3.52709,0 -6.80628,-1.06633 -9.52405,-2.89276l-0.06744,-0.05468l-0.74916,0.61428c-2.71959,1.82643 -5.99696,2.89276 -9.52587,2.89276c-9.40922,0 -17.03757,-7.58278 -17.03757,-16.93549c0,-2.33863 0.47757,-4.56608 1.33975,-6.59301l0.04375,-0.0802l-1.33428,-2.44253c-0.86218,-2.02694 -1.33792,-4.25438 -1.33792,-6.59301c0,-9.35271 7.62835,-16.93549 17.03757,-16.93549z" fill="#548235"/><path d="M312.31715,165.53633c0,4.88324 -3.75311,8.84051 -8.38481,8.84051" fill="none"/><path d="M301.18358,143.73947c4.71737,1.26501 7.56638,5.9277 6.36516,10.41539" fill="none"/><path d="M291.20565,173.07719c-4.22886,2.44253 -9.54046,1.16111 -11.86451,-2.86359" fill="none"/><path d="M278.96019,150.40721c0,-4.88324 3.79504,-8.84051 8.47595,-8.84051" fill="none"/><path d="M285.97426,163.16853c0.48122,-3.48334 2.87635,-6.33418 6.09904,-7.25651" fill="none"/><path d="M300.017,158.24337c-0.48122,3.48334 -2.87635,6.33418 -6.09904,7.25651" fill="none"/><path d="M379.11621,184.65269h5.66886c0,31.83676 8.98997,95.81833 0,95.5121h-5.66886c-5.32253,-18.26977 0,-63.67534 0,-95.5121z" fill="#843c0c"/><path d="M382.76543,235.14383l0.00007,-40.46637" fill="none"/><path d="M380.21353,274.25715l0.00007,-28.17697" fill="none"/><path d="M384.58821,251.83689l0.00007,-28.17697" fill="none"/><path d="M379.00684,120.18261c0.66532,0.02005 1.29965,0.16223 1.89205,0.43382c1.77722,0.81661 2.91828,2.68314 3.41408,5.21316l0.1203,1.17023l2.92922,0.27706c6.70967,1.29053 11.75696,6.87008 11.75696,13.55787c0,1.91028 -0.41195,3.72942 -1.15747,5.38633l-0.91504,1.58218l0.71271,0.47939c3.07868,3.07139 4.98349,7.31301 4.98349,11.99939l-0.10572,1.03716l1.18299,0.97337c3.07868,3.07139 4.98349,7.31301 4.98349,11.99939c0,9.37276 -7.61742,16.97013 -17.0157,16.97013c-3.52344,0 -6.79716,-1.06815 -9.51311,-2.89823l-0.06562,-0.05468l-0.74916,0.6161c-2.71595,1.83008 -5.98967,2.89823 -9.51311,2.89823c-9.39646,0 -17.0157,-7.59737 -17.0157,-16.97013c0,-2.34228 0.47757,-4.57519 1.33792,-6.60577l0.04375,-0.0802l-1.33063,-2.448c-0.86218,-2.03058 -1.33792,-4.26167 -1.33792,-6.60577c0,-4.68638 1.90481,-8.928 4.98349,-11.99939l2.69043,-1.8082l0.43382,-3.82238c0.53408,-2.30765 1.3598,-4.73742 2.47716,-7.17266c3.90987,-8.5197 10.11281,-14.2797 14.77732,-14.12841z" fill="#548235"/><path d="M400.99327,173.44256c0,4.88324 -3.79504,8.84051 -8.47595,8.84051" fill="none"/><path d="M386.84482,133.4051c4.71737,1.26319 7.56638,5.92587 6.36334,10.41357" fill="none"/><path d="M374.26943,182.31406c-4.23068,2.44253 -9.54228,1.15929 -11.86451,-2.86359" fill="none"/><path d="M370.89545,139.8851c-1.53478,-4.35646 0.39008,-9.22329 4.40749,-11.13722" fill="none"/><path d="M361.04877,164.57107c-2.66856,-4.02471 -1.74805,-9.5277 2.0561,-12.28922c0.54684,-0.39554 1.13559,-0.72182 1.75716,-0.97154" fill="none"/><path d="M390.33363,161.41036c-0.48122,3.48334 -2.87635,6.33418 -6.09904,7.25651" fill="none"/><path d="M388.28846,151.66758c4.25803,0.24243 7.93641,3.76405 8.784,8.41033" fill="none"/><path d="M369.95307,168.99679c0.24243,-4.25803 3.76405,-7.93641 8.41033,-8.784" fill="none"/><path d="M382.49565,145.55213c-0.48122,3.48334 -2.87635,6.33418 -6.09904,7.25651" fill="none"/><path d="M479.78736,200.65291l12.45914,0.55097c6.84809,36.81224 -11.59713,39.1441 15.77566,70.54257l-38.56825,-0.21328c23.29558,-39.83549 4.95344,-33.57926 10.33345,-70.88026z" fill="#843c0c"/><path d="M479.41234,114.09653c7.43283,0 13.45801,6.06428 13.45801,13.5451l-0.06576,0.64517l1.01664,0.17418c6.1336,2.14169 10.74579,11.4034 10.74579,22.50466c0,3.17255 -0.37502,6.19402 -1.05752,8.94179l-1.50541,3.81239l0.99531,1.20326c1.79156,2.63935 2.83841,5.82256 2.83841,9.24927l-0.10309,1.01131l1.15349,0.94732c3.00726,2.99304 4.86635,7.1289 4.86635,11.69844c0,9.13552 -7.43816,16.54169 -16.61278,16.54169c-3.43915,0 -6.63658,-1.04152 -9.28659,-2.82419l-0.06576,-0.05332l-0.73049,0.59896c-2.65179,1.78445 -5.84744,2.82597 -9.28837,2.82597c-9.17462,0 -16.61278,-7.40617 -16.61278,-16.54347c0,-2.28388 0.46566,-4.45934 1.30634,-6.4393l0.04266,-0.0782l-1.30101,-2.38519c-0.8389,-1.97996 -1.30457,-4.15542 -1.30457,-6.4393c0,-3.42671 1.04508,-6.60992 2.83663,-9.24927l0.7607,-0.91888l-1.27791,-3.23831c-0.6825,-2.74777 -1.05929,-5.76924 -1.05929,-8.94179c0,-7.92871 2.35497,-14.91898 5.93453,-19.04774l1.18371,-1.09484l-0.05332,-0.17062c-0.17951,-0.88156 -0.27371,-1.79511 -0.27371,-2.72999c0,-7.48082 6.02696,-13.5451 13.45978,-13.5451z" fill="#548235"/><path d="M489.5866,212.56145l-6.62492,50.70711" fill="none"/><path d="M505.88934,188.65588c0,4.76149 -3.65954,8.62009 -8.17576,8.62009" fill="none"/><path d="M490.03549,132.92032c4.59975,1.23347 7.37773,5.7799 6.20647,10.15571" fill="none"/><path d="M477.37196,195.91809c-4.12343,2.38163 -9.30259,1.13039 -11.5687,-2.7922" fill="none"/><path d="M471.58672,128.75957c0,-4.76149 3.65954,-8.62009 8.17576,-8.62009" fill="none"/><path d="M464.3174,155.26147c-2.08126,-2.72821 -2.40296,-6.35043 -0.81935,-9.22261" fill="none"/><path d="M499.22788,157.90615c-0.46922,3.39649 -2.80464,6.17625 -5.94697,7.07558" fill="none"/><path d="M467.3211,177.28092c0,-4.76149 3.65954,-8.62009 8.17576,-8.62009" fill="none"/><path d="M497.918,268.64856l-8.20242,-14.14228" fill="none"/><path d="M483.87169,220.68352l-1.08773,-10.61071" fill="none"/></g></g></svg>