<svg version="1.1" xmlns="http://www.w3.org/2000/svg" xmlns:xlink="http://www.w3.org/1999/xlink" width="61.2162" height="61.2162" viewBox="0,0,61.2162,61.2162"><g transform="translate(-209.3919,-149.3919)"><g fill-rule="evenodd"><path d="M210.1419,180c0,-16.49019 13.36818,-29.8581 29.8581,-29.8581c16.48993,0 29.8581,13.3679 29.8581,29.8581c0,16.48993 -13.36817,29.8581 -29.8581,29.8581c-16.48992,0 -29.8581,-13.36818 -29.8581,-29.8581z" fill="#e7e6e6" stroke="#000000" stroke-width="1.5" stroke-miterlimit="8"/><path d="M255.52673,161.43473c0.95367,5.01558 -0.07687,10.81649 -2.93179,15.05632c-0.8464,1.22335 -1.84611,2.38894 -3.01734,3.31092c-0.18326,0.14505 -0.35915,0.29704 -0.53633,0.44904c-0.58019,0.48595 -1.22292,0.88115 -1.86435,1.28025c0.24016,-0.09424 0.48031,-0.18804 0.72046,-0.28228c0.08121,-0.03213 0.16285,-0.06383 0.24406,-0.09554c0.11856,-0.04647 0.23668,-0.09294 0.35524,-0.1394c0.07773,-0.0304 0.15547,-0.0608 0.23538,-0.0925c0.28315,-0.11378 0.56282,-0.23581 0.84163,-0.36045c0.15286,-0.05081 0.15286,-0.05081 0.34395,0.01303c-0.05559,0.04299 -0.05559,0.04299 -0.11248,0.08686c-0.41777,0.32831 -0.80905,0.67834 -1.19773,1.04009c-0.4625,0.42949 -0.93586,0.84163 -1.4305,1.23378c-0.05906,0.04691 -0.05906,0.04691 -0.11943,0.09467c-1.0149,0.80254 -2.12013,1.64417 -3.35434,2.07454c-0.34221,0.12898 -0.51505,0.35307 -0.73306,0.63795c-0.78691,0.93369 -1.63548,1.86521 -2.59349,2.62345c-0.14548,0.11335 -0.14548,0.11335 -0.25492,0.23147c-0.08338,0.07947 -0.08338,0.07947 -0.21106,0.07947c-0.01607,0.03691 -0.03213,0.07383 -0.04864,0.11204c-0.08859,0.16155 -0.18978,0.26664 -0.3218,0.39432c-0.04256,0.04169 -0.08512,0.08295 -0.12854,0.1255c-0.0456,0.0443 -0.0912,0.08859 -0.13853,0.13376c-0.05125,0.05168 -0.10249,0.10292 -0.15504,0.1559c-1.38013,1.37883 -3.04948,2.42369 -4.88038,3.09812c-0.05602,0.02085 -0.11204,0.04169 -0.16937,0.06297c-1.63418,0.59886 -3.32655,0.92153 -5.0389,1.196c-0.0443,0.00738 -0.08859,0.01476 -0.13419,0.02215c-0.22061,0.03561 -0.43862,0.06341 -0.66184,0.0773c-0.44035,0.01955 -0.44035,0.01955 -0.81644,0.22105c-0.09641,0.14896 -0.16242,0.29227 -0.22626,0.45773c-0.03822,0.08295 -0.03822,0.08295 -0.07687,0.16763c-0.07209,0.15678 -0.1394,0.31529 -0.20628,0.47467c-0.23712,0.53937 -0.54371,0.87506 -0.97712,1.26374c-0.29357,0.26317 -0.54328,0.5372 -0.78561,0.84857c-0.3053,0.37695 -0.64533,0.7248 -0.97799,1.07744c-0.07773,-0.26144 -0.02997,-0.45035 0.04777,-0.7057c0.0139,-0.04647 0.02823,-0.09294 0.04256,-0.1407c0.53242,-1.69324 1.34278,-3.26922 2.24521,-4.79006c0.03474,-0.05906 0.06905,-0.11812 0.10466,-0.17848c0.07687,-0.12768 0.15677,-0.25362 0.23842,-0.37825c0.26882,-0.39519 0.26882,-0.39519 0.31398,-0.85335c-0.02389,-0.09076 -0.05081,-0.1811 -0.08034,-0.27012c-0.02779,-0.10466 -0.05515,-0.20888 -0.08208,-0.31355c-0.02259,-0.08251 -0.02259,-0.08251 -0.04517,-0.1672c-0.76302,-3.07597 -0.25969,-6.2249 1.32845,-8.95823c0.18543,-0.30443 0.37999,-0.60278 0.57498,-0.90112c0.87637,-1.36276 1.57077,-2.84276 2.29515,-4.28977c0.02475,-0.04907 0.04907,-0.09815 0.07426,-0.14852c0.27142,-0.54154 0.53807,-1.08352 0.78213,-1.63765c0.02128,0 0.04213,0 0.06384,0c0.01216,0.36392 -0.03344,0.69962 -0.09771,1.0579c-0.00999,0.05689 -0.01955,0.11421 -0.02997,0.17284c-0.03127,0.1811 -0.06341,0.36218 -0.09554,0.54328c-0.0317,0.18239 -0.06341,0.36479 -0.09554,0.54675c-0.01955,0.11335 -0.03952,0.22626 -0.05949,0.3396c-0.04951,0.26317 -0.04951,0.26317 -0.06775,0.52938c0.02909,-0.06949 0.05863,-0.1394 0.08903,-0.21106c0.40388,-0.94064 0.84597,-1.85696 1.48522,-2.66211c1.29718,-1.67543 2.22523,-3.61881 3.07858,-5.54825c0.02085,0 0.04213,0 0.06384,0c-0.03257,0.62314 -0.16155,1.22157 -0.29096,1.83043c-0.02128,0.10119 -0.04255,0.20237 -0.0634,0.30356c-0.05168,0.2458 -0.10336,0.4916 -0.15547,0.73696c0.09597,-0.09641 0.14896,-0.21236 0.21453,-0.33179c0.38216,-0.68528 0.77431,-1.34191 1.25115,-1.9651c0.04169,-0.05429 0.08338,-0.10857 0.12594,-0.16459c0.1255,-0.15982 0.25405,-0.31693 0.38433,-0.47327c0.04039,-0.04929 0.04039,-0.04929 0.08165,-0.09953c0.68876,-0.83312 1.42573,-1.59258 2.27647,-2.26101c0.07296,-0.05998 0.14548,-0.12012 0.21801,-0.1804c0.91763,-0.75851 1.91559,-1.37366 2.96914,-1.92492c0.04603,-0.02414 0.09207,-0.04834 0.1394,-0.07322c2.17485,-1.12234 4.56814,-1.62671 6.94927,-2.0939c1.58641,-0.31268 3.16673,-0.65267 4.64284,-1.33005c0.30356,-0.13932 0.30356,-0.13931 0.44253,-0.13931z" fill="#71e3fe" stroke="none" stroke-width="1" stroke-miterlimit="10"/><path d="M255.52673,161.43473c0.95367,5.01558 -0.07687,10.81649 -2.93179,15.05632c-0.8464,1.22335 -1.84611,2.38894 -3.01735,3.31092c-0.18326,0.14505 -0.35915,0.29704 -0.53633,0.44904c-0.58019,0.48595 -1.22292,0.88115 -1.86435,1.28025c0.24016,-0.09424 0.48031,-0.18804 0.72046,-0.28228c0.08121,-0.03213 0.16285,-0.06383 0.24406,-0.09554c0.11856,-0.04647 0.23668,-0.09294 0.35524,-0.1394c0.07773,-0.0304 0.15547,-0.0608 0.23538,-0.0925c0.28315,-0.11378 0.56282,-0.23581 0.84163,-0.36045c0.15286,-0.05081 0.15286,-0.05081 0.34395,0.01303c-0.05559,0.04299 -0.05559,0.04299 -0.11248,0.08686c-0.41777,0.32831 -0.80905,0.67834 -1.19773,1.04009c-0.4625,0.42949 -0.93586,0.84163 -1.4305,1.23378c-0.05906,0.04691 -0.05906,0.04691 -0.11943,0.09467c-1.0149,0.80254 -2.12013,1.64417 -3.35434,2.07454c-0.34221,0.12898 -0.51505,0.35307 -0.73306,0.63795c-0.78691,0.93369 -1.63548,1.86521 -2.59349,2.62345c-0.14548,0.11335 -0.14548,0.11335 -0.25492,0.23147c-0.08338,0.07947 -0.08338,0.07947 -0.21106,0.07947c-0.01607,0.03691 -0.03213,0.07383 -0.04864,0.11204c-0.08859,0.16155 -0.18978,0.26664 -0.3218,0.39432c-0.04256,0.04169 -0.08512,0.08295 -0.12854,0.1255c-0.0456,0.0443 -0.0912,0.08859 -0.13853,0.13376c-0.05125,0.05168 -0.10249,0.10292 -0.15504,0.1559c-1.38013,1.37883 -3.04948,2.42369 -4.88038,3.09812c-0.05602,0.02085 -0.11204,0.04169 -0.16937,0.06297c-1.63418,0.59886 -3.32655,0.92153 -5.0389,1.196c-0.0443,0.00738 -0.08859,0.01476 -0.13419,0.02215c-0.22061,0.03561 -0.43862,0.06341 -0.66184,0.0773c-0.44035,0.01955 -0.44035,0.01955 -0.81644,0.22105c-0.09641,0.14896 -0.16242,0.29227 -0.22626,0.45773c-0.03822,0.08295 -0.03822,0.08295 -0.07687,0.16763c-0.07209,0.15678 -0.1394,0.31529 -0.20628,0.47467c-0.23712,0.53937 -0.54371,0.87506 -0.97712,1.26374c-0.29357,0.26317 -0.54328,0.5372 -0.78561,0.84857c-0.3053,0.37695 -0.64533,0.7248 -0.97799,1.07744c-0.07773,-0.26144 -0.02997,-0.45035 0.04777,-0.7057c0.0139,-0.04647 0.02823,-0.09294 0.04256,-0.1407c0.53242,-1.69324 1.34278,-3.26922 2.24521,-4.79006c0.03474,-0.05906 0.06905,-0.11812 0.10466,-0.17848c0.07687,-0.12768 0.15677,-0.25362 0.23842,-0.37825c0.26882,-0.39519 0.26882,-0.39519 0.31398,-0.85335c-0.02389,-0.09076 -0.05081,-0.1811 -0.08034,-0.27012c-0.02779,-0.10466 -0.05515,-0.20888 -0.08208,-0.31355c-0.02259,-0.08251 -0.02259,-0.08251 -0.04517,-0.1672c-0.76302,-3.07597 -0.25969,-6.2249 1.32845,-8.95823c0.18543,-0.30443 0.37999,-0.60278 0.57498,-0.90112c0.87637,-1.36276 1.57077,-2.84276 2.29515,-4.28977c0.02475,-0.04907 0.04907,-0.09815 0.07426,-0.14852c0.27142,-0.54154 0.53807,-1.08352 0.78213,-1.63765c0.02128,0 0.04213,0 0.06384,0c0.01216,0.36392 -0.03344,0.69962 -0.09771,1.0579c-0.00999,0.05689 -0.01955,0.11421 -0.02997,0.17284c-0.03127,0.1811 -0.06341,0.36218 -0.09554,0.54328c-0.0317,0.18239 -0.06341,0.36479 -0.09554,0.54675c-0.01955,0.11335 -0.03952,0.22626 -0.05949,0.3396c-0.04951,0.26317 -0.04951,0.26317 -0.06775,0.52938c0.02909,-0.06949 0.05863,-0.1394 0.08903,-0.21106c0.40388,-0.94064 0.84597,-1.85696 1.48522,-2.66211c1.29718,-1.67543 2.22523,-3.61881 3.07858,-5.54825c0.02085,0 0.04213,0 0.06384,0c-0.03257,0.62314 -0.16155,1.22157 -0.29096,1.83043c-0.02128,0.10119 -0.04255,0.20237 -0.0634,0.30356c-0.05168,0.2458 -0.10336,0.4916 -0.15547,0.73696c0.09597,-0.09641 0.14896,-0.21236 0.21453,-0.33179c0.38216,-0.68528 0.77431,-1.34191 1.25115,-1.9651c0.04169,-0.05429 0.08338,-0.10857 0.12594,-0.16459c0.1255,-0.15982 0.25405,-0.31693 0.38433,-0.47327c0.04039,-0.04929 0.04039,-0.04929 0.08165,-0.09953c0.68876,-0.83312 1.42573,-1.59258 2.27647,-2.26101c0.07296,-0.05998 0.14548,-0.12012 0.21801,-0.1804c0.91763,-0.75851 1.91559,-1.37366 2.96914,-1.92492c0.04603,-0.02414 0.09207,-0.04834 0.1394,-0.07322c2.17485,-1.12234 4.56814,-1.62671 6.94927,-2.0939c1.58641,-0.31268 3.16673,-0.65267 4.64284,-1.33005c0.30356,-0.13932 0.30356,-0.13931 0.44253,-0.13931zM254.40326,162.50608c-0.07122,0.02445 -0.14287,0.04894 -0.21626,0.07413c-0.14678,0.05111 -0.29357,0.10231 -0.44035,0.15351c-1.22379,0.41946 -2.47841,0.67486 -3.74519,0.92996c-0.90677,0.18262 -1.81266,0.36566 -2.71031,0.58962c-0.0608,0.01507 -0.12116,0.03009 -0.18326,0.04564c-2.89879,0.7394 -5.48403,2.29623 -7.64325,4.34497c-0.03213,0.03018 -0.06427,0.06037 -0.09728,0.09146c-0.47379,0.4503 -0.88983,0.92787 -1.28155,1.4513c-0.08816,0.11725 -0.17762,0.23321 -0.26708,0.34959c-0.42081,0.5537 -0.77214,1.12868 -1.09524,1.74405c-0.02171,0.04083 -0.04343,0.08165 -0.06558,0.12377c-1.31281,2.47624 -1.94555,5.28773 -2.35638,8.04234c-0.06775,-2.11014 0.24884,-4.30714 0.68616,-6.37081c0.01607,-0.14765 -0.00391,-0.25102 -0.04864,-0.39171c-0.02519,0.04039 -0.04995,0.08034 -0.076,0.12203c-0.11508,0.18414 -0.2306,0.36783 -0.34655,0.55196c-0.03909,0.06297 -0.07861,0.12637 -0.11899,0.19152c-0.19803,0.31354 -0.39779,0.60538 -0.64533,0.88158c-0.15286,0.17936 -0.27533,0.37695 -0.39867,0.57758c-0.02736,0.0443 -0.05472,0.08859 -0.08251,0.13419c-0.74739,1.23204 -1.27677,2.57655 -1.58293,3.98491c-0.01042,0.04603 -0.02085,0.09207 -0.03127,0.13984c-0.1672,0.76867 -0.17632,1.5369 -0.17588,2.32033c0,0.04994 0.00043,0.09945 0.00043,0.1507c0.00131,0.55718 0.01477,1.10958 0.07947,1.66371c-0.59105,-1.86825 -0.73088,-3.6579 -0.70136,-5.61431c-0.16155,0.14635 -0.25492,0.29314 -0.35524,0.48682c-0.04733,0.0899 -0.04733,0.0899 -0.09554,0.18153c-0.03387,0.06514 -0.06775,0.12985 -0.10292,0.19673c-0.38781,0.73045 -0.81036,1.43137 -1.24811,2.13229c-0.35133,0.56456 -0.69571,1.1226 -0.94672,1.73971c-0.03213,0.07773 -0.03214,0.07773 -0.06471,0.1572c-0.97408,2.41674 -0.94325,4.90731 -0.37347,7.41873c0.23451,-0.22322 0.41778,-0.44904 0.60148,-0.71786c0.38477,-0.55153 0.8134,-1.06484 1.2468,-1.57902c0.03431,-0.04039 0.06818,-0.08078 0.10336,-0.12246c0.413,-0.4903 0.83641,-0.96887 1.27243,-1.43875c0.09511,-0.10249 0.18978,-0.20584 0.28402,-0.3092c0.48813,-0.53373 0.98016,-1.05529 1.52952,-1.52692c0.13202,-0.11769 0.25622,-0.24059 0.37999,-0.36653c0.2445,-0.24754 0.50115,-0.47509 0.76519,-0.70179c0.07339,-0.06427 0.14678,-0.12811 0.22018,-0.19238c0.41039,-0.35828 0.82295,-0.71352 1.24681,-1.05659c0.14592,-0.11899 0.2914,-0.23885 0.43601,-0.35915c0.49985,-0.41603 1.00535,-0.82165 1.52344,-1.21467c0.29748,-0.22539 0.58974,-0.45555 0.87984,-0.69006c0.36609,-0.29618 0.73957,-0.58106 1.11739,-0.86204c0.31311,-0.23364 0.62101,-0.47293 0.92717,-0.71525c0.29226,-0.23103 0.58757,-0.45772 0.88331,-0.68354c1.22335,-0.93413 2.42499,-1.89431 3.55715,-2.93831c0.13854,-0.12594 0.27837,-0.24928 0.41908,-0.37261c0.7222,-0.63057 1.40488,-1.30325 2.08322,-1.98072c0.03301,-0.03257 0.06601,-0.06558 0.09988,-0.09902c0.3383,-0.33743 0.67139,-0.6766 0.98233,-1.04009c0.13072,-0.15286 0.26752,-0.30008 0.40387,-0.44774c0.25709,-0.28272 0.50333,-0.57194 0.74304,-0.86985c0.11508,-0.14244 0.23104,-0.28445 0.34785,-0.42559c0.81209,-0.98238 1.53299,-2.0212 2.23131,-3.08661c-0.23017,0.42207 -0.47683,0.82308 -0.74739,1.22035c-0.09207,0.1351 -0.18283,0.27081 -0.2736,0.40648c-0.42212,0.62714 -0.86073,1.23178 -1.33757,1.81805c-0.06905,0.08599 -0.1381,0.17154 -0.20758,0.25752c-0.17501,0.2167 -0.35089,0.43254 -0.52677,0.64837c-0.08295,0.10119 -0.16502,0.20281 -0.2471,0.30399c-0.98798,1.21771 -2.05499,2.34552 -3.16153,3.45553c-0.04039,0.04039 -0.08034,0.08121 -0.12203,0.1229c-0.4156,0.4169 -0.8312,0.82729 -1.28024,1.20902c-0.11291,0.10336 -0.22582,0.20672 -0.3383,0.31094c-0.23103,0.21106 -0.46598,0.41387 -0.70917,0.61016c-0.28922,0.2332 -0.56239,0.47901 -0.83424,0.73219c-0.20454,0.18934 -0.4143,0.36913 -0.63187,0.54371c-0.26317,0.21192 -0.51114,0.43427 -0.75694,0.66574c-0.31007,0.29097 -0.63056,0.55978 -0.96713,0.81905c-0.30312,0.23408 -0.59886,0.47553 -0.89331,0.72002c-0.32962,0.27359 -0.66184,0.54284 -0.9997,0.80558c-0.4169,0.3244 -0.81687,0.66618 -1.21554,1.0123c-0.10987,0.09511 -0.22104,0.18934 -0.33222,0.28358c-0.90329,0.76433 -1.74622,1.58424 -2.58351,2.42022c-0.04083,0.04083 -0.08165,0.08121 -0.12333,0.1229c-0.41907,0.41821 -0.83424,0.83511 -1.2151,1.28893c-0.0608,0.06905 -0.12116,0.1381 -0.18196,0.20714c-0.4625,0.53069 -0.89287,1.08222 -1.31629,1.6446c-0.08512,0.11248 -0.1711,0.22365 -0.25796,0.33439c-1.71191,1.94382 -1.71191,1.94382 -2.70554,4.12996c0.47423,0.01867 0.92631,-0.05168 1.39403,-0.12768c0.04256,-0.00695 0.08511,-0.0139 0.12898,-0.02085c2.68208,-0.44035 5.52876,-1.15518 7.71924,-2.85015c0.04169,-0.06341 0.08382,-0.12637 0.12724,-0.19151c-0.05081,0.01737 -0.05081,0.01737 -0.10249,0.03517c-1.75795,0.59496 -3.51633,0.94716 -5.37893,0.92197c0.03648,-0.00565 0.07252,-0.01173 0.11031,-0.01737c3.69394,-0.59018 6.75037,-1.92732 9.41075,-4.58812c0.08382,-0.08251 0.08381,-0.08251 0.16893,-0.16676c0.26621,-0.26578 0.50897,-0.51679 0.69962,-0.84206c-0.06297,0.01737 -0.06297,0.01737 -0.12681,0.03518c-0.93934,0.25883 -1.88475,0.50983 -2.84928,0.65445c-0.07079,0.01086 -0.07079,0.01086 -0.14288,0.02172c-0.9528,0.13246 -1.90473,0.12594 -2.86491,0.12203c-0.13723,-0.00043 -0.27402,-0.00087 -0.41125,-0.00087c-0.33309,-0.00087 -0.66575,-0.00173 -0.99884,-0.00304c0,-0.04213 0,-0.08425 0,-0.12768c0.10466,0.00347 0.10466,0.00347 0.21149,0.00651c4.05092,0.08642 8.87094,-1.12043 11.87091,-3.99316c0.07383,-0.07383 0.14678,-0.14896 0.21931,-0.22408c-0.03561,0.00999 -0.07165,0.02041 -0.10857,0.03083c-0.9528,0.26448 -1.90994,0.51548 -2.88706,0.67096c-0.08121,0.01303 -0.16285,0.02649 -0.24666,0.03995c-0.65011,0.09337 -1.30065,0.09945 -1.95641,0.09945c-0.0443,0.00043 -0.08859,0.00043 -0.13462,0.00043c-0.47813,0 -0.94846,-0.01042 -1.42312,-0.076c0.07469,-0.00955 0.14896,-0.01867 0.22582,-0.02866c2.61607,-0.34308 5.26993,-0.98233 7.42307,-2.58698c0.03474,-0.02562 0.06948,-0.05125 0.10509,-0.0773c0.24623,-0.1811 0.48639,-0.36827 0.7235,-0.56065c0.03474,-0.02823 0.06949,-0.05646 0.1051,-0.08512c1.5495,-1.26505 2.7989,-2.76937 3.78298,-4.50865c0.02171,-0.03779 0.04343,-0.07556 0.06558,-0.11465c2.10971,-3.72218 2.60001,-8.25479 2.16529,-12.45345c-0.24667,0 -0.38433,0.03431 -0.61363,0.11439z" fill="#070708" stroke="none" stroke-width="1" stroke-miterlimit="10"/><path d="M241.04062,171.03438c0.03127,0.06297 0.03127,0.06297 0.0634,0.12724c-0.06558,0.12029 -0.13679,0.23755 -0.20975,0.3535c-0.58323,0.97581 -0.97061,2.10233 -1.2455,3.20408c-0.01303,0.05211 -0.02649,0.10423 -0.03995,0.15764c-0.31833,1.26678 -0.48248,2.54008 -0.52938,3.8442c-0.15678,-0.23581 -0.14375,-0.35958 -0.14548,-0.64142c-0.00043,-0.0443 -0.00087,-0.08903 -0.00087,-0.13506c-0.00087,-0.14461 -0.00043,-0.28966 0,-0.43427c0.00043,-0.07383 0.00043,-0.07383 0.00043,-0.14939c0.00347,-0.72785 0.02996,-1.42529 0.20932,-2.13359c0.01216,-0.05081 0.02432,-0.10162 0.03691,-0.15417c0.34438,-1.40705 0.91415,-2.9218 1.86087,-4.03876z" fill="#0d0d0d" stroke="none" stroke-width="1" stroke-miterlimit="10"/><path d="M233.33137,185.49965c0.06297,0.03127 0.06297,0.03127 0.12724,0.06384c-0.05168,0.05125 -0.10336,0.10292 -0.15678,0.1559c-0.19368,0.19282 -0.38737,0.38607 -0.58106,0.57932c-0.08338,0.08338 -0.16676,0.16632 -0.25014,0.24971c-0.64142,0.63708 -0.64143,0.63708 -1.24203,1.31238c-0.0621,0.07122 -0.1242,0.14244 -0.1863,0.21366c-0.44296,0.51245 -0.86768,1.03531 -1.27937,1.57294c-0.03605,0.04691 -0.07209,0.0938 -0.109,0.14244c-1.22726,1.59944 -2.32424,3.3018 -3.24447,5.09796c-0.02866,0.05515 -0.05689,0.11031 -0.08642,0.1672c-0.05472,0.10727 -0.10944,0.21496 -0.16328,0.3231c-0.23016,0.45035 -0.23016,0.45034 -0.47467,0.58757c0.13636,-0.43905 0.34699,-0.83381 0.55761,-1.24072c0.02128,-0.04083 0.04256,-0.08165 0.06427,-0.1242c1.01012,-1.94642 2.23869,-3.7834 3.64747,-5.46362c0.02693,-0.03257 0.05429,-0.06514 0.08208,-0.09902c0.35654,-0.4282 0.72003,-0.84813 1.09741,-1.25853c0.08382,-0.09207 0.1672,-0.18414 0.24754,-0.27924c0.37,-0.43514 0.77648,-0.83294 1.18123,-1.23508c0.07469,-0.07469 0.14939,-0.14896 0.22409,-0.22366c0.18153,-0.18066 0.36305,-0.36175 0.54458,-0.54198z" fill="#72d7ee" stroke="none" stroke-width="1" stroke-miterlimit="10"/><path d="M251.94353,167.25544c0.03127,0.06314 0.03127,0.06314 0.0634,0.12755c-0.05559,0.11239 -0.05559,0.11238 -0.14505,0.24892c-0.03301,0.05094 -0.06644,0.10184 -0.10032,0.1543c-0.03648,0.05506 -0.07339,0.11013 -0.11118,0.16685c-0.05603,0.08529 -0.05603,0.08529 -0.11291,0.17232c-0.11725,0.17818 -0.23581,0.35581 -0.35393,0.53329c-0.03605,0.05429 -0.07209,0.10853 -0.109,0.16442c-0.39866,0.6016 -0.80905,1.18726 -1.26026,1.75052c-0.15982,0.20107 -0.30877,0.40778 -0.45339,0.62014c-0.02562,0.02649 -0.05125,0.05298 -0.0773,0.07991c-0.06254,0 -0.1255,0 -0.19021,0c-0.06254,0.0317 -0.06254,0.03171 -0.12637,0.06384c0.10423,-0.25231 0.27664,-0.43689 0.45512,-0.63752c0.92848,-1.07005 1.75317,-2.2535 2.5214,-3.44454z" fill="#161616" stroke="none" stroke-width="1" stroke-miterlimit="10"/><path d="M251.9444,167.25544c0.02041,0.04213 0.04125,0.0843 0.0621,0.12772c-0.05907,0.1196 -0.05906,0.1196 -0.1533,0.26495c-0.03431,0.05337 -0.06862,0.10675 -0.10379,0.16173c-0.03735,0.05676 -0.07426,0.11356 -0.11248,0.17206c-0.03735,0.05745 -0.07426,0.11487 -0.11248,0.17406c-0.10857,0.1685 -0.21801,0.33652 -0.32788,0.5045c-0.05515,0.08494 -0.10987,0.16993 -0.16502,0.25496c-0.11074,0.17075 -0.22148,0.34125 -0.33352,0.5114c-0.04082,-0.02107 -0.08208,-0.04216 -0.12464,-0.06388c0.08903,-0.19404 0.19369,-0.36466 0.31485,-0.53959c0.03691,-0.0542 0.07426,-0.10844 0.11291,-0.16429c0.03865,-0.05615 0.07774,-0.11235 0.11769,-0.17024c0.28098,-0.40735 0.55804,-0.8167 0.82555,-1.23339z" fill="#242424" stroke="none" stroke-width="1" stroke-miterlimit="10"/><path d="M241.04018,171.03438c0.02085,0.04126 0.04213,0.08251 0.06384,0.12464c-0.07557,0.14331 -0.15373,0.27924 -0.23885,0.41691c-0.17892,0.29053 -0.33135,0.57715 -0.46207,0.89157c-0.08382,-0.02041 -0.16806,-0.04082 -0.25448,-0.0621c0.10032,-0.17024 0.20107,-0.34047 0.30226,-0.51027c0.02823,-0.04777 0.05645,-0.09597 0.08555,-0.14505c0.152,-0.25492 0.3066,-0.49073 0.50376,-0.71569z" fill="#121212" stroke="none" stroke-width="1" stroke-miterlimit="10"/><path d="M228.507,191.18953c0,0.25188 -0.1064,0.36175 -0.25622,0.56977c-0.04733,0.06731 -0.09467,0.13419 -0.14374,0.20324c-0.13723,0.16372 -0.13723,0.16372 -0.3383,0.22582c0.08946,-0.23538 0.2015,-0.40996 0.36913,-0.60451c0.04083,-0.04777 0.08165,-0.09597 0.12377,-0.14505c0.11118,-0.1242 0.11117,-0.1242 0.24536,-0.24927z" fill="#72e2fc" stroke="none" stroke-width="1" stroke-miterlimit="10"/><path d="M232.76377,191.23295c-0.40127,0 -0.80254,0 -1.21597,0c0,-0.02041 0,-0.04082 0,-0.0621c0.11204,-0.02259 0.22409,-0.0443 0.33613,-0.06558c0.09337,-0.01867 0.09337,-0.01867 0.18891,-0.03735c0.29053,-0.03431 0.42733,0.03735 0.69093,0.16502z" fill="#2f2f2f" stroke="none" stroke-width="1" stroke-miterlimit="10"/><path d="M249.92676,170.1224c0.04125,0 0.08251,0 0.12507,0c-0.08729,0.2888 -0.22582,0.44774 -0.43905,0.65141c-0.04125,-0.04299 -0.08251,-0.08599 -0.1255,-0.13028c0.07035,-0.08729 0.14114,-0.17414 0.21192,-0.26057c0.05907,-0.07253 0.05906,-0.07252 0.11899,-0.14678c0.03561,-0.03735 0.07166,-0.07513 0.10857,-0.11378z" fill="#0f0f0f" stroke="none" stroke-width="1" stroke-miterlimit="10"/><path d="M231.43879,187.4109c0.06471,0.02085 0.12898,0.04169 0.19542,0.06297c-0.03127,0.02953 -0.06253,0.0595 -0.09511,0.0899c-0.04126,0.03952 -0.08208,0.07904 -0.12464,0.11943c-0.04083,0.03865 -0.08164,0.07774 -0.12377,0.11769c-0.1242,0.12073 -0.1242,0.12073 -0.24276,0.30486c-0.06427,-0.02085 -0.12898,-0.04169 -0.19542,-0.06341c0.04733,-0.04473 0.04734,-0.04473 0.09511,-0.0899c0.04126,-0.03952 0.08251,-0.0786 0.12507,-0.11943c0.06123,-0.05819 0.06123,-0.05819 0.12334,-0.11769c0.1242,-0.12073 0.1242,-0.12073 0.24276,-0.30443z" fill="#72cde2" stroke="none" stroke-width="1" stroke-miterlimit="10"/><path d="M241.04366,171.03438c0.01998,0.04083 0.03952,0.08121 0.05993,0.12333c-0.07253,0.14635 -0.07253,0.14635 -0.17545,0.31528c-0.03387,0.05602 -0.06775,0.11161 -0.10249,0.16936c-0.02649,0.04299 -0.05298,0.08599 -0.08034,0.13028c-0.03952,-0.04039 -0.07861,-0.08121 -0.11943,-0.1229c0.20671,-0.30443 0.20672,-0.30442 0.41777,-0.61536z" fill="#232323" stroke="none" stroke-width="1" stroke-miterlimit="10"/><path d="M232.00248,174.85687c0.02128,0 0.043,0 0.06471,0c0.00521,0.25622 -0.00087,0.48899 -0.06471,0.73827c-0.1051,-0.09988 -0.10509,-0.09988 -0.19412,-0.2458c0.04517,-0.17936 0.1077,-0.32788 0.19412,-0.49247z" fill="#3d3d3d" stroke="none" stroke-width="1" stroke-miterlimit="10"/><path d="M249.92198,180.58669c-0.14244,0.1368 -0.14244,0.1368 -0.3257,0.26491c-0.18326,-0.01651 -0.18326,-0.01651 -0.32571,-0.06601c0.20542,-0.20932 0.37043,-0.29444 0.65141,-0.1989z" fill="#2f2f2f" stroke="none" stroke-width="1" stroke-miterlimit="10"/><path d="M247.05489,173.33691c0.04299,0.02041 0.08599,0.04126 0.13028,0.06254c-0.06514,0.18804 -0.06514,0.18804 -0.18717,0.25101c-0.0456,0.02085 -0.0912,0.04126 -0.13854,0.06254c-0.11118,0.09684 -0.11118,0.09684 -0.19542,0.18848c0,-0.18848 0,-0.18848 0.08555,-0.28922c0.03648,-0.03257 0.07253,-0.06514 0.10987,-0.09902c0.03648,-0.03344 0.07253,-0.06645 0.10987,-0.10075c0.04256,-0.03735 0.04256,-0.03735 0.08555,-0.07557z" fill="#0e0e0e" stroke="none" stroke-width="1" stroke-miterlimit="10"/><path d="M228.74585,190.79868c0.02128,0.04083 0.04299,0.08207 0.06514,0.1242c-0.08338,0.10596 -0.17067,0.20932 -0.26056,0.31007c-0.04299,0 -0.08599,0 -0.13028,0c0.08121,-0.2267 0.10857,-0.29661 0.32571,-0.43427z" fill="#71cee4" stroke="none" stroke-width="1" stroke-miterlimit="10"/><path d="M236.26055,169.60123c0.02171,0 0.04299,0 0.06514,0c-0.02128,0.24367 -0.04299,0.4873 -0.06514,0.73831c-0.06427,-0.06645 -0.12898,-0.13289 -0.19542,-0.2015c0.12203,-0.38564 0.12203,-0.38563 0.19542,-0.53681z" fill="#353535" stroke="none" stroke-width="1" stroke-miterlimit="10"/><path d="M227.84082,192.14537c0.01911,0.04083 0.03821,0.08165 0.05775,0.1242c-0.07426,0.10596 -0.15156,0.20932 -0.23147,0.31007c-0.03822,0 -0.07643,0 -0.11595,0c0.07253,-0.2267 0.09684,-0.29661 0.28966,-0.43428z" fill="#71d1e7" stroke="none" stroke-width="1" stroke-miterlimit="10"/><path d="M251.46149,168.03727c0.02215,0.04008 0.04473,0.08026 0.06818,0.1216c-0.06818,0.11826 -0.06818,0.11825 -0.16632,0.25075c-0.03257,0.04408 -0.06471,0.08811 -0.09815,0.13349c-0.02519,0.0337 -0.05081,0.0674 -0.07687,0.10215c-0.04517,-0.04017 -0.09033,-0.08026 -0.13636,-0.12164c0.13506,-0.16046 0.27012,-0.32097 0.40952,-0.48634z" fill="#252525" stroke="none" stroke-width="1" stroke-miterlimit="10"/></g></g></svg>