<svg version="1.1" xmlns="http://www.w3.org/2000/svg" xmlns:xlink="http://www.w3.org/1999/xlink" width="164.55501" height="88.86449" viewBox="0,0,164.55501,88.86449"><defs><linearGradient x1="239.99915" y1="136.31776" x2="239.99915" y2="223.68168" gradientUnits="userSpaceOnUse" id="color-1"><stop offset="0" stop-color="#fafafa"/><stop offset="1" stop-color="#abeafa"/></linearGradient></defs><g transform="translate(-157.72249,-135.56776)"><g fill-rule="evenodd" stroke="#000000" stroke-width="1.5" stroke-miterlimit="8"><path d="M173.31057,165.08241c-1.89475,-10.16567 7.86201,-19.52759 21.79115,-20.91036c5.64491,-0.56025 11.38364,0.2774 16.2991,2.37888c5.20905,-7.16449 17.37814,-9.88736 27.18332,-6.08182c1.71466,0.66558 3.28857,1.50899 4.6718,2.50404c4.05586,-5.9388 13.93671,-8.35158 22.0681,-5.38914c2.2504,0.81995 4.21325,2.00583 5.73874,3.46655c6.5378,-5.6163 18.09094,-6.31004 25.80463,-1.54955c3.24166,2.00084 5.42698,4.76049 6.17913,7.80586c10.71321,2.13311 17.03157,10.21304 14.11529,18.04705c-0.24517,0.65862 -0.55238,1.30393 -0.92013,1.93122c8.59146,8.16302 6.48786,19.86295 -4.69753,26.13258c-3.48229,1.95165 -7.59565,3.21533 -11.94056,3.66934c-0.09686,8.78214 -9.93836,15.84357 -21.98184,15.77395c-4.02256,-0.02421 -7.95886,-0.8596 -11.37153,-2.41233c-4.07402,9.84453 -18.28162,15.41074 -31.73557,12.42939c-5.63734,-1.25005 -10.50891,-3.89241 -13.78235,-7.47609c-13.77478,6.06411 -31.65385,2.80278 -39.93355,-7.28541c-0.10442,-0.12712 -0.20733,-0.25576 -0.30722,-0.3844c-9.0152,0.77031 -17.1814,-3.92419 -18.23925,-10.48621c-0.56449,-3.49681 1.0185,-6.99741 4.32373,-9.56849c-7.8045,-3.3538 -10.42718,-10.71518 -5.85527,-16.44211c2.63631,-3.30401 7.26119,-5.48812 12.45209,-5.88084z" fill="url(#color-1)"/><path d="M236.14036,171.56483c-0.68229,0 -1.23549,0.55321 -1.23549,1.2355v4.94321c0,0.68229 0.5532,1.23549 1.23549,1.23549h7.91516c0.68229,0 1.2355,-0.5532 1.2355,-1.23549v-4.94321c0,-0.68229 -0.55321,-1.2355 -1.2355,-1.2355zM243.56009,154.06996c0.45056,0.33438 3.41022,3.11149 3.78947,3.47537c0.13584,0.12908 0.27169,0.25816 0.41183,0.39155c0.14384,0.1383 0.28705,0.2766 0.43519,0.41859c0.30181,0.28767 0.60423,0.57534 0.90603,0.86239c0.14998,0.1426 0.29935,0.28521 0.45302,0.43212c0.60484,0.5741 1.2146,1.14206 1.82743,1.70695c0.10511,0.0965 0.20961,0.19362 0.31779,0.2932c0.55751,0.51264 1.12178,1.01606 1.69589,1.51026c0.72962,0.63004 1.40084,1.3111 2.07821,1.99708c0.82489,0.81506 1.69651,1.56803 2.61544,2.27614c0.13031,0.11003 2.09727,1.9768 2.46423,2.32716c0.12785,0.1217 0.2557,0.24279 0.38724,0.36758c0.13523,0.1297 0.26984,0.2594 0.40937,0.39278c0.2846,0.27107 0.56981,0.54091 0.85501,0.81137c0.14015,0.13338 0.28091,0.26677 0.42536,0.40384c0.53969,0.5108 1.08552,1.0136 1.63442,1.51456c0.2803,0.25693 0.28029,0.25693 0.56611,0.5194c0.40015,0.36327 0.80215,0.72286 1.20845,1.07937c2.81029,2.48328 2.8103,2.48328 2.96642,4.35067c0.03073,1.40453 -0.03934,2.4126 -0.8378,3.58539c-0.10634,0.16289 -0.21207,0.32639 -0.32148,0.4942c-0.134,0.14691 -0.66692,0.5569 -0.66692,0.69151c-0.29013,0.29259 -0.29013,0.29259 -0.69151,0.63004c-0.14322,0.1217 -0.28705,0.24402 -0.43457,0.36942c-0.14998,0.12662 -0.29996,0.25325 -0.45486,0.38356c-0.2846,0.24649 -0.56858,0.49358 -0.85194,0.7413c-0.12601,0.1088 -0.2514,0.21821 -0.38048,0.3307c-0.35098,0.30488 -0.35098,0.30488 -0.65463,0.64111c-0.28644,0.26308 -0.28644,0.26308 -0.85501,0.37434c-0.72286,-0.13031 -0.87837,-0.35159 -1.29758,-0.92939c-0.39585,-0.47145 -0.84579,-0.82182 -1.33016,-1.20107c-0.17826,-0.14014 -0.35712,-0.28091 -0.54091,-0.42536c-0.13645,-0.10634 -0.27291,-0.21268 -0.41306,-0.32147c0.00185,0.22374 0.00369,0.44748 0.00492,0.67799c0.0166,2.11387 0.02827,4.22712 0.03565,6.34098c0.0043,1.08675 0.00984,2.17288 0.01905,3.25962c0.00861,1.04925 0.01291,2.0985 0.01537,3.14837c0.00123,0.39892 0.0043,0.79846 0.0086,1.198c0.00553,0.56182 0.00615,1.12301 0.00615,1.68421c0.00246,0.1635 0.00553,0.32762 0.00861,0.49605c-0.01229,1.72785 -0.67921,3.11025 -1.87722,4.33898c-1.68814,1.06216 -3.2295,1.29696 -4.89957,1.26315c-0.18809,-0.00062 -0.37618,-0.00184 -0.57042,-0.00246c-0.69213,-0.0043 -1.38425,-0.01537 -2.07699,-0.0252c-1.55267,-0.0166 -3.10595,-0.03258 -4.70595,-0.04979c-0.06516,-4.04271 -0.13031,-8.08604 -0.19731,-12.25169c-3.326,-0.06516 -6.65201,-0.13093 -10.07882,-0.19793c0.00184,0.86546 0.0043,1.73154 0.00676,2.62343c0.00123,0.68905 0.00246,1.3781 0.00308,2.06715c0.00123,0.72777 0.00246,1.45616 0.00491,2.18394c0.00184,0.70073 0.00307,1.40146 0.00369,2.1028c0.00062,0.26738 0.00123,0.53538 0.00246,0.80276c0.00123,0.37434 0.00123,0.74868 0.00123,1.12301c0.00062,0.21329 0.00123,0.42659 0.00123,0.64602c-0.02336,0.50526 -0.02336,0.50527 -0.22128,0.9005c-1.34306,0.02028 -2.68551,0.03381 -4.02858,0.04364c-0.45609,0.00369 -0.91218,0.00922 -1.36888,0.01598c-0.65832,0.00984 -1.31663,0.01413 -1.97495,0.01782c-0.30242,0.00614 -0.30242,0.00615 -0.61099,0.01229c-1.60307,0.00062 -2.87053,-0.37864 -4.23203,-1.22566c-1.40884,-1.44879 -1.87353,-3.01744 -1.87906,-4.99669c-0.00184,-0.1758 -0.00369,-0.35098 -0.00614,-0.53231c-0.00614,-0.57718 -0.00922,-1.15436 -0.01229,-1.73215c-0.00369,-0.40138 -0.00799,-0.80276 -0.01168,-1.20415c-0.01045,-1.05478 -0.01844,-2.10895 -0.02582,-3.16373c-0.00738,-1.07691 -0.01782,-2.15382 -0.02766,-3.23073c-0.01905,-2.11141 -0.03565,-4.22281 -0.05102,-6.33422c-0.38294,0.34975 -0.76588,0.6995 -1.14882,1.04925c-0.10819,0.09896 -0.21637,0.19793 -0.32762,0.29935c-0.63312,0.57902 -0.63311,0.57902 -1.23918,1.18509c-0.24894,0.23235 -0.24894,0.23235 -0.70811,0.33807c-0.77265,-0.15428 -1.16481,-0.64479 -1.67745,-1.20476c-0.20899,-0.21944 -0.41921,-0.43888 -0.62881,-0.6577c-0.15244,-0.1592 -0.15244,-0.1592 -0.30734,-0.32209c-0.36512,-0.37249 -0.75236,-0.71056 -1.15129,-1.04556c-1.25332,-1.07629 -2.17349,-2.03088 -2.35359,-3.73107c-0.08852,-1.77395 0.32209,-2.97625 1.48075,-4.32178c0.9552,-0.98717 1.98908,-1.84095 3.07276,-2.68183c0.51448,-0.42843 4.73853,-4.27506 4.9383,-5.20076c0.07561,-0.86915 0.06208,-1.73768 0.05041,-2.60868c0.00184,-0.32147 0.00369,-0.64295 0.00676,-0.96442c0.00553,-0.84272 0.00184,-1.68482 -0.0043,-2.52693c-0.0043,-0.86116 0.00062,-1.72232 0.0043,-2.58348c0.00676,-1.68666 0.00308,-3.37333 -0.00676,-5.06062c0.55567,-0.18502 0.89312,-0.22251 1.46723,-0.22313c0.1758,-0.00062 0.35221,-0.00123 0.53354,-0.00185c0.18993,0.00062 0.37925,0.00123 0.57472,0.00123c0.29259,0 0.29259,0 0.59132,-0.00062c0.41245,0 0.82551,0.00062 1.23796,0.00123c0.6325,0.00123 1.26438,0 1.89688,-0.00123c0.40077,0 0.80153,0.00062 1.2023,0.00062c0.18932,0 0.37925,-0.00062 0.5741,-0.00123c0.17641,0.00062 0.35221,0.00123 0.53354,0.00185c0.1549,0.00062 0.3098,0.00062 0.46961,0.00062c0.40507,0.0252 0.40507,0.0252 0.99761,0.22251c0.09835,2.34806 0.09835,2.34806 0.19793,4.74283c1.06154,-1.00438 1.06154,-1.00438 2.12247,-2.00999c0.7204,-0.67983 1.44387,-1.33138 2.22512,-1.94237c0.2262,-0.23788 0.2262,-0.23788 0.45732,-0.48129c0.77719,-0.74112 4.15595,-1.85437 4.89527,-1.80776c0,0 2.10771,0.40504 3.04202,1.04185z" fill="#ec9a09"/></g></g></svg>