<svg version="1.1" xmlns="http://www.w3.org/2000/svg" xmlns:xlink="http://www.w3.org/1999/xlink" width="71.88845" height="70.62862" viewBox="0,0,71.88845,70.62862"><defs><radialGradient cx="240.00001" cy="179.99999" r="17.86516" fx="240.00001" fy="179.99999" gradientUnits="userSpaceOnUse" id="color-1"><stop offset="0" stop-color="#303300"/><stop offset="1" stop-color="#959100"/></radialGradient></defs><g transform="translate(-204.05579,-144.68569)"><g stroke="#000000"><path d="M227.38754,180.00001c0,-0.66834 4.34578,-0.97163 4.4453,-1.61197c0.41745,-2.68573 -2.05027,-7.2789 -1.16825,-9.20222c11.40045,-8.53008 7.94803,4.86742 11.45307,4.86742c2.48398,0 7.82507,-7.07352 9.43083,-6.92695c2.8972,0.26444 1.06401,8.37799 1.06401,12.87372c0,0.73458 -5.70947,0.1016 -5.82925,0.8019c-0.15005,0.87724 5.20274,6.45881 5.0911,7.31441c-0.4437,3.40022 -6.54202,6.78431 -10.60346,5.39588c-1.86132,-0.6363 -1.48255,-6.2713 -3.15322,-6.2713c-0.5868,0 -2.44501,4.64526 -2.98604,4.63779c-5.88131,-0.08122 -7.74409,-5.47983 -7.74409,-11.87867z" fill="url(#color-1)" fill-rule="evenodd" stroke-linecap="butt" stroke-miterlimit="8"/><path d="M248.47334,178.53309c-0.29222,-0.78195 0.17975,-0.77619 0.58559,-1.34588l26.6327,-13.55401l-25.73002,15.06365c-0.6603,0.23389 -0.87436,0.40595 -1.48827,-0.16376z" fill="#686500" fill-rule="evenodd" stroke-linecap="butt" stroke-miterlimit="8"/><path d="M246.26011,174.37299c-0.30151,0.63229 -0.33121,0.90532 -1.16816,0.93657c-0.75955,-0.34629 -0.42175,-0.67596 -0.5376,-1.36576l9.24802,-28.41629z" fill="#686500" fill-rule="evenodd" stroke-linecap="butt" stroke-miterlimit="8"/><path d="M238.63514,172.1566c-0.78195,0.29222 -0.77619,-0.17975 -1.34588,-0.58559l-13.55401,-26.6327l15.06365,25.73002c0.23389,0.6603 0.40595,0.87436 -0.16376,1.48827z" fill="#686500" fill-rule="evenodd" stroke-linecap="butt" stroke-miterlimit="8"/><path d="M233.50754,174.19302c0.63229,0.30151 0.90532,0.33121 0.93657,1.16816c-0.34629,0.75955 -0.67596,0.42175 -1.36576,0.5376l-28.41629,-9.24803l28.84548,7.54226z" fill="#686500" fill-rule="evenodd" stroke-linecap="butt" stroke-miterlimit="8"/><path d="M231.5267,181.46693c0.29222,0.78195 -0.17975,0.77619 -0.58559,1.34588l-26.6327,13.55401l25.73002,-15.06365c0.6603,-0.23389 0.87436,-0.40595 1.48827,0.16376z" fill="#686500" fill-rule="evenodd" stroke-linecap="butt" stroke-miterlimit="8"/><path d="M233.73995,185.62702c0.30151,-0.63229 0.33121,-0.90532 1.16816,-0.93657c0.75955,0.34629 0.42175,0.67596 0.5376,1.36576l-9.24803,28.41629l7.54226,-28.84548z" fill="#686500" fill-rule="evenodd" stroke-linecap="butt" stroke-miterlimit="8"/><path d="M241.20114,189.33168c-0.23389,-0.6603 -0.40595,-0.87436 0.16376,-1.48827c0.78195,-0.29221 0.77619,0.17975 1.34588,0.58559l13.55401,26.6327z" fill="#686500" fill-rule="evenodd" stroke-linecap="butt" stroke-miterlimit="8"/><path d="M246.71893,184.88023c-0.61071,-0.34312 -0.88114,-0.39101 -0.85634,-1.22818c0.39632,-0.73469 0.70265,-0.37559 1.39865,-0.44506l27.73414,11.12785l-28.27646,-9.45461z" fill="#686500" fill-rule="evenodd" stroke-linecap="butt" stroke-miterlimit="8"/><path d="M231.97372,170.88787l0.18986,-4.02513l3.15175,2.92391" fill="#8ca700" fill-rule="nonzero" stroke-linecap="round" stroke-miterlimit="10"/><path d="M232.70404,187.22081l-3.76469,1.43692l1.41816,-4.05853" fill="#8ca700" fill-rule="nonzero" stroke-linecap="round" stroke-miterlimit="10"/><path d="M237.94557,182.31819l-3.7647,1.43692l1.41816,-4.05853" fill="#8ca700" fill-rule="nonzero" stroke-linecap="round" stroke-miterlimit="10"/><path d="M239.28856,175.11156l3.46434,-2.05815l-0.70493,4.24097" fill="#8ca700" fill-rule="nonzero" stroke-linecap="round" stroke-miterlimit="10"/><path d="M249.23987,170.3216l3.76469,-2.23659l-0.76604,4.60867" fill="#8ca700" fill-rule="nonzero" stroke-linecap="round" stroke-miterlimit="10"/><path d="M248.9659,187.67088l2.15631,4.88875l-5.47006,-1.60481" fill="#8ca700" fill-rule="nonzero" stroke-linecap="round" stroke-miterlimit="10"/><path d="M231.1747,180.16603l-1.9004,-3.55334l4.20502,0.89479" fill="#8ca700" fill-rule="nonzero" stroke-linecap="round" stroke-miterlimit="10"/><path d="M246.77769,178.48168l2.43177,3.21312l-4.29314,-0.22742" fill="#8ca700" fill-rule="nonzero" stroke-linecap="round" stroke-miterlimit="10"/></g></g></svg>