<svg version="1.1" xmlns="http://www.w3.org/2000/svg" xmlns:xlink="http://www.w3.org/1999/xlink" width="60.01314" height="60.73396" viewBox="0,0,60.01314,60.73396"><g transform="translate(-209.98712,-149.62673)"><g fill-rule="evenodd" stroke="#000000" stroke-width="1.5" stroke-miterlimit="8"><path d="M219.30132,164.67341c0,-3.79156 3.07391,-6.86527 6.86558,-6.86527h27.46024c3.79167,0 6.86558,3.0737 6.86558,6.86527v29.10851c0,3.79167 -3.07391,6.86527 -6.86558,6.86527h-27.46024c-3.79167,0 -6.86558,-3.0737 -6.86558,-6.86527z" fill="#548235"/><path d="M257.30039,162.44217l11.0187,6.01817l-10.84363,4.89755" fill="#ffd966"/><path d="M242.57446,162.44217l6.0747,-11.12168l4.944,10.94517" fill="#ffd966"/><path d="M225.06813,162.44217l6.01806,-11.12168l4.89766,10.94517" fill="#ffd966"/><path d="M222.80259,178.81575l-11.12168,-6.01817l10.94558,-4.89755" fill="#ffd966"/><path d="M222.80259,194.3655l-11.12168,-6.07491l10.94558,-4.94379" fill="#ffd966"/><path d="M235.98385,197.66081l-6.01806,11.0187l-4.89766,-10.84384" fill="#ffd966"/><path d="M252.66636,197.66081l-6.01806,11.0187l-4.89766,-10.84384" fill="#ffd966"/><path d="M257.30039,182.00808l11.0187,6.01817l-10.84363,4.89755" fill="#ffd966"/><path d="M244.01616,183.03787l-6.0747,11.12168l-4.944,-10.94517" fill="#ffd966"/><path d="M237.12382,175.83257l8.69962,-9.1517l1.91952,11.81482" fill="#ffd966"/></g></g></svg>