<svg version="1.1" xmlns="http://www.w3.org/2000/svg" xmlns:xlink="http://www.w3.org/1999/xlink" width="356.71305" height="279.54059" viewBox="0,0,356.71305,279.54059"><g transform="translate(-57.18934,-40.53589)"><g stroke-width="1.5"><path d="M129.33497,187.73142l12.45914,0.55097c6.84809,36.81224 -11.59713,39.1441 15.77566,70.54257l-38.56825,-0.21328c23.29558,-39.83549 4.95344,-33.57926 10.33345,-70.88026z" fill="#843c0c" fill-rule="evenodd" stroke="#000000" stroke-miterlimit="8"/><path d="M128.95996,101.17504c7.43283,0 13.45801,6.06428 13.45801,13.5451l-0.06576,0.64517l1.01664,0.17418c6.1336,2.14169 10.74579,11.4034 10.74579,22.50466c0,3.17255 -0.37502,6.19402 -1.05752,8.94179l-1.50541,3.81239l0.99531,1.20326c1.79156,2.63935 2.83841,5.82256 2.83841,9.24927l-0.10309,1.01131l1.15349,0.94732c3.00726,2.99304 4.86635,7.1289 4.86635,11.69844c0,9.13552 -7.43816,16.54169 -16.61278,16.54169c-3.43915,0 -6.63658,-1.04152 -9.28659,-2.82419l-0.06576,-0.05332l-0.73049,0.59896c-2.65179,1.78445 -5.84744,2.82597 -9.28837,2.82597c-9.17462,0 -16.61278,-7.40617 -16.61278,-16.54347c0,-2.28388 0.46566,-4.45934 1.30634,-6.4393l0.04266,-0.0782l-1.30101,-2.38519c-0.8389,-1.97996 -1.30457,-4.15542 -1.30457,-6.4393c0,-3.42671 1.04508,-6.60992 2.83663,-9.24927l0.7607,-0.91888l-1.27791,-3.23831c-0.6825,-2.74777 -1.05929,-5.76924 -1.05929,-8.94179c0,-7.92871 2.35497,-14.91898 5.93453,-19.04774l1.18371,-1.09484l-0.05332,-0.17062c-0.17951,-0.88156 -0.27371,-1.79511 -0.27371,-2.72999c0,-7.48082 6.02696,-13.5451 13.45978,-13.5451z" fill="#548235" fill-rule="evenodd" stroke="#000000" stroke-miterlimit="8"/><path d="M139.13422,199.63996l-6.62492,50.70711" fill="none" fill-rule="evenodd" stroke="#000000" stroke-miterlimit="8"/><path d="M155.43696,175.73439c0,4.76149 -3.65954,8.62009 -8.17576,8.62009" fill="none" fill-rule="evenodd" stroke="#000000" stroke-miterlimit="8"/><path d="M139.5831,119.99883c4.59975,1.23347 7.37773,5.7799 6.20647,10.15571" fill="none" fill-rule="evenodd" stroke="#000000" stroke-miterlimit="8"/><path d="M126.91958,182.9966c-4.12343,2.38163 -9.30259,1.13039 -11.5687,-2.7922" fill="none" fill-rule="evenodd" stroke="#000000" stroke-miterlimit="8"/><path d="M121.13434,115.83808c0,-4.76149 3.65954,-8.62009 8.17576,-8.62009" fill="none" fill-rule="evenodd" stroke="#000000" stroke-miterlimit="8"/><path d="M113.86502,142.33998c-2.08126,-2.72821 -2.40296,-6.35043 -0.81935,-9.22261" fill="none" fill-rule="evenodd" stroke="#000000" stroke-miterlimit="8"/><path d="M148.7755,144.98466c-0.46922,3.39649 -2.80464,6.17625 -5.94697,7.07558" fill="none" fill-rule="evenodd" stroke="#000000" stroke-miterlimit="8"/><path d="M116.86872,164.35943c0,-4.76149 3.65954,-8.62009 8.17576,-8.62009" fill="none" fill-rule="evenodd" stroke="#000000" stroke-miterlimit="8"/><path d="M139.2632,241.58479l8.20242,14.14228" fill="none" fill-rule="evenodd" stroke="#000000" stroke-miterlimit="8"/><path d="M133.41931,207.76203l-1.08773,-10.61071" fill="none" fill-rule="evenodd" stroke="#000000" stroke-miterlimit="8"/><path d="M391.95575,254.74739h6.79441c0,21.5257 10.77518,64.7854 0,64.57835h-6.79441c-6.38031,-12.35269 0,-43.05264 0,-64.57835z" fill="#843c0c" fill-rule="evenodd" stroke="#000000" stroke-miterlimit="8"/><path d="M396.26803,288.88583l0.00005,-27.36042" fill="none" fill-rule="evenodd" stroke="#000000" stroke-miterlimit="8"/><path d="M393.18695,315.20817l0.00005,-19.05122" fill="none" fill-rule="evenodd" stroke="#000000" stroke-miterlimit="8"/><path d="M398.60972,281.12125l-0.00005,19.05122" fill="none" fill-rule="evenodd" stroke="#000000" stroke-miterlimit="8"/><path d="M387.32919,223.81328c1.39141,0 2.72491,0.24526 3.95981,0.6951l1.75006,0.99703l0.0074,-0.0037c1.37786,-0.57924 2.89376,-0.89968 4.4836,-0.89968c6.36183,0 11.51957,5.12693 11.51957,11.45055l-0.07148,0.70002l0.79985,0.65565c2.08528,2.07295 3.3744,4.9359 3.3744,8.0971c0,6.32486 -5.15774,11.45179 -11.51956,11.45179c-2.38476,0 -4.60191,-0.72097 -6.43947,-1.95587l-0.0456,-0.03697l-0.50653,0.41533c-1.83879,1.2349 -4.0547,1.95587 -6.4407,1.95587c-6.36183,0 -11.51956,-5.12692 -11.51956,-11.45055c0,-1.58121 0.3229,-3.08724 0.90584,-4.45771l0.02958,-0.05423l-0.90214,-1.65146c-0.58294,-1.37047 -0.9046,-2.87651 -0.9046,-4.45772c0,-6.32362 5.15774,-11.45055 11.51957,-11.45055z" fill="#548235" fill-rule="evenodd" stroke="#000000" stroke-miterlimit="8"/><path d="M405.75779,245.93549c0,3.30169 -2.53758,5.97731 -5.6692,5.97731" fill="none" fill-rule="evenodd" stroke="#000000" stroke-miterlimit="8"/><path d="M398.23008,231.19803c3.18955,0.85531 5.11584,4.00788 4.30366,7.04213" fill="none" fill-rule="evenodd" stroke="#000000" stroke-miterlimit="8"/><path d="M391.48373,251.03407c-2.85925,1.65146 -6.45056,0.78506 -8.02192,-1.93615" fill="none" fill-rule="evenodd" stroke="#000000" stroke-miterlimit="8"/><path d="M383.20424,235.70627c0,-3.30169 2.56593,-5.97731 5.73082,-5.97731" fill="none" fill-rule="evenodd" stroke="#000000" stroke-miterlimit="8"/><path d="M387.94664,244.33455c0.32537,-2.35518 1.94478,-4.28271 4.12373,-4.90633" fill="none" fill-rule="evenodd" stroke="#000000" stroke-miterlimit="8"/><path d="M397.44132,241.00452c-0.32537,2.35518 -1.94478,4.28271 -4.12373,4.90633" fill="none" fill-rule="evenodd" stroke="#000000" stroke-miterlimit="8"/><path d="M83.41095,220.40417h5.66886c0,31.83676 8.98997,95.81833 0,95.5121h-5.66886c-5.32253,-18.26977 0,-63.67534 0,-95.5121z" fill="#843c0c" fill-rule="evenodd" stroke="#000000" stroke-miterlimit="8"/><path d="M87.06024,230.42894l-0.00007,40.46637" fill="none" fill-rule="evenodd" stroke="#000000" stroke-miterlimit="8"/><path d="M84.50834,281.83166l-0.00007,28.17697" fill="none" fill-rule="evenodd" stroke="#000000" stroke-miterlimit="8"/><path d="M88.88302,259.4114l-0.00007,28.17697" fill="none" fill-rule="evenodd" stroke="#000000" stroke-miterlimit="8"/><path d="M83.30157,155.93409c0.66532,0.02005 1.29965,0.16223 1.89205,0.43382c1.77722,0.81661 2.91828,2.68314 3.41408,5.21316l0.1203,1.17023l2.92922,0.27706c6.70967,1.29053 11.75696,6.87008 11.75696,13.55787c0,1.91028 -0.41195,3.72942 -1.15747,5.38633l-0.91504,1.58218l0.71271,0.47939c3.07868,3.07139 4.98349,7.31301 4.98349,11.99939l-0.10572,1.03716l1.18299,0.97337c3.07868,3.07139 4.98349,7.31301 4.98349,11.99939c0,9.37276 -7.61742,16.97013 -17.0157,16.97013c-3.52344,0 -6.79716,-1.06815 -9.51311,-2.89823l-0.06562,-0.05468l-0.74916,0.6161c-2.71595,1.83008 -5.98967,2.89823 -9.51311,2.89823c-9.39646,0 -17.0157,-7.59737 -17.0157,-16.97013c0,-2.34228 0.47757,-4.57519 1.33792,-6.60577l0.04375,-0.0802l-1.33063,-2.448c-0.86218,-2.03058 -1.33792,-4.26167 -1.33792,-6.60577c0,-4.68638 1.90481,-8.928 4.98349,-11.99939l2.69043,-1.8082l0.43382,-3.82238c0.53408,-2.30765 1.3598,-4.73742 2.47716,-7.17266c3.90987,-8.5197 10.11281,-14.2797 14.77732,-14.12841z" fill="#548235" fill-rule="evenodd" stroke="#000000" stroke-miterlimit="8"/><path d="M105.28801,209.19404c0,4.88324 -3.79504,8.84051 -8.47595,8.84051" fill="none" fill-rule="evenodd" stroke="#000000" stroke-miterlimit="8"/><path d="M91.13956,169.15658c4.71737,1.26319 7.56638,5.92587 6.36334,10.41357" fill="none" fill-rule="evenodd" stroke="#000000" stroke-miterlimit="8"/><path d="M78.56417,218.06554c-4.23068,2.44253 -9.54228,1.15929 -11.86451,-2.86359" fill="none" fill-rule="evenodd" stroke="#000000" stroke-miterlimit="8"/><path d="M75.19019,175.63658c-1.53478,-4.35646 0.39008,-9.22329 4.40749,-11.13722" fill="none" fill-rule="evenodd" stroke="#000000" stroke-miterlimit="8"/><path d="M65.3435,200.32255c-2.66856,-4.02471 -1.74805,-9.5277 2.0561,-12.28922c0.54684,-0.39554 1.13559,-0.72182 1.75716,-0.97154" fill="none" fill-rule="evenodd" stroke="#000000" stroke-miterlimit="8"/><path d="M94.62837,197.16184c-0.48122,3.48334 -2.87635,6.33418 -6.09904,7.25651" fill="none" fill-rule="evenodd" stroke="#000000" stroke-miterlimit="8"/><path d="M92.5832,187.41906c4.25803,0.24243 7.93641,3.76405 8.784,8.41033" fill="none" fill-rule="evenodd" stroke="#000000" stroke-miterlimit="8"/><path d="M74.24781,204.74827c0.24243,-4.25803 3.76405,-7.93641 8.41033,-8.784" fill="none" fill-rule="evenodd" stroke="#000000" stroke-miterlimit="8"/><path d="M86.79039,181.30361c-0.48122,3.48334 -2.87635,6.33418 -6.09904,7.25651" fill="none" fill-rule="evenodd" stroke="#000000" stroke-miterlimit="8"/><path d="M85.519,318.71393c51.49367,-98.49053 136.07453,-276.67358 153.97975,-277.42785c21.4159,0.253 103.48861,178.93732 154.98228,277.42785z" fill="#8faadc" fill-rule="evenodd" stroke="#000000" stroke-miterlimit="8"/><path d="M256.43243,160.63108c-12.75767,10.63595 -31.72375,8.91524 -42.3597,-3.84425c-0.2242,-0.26795 -0.44294,-0.54137 -0.65803,-0.81661l23.76,-18.44111z" fill="#dae3f3" fill-rule="evenodd" stroke="none" stroke-miterlimit="10"/><path d="M256.43243,160.63108c-12.75767,10.63595 -31.72375,8.91524 -42.3597,-3.84425c-0.2242,-0.26795 -0.44294,-0.54137 -0.65803,-0.81661" fill="none" fill-rule="evenodd" stroke="#000000" stroke-miterlimit="8"/><path d="M289.97166,156.62095c-12.4478,10.37529 -30.87797,9.02461 -41.67797,-3.05499l22.42025,-20.04699z" fill="#dae3f3" fill-rule="evenodd" stroke="none" stroke-miterlimit="10"/><path d="M289.97166,156.62096c-12.4478,10.37529 -30.87797,9.02461 -41.67797,-3.05499" fill="none" fill-rule="evenodd" stroke="#000000" stroke-miterlimit="8"/><path d="M309.11091,149.51209c-7.64658,6.37428 -17.95078,8.55068 -27.52223,5.81651l8.26451,-28.91848z" fill="#dae3f3" fill-rule="evenodd" stroke="none" stroke-miterlimit="10"/><path d="M309.11091,149.51209c-7.64658,6.37428 -17.95078,8.55068 -27.52223,5.81651" fill="none" fill-rule="evenodd" stroke="#000000" stroke-miterlimit="8"/><path d="M174.19749,146.09802c21.04952,-40.25347 54.8403,-104.61892 65.76425,-103.98714c12.04496,-0.2098 47.16091,66.24055 68.21043,106.49529c-31.05114,-0.69266 -37.49651,2.69043 -68.70441,4.97438c-31.05661,6.12273 -41.73813,-4.20516 -65.27028,-7.48253z" fill="#dae3f3" fill-rule="evenodd" stroke="none" stroke-miterlimit="10"/><path d="M219.65045,152.16242c-14.4802,11.18278 -35.20527,8.43949 -46.33154,-6.13367l26.21529,-20.34775z" fill="#dae3f3" fill-rule="evenodd" stroke="none" stroke-miterlimit="10"/><path d="M219.65045,152.16242c-14.4802,11.18278 -35.20527,8.43949 -46.33154,-6.13367" fill="none" fill-rule="evenodd" stroke="#000000" stroke-miterlimit="8"/><path d="M150.41015,294.77711l39.1279,-102.1999" fill="none" fill-rule="evenodd" stroke="#000000" stroke-miterlimit="8"/><path d="M179.57471,273.54895l19.95767,-75.32166" fill="none" fill-rule="evenodd" stroke="#000000" stroke-miterlimit="8"/><path d="M329.22533,256.92152l30.07595,33.47544" fill="none" fill-rule="evenodd" stroke="#000000" stroke-miterlimit="8"/><path d="M349.18848,294.70238l-59.33529,-66.2163" fill="none" fill-rule="evenodd" stroke="#000000" stroke-miterlimit="8"/><path d="M220.11881,209.45103c-6.43766,0.32876 -8.56302,-2.70363 -8.73159,-7.55488c-0.16858,-4.85125 3.44881,-5.81192 8.25858,-6.05755c4.80977,-0.24562 14.85874,0.07492 15.06486,6.00674c0.20612,5.93183 -8.15419,7.27692 -14.59185,7.60568z" fill="#546381" fill-rule="nonzero" stroke="#000000" stroke-miterlimit="10"/><path d="M146.08217,273.51956c-3.15756,6.86429 -7.46191,7.42336 -12.59163,4.96168c-5.12972,-2.46168 5.95155,-4.04573 3.936,-9.31874c-2.52896,-6.6162 -0.55973,-11.35233 5.71259,-8.34234c6.27232,3.00999 6.10059,5.83511 2.94303,12.6994z" fill="#546381" fill-rule="nonzero" stroke="#000000" stroke-miterlimit="10"/><path d="M313.16166,296.25529c-3.98927,-5.06333 -2.7432,-8.55043 1.11815,-11.49203c3.86135,-2.9416 6.73615,-0.54497 9.71665,3.238c2.9805,3.78296 3.43456,4.72534 -1.28688,8.32217c-2.69502,2.05309 -7.83575,2.10502 -9.54792,-0.06814z" fill="#546381" fill-rule="nonzero" stroke="#000000" stroke-miterlimit="10"/><path d="M202.99619,298.60376c-6.43766,0.32876 -8.56302,-2.70363 -8.73159,-7.55488c-0.16858,-4.85125 3.44881,-5.81192 8.25858,-6.05755c2.06021,-0.10521 12.5829,2.4566 21.47691,-2.049c11.86993,-6.01318 22.53318,-19.19298 22.65101,-15.80198c0.10035,2.88776 -3.07831,16.84935 -12.89761,23.77818c-10.35082,7.30389 -27.45364,7.51652 -30.75729,7.68523z" fill="#546381" fill-rule="nonzero" stroke="#000000" stroke-miterlimit="10"/></g></g></svg>