<svg version="1.1" xmlns="http://www.w3.org/2000/svg" xmlns:xlink="http://www.w3.org/1999/xlink" width="374.98341" height="279.27008" viewBox="0,0,374.98341,279.27008"><g transform="translate(-57.15381,-40.5359)"><g stroke-width="1.5"><path d="M127.34205,210.31217l12.45914,0.55097c6.84809,36.81224 -11.59713,39.1441 15.77566,70.54257l-38.56825,-0.21328c23.29558,-39.83549 4.95344,-33.57926 10.33345,-70.88026z" fill="#843c0c" fill-rule="evenodd" stroke="#000000" stroke-miterlimit="8"/><path d="M126.96703,123.75579c7.43283,0 13.45801,6.06428 13.45801,13.5451l-0.06576,0.64517l1.01664,0.17418c6.1336,2.14169 10.74579,11.4034 10.74579,22.50466c0,3.17255 -0.37502,6.19402 -1.05752,8.94179l-1.50541,3.81239l0.99531,1.20326c1.79156,2.63935 2.83841,5.82256 2.83841,9.24927l-0.10309,1.01131l1.15349,0.94732c3.00726,2.99304 4.86635,7.1289 4.86635,11.69844c0,9.13552 -7.43816,16.54169 -16.61278,16.54169c-3.43915,0 -6.63658,-1.04152 -9.28659,-2.82419l-0.06576,-0.05332l-0.73049,0.59896c-2.65179,1.78445 -5.84744,2.82597 -9.28837,2.82597c-9.17462,0 -16.61278,-7.40617 -16.61278,-16.54347c0,-2.28388 0.46566,-4.45934 1.30634,-6.4393l0.04266,-0.0782l-1.30101,-2.38519c-0.8389,-1.97996 -1.30457,-4.15542 -1.30457,-6.4393c0,-3.42671 1.04508,-6.60992 2.83663,-9.24927l0.7607,-0.91888l-1.27791,-3.23831c-0.6825,-2.74777 -1.05929,-5.76924 -1.05929,-8.94179c0,-7.92871 2.35497,-14.91898 5.93453,-19.04774l1.18371,-1.09484l-0.05332,-0.17062c-0.17951,-0.88156 -0.27371,-1.79511 -0.27371,-2.72999c0,-7.48082 6.02696,-13.5451 13.45978,-13.5451z" fill="#548235" fill-rule="evenodd" stroke="#000000" stroke-miterlimit="8"/><path d="M137.14129,222.22071l-6.62492,50.70711" fill="none" fill-rule="evenodd" stroke="#000000" stroke-miterlimit="8"/><path d="M153.44405,198.31514c0,4.76149 -3.65954,8.62009 -8.17576,8.62009" fill="none" fill-rule="evenodd" stroke="#000000" stroke-miterlimit="8"/><path d="M137.59018,142.57958c4.59975,1.23347 7.37773,5.7799 6.20647,10.15571" fill="none" fill-rule="evenodd" stroke="#000000" stroke-miterlimit="8"/><path d="M124.92665,205.57735c-4.12343,2.38163 -9.30259,1.13039 -11.5687,-2.7922" fill="none" fill-rule="evenodd" stroke="#000000" stroke-miterlimit="8"/><path d="M119.14141,138.41883c0,-4.76149 3.65954,-8.62009 8.17576,-8.62009" fill="none" fill-rule="evenodd" stroke="#000000" stroke-miterlimit="8"/><path d="M111.87209,164.92073c-2.08126,-2.72821 -2.40296,-6.35043 -0.81935,-9.22261" fill="none" fill-rule="evenodd" stroke="#000000" stroke-miterlimit="8"/><path d="M146.78257,167.56541c-0.46922,3.39649 -2.80464,6.17625 -5.94697,7.07558" fill="none" fill-rule="evenodd" stroke="#000000" stroke-miterlimit="8"/><path d="M114.87579,186.94018c0,-4.76149 3.65954,-8.62009 8.17576,-8.62009" fill="none" fill-rule="evenodd" stroke="#000000" stroke-miterlimit="8"/><path d="M145.47269,278.30782l-8.20242,-14.14228" fill="none" fill-rule="evenodd" stroke="#000000" stroke-miterlimit="8"/><path d="M131.42638,230.34278l-1.08773,-10.61071" fill="none" fill-rule="evenodd" stroke="#000000" stroke-miterlimit="8"/><path d="M81.78409,223.54278h10.04901c0,31.83676 15.93661,95.81833 0,95.5121h-10.04901c-9.43656,-18.26977 0,-63.67534 0,-95.5121z" fill="#843c0c" fill-rule="evenodd" stroke="#000000" stroke-miterlimit="8"/><path d="M88.16201,274.03392l0.00007,-40.46637" fill="none" fill-rule="evenodd" stroke="#000000" stroke-miterlimit="8"/><path d="M83.60505,312.96495l0.00007,-28.17697" fill="none" fill-rule="evenodd" stroke="#000000" stroke-miterlimit="8"/><path d="M91.62538,262.55001l-0.00007,28.17697" fill="none" fill-rule="evenodd" stroke="#000000" stroke-miterlimit="8"/><path d="M74.94136,177.79088c2.05792,0 4.03018,0.36273 5.85661,1.02805l2.58835,1.47463l0.01094,-0.00547c2.03787,-0.85671 4.2799,-1.33063 6.63129,-1.33063c9.40922,0 17.03757,7.58278 17.03757,16.93549l-0.10572,1.03534l1.18299,0.96972c3.08415,3.06592 4.99078,7.30025 4.99078,11.9757c0,9.35453 -7.62835,16.93732 -17.03757,16.93732c-3.52709,0 -6.80628,-1.06633 -9.52405,-2.89276l-0.06744,-0.05468l-0.74916,0.61428c-2.71959,1.82643 -5.99696,2.89276 -9.52587,2.89276c-9.40922,0 -17.03757,-7.58278 -17.03757,-16.93549c0,-2.33863 0.47757,-4.56608 1.33975,-6.59301l0.04375,-0.0802l-1.33428,-2.44253c-0.86218,-2.02694 -1.33792,-4.25438 -1.33792,-6.59301c0,-9.35271 7.62835,-16.93549 17.03757,-16.93549z" fill="#548235" fill-rule="evenodd" stroke="#000000" stroke-miterlimit="8"/><path d="M102.19746,210.50987c0,4.88324 -3.75311,8.84051 -8.38481,8.84051" fill="none" fill-rule="evenodd" stroke="#000000" stroke-miterlimit="8"/><path d="M91.06389,188.71301c4.71737,1.26501 7.56638,5.9277 6.36516,10.41539" fill="none" fill-rule="evenodd" stroke="#000000" stroke-miterlimit="8"/><path d="M81.08596,218.05073c-4.22886,2.44253 -9.54046,1.16111 -11.86451,-2.86359" fill="none" fill-rule="evenodd" stroke="#000000" stroke-miterlimit="8"/><path d="M68.8405,195.38075c0,-4.88324 3.79504,-8.84051 8.47595,-8.84051" fill="none" fill-rule="evenodd" stroke="#000000" stroke-miterlimit="8"/><path d="M75.85457,208.14207c0.48122,-3.48334 2.87635,-6.33418 6.09904,-7.25651" fill="none" fill-rule="evenodd" stroke="#000000" stroke-miterlimit="8"/><path d="M89.89731,203.21691c-0.48122,3.48334 -2.87635,6.33418 -6.09904,7.25651" fill="none" fill-rule="evenodd" stroke="#000000" stroke-miterlimit="8"/><path d="M257.49877,318.63907c28.92154,-72.0237 76.42605,-202.32437 86.48308,-202.87595c12.02783,0.18501 58.12442,130.85225 87.04599,202.87595z" fill="#8faadc" fill-rule="evenodd" stroke="#000000" stroke-miterlimit="8"/><path d="M354.09375,190.40615c-1.8206,10.79289 -11.20047,15.93934 -20.95018,11.49503c-1.7054,-0.77742 -3.35556,-1.82424 -4.89928,-3.10785l8.19579,-16.43459z" fill="#dae3f3" fill-rule="evenodd" stroke="none" stroke-miterlimit="10"/><path d="M354.09375,190.40615c-1.8206,10.79289 -11.20047,15.93934 -20.95018,11.49503c-1.7054,-0.77742 -3.35556,-1.82424 -4.89928,-3.10785" fill="none" fill-rule="evenodd" stroke="#000000" stroke-miterlimit="8"/><path d="M370.19459,199.01007c-8.33724,7.09173 -18.82918,4.99753 -23.43445,-4.67727c-0.62631,-1.31587 -1.12284,-2.73618 -1.48028,-4.23415l16.57622,-8.60664z" fill="#dae3f3" fill-rule="evenodd" stroke="none" stroke-miterlimit="10"/><path d="M370.19459,199.01007c-8.33724,7.09173 -18.82918,4.99753 -23.43445,-4.67727c-0.62631,-1.31587 -1.12284,-2.73618 -1.48028,-4.23415" fill="none" fill-rule="evenodd" stroke="#000000" stroke-miterlimit="8"/><path d="M383.25739,194.6414c-4.65703,5.23431 -11.13229,6.74959 -16.89667,3.95435l5.88231,-20.58453z" fill="#dae3f3" fill-rule="evenodd" stroke="none" stroke-miterlimit="10"/><path d="M383.25739,194.6414c-4.65703,5.23431 -11.13229,6.74959 -16.89667,3.95435" fill="none" fill-rule="evenodd" stroke="#000000" stroke-miterlimit="8"/><path d="M307.3519,192.29055c11.79907,-29.44654 30.73999,-76.53053 36.86345,-76.06827c6.75178,-0.15366 26.43621,48.45564 38.23528,77.90199c-17.40559,-0.50601 -21.01853,1.96788 -38.51198,3.63937c-17.40796,4.47895 -23.39544,-3.07577 -36.58675,-5.47309z" fill="#dae3f3" fill-rule="evenodd" stroke="none" stroke-miterlimit="10"/><path d="M334.67089,194.61952c-7.21476,9.55249 -18.92907,9.57491 -26.1648,0.04994c-0.53262,-0.70104 -1.03224,-1.44437 -1.49632,-2.2258l14.55986,-15.07042z" fill="#dae3f3" fill-rule="evenodd" stroke="none" stroke-miterlimit="10"/><path d="M334.67089,194.61952c-7.21476,9.55249 -18.92907,9.57491 -26.1648,0.04994c-0.53262,-0.70104 -1.03224,-1.44437 -1.49632,-2.2258" fill="none" fill-rule="evenodd" stroke="#000000" stroke-miterlimit="8"/><path d="M293.95442,301.0729l34.33379,-83.96239" fill="none" fill-rule="evenodd" stroke="#000000" stroke-miterlimit="8"/><path d="M343.10805,235.88428l-18.16627,53.28036" fill="none" fill-rule="evenodd" stroke="#000000" stroke-miterlimit="8"/><path d="M407.22447,308.91634l-15.38649,-27.64435" fill="none" fill-rule="evenodd" stroke="#000000" stroke-miterlimit="8"/><path d="M391.79951,308.15077l-34.41217,-40.54967" fill="none" fill-rule="evenodd" stroke="#000000" stroke-miterlimit="8"/><path d="M85.51899,318.71393c51.49367,-98.49053 136.07453,-276.67358 153.97975,-277.42785c21.4159,0.253 103.48861,178.93732 154.98228,277.42785z" fill="#8faadc" fill-rule="evenodd" stroke="#000000" stroke-miterlimit="8"/><path d="M256.43242,160.63108c-12.75767,10.63595 -31.72375,8.91524 -42.3597,-3.84425c-0.2242,-0.26795 -0.44294,-0.54137 -0.65803,-0.81661l23.76,-18.44111z" fill="#dae3f3" fill-rule="evenodd" stroke="none" stroke-miterlimit="10"/><path d="M256.43242,160.63108c-12.75767,10.63595 -31.72375,8.91524 -42.3597,-3.84425c-0.2242,-0.26795 -0.44294,-0.54137 -0.65803,-0.81661" fill="none" fill-rule="evenodd" stroke="#000000" stroke-miterlimit="8"/><path d="M289.97165,156.62094c-12.4478,10.37529 -30.87797,9.02461 -41.67797,-3.05499l22.42025,-20.04699z" fill="#dae3f3" fill-rule="evenodd" stroke="none" stroke-miterlimit="10"/><path d="M289.97165,156.62095c-12.4478,10.37529 -30.87797,9.02461 -41.67797,-3.05499" fill="none" fill-rule="evenodd" stroke="#000000" stroke-miterlimit="8"/><path d="M309.1109,149.51209c-7.64658,6.37428 -17.95078,8.55068 -27.52223,5.81651l8.26451,-28.91848z" fill="#dae3f3" fill-rule="evenodd" stroke="none" stroke-miterlimit="10"/><path d="M309.1109,149.51208c-7.64658,6.37428 -17.95078,8.55068 -27.52223,5.81651" fill="none" fill-rule="evenodd" stroke="#000000" stroke-miterlimit="8"/><path d="M174.19748,146.09801c21.04952,-40.25347 54.8403,-104.61892 65.76425,-103.98714c12.04496,-0.2098 47.16091,66.24055 68.21043,106.49529c-31.05114,-0.69266 -37.49651,2.69043 -68.70441,4.97438c-31.05661,6.12273 -41.73813,-4.20516 -65.27028,-7.48253z" fill="#dae3f3" fill-rule="evenodd" stroke="none" stroke-miterlimit="10"/><path d="M219.65044,152.16241c-14.4802,11.18278 -35.20527,8.43949 -46.33154,-6.13367l26.21529,-20.34775z" fill="#dae3f3" fill-rule="evenodd" stroke="none" stroke-miterlimit="10"/><path d="M219.65044,152.16241c-14.4802,11.18278 -35.20527,8.43949 -46.33154,-6.13367" fill="none" fill-rule="evenodd" stroke="#000000" stroke-miterlimit="8"/><path d="M150.41014,294.77711l39.1279,-102.1999" fill="none" fill-rule="evenodd" stroke="#000000" stroke-miterlimit="8"/><path d="M179.5747,273.54895l19.95767,-75.32166" fill="none" fill-rule="evenodd" stroke="#000000" stroke-miterlimit="8"/><path d="M359.30128,290.39695l-30.07595,-33.47544" fill="none" fill-rule="evenodd" stroke="#000000" stroke-miterlimit="8"/><path d="M289.85318,228.48608l59.33529,66.2163" fill="none" fill-rule="evenodd" stroke="#000000" stroke-miterlimit="8"/><path d="M242.93516,282.40878c-1.84645,3.46586 -7.72917,16.24882 -17.19356,15.54504c-6.07099,-0.45144 -16.7697,-13.70639 -18.42912,-14.62547c-4.24639,-2.35186 0.00681,-29.52776 2.27127,-33.77822c2.26446,-4.25046 7.71042,-12.70186 12.90264,-9.82613c5.19224,2.87573 23.47963,12.34405 20.44876,18.03311z" fill="#546381" fill-rule="nonzero" stroke="#000000" stroke-miterlimit="10"/><path d="M291.5934,192.09196c-6.36187,1.03834 -8.80939,-1.74055 -9.51316,-6.54343c-0.70378,-4.80289 2.78526,-6.15752 7.5384,-6.9333c4.75315,-0.77576 14.77597,-1.56795 15.6365,4.30473c0.86054,5.8727 -7.29987,8.13365 -13.66174,9.17199z" fill="#546381" fill-rule="nonzero" stroke="#000000" stroke-miterlimit="10"/><path d="M266.58268,307.48853c-6.36187,1.03834 -8.80939,-1.74055 -9.51316,-6.54343c-0.70378,-4.80289 8.68022,-13.6602 13.43336,-14.43598c4.75315,-0.77576 23.35046,-1.56795 24.21099,4.30473c0.86054,5.8727 -21.76932,15.63633 -28.13119,16.67467z" fill="#546381" fill-rule="nonzero" stroke="#000000" stroke-miterlimit="10"/><path d="M279.46865,261.02792c1.03834,6.36187 -4.42008,10.41711 -9.22296,11.12088c-4.80289,0.70378 -11.51658,-9.75203 -12.29236,-14.50517c-0.77576,-4.75315 5.39882,-20.13503 11.2715,-20.99556c5.8727,-0.86054 9.20546,18.01798 10.2438,24.37985z" fill="#546381" fill-rule="nonzero" stroke="#000000" stroke-miterlimit="10"/><path d="M142.34654,277.32057c-3.7643,5.23274 -7.45993,4.99842 -11.35372,2.09992c-3.8938,-2.89851 -2.38455,-6.3235 0.42787,-10.23304c2.81244,-3.90953 6.30794,-7.00959 11.06904,-3.46546c4.76112,3.54413 3.62111,6.36584 -0.14319,11.59857z" fill="#546381" fill-rule="nonzero" stroke="#000000" stroke-miterlimit="10"/><path d="M379.80296,229.26591c-3.76431,5.23274 -7.45994,4.99842 -11.35373,2.09992c-3.8938,-2.89851 -2.38455,-6.3235 0.42787,-10.23304c2.81244,-3.90953 6.30794,-7.00959 11.06904,-3.46546c4.76112,3.54413 3.62111,6.36584 -0.1432,11.59857z" fill="#546381" fill-rule="nonzero" stroke="#000000" stroke-miterlimit="10"/><path d="M189.48376,180.89548c-5.98635,1.03834 -8.2894,-1.74055 -8.95163,-6.54343c-0.66224,-4.80289 2.62086,-6.15752 7.09344,-6.9333c4.47259,-0.77576 8.86107,-0.49614 9.6708,5.37654c0.80975,5.8727 -1.82625,7.06184 -7.81261,8.10018z" fill="#546381" fill-rule="nonzero" stroke="#000000" stroke-miterlimit="10"/></g></g></svg>