<svg version="1.1" xmlns="http://www.w3.org/2000/svg" xmlns:xlink="http://www.w3.org/1999/xlink" width="54.11137" height="60.15245" viewBox="0,0,54.11137,60.15245"><g transform="translate(-212.70702,-150.21054)"><g stroke="#000000" stroke-miterlimit="10"><path d="M223.20702,190.18654c-5.52284,0 -10,-4.47716 -10,-10c0,-5.52284 4.47716,-10 10,-10c5.52284,0 10,4.47716 10,10c0,5.52284 -4.47716,10 -10,10z" fill="#2b6528" stroke-linecap="butt"/><path d="M230.62413,178.41571l36.16885,1.84055l-36.4559,1.70112" fill="#868800" stroke-linecap="round"/><path d="M229.5729,184.29408l24.70959,6.33831l-25.40398,-3.93371" fill="#868800" stroke-linecap="round"/><path d="M228.87851,173.30132l25.40398,-3.93371l-24.70958,6.33831" fill="#868800" stroke-linecap="round"/><path d="M217.47158,175.73875l-3.93371,-25.40398l6.33831,24.70958" fill="#868800" stroke-linecap="round"/><path d="M219.87618,185.52917l-6.33831,24.70958l3.93371,-25.40398" fill="#868800" stroke-linecap="round"/></g></g></svg>