<svg version="1.1" xmlns="http://www.w3.org/2000/svg" xmlns:xlink="http://www.w3.org/1999/xlink" width="69.30835" height="69.24034" viewBox="0,0,69.30835,69.24034"><defs><radialGradient cx="239.99989" cy="179.99985" r="47.69013" fx="239.99989" fy="179.99985" gradientUnits="userSpaceOnUse" id="color-1"><stop offset="0" stop-color="#9dc3e6"/><stop offset="0.5" stop-color="#9dc3e6"/><stop offset="1" stop-color="#ffffff"/></radialGradient></defs><g transform="translate(-205.34582,-145.03233)"><g fill-rule="evenodd" stroke="#000000" stroke-width="1.5" stroke-miterlimit="8"><path d="M240.18768,146.50617c1.67514,-0.21163 3.29377,0.3168 4.54603,1.48685c2.51727,-1.3742 5.29519,-1.34576 7.54086,0.07637c2.98754,1.89041 4.5278,5.90856 3.89894,10.16658c2.02876,0.56561 3.66015,2.19482 4.47494,4.46619c0.92962,2.58854 0.67625,5.63915 -0.56689,8.19214l-0.71271,1.06943l0.00365,-0.00036c0.80203,0.05468 1.60223,0.21308 2.37144,0.48049c2.3441,0.81497 4.02471,2.52109 4.47494,4.54548l0.02552,0.01112l3.53256,1.60915c0.98795,0.75828 1.74805,1.71178 2.18552,2.79105c0.63797,1.5665 0.54684,3.26789 -0.25701,4.78335c1.97772,2.07816 2.66856,4.77223 1.87929,7.31374c-1.05175,3.37871 -4.5278,5.9091 -8.79858,6.40217c-0.02005,2.10896 -1.16841,4.10965 -3.14795,5.48585c-3.00942,2.09256 -7.35494,2.36051 -10.72344,0.66349c-0.54501,1.45823 -1.54572,2.74329 -2.86906,3.75311l-1.26501,0.7437l-0.73276,1.06997c-1.01165,1.08456 -2.29671,1.78815 -3.66197,1.90663c-0.98795,0.08385 -1.92851,-0.14765 -2.73965,-0.64709l-0.864,-0.98613l-1.85377,-0.34086l-0.17863,-0.08385l-0.44841,0.40466c-1.47828,0.99159 -3.20628,1.22491 -4.72648,0.56324c-1.18663,-0.51585 -2.10167,-1.51291 -2.64851,-2.77246l-0.10937,-0.42289l-1.42359,0.40648c-4.73195,0.52314 -9.61154,-1.26684 -12.14157,-4.84314c-3.31382,0.31352 -6.42532,-1.34704 -7.35858,-3.92774c-0.67625,-1.86708 -0.07838,-3.88198 1.57306,-5.30157c-2.34228,-1.11354 -3.64739,-3.25039 -3.32111,-5.43937c0.38278,-2.56284 2.90005,-4.57027 6.06441,-4.83457c0.01823,-0.04265 0.03828,-0.08458 0.05651,-0.12741c-0.42471,-2.52383 0.56689,-5.06898 2.70137,-6.94262c2.53003,-2.21942 6.23939,-3.14522 9.74825,-2.61187l0.20051,0.06033l1.17023,-1.21944l-0.03099,-0.05724l-1.36527,-2.51818c-0.26977,-0.99123 -0.33357,-2.08581 -0.1677,-3.19607c0.18228,-1.22218 0.62704,-2.3729 1.26684,-3.34809l2.36597,-2.2289l0.07109,-0.06653c-1.06997,-1.97152 -1.18299,-4.51267 -0.40101,-6.79826c0.26066,-0.76192 0.62157,-1.49541 1.07727,-2.17003c1.39261,-2.05592 3.47423,-3.24 5.54309,-3.15269l0.01641,-0.02096l2.46805,-3.00176c0.98613,-0.75901 2.10167,-1.24606 3.25732,-1.39151z" fill="url(#color-1)"/><path d="M259.43082,183.65288c2.35686,1.95658 3.71848,4.85973 3.71848,7.92164" fill="none"/><path d="M241.21208,201.57942c-2.84719,1.15419 -6.06258,0.98102 -8.77124,-0.47319" fill="none"/><path d="M222.24236,189.27143c-1.77539,-2.50925 -2.34046,-5.67816 -1.54572,-8.64729" fill="none"/><path d="M239.40935,156.93013c2.88365,-1.06524 6.09175,-0.79255 8.75301,0.74443" fill="none"/></g></g></svg>