<svg version="1.1" xmlns="http://www.w3.org/2000/svg" xmlns:xlink="http://www.w3.org/1999/xlink" width="164.55501" height="88.86449" viewBox="0,0,164.55501,88.86449"><defs><linearGradient x1="239.99915" y1="136.31776" x2="239.99915" y2="223.68168" gradientUnits="userSpaceOnUse" id="color-1"><stop offset="0" stop-color="#fafafa"/><stop offset="1" stop-color="#abeafa"/></linearGradient></defs><g transform="translate(-157.7225,-135.56776)"><g fill-rule="evenodd" stroke="#000000" stroke-width="1.5" stroke-miterlimit="8"><path d="M173.31057,165.08241c-1.89475,-10.16567 7.86201,-19.52759 21.79115,-20.91036c5.64491,-0.56025 11.38364,0.2774 16.2991,2.37888c5.20905,-7.16449 17.37814,-9.88736 27.18332,-6.08182c1.71466,0.66558 3.28857,1.50899 4.6718,2.50404c4.05586,-5.9388 13.93671,-8.35158 22.0681,-5.38914c2.2504,0.81995 4.21325,2.00583 5.73874,3.46655c6.5378,-5.6163 18.09094,-6.31004 25.80463,-1.54955c3.24166,2.00084 5.42698,4.76049 6.17913,7.80586c10.71321,2.13311 17.03157,10.21304 14.11529,18.04705c-0.24517,0.65862 -0.55238,1.30393 -0.92013,1.93122c8.59146,8.16302 6.48786,19.86295 -4.69753,26.13258c-3.48229,1.95165 -7.59565,3.21533 -11.94056,3.66934c-0.09686,8.78214 -9.93836,15.84357 -21.98184,15.77395c-4.02256,-0.02421 -7.95886,-0.8596 -11.37153,-2.41233c-4.07402,9.84453 -18.28162,15.41074 -31.73557,12.42939c-5.63734,-1.25005 -10.50891,-3.89241 -13.78235,-7.47609c-13.77478,6.06411 -31.65385,2.80278 -39.93355,-7.28541c-0.10442,-0.12712 -0.20733,-0.25576 -0.30722,-0.3844c-9.0152,0.77031 -17.1814,-3.92419 -18.23925,-10.48621c-0.56449,-3.49681 1.0185,-6.99741 4.32373,-9.56849c-7.8045,-3.3538 -10.42718,-10.71518 -5.85527,-16.44211c2.63631,-3.30401 7.26119,-5.48812 12.45209,-5.88084z" fill="url(#color-1)"/><path d="M176.27008,188.94908c-3.33246,0.19038 -6.66492,-0.37184 -9.54791,-1.61114M184.69506,206.57949c-1.34085,0.38894 -2.74527,0.64773 -4.17844,0.77031M220.6923,215.04988c-1.00791,-1.10325 -1.85086,-2.28218 -2.51675,-3.51709M267.24234,206.27985c-0.14831,1.30907 -0.48579,2.60301 -1.0064,3.85912M287.22652,182.43428c7.5563,2.68383 12.32345,8.29514 12.25686,14.42326M316.1351,167.07197c-1.22432,2.08695 -3.09183,3.93812 -5.45725,5.40852M303.03982,147.0041c0.20885,0.8428 0.3057,1.69816 0.28906,2.55428M268.18821,144.02471c0.71129,-1.17847 1.65261,-2.27567 2.79521,-3.25755M242.03852,145.57698c0.29057,-0.97371 0.7461,-1.91745 1.35447,-2.80929M211.35173,146.53117c1.77973,0.76032 3.42478,1.67561 4.90032,2.72545M174.13621,167.95124c-0.38743,-0.93784 -0.67345,-1.89672 -0.85506,-2.86755" fill="none"/><path d="M234.78161,149.39593c0.12695,-0.0007 0.25383,-0.0014 0.38462,-0.00209c0.41884,-0.00189 0.83768,-0.00175 1.25653,-0.00147c0.29161,-0.00056 0.58322,-0.00112 0.87476,-0.00175c0.61101,-0.00105 1.22196,-0.00098 1.8329,-0.00028c0.78245,0.00077 1.56483,-0.00154 2.34727,-0.00468c0.60215,-0.00203 1.20429,-0.00216 1.80644,-0.00175c0.28847,-0.00007 0.57694,-0.00077 0.86541,-0.00216c0.40355,-0.00168 0.80703,-0.00077 1.21058,0.00084c0.11878,-0.00105 0.23763,-0.00209 0.36004,-0.00314c0.68455,0.00594 1.15667,0.08394 1.74939,0.46409c0.37534,0.47841 0.47296,0.88335 0.53085,1.48173c0.01578,0.15516 0.03163,0.31033 0.0479,0.47017c0.02256,0.24748 0.02256,0.24748 0.0456,0.49998c0.01676,0.17004 0.03345,0.34007 0.0507,0.51521c0.03394,0.34768 0.06704,0.69544 0.09937,1.04326c0.0426,0.45641 0.08743,0.91254 0.13324,1.3686c0.02549,0.26026 0.05077,0.52044 0.07591,0.78063c0.01152,0.11585 0.02297,0.2317 0.03478,0.35104c0.07702,0.83845 0.08813,1.66929 0.07646,2.51096c0.14993,0.02472 0.14993,0.02472 0.30285,0.04993c0.63217,0.14371 1.17056,0.462 1.74108,0.76164c0.12919,0.06564 0.25837,0.13121 0.39105,0.19881c0.70389,0.3678 1.28348,0.74656 1.86237,1.28753c0.38756,0.34887 0.67666,0.53022 1.17664,0.70927c0.86869,-0.08338 1.65218,-0.57798 2.40635,-0.98384c0.85333,-0.44971 1.7269,-0.85619 2.59908,-1.26721c0.31074,-0.14776 0.61939,-0.29873 0.92804,-0.45041c0.19413,-0.09357 0.38826,-0.18715 0.58308,-0.28065c0.08729,-0.04392 0.17527,-0.08785 0.26535,-0.13317c0.59007,-0.28009 1.05304,-0.36996 1.70246,-0.30202c0.95039,0.43469 1.42524,1.54304 1.89868,2.40921c0.18016,0.32059 0.36102,0.64097 0.54188,0.96107c0.04609,0.08247 0.09287,0.16494 0.14036,0.24985c0.51255,0.90793 1.05653,1.79617 1.60191,2.68469c0.75766,1.23837 1.50624,2.481 2.24085,3.7334c0.07961,0.13596 0.15991,0.27192 0.24231,0.412c0.07402,0.12604 0.14734,0.25209 0.22346,0.38197c0.06355,0.10949 0.12779,0.21899 0.19343,0.33183c0.29678,0.55452 0.51116,0.97783 0.38407,1.60798c-0.01676,0.09846 -0.03352,0.19699 -0.05098,0.29845c-0.44831,0.89501 -1.53417,1.44395 -2.3435,1.98255c-1.05304,0.7092 -2.07605,1.44842 -3.0858,2.21697c-1.38194,1.04655 -1.38194,1.04655 -1.71294,1.04655c0.02025,0.09497 0.0398,0.18994 0.06005,0.28777c0.17946,0.98251 0.23952,1.92731 0.23952,2.92442c0.0007,0.12451 0.00209,0.24908 0.00349,0.37736c-0.0014,0.70815 -0.08659,1.31504 -0.25139,2.00615c-0.06843,0.418 -0.06843,0.418 0.08519,0.82875c0.60333,0.69216 1.39172,1.1948 2.14937,1.70218c0.40502,0.27262 0.79048,0.5643 1.17804,0.86073c0.50348,0.37652 0.50348,0.37652 1.00905,0.75172c0.24022,0.17849 0.47904,0.3583 0.71855,0.53832c0.14245,0.10621 0.28491,0.21249 0.43155,0.32192c0.99927,0.84292 0.99927,0.84292 1.15429,1.42628c0.07751,0.98447 -0.41968,1.72306 -0.90989,2.54042c-0.08659,0.14888 -0.17318,0.29776 -0.26256,0.45117c-0.26954,0.46325 -0.54258,0.92441 -0.81562,1.38564c-0.16201,0.27883 -0.32471,0.55794 -0.48602,0.83719c-0.39314,0.67728 -0.78908,1.35254 -1.18572,2.0271c-0.25418,0.43365 -0.50767,0.86869 -0.76115,1.30303c-0.08519,0.14595 -0.17039,0.29259 -0.25837,0.44272c-0.16131,0.27723 -0.32331,0.55445 -0.48462,0.83168c-0.14664,0.25069 -0.29329,0.50208 -0.44063,0.75277c-0.14734,0.25139 -0.29399,0.50278 -0.43923,0.75486c-0.07193,0.1222 -0.14385,0.2451 -0.21787,0.3715c-0.06355,0.10963 -0.12779,0.21927 -0.19343,0.33239c-0.28281,0.41828 -0.51884,0.56074 -1.00695,0.68503c-0.84914,-0.00908 -1.53976,-0.21997 -2.29253,-0.59495c-0.09637,-0.04609 -0.19273,-0.09218 -0.29189,-0.13966c-0.30516,-0.14664 -0.60962,-0.29538 -0.91338,-0.44482c-1.79045,-0.86729 -1.79045,-0.86729 -3.59626,-1.70316c-0.13617,-0.06355 -0.13617,-0.06355 -0.27443,-0.12849c-0.35893,-0.15921 -0.62777,-0.27792 -1.02371,-0.23742c-0.29678,0.13547 -0.5335,0.30795 -0.79327,0.50627c-0.6564,0.47135 -1.33865,0.87218 -2.04463,1.26393c-0.10125,0.05726 -0.20321,0.11382 -0.30795,0.17248c-0.6997,0.38407 -1.41532,0.71227 -2.14658,1.03209c-0.0088,0.10265 -0.01753,0.2053 -0.02661,0.31144c-0.08331,0.96924 -0.16962,1.93849 -0.25914,2.90773c-0.04588,0.49789 -0.09071,0.99648 -0.13296,1.49507c-0.04078,0.48113 -0.08456,0.96226 -0.13044,1.44339c-0.02507,0.27234 -0.04721,0.54398 -0.0692,0.81632c-0.09246,0.94131 -0.15733,1.54883 -0.88698,2.18429c-0.47478,0.23742 -1.02511,0.16061 -1.548,0.1634c-0.13219,0.0007 -0.26438,0.00209 -0.40055,0.00349c-0.43888,0.00279 -0.8777,0.00559 -1.31658,0.00698c-0.14972,0.0014 -0.29943,0.00209 -0.45362,0.00279c-0.79243,0.00349 -1.58487,0.00628 -2.3773,0.00768c-0.81883,0.00279 -1.63759,0.00908 -2.45642,0.01536c-0.62924,0.00489 -1.25848,0.00628 -1.88779,0.00698c-0.30181,0.0014 -0.60368,0.00349 -0.90549,0.00628c-0.42261,0.00489 -0.84509,0.00489 -1.2677,0.00349c-0.12465,0.00209 -0.24922,0.00489 -0.37757,0.00698c-0.58078,-0.00559 -0.983,-0.03561 -1.45079,-0.39873c-0.44908,-0.4937 -0.44908,-0.4937 -0.51982,-0.92316c-0.02654,-0.15991 -0.02654,-0.15991 -0.05356,-0.32401c-0.07353,-0.68224 -0.1074,-1.36518 -0.13764,-2.05091c-0.01969,-0.3275 -0.04001,-0.65431 -0.06089,-0.98181c-0.03261,-0.51186 -0.06208,-1.02231 -0.08142,-1.53417c0.01522,-1.81698 0.01522,-1.81698 -0.66171,-3.42517c-0.51639,-0.38895 -1.07078,-0.58169 -1.68968,-0.74858c-0.47554,-0.15014 -0.87763,-0.40083 -1.30701,-0.65221c-0.15523,-0.08938 -0.31047,-0.17807 -0.47045,-0.26954c-0.45571,-0.28281 -0.86471,-0.59286 -1.26155,-0.95248c-0.38951,-0.19762 -0.65221,-0.08799 -1.07343,0.00908c-0.34824,0.14385 -0.68287,0.29329 -1.02099,0.45809c-0.14539,0.06913 -0.14539,0.06913 -0.29371,0.13966c-0.30921,0.14664 -0.61772,0.29538 -0.92616,0.44412c-0.70305,0.33728 -1.40687,0.67247 -2.11243,1.00416c-0.20062,0.09427 -0.40104,0.18924 -0.60117,0.28421c-0.29084,0.13757 -0.58294,0.27234 -0.87546,0.40641c-0.08596,0.0412 -0.17192,0.0824 -0.26047,0.125c-0.65417,0.29399 -1.1441,0.33309 -1.8468,0.28211c-0.76255,-0.39594 -1.08698,-1.1934 -1.4797,-1.92243c-0.15789,-0.2863 -0.31612,-0.57191 -0.47471,-0.85752c-0.08289,-0.14944 -0.16578,-0.29887 -0.25125,-0.4532c-0.42862,-0.76185 -0.87798,-1.51043 -1.32677,-2.2604c-0.73629,-1.2346 -1.46532,-2.47332 -2.18129,-3.72c-0.0956,-0.16627 -0.19133,-0.33246 -0.28721,-0.49852c-1.25206,-2.16942 -1.25206,-2.16942 -1.25206,-2.94907c0.27478,-0.92623 1.16198,-1.41288 1.92445,-1.93933c0.10384,-0.07241 0.20768,-0.14483 0.31466,-0.21948c0.56688,-0.39412 1.13719,-0.78259 1.71238,-1.16449c0.12576,-0.08568 0.2516,-0.17129 0.38113,-0.25949c0.37527,-0.24287 0.75249,-0.465 1.14082,-0.68559c1.30289,-0.6976 1.30289,-0.6976 2.05217,-1.87578c-0.03687,-0.44419 -0.10901,-0.85605 -0.21668,-1.28816c-0.09748,-0.47694 -0.08051,-0.95074 -0.07304,-1.4355c-0.00154,-0.09713 -0.003,-0.19434 -0.00454,-0.29447c-0.00405,-0.49105 0.025,-0.93035 0.14406,-1.40771c0.12123,-0.57994 0.17213,-0.936 0.01439,-1.51001c-0.61618,-0.67819 -1.46287,-1.10869 -2.24742,-1.56392c-0.52512,-0.31724 -1.0059,-0.6835 -1.49025,-1.05884c-0.77847,-0.59349 -1.56734,-1.16833 -2.37416,-1.72292c-0.80403,-0.56185 -0.80403,-0.56185 -0.92846,-1.12455c-0.06075,-1.14529 0.45432,-1.93576 1.03607,-2.88497c0.1007,-0.16927 0.20111,-0.33868 0.30125,-0.50829c0.20404,-0.34475 0.40962,-0.6886 0.61667,-1.0316c0.35013,-0.58078 0.69125,-1.16665 1.03188,-1.75295c0.23142,-0.3981 0.4643,-0.79523 0.69739,-1.19235c0.34873,-0.59586 0.69293,-1.19424 1.03488,-1.79401c0.09301,-0.1627 0.18603,-0.32534 0.27904,-0.48797c0.17737,-0.31019 0.35369,-0.62086 0.52952,-0.93188c1.04208,-1.82173 1.04208,-1.82173 1.65044,-2.12556c1.19095,-0.22031 2.14693,0.29077 3.1793,0.80661c0.28868,0.14364 0.57896,0.28309 0.87015,0.4215c0.86352,0.41137 1.72048,0.83245 2.57059,1.27077c1.16756,0.64893 1.16756,0.64893 2.43337,0.65515c0.37408,-0.26019 0.37408,-0.26019 0.69977,-0.60124c0.44908,-0.43958 0.91876,-0.70975 1.46839,-1.00646c0.09343,-0.0516 0.1868,-0.10321 0.28302,-0.15635c2.04051,-1.11659 2.04051,-1.11659 2.59084,-1.11659c-0.00272,-0.16829 -0.00538,-0.33665 -0.00817,-0.51004c0.00042,-0.80444 0.06781,-1.60016 0.13861,-2.40104c0.02081,-0.23617 0.02081,-0.23617 0.04204,-0.47708c0.02961,-0.33093 0.0595,-0.66171 0.0898,-0.99257c0.03045,-0.33819 0.05991,-0.67652 0.08834,-1.01484c0.04113,-0.49056 0.08547,-0.98077 0.13051,-1.47097c0.01208,-0.15111 0.02423,-0.30216 0.03673,-0.45781c0.12954,-1.33711 0.12954,-1.33711 0.71373,-1.83388c0.63685,-0.34021 1.25136,-0.31298 1.9549,-0.31095zM234.30055,175.332c-1.211,1.54318 -1.77676,3.45269 -1.61063,5.40353c0.36326,2.07989 1.186,3.87104 2.93524,5.16967c1.91,1.19193 3.96831,1.59101 6.18815,1.15653c0.39573,-0.12681 0.76429,-0.27206 1.14026,-0.44852c0.10705,-0.0479 0.2141,-0.09588 0.32443,-0.14525c1.58375,-0.7895 2.85438,-2.15007 3.47,-3.81455c0.61939,-1.92096 0.66059,-3.80226 -0.17437,-5.67259c-1.0073,-1.941 -2.41054,-3.25374 -4.51816,-3.94694c-2.85368,-0.76736 -5.77182,0.10565 -7.75493,2.29811z" fill="#5f7c8b"/><path d="M251.49652,166.81053c3.26107,2.85326 5.60876,7.07311 5.9251,11.43331c0.2863,5.00955 -1.05513,9.6511 -4.40349,13.45c-3.28202,3.61302 -7.66869,5.61435 -12.52168,5.92649c-4.62995,0.19133 -9.07346,-1.68081 -12.48048,-4.73491c-2.12026,-1.96691 -3.70498,-4.341 -4.64308,-7.081c-0.03135,-0.08994 -0.06271,-0.17988 -0.09504,-0.27262c-1.42949,-4.1403 -1.24493,-8.73604 0.6284,-12.71609c0.13784,-0.27911 0.27988,-0.5555 0.42429,-0.83126c0.04483,-0.08743 0.08966,-0.17479 0.13582,-0.2648c0.60284,-1.16232 1.32691,-2.17228 2.19002,-3.15598c0.13282,-0.16012 0.13282,-0.16012 0.26829,-0.32338c2.58979,-3.06059 6.83163,-5.302 10.83158,-5.67036c5.19774,-0.35572 9.72561,0.82868 13.74029,4.24058zM234.28644,175.33256c-1.21072,1.54478 -1.77627,3.45625 -1.61029,5.40912c0.36326,2.08199 1.18572,3.87502 2.93455,5.17498c1.90944,1.19319 3.96727,1.59269 6.18654,1.15779c0.39566,-0.12702 0.76408,-0.27241 1.13998,-0.44901c0.10705,-0.04797 0.2141,-0.09595 0.32436,-0.14539c1.58333,-0.79034 2.85361,-2.15231 3.4691,-3.81853c0.61925,-1.92292 0.66045,-3.80624 -0.1743,-5.67846c-1.00702,-1.94296 -2.40991,-3.25709 -4.51704,-3.951c-2.85291,-0.7682 -5.77028,0.10572 -7.7529,2.30049z" fill="#455a64"/></g></g></svg>