<svg version="1.1" xmlns="http://www.w3.org/2000/svg" xmlns:xlink="http://www.w3.org/1999/xlink" width="401.56064" height="249.8317" viewBox="0,0,401.56064,249.8317"><g transform="translate(-20.91243,-32.83573)"><g fill-rule="evenodd" stroke="none" stroke-miterlimit="10"><path d="M202.71186,87.04805c13.66536,11.03407 22.58207,26.23923 31.28422,41.2289c9.93031,18.91381 9.93031,18.91381 26.59581,30.71966c2.49561,0.59976 4.89418,0.71078 7.45298,0.76943c6.82118,0.30169 12.78039,1.86111 17.67006,6.89496c3.25601,4.06202 5.36804,8.88896 7.65154,13.53382c4.52864,9.14259 9.58755,17.98777 15.40687,26.37152c0.6995,1.02352 1.37643,2.05877 2.04884,3.10078c3.25601,5.02664 6.80312,9.78431 10.45629,14.53002c11.49197,14.93597 11.49197,14.93597 14.91722,21.34917c0.20758,0.36621 0.41292,0.73244 0.62504,1.10972c1.34482,2.65784 1.40801,4.98648 0.56412,7.78715c-3.17027,7.5746 -9.39351,11.59871 -16.69756,14.78207c-49.99789,20.29881 -118.16315,15.35611 -282.66219,0.07852c-7.53481,-3.24971 -13.34155,-7.26637 -16.82689,-14.86059c-0.9793,-4.69428 0.67431,-8.55117 3.19233,-12.45569c4.34657,-5.89515 9.67766,-10.82655 15.07735,-15.7354c11.86962,-10.79925 20.0266,-25.38591 26.79386,-39.75868c6.85185,-14.47543 14.1769,-23.78363 28.7234,-31.09016c5.86017,-2.95478 10.43733,-5.87596 14.92941,-10.68779c0.41338,-0.41677 0.82698,-0.83351 1.25276,-1.2627c5.79134,-6.09597 10.09773,-13.63446 14.59749,-20.68285c13.94697,-21.84265 13.94697,-21.84265 20.97258,-29.6562c0.38968,-0.50164 0.77938,-1.00317 1.18079,-1.51991c14.95921,-18.10114 37.20531,-18.24038 54.79368,-4.54574z" fill="#b7daea"/><path d="M185.91774,82.88208c0.53996,0.19599 1.07992,0.39199 1.63613,0.59393c5.80218,2.25819 10.9836,5.15416 15.25141,9.7402c0.98785,1.07686 0.98785,1.07686 2.61656,2.2877c2.82618,2.30405 4.96189,5.30827 7.19349,8.16715c0.42917,0.54583 0.85813,1.09166 1.30015,1.65419c5.85181,7.61949 10.74532,15.81619 15.57137,24.10922c7.6671,13.75697 7.6671,13.75697 17.53875,25.91189c0.48965,0.53907 0.97905,1.07811 1.48337,1.63343c6.40577,5.77104 12.87269,7.58722 21.31848,7.89682c5.17174,0.30235 9.54693,1.7185 13.09178,5.65302c1.57274,1.98205 2.66934,3.62291 2.66934,6.19975c-1.10791,0.58756 -2.22257,1.1677 -3.33726,1.74468c-0.61825,0.32381 -1.23878,0.64782 -1.87734,0.98155c-6.7783,2.98096 -15.88073,2.06486 -22.62292,-0.4409c-3.64865,-1.57567 -7.14497,-3.53063 -10.58828,-5.50996c-2.98164,-1.69547 -2.98164,-1.69547 -6.32702,-2.08877c-1.6323,0.53478 -1.6323,0.53478 -3.30251,1.74963c-2.69416,0.4531 -5.36962,0.56366 -7.86343,-0.65211c-1.23697,-0.90889 -2.30923,-1.83808 -3.409,-2.91192c-0.30937,-0.29312 -0.61871,-0.58621 -0.93732,-0.88836c-2.92996,-2.83406 -5.27552,-5.92515 -7.64207,-9.23216c-3.83661,-5.3396 -3.83661,-5.3396 -9.21907,-8.88648c-2.10367,-0.095 -2.10367,-0.095 -4.15294,0.59412c-2.62467,2.95907 -2.69102,5.3809 -2.55857,9.1322c0.00857,0.72364 0.00857,0.72364 0.01737,1.46171c0.04151,2.25168 0.16788,4.46096 0.46483,6.69368c0.72769,5.67468 1.45426,12.2788 -2.0766,17.1626c-1.76881,1.66975 -3.24519,1.89787 -5.59909,2.00461c-2.44574,-0.07378 -4.16356,-0.70897 -6.26656,-2.00461c0,-0.39195 0,-0.7841 0,-1.18801c-0.32582,-0.12411 -0.65165,-0.24799 -0.98719,-0.37593c-2.22393,-1.30309 -3.731,-3.32078 -5.39511,-5.25521c-2.49087,-2.82279 -5.16021,-5.2261 -9.01059,-5.8376c-4.12047,-0.24391 -6.47774,1.04495 -9.52482,3.74725c-3.28581,3.24678 -6.39539,6.677 -9.30032,10.26899c-2.09397,2.44528 -4.10105,3.75222 -7.34872,4.28315c-2.29951,-0.39172 -3.52318,-1.1686 -5.30238,-2.67273c-2.69666,-4.5379 -2.36541,-9.14621 -1.29316,-14.15095c3.50469,-12.39161 10.45672,-24.76247 17.01188,-35.77224c1.81552,-3.15854 2.41867,-5.22995 2.07953,-8.87993c-2.15466,0 -3.51619,0.01579 -5.14735,1.49692c-2.54097,3.0331 -4.89847,6.1623 -7.20025,9.38019c-3.16961,4.37114 -6.47932,8.37043 -10.19702,12.28783c-0.69634,0.80058 -1.38883,1.60478 -2.07637,2.4128c-12.6123,14.42668 -12.6123,14.42668 -20.65599,15.60815c-2.76547,0.11396 -4.75023,-0.13087 -6.93175,-1.98384c-1.94346,-3.05654 -1.54881,-6.62373 -1.18643,-10.0975c1.24645,-4.94541 4.14167,-7.92682 7.76595,-11.35501c4.25315,-4.09789 7.59761,-9.15297 10.68823,-14.1532c1.38342,-2.23296 2.8097,-4.43659 4.23869,-6.64044c1.68442,-2.59873 3.36703,-5.19812 5.03138,-7.80973c5.78412,-9.06001 11.63098,-17.66149 19.14486,-25.37831c0.39917,-0.45018 0.79854,-0.90036 1.20967,-1.36422c7.72939,-8.49556 20.91729,-13.47721 32.01418,-9.3272z" fill="#fcfdfd"/><path d="M202.71186,87.04805c13.66536,11.03407 22.58207,26.23923 31.28422,41.2289c9.93031,18.91381 9.93031,18.91381 26.59581,30.71966c2.49561,0.59976 4.89418,0.71078 7.45298,0.76943c6.82118,0.30169 12.78039,1.86111 17.67006,6.89496c3.25601,4.06202 5.36804,8.88896 7.65154,13.53382c4.52864,9.14259 9.58755,17.98777 15.40687,26.37152c0.6995,1.02352 1.37643,2.05877 2.04884,3.10078c3.25601,5.02664 6.80312,9.78431 10.45629,14.53002c11.49197,14.93597 11.49197,14.93597 14.91722,21.34917c0.20758,0.36621 0.41292,0.73244 0.62504,1.10972c1.34482,2.65784 1.40801,4.98648 0.56412,7.78715c-3.17027,7.5746 -9.39351,11.59871 -16.69756,14.78207c-49.99789,20.29881 -118.16315,15.35611 -282.66219,0.07852c-7.53481,-3.24971 -13.34155,-7.26637 -16.82689,-14.86059c-0.9793,-4.69428 0.67431,-8.55117 3.19233,-12.45569c4.34657,-5.89515 9.67766,-10.82655 15.07735,-15.7354c11.86962,-10.79925 20.0266,-25.38591 26.79386,-39.75868c6.85185,-14.47543 14.1769,-23.78363 28.7234,-31.09016c5.86017,-2.95478 10.43733,-5.87596 14.92941,-10.68779c0.41338,-0.41677 0.82698,-0.83351 1.25276,-1.2627c5.79134,-6.09597 10.09773,-13.63446 14.59749,-20.68285c13.94697,-21.84265 13.94697,-21.84265 20.97258,-29.6562c0.38968,-0.50164 0.77938,-1.00317 1.18079,-1.51991c14.95921,-18.10114 37.20531,-18.24038 54.79368,-4.54574zM165.74281,84.21684c-0.54289,0.25155 -1.08579,0.50307 -1.64493,0.76227c-4.21478,2.11336 -7.46696,4.86052 -10.82747,8.13459c-0.44542,0.41508 -0.89106,0.83027 -1.35003,1.258c-10.23628,9.77411 -17.33342,22.88485 -24.79495,34.78456c-2.22461,3.52678 -4.59272,6.89767 -7.11428,10.22093c-0.2947,0.4084 -0.5896,0.8166 -0.8931,1.23742c-7.2763,10.01852 -15.67359,16.08719 -26.68698,21.37557c-3.23527,1.58919 -5.93553,3.4952 -8.64888,5.85701c-0.34455,0.28138 -0.68889,0.56274 -1.04405,0.8527c-7.08451,6.31799 -10.94367,16.33878 -15.00771,24.7187c-8.26619,16.95997 -19.21496,30.67543 -32.64937,43.82407c-1.87191,1.84779 -3.69673,3.71701 -5.45668,5.67175c-0.40033,0.44113 -0.80077,0.88226 -1.21333,1.33671c-2.28953,2.82166 -2.50294,5.02347 -2.42202,8.60036c0.26386,2.29209 1.01426,3.44961 2.55892,5.15051c0.25415,0.28273 0.50831,0.56568 0.77022,0.85721c10.04418,9.87569 29.4829,11.80606 42.62276,13.37767c0.61126,0.07424 0.61126,0.07424 1.23495,0.14982c13.17438,1.59845 26.35957,2.84309 39.59689,3.77952c0.51761,0.03722 1.03525,0.07424 1.56845,0.11237c14.15636,1.00546 28.28836,1.39176 42.47879,1.39605c1.56123,0.00181 3.12221,0.00383 4.68344,0.00587c3.25331,0.00383 6.50641,0.00474 9.75972,0.00451c3.28333,-0.00046 6.56664,0.00362 9.84997,0.01196c18.46862,0.04582 36.87339,-0.05618 55.30568,-1.30827c1.26,-0.07921 2.51998,-0.15773 3.77997,-0.23557c2.96088,-0.18684 5.91951,-0.39623 8.87791,-0.6169c0.50702,-0.03745 1.01382,-0.07469 1.53618,-0.11304c3.0992,-0.22835 6.19954,-0.46279 9.29986,-0.70221c1.39447,-0.1074 2.7912,-0.21256 4.18567,-0.31748c36.24947,-1.33987 36.24947,-1.33987 66.67739,-17.24495c1.64269,-2.29569 2.21806,-4.44899 2.10525,-7.30043c-1.15755,-6.27556 -6.69932,-11.78486 -10.53073,-16.67182c-13.66717,-17.49452 -25.89023,-36.03579 -35.50711,-56.07376c-2.50013,-5.19926 -4.87614,-8.85332 -10.28705,-11.14538c-2.70546,-0.86872 -5.42896,-0.92446 -8.25175,-1.04857c-9.08437,-0.60223 -15.50616,-3.37629 -21.78894,-10.12008c-0.34998,-0.37299 -0.69971,-0.74619 -1.0603,-1.13046c-2.79593,-3.04933 -5.09388,-6.15148 -7.2174,-9.69405c-0.3186,-0.52169 -0.63721,-1.04359 -0.96553,-1.58108c-1.96693,-3.2391 -3.88939,-6.50414 -5.8042,-9.77393c-0.22046,-0.37636 -0.44067,-0.75252 -0.6679,-1.14018c-1.08377,-1.85231 -2.16413,-3.7064 -3.23752,-5.56435c-2.6249,-4.52685 -5.40572,-8.91289 -8.36729,-13.22785c-0.41766,-0.61262 -0.41766,-0.61262 -0.84367,-1.23788c-2.85934,-4.16289 -5.82744,-8.05228 -9.28068,-11.74808c-0.94657,-1.019 -1.82205,-2.04884 -2.68199,-3.13948c-5.09049,-5.86593 -11.52672,-10.01118 -18.67125,-12.93752c-0.47993,-0.21027 -0.96012,-0.42047 -1.45472,-0.6371c-6.64631,-2.4091 -14.23376,-1.78209 -20.52017,1.23027z" fill="#040606"/><path d="M118.17532,198.60386c1.18327,1.18755 1.18327,1.18755 1.3313,3.45188c-0.55688,3.95664 -3.23999,6.67067 -5.70333,9.63584c-1.8232,2.22844 -3.56132,4.52435 -5.31682,6.80652c-1.30355,1.68511 -2.61069,3.36703 -3.91985,5.04786c-0.67152,0.86714 -0.67152,0.86714 -1.35679,1.75144c-1.49511,1.8031 -2.6188,2.33314 -4.92985,2.55406c-1.40531,-0.14847 -1.40531,-0.14847 -2.58857,-1.33602c-0.60585,-3.04009 -0.44631,-4.55662 1.09324,-7.27495c1.50029,-2.21242 3.14297,-4.30751 4.82357,-6.38388c0.27506,-0.34072 0.54989,-0.68144 0.83331,-1.03232c1.84733,-2.26905 3.7477,-4.48757 5.67514,-6.68805c0.76899,-0.88181 0.76899,-0.88181 1.55332,-1.78144c4.4217,-5.00724 4.4217,-5.00724 8.50538,-4.75091z" fill="#90bbd1"/><path d="M191.90021,104.86336c2.90019,0.24799 4.09406,1.40914 5.96374,3.56763c1.50322,2.29637 2.5836,4.68591 3.6527,7.20905c0.15773,0.36871 0.31521,0.73739 0.47769,1.11716c1.63524,3.84834 2.71087,7.22665 1.1625,11.2573c-1.11829,1.22638 -1.11829,1.22638 -2.79549,1.8954c-2.0389,-0.07987 -3.08723,-0.43549 -4.57783,-1.83943c-3.94761,-5.28838 -6.72325,-13.65385 -6.2688,-20.23404c1.19275,-1.70947 1.19275,-1.70947 2.38548,-2.97307z" fill="#b4d7e6"/><path d="M245.88428,275.94081c0,0.19676 0,0.39353 0,0.59616c-0.50116,0.0361 -1.00186,0.0722 -1.51812,0.10944c-0.65098,0.04987 -1.30196,0.09995 -1.9728,0.15141c-0.64805,0.04852 -1.2961,0.09681 -1.96377,0.14666c-1.64447,0.08732 -1.64447,0.08732 -2.86409,0.78479c-1.6183,-0.05324 -3.21473,-0.13921 -4.82785,-0.26085c-0.67218,-0.04671 -0.67218,-0.04671 -1.35791,-0.09431c-1.10722,-0.07717 -2.21446,-0.15863 -3.32145,-0.24098c0,-0.19676 0,-0.39353 0,-0.59616c5.96237,-0.52348 11.84601,-0.66632 17.82598,-0.59616z" fill="#233035"/><path d="M158.54797,129.23613c-0.58284,1.17334 -0.58284,1.17334 -2.18581,1.94323c-2.01545,1.05329 -3.28129,2.25033 -4.80913,3.92347c1.01359,-3.56967 3.19938,-5.8667 6.99492,-5.8667z" fill="#b9d5df"/><path d="M107.58049,152.93198c0.59343,1.80514 0.59343,1.80514 -0.25972,3.72311c-0.45919,0.83782 -0.45919,0.83782 -0.92739,1.69254c-0.19585,-0.59593 -0.39172,-1.19161 -0.59366,-1.80537c-0.39172,0 -0.78343,0 -1.18689,0c0,-0.39713 0,-0.79425 0,-1.20334c0.96507,-0.83172 1.95407,-1.63636 2.96766,-2.40694z" fill="#b2c9d3"/><path d="M35.18025,237.33405c0.19855,0.39713 0.39708,0.79425 0.60165,1.20334c-0.59564,0.79448 -1.19134,1.58876 -1.80508,2.40694c-0.59572,-0.19857 -1.19144,-0.39713 -1.80516,-0.60157c0.99281,-0.99283 1.98563,-1.98565 3.00859,-3.00871z" fill="#afc8d2"/><path d="M68.91079,191.0708c0.3872,0.58621 0.7744,1.17267 1.17334,1.77693c-0.80667,1.48067 -0.80667,1.48067 -1.76001,2.96134c-0.3872,0 -0.7744,0 -1.17334,0c1.1,-3.40563 1.1,-3.40563 1.76001,-4.73826z" fill="#a0b7c1"/><g><path d="M331.06801,34.21121c4.9557,2.60126 7.4768,6.85906 10.51872,11.37886c1.9685,2.91763 4.06413,5.69331 6.26922,8.43387c1.10872,1.38395 2.16625,2.79457 3.19904,4.23591c0.9057,1.11649 1.92614,2.0928 2.95011,3.10089c0.40253,0.41894 0.80682,0.8379 1.22171,1.26956c5.1093,5.28708 10.62642,9.20132 16.99097,12.86081c4.81446,2.82388 8.99511,5.88735 10.64407,11.38151c0.286,2.85866 0.23657,4.91668 -0.87392,7.55431c-0.40782,0.9929 -0.71326,1.99076 -1.02221,3.01809c-1.05752,3.19481 -2.80181,5.84444 -5.34587,8.0444c-0.30367,0 -0.60732,0 -0.91981,0c6.13327,7.17509 13.32937,13.21602 21.67125,17.66908c4.45253,2.41447 9.16107,5.515 10.76059,10.57786c0.57202,3.06152 0.54024,5.66188 -0.7009,8.52709c-0.19421,0.6407 -0.38663,1.28174 -0.57379,1.92438c-2.00205,5.94613 -6.01675,10.04204 -11.55858,12.888c-0.24539,0.11828 -0.4908,0.23482 -0.74327,0.35662c4.50727,6.05913 11.88521,10.34041 18.33803,14.07793c4.53552,2.66234 8.4337,5.58951 10.17446,10.74471c0.88274,3.53978 0.23834,6.41752 -1.3806,9.65364c-0.08121,0.6391 -0.08121,0.6391 -0.16595,1.29056c-0.82624,4.13475 -4.68381,7.78753 -7.98879,10.19917c-11.24963,7.39912 -25.73538,8.48665 -38.69577,5.94967c-5.1958,-1.09989 -11.05895,-2.4346 -15.55563,-5.38471c-1.02927,-0.66029 -1.02927,-0.66029 -2.22274,-0.53318c-1.38414,0.52611 -2.12034,1.20052 -3.17433,2.24039c-1.8467,1.73017 -3.74281,3.25378 -5.80666,4.71029c-0.25423,0.18008 -0.50845,0.36016 -0.76975,0.54554c-0.25423,0.17831 -0.50845,0.35487 -0.76975,0.53847c-0.25599,0.18361 -0.51376,0.36722 -0.78034,0.55789c-0.87038,0.57025 -0.87038,0.57025 -1.98617,1.13873c-1.18111,0.64264 -2.09032,1.21818 -3.0225,2.19096c-0.51376,1.76901 -0.32485,3.4109 -0.14301,5.22935c0.0353,0.52611 0.07062,1.05399 0.10769,1.59775c0.11123,1.52007 0.24539,3.03309 0.39371,4.54788c0.10769,1.1052 0.21186,2.20861 0.31426,3.31204c0.37252,3.9688 0.77152,7.93405 1.19523,11.89757c0.37781,3.54508 0.66911,7.0884 0.89157,10.6476c3.50448,-0.85273 6.97188,-1.78314 10.42868,-2.81771c6.77238,-1.76548 14.40984,-1.44417 20.52546,2.09738c0.61615,0.37429 1.22525,0.76092 1.82726,1.15815c2.26863,1.44063 4.1012,1.71957 6.76885,1.40179c0.61439,-0.14124 1.22877,-0.29131 1.83963,-0.45902c0,0.30367 0,0.60732 0,0.91804c0.7768,0.06885 0.7768,0.06885 1.57128,0.1377c19.9093,1.84316 19.9093,1.84316 24.64079,7.21728c0.79447,1.31704 0.91981,1.82551 0.91981,3.41973c-0.46079,1.64366 -0.87215,2.39222 -2.25275,3.39502c-4.18772,2.34633 -8.85035,3.38971 -13.5271,4.24598c-0.30542,0.05826 -0.61086,0.11476 -0.92512,0.17302c-10.52579,1.95791 -21.08335,3.06134 -31.7539,3.79225c-0.40959,0.02825 -0.81741,0.05649 -1.2376,0.08475c-12.02114,0.81035 -24.0264,1.07341 -36.0705,1.06459c-0.34603,0 -0.69384,0 -1.05046,0c-11.55153,-0.00177 -23.06245,-0.20303 -34.59103,-1.00632c-0.77505,-0.0512 -1.55009,-0.10417 -2.32691,-0.15536c-2.29159,-0.15712 -4.58141,-0.32838 -6.87125,-0.50493c-0.34427,-0.02472 -0.6903,-0.0512 -1.04517,-0.07768c-8.82387,-0.66382 -8.82387,-0.66382 -12.41131,-2.99249c-2.40105,-1.47595 -5.33704,-1.26585 -8.07177,-1.38237c-12.48899,-0.61968 -12.48899,-0.61968 -16.92918,-4.7403c-0.79799,-1.48654 -0.90393,-2.2704 -0.63204,-3.93702c1.52007,-3.23789 4.17889,-4.39428 7.38853,-5.57361c3.07723,-0.96748 6.11385,-1.54657 9.31114,-1.92438c0.33543,-0.04061 0.66911,-0.08121 1.01516,-0.12359c1.75841,-0.17831 3.25024,-0.1642 4.991,0.1536c2.70472,0.3531 4.69087,-0.85979 7.0425,-2.06914c7.38323,-3.57156 13.77957,-4.87272 21.75777,-2.41341c0.33897,0.16066 0.67794,0.31955 1.0275,0.48375c1.58541,0.542 2.84242,0.49609 4.51433,0.42372c0.30367,-0.01059 0.60732,-0.02296 0.91804,-0.03355c0.96219,-0.03707 1.92084,-0.08298 2.88126,-0.12711c0.655,-0.02648 1.30998,-0.05297 1.96321,-0.07945c1.59775,-0.06356 3.19552,-0.13418 4.7915,-0.20832c1.01516,-10.55404 1.94908,-21.10807 2.64469,-31.68858c0.03001,-0.44843 0.06003,-0.89863 0.09004,-1.36118c0.08475,-1.27468 0.16595,-2.54759 0.24716,-3.82226c0.02472,-0.37604 0.04943,-0.75386 0.07416,-1.1405c0.19773,-2.59878 0.19773,-2.59878 0.1642,-5.19757c-1.26409,-1.26585 -2.77886,-2.14152 -4.27422,-3.11607c-0.8439,-0.60203 -1.58541,-1.26409 -2.34985,-1.96498c-1.62601,-1.40708 -3.18493,-2.74179 -5.33351,-3.19198c-2.83359,0.44843 -5.29821,2.10622 -7.72221,3.55568c-11.31496,6.47577 -27.84337,6.78121 -40.12227,3.55214c-7.73456,-2.17154 -14.48222,-6.14386 -18.83765,-13.08396c-0.5367,-1.1405 -0.99749,-2.27747 -1.41592,-3.46741c-0.41489,-1.18816 -0.41489,-1.18816 -1.15109,-2.45048c-1.27291,-2.80181 -1.05399,-6.0962 -0.38311,-9.06397c2.55288,-6.65056 10.12855,-10.01557 15.87872,-13.45471c4.38722,-2.68176 8.72147,-5.95496 12.29656,-9.66953c0.9869,-0.96572 0.9869,-0.96572 1.90672,-0.96572c-1.29939,-1.41767 -2.50345,-2.25981 -4.22479,-3.10371c-4.85153,-2.58643 -8.21301,-6.05205 -10.1162,-11.26163c-0.12534,-0.417 -0.24716,-0.83436 -0.37429,-1.26409c-0.23128,-0.41559 -0.46256,-0.83171 -0.7009,-1.26055c-1.26585,-2.79016 -1.11402,-6.06124 -0.42547,-9.02301c2.11857,-4.98748 7.61098,-7.67472 12.07765,-10.21488c4.5055,-2.56594 8.5555,-5.57026 12.50312,-8.92079c0.57025,-0.47492 1.14227,-0.9493 1.71428,-1.42368c0.5879,-0.49239 1.17582,-0.98514 1.76372,-1.47789c0.27894,-0.23164 0.55789,-0.46291 0.84742,-0.70142c1.33647,-1.13397 2.424,-2.07868 3.03132,-3.75182c-0.2048,-0.18396 -0.41136,-0.36828 -0.62322,-0.55807c-2.29513,-2.15776 -4.35544,-4.60967 -5.12695,-7.73739c-0.24893,-0.98407 -0.65323,-1.66856 -1.17582,-2.53559c-1.37531,-2.72308 -1.42475,-5.45586 -0.48551,-8.344c1.94556,-4.28128 5.39884,-6.37903 9.30937,-8.75007c9.34292,-5.78882 17.55239,-13.03417 24.31594,-21.71963c0.22598,-0.29059 0.45373,-0.5812 0.68677,-0.88062c2.45755,-3.15986 4.88862,-6.33171 7.18373,-9.61144c4.77208,-6.81616 11.56742,-13.07267 20.23944,-8.8431zM316.29449,104.11041c0.44843,0.53777 0.90039,1.07377 1.35059,1.60887c0.2507,0.29872 0.5014,0.59761 0.76092,0.90516c0.21363,0.23252 0.42724,0.46467 0.64793,0.70372c0.15183,0 0.30367,0 0.46079,0c0,-1.66873 0,-3.33676 0,-5.0565c-1.10166,0 -2.33925,1.23972 -3.22023,1.83874zM332.39035,106.86844c-0.09181,4.16335 -0.09181,4.16335 0.46079,8.27427c2.52641,-1.44292 3.8505,-3.13373 5.51712,-5.51624c-1.97204,-0.90958 -3.94585,-1.82021 -5.97791,-2.75803zM315.25991,140.51122c-0.41665,0.42654 -0.83508,0.85309 -1.26409,1.2925c-0.9057,0.78706 -1.82903,1.54179 -2.75944,2.29759c0.42901,0.51905 0.85979,1.03633 1.29233,1.55186c0.36016,0.43255 0.36016,0.43255 0.72737,0.87392c0.7768,0.8951 0.7768,0.8951 2.11857,1.71252c0.4555,0 0.91099,0 1.3806,0c0.15183,-2.88303 0.30367,-5.76429 0.45902,-8.73417c-1.05046,-0.10664 -1.05046,-0.10664 -1.95439,1.00579zM334.22998,147.31979c-0.06708,4.77385 0.1377,9.49122 0.46079,14.24918c0.3019,0.15183 0.60557,0.30542 0.91981,0.46079c4.40664,-3.38971 4.40664,-3.38971 8.27656,-7.35498c0,-0.30367 0,-0.60732 0,-0.91981c-0.5014,-0.20832 -1.00456,-0.41665 -1.52361,-0.63204c-2.42224,-1.18639 -4.22479,-3.01014 -6.1474,-4.86212c-0.94454,-1.04163 -0.94454,-1.04163 -1.98617,-0.941zM302.23951,150.30699c-0.37958,0.21538 -0.75915,0.42724 -1.15109,0.64793c-0.29307,0.16595 -0.5879,0.33191 -0.8898,0.5014c0.15183,0.30367 0.30367,0.60732 0.46079,0.91981c1.31352,0.36898 2.60585,0.68853 3.93702,0.97807c0.37075,0.08298 0.7415,0.16595 1.12285,0.25247c0.91804,0.20656 1.83786,0.40782 2.75768,0.60909c-0.62499,-1.36295 -1.3453,-2.43283 -2.32866,-3.56273c-0.36369,-0.42372 -0.36369,-0.42372 -0.73444,-0.8545c-0.20303,-0.21186 -0.40605,-0.42195 -0.61615,-0.6391c-0.91804,0 -1.78314,0.71149 -2.55817,1.14756zM336.5304,181.79606c0.12005,2.19801 0.24364,4.39781 0.36722,6.59583c0.04061,0.74504 0.08298,1.49183 0.12359,2.23687c0.22774,4.1118 0.46785,8.21477 0.88803,12.31245c3.2732,-1.75489 6.4899,-3.57863 9.65716,-5.51712c-0.36898,-0.43607 -0.73973,-0.87215 -1.12108,-1.32058c-0.2507,-0.2966 -0.5014,-0.5932 -0.76092,-0.90039c-0.6038,-0.68677 -1.22877,-1.35413 -1.86787,-2.00734c-2.58466,-2.6747 -4.1683,-5.30349 -5.71839,-8.64025c-0.62499,-1.41944 -0.62499,-1.41944 -1.56774,-2.75944zM312.63287,190.0073c-0.54906,0.55612 -0.54906,0.55612 -1.10872,1.12637c-0.36545,0.36722 -0.72914,0.73444 -1.10343,1.11402c-0.33897,0.34251 -0.67617,0.68677 -1.02398,1.03987c-0.45902,0.46079 -0.91981,0.91981 -1.3806,1.37884c0.57202,0.3884 1.14756,0.76975 1.72488,1.14932c0.32132,0.21363 0.64087,0.42724 0.97101,0.64616c1.07341,0.64264 1.07341,0.64264 2.823,0.50317c0.15183,-2.57936 0.30367,-5.15697 0.46079,-7.814c-0.61262,-0.05297 -0.61262,-0.05297 -1.36295,0.85625z" fill="#8a5a3e"/><path d="M330.98503,34.21298c4.95216,2.60444 7.47328,6.86771 10.51166,11.39352c1.9685,2.92117 4.06236,5.70038 6.26568,8.44463c1.10872,1.38572 2.16625,2.79811 3.19904,4.24122c0.90393,1.1179 1.92438,2.09563 2.94834,3.10495c0.40253,0.41947 0.80506,0.83896 1.21994,1.27114c5.10576,5.29397 10.62112,9.21297 16.98215,12.87722c4.81092,2.82759 8.99159,5.89493 10.63877,11.39617c0.31072,3.1113 0.3372,5.7551 -1.26409,8.51473c-2.23333,2.69623 -5.36175,4.33071 -8.8221,4.71507c-6.91361,0.49522 -12.233,-0.68677 -17.82603,-4.96629c-0.94454,-0.75033 -0.94454,-0.75033 -2.30924,-1.12955c-0.97455,0.5676 -0.97455,0.5676 -2.01088,1.35236c-2.80712,1.75912 -5.32115,1.96532 -8.56081,1.40938c-1.4318,-0.56707 -2.51581,-1.29674 -3.67573,-2.30149c-0.399,-0.34144 -0.79622,-0.68341 -1.20758,-1.03563c-3.29792,-3.82474 -5.59657,-8.13833 -6.1474,-13.23245c-0.46433,0.16154 -0.92864,0.32309 -1.40708,0.48922c-2.38869,0.68712 -4.51433,0.1114 -6.86594,-0.48922c-0.13418,0.35628 -0.26835,0.71202 -0.40605,1.07889c-2.30218,5.85997 -5.76605,10.55703 -11.57977,13.33148c-2.7718,0.9982 -5.79607,1.18694 -8.69851,0.77822c-1.29939,-0.64845 -2.40635,-1.36702 -3.5592,-2.24692c-1.0275,-0.65041 -1.0275,-0.65041 -2.18742,-0.21963c-1.11049,0.60574 -2.16094,1.25101 -3.21494,1.94927c-5.06516,3.05975 -10.44987,4.05866 -16.28654,3.04562c-3.68632,-0.95318 -5.42885,-2.99179 -7.38499,-6.21042c-0.99926,-3.00043 -0.83683,-6.0194 0.48727,-8.88866c1.80432,-3.58215 5.45356,-5.55579 8.76207,-7.56543c9.33938,-5.79624 17.54357,-13.05096 24.30358,-21.74751c0.22598,-0.29095 0.45196,-0.5819 0.68677,-0.88169c2.45579,-3.16391 4.88508,-6.33984 7.18021,-9.6238c4.77032,-6.82481 11.56035,-13.08944 20.22885,-8.85441z" fill="#fcfcfc"/><path d="M375.25264,253.06668c2.26863,1.44063 4.1012,1.71957 6.76885,1.40179c0.61615,-0.14124 1.23054,-0.29131 1.83963,-0.45902c0,0.3019 0,0.60557 0,0.91804c0.51905,0.04414 1.0381,0.09004 1.57128,0.13594c19.91107,1.84316 19.91107,1.84316 24.64255,7.21551c0.79447,1.31529 0.91981,1.82374 0.91981,3.4162c-0.46079,1.64366 -0.87215,2.39222 -2.25275,3.39325c-4.18772,2.34456 -8.85035,3.38796 -13.5271,4.24421c-0.30542,0.05649 -0.61086,0.11476 -0.92687,0.17302c-10.52402,1.95791 -21.08335,3.05957 -31.75567,3.79048c-0.40782,0.02648 -0.81566,0.05474 -1.23584,0.08475c-12.02114,0.80859 -24.02817,1.07165 -36.07227,1.06282c-0.3478,0 -0.69384,0 -1.05046,0c-11.55329,-0.00177 -23.06421,-0.20303 -34.5928,-1.00456c-0.77505,-0.05297 -1.55186,-0.10417 -2.32691,-0.15712c-2.29159,-0.15536 -4.58141,-0.32661 -6.87125,-0.50317c-0.34603,-0.02648 -0.6903,-0.0512 -1.04517,-0.07768c-8.82387,-0.66559 -8.82387,-0.66559 -12.41308,-2.99072c-2.40105,-1.47595 -5.33528,-1.26585 -8.07177,-1.38237c-12.49076,-0.61968 -12.49076,-0.61968 -16.92918,-4.73855c-0.79799,-1.48477 -0.9057,-2.26688 -0.63204,-3.93349c1.52007,-3.23613 4.17713,-4.39074 7.38853,-5.57184c3.07723,-0.96572 6.11385,-1.54303 9.31114,-1.92261c0.33543,-0.04061 0.66911,-0.08121 1.01516,-0.12182c1.75841,-0.18008 3.25024,-0.16595 4.99277,0.1536c2.70472,0.35133 4.69087,-0.86155 7.0425,-2.06914c7.38323,-3.56979 13.77957,-4.87095 21.75777,-2.41341c0.50845,0.2401 0.50845,0.2401 1.0275,0.48551c1.58541,0.54024 2.84242,0.49434 4.51433,0.42372c0.30367,-0.01236 0.60732,-0.02296 0.91981,-0.0353c0.96042,-0.03707 1.92084,-0.08121 2.88126,-0.12711c0.65323,-0.02648 1.30822,-0.05297 1.96321,-0.07768c1.596,-0.06532 3.19375,-0.13594 4.7915,-0.20832c-0.22069,4.05531 -0.52611,7.96231 -1.3806,11.94346c0.46256,-0.17654 0.92512,-0.35487 1.40002,-0.5367c1.65955,-0.63558 3.32617,-1.25172 4.99454,-1.86081c0.82448,-0.30542 1.64366,-0.62674 2.46108,-0.94983c9.06044,-3.28202 18.2833,-0.55612 27.01712,2.42929c-0.09887,-0.79799 -0.09887,-0.79799 -0.20127,-1.61188c-0.0865,-0.70618 -0.17302,-1.41415 -0.25776,-2.12034c-0.06708,-0.52435 -0.06708,-0.52435 -0.13418,-1.05928c-0.23305,-1.93849 -0.37604,-3.81874 -0.32661,-5.77488c0.48551,-0.11828 0.48551,-0.11828 0.98161,-0.23657c3.1761,-0.77857 6.31511,-1.64366 9.44707,-2.58113c7.72044,-2.01088 15.70041,-1.14756 22.35449,3.25378z" fill="#fbfcfb"/><path d="M302.8945,152.42027c0.68677,0.12359 0.68677,0.12359 1.38943,0.2507c3.15668,0.6391 5.13755,1.5448 7.34086,3.88405c0.3884,0.36898 0.7768,0.73797 1.17757,1.11931c0.55437,0.58261 0.55437,0.58261 1.11931,1.17757c0.22245,0.22422 0.44491,0.44843 0.67442,0.67971c3.41797,3.6616 5.0016,8.13003 4.93628,13.0716c-0.25247,3.73399 -1.98087,6.2445 -4.69087,8.76031c-3.89288,2.91658 -7.60391,3.75871 -12.43604,3.73222c-0.31778,0.00177 -0.63733,0.00354 -0.96572,0.00529c-1.73017,-0.00354 -3.29085,-0.18185 -4.97865,-0.52258c-1.60306,-0.27189 -1.60306,-0.27189 -3.21671,0c-0.97455,0.93746 -1.66662,1.73547 -2.44166,2.81417c-3.13726,4.01647 -6.73707,6.32042 -11.80399,7.29319c-4.47726,0.54554 -7.92523,-0.92864 -11.46679,-3.58039c-1.02221,-0.70972 -1.02221,-0.70972 -2.7771,-0.55437c-1.01868,0.54729 -1.98263,1.11049 -2.95894,1.72311c-6.05736,3.63335 -13.22167,5.31232 -20.23944,3.93525c-4.71029,-1.33117 -8.24655,-3.25731 -10.8065,-7.49622c-1.02045,-3.06311 -0.9763,-6.99836 0.20127,-10.02086c3.2273,-5.96909 9.86726,-9.07103 15.47442,-12.42721c4.38368,-2.67999 8.71616,-5.95319 12.28597,-9.66424c0.98866,-0.96572 0.98866,-0.96572 1.90672,-0.96572c0,-0.30367 0,-0.60557 0,-0.91804c2.16977,0.21186 4.27246,0.47844 6.40515,0.92687c3.10194,0.57025 6.15622,0.60909 9.30408,0.59497c0.59144,-0.00354 1.18111,-0.00529 1.78842,-0.00883c5.87905,-0.07416 10.94244,-0.94277 16.44897,-3.00662c2.9872,-1.11931 5.16756,-1.60659 8.32953,-0.8033z" fill="#fcfcfc"/><path d="M276.71598,103.64113c2.34279,0.34921 4.10474,1.3679 6.15622,2.50292c4.32896,1.88023 8.52197,2.32019 13.20048,2.25098c0.50317,0.00141 1.00632,0.00282 1.52538,0.00442c4.14358,-0.02719 8.02057,-0.3884 11.84814,-2.05007c1.13521,-0.36016 1.13521,-0.36016 2.24393,-0.40342c1.66662,0.95724 2.83888,2.29123 4.14004,3.68791c0.63733,0.52469 1.27997,1.04376 1.9279,1.55592c2.35162,2.04443 3.99351,4.71189 4.97512,7.66377c0.06708,1.12232 0.1024,2.24675 0.11476,3.37101c0.01942,0.8958 0.01942,0.8958 0.03707,1.80961c-0.27365,3.13301 -1.94908,5.69314 -4.29364,7.72697c-3.01367,1.80308 -5.89316,3.28291 -9.44178,3.28803c-0.39546,0.00071 -0.78917,0.00124 -1.19699,0.00177c-0.61262,-0.00265 -0.61262,-0.00265 -1.23936,-0.00529c-0.40253,0.00177 -0.80682,0.00354 -1.22348,0.00529c-1.8361,-0.00265 -3.43386,-0.05649 -5.23995,-0.44295c-1.50771,-0.25476 -1.50771,-0.25476 -2.537,0.88592c-0.31249,0.45108 -0.62674,0.90216 -0.94983,1.36683c-2.74884,3.66143 -6.26568,6.78155 -10.96009,7.50717c-3.44268,0.1377 -6.36985,-0.88609 -9.17343,-2.83977c-1.39825,-0.93235 -1.39825,-0.93235 -3.07723,-0.83542c-0.47492,0.24716 -0.94806,0.49434 -1.43709,0.74909c-0.73797,0.37623 -1.47595,0.75068 -2.21568,1.12355c-0.3531,0.18962 -0.70795,0.37922 -1.07341,0.57448c-3.28202,1.51584 -6.17918,2.22733 -9.7984,2.162c-0.38134,-0.00354 -0.76446,-0.00883 -1.15815,-0.01236c-4.13829,-0.1024 -8.02586,-0.81212 -11.06426,-3.84768c-0.7415,-1.04888 -1.27114,-2.06473 -1.84139,-3.22694c-0.15183,-0.30419 -0.30367,-0.60856 -0.45902,-0.92194c-0.29307,-3.65524 -0.54729,-7.17349 1.83963,-10.14162c2.98012,-3.35477 6.65233,-5.45693 10.49753,-7.64947c4.50904,-2.57266 8.56434,-5.58351 12.51195,-8.94603c0.57202,-0.48145 1.14403,-0.96272 1.71605,-1.44417c0.5879,-0.49786 1.17582,-0.99608 1.76372,-1.49465c0.27894,-0.23587 0.55966,-0.47208 0.84742,-0.7152c1.20583,-1.03175 2.15035,-1.93055 3.03486,-3.26066z" fill="#fcfcfc"/><path d="M393.55183,157.77496c0.86332,0.74327 1.5342,1.55891 2.25804,2.43812c0.74504,0.65852 1.50419,1.29939 2.27571,1.92614c0.65146,0.52964 0.65146,0.52964 1.31529,1.06988c3.93879,3.10018 8.14415,5.82431 12.47841,8.33307c4.54434,2.66588 8.44958,5.5948 10.19388,10.7553c0.82095,3.29085 0.31601,5.90553 -0.94983,9.02866c-2.7206,3.33146 -7.30026,5.37411 -11.52328,5.85609c-1.46182,0.0512 -2.9095,0.04414 -4.37309,0.01059c-0.48727,-0.00177 -0.9763,-0.00177 -1.4777,-0.00177c-6.76002,-0.07591 -12.55786,-1.84316 -18.44396,-5.08104c-1.59952,-0.66382 -2.17331,-0.70618 -3.77813,-0.15183c-0.53318,0.22774 -1.06459,0.4555 -1.61365,0.6903c-3.05605,1.30822 -6.15093,1.46887 -9.44532,1.15109c-2.33925,-1.1052 -4.40664,-3.02073 -5.42355,-5.45004c-0.18714,-0.59144 -0.37075,-1.18287 -0.54906,-1.77783c-0.87392,-2.96953 -0.87392,-2.96953 -3.1196,-4.94864c-1.41767,-0.32309 -1.41767,-0.32309 -2.8689,-0.49786c-3.1602,-0.46962 -5.82962,-2.39753 -7.85109,-4.80917c-2.40458,-3.43739 -4.37486,-7.39735 -4.0659,-11.71042c0.50669,-1.56422 1.34353,-2.55817 2.39576,-3.81697c0.36545,-0.44314 0.72914,-0.88803 1.1052,-1.3453c1.02575,-1.06988 1.02575,-1.06988 2.40811,-1.53067c1.10166,0.31955 2.15212,0.66559 3.22553,1.06459c4.97865,1.80609 9.71544,2.32514 15.00303,2.30042c0.56671,-0.00354 1.13344,-0.00529 1.71781,-0.00706c5.60363,-0.07239 10.84357,-0.55966 16.09235,-2.57936c3.6157,-1.38237 3.6157,-1.38237 5.01396,-0.91628z" fill="#fcfcfc"/><path d="M374.20749,105.93645c1.73017,1.44452 3.37737,2.90297 4.94511,4.5228c5.00867,5.0671 10.92125,9.37734 17.19047,12.73263c4.4543,2.42118 9.16461,5.53001 10.76413,10.60646c0.66911,3.58957 0.5014,6.54145 -1.3912,9.70272c-3.98292,3.98998 -9.96966,4.96099 -15.38086,4.98394c-5.69367,-0.06708 -12.50666,-0.47138 -17.24873,-3.97586c-1.09283,-0.87568 -1.09283,-0.87568 -2.24216,-0.77857c-1.49183,0.55612 -2.93423,1.19347 -4.37309,1.87317c-2.27923,0.98161 -4.52669,1.18816 -6.98423,0.89334c-2.19449,-0.99574 -3.2273,-2.23862 -4.19478,-4.37698c-0.81389,-2.32495 -1.29939,-4.73396 -1.7849,-7.14596c-0.34956,-0.0678 -0.7009,-0.13559 -1.06105,-0.20533c-4.57435,-0.99591 -8.06295,-2.63869 -10.7659,-6.58418c-1.48124,-2.61874 -2.85655,-5.76146 -2.70472,-8.83128c0.63381,-2.26052 2.1327,-4.16283 3.49211,-6.04217c0.18008,-0.3252 0.36016,-0.65022 0.54377,-0.98514c0.83683,-0.85855 0.83683,-0.85855 2.26511,-1.05328c0.57731,0.01554 1.15286,0.03107 1.74782,0.04714c0.31249,0.00476 0.62674,0.00954 0.94806,0.01447c1.00279,0.01643 2.00382,0.04503 3.00485,0.07538c8.21301,0.21363 16.33068,-0.53582 23.23018,-5.47334z" fill="#fbfcfc"/><path d="M322.62196,79.80382c0.34251,0.16119 0.68324,0.32256 1.03458,0.48868c2.46284,0.61633 4.73678,0.27083 7.2367,-0.02877c0.13418,0.44472 0.26835,0.88944 0.40605,1.3476c1.45122,4.67516 3.06664,9.21509 6.94539,12.45104c0.24716,0.21344 0.49434,0.42671 0.75033,0.6467c2.34102,1.7653 4.50727,2.01141 7.39912,1.92067c2.06385,-0.36846 3.46564,-1.25756 5.11989,-2.51352c0.32132,-0.16948 0.64264,-0.33916 0.97455,-0.51393c0.90039,0.28036 0.90039,0.28036 1.83786,0.92c0.36545,0.24063 0.73091,0.48145 1.10695,0.72933c0.40253,0.2717 0.80506,0.54324 1.21818,0.82289c5.43945,3.42274 10.60347,4.30548 16.97155,3.5073c1.98792,-0.55224 3.71634,-1.29657 5.51359,-2.29989c0.61262,-0.30826 1.22525,-0.61545 1.83786,-0.91981c-0.71502,4.30177 -3.03663,7.08168 -6.43165,9.65893c-0.286,0.23587 -0.57202,0.47191 -0.86509,0.71502c-6.15446,4.6621 -14.05321,5.34658 -21.47705,5.35063c-0.5526,0.00548 -1.10343,0.01129 -1.67191,0.01695c-0.80153,0.00141 -0.80153,0.00141 -1.61894,0.00282c-0.48198,0.00177 -0.96396,0.00371 -1.46182,0.00565c-1.50948,-0.12111 -2.73119,-0.5134 -4.14888,-1.03157c-0.78388,-0.12871 -1.56774,-0.24381 -2.35515,-0.34497c-3.03309,-0.5097 -5.54537,-1.85216 -8.21301,-3.33463c-0.15183,1.06246 -0.30367,2.12493 -0.45902,3.21953c-0.15183,0 -0.30367,0 -0.46079,0c0.03001,-0.5217 0.05826,-1.0434 0.0865,-1.58099c-0.2507,-2.11663 -1.27468,-2.90103 -2.90068,-4.19707c-0.4555,-0.34215 -0.91099,-0.6843 -1.37884,-1.03669c-1.44769,-1.10113 -2.6747,-2.3029 -3.92112,-3.62029c-0.60909,-0.6594 -0.60909,-0.6594 -1.5342,-1.0637c-0.17125,0.4412 -0.17125,0.4412 -0.34427,0.89121c-0.72562,1.19911 -1.11049,1.08294 -2.41164,1.40868c-0.13418,0.28459 -0.26658,0.56919 -0.40253,0.86225c-1.11931,2.11575 -3.88582,2.57725 -6.03088,3.27726c-0.27541,0.14107 -0.5526,0.28212 -0.83683,0.4276c-1.18816,0.58419 -2.38869,1.01339 -3.64218,1.44099c-0.45373,0.15695 -0.9057,0.31408 -1.37178,0.47615c-3.62982,1.00403 -7.29319,0.9726 -11.03425,0.98991c-0.50669,0.00954 -1.01339,0.01889 -1.53597,0.02877c-7.62158,0.03584 -14.59344,-2.45983 -20.14235,-7.80307c-1.37707,-1.56439 -2.55817,-3.23718 -3.24849,-5.21929c0.15183,-0.30367 0.30367,-0.60715 0.46079,-0.92c0.46433,0.28459 0.92687,0.56919 1.40533,0.86244c4.50904,2.52481 9.52829,2.56348 14.47339,1.20741c2.8583,-0.95918 5.16933,-2.4496 7.61098,-4.17907c1.32058,-0.65041 1.32058,-0.65041 2.55288,-0.35592c0.84742,0.49733 1.66662,1.04252 2.47167,1.6027c2.57584,1.49942 5.61599,1.19117 8.45312,0.6451c4.49844,-1.31723 8.11944,-4.27688 10.81708,-8.06171c0.87744,-1.64737 1.596,-3.3311 2.29689,-5.05951c0.30013,-0.61633 0.6038,-1.23089 0.91804,-1.83981z" fill="#79aca9"/><path d="M346.65365,164.73447c0.10592,0.4502 0.21186,0.90039 0.32132,1.36472c0.86861,3.54332 1.86258,6.55699 3.8152,9.67306c0.2048,0.48198 0.2048,0.48198 0.41313,0.97278c0.64441,1.10166 1.17405,1.30469 2.34456,1.78667c0.37604,0.18537 0.75386,0.37075 1.1405,0.56142c2.07267,0.98161 3.90347,1.79902 6.18624,2.11151c1.17934,0.22774 1.69486,0.3372 2.46638,1.27291c0.4908,0.96748 0.87392,1.93143 1.23936,2.95365c1.70546,4.27599 1.70546,4.27599 4.96629,7.42208c3.51507,1.37707 7.74163,0.35133 11.12252,-0.98337c0.29836,-0.17831 0.59673,-0.35487 0.90393,-0.5367c1.30469,-0.5367 1.88377,-0.3478 3.23259,0.07591c1.30469,0.56142 2.57584,1.18111 3.84875,1.81138c7.05133,3.48329 16.57785,4.89038 24.31771,2.81417c2.69235,-1.00279 5.00336,-2.35338 7.22787,-4.16476c0.45902,1.37884 0.45902,1.37884 -0.17302,3.01721c-3.64748,6.78827 -10.16739,10.79414 -17.29462,13.07867c-14.20504,4.25834 -29.73066,2.98895 -43.20833,-3.22023c-0.77328,-0.44843 -1.54126,-0.9057 -2.29865,-1.37884c-1.00632,-0.31955 -1.00632,-0.31955 -1.83786,-0.46079c0,-0.45373 0,-0.90922 0,-1.37884c-0.33368,-0.0459 -0.66735,-0.09181 -1.01162,-0.13947c-5.39177,-1.34 -11.80753,-8.08412 -14.66054,-12.61611c-2.51051,-4.40841 -4.00411,-8.08942 -3.17256,-13.17577c0.6038,-1.58364 1.52184,-2.34808 2.75592,-3.50271c0.88626,-0.99574 1.7337,-2.02147 2.58643,-3.04545c3.59098,-4.31306 3.59098,-4.31306 4.76856,-4.31306z" fill="#437d7b"/><path d="M338.31883,118.82637c0.30367,0 0.60732,0 0.91981,0c0.06708,0.41736 0.06708,0.41736 0.13594,0.84319c0.85273,4.77933 2.18036,9.30726 6.31335,12.218c1.89788,1.12725 3.43739,1.67808 5.61245,2.01141c1.15815,0.2996 1.15815,0.2996 2.1839,1.0049c0.84037,1.83381 1.35765,3.6104 1.82197,5.5662c0.48727,2.02535 1.22348,3.54296 2.83006,4.91297c3.29262,1.35942 6.17211,0.44666 9.37116,-0.79976c1.1299,-0.46079 1.1299,-0.46079 2.09386,-1.04163c1.12461,-0.46944 1.596,-0.33332 2.72237,0.09004c0.52258,0.27541 1.0434,0.54906 1.5801,0.83331c3.77106,1.92614 7.96937,3.15314 12.20652,3.30144c0.29484,0.01059 0.58967,0.02296 0.89334,0.0353c7.03543,0.2507 12.88446,-0.64264 18.86591,-4.62943c-1.52007,5.64282 -4.68028,9.78817 -9.70836,12.80714c-12.12001,6.38045 -26.80703,7.58097 -39.921,3.73045c-0.74504,-0.19773 -0.74504,-0.19773 -1.50596,-0.39723c-2.21568,-0.60557 -2.21568,-0.60557 -3.08958,-0.98161c-0.15007,-0.30367 -0.3019,-0.60557 -0.45902,-0.91804c-0.46962,-0.0865 -0.46962,-0.0865 -0.94806,-0.17302c-1.55891,-0.33191 -2.76651,-0.95159 -4.1683,-1.6931c-0.92158,-0.48904 -0.92158,-0.48904 -2.2351,-0.8898c0,-0.30367 0,-0.60732 0,-0.91981c-0.49963,-0.06179 -0.49963,-0.06179 -1.00985,-0.12359c-1.53067,-0.399 -2.31984,-1.01691 -3.52919,-2.02853c-0.59673,-0.5014 -0.59673,-0.5014 -1.20583,-1.01162c-0.37958,-0.31955 -0.75915,-0.64087 -1.14932,-0.97101c-0.31249,-0.23834 -0.62499,-0.47844 -0.94806,-0.72562c-2.10445,-1.64543 -3.07193,-3.26966 -4.10651,-5.70462c-0.2048,-0.39141 -0.40959,-0.78281 -0.62145,-1.18605c-2.04972,-4.18577 -2.64115,-8.91903 -1.28527,-13.43989c1.11931,-2.22398 2.74709,-3.68614 4.66616,-5.23058c1.26055,-1.11984 2.16625,-2.40935 3.11077,-3.79878c0.18537,-0.22793 0.37252,-0.45584 0.56319,-0.69066z" fill="#4e8584"/><path d="M319.02745,175.32911c0.91628,2.76121 -0.23128,5.72016 -1.40885,8.28186c-2.09738,3.94054 -5.03868,7.25435 -8.50607,10.03145c-0.21715,0.20303 -0.43431,0.40782 -0.65852,0.61791c0,0.30542 0,0.60909 0,0.92335c-0.40782,0.22598 -0.40782,0.22598 -0.82448,0.4555c-1.57128,0.87392 -3.13373,1.74253 -4.66263,2.69059c-0.94806,0.54729 -0.94806,0.54729 -1.86787,0.54729c0,0.60909 0,1.21994 0,1.8467c-0.30896,0.04061 -0.61791,0.08121 -0.93571,0.12359c-1.73722,0.43255 -3.2114,1.23407 -4.78091,2.0709c-13.91904,7.15371 -30.767,8.97569 -45.74002,4.12593c-6.66645,-2.40458 -12.26832,-6.22155 -16.11882,-12.32304c-0.57025,-1.22525 -0.97984,-2.39576 -1.37884,-3.69338c0.30367,0 0.60732,0 0.91981,0c0.28425,0.33368 0.56848,0.66735 0.86155,1.00985c2.58643,2.73119 6.98423,3.88759 10.62466,4.17889c7.39912,0.16595 14.83003,-1.87141 20.69141,-6.57287c1.41592,0.67971 2.72414,1.46887 4.05177,2.30749c3.52743,2.12564 6.81651,2.86714 10.86299,2.09386c4.99454,-1.32763 8.30481,-3.77813 11.27964,-7.94818c0.58967,-0.77857 0.58967,-0.77857 1.84845,-1.995c1.96145,-0.24893 3.59981,0.07591 5.51535,0.46256c5.6919,0.25952 10.71822,0.01413 15.62979,-3.23259c1.89613,-1.77608 3.52036,-3.61747 4.59731,-6.00262z" fill="#386c6a"/><path d="M327.21926,64.97169c2.69589,1.5162 3.56273,5.15414 4.59731,7.8691c2.25804,5.88134 5.12342,13.01952 10.63171,16.54219c2.69412,0.93235 6.16682,1.04357 8.84329,0.06108c0.94983,-0.53794 1.81668,-1.12337 2.59172,-1.89912c2.0815,-0.16102 3.40738,0.16171 5.25937,1.09142c3.74281,1.86275 6.80415,2.21391 10.91771,2.09633c3.89288,-0.06091 7.25435,0.08757 10.94773,1.40727c0.4555,0.15183 0.91099,0.30331 1.3806,0.45955c-0.58967,2.74549 -1.88554,4.00463 -4.13829,5.51411c-4.03058,2.5746 -9.19108,2.36221 -13.79192,1.83804c-3.69161,-0.84991 -6.65408,-2.56242 -9.64482,-4.84641c-0.94629,-0.74856 -0.94629,-0.74856 -2.30924,-1.12708c-0.9763,0.56619 -0.9763,0.56619 -2.01088,1.34971c-2.80887,1.7563 -5.32291,1.96216 -8.56258,1.40727c-1.43357,-0.56619 -2.51758,-1.29498 -3.67925,-2.29759c-0.39723,-0.34109 -0.79622,-0.68236 -1.20583,-1.03386c-3.29967,-3.81855 -5.59834,-8.12508 -6.14917,-13.21073c-0.69736,0.24152 -0.69736,0.24152 -1.40885,0.48815c-2.38869,0.68624 -4.51433,0.11123 -6.86594,-0.48815c-0.13418,0.3554 -0.26835,0.71078 -0.40605,1.07694c-2.30395,5.85026 -5.76782,10.53938 -11.58331,13.30941c-2.77357,0.99696 -5.79783,1.18498 -8.70028,0.77735c-1.29939,-0.64793 -2.40635,-1.36506 -3.56097,-2.24374c-1.0275,-0.649 -1.0275,-0.649 -2.18742,-0.21892c-1.11049,0.60433 -2.16094,1.2489 -3.21671,1.94573c-5.06339,3.05516 -10.45163,4.05177 -16.28831,3.04051c-2.43812,-0.62922 -3.93525,-1.43745 -5.5489,-3.44268c-0.27541,-0.33173 -0.55083,-0.6633 -0.83331,-1.00509c-0.54554,-0.83295 -0.54554,-0.83295 -0.54554,-1.75188c0.60557,0.02136 1.21112,0.04255 1.8361,0.06462c7.85461,0.19261 14.24036,-0.75439 21.15043,-4.65963c1.64366,-0.89085 2.70118,-1.11261 4.59731,-0.91911c0.78034,0.43695 1.54657,0.89652 2.29865,1.37849c1.09812,0.34992 1.09812,0.34992 2.29865,0.45955c0.69736,0.08528 0.69736,0.08528 1.40885,0.17231c4.90803,-0.46732 8.68086,-3.02073 11.92404,-6.60537c3.01896,-3.70698 5.41119,-7.7026 7.63217,-11.92828c2.42047,-4.55264 2.42047,-4.55264 4.32189,-4.67145z" fill="#cde9ef"/><path d="M321.72509,127.12519c0.15183,0 0.30367,0 0.45902,0c-0.43431,4.06148 -0.85802,7.0229 -3.5239,10.23925c-0.70972,0.84319 -0.70972,0.84319 -1.07694,2.19255c-0.61262,0.30685 -1.227,0.61385 -1.83963,0.92087c-1.19523,1.10661 -2.20861,2.16836 -3.13549,3.51048c-1.03458,1.12461 -1.39825,1.2941 -2.78945,1.72665c-1.96145,0.63028 -2.76297,1.64895 -3.99882,3.24672c-0.97455,1.07165 -2.04089,1.2941 -3.41973,1.64543c-0.31426,0.20127 -0.62851,0.4043 -0.95159,0.61086c-7.49799,4.28305 -16.64318,5.47475 -25.10158,5.54714c-0.5526,0.00706 -1.10695,0.01413 -1.6772,0.01942c-3.42503,-0.01765 -6.55699,-0.42547 -9.88668,-1.23231c-1.51655,-0.37075 -1.51655,-0.37075 -3.19022,-0.57025c-4.35897,-0.66206 -9.2211,-4.34661 -12.10412,-7.59685c-1.43709,-2.0197 -2.72414,-3.99174 -3.22023,-6.44682c0.28954,0.18873 0.57907,0.37745 0.87744,0.57183c0.39371,0.24823 0.7874,0.49628 1.19347,0.75191c0.38488,0.24558 0.76798,0.49133 1.16522,0.7445c4.59908,2.33767 10.97422,2.53894 15.88049,1.06122c2.46108,-0.8605 4.77562,-1.90054 7.01955,-3.2356c1.47064,-0.81477 1.47064,-0.81477 2.56348,-0.61332c0.39723,0.23728 0.79622,0.47473 1.20758,0.71943c0.68853,0.39617 1.37884,0.78917 2.06914,1.17986c0.50669,0.29996 0.50669,0.29996 1.02221,0.60609c2.29865,1.1299 4.97689,1.40533 7.49093,0.9763c4.89391,-1.78754 8.18652,-4.43417 11.06955,-8.8055c0.29484,-0.28495 0.58967,-0.56972 0.89157,-0.86332c0.75386,0.09092 1.50771,0.18821 2.25629,0.31743c5.94436,0.88062 11.88167,0.52806 17.01039,-2.7635c1.61188,-1.24025 2.6182,-2.77833 3.73928,-4.46048z" fill="#4a807f"/><path d="M314.92448,160.14423c1.48654,1.34176 2.2863,2.56877 3.07723,4.4031c0.19067,0.43783 0.38311,0.87568 0.58084,1.32588c1.2941,3.15491 1.51831,6.75825 0.45373,10.04381c-1.78842,4.02352 -5.14107,6.4493 -9.00041,8.28892c-2.49286,0.7874 -4.96629,0.87744 -7.56155,0.86332c-0.31955,0.00177 -0.6391,0.00354 -0.96748,0.00529c-1.73193,-0.00354 -3.29615,-0.18185 -4.98571,-0.52258c-1.60306,-0.27365 -1.60306,-0.27365 -3.22023,0c-0.97455,0.93923 -1.66837,1.73899 -2.44342,2.81946c-3.14255,4.02706 -6.74589,6.33453 -11.81811,7.31085c-4.48432,0.54554 -7.93582,-0.93041 -11.48267,-3.58921c-1.02045,-0.71149 -1.02045,-0.71149 -2.77886,-0.55437c-1.02045,0.54729 -1.9844,1.11225 -2.96247,1.72665c-6.06618,3.64218 -13.23756,5.32468 -20.26417,3.94408c-4.04825,-1.1458 -7.6145,-2.65352 -9.92728,-6.30452c-0.30719,-0.55083 -0.60732,-1.10695 -0.89157,-1.67014c0.61262,-0.09181 1.22525,-0.17654 1.83963,-0.25776c0.51199,-0.07239 0.51199,-0.07239 1.03458,-0.14653c1.3294,-0.05826 2.56524,0.1024 3.87876,0.28248c7.85461,0.89686 14.96773,0.27012 21.97315,-3.47446c2.15741,-1.13167 3.83108,-1.50596 6.23921,-1.00808c0.95513,0.36545 1.90319,0.7521 2.84596,1.15109c3.82579,1.57128 7.88462,2.01441 11.78986,0.40253c0.65323,-0.34427 1.29587,-0.70972 1.92614,-1.09283c0.33897,-0.20656 0.67794,-0.41313 1.02575,-0.62499c2.2192,-1.42475 4.29895,-3.02073 6.36103,-4.66439c1.99323,-1.55362 3.22553,-1.71957 5.66896,-1.62777c0.68853,0.01413 1.37531,0.02825 2.06385,0.04061c1.07694,0.02648 2.15389,0.05474 3.23082,0.09181c4.25834,0.1377 7.95172,0.20127 11.55506,-2.42577c2.18919,-2.13799 2.81064,-4.44548 2.84948,-7.45032c-0.00529,-0.87568 -0.01765,-1.74959 -0.03178,-2.6235c-0.00529,-0.44843 -0.00883,-0.89686 -0.01236,-1.35942c-0.01059,-1.10166 -0.02648,-2.20155 -0.0459,-3.30321z" fill="#cce7ee"/><path d="M316.30154,110.1743c3.06134,2.32725 5.20817,5.05086 6.43694,8.73912c0.06885,1.11967 0.1024,2.24163 0.11476,3.36341c0.01942,0.89386 0.01942,0.89386 0.03707,1.80573c-0.27365,3.12595 -1.94732,5.68043 -4.29011,7.70949c-3.0119,1.7992 -5.88787,3.27566 -9.43472,3.28078c-0.39371,0.00071 -0.78917,0.00124 -1.19523,0.00194c-0.40782,-0.00194 -0.81741,-0.00371 -1.2376,-0.00548c-0.4043,0.00177 -0.80682,0.00354 -1.22348,0.00548c-1.83434,-0.00282 -3.43032,-0.05649 -5.23641,-0.44207c-1.50596,-0.25423 -1.50596,-0.25423 -2.53346,0.88398c-0.31426,0.45003 -0.62674,0.90004 -0.94983,1.36365c-2.74709,3.65349 -6.26215,6.76725 -10.95126,7.4911c-3.43915,0.1377 -6.36455,-0.88485 -9.16636,-2.83395c-1.3965,-0.93041 -1.3965,-0.93041 -3.0737,-0.83367c-0.47492,0.24664 -0.94806,0.49327 -1.43709,0.74733c-0.73797,0.37551 -1.47418,0.74909 -2.21214,1.12125c-0.35487,0.18909 -0.70972,0.37817 -1.07341,0.57307c-3.28025,1.51196 -6.17564,2.22168 -9.79135,2.15812c-0.38134,-0.00529 -0.76269,-0.00883 -1.15638,-0.01413c-4.14358,-0.10063 -8.00998,-0.81389 -11.05543,-3.83833c-0.7927,-1.05964 -1.28703,-1.99923 -1.83963,-3.2197c0.15183,-0.30348 0.30367,-0.60698 0.45902,-0.91981c0.86332,0.0655 1.72488,0.13294 2.58643,0.20127c0.48021,0.03726 0.96042,0.07468 1.45476,0.11317c0.96042,0.09463 1.91907,0.22069 2.87066,0.38259c5.7431,0.93765 11.74926,-0.09992 16.96978,-2.65193c1.97733,-0.95477 3.83991,-1.22471 6.00616,-0.80488c0.42195,0.22774 0.84214,0.45532 1.27643,0.68995c1.73722,0.80894 3.22376,0.91981 5.10223,0.89121c0.32838,-0.00459 0.655,-0.00901 0.9922,-0.01359c4.52669,-0.15342 6.64349,-2.04548 9.78604,-5.14654c4.00764,-3.30974 8.0188,-3.10813 13.00275,-3.08606c5.81725,0.05508 5.81725,0.05508 10.6882,-2.8772c1.87141,-2.88427 2.16271,-5.44526 1.91378,-8.85599c-0.37604,-1.43357 -0.37604,-1.43357 -0.91981,-2.75979c-0.32132,-1.06918 -0.61791,-2.14435 -0.91981,-3.21953z" fill="#cde9ee"/><path d="M321.26253,84.74787c0.55612,1.11878 0.50493,1.8098 0.48727,3.05763c-0.00354,0.42477 -0.00706,0.84938 -0.01059,1.28686c-0.01059,0.89334 -0.02296,1.78684 -0.0353,2.68018c-0.00354,0.42636 -0.00706,0.8529 -0.01059,1.29216c-0.00529,0.38893 -0.01059,0.77769 -0.01588,1.17811c0.0459,1.19328 0.24187,2.28805 0.50317,3.45098c0.68324,0.22881 0.68324,0.22881 1.37884,0.4622c0.54729,1.18481 0.54729,1.18481 0.91981,2.31172c-0.75739,-0.45761 -1.51655,-0.91541 -2.29865,-1.38696c-0.16948,0.4435 -0.16948,0.4435 -0.34427,0.8958c-0.72562,1.20529 -1.11049,1.0886 -2.41341,1.41592c-0.13241,0.28619 -0.26483,0.57219 -0.40076,0.86703c-1.11931,2.1267 -3.88759,2.59048 -6.03264,3.29421c-0.27718,0.14177 -0.5526,0.28371 -0.83683,0.42972c-1.18993,0.58737 -2.39222,1.01886 -3.64572,1.44857c-0.45196,0.15784 -0.9057,0.31584 -1.37178,0.47863c-3.63159,1.00932 -7.29495,0.97773 -11.03777,0.99502c-0.50669,0.00954 -1.01516,0.01906 -1.53773,0.02896c-7.62334,0.03602 -14.59698,-2.47255 -20.14764,-7.84367c-1.37884,-1.57269 -2.55994,-3.25413 -3.25024,-5.24665c0.15183,-0.30525 0.30367,-0.61033 0.46079,-0.92476c0.46433,0.28619 0.92864,0.57219 1.40708,0.86703c4.50904,2.53787 9.53182,2.57672 14.4787,1.21358c2.8583,-0.96413 5.16933,-2.46232 7.61275,-4.20078c1.32058,-0.65376 1.32058,-0.65376 2.55465,-0.35769c0.84567,0.49999 1.66485,1.04799 2.47167,1.611c2.57584,1.50719 5.61776,1.19734 8.45487,0.64828c4.18949,-1.23231 7.22258,-3.79225 9.98202,-7.11028c0.84742,-1.00261 1.74253,-1.92473 2.67822,-2.84278z" fill="#6c9f9c"/><path d="M351.56346,157.8491c1.51831,0.4555 3.03663,0.91276 4.60083,1.38237c-3.68102,2.76651 -3.68102,2.76651 -5.05987,2.76651c-0.84919,2.55288 -0.96396,5.19227 0.04237,7.71514c2.07973,3.65808 4.47019,6.02558 8.51667,7.24023c1.13873,0.26835 2.27217,0.43431 3.42857,0.6038c2.56348,0.46785 4.28482,1.82551 5.95144,3.80461c0,0.30367 0,0.60732 0,0.92158c0.27365,0.12359 0.54906,0.24716 0.83331,0.37429c1.00632,0.54729 1.00632,0.54729 1.64366,1.21112c2.05502,1.99323 4.73148,2.69059 7.52623,2.76474c2.01618,-0.06885 3.00308,-0.52787 4.71559,-1.58364c3.33676,-0.60909 5.97438,0.42724 9.02512,1.70192c5.53124,2.14858 11.21432,2.52464 17.07747,2.50522c0.50669,0.00177 1.01516,0.00354 1.53773,0.00529c3.37912,-0.00529 6.71236,-0.19067 10.07559,-0.52435c0.15183,-0.60909 0.30367,-1.21818 0.46079,-1.84493c-0.26129,2.65705 -0.56319,4.47372 -2.6747,6.22508c-4.43488,3.17433 -8.74971,4.21597 -14.14325,4.09061c-0.48727,0 -0.97455,-0.00177 -1.47595,-0.00177c-6.74766,-0.07416 -12.5349,-1.84493 -18.41218,-5.09164c-1.596,-0.66382 -2.16977,-0.70618 -3.77106,-0.15007c-0.53141,0.22774 -1.06282,0.4555 -1.61011,0.6903c-3.05074,1.31175 -6.14034,1.47064 -9.42942,1.15286c-2.33573,-1.10695 -4.39781,-3.02603 -5.41472,-5.45886c-0.18714,-0.5932 -0.36898,-1.18816 -0.54729,-1.78314c-0.87215,-2.9766 -0.87215,-2.9766 -3.11431,-4.95924c-1.41592,-0.32309 -1.41592,-0.32309 -2.86361,-0.49786c-3.15668,-0.47138 -5.82079,-2.40282 -7.83873,-4.81976c-2.40282,-3.44974 -4.35721,-7.40795 -4.06236,-11.73337c0.51553,-1.5801 1.3806,-2.56701 2.45225,-3.82579c0.37604,-0.44491 0.75033,-0.8898 1.13696,-1.34705c0.93394,-1.07341 0.93394,-1.07341 1.39296,-1.5342z" fill="#cde9ef"/><path d="M343.83596,111.41031c1.06105,0.152 2.12211,0.30419 3.21494,0.46096c0,0.45637 0,0.91257 0,1.38273c-2.41341,1.84386 -2.41341,1.84386 -3.67396,1.84386c-1.13696,4.17182 -0.25952,6.90868 1.83786,10.6017c0.12888,0.32962 0.25776,0.65959 0.39017,0.99926c0.7521,1.20459 1.483,1.31881 2.823,1.76637c0.63028,0.25053 1.25878,0.50546 1.88377,0.76339c0.33897,0.13842 0.67794,0.277 1.0275,0.41966c0.34603,0.14194 0.69384,0.28389 1.05046,0.43025c0.35133,0.14194 0.7009,0.28406 1.06282,0.43042c0.3372,0.13842 0.67442,0.27683 1.02221,0.41947c0.45725,0.18661 0.45725,0.18661 0.92512,0.37728c0.83683,0.38611 0.83683,0.38611 2.21391,1.30804c0,0.30419 0,0.60839 0,0.92175c0.30367,0 0.60557,0 0.91804,0c0.51728,0.53495 1.03458,1.07059 1.54657,1.60976c2.98895,2.76969 5.60893,4.05054 9.62186,4.0297c1.48654,-0.13048 2.30042,-0.66876 3.52743,-1.49095c2.28453,-0.14989 4.09061,0.16613 6.25862,0.86421c5.1958,1.67226 10.41633,2.0462 15.83988,1.99641c0.96748,-0.00865 1.93497,-0.00954 2.90421,-0.00935c2.97307,0.16049 2.97307,0.16049 5.76782,-0.5466c0.91804,-0.01836 1.83786,-0.01995 2.75592,0c-0.23482,2.06437 -0.81389,3.15702 -2.29689,4.60879c-6.84653,4.39251 -15.169,4.48785 -22.94593,3.08606c-2.95894,-0.67971 -6.00793,-1.3965 -8.48313,-3.22905c-1.09107,-0.87568 -1.09107,-0.87568 -2.23862,-0.77857c-1.49006,0.55612 -2.92892,1.19347 -4.36603,1.87317c-2.27571,0.97984 -4.51963,1.18816 -6.97188,0.89334c-2.19273,-0.99749 -3.22376,-2.23862 -4.18949,-4.37751c-0.81389,-2.32514 -1.29762,-4.7343 -1.78137,-7.14649c-0.34956,-0.0678 -0.69913,-0.13541 -1.06105,-0.20533c-4.5673,-0.99591 -8.05059,-2.63869 -10.74823,-6.58453c-1.4777,-2.61891 -2.85125,-5.76182 -2.70118,-8.83181c0.82624,-2.94535 3.04722,-5.48252 4.86566,-7.88639z" fill="#cce8ee"/><path d="M280.06156,265.61394c1.17934,0.85979 1.17934,0.85979 1.64013,1.31881c-0.04414,0.27189 -0.08827,0.542 -0.13418,0.82095c-0.18537,1.25526 -0.20832,2.0815 0.13418,3.31204c1.22171,1.14756 2.48403,1.99852 3.90878,2.87949c1.15109,0.7927 1.15109,0.7927 1.61188,2.16977c-0.15183,0.30367 -0.30367,0.60557 -0.46079,0.91804c-4.29718,-0.1642 -8.60142,-0.33368 -12.88093,-0.77505c-0.7415,-0.07239 -0.7415,-0.07239 -1.49537,-0.1483c-1.65603,-0.43431 -2.79476,-1.01339 -4.28128,-1.83257c-3.14078,-1.62424 -5.97086,-1.84316 -9.46474,-1.94908c-12.31598,-0.52964 -12.31598,-0.52964 -16.79147,-4.67676c-0.75739,-1.40885 -0.78034,-2.35692 -0.63381,-3.93172c0.15183,0.4555 0.30367,0.90922 0.46079,1.37707c8.34895,0.18008 16.396,0.34603 24.60019,-1.42121c4.96099,-1.05752 9.4559,-0.84919 13.78663,1.93849z" fill="#d7eef3"/><path d="M342.42004,253.55042c0.92158,0.92158 0.92158,0.92158 0.97807,2.36221c-0.01942,0.43783 -0.03707,0.87392 -0.05649,1.32411c0.60557,-0.10769 0.60557,-0.10769 1.22348,-0.21892c8.03117,-1.13167 20.70906,-1.72488 27.76216,2.98366c-0.15183,0.60909 -0.30367,1.21641 -0.46079,1.84316c-10.2027,2.74355 -19.44674,4.15594 -29.90545,1.84316c0.4555,-0.15183 0.91099,-0.30367 1.3806,-0.46079c-0.30367,-3.19198 -0.60732,-6.38573 -0.92158,-9.67658z" fill="#d4ebf0"/><path d="M391.8764,270.81857c0.54377,0.08121 0.54377,0.08121 1.09812,0.1642c1.91378,0.32661 3.11431,0.76621 4.60614,1.9844c-10.25567,1.86081 -20.47955,3.34558 -30.87293,4.21066c-0.45725,0.03884 -0.91276,0.07768 -1.38414,0.11828c-3.16374,0.24539 -6.30629,0.2966 -9.48062,0.25423c-0.15007,-0.6038 -0.3019,-1.20935 -0.45725,-1.83257c0.70443,-0.36545 1.41238,-0.72737 2.12034,-1.0893c0.39371,-0.20127 0.7874,-0.4043 1.19347,-0.61086c3.06311,-1.42298 6.15976,-1.92438 9.47003,-2.45402c0.48198,-0.07945 0.96396,-0.15889 1.46005,-0.2401c7.45915,-1.21818 14.73822,-1.65426 22.2468,-0.50493z" fill="#d6ecf2"/><path d="M308.41162,257.28264c-0.3019,2.424 -0.6038,4.84801 -0.91628,7.34615c-11.73337,3.65631 -11.73337,3.65631 -17.41115,0.91804c-0.3019,-0.30367 -0.6038,-0.60732 -0.91628,-0.91804c0.03707,-1.65955 0.22069,-2.49462 1.34705,-3.73045c5.59834,-3.43562 11.47208,-3.74458 17.89665,-3.6157z" fill="#d1e8ee"/><path d="M330.52601,190.16091c0.15007,0 0.30013,0 0.4555,0c0.74856,4.22125 1.11754,8.40898 1.31881,12.6832c0.06885,1.46005 0.14653,2.91833 0.22245,4.37839c0.05826,1.11754 0.11652,2.23333 0.17302,3.35087c0.50845,9.82313 1.27468,19.60565 2.20509,29.39875c0.64441,6.82534 1.23407,13.66304 1.09989,20.52546c0.4502,0.15183 0.90216,0.30367 1.36824,0.45902c-0.75386,0 -1.50596,0 -2.281,0c-0.78211,-1.38237 -1.04692,-2.44519 -1.12814,-4.02883c-0.0353,-0.655 -0.0353,-0.655 -0.07416,-1.32234c-0.02119,-0.46962 -0.04414,-0.941 -0.06708,-1.42651c-0.02648,-0.49257 -0.05297,-0.98514 -0.08121,-1.4936c-0.05649,-1.05399 -0.11123,-2.10974 -0.1642,-3.16374c-0.10946,-2.18213 -0.22951,-4.36426 -0.3478,-6.54639c-0.05826,-1.0787 -0.11652,-2.15918 -0.17302,-3.23965c-0.22598,-4.21066 -0.47492,-8.4178 -0.75915,-12.62494c-0.03355,-0.53495 -0.06885,-1.06988 -0.10417,-1.62071c-0.03178,-0.47492 -0.06532,-0.95159 -0.09887,-1.4424c-0.02648,-0.40253 -0.05474,-0.8033 -0.08298,-1.21641c-0.06356,-0.9763 -0.06356,-0.9763 -0.56848,-1.86964c-0.10417,-1.14932 -0.18361,-2.28982 -0.24539,-3.44091c-0.01942,-0.35133 -0.03884,-0.70266 -0.05826,-1.06459c-0.06356,-1.14932 -0.12359,-2.30042 -0.18185,-3.45328c-0.02119,-0.3884 -0.04061,-0.77857 -0.06179,-1.18111c-0.37429,-7.2261 -0.47667,-14.42396 -0.36545,-21.66065z" fill="#7f4d2f"/><path d="M319.84309,196.1653c0.3019,0 0.6038,0 0.91452,0c0.06885,5.79078 -0.13241,11.57095 -0.34251,17.35642c-0.01942,0.52435 -0.03884,1.04692 -0.05649,1.58716c-0.34251,9.30231 -0.83683,18.59049 -1.39825,27.88221c-0.06179,1.01868 -0.12182,2.03912 -0.18361,3.05782c-0.11476,1.91378 -0.23305,3.82579 -0.35133,5.73781c-0.0353,0.57379 -0.07062,1.1458 -0.10592,1.73722c-0.03355,0.52787 -0.06708,1.05576 -0.1024,1.59952c-0.02825,0.45902 -0.05649,0.91804 -0.0865,1.3912c-0.11476,1.21465 -0.31426,2.37104 -0.57555,3.56097c-0.45373,0 -0.90745,0 -1.37355,0c0.02296,-0.33543 0.0459,-0.66911 0.06885,-1.01339c0.60203,-8.87859 1.15815,-17.75895 1.67191,-26.64285c0.07945,-1.35413 0.15889,-2.70648 0.23834,-4.0606c0.4502,-7.58274 0.85802,-15.16192 1.06634,-22.75702c0.09181,-3.1602 0.28954,-6.29041 0.61615,-9.43648z" fill="#7e4c2f"/><path d="M353.99452,201.17043c0.45725,0.14301 0.91452,0.28425 1.38591,0.43078c-0.286,2.66765 -1.68604,3.6157 -3.65808,5.28938c-8.86977,7.10605 -8.86977,7.10605 -14.34982,7.10605c0.17831,-1.1405 0.32661,-1.70898 1.18111,-2.51758c0.286,-0.19244 0.57202,-0.38311 0.86684,-0.58084c0.286,-0.19596 0.57025,-0.39371 0.86509,-0.59497c0.78034,-0.43783 0.78034,-0.43783 1.70369,-0.43783c0,-0.30367 0,-0.60557 0,-0.91804c0.9869,-0.75386 1.97381,-1.45828 3.00131,-2.15212c1.97381,-1.35059 3.79755,-2.68706 5.51182,-4.36249c1.21289,-1.11402 1.83434,-1.48477 3.49211,-1.26232z" fill="#815235"/><path d="M324.05552,143.72351c0.84919,0.91628 0.84919,0.91628 0.95336,2.18919c-0.00177,0.54377 -0.00354,1.08753 -0.00529,1.64719c0,0.30013 0,0.60026 0,0.90922c-0.00177,0.99749 -0.01059,1.995 -0.01942,2.99072c-0.00177,0.69384 -0.00529,1.38591 -0.00706,2.07796c-0.04061,7.73632 -0.25952,15.46913 -0.49609,23.20016c-0.28071,0 -0.56142,0 -0.84919,0c-0.01236,-3.08076 -0.01942,-6.16153 -0.02472,-9.24228c-0.00177,-1.0434 -0.00354,-2.08503 -0.00883,-3.12844c-0.02296,-6.89596 0.1024,-13.75838 0.45725,-20.64374z" fill="#7f4d2f"/><path d="M329.62208,106.46609c1.09636,0.22528 1.09636,0.22528 2.21391,0.45496c0.32309,2.15494 0.5014,4.27405 0.55437,6.45459c0.01059,0.44754 0.02296,0.89492 0.03355,1.35607c-0.16948,1.50508 -0.58967,2.35886 -1.47418,3.56309c-0.29131,0 -0.58438,0 -0.88451,0c-0.51728,-3.94444 -0.48727,-7.85867 -0.44314,-11.8287z" fill="#815237"/><path d="M311.89314,146.03982c1.58893,0.40253 1.58893,0.40253 2.49639,1.15109c0.64264,1.55009 0.3372,2.70648 0,4.32189c0.25247,0.12359 0.50493,0.24716 0.76621,0.37429c1.15286,0.60026 2.25452,1.17757 3.31909,1.92966c0,0.4555 0,0.91276 0,1.38237c-0.60732,-0.36016 -1.21112,-0.72737 -1.81492,-1.0946c-0.3372,-0.20303 -0.67442,-0.40605 -1.02221,-0.61615c-0.26129,-0.19596 -0.52435,-0.39194 -0.79447,-0.5932c0,-0.30542 0,-0.60909 0,-0.92158c-0.30013,-0.0865 -0.59849,-0.17125 -0.90745,-0.25952c-1.93849,-0.94277 -3.51507,-2.30924 -4.99454,-3.88934c0,-0.30367 0,-0.60732 0,-0.92158c1.36295,-0.92158 1.36295,-0.92158 2.95188,-0.86332z" fill="#855437"/><path d="M324.96475,239.24827c0.15183,0 0.3019,0 0.45725,0c0,6.37337 0,12.74676 0,19.31434c1.20406,0 2.40811,0 3.64748,0c0,0.15183 0,0.30367 0,0.45902c-1.80609,0 -3.61217,0 -5.47298,0c0.12005,-2.74179 0.24187,-5.48357 0.36545,-8.22536c0.04237,-0.93394 0.08298,-1.86787 0.12359,-2.80181c0.05826,-1.33823 0.11828,-2.67647 0.18008,-4.01647c0.01765,-0.42018 0.0353,-0.84037 0.05297,-1.27291c0.13947,-2.94482 0.13947,-2.94482 0.64616,-3.45681z" fill="#7e4c30"/><path d="M338.23762,172.6809c0.2966,0.15183 0.59144,0.30367 0.89686,0.45902c-0.28248,0.17831 -0.56671,0.35839 -0.85802,0.54377c-1.52184,1.35413 -1.50242,2.76121 -1.75489,4.74914c-0.26483,4.15947 0.30013,8.38073 0.68324,12.519c0.13594,1.47595 0.26658,2.95188 0.39194,4.42782c0.05474,0.64087 0.05474,0.64087 0.10946,1.2941c0.12888,1.94732 0.12005,3.89288 0.08298,5.84373c-0.1483,0 -0.2966,0 -0.44843,0c-0.02825,-0.28777 -0.05474,-0.57555 -0.08298,-0.87215c-0.03707,-0.37429 -0.07591,-0.75033 -0.11476,-1.13696c-0.05297,-0.55789 -0.05297,-0.55789 -0.10946,-1.12814c-0.09358,-1.01339 -0.09358,-1.01339 -0.59144,-1.91201c-0.10063,-1.00808 -0.17654,-2.01794 -0.2401,-3.0278c-0.01942,-0.30542 -0.03884,-0.60909 -0.05826,-0.92158c-0.18714,-2.98366 -0.35133,-5.96732 -0.50493,-8.95275c-0.05649,-1.06988 -0.11476,-2.13799 -0.17654,-3.20788c-0.06179,-1.08401 -0.10592,-2.168 -0.14124,-3.25555c-0.0353,-0.84742 -0.0353,-0.84742 -0.07062,-1.71252c0.42372,-2.03207 1.34882,-2.53875 2.9872,-3.70926z" fill="#846d5c"/><path d="M349.40957,199.34315c0.4555,0.15183 0.91099,0.30367 1.37884,0.46079c0,0.30367 0,0.60732 0,0.92158c-1.02927,0.76092 -2.05854,1.46535 -3.13373,2.15918c-0.31249,0.2048 -0.62499,0.40959 -0.94806,0.61968c-0.93746,0.61262 -1.87671,1.21994 -2.81946,1.82551c-0.49609,0.32132 -0.9922,0.64264 -1.50419,0.97278c-1.18111,0.75739 -2.36575,1.50948 -3.55568,2.25275c-0.40782,0.25599 -0.81389,0.51376 -1.23407,0.77857c-1.06634,0.60203 -1.06634,0.60203 -1.98792,0.60203c0,-0.30367 0,-0.60732 0,-0.92158c0.86509,-0.63204 0.86509,-0.63204 2.09915,-1.3806c0.45725,-0.28425 0.91452,-0.56671 1.38414,-0.85802c0.25247,-0.15712 0.50317,-0.31249 0.76269,-0.47315c1.50419,-0.94454 2.9872,-1.92084 4.46843,-2.90068c0.29307,-0.19067 0.58613,-0.38311 0.8898,-0.58084c1.56599,-1.0381 2.9201,-2.0815 4.20007,-3.478z" fill="#7e4c2f"/><path d="M343.81477,111.41031c1.0787,0.15148 2.15565,0.30295 3.26614,0.45902c0,0.45443 0,0.90886 0,1.37707c-4.8533,2.75415 -4.8533,2.75415 -6.53226,2.75415c1.61717,-2.27217 1.61717,-2.27217 3.26614,-4.59024z" fill="#d0e2e5"/><path d="M319.02038,175.32911c0.95513,2.84242 -0.28425,5.83667 -1.5448,8.44429c-1.00456,1.87671 -2.13976,3.41444 -3.58921,4.97335c-0.46608,-1.38766 -0.46608,-1.38766 -0.02825,-2.39928c0.24539,-0.41489 0.24539,-0.41489 0.49609,-0.8386c0.30719,0 0.61615,0 0.93217,0c0.15536,-0.61086 0.30896,-1.22171 0.46785,-1.85022c0.30719,0 0.61615,0 0.93217,0c0.13065,-0.56319 0.25952,-1.12637 0.39194,-1.70546c0.17125,-0.73268 0.34251,-1.46535 0.51376,-2.19978c0.12711,-0.55612 0.12711,-0.55612 0.25776,-1.12461c0.65146,-2.78416 0.65146,-2.78416 1.17051,-3.29967z" fill="#526459"/><path d="M313.19783,107.2549c0.53495,0.49274 1.06282,0.99502 1.56951,1.51849c-1.11049,0.73108 -1.6772,0.96731 -3.00485,0.83737c-0.6038,-0.14935 -0.6038,-0.14935 -1.22171,-0.30154c-0.40782,-0.0971 -0.81389,-0.19402 -1.23407,-0.29396c-0.30896,-0.0798 -0.61791,-0.15978 -0.93571,-0.24187c0,-0.31443 0,-0.62886 0,-0.95283c-0.45196,-0.15712 -0.9057,-0.31426 -1.37178,-0.47633c2.42047,-1.29657 3.91407,-1.91589 6.1986,-0.08933z" fill="#c8e2e5"/><path d="M334.22644,153.78851c0.15183,0 0.30367,0 0.45902,0c0.15183,2.59349 0.30367,5.18698 0.45902,7.85991c1.72134,-1.03987 3.38796,-2.10798 5.04927,-3.23613c-0.26129,1.67544 -0.88274,2.42929 -2.09386,3.58215c-0.44137,0.42547 -0.44137,0.42547 -0.89157,0.85979c-0.22598,0.21363 -0.45196,0.42547 -0.68677,0.64441c-1.13873,-0.42901 -1.13873,-0.42901 -2.29513,-1.38766c-0.30013,-1.41944 -0.21538,-2.80535 -0.14301,-4.24775c0.01059,-0.39194 0.02119,-0.78211 0.03178,-1.18464c0.02648,-0.96396 0.06885,-1.9279 0.11123,-2.89008z" fill="#8e6e5c"/><path d="M330.43773,127.12519c0.29836,0.15112 0.59849,0.30226 0.9057,0.45814c-0.21892,0.30171 -0.4396,0.60344 -0.66559,0.91434c-0.85979,1.7081 -0.93394,3.1934 -0.91804,5.06904c-0.00177,0.34198 -0.00177,0.68394 -0.00177,1.03616c0.07239,2.80623 0.77857,5.0235 2.03912,7.53666c0.22422,0.50386 0.22422,0.50386 0.45196,1.01815c-0.15007,0.30226 -0.29836,0.60468 -0.45373,0.91541c-0.1483,-0.60397 -0.29836,-1.20865 -0.45196,-1.83151c-0.29836,0 -0.59849,0 -0.9057,0c-1.51125,-2.86466 -1.56422,-5.37959 -1.52713,-8.58888c-0.00883,-0.71484 -0.00883,-0.71484 -0.01588,-1.44398c0.00177,-0.45656 0.00354,-0.91293 0.00529,-1.38307c0.00177,-0.41382 0.00177,-0.82766 0.00354,-1.25402c0.20656,-1.2579 0.56671,-1.66149 1.5342,-2.44642z" fill="#716957"/><path d="M318.56843,164.73447c0.1483,0.60909 0.29484,1.21818 0.44666,1.84493c0.29484,0 0.58967,0 0.89334,0c0.7874,9.92553 0.7874,9.92553 -0.89334,14.75058c-0.14653,0 -0.29484,0 -0.44666,0c0.03355,-0.46785 0.06532,-0.93571 0.09887,-1.41767c0.71502,-7.45738 0.71502,-7.45738 -0.54377,-14.71703c0.14653,-0.15183 0.29484,-0.30367 0.44491,-0.46079z" fill="#7b624f"/><path d="M350.70542,205.70064c0.99574,0.17831 0.99574,0.17831 1.85022,0.45902c-0.94454,0.72737 -1.88906,1.45299 -2.83359,2.18036c-0.39371,0.30542 -0.39371,0.30542 -0.79799,0.61615c-4.73148,3.62982 -4.73148,3.62982 -6.08031,3.62982c0.46256,-1.37707 0.46256,-1.37707 1.38766,-2.29513c0.45725,0 0.91628,0 1.38766,0c0.15183,-0.4555 0.30542,-0.90922 0.46256,-1.37707c0.75739,-0.48198 1.53067,-0.93746 2.31101,-1.37707c0.39194,-0.34074 0.78211,-0.68324 1.18639,-1.03281c0.37075,-0.26658 0.74327,-0.53141 1.12637,-0.8033z" fill="#866450"/><path d="M307.04161,195.10601c0.45196,0 0.90393,0 1.37001,0c0,0.46608 0,0.93217 0,1.41238c-0.29131,0.05826 -0.58438,0.11652 -0.88451,0.17654c-0.31249,0.0971 -0.62322,0.19421 -0.94277,0.29484c-0.15183,0.31072 -0.3019,0.62145 -0.45725,0.941c-0.60909,0.31426 -1.21818,0.62851 -1.82726,0.941c-0.15183,0.31072 -0.3019,0.62145 -0.45725,0.94277c-0.75386,0 -1.50771,0 -2.28453,0c-0.15183,0.31072 -0.3019,0.62145 -0.45725,0.941c-0.15183,-0.31072 -0.3019,-0.62145 -0.45725,-0.941c1.10166,-1.25526 2.29689,-2.03736 3.7128,-2.88479c1.42651,-0.79622 1.42651,-0.79622 2.6853,-1.82374z" fill="#715a45"/><path d="M346.55125,164.73447c-0.26483,1.60835 -0.78388,2.33925 -1.95085,3.44799c-0.43078,0.41489 -0.43078,0.41489 -0.86861,0.84037c-0.28248,0.26658 -0.56319,0.53495 -0.85273,0.81035c-0.4502,0.45196 -0.90039,0.9057 -1.34882,1.36118c-0.31249,0.31601 -0.62499,0.63028 -0.94629,0.95513c-0.3019,-0.15183 -0.60557,-0.30542 -0.91804,-0.46256c0.64969,-0.81212 1.29939,-1.62248 1.95085,-2.43283c0.36193,-0.45196 0.72385,-0.90393 1.09812,-1.36824c2.63056,-3.15138 2.63056,-3.15138 3.83639,-3.15138z" fill="#58776f"/><path d="M310.26007,238.36554c0.15889,0 0.31778,0 0.48198,0c0.74856,4.55317 0.07768,8.45841 -0.96396,12.888c-0.15889,0 -0.31955,0 -0.48198,0c0.46433,-8.66321 0.46433,-8.66321 0.96396,-12.888z" fill="#8e6e5f"/><path d="M339.18391,172.15126c0.4502,0.1536 0.90039,0.30542 1.36295,0.46433c-0.34427,0.32838 -0.34427,0.32838 -0.69561,0.66382c-1.60306,1.66308 -2.71177,2.83183 -2.71177,5.24347c0.07416,1.05576 0.22069,1.95085 0.52435,2.96247c0.07768,0.42724 0.07768,0.42724 0.15712,0.86155c-0.30013,0.30542 -0.60026,0.61262 -0.90922,0.92687c-1.03281,-3.10371 -1.04163,-5.67425 0,-8.80445c0.68853,-1.01516 1.29939,-1.56068 2.27217,-2.31807z" fill="#5a7e7a"/><path d="M322.20178,99.05037c1.54303,0.67459 2.53346,1.52449 3.69868,2.74126c0.30542,0.31637 0.61086,0.63274 0.92512,0.95865c0.30542,0.31885 0.61086,0.63752 0.92512,0.96607c0.61439,0.62303 1.23054,1.24555 1.84845,1.86629c-2.44166,-0.69312 -4.29011,-2.37333 -6.00969,-4.19937c0,-0.3079 0,-0.6158 0,-0.93323c-1.83257,0.92388 -1.83257,0.92388 -3.70044,1.86646c0.51376,-1.55628 1.14403,-2.1636 2.31278,-3.26614z" fill="#75604a"/><path d="M347.0809,196.5184c2.18036,0.4043 2.18036,0.4043 3.21317,0.92335c0,0.30542 0,0.60909 0,0.92335c0.39723,0.11476 0.79622,0.22951 1.20583,0.34603c1.65249,0.61615 2.90598,1.34705 4.30247,2.424c0.15183,0.45725 0.30367,0.91452 0.45902,1.38591c-0.3019,0 -0.60557,0 -0.91804,0c0,-0.30542 0,-0.60909 0,-0.92335c-0.49434,-0.06708 -0.49434,-0.06708 -1.00103,-0.13418c-1.4936,-0.37781 -2.40282,-0.97984 -3.64572,-1.88554c-0.39017,-0.28071 -0.77857,-0.55966 -1.18111,-0.84919c-0.88626,-0.69207 -1.66662,-1.38943 -2.4346,-2.21038z" fill="#5c7569"/><path d="M317.64508,177.62424c0.15712,0 0.31601,0 0.47844,0c-0.26306,2.11151 -0.67971,4.00587 -1.43709,6.00262c-0.47492,0 -0.94983,0 -1.43709,0c-0.15889,-0.45725 -0.31778,-0.91276 -0.48021,-1.38414c0.31601,0 0.63204,0 0.95865,0c0,-0.30542 0,-0.60909 0,-0.92335c-0.31601,-0.1536 -0.63204,-0.30542 -0.95865,-0.46256c0.46785,-0.54024 0.93746,-1.0787 1.40708,-1.61542c0.26129,-0.30013 0.52258,-0.60026 0.7927,-0.90922c0.33368,-0.34956 0.33368,-0.34956 0.67617,-0.70795z" fill="#437273"/><path d="M321.74274,127.125c0.14478,0 0.29131,0 0.44137,0c-0.67088,6.45511 -0.67088,6.45511 -2.04089,8.1957c-0.20127,0.15007 -0.40076,0.30049 -0.60732,0.45514c0.06356,-0.31919 0.12711,-0.63857 0.19244,-0.96748c0.25599,-1.34335 0.47667,-2.6897 0.6903,-4.04083c-0.29131,-0.15024 -0.58261,-0.30049 -0.88274,-0.45532c0.35662,-0.53247 0.71502,-1.06335 1.07518,-1.59352c0.1995,-0.2959 0.40076,-0.59161 0.60557,-0.89652c0.17302,-0.23004 0.3478,-0.46008 0.52611,-0.69719z" fill="#617b76"/><path d="M316.18149,104.53466c-0.56671,1.14985 -1.12814,1.31493 -2.25629,1.83185c0.74504,0.90675 1.48829,1.8135 2.25629,2.74779c-1.98087,0 -2.60408,-0.97472 -4.0606,-2.28982c0.4502,-1.14227 0.76092,-1.73459 1.77608,-2.433c0.93041,-0.31479 0.93041,-0.31479 2.28453,0.14318z" fill="#765c4b"/><path d="M308.44694,255.49245c0.15183,0 0.30367,0 0.45902,0c0,2.40458 0,4.80917 0,7.28613c0.30367,0.15007 0.60557,0.30013 0.91804,0.4555c-0.75739,0.30013 -1.51479,0.60026 -2.29513,0.90922c0.25247,-2.89185 0.53495,-5.77136 0.91804,-8.65085z" fill="#8a7262"/><path d="M329.95399,184.15827c1.14756,1.11931 1.23054,1.65778 1.41238,3.21317c-0.20656,1.52007 -0.20656,1.52007 -0.47138,2.75415c-0.31072,-0.15183 -0.62145,-0.30367 -0.941,-0.45902c0,-1.81844 0,-3.63512 0,-5.5083zM329.95399,190.12559c0.15536,0 0.31072,0 0.47138,0c0,1.81668 0,3.63512 0,5.5083c-0.15536,0 -0.31072,0 -0.47138,0c0,-1.81844 0,-3.63512 0,-5.5083z" fill="#845136"/><path d="M296.40459,177.22876c0,0.15007 0,0.30013 0,0.45373c-0.58967,0.00883 -1.17934,0.01942 -1.78667,0.02825c-2.76297,0.28777 -4.35544,1.8361 -6.38397,3.59805c-0.4502,0.29836 -0.90039,0.59849 -1.36295,0.9057c0.16066,-1.27291 0.40605,-1.76548 1.33117,-2.68353c2.80005,-2.03912 4.74207,-2.76474 8.20242,-2.30218z" fill="#dbebee"/><path d="M405.41585,143.19317c0.1536,0.30295 0.30719,0.60626 0.46433,0.91876c-0.53141,1.2782 -0.53141,1.2782 -1.30293,2.78239c-0.25247,0.49786 -0.50317,0.99574 -0.76269,1.50771c-0.71502,1.21818 -0.71502,1.21818 -1.6419,1.6772c0.26658,-1.09636 0.56671,-2.14329 0.92687,-3.21317c0.30542,0 0.61086,0 0.92687,0c0.0865,-0.65323 0.0865,-0.65323 0.17302,-1.32058c0.28954,-1.43357 0.28954,-1.43357 1.21641,-2.35233z" fill="#618282"/><path d="M415.03242,199.69625c0.30013,0.15183 0.60203,0.30367 0.91099,0.45902c-0.56671,0.51905 -1.13873,1.03458 -1.70898,1.55009c-0.31778,0.286 -0.63558,0.57379 -0.96219,0.87038c-0.9057,0.7362 -1.74253,1.23584 -2.80181,1.71075c0,-0.45373 0,-0.90922 0,-1.37707c0.99749,-0.83683 0.99749,-0.83683 2.281,-1.6931c0.63558,-0.42901 0.63558,-0.42901 1.28351,-0.86509c0.49257,-0.32485 0.49257,-0.32485 0.99749,-0.655z" fill="#587d7d"/><path d="M308.41162,194.74938c-1.45299,1.19876 -2.87774,2.31984 -4.56022,3.18139c-0.3019,-0.15007 -0.60203,-0.30013 -0.91276,-0.4555c0.29131,-0.19596 0.58261,-0.39371 0.88451,-0.59673c1.06282,-0.72562 1.06282,-0.72562 1.3965,-2.12916c1.21641,-0.60557 1.89965,-0.30542 3.19198,0z" fill="#55655b"/><path d="M313.88637,150.60887c0.15007,0.30367 0.3019,0.60557 0.45902,0.91804c0.60203,0.32309 1.21641,0.62674 1.8361,0.91804c1.26232,0.66029 1.26232,0.66029 2.29513,1.37707c0,0.4555 0,0.90922 0,1.37707c-0.61439,-0.35839 -1.227,-0.72385 -1.8361,-1.0893c-0.34074,-0.20303 -0.68324,-0.4043 -1.03281,-0.61439c-0.399,-0.29131 -0.399,-0.29131 -0.8033,-0.59144c0,-0.3019 0,-0.60557 0,-0.91804c-0.30367,0 -0.60732,0 -0.91804,0c0,-0.45373 0,-0.90922 0,-1.37707z" fill="#7f4e31"/><path d="M312.04497,107.34882c2.21214,0.78017 2.21214,0.78017 2.72237,1.78331c-1.5448,0.50704 -2.62173,0.37446 -4.19831,0.02789c-0.40605,-0.08669 -0.81035,-0.17355 -1.227,-0.26287c-0.30719,-0.06956 -0.61439,-0.13912 -0.93041,-0.2108c0,-0.14724 0,-0.2943 0,-0.44596c0.51553,-0.06426 1.03104,-0.12871 1.56068,-0.19491c1.53067,-0.07768 1.53067,-0.07768 2.07267,-0.69666z" fill="#e2ecec"/><path d="M300.99661,200.75553c3.56097,1.07341 3.56097,1.07341 4.6538,1.76548c0.34956,0.93746 0.34956,0.93746 0.46608,1.76548c-1.995,-1.01868 -3.59452,-1.91201 -5.11989,-3.53095z" fill="#866856"/><path d="M337.36901,109.23983c0.655,-0.03496 1.31175,-0.05986 1.96675,-0.0805c0.54906,-0.02243 0.54906,-0.02243 1.10695,-0.0452c1.24996,0.15219 1.62071,0.50898 2.39928,1.41238c-0.7415,-0.0489 -1.48124,-0.10363 -2.22274,-0.16083c-0.41313,-0.02984 -0.82624,-0.05967 -1.24996,-0.0904c-1.08753,-0.17778 -1.08753,-0.17778 -2.00028,-1.03546z" fill="#8fa49e"/><path d="M341.91687,167.56101c0.30542,0.1536 0.61086,0.30719 0.92687,0.46433c-1.22348,1.53597 -2.44696,3.07193 -3.70751,4.65557c0,-1.44593 0.24893,-2.02678 0.92687,-3.25907c0.30542,0 0.61086,0 0.92687,0c0.30542,-0.61439 0.61086,-1.22877 0.92687,-1.86081z" fill="#745940"/><path d="M312.08381,145.07233c0.30367,0.44843 0.60732,0.8951 0.91804,1.35589c-0.42547,-0.00883 -0.85096,-0.01942 -1.29056,-0.02825c-1.47418,-0.04237 -1.47418,-0.04237 -2.84065,0.48021c-0.15007,0.29836 -0.3019,0.59673 -0.45902,0.90393c0,-1.35589 0,-1.35589 0.54554,-2.11857c1.11754,-0.79622 1.7796,-0.79622 3.12667,-0.5932z" fill="#82644d"/><path d="M246.25794,140.89786c1.22348,0.7648 2.44696,1.52943 3.70751,2.31737c-0.61086,0.15289 -1.22348,0.30578 -1.85376,0.46414c-0.15183,0.30542 -0.30542,0.61086 -0.46256,0.92687c-1.3912,-2.66552 -1.3912,-2.66552 -1.3912,-3.70839z" fill="#5f8585"/><path d="M346.55125,164.73624c0,0.46608 0,0.93217 0,1.41238c-1.01516,0.70618 -1.01516,0.70618 -2.25629,1.41238c-0.60732,0.46256 -1.21112,0.93041 -1.80432,1.41238c0.69561,-1.7849 2.05502,-4.23715 4.0606,-4.23715z" fill="#676f5f"/><path d="M348.8658,161.20352c0.46256,1.37707 0.46256,1.37707 -0.11476,2.55288c-0.81035,1.11931 -0.81035,1.11931 -2.19978,2.03736c0.23305,-2.0197 0.96748,-3.08076 2.31455,-4.59024z" fill="#c5d0cb"/><path d="M339.26336,214.00016c0.93571,0.2048 0.93571,0.2048 1.81315,0.46962c-0.44843,0.31072 -0.89686,0.62145 -1.35942,0.94277c-0.33368,1.4424 -0.33368,1.4424 -0.45373,2.82477c-0.90745,-1.41238 -0.90745,-1.41238 -0.76621,-2.64821c0.31249,-1.11931 0.31249,-1.11931 0.76621,-1.58893z" fill="#8d6d58"/><path d="M307.03455,195.10601c0.45373,0 0.90922,0 1.37707,0c0,0.46608 0,0.93217 0,1.41238c-0.29307,0.05826 -0.58613,0.11652 -0.8898,0.17654c-0.31249,0.0971 -0.62499,0.19421 -0.94629,0.29484c-0.15183,0.31072 -0.30367,0.62145 -0.45902,0.941c0,-1.88377 0,-1.88377 0.91804,-2.82477z" fill="#785336"/><path d="M345.25717,157.8491c0.31072,0.31072 0.62145,0.62145 0.941,0.941c-0.64616,0.70618 -0.64616,0.70618 -1.41238,1.41238c-0.31072,0 -0.62145,0 -0.941,0c0.88274,-1.82374 0.88274,-1.82374 1.41238,-2.35338zM342.4324,161.14526c0.15536,0.31072 0.31072,0.62145 0.47138,0.941c-0.31072,-0.15536 -0.62145,-0.31072 -0.94277,-0.47138c0.15536,-0.15536 0.31072,-0.31072 0.47138,-0.46962z" fill="#7f4e30"/><path d="M370.03566,259.02517c1.13521,0.46608 1.13521,0.46608 2.29513,0.94277c-0.15183,0.62145 -0.30367,1.2429 -0.45902,1.882c-0.60557,-0.15536 -1.21112,-0.31072 -1.8361,-0.46962c0.15183,-0.31072 0.30367,-0.62145 0.45902,-0.94277c-0.15183,-0.46608 -0.30367,-0.93217 -0.45902,-1.41238z" fill="#e1f0f4"/><path d="M335.9319,165.26413c0.30013,0 0.59849,0 0.90745,0c-0.58613,1.30998 -1.20758,2.21214 -2.2704,3.17787c-0.29836,-0.15007 -0.59849,-0.29836 -0.90745,-0.45373c0.73444,-0.92687 1.49183,-1.83434 2.2704,-2.72414z" fill="#805235"/><path d="M343.3734,154.67125c0,1.81138 -0.68324,2.37104 -1.81668,3.70751c-0.44843,-0.1536 -0.89863,-0.30719 -1.36118,-0.46433c1.04869,-1.06988 2.09738,-2.14152 3.17787,-3.24318z" fill="#8e6f5d"/><path d="M312.1209,144.1843c-0.1536,0.3019 -0.30719,0.60557 -0.46433,0.91628c-1.07165,0.33543 -2.15389,0.64264 -3.24495,0.91804c0.93923,-2.05502 1.48654,-2.49444 3.70926,-1.83434z" fill="#628074"/><path d="M321.25019,98.52073c0.60026,0.15536 1.19876,0.31072 1.81668,0.47086c-0.30013,0 -0.59849,0 -0.90745,0c-0.12182,0.30102 -0.24364,0.60203 -0.36898,0.91204c-0.54024,0.97101 -0.54024,0.97101 -1.90142,1.44187c0,-0.46608 0,-0.93217 0,-1.41238c0.30013,0 0.59849,0 0.90745,0c0.15007,-0.46608 0.30013,-0.93217 0.45373,-1.41238z" fill="#7a9688"/></g></g></g></svg>