<svg version="1.1" xmlns="http://www.w3.org/2000/svg" xmlns:xlink="http://www.w3.org/1999/xlink" width="113.91576" height="141.23008" viewBox="0,0,113.91576,141.23008"><g transform="translate(-183.06124,-109.75996)"><g fill-rule="evenodd" stroke-width="1.5"><path d="M195.14727,115.62867c3.81094,0 6.90113,3.08671 6.90113,6.89453v70.60971h20.00647v-51.71222c0,-7.43003 6.02817,-13.45325 13.46481,-13.45325c7.43846,0 13.46663,6.02321 13.46663,13.45325v30.88231h25.01681v-37.70421c0,-3.66238 2.97282,-6.63135 6.63888,-6.63135c3.66605,0 6.63704,2.96897 6.63704,6.63135v39.91594v3.27359v5.56785c0,1.21957 -0.99033,2.2099 -2.21173,2.2099h-36.08098v51.22017c0,7.43113 -6.02817,13.4538 -13.46663,13.4538c-7.43664,0 -13.46481,-6.02267 -13.46481,-13.4538v-30.39209h-31.56032c-1.22141,0 -2.21173,-0.98849 -2.21173,-2.2099v-8.84144l0.03118,-0.0752l-0.06786,-0.33377v-72.41065c0,-3.80782 3.09019,-6.89453 6.90113,-6.89453z" fill="#a6a200" stroke="#000000" stroke-miterlimit="8"/><path d="M195.25548,116.45395l0.23475,0.05006v89.07953h-4.528c-1.12604,0 -2.04117,-0.97199 -2.04117,-2.17139v-8.68189l0.02934,-0.07336l-0.06235,-0.32828v-71.10451c0,-3.73904 2.85178,-6.77018 6.36745,-6.77018z" fill="#c0bb00" stroke="none" stroke-miterlimit="10"/><path d="M280.45677,128.37457c3.51383,0 6.36378,2.89267 6.36378,6.46098v38.88875v3.19105v5.42481c0,1.18839 -0.94998,2.15304 -2.12187,2.15304h-5.0305v-55.95688z" fill="#c0bb00" stroke="none" stroke-miterlimit="10"/><path d="M233.08604,181.4672c0,-18.4843 3.03884,-33.46944 6.78558,-33.46944c3.74675,0 6.78558,14.98514 6.78558,33.46944c0,18.4843 -3.03884,33.46944 -6.78558,33.46944c-3.74675,0 -6.78558,-14.98514 -6.78558,-33.46944z" fill="#c0bb00" stroke="none" stroke-miterlimit="10"/><path d="M206.02969,113.79473l-7.69685,7.14393" fill="none" stroke="#4c4a00" stroke-miterlimit="8"/><path d="M190.92921,121.23044l-4.88378,-7.06893" fill="none" stroke="#4c4a00" stroke-miterlimit="8"/><path d="M194.48156,121.29005l5.67813,-10.06286" fill="none" stroke="#4c4a00" stroke-miterlimit="8"/><path d="M192.6476,119.13865l0.00006,-9.37869" fill="none" stroke="#4c4a00" stroke-miterlimit="8"/><path d="M183.29451,120.9471l7.21656,2.36157" fill="none" stroke="#4c4a00" stroke-miterlimit="8"/><path d="M210.10504,120.94715l-11.77222,2.39123" fill="none" stroke="#4c4a00" stroke-miterlimit="8"/><path d="M283.61114,131.57553l7.69685,-7.14393" fill="none" stroke="#4c4a00" stroke-miterlimit="8"/><path d="M276.20752,131.86731l-4.88378,-7.06893" fill="none" stroke="#4c4a00" stroke-miterlimit="8"/><path d="M285.438,121.86406l-5.67813,10.06286" fill="none" stroke="#4c4a00" stroke-miterlimit="8"/><path d="M277.92597,120.39701l-0.00006,9.37869" fill="none" stroke="#4c4a00" stroke-miterlimit="8"/><path d="M268.57282,131.58397l7.21656,2.36138" fill="none" stroke="#4c4a00" stroke-miterlimit="8"/><path d="M283.61114,133.97524l11.77222,-2.39123" fill="none" stroke="#4c4a00" stroke-miterlimit="8"/><path d="M245.28176,138.43612l6.55779,-5.75187" fill="none" stroke="#4c4a00" stroke-miterlimit="8"/><path d="M230.79361,131.97643l0.00006,-9.37869" fill="none" stroke="#4c4a00" stroke-miterlimit="8"/><path d="M227.89049,137.47477l-6.26658,-11.75942" fill="none" stroke="#4c4a00" stroke-miterlimit="8"/><path d="M227.12572,128.46626l3.5065,8.43522" fill="none" stroke="#4c4a00" stroke-miterlimit="8"/><path d="M246.31942,126.81564l-7.27307,8.96291" fill="none" stroke="#4c4a00" stroke-miterlimit="8"/><path d="M234.2781,134.93641l0.00006,-10.13805" fill="none" stroke="#4c4a00" stroke-miterlimit="8"/><path d="M237.57919,133.21121l2.6543,-8.96299" fill="none" stroke="#4c4a00" stroke-miterlimit="8"/><path d="M254.71911,135.61863l-7.9702,6.72691" fill="none" stroke="#4c4a00" stroke-miterlimit="8"/><path d="M224.32897,140.28382l-2.52167,-8.51646" fill="none" stroke="#4c4a00" stroke-miterlimit="8"/><path d="M224.58754,143.75327l-5.89795,-7.21766" fill="none" stroke="#4c4a00" stroke-miterlimit="8"/><path d="M194.16685,204.02383l-4.08675,6.79745" fill="none" stroke="#4c4a00" stroke-miterlimit="8"/><path d="M190.19642,203.47394l-3.78423,5.88569" fill="none" stroke="#4c4a00" stroke-miterlimit="8"/><path d="M189.70958,198.88959l-3.84757,5.04156" fill="none" stroke="#4c4a00" stroke-miterlimit="8"/><path d="M200.53357,164.79483l3.78423,-5.88569" fill="none" stroke="#4c4a00" stroke-miterlimit="8"/><path d="M206.12856,164.04534l-5.59499,2.94288" fill="none" stroke="#4c4a00" stroke-miterlimit="8"/><path d="M200.53357,160.94355l3.78423,-5.88574" fill="none" stroke="#4c4a00" stroke-miterlimit="8"/><path d="M186.41219,151.75732l3.57435,4.45098" fill="none" stroke="#4c4a00" stroke-miterlimit="8"/><path d="M185.12845,156.70897l4.28408,3.27726" fill="none" stroke="#4c4a00" stroke-miterlimit="8"/><path d="M190.08375,163.51657l-4.95531,-2.77292" fill="none" stroke="#4c4a00" stroke-miterlimit="8"/><path d="M250.89993,168.44707l-3.78423,6.15201" fill="none" stroke="#4c4a00" stroke-miterlimit="8"/><path d="M255.80366,169.91358l-6.30385,4.56263" fill="none" stroke="#4c4a00" stroke-miterlimit="8"/><path d="M246.01533,170.28565l4.74556,-5.69157" fill="none" stroke="#4c4a00" stroke-miterlimit="8"/><path d="M223.9145,189.03587l-3.57435,-4.45098" fill="none" stroke="#4c4a00" stroke-miterlimit="8"/><path d="M219.23979,189.53654l4.28408,3.27726" fill="none" stroke="#4c4a00" stroke-miterlimit="8"/><path d="M224.19509,196.16073l-4.95531,-2.77292" fill="none" stroke="#4c4a00" stroke-miterlimit="8"/><path d="M245.09836,207.14239l11.81059,4.58669" fill="none" stroke="#4c4a00" stroke-miterlimit="8"/><path d="M263.85225,200.72357l-17.65427,2.58031" fill="none" stroke="#4c4a00" stroke-miterlimit="8"/><path d="M256.8521,207.25059l-9.7364,-2.49233" fill="none" stroke="#4c4a00" stroke-miterlimit="8"/><path d="M284.34473,171.3805l11.81059,4.58669" fill="none" stroke="#4c4a00" stroke-miterlimit="8"/><path d="M293.80786,178.12942l-9.27975,-0.51351" fill="none" stroke="#4c4a00" stroke-miterlimit="8"/><path d="M284.89491,181.46719l11.81059,4.58669" fill="none" stroke="#4c4a00" stroke-miterlimit="8"/></g></g></svg>