<svg version="1.1" xmlns="http://www.w3.org/2000/svg" xmlns:xlink="http://www.w3.org/1999/xlink" width="707.35226" height="502.27687" viewBox="0,0,707.35226,502.27687"><g transform="translate(87.87391,72.15729)"><g fill-rule="evenodd" stroke-width="1.5"><path d="M309.27788,206.02075c51.49367,-98.49053 136.07453,-276.67358 153.97975,-277.42785c21.4159,0.253 103.48861,178.93732 154.98228,277.42785z" fill="#8faadc" stroke="#000000" stroke-miterlimit="8"/><path d="M480.19131,47.9379c-12.75767,10.63595 -31.72375,8.91524 -42.3597,-3.84425c-0.2242,-0.26795 -0.44294,-0.54137 -0.65803,-0.81661l23.76,-18.44111z" fill="#dae3f3" stroke="none" stroke-miterlimit="10"/><path d="M480.19131,47.9379c-12.75767,10.63595 -31.72375,8.91524 -42.3597,-3.84425c-0.2242,-0.26795 -0.44294,-0.54137 -0.65803,-0.81661" fill="none" stroke="#000000" stroke-miterlimit="8"/><path d="M513.73054,43.92777c-12.4478,10.37529 -30.87797,9.02461 -41.67797,-3.05499l22.42025,-20.04699z" fill="#dae3f3" stroke="none" stroke-miterlimit="10"/><path d="M513.73054,43.92778c-12.4478,10.37529 -30.87797,9.02461 -41.67797,-3.05499" fill="none" stroke="#000000" stroke-miterlimit="8"/><path d="M532.86979,36.81892c-7.64658,6.37428 -17.95078,8.55068 -27.52223,5.81651l8.26451,-28.91848z" fill="#dae3f3" stroke="none" stroke-miterlimit="10"/><path d="M532.86979,36.81891c-7.64658,6.37428 -17.95078,8.55068 -27.52223,5.81651" fill="none" stroke="#000000" stroke-miterlimit="8"/><path d="M397.95637,33.40484c21.04952,-40.25347 54.8403,-104.61892 65.76425,-103.98714c12.04496,-0.2098 47.16091,66.24055 68.21043,106.49529c-31.05114,-0.69266 -37.49651,2.69043 -68.70441,4.97438c-31.05661,6.12273 -41.73813,-4.20516 -65.27028,-7.48253z" fill="#dae3f3" stroke="none" stroke-miterlimit="10"/><path d="M443.40933,39.46924c-14.4802,11.18278 -35.20527,8.43949 -46.33154,-6.13367l26.21529,-20.34775z" fill="#dae3f3" stroke="none" stroke-miterlimit="10"/><path d="M443.40933,39.46924c-14.4802,11.18278 -35.20527,8.43949 -46.33154,-6.13367" fill="none" stroke="#000000" stroke-miterlimit="8"/><path d="M374.16903,182.08393l39.1279,-102.1999" fill="none" stroke="#000000" stroke-miterlimit="8"/><path d="M423.29126,85.53411l-19.95767,75.32166" fill="none" stroke="#000000" stroke-miterlimit="8"/><path d="M583.06017,177.70378l-30.07595,-33.47544" fill="none" stroke="#000000" stroke-miterlimit="8"/><path d="M572.94736,182.0092l-59.33529,-66.2163" fill="none" stroke="#000000" stroke-miterlimit="8"/><path d="M-86.76453,249.9432c28.92154,-72.0237 76.42605,-202.32437 86.48308,-202.87595c12.02783,0.18501 58.12442,130.85225 87.04599,202.87595z" fill="#8faadc" stroke="#000000" stroke-miterlimit="8"/><path d="M9.83044,121.71028c-1.8206,10.79289 -11.20047,15.93934 -20.95018,11.49503c-1.7054,-0.77742 -3.35556,-1.82424 -4.89928,-3.10785l8.19579,-16.43459z" fill="#dae3f3" stroke="none" stroke-miterlimit="10"/><path d="M9.83044,121.71028c-1.8206,10.79289 -11.20047,15.93934 -20.95018,11.49503c-1.7054,-0.77742 -3.35556,-1.82424 -4.89928,-3.10785" fill="none" stroke="#000000" stroke-miterlimit="8"/><path d="M25.93129,130.3142c-8.33724,7.09173 -18.82918,4.99753 -23.43445,-4.67727c-0.62631,-1.31587 -1.12284,-2.73618 -1.48028,-4.23415l16.57622,-8.60664z" fill="#dae3f3" stroke="none" stroke-miterlimit="10"/><path d="M25.93129,130.3142c-8.33724,7.09173 -18.82918,4.99753 -23.43445,-4.67727c-0.62631,-1.31587 -1.12284,-2.73618 -1.48028,-4.23415" fill="none" stroke="#000000" stroke-miterlimit="8"/><path d="M38.99409,125.94553c-4.65703,5.23431 -11.13229,6.74959 -16.89667,3.95435l5.88231,-20.58453z" fill="#dae3f3" stroke="none" stroke-miterlimit="10"/><path d="M38.99409,125.94553c-4.65703,5.23431 -11.13229,6.74959 -16.89667,3.95435" fill="none" stroke="#000000" stroke-miterlimit="8"/><path d="M-36.9114,123.59468c11.79907,-29.44654 30.73999,-76.53053 36.86345,-76.06827c6.75178,-0.15366 26.43621,48.45564 38.23528,77.90199c-17.40559,-0.50601 -21.01853,1.96788 -38.51198,3.63937c-17.40796,4.47895 -23.39544,-3.07577 -36.58675,-5.47309z" fill="#dae3f3" stroke="none" stroke-miterlimit="10"/><path d="M-9.59241,125.92365c-7.21476,9.55249 -18.92907,9.57491 -26.1648,0.04994c-0.53262,-0.70104 -1.03224,-1.44437 -1.49632,-2.2258l14.55986,-15.07042z" fill="#dae3f3" stroke="none" stroke-miterlimit="10"/><path d="M-9.59241,125.92365c-7.21476,9.55249 -18.92907,9.57491 -26.1648,0.04994c-0.53262,-0.70104 -1.03224,-1.44437 -1.49632,-2.2258" fill="none" stroke="#000000" stroke-miterlimit="8"/><path d="M-50.30888,232.37703l34.33379,-83.96239" fill="none" stroke="#000000" stroke-miterlimit="8"/><path d="M-1.15525,167.18841l-18.16627,53.28036" fill="none" stroke="#000000" stroke-miterlimit="8"/><path d="M62.96116,240.22047l-15.38649,-27.64435" fill="none" stroke="#000000" stroke-miterlimit="8"/><path d="M13.12404,198.90523l34.41217,40.54967" fill="none" stroke="#000000" stroke-miterlimit="8"/><path d="M38.80527,429.36958c67.06503,-96.03493 177.22198,-269.77546 200.54244,-270.51093c27.89,0.24669 134.78269,174.47599 201.84701,270.51093z" fill="#8faadc" stroke="#000000" stroke-miterlimit="8"/><path d="M247.34218,265.06707c-5.86522,15.26734 -27.40656,22.90812 -48.11362,17.06423c-7.65802,-2.16124 -14.46807,-6.00029 -19.51464,-10.99817l30.13353,-16.64655z" fill="#dae3f3" stroke="none" stroke-miterlimit="10"/><path d="M247.34218,265.06707c-5.86522,15.26734 -27.40656,22.90812 -48.11362,17.06423c-7.65802,-2.16124 -14.46807,-6.00029 -19.51464,-10.99817" fill="none" stroke="#000000" stroke-miterlimit="8"/><path d="M154.24339,261.05739c27.39376,-39.24986 71.36903,-102.01052 85.58596,-101.3945c15.67613,-0.20457 61.37683,64.58902 88.77095,103.84012c-40.41135,-0.67539 -48.79861,2.62335 -89.41257,4.85036c-40.41703,5.97008 -54.31813,-4.10032 -84.94434,-7.29597z" fill="#dae3f3" stroke="none" stroke-miterlimit="10"/><path d="M204.37147,266.68622c-16.66948,7.24265 -37.67033,5.23782 -51.43991,-4.90723l30.01587,-23.29558z" fill="#dae3f3" stroke="none" stroke-miterlimit="10"/><path d="M204.37147,266.68622c-16.66948,7.24265 -37.67033,5.23782 -51.43991,-4.90723" fill="none" stroke="#000000" stroke-miterlimit="8"/><path d="M166.77364,317.3457l143.2741,-8.12375" fill="none" stroke="#000000" stroke-miterlimit="8"/><path d="M157.53147,352.05357l116.40608,-21.14855" fill="none" stroke="#000000" stroke-miterlimit="8"/><path d="M272.34756,372.67248l112.82367,42.57614" fill="none" stroke="#000000" stroke-miterlimit="8"/><path d="M309.91159,407.77492l-200.72373,-15.72945" fill="none" stroke="#000000" stroke-miterlimit="8"/><path d="M285.78778,256.80067c-5.90965,15.58015 -27.58074,24.62503 -48.40226,20.20301c-5.3018,-1.12683 -10.22503,-3.07657 -14.45154,-5.72303l25.1529,-22.48866z" fill="#dae3f3" stroke="none" stroke-miterlimit="10"/><path d="M285.78778,256.80067c-5.90965,15.58015 -27.58074,24.62503 -48.40226,20.20301c-5.3018,-1.12683 -10.22503,-3.07657 -14.45154,-5.72303" fill="none" stroke="#000000" stroke-miterlimit="8"/><path d="M329.51032,263.87625c-16.37995,10.58761 -41.12761,9.2315 -55.27523,-3.02503c-0.59719,-0.51721 -1.16949,-1.05041 -1.71691,-1.59783l31.37713,-17.57077z" fill="#dae3f3" stroke="none" stroke-miterlimit="10"/><path d="M329.51032,263.87624c-16.37995,10.58761 -41.12761,9.2315 -55.27523,-3.02503c-0.59719,-0.51721 -1.16949,-1.05041 -1.71691,-1.59783" fill="none" stroke="#000000" stroke-miterlimit="8"/></g></g></svg>