<svg version="1.1" xmlns="http://www.w3.org/2000/svg" xmlns:xlink="http://www.w3.org/1999/xlink" width="513.16321" height="281.33249" viewBox="0,0,513.16321,281.33249"><g transform="translate(4.79529,-38.13144)"><g stroke-width="1.5"><path d="M66.82732,310.16598c26.32949,-70.60122 14.18316,-63.86511 21.27474,-95.79855h13.25895c7.09158,31.93344 1.70447,70.13556 21.27474,95.79855z" fill="#843c0c" fill-rule="evenodd" stroke="#000000" stroke-miterlimit="8"/><path d="M41.41138,264.31064c32.3369,-36.07997 36.07997,-53.32016 54.11996,-79.98023c18.03999,26.66008 18.66383,43.90026 54.11996,79.98023c-50.11739,-16.22177 -66.70174,-16.22177 -108.23992,0z" fill="#548235" fill-rule="evenodd" stroke="#000000" stroke-miterlimit="8"/><path d="M47.45433,219.87718c29.80064,-23.46798 40.36869,-62.08954 48.07701,-62.56232c9.7878,0.47277 7.10047,26.55344 48.07701,62.56232c-43.22665,-11.4976 -58.90455,-10.97507 -96.15402,0z" fill="#548235" fill-rule="evenodd" stroke="#000000" stroke-miterlimit="8"/><path d="M55.09689,181.84211c23.62083,-21.78128 26.42369,-41.47064 39.63465,-62.20685c13.21096,20.73621 2.74243,21.59644 39.63465,62.20685c-39.69508,-13.59842 -30.20765,-15.16781 -79.2693,0z" fill="#548235" fill-rule="evenodd" stroke="#000000" stroke-miterlimit="8"/><path d="M63.45038,146.65082c28.41076,-29.06873 23.21026,-31.47631 31.5602,-48.52134c7.30664,19.13625 10.44364,30.42981 32.60172,48.52134c-29.72421,-11.50116 -33.13492,-12.0237 -64.16192,0z" fill="#548235" fill-rule="evenodd" stroke="#000000" stroke-miterlimit="8"/><path d="M81.22377,300.05291l9.36453,-37.8742" fill="none" fill-rule="evenodd" stroke="#000000" stroke-miterlimit="8"/><path d="M94.59292,266.977l-1.99419,33.23765" fill="none" fill-rule="evenodd" stroke="#000000" stroke-miterlimit="8"/><path d="M108.11134,300.09558l-8.04779,-34.5408" fill="none" fill-rule="evenodd" stroke="#000000" stroke-miterlimit="8"/><path d="M77.9308,244.0498l-14.48042,3.40456" fill="none" fill-rule="evenodd" stroke="#000000" stroke-miterlimit="8"/><path d="M74.54913,234.62899l-11.09875,13.05286" fill="none" fill-rule="evenodd" stroke="#000000" stroke-miterlimit="8"/><path d="M67.18279,207.19232l10.74931,-3.84389" fill="none" fill-rule="evenodd" stroke="#000000" stroke-miterlimit="8"/><path d="M74.55043,198.19351l-7.36764,9.21918" fill="none" fill-rule="evenodd" stroke="#000000" stroke-miterlimit="8"/><path d="M79.74833,168.15608l-9.18859,3.54101" fill="none" fill-rule="evenodd" stroke="#000000" stroke-miterlimit="8"/><path d="M70.55973,171.95657l6.06707,-6.99939" fill="none" fill-rule="evenodd" stroke="#000000" stroke-miterlimit="8"/><path d="M88.81275,132.25383l-9.18859,3.54101" fill="none" fill-rule="evenodd" stroke="#000000" stroke-miterlimit="8"/><path d="M79.62416,136.05433l6.06707,-6.99939" fill="none" fill-rule="evenodd" stroke="#000000" stroke-miterlimit="8"/><path d="M118.19241,249.55872l14.47998,3.40538" fill="none" fill-rule="evenodd" stroke="#000000" stroke-miterlimit="8"/><path d="M121.74708,240.13883l11.09948,13.05277" fill="none" fill-rule="evenodd" stroke="#000000" stroke-miterlimit="8"/><path d="M119.79202,208.14675l10.74934,3.84438" fill="none" fill-rule="evenodd" stroke="#000000" stroke-miterlimit="8"/><path d="M130.53602,212.21152l-7.36707,-9.21906" fill="none" fill-rule="evenodd" stroke="#000000" stroke-miterlimit="8"/><path d="M121.69376,172.76348l-9.18884,-3.54046" fill="none" fill-rule="evenodd" stroke="#000000" stroke-miterlimit="8"/><path d="M121.59423,172.84525l-6.06783,-6.99916" fill="none" fill-rule="evenodd" stroke="#000000" stroke-miterlimit="8"/><path d="M111.56293,134.72842l-9.18884,-3.54046" fill="none" fill-rule="evenodd" stroke="#000000" stroke-miterlimit="8"/><path d="M105.57331,127.98876l6.06783,6.99916" fill="none" fill-rule="evenodd" stroke="#000000" stroke-miterlimit="8"/><path d="M82.64741,232.89085l9.86397,-4.73469" fill="none" fill-rule="evenodd" stroke="#000000" stroke-miterlimit="8"/><path d="M88.63937,223.40722l-5.95641,9.61515" fill="none" fill-rule="evenodd" stroke="#000000" stroke-miterlimit="8"/><path d="M101.12288,221.90715l11.07279,18.58004" fill="none" fill-rule="evenodd" stroke="#000000" stroke-miterlimit="8"/><path d="M112.2561,240.4552l-11.20708,-12.78685" fill="none" fill-rule="evenodd" stroke="#000000" stroke-miterlimit="8"/><path d="M93.37367,184.28383l-7.85052,8.28808" fill="none" fill-rule="evenodd" stroke="#000000" stroke-miterlimit="8"/><path d="M88.03037,181.22229l-2.40414,11.55402" fill="none" fill-rule="evenodd" stroke="#000000" stroke-miterlimit="8"/><path d="M98.17958,185.81981l7.8505,8.28773" fill="none" fill-rule="evenodd" stroke="#000000" stroke-miterlimit="8"/><path d="M103.52403,182.75745l2.40296,11.55448" fill="none" fill-rule="evenodd" stroke="#000000" stroke-miterlimit="8"/><path d="M92.7229,151.09362l-9.18859,3.54101" fill="none" fill-rule="evenodd" stroke="#000000" stroke-miterlimit="8"/><path d="M83.53431,154.71638l6.06707,-6.99939" fill="none" fill-rule="evenodd" stroke="#000000" stroke-miterlimit="8"/><path d="M106.55795,161.68533l-7.40497,-17.00357" fill="none" fill-rule="evenodd" stroke="#000000" stroke-miterlimit="8"/><path d="M106.66459,161.64978l-7.09473,-10.50713" fill="none" fill-rule="evenodd" stroke="#000000" stroke-miterlimit="8"/><path d="M96.28849,110.7756l-3.07601,18.28917" fill="none" fill-rule="evenodd" stroke="#000000" stroke-miterlimit="8"/><path d="M96.18007,110.74627l0.20986,12.6764" fill="none" fill-rule="evenodd" stroke="#000000" stroke-miterlimit="8"/><path d="M265.769,252.047c26.32949,-70.60122 14.18316,-63.86511 21.27474,-95.79855h13.25895c7.09158,31.93344 1.70447,70.13556 21.27474,95.79855z" fill="#843c0c" fill-rule="evenodd" stroke="#000000" stroke-miterlimit="8"/><path d="M240.35306,206.19166c32.3369,-36.07997 36.07997,-53.32016 54.11996,-79.98023c18.03999,26.66008 18.66383,43.90026 54.11996,79.98023c-50.11739,-16.22177 -66.70174,-16.22177 -108.23992,0z" fill="#548235" fill-rule="evenodd" stroke="#000000" stroke-miterlimit="8"/><path d="M246.39601,161.7582c29.80064,-23.46798 40.36869,-62.08954 48.07701,-62.56232c9.7878,0.47277 7.10047,26.55344 48.07701,62.56232c-43.22665,-11.4976 -58.90455,-10.97507 -96.15402,0z" fill="#548235" fill-rule="evenodd" stroke="#000000" stroke-miterlimit="8"/><path d="M254.03857,123.72313c23.62083,-21.78128 26.42369,-41.47064 39.63465,-62.20685c13.21096,20.73621 2.74243,21.59644 39.63465,62.20685c-39.69508,-13.59842 -30.20765,-15.16781 -79.2693,0z" fill="#548235" fill-rule="evenodd" stroke="#000000" stroke-miterlimit="8"/><path d="M262.39206,88.53184c28.41076,-29.06873 23.21026,-31.47631 31.5602,-48.52134c7.30664,19.13625 10.44364,30.42981 32.60172,48.52134c-29.72421,-11.50116 -33.13492,-12.0237 -64.16192,0z" fill="#548235" fill-rule="evenodd" stroke="#000000" stroke-miterlimit="8"/><path d="M280.16545,241.93393l9.36453,-37.8742" fill="none" fill-rule="evenodd" stroke="#000000" stroke-miterlimit="8"/><path d="M293.5346,208.85802l-1.99419,33.23765" fill="none" fill-rule="evenodd" stroke="#000000" stroke-miterlimit="8"/><path d="M307.05302,241.9766l-8.04779,-34.5408" fill="none" fill-rule="evenodd" stroke="#000000" stroke-miterlimit="8"/><path d="M276.87248,185.93082l-14.48042,3.40456" fill="none" fill-rule="evenodd" stroke="#000000" stroke-miterlimit="8"/><path d="M273.49081,176.51001l-11.09875,13.05286" fill="none" fill-rule="evenodd" stroke="#000000" stroke-miterlimit="8"/><path d="M266.12447,149.07333l10.74931,-3.84389" fill="none" fill-rule="evenodd" stroke="#000000" stroke-miterlimit="8"/><path d="M266.12447,149.2937l7.36764,-9.21918" fill="none" fill-rule="evenodd" stroke="#000000" stroke-miterlimit="8"/><path d="M278.69001,110.0371l-9.18859,3.54101" fill="none" fill-rule="evenodd" stroke="#000000" stroke-miterlimit="8"/><path d="M269.50141,113.83759l6.06707,-6.99939" fill="none" fill-rule="evenodd" stroke="#000000" stroke-miterlimit="8"/><path d="M287.75443,74.13485l-9.18859,3.54101" fill="none" fill-rule="evenodd" stroke="#000000" stroke-miterlimit="8"/><path d="M278.56584,77.93535l6.06707,-6.99939" fill="none" fill-rule="evenodd" stroke="#000000" stroke-miterlimit="8"/><path d="M317.13409,191.43974l14.47998,3.40538" fill="none" fill-rule="evenodd" stroke="#000000" stroke-miterlimit="8"/><path d="M331.78824,195.07262l-11.09948,-13.05277" fill="none" fill-rule="evenodd" stroke="#000000" stroke-miterlimit="8"/><path d="M318.7337,150.02776l10.74934,3.84438" fill="none" fill-rule="evenodd" stroke="#000000" stroke-miterlimit="8"/><path d="M322.11063,144.87348l7.36707,9.21906" fill="none" fill-rule="evenodd" stroke="#000000" stroke-miterlimit="8"/><path d="M311.4466,111.10404l9.18884,3.54046" fill="none" fill-rule="evenodd" stroke="#000000" stroke-miterlimit="8"/><path d="M320.53591,114.72627l-6.06783,-6.99916" fill="none" fill-rule="evenodd" stroke="#000000" stroke-miterlimit="8"/><path d="M301.31577,73.06899l9.18884,3.54046" fill="none" fill-rule="evenodd" stroke="#000000" stroke-miterlimit="8"/><path d="M310.58282,76.86893l-6.06783,-6.99916" fill="none" fill-rule="evenodd" stroke="#000000" stroke-miterlimit="8"/><path d="M291.45306,170.03718l-9.86397,4.73469" fill="none" fill-rule="evenodd" stroke="#000000" stroke-miterlimit="8"/><path d="M287.58105,165.28823l-5.95641,9.61515" fill="none" fill-rule="evenodd" stroke="#000000" stroke-miterlimit="8"/><path d="M311.13735,182.36821l-11.07279,-18.58004" fill="none" fill-rule="evenodd" stroke="#000000" stroke-miterlimit="8"/><path d="M311.19778,182.33622l-11.20708,-12.78685" fill="none" fill-rule="evenodd" stroke="#000000" stroke-miterlimit="8"/><path d="M292.31535,126.16485l-7.85052,8.28808" fill="none" fill-rule="evenodd" stroke="#000000" stroke-miterlimit="8"/><path d="M284.56791,134.65732l2.40414,-11.55402" fill="none" fill-rule="evenodd" stroke="#000000" stroke-miterlimit="8"/><path d="M297.12126,127.70083l7.8505,8.28773" fill="none" fill-rule="evenodd" stroke="#000000" stroke-miterlimit="8"/><path d="M302.46571,124.63847l2.40296,11.55448" fill="none" fill-rule="evenodd" stroke="#000000" stroke-miterlimit="8"/><path d="M282.47599,96.51565l9.18859,-3.54101" fill="none" fill-rule="evenodd" stroke="#000000" stroke-miterlimit="8"/><path d="M282.47599,96.5974l6.06707,-6.99939" fill="none" fill-rule="evenodd" stroke="#000000" stroke-miterlimit="8"/><path d="M298.09466,86.56278l7.40497,17.00357" fill="none" fill-rule="evenodd" stroke="#000000" stroke-miterlimit="8"/><path d="M305.60627,103.5308l-7.09473,-10.50713" fill="none" fill-rule="evenodd" stroke="#000000" stroke-miterlimit="8"/><path d="M292.15416,70.94579l3.07601,-18.28917" fill="none" fill-rule="evenodd" stroke="#000000" stroke-miterlimit="8"/><path d="M295.12175,52.62729l0.20986,12.6764" fill="none" fill-rule="evenodd" stroke="#000000" stroke-miterlimit="8"/><path d="M-3.35676,317.91269c67.06503,-96.03493 177.22198,-269.77546 200.54244,-270.51093c27.89,0.24669 134.78269,174.47599 201.84701,270.51093z" fill="#8faadc" fill-rule="evenodd" stroke="#000000" stroke-miterlimit="8"/><path d="M205.18014,153.61018c-5.86522,15.26734 -27.40656,22.90812 -48.11362,17.06423c-7.65802,-2.16124 -14.46807,-6.00029 -19.51464,-10.99817l30.13353,-16.64655z" fill="#dae3f3" fill-rule="evenodd" stroke="none" stroke-miterlimit="10"/><path d="M205.18014,153.61018c-5.86522,15.26734 -27.40656,22.90812 -48.11362,17.06423c-7.65802,-2.16124 -14.46807,-6.00029 -19.51464,-10.99817" fill="none" fill-rule="evenodd" stroke="#000000" stroke-miterlimit="8"/><path d="M112.08137,149.6005c27.39376,-39.24986 71.36903,-102.01052 85.58596,-101.3945c15.67613,-0.20457 61.37683,64.58902 88.77095,103.84012c-40.41135,-0.67539 -48.79861,2.62335 -89.41257,4.85036c-40.41703,5.97008 -54.31813,-4.10032 -84.94434,-7.29597z" fill="#dae3f3" fill-rule="evenodd" stroke="none" stroke-miterlimit="10"/><path d="M162.20942,155.22934c-16.66948,7.24265 -37.67033,5.23782 -51.43991,-4.90723l30.01587,-23.29558z" fill="#dae3f3" fill-rule="evenodd" stroke="none" stroke-miterlimit="10"/><path d="M162.20942,155.22934c-16.66948,7.24265 -37.67033,5.23782 -51.43991,-4.90723" fill="none" fill-rule="evenodd" stroke="#000000" stroke-miterlimit="8"/><path d="M267.8857,197.76507l-143.2741,8.12375" fill="none" fill-rule="evenodd" stroke="#000000" stroke-miterlimit="8"/><path d="M115.36945,240.59668l116.40608,-21.14855" fill="none" fill-rule="evenodd" stroke="#000000" stroke-miterlimit="8"/><path d="M230.18551,261.21558l112.82367,42.57614" fill="none" fill-rule="evenodd" stroke="#000000" stroke-miterlimit="8"/><path d="M67.02582,280.58859l200.72373,15.72945" fill="none" fill-rule="evenodd" stroke="#000000" stroke-miterlimit="8"/><path d="M243.62574,145.34379c-5.90965,15.58015 -27.58074,24.62503 -48.40226,20.20301c-5.3018,-1.12683 -10.22503,-3.07657 -14.45154,-5.72303l25.1529,-22.48866z" fill="#dae3f3" fill-rule="evenodd" stroke="none" stroke-miterlimit="10"/><path d="M243.62574,145.34378c-5.90965,15.58015 -27.58074,24.62503 -48.40226,20.20301c-5.3018,-1.12683 -10.22503,-3.07657 -14.45154,-5.72303" fill="none" fill-rule="evenodd" stroke="#000000" stroke-miterlimit="8"/><path d="M287.34827,152.41936c-16.37995,10.58761 -41.12761,9.2315 -55.27523,-3.02503c-0.59719,-0.51721 -1.16949,-1.05041 -1.71691,-1.59783l31.37713,-17.57077z" fill="#dae3f3" fill-rule="evenodd" stroke="none" stroke-miterlimit="10"/><path d="M287.34827,152.41936c-16.37995,10.58761 -41.12761,9.2315 -55.27523,-3.02503c-0.59719,-0.51721 -1.16949,-1.05041 -1.71691,-1.59783" fill="none" fill-rule="evenodd" stroke="#000000" stroke-miterlimit="8"/><path d="M192.8256,318.71393c51.49367,-98.49053 136.07453,-276.67358 153.97975,-277.42785c21.4159,0.253 103.48861,178.93732 154.98228,277.42785z" fill="#8faadc" fill-rule="evenodd" stroke="#000000" stroke-miterlimit="8"/><path d="M363.73903,160.63108c-12.75767,10.63595 -31.72375,8.91524 -42.3597,-3.84425c-0.2242,-0.26795 -0.44294,-0.54137 -0.65803,-0.81661l23.76,-18.44111z" fill="#dae3f3" fill-rule="evenodd" stroke="none" stroke-miterlimit="10"/><path d="M363.73903,160.63107c-12.75767,10.63595 -31.72375,8.91524 -42.3597,-3.84425c-0.2242,-0.26795 -0.44294,-0.54137 -0.65803,-0.81661" fill="none" fill-rule="evenodd" stroke="#000000" stroke-miterlimit="8"/><path d="M397.27826,156.62095c-12.4478,10.37529 -30.87797,9.02461 -41.67797,-3.05499l22.42025,-20.04699z" fill="#dae3f3" fill-rule="evenodd" stroke="none" stroke-miterlimit="10"/><path d="M397.27826,156.62096c-12.4478,10.37529 -30.87797,9.02461 -41.67797,-3.05499" fill="none" fill-rule="evenodd" stroke="#000000" stroke-miterlimit="8"/><path d="M416.41751,149.51208c-7.64658,6.37428 -17.95078,8.55068 -27.52223,5.81651l8.26451,-28.91848z" fill="#dae3f3" fill-rule="evenodd" stroke="none" stroke-miterlimit="10"/><path d="M416.41751,149.51208c-7.64658,6.37428 -17.95078,8.55068 -27.52223,5.81651" fill="none" fill-rule="evenodd" stroke="#000000" stroke-miterlimit="8"/><path d="M281.50408,146.09802c21.04952,-40.25347 54.8403,-104.61892 65.76425,-103.98714c12.04496,-0.2098 47.16091,66.24055 68.21043,106.49529c-31.05114,-0.69266 -37.49651,2.69043 -68.70441,4.97438c-31.05661,6.12273 -41.73813,-4.20516 -65.27028,-7.48253z" fill="#dae3f3" fill-rule="evenodd" stroke="none" stroke-miterlimit="10"/><path d="M326.95705,152.16242c-14.4802,11.18278 -35.20527,8.43949 -46.33154,-6.13367l26.21529,-20.34775z" fill="#dae3f3" fill-rule="evenodd" stroke="none" stroke-miterlimit="10"/><path d="M326.95705,152.16242c-14.4802,11.18278 -35.20527,8.43949 -46.33154,-6.13367" fill="none" fill-rule="evenodd" stroke="#000000" stroke-miterlimit="8"/><path d="M257.71675,294.77709l39.1279,-102.1999" fill="none" fill-rule="evenodd" stroke="#000000" stroke-miterlimit="8"/><path d="M306.83898,198.22728l-19.95767,75.32166" fill="none" fill-rule="evenodd" stroke="#000000" stroke-miterlimit="8"/><path d="M466.60789,290.39696l-30.07595,-33.47544" fill="none" fill-rule="evenodd" stroke="#000000" stroke-miterlimit="8"/><path d="M397.15979,228.48608l59.33529,66.2163" fill="none" fill-rule="evenodd" stroke="#000000" stroke-miterlimit="8"/><path d="M422.8659,317.94032c26.32949,-70.60122 14.18316,-63.86511 21.27474,-95.79855h13.25895c7.09158,31.93344 1.70447,70.13556 21.27474,95.79855z" fill="#843c0c" fill-rule="evenodd" stroke="#000000" stroke-miterlimit="8"/><path d="M425.24495,217.29683c2.96071,5.72588 1.07822,8.91473 -3.26939,11.07375c-4.3476,2.15903 -6.71778,-0.73764 -8.92982,-5.01561c-2.21204,-4.27798 -6.07446,-13.56055 -0.75847,-16.20048c5.316,-2.63994 9.99696,4.41647 12.95767,10.14235z" fill="#546381" fill-rule="nonzero" stroke="#000000" stroke-miterlimit="10"/><path d="M397.44996,272.08499c32.3369,-36.07997 36.07997,-53.32016 54.11996,-79.98023c18.03999,26.66008 18.66383,43.90026 54.11996,79.98023c-50.11739,-16.22177 -66.70174,-16.22177 -108.23992,0z" fill="#548235" fill-rule="evenodd" stroke="#000000" stroke-miterlimit="8"/><path d="M403.49291,227.65153c29.80064,-23.46798 40.36869,-62.08954 48.07701,-62.56232c9.7878,0.47277 7.10047,26.55344 48.07701,62.56232c-43.22665,-11.4976 -58.90455,-10.97507 -96.15402,0z" fill="#548235" fill-rule="evenodd" stroke="#000000" stroke-miterlimit="8"/><path d="M411.13547,189.61646c23.62083,-21.78128 26.42369,-41.47064 39.63465,-62.20685c13.21096,20.73621 2.74243,21.59644 39.63465,62.20685c-39.69508,-13.59842 -30.20765,-15.16781 -79.2693,0z" fill="#548235" fill-rule="evenodd" stroke="#000000" stroke-miterlimit="8"/><path d="M419.48896,154.42517c28.41076,-29.06873 23.21026,-31.47631 31.5602,-48.52134c7.30664,19.13625 10.44364,30.42981 32.60172,48.52134c-29.72421,-11.50116 -33.13492,-12.0237 -64.16192,0z" fill="#548235" fill-rule="evenodd" stroke="#000000" stroke-miterlimit="8"/><path d="M437.26235,307.82725l9.36453,-37.8742" fill="none" fill-rule="evenodd" stroke="#000000" stroke-miterlimit="8"/><path d="M450.6315,274.75135l-1.99419,33.23765" fill="none" fill-rule="evenodd" stroke="#000000" stroke-miterlimit="8"/><path d="M464.14992,307.86993l-8.04779,-34.5408" fill="none" fill-rule="evenodd" stroke="#000000" stroke-miterlimit="8"/><path d="M433.96938,251.82415l-14.48042,3.40456" fill="none" fill-rule="evenodd" stroke="#000000" stroke-miterlimit="8"/><path d="M430.58771,242.40334l-11.09875,13.05286" fill="none" fill-rule="evenodd" stroke="#000000" stroke-miterlimit="8"/><path d="M433.97068,211.12278l-10.74931,3.84389" fill="none" fill-rule="evenodd" stroke="#000000" stroke-miterlimit="8"/><path d="M430.58901,205.96786l-7.36764,9.21918" fill="none" fill-rule="evenodd" stroke="#000000" stroke-miterlimit="8"/><path d="M426.59832,179.47144l9.18859,-3.54101" fill="none" fill-rule="evenodd" stroke="#000000" stroke-miterlimit="8"/><path d="M432.66538,172.73153l-6.06707,6.99939" fill="none" fill-rule="evenodd" stroke="#000000" stroke-miterlimit="8"/><path d="M444.85133,140.02818l-9.18859,3.54101" fill="none" fill-rule="evenodd" stroke="#000000" stroke-miterlimit="8"/><path d="M435.66274,143.82868l6.06707,-6.99939" fill="none" fill-rule="evenodd" stroke="#000000" stroke-miterlimit="8"/><path d="M474.23099,257.33306l14.47998,3.40538" fill="none" fill-rule="evenodd" stroke="#000000" stroke-miterlimit="8"/><path d="M488.88514,260.96594l-11.09948,-13.05277" fill="none" fill-rule="evenodd" stroke="#000000" stroke-miterlimit="8"/><path d="M486.57994,219.76548l-10.74934,-3.84438" fill="none" fill-rule="evenodd" stroke="#000000" stroke-miterlimit="8"/><path d="M486.5746,219.98587l-7.36707,-9.21906" fill="none" fill-rule="evenodd" stroke="#000000" stroke-miterlimit="8"/><path d="M468.5435,176.99737l9.18884,3.54046" fill="none" fill-rule="evenodd" stroke="#000000" stroke-miterlimit="8"/><path d="M477.63281,180.6196l-6.06783,-6.99916" fill="none" fill-rule="evenodd" stroke="#000000" stroke-miterlimit="8"/><path d="M467.60151,142.50278l-9.18884,-3.54046" fill="none" fill-rule="evenodd" stroke="#000000" stroke-miterlimit="8"/><path d="M461.61189,135.76311l6.06783,6.99916" fill="none" fill-rule="evenodd" stroke="#000000" stroke-miterlimit="8"/><path d="M438.68599,240.6652l9.86397,-4.73469" fill="none" fill-rule="evenodd" stroke="#000000" stroke-miterlimit="8"/><path d="M438.72154,240.79672l5.95641,-9.61515" fill="none" fill-rule="evenodd" stroke="#000000" stroke-miterlimit="8"/><path d="M468.23425,248.26154l-11.07279,-18.58004" fill="none" fill-rule="evenodd" stroke="#000000" stroke-miterlimit="8"/><path d="M468.29468,248.22955l-11.20708,-12.78685" fill="none" fill-rule="evenodd" stroke="#000000" stroke-miterlimit="8"/><path d="M449.41225,192.05818l-7.85052,8.28808" fill="none" fill-rule="evenodd" stroke="#000000" stroke-miterlimit="8"/><path d="M444.06895,188.99664l-2.40414,11.55402" fill="none" fill-rule="evenodd" stroke="#000000" stroke-miterlimit="8"/><path d="M454.21816,193.59416l7.8505,8.28773" fill="none" fill-rule="evenodd" stroke="#000000" stroke-miterlimit="8"/><path d="M459.56261,190.5318l2.40296,11.55448" fill="none" fill-rule="evenodd" stroke="#000000" stroke-miterlimit="8"/><path d="M448.76148,158.86797l-9.18859,3.54101" fill="none" fill-rule="evenodd" stroke="#000000" stroke-miterlimit="8"/><path d="M445.63996,155.49134l-6.06707,6.99939" fill="none" fill-rule="evenodd" stroke="#000000" stroke-miterlimit="8"/><path d="M455.19156,152.45611l7.40497,17.00357" fill="none" fill-rule="evenodd" stroke="#000000" stroke-miterlimit="8"/><path d="M462.70317,169.42413l-7.09473,-10.50713" fill="none" fill-rule="evenodd" stroke="#000000" stroke-miterlimit="8"/><path d="M449.25106,136.83912l3.07601,-18.28917" fill="none" fill-rule="evenodd" stroke="#000000" stroke-miterlimit="8"/><path d="M452.42851,131.19702l-0.20986,-12.6764" fill="none" fill-rule="evenodd" stroke="#000000" stroke-miterlimit="8"/><path d="M244.98549,268.86246c-4.80289,0.70378 -8.50125,-22.31437 -2.62856,-23.1749c5.8727,-0.86053 12.25968,0.92327 13.29802,7.28515c0,0 -5.86657,15.18599 -10.66945,15.88976z" fill="#546381" fill-rule="nonzero" stroke="#000000" stroke-miterlimit="10"/><path d="M387.56043,294.26473c1.03834,6.36187 -36.24917,3.55808 -41.05206,4.26185c-4.80289,0.70378 -5.40733,-15.91354 -6.18311,-20.66669c-0.77576,-4.75315 21.31277,-8.39938 27.18545,-9.25991c5.8727,-0.86054 20.51174,2.04856 21.55008,8.41043z" fill="#546381" fill-rule="nonzero" stroke="#000000" stroke-miterlimit="10"/><path d="M336.67146,216.58485c1.03834,6.36187 1.6353,19.31203 -3.16759,20.01579c-4.80289,0.70378 -9.53337,-13.28789 -10.30914,-18.04103c-0.77576,-4.75314 -1.56795,-14.77597 4.30473,-15.6365c5.8727,-0.86053 8.13365,7.29987 9.17199,13.66174z" fill="#546381" fill-rule="nonzero" stroke="#000000" stroke-miterlimit="10"/><path d="M301.20072,285.39527c6.36187,-1.03834 8.80939,1.74054 9.51317,6.54343c0.70378,4.80289 -2.78526,6.15752 -7.53841,6.9333c-4.75315,0.77576 -14.77597,1.56795 -15.6365,-4.30474c-0.86054,-5.8727 7.29987,-8.13365 13.66174,-9.17198z" fill="#546381" fill-rule="nonzero" stroke="#000000" stroke-miterlimit="10"/><path d="M189.36959,268.29309c-10.67067,1.74158 -14.77586,-2.9194 -15.95629,-10.97521c-1.18044,-8.05581 4.67168,-10.32792 12.64406,-11.62912c7.97238,-1.30118 24.78352,-2.62991 26.22687,7.22027c1.44337,9.8502 -12.24397,13.64245 -22.91464,15.38404z" fill="#546381" fill-rule="nonzero" stroke="#000000" stroke-miterlimit="10"/><path d="M129.53305,267.96895c1.03833,6.36187 -1.74054,8.80939 -6.54344,9.51317c-4.80289,0.70378 -6.15752,-2.78526 -6.9333,-7.53841c-0.77577,-4.75315 -1.56796,-14.77597 4.30473,-15.6365c5.8727,-0.86053 8.13365,7.29987 9.17199,13.66174z" fill="#546381" fill-rule="nonzero" stroke="#000000" stroke-miterlimit="10"/><path d="M42.24157,298.62667c-3.76431,5.23273 -7.45994,4.99843 -11.35373,2.09992c-3.89381,-2.89851 -2.38455,-6.3235 0.42788,-10.23304c2.81243,-3.90953 9.33948,-11.55689 14.10058,-8.01277c4.76111,3.54413 0.58958,10.91314 -3.17473,16.14588z" fill="#546381" fill-rule="nonzero" stroke="#000000" stroke-miterlimit="10"/><path d="M110.01517,200.10232c-3.26999,5.55506 -11.84777,34.91703 -15.99033,32.38676c-0.8289,-0.50628 -5.94542,-4.80428 -6.38002,-5.38878c-1.73739,-2.33664 8.79223,-30.77792 10.74649,-34.09782c2.44311,-4.15035 8.24343,-12.36258 13.30871,-9.26872c5.06529,3.09387 1.58513,10.8135 -1.68486,16.36856z" fill="#546381" fill-rule="nonzero" stroke="#000000" stroke-miterlimit="10"/></g></g></svg>