<svg version="1.1" xmlns="http://www.w3.org/2000/svg" xmlns:xlink="http://www.w3.org/1999/xlink" width="75.17352" height="52.95803" viewBox="0,0,75.17352,52.95803"><g transform="translate(-202.41333,-153.53257)"><g fill-rule="evenodd"><path d="M263.5696,187.74723c-0.47083,-0.02299 -0.43684,0.21793 -0.59679,0.69976c-0.13795,0.45783 -0.45884,1.32952 -0.68876,1.92531c-0.22892,0.59679 -0.36687,1.19258 -0.22892,1.28454c0.32088,0.32089 9.13174,-1.19258 9.59058,-1.65141c0.18293,-0.18293 0.09197,-0.36686 -0.22992,-0.36686c-0.32088,-0.04599 -2.24819,-0.45784 -4.22149,-1.00865c-2.17922,-0.5728 -3.15488,-0.8597 -3.62471,-0.88269zM253.20231,169.75416c-4.1885,0.59538 -7.41535,5.24663 -6.79557,11.26448c0.5508,5.22714 4.31346,9.39965 8.44398,9.39965c1.88133,0 4.86427,-2.01728 6.01086,-4.03456l1.05562,-1.88033l1.51446,1.05463c2.11025,1.42149 6.51567,2.38414 7.43334,1.60442c2.93695,-2.43014 3.67169,-9.49061 1.46848,-13.29625c-1.55944,-2.66005 -3.02792,-3.6227 -5.50603,-3.6227c-2.34017,0 -3.76266,0.87069 -4.7723,2.88897l-0.78072,1.42149l-1.33053,-1.6974c-0.77972,-0.96266 -1.83534,-1.9713 -2.34016,-2.2462c-1.50246,-0.80251 -3.00593,-1.05463 -4.40143,-0.8562zM247.41637,164.6037c-6.28675,-0.04588 -9.17772,0.68775 -15.60242,3.94319c-2.68404,1.41 -6.63363,4.52258 -8.43999,6.51287l-0.41785,0.52281l0.10396,-0.03299c2.65305,-0.70874 5.19115,-1.00464 5.90389,0.36587c0.17793,0.34288 0.29989,0.86969 0.37087,1.53145c0.00899,0.32588 0.01899,0.65177 0.02799,0.97765l0.42685,0.14095c2.03627,0.8257 3.81464,1.85734 4.31946,2.68204c0.41285,0.68776 -0.04598,0.5508 -2.61606,-0.73274l-2.09126,-0.76472c0.001,0.01399 0.001,0.02698 0.001,0.04098c-0.13795,5.30211 -1.84734,13.71411 -3.69368,14.65977c-0.92267,0.47283 -2.5181,-0.59679 -4.24748,-2.2512l-0.2759,-0.28589l-0.004,0.001c-0.97465,0.09396 -0.99964,0.29189 -0.79372,0.97965c1.05562,3.53074 4.31346,7.01549 8.26005,8.84984c4.40543,2.01728 8.35202,2.5211 16.93295,2.29218c10.73816,-0.32089 15.09661,-1.74238 19.22713,-6.32774c1.83535,-2.06326 3.02892,-4.30947 2.5241,-4.72232c-0.09197,-0.09196 -1.83535,0.13695 -3.80864,0.50382c-1.9733,0.32089 -3.71767,0.50482 -3.80864,0.41285c-0.09197,-0.09196 0.13695,-1.28355 0.50382,-2.56808c0.68876,-2.29218 0.68876,-2.38414 -0.09096,-1.74237c-6.1498,5.41107 -14.54681,0.22992 -15.1436,-9.2617c-0.18393,-2.88897 -0.04599,-3.89761 0.8257,-5.86891c1.28554,-2.93495 3.71768,-5.18144 7.34238,-6.83205c1.51446,-0.64197 2.70803,-1.4214 2.61606,-1.6966c-0.2759,-0.87119 -2.89097,-1.28384 -8.35202,-1.32962zM254.25391,153.78257c0.66476,0.08017 1.56045,0.36677 2.47812,0.8253c3.90061,2.01748 6.51567,6.28176 6.51567,10.6377c0,1.28384 0.2759,1.87993 1.14759,2.43013c0.59679,0.41275 1.42249,0.73364 1.78936,0.73364c1.51446,0 5.82793,2.33897 6.24078,3.43857c0.22992,0.5508 0.59678,1.19258 0.87168,1.33052c0.82671,0.50382 1.9733,5.50204 1.79036,7.61128c-0.22992,2.10924 -1.37751,5.13517 -2.5241,6.4647c-0.55081,0.64177 -0.50482,0.8257 0.18293,1.10061c0.45983,0.22892 0.91868,0.41285 1.05563,0.41285c0.13795,0.04599 0.50482,0.22892 0.8267,0.45884c0.32088,0.18293 1.14659,0.22891 1.78936,0.04498c1.00964,-0.22892 1.10161,-0.18293 0.68775,0.36688c-0.32088,0.32089 -1.74337,0.91767 -3.16587,1.23855c-3.48775,0.8247 -5.18515,1.69639 -5.18515,2.65905c0,1.19258 -2.34017,4.67733 -4.17651,6.28175c-3.11989,2.70504 -7.25041,4.35645 -13.49118,5.27312c-3.21186,0.50482 -16.795,0.50482 -16.5191,0c0.2749,-0.45883 -1.42249,-0.91667 -3.57972,-0.91667c-1.05562,0 -2.2482,0.36687 -3.11989,1.00864c-1.60643,1.19158 -5.3231,1.42149 -7.61828,0.45784c-1.9733,-0.87069 -1.55945,-2.10825 0.50482,-1.65041c2.24919,0.50482 5.87391,0.32088 6.28676,-0.36687c0.41285,-0.68776 -0.64177,-2.01728 -1.83534,-2.33817c-0.45883,-0.09196 -1.65141,0.09197 -2.61507,0.45884c-0.96365,0.36687 -3.25884,0.73374 -5.0482,0.87069c-2.66105,0.18393 -3.3498,0.09197 -3.57972,-0.50382c-0.64177,-1.6974 0.09196,-2.01828 3.76366,-1.78836c3.99158,0.2749 5.27711,-0.18393 4.35944,-1.51346c-0.32189,-0.45883 -1.14759,-2.01728 -1.83634,-3.43877c-1.46848,-3.0719 -1.88133,-3.16387 -5.27712,-1.46748l-2.38615,1.19258l0.82671,-1.23856c0.45883,-0.68776 0.59578,-1.1006 0.32088,-0.96265c-0.2759,0.18293 -0.50482,0.22892 -0.50482,0.04599c0,-0.13795 0.5508,-0.45884 1.19258,-0.68776c0.64277,-0.2749 1.05562,-0.64177 0.87269,-0.87169c-0.2759,-0.45783 -3.30382,0.73374 -7.57229,2.98094c-1.33052,0.68776 -2.5231,1.05462 -2.70704,0.8247c-0.22992,-0.22892 -0.77972,-1.55844 -1.28454,-2.97994l-0.91767,-2.5221l1.19258,-0.5498c0.64277,-0.32089 1.18558,-0.38187 1.9733,-0.55081c0.78772,-0.16794 1.6974,-0.18294 2.75302,-0.45784c-0.14894,-0.33488 -0.22092,-0.64077 -0.44584,-1.00364c-0.22592,-0.36287 -0.17894,-0.63977 -0.90768,-1.17458c-0.72874,-0.53481 -2.69504,-1.65241 -3.46376,-2.03427c-0.76872,-0.38287 -0.62177,-0.67776 -0.80271,-1.29054c-0.17994,-0.61278 -0.72174,-1.6784 -0.2789,-2.38715l7.75323,0.12995c0.49083,0.19293 2.25719,-0.23692 3.53374,-0.34988l6.4517,-3.76565l3.44177,-3.3478c1.92731,-1.83335 3.71667,-3.43857 4.03756,-3.57612c0.32189,-0.13755 1.37651,-0.77953 2.38614,-1.4214c1.00964,-0.64197 2.66205,-1.46727 3.67169,-1.83414c1.00964,-0.32089 2.01828,-0.77943 2.29418,-0.96286c0.22892,-0.18344 0.87169,-0.36676 1.42249,-0.36676c0.59679,0 1.14759,-0.18344 1.28454,-0.41276c0.68875,-1.1004 11.28897,-1.51306 14.73074,-0.59599c1.6974,0.45844 1.74338,0.45844 0.91767,-0.18344c-0.50482,-0.36687 -1.78937,-0.91707 -2.84499,-1.23806c-1.10161,-0.2751 -1.9733,-0.68775 -1.9733,-0.87119c0,-0.18333 -0.73474,-0.36677 -1.65241,-0.36677c-1.83534,0 -5.23113,-0.87119 -5.23113,-1.37561c0,-0.73364 4.72632,-1.92571 6.51668,-1.65061c2.11024,0.32089 7.70924,2.88867 7.70924,3.53054c0,0.22932 0.2749,0.41275 0.64177,0.41275c0.32189,0 0.91768,0.45844 1.33053,1.00874c1.10161,1.69649 1.37751,0.64187 0.36787,-1.28394c-0.55081,-0.96286 -0.96366,-1.9716 -0.96366,-2.2467c0,-0.64197 -3.12089,-3.6223 -4.45141,-4.31016c-0.59679,-0.32089 -1.05562,-0.73354 -1.05562,-0.96286c0,-0.36677 0.43584,-0.49292 1.1016,-0.41265z" fill="#000000" stroke="#000000" stroke-width="0.5" stroke-miterlimit="8"/><path d="M268.30891,176.66519c0.45084,0.07397 0.8437,0.45084 0.8437,1.06762c0,0.59379 0.23092,1.27855 0.50882,1.55245c0.73973,0.73074 0.32389,2.92395 -0.64777,3.51774c-0.69376,0.41085 -0.97066,0.31888 -1.52645,-0.36587c-0.64677,-0.91368 -0.87869,-3.74566 -0.36987,-5.0242c0.23192,-0.59379 0.74073,-0.82271 1.19158,-0.74774z" fill="#000000" stroke="#000000" stroke-width="0" stroke-miterlimit="8"/><path d="M257.62471,177.58386c0.52182,-0.13895 1.1256,0.16595 1.29554,0.75873c0.13596,0.46383 0.45384,1.30053 0.72674,1.85734c1.04363,2.23021 -0.90768,4.97123 -2.17822,3.15987c-0.63578,-0.88269 -0.86269,-4.92524 -0.31788,-5.48204c0.13596,-0.15095 0.3009,-0.24692 0.47384,-0.2939z" fill="#000000" stroke="#000000" stroke-width="0" stroke-miterlimit="8"/><path d="M264.78916,188.99779c0.59778,0.018 1.18457,0.22492 1.50746,0.61778c0.64377,0.78472 0.32189,1.01564 -1.88732,1.15458c-1.79536,0.13895 -2.16323,-0.2769 -1.19657,-1.24656c0.36787,-0.36987 0.97765,-0.54281 1.57644,-0.52581z" fill="#000000" stroke="none" stroke-width="0" stroke-miterlimit="10"/><path d="M228.62809,178.20064l-0.02599,0.11896h0.38687zM247.41238,164.65748c5.46005,0.04568 8.07512,0.45734 8.35002,1.32632c0.09196,0.2744 -1.10061,1.05193 -2.61507,1.69219c-3.62471,1.64651 -6.05584,3.88802 -7.34038,6.81497c-0.87169,1.9663 -1.00964,2.97294 -0.8257,5.8539c0.59579,9.46762 8.99178,14.63577 15.13959,9.2387c0.77972,-0.63977 0.77972,-0.5488 0.09197,1.73838c-0.36687,1.28054 -0.59678,2.46912 -0.50482,2.56108c0.09197,0.09097 1.83535,-0.09196 3.80764,-0.41185c1.9733,-0.36587 3.71668,-0.59479 3.80864,-0.50282c0.50482,0.41085 -0.68876,2.65205 -2.5241,4.71032c-4.12853,4.57336 -8.48697,5.99186 -19.22313,6.31175c-8.57894,0.22892 -12.52453,-0.2739 -16.92896,-2.28718c-3.94559,-1.82934 -7.20243,-5.30511 -8.25805,-8.82685c-0.13795,-0.45684 -0.17194,-0.69675 0.10896,-0.8347l0.007,-0.001l3.82163,-3.43077l-4.04156,2.72003l-0.61378,-0.012c-2.88997,-0.26791 -3.20386,-1.07262 -0.99665,-2.61007c0.51182,-0.35688 0.91468,-0.67976 1.19958,-0.94267l0.41085,-0.49082v-0.12296l-0.18593,-0.05998c-0.22292,0.07098 -0.58079,0.25091 -1.08362,0.5628c-3.0849,1.97729 -6.93952,2.36415 -8.47397,0.86269c-1.22556,-1.16359 -0.86169,-1.60643 1.46048,-1.53945c1.01664,0.05298 2.5331,-0.31189 3.32881,-0.81271l1.47548,-0.88468l-2.82899,0.39486c-3.40479,0.47283 -5.35109,0.15095 -7.43234,-1.17458c-1.15858,-0.77873 -3.25784,-2.99293 -3.18087,-3.39778c1.15659,0.21992 0.94166,1.02263 3.46976,0.65776c2.5281,-0.36487 9.71153,-1.41049 11.69882,-2.84798c2.30617,-1.66741 0.47583,-1.61143 2.65205,-0.46783l7.13645,-3.93359l-5.91389,2.08325c0,-1.23456 5.82692,-6.12831 9.40564,-8.00344c6.42271,-3.24724 9.31367,-3.97908 15.59843,-3.9333z" fill="#71e4ff" stroke="#71e4ff" stroke-width="0" stroke-miterlimit="8"/><path d="M253.19531,169.81814c1.3915,-0.19813 2.88897,0.05358 4.38643,0.85419c0.50382,0.2749 1.55545,1.28154 2.33317,2.2432l1.32552,1.6934l0.77773,-1.4185c1.00564,-2.01428 2.42414,-2.88387 4.7563,-2.88387c2.46912,0 3.93259,0.96156 5.48704,3.61561c2.19522,3.79964 1.46348,10.84813 -1.46348,13.27426c-0.91467,0.77772 -5.3041,-0.18294 -7.40835,-1.60243l-1.50847,-1.05263l-1.05263,1.87734c-1.14259,2.01328 -4.11553,4.02756 -5.98986,4.02756c-4.11653,0 -7.86619,-4.16551 -8.41499,-9.38365c-0.61678,-6.00686 2.59807,-10.6502 6.77158,-11.24448zM268.29792,176.69718c-0.44684,-0.07397 -0.94966,0.15494 -1.17758,0.74973c-0.50382,1.28154 -0.2749,4.11953 0.36487,5.0352c0.54881,0.68676 0.82371,0.77772 1.50946,0.36587c0.96065,-0.59479 1.3725,-2.79201 0.64077,-3.52374c-0.2749,-0.2749 -0.50382,-0.96166 -0.50382,-1.55644c0,-0.61778 -0.38786,-0.99564 -0.8337,-1.07062zM257.58973,177.66084c-0.17494,0.04599 -0.34088,0.13996 -0.47783,0.2889c-0.54881,0.5498 -0.31989,4.53138 0.31988,5.40107c1.28054,1.78536 3.24684,-0.91568 2.19521,-3.11189c-0.2739,-0.5498 -0.59478,-1.37351 -0.73173,-1.83134c-0.17094,-0.58379 -0.77973,-0.88369 -1.30554,-0.74674z" fill="#ffffff" stroke="#000000" stroke-width="0" stroke-miterlimit="8"/><path d="M263.52061,187.74923c0.47283,0.02299 1.45448,0.31289 3.6467,0.89168c1.98429,0.5568 3.9236,0.97365 4.24649,1.02063c0.32288,0 0.41585,0.18493 0.23091,0.37086c-0.46184,0.46284 -9.32367,1.99329 -9.64756,1.66841c-0.13795,-0.09296 0,-0.69475 0.23092,-1.29753c0.23092,-0.60279 0.5538,-1.48347 0.69275,-1.9473c0.16094,-0.48683 0.12696,-0.73074 0.59979,-0.70675zM264.85312,189.07876c-0.59978,-0.017 -1.21156,0.15695 -1.58043,0.52782c-0.96965,0.97365 -0.60079,1.3905 1.19957,1.25155c2.21621,-0.13895 2.53909,-0.37087 1.89232,-1.15959c-0.32288,-0.39386 -0.91168,-0.60278 -1.51146,-0.61978z" fill="#ed7d31" stroke="#ae5a21" stroke-width="0" stroke-miterlimit="8"/><path d="M253.20931,169.81834c1.3935,-0.19883 2.89397,0.05378 4.39443,0.858c0.50482,0.2759 1.55844,1.28654 2.33716,2.25119l1.32853,1.6994l0.77872,-1.4245c1.00864,-2.02128 2.42913,-2.89387 4.7653,-2.89387c2.47512,0 3.94059,0.96455 5.49904,3.6296c0.5498,0.95266 0.91567,2.11024 1.1106,3.3478l0.01499,0.70775l-12.03271,-3.10589l-14.10096,9.56059l-0.88068,-3.34381c-0.61778,-6.02984 2.60307,-10.68978 6.78558,-11.28627z" fill="#71e4ff" stroke="#000000" stroke-width="0.5" stroke-miterlimit="8"/></g></g></svg>