<svg version="1.1" xmlns="http://www.w3.org/2000/svg" xmlns:xlink="http://www.w3.org/1999/xlink" width="104.85274" height="72.98923" viewBox="0,0,104.85274,72.98923"><defs><radialGradient cx="240.00002" cy="179.99977" r="62.92734" gradientUnits="userSpaceOnUse" id="color-1"><stop offset="0" stop-color="#9dc3e6"/><stop offset="0.5" stop-color="#9dc3e6"/><stop offset="1" stop-color="#ffffff"/></radialGradient></defs><g transform="translate(-187.57363,-143.37961)"><g fill-rule="evenodd" stroke="#000000" stroke-width="1.5" stroke-miterlimit="8"><path d="M282.05171,144.12467c0.53043,0.06125 1.06086,0.23842 1.56942,0.5379c1.55301,0.91194 2.66673,2.82131 2.96567,5.08685l0.01641,0.01258l2.34046,1.80091c0.65438,0.84869 1.15565,1.91575 1.44729,3.12352c0.42289,1.75334 0.36273,3.65742 -0.17134,5.35352c1.31058,2.32587 1.7681,5.34094 1.24496,8.18522c-0.6963,3.78137 -2.99848,6.61325 -5.82744,7.165c-0.01276,2.36032 -0.77468,4.5987 -2.08527,6.1395c-0.49944,0.58548 -1.05175,1.04336 -1.63686,1.3711l-0.94603,0.30641l-0.27524,0.85015c2.78157,2.55044 3.75494,5.85643 2.64304,8.97539c-1.47828,4.14629 -6.37246,7.2514 -12.38582,7.85657c-0.02734,2.58799 -1.64597,5.04237 -4.43301,6.73209c-4.23433,2.56739 -10.35159,2.89732 -15.09448,0.81515c-1.53478,3.57685 -5.64152,6.31103 -10.78724,7.18232c-6.06441,1.02623 -12.39494,-0.72365 -15.86187,-4.3838c-8.18248,3.47423 -18.81114,1.52203 -23.56132,-4.33185c-4.66451,0.38479 -9.04466,-1.65308 -10.35889,-4.81981c-0.95149,-2.29124 -0.10937,-4.76403 2.21468,-6.50607c-3.29742,-1.36654 -5.13478,-3.9888 -4.67544,-6.67504c0.53954,-3.14503 4.08304,-5.60871 8.5361,-5.9328c0.02734,-0.05268 0.05651,-0.10408 0.08203,-0.15658c-0.59787,-3.09709 0.79656,-6.22062 3.80233,-8.51988c4.75018,-3.63135 12.44962,-4.44085 18.49944,-1.94637l0.00365,-0.00328l3.67838,-2.92757c4.44942,-2.16984 10.7599,-2.00944 14.96689,0.9103l0.06744,-0.05523l2.92192,-2.42121c1.24678,-0.6336 2.71048,-1.05685 4.27808,-1.21343l1.83737,-0.00948l-0.27159,-2.16838c0.25337,-2.86815 1.92122,-5.11492 4.01559,-5.41057c0.01276,-0.04794 0.02734,-0.09478 0.03828,-0.14272c-0.28071,-2.82459 0.37549,-5.67305 1.78997,-7.76998c2.23473,-3.31164 5.85661,-4.04986 8.7038,-1.77503l0.00182,-0.00292l1.72982,-2.66983c2.09438,-1.979 5.06187,-1.83263 7.04142,0.82991l0.03281,-0.05013l1.37438,-2.20812c0.58694,-0.57801 1.27413,-0.96407 2.01235,-1.10661c0.81296,-0.15731 1.6241,-0.00875 2.35686,0.40156l1.83008,1.91611l0.05286,0.05705c1.07727,-1.72873 2.68132,-2.58671 4.27625,-2.40243z" fill="url(#color-1)"/><path d="M277.56765,155.03513c2.35686,1.95658 3.71848,4.85973 3.71848,7.92164" fill="none"/><path d="M246.75895,203.97472c-1.48192,4.10127 -5.34805,6.83016 -9.67534,6.83016" fill="none"/><path d="M207.07145,183.82237c2.12172,-5.0914 7.86714,-7.62052 13.05478,-5.74706" fill="none"/></g></g></svg>