<svg version="1.1" xmlns="http://www.w3.org/2000/svg" xmlns:xlink="http://www.w3.org/1999/xlink" width="89.34943" height="85.65468" viewBox="0,0,89.34943,85.65468"><g transform="translate(-195.3127,-137.17901)"><g fill-rule="evenodd" stroke="#000000" stroke-width="1.5" stroke-miterlimit="8"><path d="M222.28153,157.64748c-4.21285,0 -7.62762,3.41271 -7.62762,7.62247v30.48987c0,4.20976 3.41477,7.62247 7.62762,7.62247h34.36495c4.21285,0 7.62762,-3.41271 7.62762,-7.62247c0,-10.16295 0,-20.32692 0,-30.48987c0,-4.20976 -3.41477,-7.62247 -7.62762,-7.62247zM214.09164,145.96562h51.91969c6.3651,0 11.52432,5.15613 11.52432,11.51608v46.06639c0,6.35995 -5.15922,11.51608 -11.52432,11.51608h-51.91969c-6.3651,0 -11.52432,-5.15613 -11.52432,-11.51608v-46.06639c0,-6.35995 5.15922,-11.51608 11.52432,-11.51608z" fill="#548235"/><path d="M209.36391,196.32209l-11.12168,-6.0747l10.94558,-4.944" fill="#ffd966"/><path d="M208.12816,175.72639l-11.12168,-6.01806l10.94558,-4.89766" fill="#ffd966"/><path d="M215.38608,210.21594l-10.77258,6.58856l1.20485,-11.90946" fill="#ffd966"/><path d="M204.97392,156.99873l-3.57541,-12.11027l11.19067,4.2458" fill="#ffd966"/><path d="M274.94059,204.10829l3.57541,12.1113l-11.1917,-4.2458" fill="#ffd966"/><path d="M266.68893,148.83974l12.11027,-3.57541l-4.2458,11.19067" fill="#ffd966"/><path d="M224.39876,149.98177l6.0747,-11.12168l4.944,10.94558" fill="#ffd966"/><path d="M244.58255,151.52644l6.01806,-11.12168l4.89766,10.94558" fill="#ffd966"/><path d="M271.35695,162.7511l11.12168,6.01806l-10.94558,4.89766" fill="#ffd966"/><path d="M271.97482,181.59617l11.0187,6.0747l-10.84363,4.944" fill="#ffd966"/><path d="M233.97576,210.01823l-6.01806,11.12168l-4.89766,-10.94558" fill="#ffd966"/><path d="M255.49825,209.50334l-6.01806,11.12168l-4.89766,-10.94558" fill="#ffd966"/><path d="M233.35789,154.51283l-6.01806,11.0187l-4.89766,-10.84363" fill="#ffd966"/><path d="M254.57145,155.74857l-6.01806,11.12168l-4.89766,-10.94558" fill="#ffd966"/><path d="M212.86518,165.42855l11.12168,6.01806l-10.94558,4.89766" fill="#ffd966"/><path d="M212.45326,187.67189l11.12168,6.0747l-10.94558,4.944" fill="#ffd966"/><path d="M225.84046,205.59015l6.01806,-11.12168l4.89766,10.94558" fill="#ffd966"/><path d="M244.17062,205.79611l6.01806,-11.0187l4.89766,10.84363" fill="#ffd966"/><path d="M265.7961,178.40384l-11.12168,-6.01806l10.94558,-4.89766" fill="#ffd966"/><path d="M263.14648,200.60805l-6.58856,-10.77155l11.90843,1.20382" fill="#ffd966"/></g></g></svg>