<svg version="1.1" xmlns="http://www.w3.org/2000/svg" xmlns:xlink="http://www.w3.org/1999/xlink" width="82.25637" height="52.15775" viewBox="0,0,82.25637,52.15775"><g transform="translate(-198.86548,-154.31884)"><g fill-rule="evenodd" stroke="#000000" stroke-width="1.5" stroke-miterlimit="8"><path d="M255.38292,155.76505h12.40891c1.71253,0 3.10171,1.39021 3.10171,3.10377v20.58746v14.24707v0.45825c0,1.71356 -1.38918,3.10377 -3.10171,3.10377h-0.45722h-11.95168h-45.08552c-1.96586,0 -3.55945,-1.59514 -3.55945,-3.56203v-14.24707c0,-1.96689 1.59359,-3.56203 3.55945,-3.56203h41.98381v-17.02543c0,-1.71356 1.38918,-3.10377 3.10171,-3.10377z" fill="#548235"/><path d="M211.68092,192.21943l-11.12168,-6.01806l10.94517,-4.89766" fill="#ffd966"/><path d="M215.5941,180.27392l6.01806,-11.12168l4.89766,10.94558" fill="#ffd966"/><path d="M236.60171,179.86201l6.0747,-11.0187l4.944,10.84363" fill="#ffd966"/><path d="M254.54468,165.98978l-6.58856,-10.77258l11.90946,1.20485" fill="#ffd966"/><path d="M267.80419,160.2961l11.12168,6.01806l-10.94558,4.89766" fill="#ffd966"/><path d="M268.31908,179.03818l11.12168,6.0747l-10.94558,4.944" fill="#ffd966"/><path d="M265.53866,192.21943l-6.01806,11.12168l-4.89766,-10.94558" fill="#ffd966"/><path d="M247.62041,192.73431l-6.0747,11.12168l-4.944,-10.94558" fill="#ffd966"/><path d="M227.74556,193.66113l-6.01806,11.12168l-4.89766,-10.94558" fill="#ffd966"/></g></g></svg>