<svg version="1.1" xmlns="http://www.w3.org/2000/svg" xmlns:xlink="http://www.w3.org/1999/xlink" width="61.2162" height="61.2839" viewBox="0,0,61.2162,61.2839"><g transform="translate(-209.3919,-149.35805)"><g stroke="#000000"><path d="M210.1419,180.00001c0,-16.50889 13.3679,-29.89195 29.8581,-29.89195c16.49034,0 29.8581,13.38306 29.8581,29.89195c0,16.50862 -13.36776,29.89195 -29.8581,29.89195c-16.49021,0 -29.8581,-13.38333 -29.8581,-29.89195z" fill="#e7e6e6" fill-rule="evenodd" stroke-width="1.5" stroke-linecap="butt" stroke-miterlimit="8"/><path d="M219.07366,177.31904v-1.24971h1.7643v1.24971z" fill="#522507" fill-rule="nonzero" stroke-width="0.5" stroke-linecap="butt" stroke-miterlimit="10"/><path d="M223.26552,176.2232l-6.409,0.10173l3.25537,-3.25536z" fill="#548235" fill-rule="nonzero" stroke-width="0.5" stroke-linecap="butt" stroke-miterlimit="10"/><path d="M222.29636,174.86658l-4.45991,0.07079l2.26535,-2.26535z" fill="#548235" fill-rule="nonzero" stroke-width="0.5" stroke-linecap="butt" stroke-miterlimit="10"/><path d="M221.60984,173.7537l-3.30806,0.05251l1.68028,-1.68028z" fill="#548235" fill-rule="nonzero" stroke-width="0.5" stroke-linecap="butt" stroke-miterlimit="10"/><path d="M221.46015,192.36438l1.55391,-1.55384l1.65066,1.65066l1.65066,-1.65066l1.55391,1.55384l-1.65066,1.65066l1.65066,1.65066l-1.55391,1.55384l-1.65066,-1.65066l-1.65066,1.65066l-1.55391,-1.55384l1.65066,-1.65066z" fill="#767171" fill-rule="evenodd" stroke-width="0.5" stroke-linecap="butt" stroke-miterlimit="8"/><path d="M253.46473,164.67278l1.55384,-1.55384l1.65066,1.65066l1.65066,-1.65066l1.55384,1.55384l-1.65066,1.65073l1.65066,1.65066l-1.55384,1.5539l-1.65066,-1.65066l-1.65066,1.65066l-1.55384,-1.5539l1.65066,-1.65066z" fill="#ffffff" fill-rule="evenodd" stroke-width="0.5" stroke-linecap="butt" stroke-miterlimit="8"/><path d="M229.94225,194.19343c0,0 25.26944,1.3735 25.37576,-4.81862c0.13545,-7.88853 -29.59449,-7.42641 -29.17427,-15.88928c0.41501,-8.35788 24.45394,-6.52496 24.45394,-6.52496" fill="none" fill-rule="nonzero" stroke-width="2.5" stroke-linecap="round" stroke-miterlimit="10"/><path d="M256.89794,198.64858l2.25182,-5.17086l2.50203,5.08746" fill="#8faadc" fill-rule="nonzero" stroke-width="0.5" stroke-linecap="round" stroke-miterlimit="10"/><path d="M251.68666,198.78137l2.85231,-6.54976l3.16924,6.44411" fill="#8faadc" fill-rule="nonzero" stroke-width="0.5" stroke-linecap="round" stroke-miterlimit="10"/><path d="M220.06102,178.65138l2.85231,-6.54976l3.16924,6.44412" fill="#8faadc" fill-rule="nonzero" stroke-width="0.5" stroke-linecap="round" stroke-miterlimit="10"/><path d="M246.36548,163.6629v-0.92697h1.30866v0.92697z" fill="#522507" fill-rule="nonzero" stroke-width="0.5" stroke-linecap="butt" stroke-miterlimit="10"/><path d="M249.47479,162.85006l-4.75386,0.07546l2.41466,-2.41466z" fill="#548235" fill-rule="nonzero" stroke-width="0.5" stroke-linecap="butt" stroke-miterlimit="10"/><path d="M248.75591,161.84378l-3.30813,0.05251l1.68032,-1.68032z" fill="#548235" fill-rule="nonzero" stroke-width="0.5" stroke-linecap="butt" stroke-miterlimit="10"/><path d="M248.24668,161.01831l-2.45374,0.03894l1.24634,-1.24634z" fill="#548235" fill-rule="nonzero" stroke-width="0.5" stroke-linecap="butt" stroke-miterlimit="10"/><path d="M242.9059,165.18056v-1.24974h1.76433v1.24974z" fill="#522507" fill-rule="nonzero" stroke-width="0.5" stroke-linecap="butt" stroke-miterlimit="10"/><path d="M247.09786,164.0847l-6.40914,0.10173l3.25544,-3.25543z" fill="#548235" fill-rule="nonzero" stroke-width="0.5" stroke-linecap="butt" stroke-miterlimit="10"/><path d="M246.12867,162.72805l-4.46001,0.07079l2.2654,-2.2654z" fill="#548235" fill-rule="nonzero" stroke-width="0.5" stroke-linecap="butt" stroke-miterlimit="10"/><path d="M245.44213,161.61514l-3.30813,0.05251l1.68032,-1.68032z" fill="#548235" fill-rule="nonzero" stroke-width="0.5" stroke-linecap="butt" stroke-miterlimit="10"/></g></g></svg>