<svg version="1.1" xmlns="http://www.w3.org/2000/svg" xmlns:xlink="http://www.w3.org/1999/xlink" width="49.14555" height="65.66509" viewBox="0,0,49.14555,65.66509"><defs><radialGradient cx="239.71399" cy="179.91175" r="17.86516" fx="239.71399" fy="179.91175" gradientUnits="userSpaceOnUse" id="color-1"><stop offset="0" stop-color="#303300"/><stop offset="1" stop-color="#959100"/></radialGradient></defs><g transform="translate(-217.09703,-147.30474)"><g stroke="#000000"><path d="M227.10152,179.91177c0,-0.66834 4.34578,-0.97163 4.4453,-1.61197c0.41745,-2.68573 -2.05027,-7.2789 -1.16825,-9.20222c11.40045,-8.53008 10.08286,4.86742 13.5879,4.86742c2.48398,0 5.69024,-7.07352 7.296,-6.92695c2.8972,0.26444 1.064,8.37799 1.064,12.87372c0,0.73458 -5.70946,0.1016 -5.82925,0.8019c-0.15005,0.87724 5.20274,6.45881 5.09109,7.3144c-0.44369,3.40022 -6.54202,6.78432 -10.60346,5.39588c-1.86132,-0.6363 -1.48255,-6.2713 -3.15322,-6.2713c-0.5868,0 -2.445,4.64526 -2.98603,4.63779c-5.88131,-0.08121 -7.74409,-5.47983 -7.74409,-11.87867z" fill="url(#color-1)" fill-rule="evenodd" stroke-linecap="butt" stroke-miterlimit="8"/><path d="M247.78004,177.17434c-0.52167,0.4675 -0.65418,0.70806 -1.43867,0.41473c-0.56772,-0.61199 -0.12905,-0.78622 0.02956,-1.46746l19.47388,-22.6667z" fill="#686500" fill-rule="evenodd" stroke-linecap="butt" stroke-miterlimit="8"/><path d="M241.01608,174.77564c-0.78195,0.29222 -0.77619,-0.17975 -1.34588,-0.58559l-13.55401,-26.6327l15.06365,25.73002c0.23389,0.6603 0.40595,0.87436 -0.16376,1.48827z" fill="#686500" fill-rule="evenodd" stroke-linecap="butt" stroke-miterlimit="8"/><path d="M235.55959,179.52878c0.52167,-0.46751 0.65418,-0.70807 1.43866,-0.41474c0.56772,0.61199 0.12904,0.78622 -0.02956,1.46747l-19.47388,22.66669z" fill="#686500" fill-rule="evenodd" stroke-linecap="butt" stroke-miterlimit="8"/><path d="M241.89731,185.49892c0.78195,-0.29222 0.77619,0.17975 1.34588,0.58559l13.55401,26.6327l-15.06365,-25.73002c-0.23389,-0.6603 -0.40595,-0.87436 0.16376,-1.48827z" fill="#686500" fill-rule="evenodd" stroke-linecap="butt" stroke-miterlimit="8"/><path d="M231.97371,170.88786l0.18986,-4.02513l3.15175,2.92391" fill="#8ca700" fill-rule="nonzero" stroke-linecap="round" stroke-miterlimit="10"/><path d="M230.65105,183.41674l-3.76469,1.43692l1.41816,-4.05853" fill="#8ca700" fill-rule="nonzero" stroke-linecap="round" stroke-miterlimit="10"/><path d="M238.72447,179.43962l-1.42288,-3.77002l4.05321,1.43327" fill="#8ca700" fill-rule="nonzero" stroke-linecap="round" stroke-miterlimit="10"/><path d="M232.62692,178.32636l-3.14733,-2.51634l4.21721,-0.83544" fill="#8ca700" fill-rule="nonzero" stroke-linecap="round" stroke-miterlimit="10"/><path d="M249.23986,170.32159l3.76469,-2.23659l-0.76604,4.60867" fill="#8ca700" fill-rule="nonzero" stroke-linecap="round" stroke-miterlimit="10"/><path d="M249.60192,188.21431l1.66287,3.77002l-4.21832,-1.23757" fill="#8ca700" fill-rule="nonzero" stroke-linecap="round" stroke-miterlimit="10"/><path d="M235.39833,188.59961l-1.23724,3.83496l-2.27613,-3.64719" fill="#8ca700" fill-rule="nonzero" stroke-linecap="round" stroke-miterlimit="10"/><path d="M241.12489,183.57819l-3.59338,1.82355l0.98501,-4.18479" fill="#8ca700" fill-rule="nonzero" stroke-linecap="round" stroke-miterlimit="10"/><path d="M245.98664,182.32307l3.83496,1.23724l-3.64719,2.27613" fill="#8ca700" fill-rule="nonzero" stroke-linecap="round" stroke-miterlimit="10"/><path d="M251.72604,176.64314l1.42274,3.77008l-4.05316,-1.43342" fill="#8ca700" fill-rule="nonzero" stroke-linecap="round" stroke-miterlimit="10"/></g></g></svg>