<svg version="1.1" xmlns="http://www.w3.org/2000/svg" xmlns:xlink="http://www.w3.org/1999/xlink" width="100.50854" height="125.33173" viewBox="0,0,100.50854,125.33173"><g transform="translate(-189.59869,-117.58872)"><g fill-rule="evenodd" stroke-width="1.5"><path d="M229.70058,181.61035c-8.10787,-23.88527 -41.43463,-35.72336 -36.21266,-45.82802c7.71466,-9.94786 16.61039,3.30696 43.13946,18.8984c10.78541,-7.71723 -6.29775,-35.01416 18.73738,-34.64683c25.03331,0.36752 9.10553,19.1867 14.32676,29.29173c5.22123,10.10502 8.05651,47.77052 4.09335,63.1518c-3.96132,15.38127 -11.07334,33.96278 -18.42011,28.81857c-7.34861,-5.14421 -17.55632,-35.80038 -25.66419,-59.68565z" fill="#a6a200" stroke="#000000" stroke-miterlimit="8"/><path d="M255.6472,120.30901c9.40261,0.13792 12.19389,2.87031 13.33827,6.76486c0.04952,1.23497 0.10086,2.47013 0.15038,3.7051l-0.92614,0.23841c-0.27692,0.0829 0.70056,-0.07005 0.41997,0c-1.12604,0.08656 -3.37996,0.2287 -4.62521,0.41997c-0.55202,0.08491 -1.66889,0.47517 -2.1017,0.62977c-0.56485,0.20118 -1.14621,0.36256 -1.68172,0.62996c-0.31361,0.15661 -0.54101,0.44987 -0.84179,0.62997c-0.94448,0.56558 -1.25991,0.71744 -1.29842,0.69617l0.29894,-0.27949c0.00367,-0.00238 0.00734,-0.00459 0.00917,-0.00697c0.3246,-0.24611 0.22924,-0.18523 0.06052,-0.0574l-0.06969,0.06437l-0.83628,0.62263l-1.73858,1.27036c-1.81377,1.31768 -2.03568,0.68736 -2.94348,3.14943c-0.22007,0.59402 -0.13938,1.25974 -0.2109,1.89061c-0.20907,0.20907 -0.48234,0.37046 -0.62904,0.62904c-0.0917,0.15956 -0.40897,1.82661 -0.4218,1.88896c-0.25675,1.28376 -0.80327,2.17323 -1.26176,3.35978c-0.15771,0.41447 -0.34294,0.82344 -0.41996,1.25991c-0.13387,0.76109 -0.1192,1.54235 -0.20907,2.31077c-0.05136,0.42181 -0.14121,0.83995 -0.21091,1.25992c-0.11554,0.68589 -0.61804,1.64137 -0.84178,2.30893c-0.47133,1.41581 0.16139,0.38513 -0.83995,2.09986c-0.25492,0.43648 -0.56119,0.83995 -0.84179,1.25992c-0.90413,1.35528 -4.28592,3.74858 -5.25608,4.4088c-1.60102,1.08936 -2.38229,0.70057 -4.6252,0.83995c-2.42631,-0.40346 -0.21824,-0.00184 -3.78342,-0.83995c-0.34844,-0.08253 -0.71341,-0.0972 -1.05268,-0.20907c-0.45114,-0.15222 -1.55518,-0.84912 -1.89079,-1.05084c-0.3246,-0.04585 -1.61387,-0.14121 -2.10353,-0.41997c-0.30444,-0.17422 -0.53367,-0.46032 -0.83995,-0.62904c-0.33012,-0.18339 -0.73174,-0.22006 -1.05268,-0.41996c-2.22456,-1.38829 1.41763,0.16872 -1.68172,-1.25992c-1.79543,-0.82894 -1.40296,-0.33745 -2.94348,-1.25992c-0.67306,-0.4053 -0.93531,-0.72624 -1.47082,-1.25992c-1.66705,-0.4163 -0.36313,0.00917 -2.73258,-1.47082c-1.97698,-1.23242 -0.94264,-0.30993 -2.10353,-1.46899c-0.5777,-0.5777 -1.44882,-0.77026 -2.10224,-1.25992c-0.20211,-0.15222 -0.28023,-0.41997 -0.42053,-0.62904c-0.42052,-0.2806 -0.87571,-0.51533 -1.26138,-0.83995c-1.84733,-1.56251 -1.03784,-1.46166 -3.15365,-2.73074c-0.45776,-0.27326 -1.07396,-0.27326 -1.47174,-0.62904c-0.963,-0.86012 -1.63734,-2.00083 -2.52296,-2.93982c-0.24006,-0.25492 -0.5931,-0.3833 -0.84086,-0.63088c-0.59676,-0.5942 -1.10494,-1.27458 -1.68209,-1.88895c-0.47444,-0.50618 -0.98116,-0.97932 -1.47174,-1.46972c-1.65606,-1.65403 -3.64422,-2.93945 -5.46624,-4.40935l0.02439,-0.04604l0.07556,-0.08234c7.44251,-6.68308 16.82972,5.87906 41.73777,20.49559c10.80192,-7.71723 -6.30693,-35.01235 18.76489,-34.645z" fill="#c0bb00" stroke="none" stroke-miterlimit="10"/><path d="M200.68101,136.97899l-5.91153,-9.24619" fill="none" stroke="#4c4a00" stroke-miterlimit="8"/><path d="M198.58959,140.71528l-8.58835,-5.46331" fill="none" stroke="#4c4a00" stroke-miterlimit="8"/><path d="M190.00123,145.33865h10.08668" fill="none" stroke="#4c4a00" stroke-miterlimit="8"/><path d="M244.5225,130.46849l-10.69004,-4.20284" fill="none" stroke="#4c4a00" stroke-miterlimit="8"/><path d="M241.7184,120.39704l7.18173,7.35686" fill="none" stroke="#4c4a00" stroke-miterlimit="8"/><path d="M251.80509,126.2363l2.85035,-8.40675" fill="none" stroke="#4c4a00" stroke-miterlimit="8"/><path d="M259.32425,125.49851v-6.93542" fill="none" stroke="#4c4a00" stroke-miterlimit="8"/><path d="M262.44195,125.52364l7.69685,-7.14393" fill="none" stroke="#4c4a00" stroke-miterlimit="8"/><path d="M275.63716,132.45887l-10.81109,-3.99249" fill="none" stroke="#4c4a00" stroke-miterlimit="8"/><path d="M252.5515,221.30237v0c-0.69872,-2.21541 -1.53501,-4.36845 -2.09619,-6.64621c-0.48967,-1.98983 -1.04718,-6.11253 -1.04718,-6.11253c0.06968,-0.70973 0.27875,-1.41763 0.20907,-2.12738c-0.14305,-1.44882 -0.83811,-4.25291 -0.83811,-4.25291c0.06968,-1.41763 0.07152,-2.84261 0.20907,-4.2529c0.17056,-1.71657 0.85829,-3.44597 1.25808,-5.04885c0.17422,-0.6969 0.16138,-1.47448 0.41996,-2.12738c0.28793,-0.73358 1.93847,-4.58852 3.14337,-5.58253c0.99582,-0.81977 2.09618,-1.41763 3.14337,-2.12554c0.69873,0.1779 1.46532,0.11371 2.09619,0.53184c1.57902,1.04534 2.93614,2.92696 4.1924,4.51883c0.13939,0.44198 0.25126,0.9023 0.41814,1.32778c0.39247,0.994 0.90229,1.91097 1.25808,2.92514c0.20723,0.58869 0.25308,1.25074 0.41997,1.85961c0.46215,1.6964 1.20123,3.28826 1.46715,5.05068c0.91697,6.1107 0.59237,3.71373 1.04719,7.17621c-0.13939,2.83527 -0.19073,5.67972 -0.41997,8.50583c-0.1137,1.40663 -0.38879,1.95131 -1.04718,2.92514c-0.19256,0.28426 -0.45114,0.49701 -0.62904,0.79776c-0.45298,0.76659 -0.76475,1.66339 -1.25808,2.39146c-0.35396,0.52451 -0.88763,0.81977 -1.25626,1.32961c-0.40714,0.56119 -0.67306,1.26542 -1.04902,1.85961c-0.18523,0.29343 -0.41815,0.53184 -0.62904,0.79776c-2.02467,-0.7079 -4.08969,-1.25992 -6.07769,-2.12554c-0.2806,-0.12288 -0.39431,-0.56669 -0.62904,-0.79776c-0.39796,-0.39246 -0.81427,-0.75741 -1.25625,-1.06369c-0.33194,-0.22924 -0.7024,-0.34295 -1.04902,-0.53184c-0.14305,-0.07702 0,0.66389 0,0.79776z" fill="#c0bb00" stroke="none" stroke-miterlimit="10"/><path d="M206.28339,126.2657l-1.42723,11.66309" fill="none" stroke="#4c4a00" stroke-miterlimit="8"/><path d="M229.87114,181.10235l-11.81059,-4.5867" fill="none" stroke="#4c4a00" stroke-miterlimit="8"/><path d="M226.82313,168.9965l-11.69692,0.00007" fill="none" stroke="#4c4a00" stroke-miterlimit="8"/><path d="M230.08205,175.507l-12.02149,-2.29243" fill="none" stroke="#4c4a00" stroke-miterlimit="8"/><path d="M281.03813,162.21275l-11.81059,-4.5867" fill="none" stroke="#4c4a00" stroke-miterlimit="8"/><path d="M278.50729,164.37497l-9.27975,-0.51351" fill="none" stroke="#4c4a00" stroke-miterlimit="8"/><path d="M281.58831,172.29944l-11.81059,-4.58669" fill="none" stroke="#4c4a00" stroke-miterlimit="8"/><path d="M283.05545,211.91259l-11.81058,-4.58669" fill="none" stroke="#4c4a00" stroke-miterlimit="8"/><path d="M272.34449,203.48741l17.65428,-2.58031" fill="none" stroke="#4c4a00" stroke-miterlimit="8"/><path d="M282.99862,207.43409l-9.7364,-2.49233" fill="none" stroke="#4c4a00" stroke-miterlimit="8"/><path d="M245.14972,216.58913l-10.58369,-6.87912" fill="none" stroke="#4c4a00" stroke-miterlimit="8"/><path d="M235.29961,215.57863l11.81059,4.58669" fill="none" stroke="#4c4a00" stroke-miterlimit="8"/><path d="M244.17589,210.62882l-11.81059,-4.58669" fill="none" stroke="#4c4a00" stroke-miterlimit="8"/></g></g></svg>