<svg version="1.1" xmlns="http://www.w3.org/2000/svg" xmlns:xlink="http://www.w3.org/1999/xlink" width="61.2162" height="61.2162" viewBox="0,0,61.2162,61.2162"><g transform="translate(-209.3919,-149.3919)"><g fill-rule="evenodd"><path d="M210.1419,180c0,-16.49019 13.36818,-29.8581 29.8581,-29.8581c16.48993,0 29.8581,13.3679 29.8581,29.8581c0,16.48993 -13.36817,29.8581 -29.8581,29.8581c-16.48992,0 -29.8581,-13.36818 -29.8581,-29.8581z" fill="#e7e6e6" stroke="#000000" stroke-width="1.5" stroke-miterlimit="8"/><path d="M239.90738,158.46025c0.10956,0 0.21911,0 0.33205,0c0.01826,0.03659 0.03652,0.0731 0.05545,0.11084c0.10888,0.03456 0.21845,0.06506 0.32868,0.09353c0.64382,0.19301 1.05568,0.54259 1.38842,1.12569c0.14067,0.28898 0.25563,0.58884 0.37534,0.88701c0.11835,0.29081 0.24482,0.57829 0.37061,0.86613c0.38683,0.88634 0.76421,1.7764 1.13752,2.66849c0.23806,0.56943 0.48219,1.13617 0.72836,1.70242c0.35235,0.81222 0.69725,1.62755 1.03945,2.44423c0.23332,0.5557 0.46934,1.1102 0.70605,1.66421c0.03652,0.08609 0.07371,0.17218 0.11023,0.25834c0.10145,0.23697 0.20289,0.47367 0.30568,0.7101c0.04193,0.09745 0.08318,0.19524 0.12444,0.2931c0.02299,0.05437 0.04666,0.10874 0.07034,0.16474c0.01961,0.04612 0.03922,0.09231 0.05951,0.13986c0.08048,0.13878 0.15081,0.20221 0.28945,0.28269c0.13593,0.03503 0.13593,0.03503 0.28607,0.0468c0.05681,0.00609 0.11361,0.01217 0.17177,0.01846c0.06154,0.00595 0.12241,0.01183 0.18598,0.01792c0.13187,0.01387 0.26375,0.0278 0.3963,0.04173c0.06695,0.0069 0.13391,0.01373 0.20357,0.02083c0.23332,0.02442 0.46596,0.05201 0.6986,0.08c0.63639,0.07608 1.27278,0.14108 1.91052,0.20377c0.98603,0.09712 1.9707,0.20174 2.95605,0.30832c0.05681,0.00609 0.0568,0.00608 0.11429,0.01237c0.42944,0.04646 0.85888,0.09299 1.289,0.13959c0.69455,0.07534 1.38977,0.15048 2.085,0.22547c0.23129,0.02496 0.46191,0.04991 0.69319,0.07494c0.17854,0.01934 0.35708,0.03854 0.53562,0.05782c0.06695,0.00731 0.13458,0.01454 0.20356,0.02198c0.44297,0.04761 0.88661,0.09327 1.33093,0.13445c0.74053,0.07101 1.28359,0.27301 1.80636,0.8156c0.12647,0.15643 0.21709,0.32591 0.30569,0.50546c0.05072,0.11016 0.05072,0.11017 0.16907,0.15636c0.00473,0.22737 0.00744,0.4548 0.01014,0.6823c0.00203,0.09705 0.00203,0.09705 0.00405,0.19606c0.00068,0.06195 0.00135,0.1239 0.00203,0.1878c0.00068,0.05714 0.00135,0.11429 0.0027,0.17319c-0.02231,0.16813 -0.05748,0.20782 -0.1853,0.31231c-0.04396,0.07737 -0.08521,0.15602 -0.12444,0.23555c-0.24211,0.44148 -0.61204,0.71308 -1.00429,1.01667c-0.24414,0.18888 -0.48016,0.38501 -0.71281,0.58702c-0.25293,0.21919 -0.50857,0.43289 -0.77164,0.64058c-0.20965,0.16765 -0.4166,0.33848 -0.62354,0.50938c-0.04058,0.03382 -0.08183,0.06756 -0.12376,0.10239c-0.08048,0.06621 -0.16028,0.13242 -0.24076,0.19856c-0.28742,0.23737 -0.57687,0.47346 -0.86565,0.70895c-0.27322,0.2227 -0.54374,0.44805 -0.81222,0.6769c-0.24685,0.21067 -0.49775,0.41402 -0.75407,0.61312c-0.29757,0.23082 -0.58431,0.47097 -0.86835,0.71741c-0.31312,0.27051 -0.63436,0.53069 -0.9556,0.79078c-0.35235,0.28472 -0.70063,0.57355 -1.0496,0.86179c-0.12444,0.10266 -0.24955,0.20505 -0.37399,0.30745c-0.06289,0.05133 -0.06289,0.05133 -0.12646,0.10368c-0.07845,0.06472 -0.15758,0.12931 -0.23603,0.19383c-0.07236,0.05958 -0.14473,0.11963 -0.21641,0.18023c-0.07642,0.06303 -0.15554,0.12342 -0.23534,0.18171c-0.04058,0.03104 -0.08116,0.06208 -0.12309,0.09414c-0.03719,0.02692 -0.07439,0.05383 -0.11294,0.08163c-0.13188,0.19599 -0.10753,0.39042 -0.08116,0.61955c0.03314,0.15906 0.08116,0.30994 0.1339,0.46346c0.0142,0.04301 0.02841,0.08602 0.04261,0.13039c0.04667,0.14053 0.094,0.2808 0.14202,0.42099c0.03314,0.09968 0.06628,0.19937 0.09874,0.29912c0.08454,0.25354 0.16907,0.50675 0.25429,0.75995c0.07169,0.21215 0.14202,0.4245 0.21303,0.63686c0.07913,0.23778 0.15825,0.4755 0.23738,0.71314c0.25834,0.77273 0.5106,1.54742 0.76286,2.32217c0.24008,0.73648 0.48219,1.47227 0.72836,2.20673c0.25225,0.75068 0.49301,1.50474 0.73106,2.26015c0.23467,0.7473 0.47746,1.49122 0.73039,2.23175c0.25158,0.74257 0.42201,1.36407 0.0913,2.11137c-0.27592,0.53156 -0.69455,0.87241 -1.23084,1.12737c-0.01826,0.03652 -0.03652,0.07304 -0.05546,0.11091c-0.22723,0.00474 -0.45446,0.00812 -0.68169,0.01014c-0.09671,0.0027 -0.09671,0.00271 -0.19612,0.00474c-0.06154,0 -0.12376,0.00068 -0.18733,0.00135c-0.05748,0.00068 -0.1143,0.00203 -0.17313,0.0027c-0.1738,-0.02231 -0.19883,-0.05816 -0.31244,-0.1853c-0.10347,-0.05952 -0.20897,-0.11632 -0.31583,-0.17043c-0.09468,-0.04801 -0.09469,-0.04801 -0.19072,-0.09739c-0.03314,-0.01691 -0.06628,-0.03381 -0.10077,-0.05072c-0.1711,-0.08657 -0.3422,-0.17449 -0.51263,-0.2624c-0.03314,-0.01691 -0.06695,-0.03449 -0.10076,-0.05208c-0.29757,-0.15352 -0.58634,-0.31853 -0.87511,-0.4876c-0.23399,-0.13188 -0.47408,-0.24955 -0.71551,-0.3679c-0.28607,-0.14135 -0.56538,-0.29418 -0.84401,-0.45109c-0.30974,-0.17448 -0.62218,-0.34221 -0.94139,-0.49842c-0.36317,-0.17854 -0.71618,-0.37196 -1.06853,-0.57079c-0.26781,-0.15014 -0.53901,-0.29148 -0.81493,-0.42673c-0.36317,-0.17854 -0.71551,-0.37196 -1.06786,-0.57079c-0.30366,-0.16975 -0.61069,-0.32733 -0.92313,-0.48016c-0.33138,-0.16366 -0.65397,-0.34355 -0.97589,-0.52479c-0.2225,-0.12511 -0.44567,-0.2455 -0.67426,-0.35708c-0.32394,-0.15893 -0.63909,-0.33206 -0.95559,-0.50586c-0.36857,-0.20221 -0.73648,-0.40171 -1.1152,-0.58499c-0.12511,-0.06357 -0.24684,-0.12917 -0.36925,-0.19815c-0.03652,-0.02096 -0.07372,-0.04126 -0.11159,-0.06222c-0.07101,-0.0399 -0.1427,-0.08115 -0.21303,-0.1224c-0.24008,-0.1339 -0.4105,-0.17989 -0.68305,-0.14067c-0.16975,0.07101 -0.32395,0.16163 -0.48152,0.25631c-0.08927,0.05208 -0.17854,0.10347 -0.26781,0.15487c-0.04261,0.02502 -0.08588,0.05004 -0.12984,0.07574c-0.1427,0.08183 -0.2881,0.15487 -0.43621,0.22656c-0.32394,0.15893 -0.63909,0.33206 -0.9556,0.50586c-0.63638,0.34964 -0.63639,0.34964 -0.94139,0.49842c-0.29689,0.14608 -0.58634,0.305 -0.87579,0.46461c-0.58567,0.32259 -1.17944,0.62962 -1.77525,0.93328c-0.38143,0.19477 -0.75677,0.39766 -1.12805,0.61204c-0.22724,0.13188 -0.45649,0.25225 -0.6932,0.36655c-0.32462,0.15893 -0.64112,0.328 -0.9556,0.50587c-0.34558,0.1941 -0.69387,0.37737 -1.05027,0.55185c-0.28269,0.13999 -0.55793,0.2908 -0.83251,0.44567c-0.3449,0.1941 -0.69319,0.3767 -1.04892,0.55118c-0.33679,0.16637 -0.66344,0.34829 -0.98941,0.53427c-0.18463,0.10483 -0.36587,0.20153 -0.56267,0.28133c-0.17381,0.05478 -0.17381,0.05478 -0.22385,0.18463c-0.22723,0.00474 -0.45446,0.00812 -0.6817,0.01014c-0.09739,0.0027 -0.09738,0.00271 -0.19612,0.00474c-0.06154,0 -0.12376,0.00068 -0.18733,0.00135c-0.05749,0.00068 -0.11429,0.00203 -0.17313,0.0027c-0.16908,-0.02164 -0.20695,-0.0568 -0.31245,-0.1853c-0.09603,-0.05883 -0.19275,-0.11632 -0.2908,-0.17313c-0.49707,-0.31244 -0.82236,-0.77367 -0.96033,-1.34784c-0.02299,-0.14337 -0.03382,-0.27999 -0.03652,-0.42539c-0.00135,-0.04734 -0.0027,-0.094 -0.00406,-0.1427c0.04599,-0.46867 0.22385,-0.92787 0.3706,-1.37422c0.01758,-0.05343 0.03517,-0.10753 0.05343,-0.16298c0.05749,-0.17448 0.11497,-0.34897 0.17177,-0.52277c0.06019,-0.18328 0.12038,-0.36654 0.18057,-0.54982c0.0399,-0.12309 0.08048,-0.24617 0.12038,-0.36926c0.16434,-0.50113 0.32732,-1.00226 0.48896,-1.50406c0.21506,-0.66412 0.43215,-1.32755 0.65397,-1.98963c0.18463,-0.55185 0.36385,-1.10574 0.54306,-1.65941c0.21709,-0.66966 0.43553,-1.33857 0.65938,-2.00607c0.0399,-0.12025 0.0798,-0.24049 0.11971,-0.36074c0.01352,-0.04017 0.02705,-0.08027 0.04057,-0.12166c0.02773,-0.08244 0.05478,-0.16488 0.0825,-0.24739c0.07913,-0.23718 0.15825,-0.47428 0.23806,-0.71119c0.09197,-0.27274 0.18327,-0.54576 0.27389,-0.81898c0.03584,-0.10618 0.07101,-0.21222 0.10753,-0.31813c0.05005,-0.14791 0.09942,-0.29614 0.14811,-0.44446c0.01488,-0.04382 0.03043,-0.08758 0.04598,-0.13269c0.08657,-0.26774 0.11091,-0.46386 0.03923,-0.74425c-0.11497,-0.1475 -0.11497,-0.1475 -0.26984,-0.27018c-0.05545,-0.04727 -0.11023,-0.09448 -0.16772,-0.1431c-0.05681,-0.04707 -0.11429,-0.09408 -0.17178,-0.14094c-0.05072,-0.04254 -0.10144,-0.085 -0.15419,-0.12883c-0.15081,-0.12444 -0.3023,-0.24739 -0.45446,-0.36993c-0.32733,-0.26578 -0.65194,-0.53393 -0.97317,-0.80708c-0.24752,-0.21073 -0.49843,-0.41666 -0.75339,-0.61888c-0.32733,-0.26247 -0.64924,-0.53095 -0.97318,-0.79809c-0.20559,-0.16975 -0.41118,-0.33929 -0.61677,-0.50884c-0.03923,-0.03246 -0.07844,-0.06499 -0.11902,-0.09847c-0.31312,-0.2576 -0.62624,-0.51452 -0.94004,-0.7709c-0.40171,-0.32854 -0.80275,-0.65823 -1.20311,-0.98846c-0.36723,-0.30257 -0.73512,-0.6044 -1.10438,-0.90467c-0.30365,-0.24766 -0.60325,-0.4991 -0.90149,-0.75393c-0.19274,-0.16379 -0.38954,-0.32076 -0.5904,-0.47482c-0.53832,-0.41457 -0.99684,-0.85773 -1.15983,-1.54998c-0.01285,-0.04666 -0.01285,-0.04666 -0.0257,-0.09421c-0.03652,-0.01826 -0.07304,-0.03659 -0.11024,-0.05539c0,-0.18287 0,-0.36581 0,-0.55422c0.03652,-0.01826 0.07304,-0.03659 0.11024,-0.05539c0.03584,-0.10164 0.06763,-0.20471 0.09738,-0.30832c0.18666,-0.58086 0.57823,-1.02538 1.11791,-1.31619c0.40239,-0.17962 0.83859,-0.22507 1.27277,-0.26991c0.07845,-0.00845 0.07845,-0.00845 0.15758,-0.01698c0.16637,-0.01779 0.33206,-0.03516 0.49775,-0.05254c0.10685,-0.01143 0.21371,-0.02286 0.32056,-0.03429c1.05231,-0.11254 2.10528,-0.22013 3.15826,-0.32854c3.01218,-0.3092 3.01219,-0.3092 6.02302,-0.63125c0.05816,-0.00636 0.11632,-0.01278 0.17651,-0.01934c0.26984,-0.02955 0.53968,-0.05944 0.80952,-0.09015c0.23941,-0.02705 0.47948,-0.05107 0.71889,-0.07413c0.13188,-0.01346 0.26376,-0.02685 0.39496,-0.04023c0.06222,-0.00548 0.12376,-0.01102 0.18733,-0.01671c0.05749,-0.00602 0.11496,-0.01204 0.17448,-0.01826c0.05072,-0.00487 0.10145,-0.00974 0.15352,-0.01481c0.17313,-0.04835 0.24414,-0.12282 0.35843,-0.25983c0.08589,-0.16298 0.08589,-0.16298 0.16028,-0.34957c0.0142,-0.03469 0.0284,-0.06939 0.04328,-0.1051c0.03179,-0.0754 0.06289,-0.15081 0.09401,-0.22635c0.06695,-0.16346 0.13458,-0.32645 0.20288,-0.4895c0.03584,-0.08636 0.07169,-0.17272 0.10753,-0.25915c0.18395,-0.44121 0.37399,-0.87978 0.56403,-1.31808c0.34694,-0.79843 0.68914,-1.59861 1.0266,-2.40096c0.36519,-0.86849 0.7331,-1.73596 1.10506,-2.60181c0.10415,-0.24258 0.20761,-0.48524 0.31176,-0.72796c0.08792,-0.20539 0.17584,-0.41078 0.26376,-0.61616c0.16772,-0.39042 0.33476,-0.78105 0.49977,-1.17262c0.07439,-0.17577 0.14879,-0.3514 0.22317,-0.52703c0.03517,-0.08332 0.07034,-0.16664 0.10483,-0.25002c0.37737,-0.90068 0.70131,-1.52632 1.63324,-1.92783c0.15554,-0.05714 0.30771,-0.08508 0.47205,-0.10672c0.01826,-0.03659 0.03652,-0.07317 0.05545,-0.11084z" fill="#f6b816" stroke="none" stroke-width="1" stroke-miterlimit="10"/><path d="M240.1319,160.15132c0.39427,0 0.59986,0.08318 0.88255,0.35917c0.20085,0.24576 0.31448,0.51973 0.43148,0.81256c0.0257,0.06161 0.0514,0.12322 0.07845,0.18665c0.14946,0.35884 0.29215,0.72018 0.42741,1.08463c0.09197,0.23555 0.20019,0.46285 0.30772,0.69171c0.20154,0.43357 0.38683,0.87316 0.55523,1.32052c0.11632,0.30629 0.25023,0.60054 0.38954,0.89668c0.0771,0.16934 0.14405,0.33929 0.20898,0.51344c0.13661,0.36445 0.29554,0.71687 0.4592,1.06975c0.11565,0.25171 0.22047,0.50465 0.31853,0.76387c0.15149,0.39989 0.32665,0.78814 0.50451,1.17687c0.20559,0.44919 0.40171,0.89953 0.57552,1.36198c0.09062,0.23751 0.19275,0.46874 0.29621,0.70091c0.01691,0.03753 0.03381,0.07507 0.05072,0.11375c0.01691,0.0374 0.03314,0.07494 0.05072,0.11348c0.0514,0.11767 0.10077,0.23609 0.14946,0.35484c0.28877,0.72194 0.28878,0.72194 0.89676,1.16389c0.33679,0.1243 0.66952,0.15196 1.0266,0.16934c0.27052,0.01481 0.53427,0.03747 0.80208,0.08298c0.33882,0.05708 0.67764,0.0863 1.01984,0.11402c0.33477,0.02732 0.66749,0.05471 0.99887,0.11064c0.34355,0.05735 0.68643,0.08704 1.03269,0.11652c0.34829,0.03036 0.6959,0.06533 1.04352,0.10361c0.04396,0.00487 0.08859,0.00973 0.1339,0.01474c0.2225,0.02448 0.44432,0.04923 0.66614,0.07432c0.40172,0.04484 0.80208,0.08387 1.20515,0.10578c0.37804,0.0215 0.74527,0.0704 1.11858,0.13113c0.59919,0.09204 1.195,0.14865 1.7996,0.19072c0.67967,0.04734 1.35866,0.09651 2.03427,0.18942c0.05614,0.0067 0.11226,0.01339 0.16975,0.02022c0.39495,0.05965 0.66073,0.20849 0.94342,0.49132c0.09197,0.1268 0.15419,0.24428 0.22114,0.38718c0.01826,0.03645 0.03652,0.07297 0.05546,0.11057c0.04937,0.52629 -0.04531,0.84218 -0.33206,1.2719c-0.24414,0.02894 -0.40036,-0.0165 -0.61609,-0.12789c-0.31718,-0.15176 -0.6276,-0.2394 -0.97047,-0.31447c-0.06154,-0.01379 -0.12376,-0.0276 -0.18733,-0.0418c-1.47566,-0.31921 -2.97431,-0.48686 -4.47635,-0.62185c-0.05275,-0.00474 -0.1055,-0.00953 -0.16028,-0.01441c-1.6826,-0.15041 -3.36318,-0.23914 -5.05119,-0.28451c-0.06966,-0.00189 -0.13864,-0.00378 -0.21033,-0.00568c-0.12917,-0.00351 -0.25902,-0.00676 -0.38819,-0.00974c-0.05816,-0.00149 -0.11632,-0.00298 -0.17651,-0.00454c-0.05004,-0.00122 -0.10008,-0.00237 -0.15148,-0.00359c-0.2225,-0.01237 -0.44432,-0.04003 -0.66615,-0.06465c0,0.87599 0,1.75193 0,2.65443c-0.03652,0.01826 -0.07304,0.03652 -0.11023,0.05532c-0.01826,-0.87593 -0.03652,-1.75192 -0.05545,-2.65443c-0.38548,0.14067 -0.38548,0.14067 -0.5532,0.44236c-0.02638,0.159 -0.02637,0.159 -0.02502,0.33003c-0.00068,0.06512 -0.00203,0.13025 -0.00339,0.19734c-0.00068,0.06979 -0.00135,0.13958 -0.00203,0.21147c-0.00068,0.07189 -0.00203,0.14378 -0.00338,0.21783c-0.00203,0.15176 -0.00405,0.30345 -0.00541,0.45521c-0.00203,0.19484 -0.00473,0.38961 -0.00744,0.58445c-0.0027,0.18571 -0.00541,0.37134 -0.00744,0.55705c-0.00135,0.0702 -0.00203,0.1404 -0.00338,0.21276c-0.00068,0.06445 -0.00135,0.12884 -0.00135,0.19524c-0.00068,0.05701 -0.00136,0.11403 -0.00203,0.17273c-0.00879,0.12653 -0.00879,0.12653 0.06087,0.18395c0.27051,1.4739 -0.09603,3.18079 -0.52074,4.59064c-0.03044,0.10347 -0.05748,0.20789 -0.08386,0.31238c-0.2536,0.99185 -0.77638,1.8063 -1.47836,2.53993c-0.06627,0.06939 -0.13187,0.13945 -0.1968,0.20959c-0.867,0.90386 -1.98085,1.59414 -3.05614,2.21957c-0.09874,0.05789 -0.19747,0.11646 -0.29554,0.17557c-0.40374,0.24116 -0.81696,0.44783 -1.24505,0.64274c-0.06222,0.02894 -0.12444,0.05796 -0.18868,0.08778c-0.46867,0.21526 -0.46867,0.21527 -0.72363,0.28181c-0.24346,0.07656 -0.40848,0.21445 -0.60528,0.37351c-0.08318,0.06554 -0.16705,0.131 -0.25023,0.19639c-0.04328,0.03382 -0.08589,0.06763 -0.13052,0.10252c-0.21303,0.16603 -0.43147,0.32591 -0.64924,0.48565c-0.08859,0.06458 -0.17651,0.12924 -0.26442,0.19382c-0.04396,0.03219 -0.08792,0.06445 -0.13323,0.09766c-0.13797,0.1011 -0.27458,0.20241 -0.41186,0.30453c-0.41186,0.30568 -0.82304,0.60866 -1.25248,0.88864c-0.1968,0.12917 -0.39022,0.26239 -0.58364,0.39562c-5.52933,3.79397 -5.52932,3.79398 -6.46125,3.70876c-0.34355,-0.10888 -0.5478,-0.2766 -0.75271,-0.57079c-0.08589,-0.16637 -0.10077,-0.26984 -0.10077,-0.45582c-0.00135,-0.0514 -0.00203,-0.1028 -0.00338,-0.15555c0.03246,-0.23941 0.10415,-0.44905 0.18327,-0.67629c0.06898,-0.19747 0.13323,-0.39563 0.19612,-0.59446c0.023,-0.07101 0.04599,-0.1427 0.06831,-0.21371c0.01758,-0.05343 0.01758,-0.05343 0.03517,-0.10888c0.1826,-0.57011 0.36993,-1.13819 0.57417,-1.70222c0.07575,-0.21506 0.13931,-0.43418 0.20154,-0.65397c0.16569,-0.57153 0.36181,-1.13177 0.55793,-1.69349c0.17584,-0.50478 0.34355,-1.00963 0.49166,-1.5234c0.10483,-0.36465 0.22724,-0.72262 0.3537,-1.08044c0.04193,-0.12038 0.08454,-0.24075 0.12646,-0.36113c0.02029,-0.05667 0.0399,-0.11328 0.06019,-0.17165c0.14202,-0.40706 0.27119,-0.81669 0.39427,-1.22989c0.02908,-0.09725 0.05749,-0.19443 0.08657,-0.29168c0.01285,-0.04227 0.02502,-0.08454 0.03788,-0.12816c0.0284,-0.09326 0.05883,-0.18591 0.08995,-0.27836c0.00811,-0.11733 0.01217,-0.23494 0.01352,-0.35254c0.00136,-0.06202 0.0027,-0.12404 0.00474,-0.18795c-0.02029,-0.19572 -0.07643,-0.29378 -0.18463,-0.45494c0,-0.03652 0,-0.07297 0,-0.11057c-0.02908,-0.0119 -0.05748,-0.0238 -0.08791,-0.03611c-0.1853,-0.10374 -0.33747,-0.24238 -0.4964,-0.3821c-0.06898,-0.06039 -0.13863,-0.12079 -0.20829,-0.18105c-0.03449,-0.02975 -0.06898,-0.05957 -0.10415,-0.09028c-0.23197,-0.19903 -0.47002,-0.39015 -0.70739,-0.58242c-0.3564,-0.28958 -0.70943,-0.58255 -1.05975,-0.87978c-0.28877,-0.24508 -0.58228,-0.48496 -0.87579,-0.72396c-0.32664,-0.26531 -0.65127,-0.53278 -0.97183,-0.80533c-0.25428,-0.21627 -0.51194,-0.42761 -0.77367,-0.6353c-0.36993,-0.29432 -0.73377,-0.59594 -1.09288,-0.9027c-0.25091,-0.21404 -0.50722,-0.42004 -0.76759,-0.62219c-1.05501,-0.82263 -1.055,-0.82264 -1.11993,-1.30477c-0.00068,-0.61387 -0.00068,-0.61387 0.24481,-0.87268c0.25158,-0.23413 0.40578,-0.33875 0.75204,-0.33916c0.10076,-0.00014 0.10076,-0.00014 0.20356,-0.00034c0.07574,0.0002 0.15148,0.00047 0.22723,0.00074c0.05816,0.00014 0.05816,0.00014 0.11767,0.00021c1.6055,0.00318 3.21102,0.03882 4.81585,0.09312c0.58567,0.0192 1.17133,0.03132 1.75699,0.03395c0.0825,0.00041 0.16502,0.00101 0.24752,0.00176c0.78111,0.00683 1.523,-0.05606 2.2615,-0.32604c0.05478,-0.01961 0.10956,-0.03916 0.16569,-0.05938c0.40577,-0.14946 0.76758,-0.31873 1.12399,-0.56619c0.05478,-0.03787 0.10956,-0.07575 0.16637,-0.1147c0.29554,-0.20883 0.29554,-0.20884 0.56267,-0.45149c0.10076,-0.09745 0.10077,-0.09746 0.211,-0.09746c0.01488,-0.03328 0.02975,-0.06654 0.04531,-0.10083c0.06627,-0.12255 0.12714,-0.18497 0.23129,-0.27586c0.984,-0.96344 1.35663,-2.41116 1.70086,-3.69834c0.16975,-0.63409 0.36248,-1.26094 0.5559,-1.8884c0.15825,-0.51641 0.31313,-1.03202 0.44906,-1.55492c0.18868,-0.71308 0.40712,-1.41879 0.62015,-2.12476c0.11429,-0.3777 0.2225,-0.75663 0.32732,-1.13711c0.11158,-0.4053 0.22926,-0.80858 0.34761,-1.21191c0.16231,-0.55503 0.32124,-1.11101 0.47949,-1.66725z" fill="#facf21" stroke="none" stroke-width="1" stroke-miterlimit="10"/><path d="M239.90738,158.46025c0.10956,0 0.21911,0 0.33205,0c0.01826,0.03659 0.03652,0.0731 0.05545,0.11084c0.10888,0.03456 0.21845,0.06506 0.32868,0.09353c0.64382,0.19301 1.05568,0.54259 1.38842,1.12569c0.14067,0.28898 0.25563,0.58884 0.37534,0.88701c0.11835,0.29081 0.24482,0.57829 0.37061,0.86613c0.38683,0.88634 0.76421,1.7764 1.13752,2.66849c0.23806,0.56943 0.48219,1.13617 0.72836,1.70242c0.35235,0.81222 0.69725,1.62755 1.03945,2.44423c0.23332,0.5557 0.46934,1.1102 0.70605,1.66421c0.03652,0.08609 0.07371,0.17218 0.11023,0.25834c0.10145,0.23697 0.20289,0.47367 0.30568,0.7101c0.04193,0.09745 0.08318,0.19524 0.12444,0.2931c0.02299,0.05437 0.04666,0.10874 0.07034,0.16474c0.01961,0.04612 0.03922,0.09231 0.05951,0.13986c0.08048,0.13878 0.15081,0.20221 0.28945,0.28269c0.13593,0.03503 0.13593,0.03503 0.28607,0.0468c0.05681,0.00609 0.11361,0.01217 0.17177,0.01846c0.06154,0.00595 0.12241,0.01183 0.18598,0.01792c0.13187,0.01387 0.26375,0.0278 0.3963,0.04173c0.06695,0.0069 0.13391,0.01373 0.20357,0.02083c0.23332,0.02442 0.46596,0.05201 0.6986,0.08c0.63639,0.07608 1.27278,0.14108 1.91052,0.20377c0.98603,0.09712 1.9707,0.20174 2.95605,0.30832c0.05681,0.00609 0.0568,0.00608 0.11429,0.01237c0.42944,0.04646 0.85888,0.09299 1.289,0.13959c0.69455,0.07534 1.38977,0.15048 2.085,0.22547c0.23129,0.02496 0.46191,0.04991 0.69319,0.07494c0.17854,0.01934 0.35708,0.03854 0.53562,0.05782c0.06695,0.00731 0.13458,0.01454 0.20356,0.02198c0.44297,0.04761 0.88661,0.09327 1.33093,0.13445c0.74053,0.07101 1.28359,0.27301 1.80636,0.8156c0.12647,0.15643 0.21709,0.32591 0.30569,0.50546c0.05072,0.11016 0.05072,0.11017 0.16907,0.15636c0.00473,0.22737 0.00744,0.4548 0.01014,0.6823c0.00203,0.09705 0.00203,0.09705 0.00405,0.19606c0.00068,0.06195 0.00135,0.1239 0.00203,0.1878c0.00068,0.05714 0.00135,0.11429 0.0027,0.17319c-0.02231,0.16813 -0.05748,0.20782 -0.1853,0.31231c-0.04396,0.07737 -0.08521,0.15602 -0.12444,0.23555c-0.24211,0.44148 -0.61204,0.71308 -1.00429,1.01667c-0.24414,0.18888 -0.48016,0.38501 -0.71281,0.58702c-0.25293,0.21919 -0.50857,0.43289 -0.77164,0.64058c-0.20965,0.16765 -0.4166,0.33848 -0.62354,0.50938c-0.04058,0.03382 -0.08183,0.06756 -0.12376,0.10239c-0.08048,0.06621 -0.16028,0.13242 -0.24076,0.19856c-0.28742,0.23737 -0.57687,0.47346 -0.86565,0.70895c-0.27322,0.2227 -0.54374,0.44805 -0.81222,0.6769c-0.24685,0.21067 -0.49775,0.41402 -0.75407,0.61312c-0.29757,0.23082 -0.58431,0.47097 -0.86835,0.71741c-0.31312,0.27051 -0.63436,0.53069 -0.9556,0.79078c-0.35235,0.28472 -0.70063,0.57355 -1.0496,0.86179c-0.12444,0.10266 -0.24955,0.20505 -0.37399,0.30745c-0.06289,0.05133 -0.06289,0.05133 -0.12646,0.10368c-0.07845,0.06472 -0.15758,0.12931 -0.23603,0.19383c-0.07236,0.05958 -0.14473,0.11963 -0.21641,0.18023c-0.07642,0.06303 -0.15554,0.12342 -0.23534,0.18171c-0.04058,0.03104 -0.08116,0.06208 -0.12309,0.09414c-0.03719,0.02692 -0.07439,0.05383 -0.11294,0.08163c-0.13188,0.19599 -0.10753,0.39042 -0.08116,0.61955c0.03314,0.15906 0.08116,0.30994 0.1339,0.46346c0.0142,0.04301 0.02841,0.08602 0.04261,0.13039c0.04667,0.14053 0.094,0.2808 0.14202,0.42099c0.03314,0.09968 0.06628,0.19937 0.09874,0.29912c0.08454,0.25354 0.16907,0.50675 0.25429,0.75995c0.07169,0.21215 0.14202,0.4245 0.21303,0.63686c0.07913,0.23778 0.15825,0.4755 0.23738,0.71314c0.25834,0.77273 0.5106,1.54742 0.76286,2.32217c0.24008,0.73648 0.48219,1.47227 0.72836,2.20673c0.25225,0.75068 0.49301,1.50474 0.73106,2.26015c0.23467,0.7473 0.47746,1.49122 0.73039,2.23175c0.25158,0.74257 0.42201,1.36407 0.0913,2.11137c-0.27592,0.53156 -0.69455,0.87241 -1.23084,1.12737c-0.01826,0.03652 -0.03652,0.07304 -0.05546,0.11091c-0.22723,0.00474 -0.45446,0.00812 -0.68169,0.01014c-0.09671,0.0027 -0.09671,0.00271 -0.19612,0.00474c-0.06154,0 -0.12376,0.00068 -0.18733,0.00135c-0.05748,0.00068 -0.1143,0.00203 -0.17313,0.0027c-0.1738,-0.02231 -0.19883,-0.05816 -0.31244,-0.1853c-0.10347,-0.05952 -0.20897,-0.11632 -0.31583,-0.17043c-0.09468,-0.04801 -0.09469,-0.04801 -0.19072,-0.09739c-0.03314,-0.01691 -0.06628,-0.03381 -0.10077,-0.05072c-0.1711,-0.08657 -0.3422,-0.17449 -0.51263,-0.2624c-0.03314,-0.01691 -0.06695,-0.03449 -0.10076,-0.05208c-0.29757,-0.15352 -0.58634,-0.31853 -0.87511,-0.4876c-0.23399,-0.13188 -0.47408,-0.24955 -0.71551,-0.3679c-0.28607,-0.14135 -0.56538,-0.29418 -0.84401,-0.45109c-0.30974,-0.17448 -0.62218,-0.34221 -0.94139,-0.49842c-0.36317,-0.17854 -0.71618,-0.37196 -1.06853,-0.57079c-0.26781,-0.15014 -0.53901,-0.29148 -0.81493,-0.42673c-0.36317,-0.17854 -0.71551,-0.37196 -1.06786,-0.57079c-0.30366,-0.16975 -0.61069,-0.32733 -0.92313,-0.48016c-0.33138,-0.16366 -0.65397,-0.34355 -0.97589,-0.52479c-0.2225,-0.12511 -0.44567,-0.2455 -0.67426,-0.35708c-0.32394,-0.15893 -0.63909,-0.33206 -0.95559,-0.50586c-0.36857,-0.20221 -0.73648,-0.40171 -1.1152,-0.58499c-0.12511,-0.06357 -0.24684,-0.12917 -0.36925,-0.19815c-0.03652,-0.02096 -0.07372,-0.04126 -0.11159,-0.06222c-0.07101,-0.0399 -0.1427,-0.08115 -0.21303,-0.1224c-0.24008,-0.1339 -0.4105,-0.17989 -0.68305,-0.14067c-0.16975,0.07101 -0.32395,0.16163 -0.48152,0.25631c-0.08927,0.05208 -0.17854,0.10347 -0.26781,0.15487c-0.04261,0.02502 -0.08588,0.05004 -0.12984,0.07574c-0.1427,0.08183 -0.2881,0.15487 -0.43621,0.22656c-0.32394,0.15893 -0.63909,0.33206 -0.9556,0.50586c-0.63638,0.34964 -0.63639,0.34964 -0.94139,0.49842c-0.29689,0.14608 -0.58634,0.305 -0.87579,0.46461c-0.58567,0.32259 -1.17944,0.62962 -1.77525,0.93328c-0.38143,0.19477 -0.75677,0.39766 -1.12805,0.61204c-0.22724,0.13188 -0.45649,0.25225 -0.6932,0.36655c-0.32462,0.15893 -0.64112,0.328 -0.9556,0.50587c-0.34558,0.1941 -0.69387,0.37737 -1.05027,0.55185c-0.28269,0.13999 -0.55793,0.2908 -0.83251,0.44567c-0.3449,0.1941 -0.69319,0.3767 -1.04892,0.55118c-0.33679,0.16637 -0.66344,0.34829 -0.98941,0.53427c-0.18463,0.10483 -0.36587,0.20153 -0.56267,0.28133c-0.17381,0.05478 -0.17381,0.05478 -0.22385,0.18463c-0.22723,0.00474 -0.45446,0.00812 -0.6817,0.01014c-0.09739,0.0027 -0.09738,0.00271 -0.19612,0.00474c-0.06154,0 -0.12376,0.00068 -0.18733,0.00135c-0.05749,0.00068 -0.11429,0.00203 -0.17313,0.0027c-0.16908,-0.02164 -0.20695,-0.0568 -0.31245,-0.1853c-0.09603,-0.05883 -0.19275,-0.11632 -0.2908,-0.17313c-0.49707,-0.31244 -0.82236,-0.77367 -0.96033,-1.34784c-0.02299,-0.14337 -0.03382,-0.27999 -0.03652,-0.42539c-0.00135,-0.04734 -0.0027,-0.094 -0.00406,-0.1427c0.04599,-0.46867 0.22385,-0.92787 0.3706,-1.37422c0.01758,-0.05343 0.03517,-0.10753 0.05343,-0.16298c0.05749,-0.17448 0.11497,-0.34897 0.17177,-0.52277c0.06019,-0.18328 0.12038,-0.36654 0.18057,-0.54982c0.0399,-0.12309 0.08048,-0.24617 0.12038,-0.36926c0.16434,-0.50113 0.32732,-1.00226 0.48896,-1.50406c0.21506,-0.66412 0.43215,-1.32755 0.65397,-1.98963c0.18463,-0.55185 0.36385,-1.10574 0.54306,-1.65941c0.21709,-0.66966 0.43553,-1.33857 0.65938,-2.00607c0.0399,-0.12025 0.0798,-0.24049 0.11971,-0.36074c0.01352,-0.04017 0.02705,-0.08027 0.04057,-0.12166c0.02773,-0.08244 0.05478,-0.16488 0.0825,-0.24739c0.07913,-0.23718 0.15825,-0.47428 0.23806,-0.71119c0.09197,-0.27274 0.18327,-0.54576 0.27389,-0.81898c0.03584,-0.10618 0.07101,-0.21222 0.10753,-0.31813c0.05005,-0.14791 0.09942,-0.29614 0.14811,-0.44446c0.01488,-0.04382 0.03043,-0.08758 0.04598,-0.13269c0.08657,-0.26774 0.11091,-0.46386 0.03923,-0.74425c-0.11497,-0.1475 -0.11497,-0.1475 -0.26984,-0.27018c-0.05545,-0.04727 -0.11023,-0.09448 -0.16772,-0.1431c-0.05681,-0.04707 -0.11429,-0.09408 -0.17178,-0.14094c-0.05072,-0.04254 -0.10144,-0.085 -0.15419,-0.12883c-0.15081,-0.12444 -0.3023,-0.24739 -0.45446,-0.36993c-0.32733,-0.26578 -0.65194,-0.53393 -0.97317,-0.80708c-0.24752,-0.21073 -0.49843,-0.41666 -0.75339,-0.61888c-0.32733,-0.26247 -0.64924,-0.53095 -0.97318,-0.79809c-0.20559,-0.16975 -0.41118,-0.33929 -0.61677,-0.50884c-0.03923,-0.03246 -0.07844,-0.06499 -0.11902,-0.09847c-0.31312,-0.2576 -0.62624,-0.51452 -0.94004,-0.7709c-0.40171,-0.32854 -0.80275,-0.65823 -1.20311,-0.98846c-0.36723,-0.30257 -0.73512,-0.6044 -1.10438,-0.90467c-0.30365,-0.24766 -0.60325,-0.4991 -0.90149,-0.75393c-0.19274,-0.16379 -0.38954,-0.32076 -0.5904,-0.47482c-0.53832,-0.41457 -0.99684,-0.85773 -1.15983,-1.54998c-0.01285,-0.04666 -0.01285,-0.04666 -0.0257,-0.09421c-0.03652,-0.01826 -0.07304,-0.03659 -0.11024,-0.05539c0,-0.18287 0,-0.36581 0,-0.55422c0.03652,-0.01826 0.07304,-0.03659 0.11024,-0.05539c0.03584,-0.10164 0.06763,-0.20471 0.09738,-0.30832c0.18666,-0.58086 0.57823,-1.02538 1.11791,-1.31619c0.40239,-0.17962 0.83859,-0.22507 1.27277,-0.26991c0.07845,-0.00845 0.07845,-0.00845 0.15758,-0.01698c0.16637,-0.01779 0.33206,-0.03516 0.49775,-0.05254c0.10685,-0.01143 0.21371,-0.02286 0.32056,-0.03429c1.05231,-0.11254 2.10528,-0.22013 3.15826,-0.32854c3.01218,-0.3092 3.01219,-0.3092 6.02302,-0.63125c0.05816,-0.00636 0.11632,-0.01278 0.17651,-0.01934c0.26984,-0.02955 0.53968,-0.05944 0.80952,-0.09015c0.23941,-0.02705 0.47948,-0.05107 0.71889,-0.07413c0.13188,-0.01346 0.26376,-0.02685 0.39496,-0.04023c0.06222,-0.00548 0.12376,-0.01102 0.18733,-0.01671c0.05749,-0.00602 0.11496,-0.01204 0.17448,-0.01826c0.05072,-0.00487 0.10145,-0.00974 0.15352,-0.01481c0.17313,-0.04835 0.24414,-0.12282 0.35843,-0.25983c0.08589,-0.16298 0.08589,-0.16298 0.16028,-0.34957c0.0142,-0.03469 0.0284,-0.06939 0.04328,-0.1051c0.03179,-0.0754 0.06289,-0.15081 0.09401,-0.22635c0.06695,-0.16346 0.13458,-0.32645 0.20288,-0.4895c0.03584,-0.08636 0.07169,-0.17272 0.10753,-0.25915c0.18395,-0.44121 0.37399,-0.87978 0.56403,-1.31808c0.34694,-0.79843 0.68914,-1.59861 1.0266,-2.40096c0.36519,-0.86849 0.7331,-1.73596 1.10506,-2.60181c0.10415,-0.24258 0.20761,-0.48524 0.31176,-0.72796c0.08792,-0.20539 0.17584,-0.41078 0.26376,-0.61616c0.16772,-0.39042 0.33476,-0.78105 0.49977,-1.17262c0.07439,-0.17577 0.14879,-0.3514 0.22317,-0.52703c0.03517,-0.08332 0.07034,-0.16664 0.10483,-0.25002c0.37737,-0.90068 0.70131,-1.52632 1.63324,-1.92783c0.15554,-0.05714 0.30771,-0.08508 0.47205,-0.10672c0.01826,-0.03659 0.03652,-0.07317 0.05545,-0.11084zM238.91053,160.56616c-0.19747,0.36059 -0.351,0.73999 -0.50925,1.11878c-0.0541,0.12911 -0.1082,0.25821 -0.1623,0.38731c-0.04058,0.09583 -0.04058,0.09583 -0.08184,0.19369c-0.11091,0.26301 -0.22385,0.52507 -0.33747,0.7872c-0.16231,0.37628 -0.31718,0.75481 -0.46731,1.1361c-0.1427,0.36222 -0.29554,0.71632 -0.46326,1.06745c-0.14202,0.2977 -0.2624,0.60189 -0.3821,0.90879c-0.09874,0.24746 -0.2083,0.48963 -0.31718,0.73235c-0.11902,0.26409 -0.23467,0.52608 -0.32935,0.80012c-0.11023,0.32015 -0.25563,0.62212 -0.40171,0.92739c-0.09062,0.19369 -0.17584,0.38907 -0.25902,0.58621c-0.04599,0.108 -0.09197,0.21594 -0.13796,0.32387c-0.33477,0.78591 -0.33477,0.78591 -0.65465,1.57771c-0.57417,1.45145 -0.57417,1.45145 -1.07868,1.69241c-0.26713,0.10253 -0.516,0.15291 -0.80004,0.1778c-0.04328,0.00419 -0.08589,0.00846 -0.12985,0.01285c-0.09062,0.00893 -0.18124,0.01765 -0.27187,0.02617c-0.18598,0.01752 -0.37128,0.03679 -0.55726,0.05599c-0.28269,0.02921 -0.56605,0.05762 -0.84874,0.08603c-0.14135,0.01414 -0.28269,0.02848 -0.42336,0.04281c-0.0426,0.00419 -0.08522,0.00839 -0.12849,0.01272c-0.22656,0.02313 -0.44973,0.05464 -0.67426,0.09265c-0.18801,0.01197 -0.37601,0.02144 -0.56402,0.02867c-0.23399,0.01143 -0.45988,0.03854 -0.69049,0.07892c-0.38075,0.06662 -0.76285,0.10476 -1.14766,0.14182c-0.4078,0.03956 -0.81425,0.08203 -1.22002,0.14222c-0.27254,0.04017 -0.53697,0.06661 -0.81155,0.07601c-0.95897,0.04295 -1.91727,0.15515 -2.86543,0.30115c-0.29756,0.04436 -0.59581,0.07791 -0.89608,0.10604c-0.05748,0.00541 -0.05748,0.00541 -0.117,0.01095c-0.19274,0.01785 -0.38481,0.03496 -0.57755,0.0514c-0.07034,0.00622 -0.14066,0.01257 -0.21371,0.019c-0.09401,0.00798 -0.09401,0.00798 -0.19004,0.01617c-0.40307,0.05741 -0.72633,0.21303 -0.99414,0.52399c-0.26984,0.36046 -0.28269,0.66262 -0.23535,1.10836c0.18327,0.65627 0.79261,1.02762 1.30388,1.42406c0.27525,0.21391 0.53901,0.43864 0.80276,0.66675c0.22452,0.19457 0.45446,0.38183 0.68778,0.56626c0.1684,0.13559 0.33341,0.27511 0.49775,0.41524c0.26511,0.22555 0.53224,0.44797 0.80208,0.66783c0.21438,0.17503 0.42809,0.35106 0.64112,0.52716c0.40848,0.33652 0.81696,0.67249 1.22746,1.00638c0.30771,0.2507 0.61137,0.50505 0.91367,0.76198c0.28945,0.24556 0.58296,0.48598 0.87782,0.72545c0.32664,0.26592 0.65126,0.53393 0.9725,0.80708c0.21709,0.18449 0.43485,0.36621 0.65803,0.5438c0.04396,0.0353 0.08792,0.07054 0.13323,0.10692c0.07236,0.05687 0.1454,0.11287 0.21911,0.16711c0.2739,0.20627 0.42336,0.44243 0.4734,0.78125c0.02029,0.55246 -0.1569,1.02789 -0.33476,1.54247c-0.02975,0.08819 -0.05952,0.17644 -0.08859,0.26476c-0.04396,0.13113 -0.08792,0.26227 -0.13255,0.39327c-0.10753,0.31636 -0.20898,0.63435 -0.30704,0.95356c-0.10956,0.35255 -0.22588,0.70226 -0.34423,1.05196c-0.23062,0.68928 -0.45718,1.37996 -0.6817,2.07134c-0.01623,0.05012 -0.03246,0.10029 -0.04937,0.15189c-0.15081,0.46393 -0.30095,0.92786 -0.45176,1.3918c-0.09806,0.30298 -0.19681,0.60595 -0.29487,0.90825c-0.02434,0.07371 -0.02434,0.07371 -0.04869,0.14946c-0.25632,0.78855 -0.51601,1.57576 -0.78044,2.3616c-0.13525,0.40374 -0.26645,0.80816 -0.38751,1.21664c-0.05072,0.15622 -0.11092,0.30568 -0.17516,0.45649c-0.14879,0.40307 -0.18801,0.89879 -0.03111,1.30591c0.15014,0.24887 0.29825,0.44635 0.54373,0.61001c0.95627,0.20154 1.68801,-0.14202 2.49144,-0.62151c0.25496,-0.15149 0.51534,-0.29081 0.77638,-0.43148c0.09942,-0.05478 0.19951,-0.10956 0.29892,-0.16501c0.38954,-0.21236 0.78449,-0.41524 1.17877,-0.6188c0.37804,-0.19612 0.7527,-0.39698 1.12534,-0.60189c0.48828,-0.26916 0.98197,-0.52751 1.47769,-0.78382c0.37804,-0.19612 0.7527,-0.3963 1.12534,-0.60189c0.48828,-0.26848 0.98197,-0.5275 1.47769,-0.78382c0.37804,-0.19545 0.75271,-0.3963 1.12534,-0.60121c0.49707,-0.2739 0.9982,-0.53765 1.50203,-0.79802c0.3936,-0.20356 0.78449,-0.41051 1.17336,-0.62151c0.33477,-0.17313 0.67696,-0.18395 1.03878,-0.08048c0.28539,0.1055 0.54509,0.26105 0.80749,0.41321c0.25902,0.14879 0.52007,0.28742 0.78856,0.41795c0.37061,0.18192 0.73107,0.37939 1.09085,0.5816c0.22452,0.12579 0.44974,0.24752 0.68103,0.36047c0.30365,0.14879 0.59784,0.31109 0.89337,0.47475c0.34423,0.19072 0.68913,0.37602 1.04283,0.54982c0.60663,0.3023 1.20176,0.62421 1.79013,0.96033c0.28472,0.16096 0.57553,0.30771 0.86971,0.45176c0.33341,0.16502 0.65735,0.34558 0.98129,0.52818c0.2225,0.12444 0.445,0.24481 0.67426,0.35708c0.36182,0.17719 0.71281,0.37263 1.06516,0.56673c0.47949,0.2624 0.96303,0.51466 1.4486,0.76488c0.05614,0.0284 0.11227,0.05749 0.17043,0.08724c0.04937,0.0257 0.09942,0.05139 0.15081,0.07777c0.1143,0.06222 0.11429,0.06222 0.16975,0.11768c0.20491,0.01826 0.41051,0.01758 0.6161,0.02029c0.08589,0.00338 0.08589,0.00339 0.17381,0.00677c0.32529,0.00338 0.54577,-0.01421 0.79802,-0.22994c0.26646,-0.26848 0.37061,-0.54914 0.39901,-0.92651c-0.02232,-0.57146 -0.23332,-1.0895 -0.42403,-1.62309c-0.16366,-0.46191 -0.31245,-0.92921 -0.46326,-1.39585c-0.08386,-0.25969 -0.1684,-0.51939 -0.25293,-0.77909c-0.01556,-0.04937 -0.03179,-0.09874 -0.0487,-0.14946c-0.12105,-0.37264 -0.24414,-0.74459 -0.36857,-1.11655c-0.15825,-0.4707 -0.31177,-0.94343 -0.46393,-1.41683c-0.52277,-1.6243 -1.04892,-3.24753 -1.59266,-4.86514c-0.07034,-0.20917 -0.14067,-0.41841 -0.21033,-0.62766c-0.02772,-0.0825 -0.05546,-0.16502 -0.08318,-0.24746c-0.03922,-0.11524 -0.07778,-0.23048 -0.11633,-0.34579c-0.02231,-0.06668 -0.04463,-0.13343 -0.06762,-0.20215c-0.13797,-0.44452 -0.16299,-0.84577 0,-1.28663c0.16028,-0.27437 0.34693,-0.4588 0.58837,-0.6581c0.03449,-0.02915 0.06966,-0.0583 0.10483,-0.08832c0.23129,-0.19335 0.46528,-0.38271 0.70131,-0.56957c0.25158,-0.2012 0.4991,-0.40685 0.74797,-0.61197c0.22182,-0.18355 0.445,-0.36655 0.66817,-0.54854c0.21303,-0.17428 0.42403,-0.3514 0.63368,-0.52994c0.30703,-0.26186 0.62016,-0.51695 0.93396,-0.77083c0.23467,-0.19024 0.46664,-0.38352 0.69657,-0.58005c0.24076,-0.20613 0.48625,-0.40462 0.73716,-0.59919c0.30365,-0.23589 0.59716,-0.48145 0.88797,-0.73302c0.2367,-0.20505 0.47746,-0.40516 0.72025,-0.60291c0.20695,-0.16806 0.41186,-0.3374 0.61745,-0.50675c0.0399,-0.03267 0.07912,-0.06533 0.1197,-0.09901c0.211,-0.17353 0.42133,-0.34714 0.63166,-0.5208c0.0426,-0.03483 0.08453,-0.06966 0.12849,-0.10557c0.08048,-0.06662 0.16096,-0.13316 0.24211,-0.19977c0.03652,-0.03036 0.07304,-0.06067 0.11091,-0.09191c0.03449,-0.02847 0.06898,-0.05701 0.10483,-0.08643c0.08251,-0.06709 0.16637,-0.13201 0.2509,-0.19646c0.12106,-0.10239 0.19342,-0.19267 0.2739,-0.328c0.02232,-0.03719 0.04463,-0.07446 0.06831,-0.11281c0.16908,-0.31765 0.16975,-0.72404 0.07574,-1.06725c-0.1569,-0.34646 -0.43012,-0.54982 -0.73986,-0.75616c-0.13932,-0.03469 -0.13932,-0.03469 -0.29824,-0.05735c-0.08927,-0.01406 -0.08927,-0.01407 -0.17989,-0.02841c-0.06425,-0.0094 -0.12782,-0.0188 -0.19342,-0.02854c-0.0656,-0.00987 -0.1312,-0.01975 -0.19883,-0.02996c-0.41795,-0.06087 -0.82777,-0.10002 -1.24977,-0.11787c-0.82507,-0.04045 -1.65285,-0.14445 -2.46981,-0.26781c-0.49436,-0.07466 -0.98874,-0.12065 -1.48784,-0.1613c-0.59851,-0.04916 -1.19567,-0.11253 -1.79283,-0.17353c-0.21776,-0.02212 -0.43553,-0.0439 -0.65329,-0.06567c-0.14135,-0.01427 -0.28269,-0.02854 -0.42403,-0.04287c-0.06425,-0.00636 -0.1285,-0.01271 -0.1941,-0.0192c-0.30636,-0.03125 -0.60934,-0.06824 -0.91299,-0.11714c-0.34897,-0.05559 -0.69726,-0.08724 -1.0496,-0.113c-0.11429,-0.00859 -0.22926,-0.01731 -0.34423,-0.02617c-0.04937,-0.00366 -0.09941,-0.00731 -0.15014,-0.01109c-0.1427,-0.01475 -0.27931,-0.04172 -0.4193,-0.07013c-0.13932,-0.00825 -0.2793,-0.01502 -0.41862,-0.02077c-0.5904,-0.03165 -1.1578,-0.09745 -1.58184,-0.54725c-0.19612,-0.28742 -0.3253,-0.58931 -0.44703,-0.91448c-0.12173,-0.32503 -0.26037,-0.64011 -0.4051,-0.95593c-0.13661,-0.2998 -0.26984,-0.59811 -0.38413,-0.90751c-0.12309,-0.33334 -0.26984,-0.65404 -0.41863,-0.97676c-0.17313,-0.37662 -0.33611,-0.75244 -0.47949,-1.14171c-0.09941,-0.25158 -0.21168,-0.4966 -0.32395,-0.74257c-0.16231,-0.35701 -0.31312,-0.71429 -0.44973,-1.08239c-0.11971,-0.3021 -0.25699,-0.59608 -0.39157,-0.89168c-0.14405,-0.31698 -0.27322,-0.63653 -0.39495,-0.9629c-0.07034,-0.17935 -0.14878,-0.35241 -0.23129,-0.52669c-0.10753,-0.2294 -0.20559,-0.45853 -0.29419,-0.69617c-0.13864,-0.36986 -0.29959,-0.72782 -0.46461,-1.08666c-0.10618,-0.23176 -0.20424,-0.46299 -0.29351,-0.70172c-0.15284,-0.38589 -0.42133,-0.62009 -0.79937,-0.78517c-0.59784,-0.08399 -1.11655,-0.01603 -1.52638,0.47104z" fill="#010100" stroke="none" stroke-width="1" stroke-miterlimit="10"/><path d="M241.04286,165.43332c0.35438,0.23704 0.43823,0.5927 0.54306,0.98596c0.0142,0.05208 0.0284,0.10415 0.04328,0.15778c0.04126,0.15318 0.08183,0.30663 0.12241,0.46015c0.01014,0.03855 0.02097,0.07709 0.03111,0.11679c0.05681,0.21377 0.10956,0.42816 0.1596,0.64342c0.02164,0.09089 0.04396,0.18165 0.06627,0.27234c0.39901,1.63208 0.6959,3.33761 0.78382,5.01738c0.00879,0.12187 0.00879,0.12186 0.03787,0.26591c0.03382,0.2229 0.03855,0.44 0.04126,0.66513c0,0.04666 0.00068,0.09326 0.00135,0.14134c0.02435,2.63509 -0.26037,5.44844 -2.14451,7.45648c-0.97724,0.99611 -2.26962,1.58083 -3.65872,1.59794c-0.63571,0.00176 -1.22679,-0.03362 -1.84559,-0.18003c-0.0771,-0.01711 -0.07709,-0.01711 -0.15554,-0.03449c-0.70875,-0.17476 -1.41412,-0.45345 -2.05659,-0.79869c-0.04801,-0.023 -0.09604,-0.04599 -0.14541,-0.06966c-1.27277,-0.61008 -2.43125,-1.46478 -3.50587,-2.37425c-0.06424,-0.05403 -0.12918,-0.10807 -0.19342,-0.1621c-0.52615,-0.44338 -1.02728,-0.91454 -1.52097,-1.39315c-0.03111,-0.02827 -0.06155,-0.05653 -0.09333,-0.08568c-0.09941,-0.11058 -0.10888,-0.21337 -0.12849,-0.35871c-0.04734,0.00263 -0.09535,0.00521 -0.14405,0.00785c-0.42809,0.01271 -0.82236,-0.01961 -1.24234,-0.10847c-0.04396,-0.0092 -0.08792,-0.01839 -0.13323,-0.02786c-0.25091,-0.05647 -0.46934,-0.12728 -0.69252,-0.26031c-0.05883,-0.11104 -0.05884,-0.11104 -0.05545,-0.22216c0.30974,-0.37764 0.91299,-0.36262 1.36272,-0.40753c0.50992,-0.04686 1.01917,-0.05363 1.53111,-0.05133c0.15555,0.00061 0.31109,0 0.46664,-0.00068c0.46799,-0.00034 0.92787,0.01068 1.39248,0.07006c0.59175,0.07548 1.18215,0.08061 1.77796,0.08055c0.05681,0.00007 0.1143,0.00014 0.17313,0.0002c0.87309,-0.00095 1.69207,-0.04821 2.53337,-0.30223c0.06289,-0.01826 0.0629,-0.01826 0.12715,-0.03686c0.23806,-0.07061 0.47069,-0.15169 0.70266,-0.24089c0.05208,-0.0188 0.10415,-0.03767 0.15758,-0.05708c1.15713,-0.43567 1.77526,-1.47424 2.27639,-2.55346c0.1427,-0.32726 0.27255,-0.65938 0.39834,-0.99326c0.03584,-0.09455 0.07236,-0.18875 0.10956,-0.28276c0.20085,-0.52412 0.33882,-1.07164 0.48828,-1.61227c0.0142,-0.05221 0.0284,-0.10442 0.04328,-0.15819c0.21438,-0.77536 0.42065,-1.55154 0.59581,-2.33677c0.14676,-0.65546 0.29418,-1.3091 0.5018,-1.94859c0.0142,-0.04639 0.02908,-0.09278 0.04396,-0.14053c0.1082,-0.3184 0.24617,-0.56545 0.52277,-0.76901c0.24279,-0.07169 0.44432,-0.05619 0.68102,0.02773z" fill="#fce149" stroke="none" stroke-width="1" stroke-miterlimit="10"/><path d="M246.65399,176.18356c0.10685,0.02773 0.10685,0.02773 0.22115,0.11085c0.03719,0.15635 0.05004,0.2835 0.05545,0.4433c0.00203,0.06188 0.00406,0.1237 0.00609,0.18747c0.02299,1.33972 -0.19747,2.68878 -0.58229,3.9692c-0.03044,0.10368 -0.05681,0.20829 -0.08318,0.31298c-0.2536,0.99394 -0.77638,1.81001 -1.47769,2.54514c-0.06627,0.06952 -0.1312,0.13972 -0.1968,0.20999c-0.87309,0.91252 -1.99369,1.60362 -3.07508,2.23615c-0.09739,0.05755 -0.19342,0.11693 -0.28946,0.17678c-0.37669,0.23278 -0.773,0.42194 -1.17336,0.61042c-0.05749,0.02752 -0.11497,0.05512 -0.17381,0.08352c-0.30027,0.13851 -0.52751,0.23494 -0.85889,0.197c0.20018,-0.48625 0.76826,-0.88249 1.16795,-1.20244c0.26511,-0.21344 0.52345,-0.43546 0.78314,-0.65668c0.09536,-0.08136 0.19072,-0.16251 0.28607,-0.24359c0.44432,-0.3777 0.87849,-0.76407 1.3005,-1.16673c0.03179,-0.03071 0.06424,-0.06141 0.09738,-0.09313c0.72092,-0.69191 1.26399,-1.40336 1.72657,-2.28964c0.01961,-0.03773 0.03922,-0.0754 0.06019,-0.11429c0.25429,-0.48679 0.46934,-0.97649 0.65803,-1.49277c0.04396,-0.11281 0.08792,-0.22534 0.13188,-0.33794c0.17313,-0.44229 0.34152,-0.88641 0.50721,-1.33141c0.02164,-0.05653 0.0426,-0.11315 0.06425,-0.17144c0.094,-0.2507 0.18665,-0.50153 0.27863,-0.75284c0.15758,-0.42903 0.31109,-0.84698 0.56606,-1.2299z" fill="#f8e38f" stroke="none" stroke-width="1" stroke-miterlimit="10"/><path d="M228.04729,174.08756c0.15487,0.00061 0.31042,0 0.46529,-0.00074c0.48422,-0.00041 0.96303,0.01251 1.44455,0.06763c0.05952,0.00677 0.05951,0.00676 0.1197,0.01366c0.36723,0.04713 0.82846,0.11449 1.09897,0.39934c0.00338,0.11261 0.00338,0.11261 -0.05545,0.23238c-0.25834,0.13363 -0.50248,0.2108 -0.78652,0.26869c-0.09942,0.0209 -0.09941,0.02089 -0.20086,0.04226c-0.47881,0.08636 -0.96303,0.10564 -1.44794,0.10956c-0.05681,0.00047 -0.11362,0.00095 -0.17177,0.00142c-0.11971,0.00081 -0.23874,0.00142 -0.35776,0.00189c-0.12038,0.00068 -0.24008,0.0019 -0.35978,0.00359c-1.84424,0.02638 -1.84424,0.02638 -2.58139,-0.42741c-0.05884,-0.11619 -0.05884,-0.11619 -0.05546,-0.23238c0.30907,-0.39496 0.91163,-0.37926 1.36002,-0.42619c0.50924,-0.0491 1.01713,-0.05613 1.52841,-0.0537z" fill="#fefdf0" stroke="none" stroke-width="1" stroke-miterlimit="10"/></g></g></svg>