<svg version="1.1" xmlns="http://www.w3.org/2000/svg" xmlns:xlink="http://www.w3.org/1999/xlink" width="57.85299" height="67.66666" viewBox="0,0,57.85299,67.66666"><g transform="translate(-211.07351,-146.16669)"><g fill-rule="evenodd" stroke="none" stroke-miterlimit="10"><path d="M268.29591,146.1667c1.73797,9.14038 -0.14008,19.71196 -5.34289,27.43862c-1.54248,2.22943 -3.36434,4.35361 -5.4988,6.03381c-0.33398,0.26433 -0.65451,0.54133 -0.97741,0.81833c-1.05734,0.8856 -2.22865,1.6058 -3.39758,2.33312c0.43766,-0.17174 0.87531,-0.34269 1.31297,-0.51443c0.148,-0.05856 0.29678,-0.11633 0.44478,-0.17411c0.21606,-0.08468 0.43133,-0.16937 0.64739,-0.25405c0.14166,-0.0554 0.28333,-0.1108 0.42895,-0.16857c0.51601,-0.20736 1.02568,-0.42974 1.53378,-0.65688c0.27858,-0.09259 0.27858,-0.0926 0.62681,0.02374c-0.1013,0.07835 -0.10131,0.07835 -0.20498,0.15829c-0.76135,0.59832 -1.47442,1.2362 -2.18275,1.89545c-0.84286,0.78271 -1.70551,1.53378 -2.60694,2.24844c-0.10763,0.08548 -0.10763,0.08548 -0.21764,0.17253c-1.84956,1.46255 -3.86372,2.99633 -6.11295,3.78063c-0.62364,0.23505 -0.93863,0.64343 -1.33592,1.1626c-1.43406,1.70156 -2.98049,3.39916 -4.72637,4.78098c-0.26513,0.20656 -0.26512,0.20656 -0.46456,0.42183c-0.15195,0.14483 -0.15196,0.14483 -0.38464,0.14483c-0.02928,0.06727 -0.05856,0.13455 -0.08864,0.20419c-0.16145,0.29441 -0.34585,0.48593 -0.58644,0.71861c-0.07756,0.07597 -0.15512,0.15116 -0.23426,0.22872c-0.0831,0.08073 -0.1662,0.16145 -0.25246,0.24376c-0.09339,0.09418 -0.18678,0.18757 -0.28254,0.28412c-2.51514,2.51277 -5.55737,4.41693 -8.894,5.64601c-0.10209,0.03799 -0.20419,0.07597 -0.30866,0.11476c-2.97813,1.09137 -6.0623,1.6794 -9.18288,2.17958c-0.08073,0.01345 -0.16145,0.0269 -0.24455,0.04036c-0.40204,0.0649 -0.79934,0.11555 -1.20613,0.14087c-0.8025,0.03562 -0.8025,0.03562 -1.48788,0.40284c-0.17569,0.27146 -0.29599,0.53263 -0.41233,0.83416c-0.06965,0.15116 -0.06965,0.15116 -0.14008,0.30549c-0.13137,0.28571 -0.25404,0.57458 -0.37592,0.86503c-0.43212,0.98295 -0.99086,1.59471 -1.7807,2.30304c-0.535,0.4796 -0.99007,0.97899 -1.43169,1.54644c-0.55637,0.68696 -1.17605,1.32088 -1.78228,1.96352c-0.14166,-0.47644 -0.05461,-0.82071 0.08705,-1.28606c0.02533,-0.08468 0.05145,-0.16937 0.07756,-0.25642c0.97028,-3.08576 2.44708,-5.95783 4.09166,-8.72939c0.06331,-0.10763 0.12583,-0.21526 0.19073,-0.32527c0.14008,-0.23268 0.2857,-0.46219 0.43449,-0.68933c0.48989,-0.72019 0.48989,-0.7202 0.5722,-1.55515c-0.04353,-0.1654 -0.0926,-0.33003 -0.14641,-0.49227c-0.05065,-0.19073 -0.10051,-0.38067 -0.14958,-0.57141c-0.04116,-0.15037 -0.04116,-0.15037 -0.08231,-0.3047c-1.39053,-5.60565 -0.47326,-11.34425 2.42096,-16.32547c0.33793,-0.55479 0.69249,-1.0985 1.04784,-1.6422c1.59709,-2.48349 2.86257,-5.18065 4.18267,-7.81767c0.04511,-0.08943 0.08943,-0.17887 0.13533,-0.27067c0.49464,-0.98691 0.98057,-1.9746 1.42535,-2.98445c0.03878,0 0.07677,0 0.11634,0c0.02216,0.66321 -0.06094,1.27498 -0.17807,1.92791c-0.0182,0.10368 -0.03562,0.20814 -0.05461,0.31498c-0.05698,0.33003 -0.11555,0.66004 -0.17411,0.99007c-0.05777,0.33239 -0.11555,0.6648 -0.17412,0.9964c-0.03562,0.20656 -0.07202,0.41233 -0.10842,0.61889c-0.09022,0.4796 -0.09022,0.4796 -0.12346,0.96474c0.05302,-0.12663 0.10684,-0.25404 0.16224,-0.38463c0.73603,-1.71422 1.54169,-3.38412 2.70666,-4.85142c2.36398,-3.05331 4.05525,-6.59492 5.6104,-10.11113c0.03799,0 0.07677,0 0.11634,0c-0.05936,1.13561 -0.29441,2.22619 -0.53025,3.33577c-0.03878,0.1844 -0.07755,0.3688 -0.11554,0.5532c-0.09418,0.44795 -0.18836,0.89589 -0.28333,1.34304c0.1749,-0.17569 0.27146,-0.38701 0.39096,-0.60465c0.69645,-1.24886 1.41111,-2.44549 2.28009,-3.58119c0.07597,-0.09893 0.15195,-0.19786 0.22951,-0.29995c0.22872,-0.29125 0.46298,-0.57758 0.7004,-0.86249c0.0736,-0.08982 0.07361,-0.08982 0.14879,-0.18139c1.25519,-1.51827 2.59824,-2.90231 4.14863,-4.12047c0.13296,-0.1093 0.26513,-0.21891 0.3973,-0.32876c1.67228,-1.3823 3.49096,-2.50335 5.41096,-3.50798c0.08389,-0.044 0.16778,-0.08809 0.25405,-0.13344c3.96345,-2.04536 8.32497,-2.96452 12.66434,-3.81592c2.89107,-0.56983 5.77105,-1.18943 8.4611,-2.42389c0.55321,-0.25389 0.55321,-0.25388 0.80646,-0.25388z" fill="#71e3fe"/><path d="M268.29591,146.1667c1.73796,9.14038 -0.14008,19.71196 -5.34289,27.43862c-1.54248,2.22943 -3.36434,4.35361 -5.49881,6.03381c-0.33398,0.26433 -0.65451,0.54133 -0.97741,0.81833c-1.05734,0.8856 -2.22865,1.6058 -3.39758,2.33312c0.43766,-0.17174 0.87531,-0.34269 1.31297,-0.51443c0.148,-0.05856 0.29678,-0.11633 0.44478,-0.17411c0.21606,-0.08468 0.43133,-0.16937 0.64739,-0.25405c0.14166,-0.0554 0.28333,-0.1108 0.42895,-0.16857c0.51601,-0.20736 1.02568,-0.42974 1.53378,-0.65688c0.27858,-0.09259 0.27858,-0.0926 0.62681,0.02374c-0.1013,0.07835 -0.1013,0.07835 -0.20498,0.15829c-0.76135,0.59832 -1.47442,1.2362 -2.18275,1.89545c-0.84286,0.78271 -1.70551,1.53378 -2.60694,2.24844c-0.10763,0.08548 -0.10763,0.08548 -0.21764,0.17253c-1.84956,1.46255 -3.86372,2.99633 -6.11295,3.78063c-0.62364,0.23505 -0.93863,0.64343 -1.33592,1.1626c-1.43406,1.70156 -2.98049,3.39916 -4.72637,4.78098c-0.26513,0.20656 -0.26512,0.20656 -0.46456,0.42183c-0.15195,0.14483 -0.15196,0.14483 -0.38464,0.14483c-0.02928,0.06727 -0.05856,0.13455 -0.08864,0.20419c-0.16145,0.29441 -0.34585,0.48593 -0.58644,0.71861c-0.07756,0.07597 -0.15512,0.15116 -0.23426,0.22872c-0.0831,0.08073 -0.1662,0.16145 -0.25246,0.24376c-0.09339,0.09418 -0.18678,0.18757 -0.28254,0.28412c-2.51514,2.51277 -5.55737,4.41693 -8.894,5.64601c-0.10209,0.03799 -0.20419,0.07597 -0.30866,0.11476c-2.97813,1.09137 -6.0623,1.6794 -9.18288,2.17958c-0.08073,0.01345 -0.16145,0.0269 -0.24455,0.04036c-0.40204,0.0649 -0.79934,0.11555 -1.20613,0.14087c-0.8025,0.03562 -0.8025,0.03562 -1.48788,0.40284c-0.17569,0.27146 -0.29599,0.53263 -0.41233,0.83416c-0.06965,0.15116 -0.06965,0.15116 -0.14008,0.30549c-0.13137,0.28571 -0.25404,0.57458 -0.37592,0.86503c-0.43212,0.98295 -0.99086,1.59471 -1.7807,2.30304c-0.535,0.4796 -0.99007,0.97899 -1.43169,1.54644c-0.55637,0.68696 -1.17605,1.32088 -1.78228,1.96352c-0.14166,-0.47644 -0.05461,-0.82071 0.08705,-1.28606c0.02533,-0.08468 0.05145,-0.16937 0.07756,-0.25642c0.97028,-3.08576 2.44708,-5.95783 4.09166,-8.72939c0.06331,-0.10763 0.12583,-0.21526 0.19073,-0.32527c0.14008,-0.23268 0.2857,-0.46219 0.43449,-0.68933c0.48989,-0.72019 0.48989,-0.7202 0.5722,-1.55515c-0.04353,-0.1654 -0.0926,-0.33003 -0.14641,-0.49227c-0.05065,-0.19073 -0.10051,-0.38067 -0.14958,-0.57141c-0.04116,-0.15037 -0.04116,-0.15037 -0.08231,-0.3047c-1.39053,-5.60565 -0.47326,-11.34425 2.42096,-16.32547c0.33793,-0.55479 0.69249,-1.0985 1.04784,-1.6422c1.59709,-2.48349 2.86257,-5.18065 4.18267,-7.81767c0.04511,-0.08943 0.08943,-0.17887 0.13533,-0.27067c0.49464,-0.98691 0.98057,-1.9746 1.42535,-2.98445c0.03878,0 0.07677,0 0.11634,0c0.02216,0.66321 -0.06094,1.27498 -0.17807,1.92791c-0.0182,0.10368 -0.03562,0.20814 -0.05461,0.31498c-0.05698,0.33003 -0.11555,0.66004 -0.17411,0.99007c-0.05777,0.33239 -0.11555,0.6648 -0.17412,0.9964c-0.03562,0.20656 -0.07202,0.41233 -0.10842,0.61889c-0.09022,0.4796 -0.09022,0.4796 -0.12346,0.96474c0.05302,-0.12663 0.10684,-0.25404 0.16224,-0.38463c0.73603,-1.71422 1.54169,-3.38412 2.70666,-4.85142c2.36398,-3.05331 4.05525,-6.59492 5.6104,-10.11113c0.03799,0 0.07677,0 0.11634,0c-0.05936,1.13561 -0.29441,2.22619 -0.53025,3.33577c-0.03878,0.1844 -0.07755,0.3688 -0.11554,0.5532c-0.09418,0.44795 -0.18836,0.89589 -0.28333,1.34304c0.1749,-0.17569 0.27146,-0.38701 0.39096,-0.60465c0.69645,-1.24886 1.41111,-2.44549 2.28009,-3.58119c0.07597,-0.09893 0.15195,-0.19786 0.22951,-0.29995c0.22872,-0.29125 0.46298,-0.57758 0.7004,-0.86249c0.0736,-0.08982 0.07361,-0.08982 0.14879,-0.18139c1.25519,-1.51827 2.59824,-2.90231 4.14863,-4.12047c0.13296,-0.1093 0.26513,-0.21891 0.3973,-0.32876c1.67228,-1.3823 3.49096,-2.50335 5.41096,-3.50798c0.08389,-0.044 0.16778,-0.08809 0.25405,-0.13344c3.96345,-2.04536 8.32497,-2.96452 12.66434,-3.81592c2.89107,-0.56983 5.77105,-1.18943 8.4611,-2.42389c0.5532,-0.25389 0.5532,-0.25388 0.80646,-0.25388zM266.2485,148.11914c-0.1298,0.04456 -0.26037,0.08919 -0.39412,0.1351c-0.2675,0.09315 -0.53501,0.18645 -0.8025,0.27976c-2.23023,0.76443 -4.51665,1.22987 -6.82523,1.69475c-1.65249,0.3328 -3.30339,0.66638 -4.93926,1.07452c-0.1108,0.02746 -0.2208,0.05484 -0.33398,0.08317c-5.28275,1.34748 -9.99409,4.18465 -13.92904,7.91827c-0.05856,0.055 -0.11713,0.11001 -0.17728,0.16667c-0.86344,0.82063 -1.62162,1.69095 -2.33549,2.64485c-0.16066,0.21368 -0.32369,0.425 -0.48673,0.6371c-0.76689,1.00906 -1.40715,2.05691 -1.99597,3.17835c-0.03957,0.0744 -0.07914,0.14879 -0.11951,0.22556c-2.39247,4.51269 -3.54557,9.63636 -4.29426,14.65635c-0.12346,-3.84552 0.45349,-7.84932 1.25045,-11.61016c0.02928,-0.26908 -0.00713,-0.45745 -0.08864,-0.71386c-0.04591,0.0736 -0.09102,0.14641 -0.1385,0.22239c-0.20972,0.33557 -0.42024,0.67033 -0.63155,1.0059c-0.07123,0.11476 -0.14325,0.2303 -0.21685,0.34902c-0.36089,0.5714 -0.72494,1.10324 -1.17605,1.60659c-0.27858,0.32686 -0.50177,0.68696 -0.72653,1.05259c-0.04986,0.08073 -0.09972,0.16145 -0.15037,0.24455c-1.36204,2.24526 -2.32678,4.69551 -2.88473,7.26209c-0.01899,0.08389 -0.03799,0.16778 -0.05698,0.25484c-0.3047,1.40082 -0.32132,2.80084 -0.32053,4.22857c0,0.09101 0.00079,0.18124 0.00079,0.27463c0.00238,1.0154 0.02691,2.02209 0.14483,3.03194c-1.07712,-3.4047 -1.33196,-6.66615 -1.27815,-10.23151c-0.29441,0.26671 -0.46456,0.53421 -0.64738,0.88718c-0.08626,0.16383 -0.08626,0.16383 -0.17412,0.33082c-0.06173,0.11872 -0.12346,0.23664 -0.18757,0.35852c-0.70674,1.33118 -1.4768,2.60853 -2.27455,3.88588c-0.64026,1.02885 -1.26786,2.04583 -1.7253,3.17044c-0.05856,0.14166 -0.05857,0.14166 -0.11793,0.28649c-1.77516,4.40427 -1.71897,8.94308 -0.68062,13.51988c0.42737,-0.40679 0.76136,-0.81833 1.09613,-1.30822c0.7012,-1.0051 1.48233,-1.94057 2.27217,-2.87761c0.06252,-0.0736 0.12426,-0.14721 0.18836,-0.22318c0.75265,-0.89352 1.52428,-1.76566 2.31887,-2.62198c0.17332,-0.18678 0.34585,-0.37513 0.51759,-0.56349c0.88956,-0.97266 1.78624,-1.92316 2.78739,-2.78265c0.24059,-0.21447 0.46694,-0.43845 0.6925,-0.66796c0.44557,-0.45111 0.9133,-0.86581 1.39449,-1.27894c0.13375,-0.11713 0.2675,-0.23347 0.40125,-0.3506c0.74789,-0.65293 1.49974,-1.30031 2.27218,-1.92553c0.26592,-0.21685 0.53105,-0.43528 0.79459,-0.65451c0.91092,-0.75818 1.83214,-1.49737 2.77631,-2.21361c0.54212,-0.41075 1.07475,-0.8302 1.60342,-1.25757c0.66717,-0.53975 1.34779,-1.05893 2.03633,-1.57098c0.57062,-0.42578 1.13173,-0.86186 1.68968,-1.30347c0.53262,-0.42103 1.07079,-0.83415 1.60975,-1.24569c2.22943,-1.70235 4.4193,-3.45219 6.48254,-5.35477c0.25247,-0.22951 0.50731,-0.45428 0.76373,-0.67905c1.31614,-1.14915 2.56025,-2.37505 3.79645,-3.60967c0.06015,-0.05936 0.12029,-0.11951 0.18203,-0.18045c0.61652,-0.61494 1.22354,-1.23304 1.7902,-1.89546c0.23822,-0.27858 0.48752,-0.54687 0.73602,-0.81596c0.46852,-0.51522 0.91726,-1.0423 1.35412,-1.58522c0.20972,-0.25958 0.42104,-0.51839 0.63393,-0.7756c1.47996,-1.79028 2.79372,-3.68344 4.06633,-5.62503c-0.41946,0.76918 -0.86898,1.49998 -1.36204,2.22397c-0.16778,0.24621 -0.33319,0.49353 -0.4986,0.74077c-0.76927,1.1429 -1.5686,2.24479 -2.43758,3.31321c-0.12583,0.1567 -0.25167,0.31261 -0.3783,0.46931c-0.31894,0.39492 -0.63947,0.78826 -0.95999,1.18159c-0.15116,0.1844 -0.30074,0.3696 -0.45032,0.554c-1.80049,2.21915 -3.74501,4.27447 -5.76156,6.29735c-0.0736,0.0736 -0.14641,0.148 -0.22239,0.22397c-0.75739,0.75976 -1.51478,1.50766 -2.33311,2.20332c-0.20577,0.18836 -0.41154,0.37672 -0.61652,0.56666c-0.42103,0.38463 -0.8492,0.75423 -1.29239,1.11195c-0.52708,0.42499 -1.02489,0.87294 -1.52032,1.33434c-0.37276,0.34506 -0.75502,0.67271 -1.15152,0.99086c-0.4796,0.38621 -0.9315,0.79142 -1.37945,1.21325c-0.56508,0.53026 -1.14914,1.02015 -1.7625,1.49263c-0.55241,0.42658 -1.09137,0.8666 -1.62796,1.31217c-0.60069,0.49859 -1.20613,0.98928 -1.82185,1.46809c-0.75976,0.59119 -1.48866,1.21404 -2.21519,1.84481c-0.20023,0.17332 -0.40283,0.34506 -0.60544,0.5168c-1.64616,1.39291 -3.18231,2.88711 -4.70818,4.4106c-0.0744,0.0744 -0.14879,0.14799 -0.22476,0.22397c-0.76372,0.76214 -1.52032,1.52191 -2.2144,2.34895c-0.1108,0.12583 -0.22081,0.25167 -0.33161,0.3775c-0.84286,0.96712 -1.62716,1.97223 -2.3988,2.99712c-0.15512,0.20498 -0.31182,0.40758 -0.4701,0.6094c-3.11979,3.54241 -3.11979,3.54241 -4.93057,7.52643c0.86424,0.03403 1.68811,-0.09418 2.54047,-0.23268c0.07756,-0.01266 0.15511,-0.02533 0.23505,-0.03799c4.88782,-0.8025 10.0756,-2.10519 14.06754,-5.19411c0.07597,-0.11555 0.15275,-0.2303 0.23189,-0.34901c-0.09259,0.03166 -0.09259,0.03165 -0.18677,0.0641c-3.20368,1.08425 -6.40815,1.7261 -9.80256,1.68019c0.06648,-0.01029 0.13216,-0.02137 0.20102,-0.03166c6.73184,-1.07555 12.30187,-3.51234 17.15013,-8.36138c0.15275,-0.15037 0.15274,-0.15037 0.30786,-0.3039c0.48514,-0.48435 0.92755,-0.9418 1.27498,-1.53457c-0.11476,0.03166 -0.11476,0.03166 -0.2311,0.06411c-1.71185,0.47169 -3.43477,0.92912 -5.19252,1.19267c-0.129,0.01979 -0.12901,0.01979 -0.26038,0.03958c-1.73638,0.24139 -3.47118,0.22951 -5.22101,0.22238c-0.25009,-0.00079 -0.49938,-0.00158 -0.74947,-0.00158c-0.60702,-0.00159 -1.21326,-0.00316 -1.82028,-0.00554c0,-0.07677 0,-0.15354 0,-0.23268c0.19073,0.00633 0.19073,0.00633 0.38542,0.01187c7.38239,0.1575 16.16639,-2.04187 21.63353,-7.27713c0.13454,-0.13454 0.2675,-0.27146 0.39967,-0.40837c-0.0649,0.0182 -0.13058,0.03719 -0.19786,0.05619c-1.73638,0.48198 -3.48068,0.93941 -5.26138,1.22275c-0.148,0.02374 -0.29678,0.04828 -0.44952,0.07281c-1.18476,0.17015 -2.37031,0.18124 -3.56536,0.18124c-0.08073,0.00079 -0.16145,0.00079 -0.24534,0.00079c-0.87135,0 -1.72847,-0.01899 -2.5935,-0.1385c0.13612,-0.01741 0.27146,-0.03403 0.41154,-0.05223c4.76753,-0.62523 9.60392,-1.7902 13.52779,-4.71451c0.06331,-0.04669 0.12662,-0.09339 0.19152,-0.14087c0.44873,-0.33003 0.88639,-0.67113 1.31851,-1.02173c0.06331,-0.05144 0.12663,-0.10289 0.19153,-0.15512c2.8238,-2.30542 5.10072,-5.0469 6.89409,-8.21655c0.03957,-0.06886 0.07914,-0.1377 0.11951,-0.20893c3.84473,-6.78329 4.73825,-15.04352 3.94603,-22.69515c-0.44953,0 -0.70041,0.06252 -1.11828,0.20846z" fill="#070708"/><path d="M241.89643,163.66109c0.05698,0.11476 0.05698,0.11476 0.11554,0.23189c-0.11951,0.21922 -0.24929,0.43291 -0.38225,0.64422c-1.06288,1.77832 -1.76883,3.83128 -2.2698,5.83911c-0.02374,0.09497 -0.04828,0.18995 -0.07281,0.28729c-0.58012,2.30858 -0.87927,4.62903 -0.96474,7.00567c-0.28571,-0.42974 -0.26197,-0.6553 -0.26513,-1.16893c-0.00079,-0.08073 -0.00158,-0.16224 -0.00158,-0.24613c-0.00159,-0.26354 -0.00079,-0.52788 0,-0.79142c0.00079,-0.13454 0.00079,-0.13454 0.00079,-0.27225c0.00633,-1.32643 0.0546,-2.59745 0.38146,-3.88826c0.02216,-0.09259 0.04432,-0.18519 0.06727,-0.28096c0.6276,-2.56421 1.66595,-5.32469 3.39125,-7.36023z" fill="#0d0d0d"/><path d="M227.8471,190.02259c0.11476,0.05698 0.11476,0.05698 0.23189,0.11634c-0.09418,0.09339 -0.18836,0.18757 -0.28571,0.28412c-0.35297,0.35139 -0.70595,0.70358 -1.05892,1.05576c-0.15195,0.15195 -0.30391,0.30311 -0.45586,0.45507c-1.16893,1.16101 -1.16894,1.16102 -2.26347,2.39168c-0.11318,0.1298 -0.22634,0.25959 -0.33952,0.38938c-0.80725,0.93388 -1.58126,1.88675 -2.33153,2.86653c-0.06569,0.08548 -0.13138,0.17094 -0.19865,0.25958c-2.23656,2.91481 -4.23569,6.01719 -5.91271,9.29051c-0.05223,0.10051 -0.10368,0.20102 -0.1575,0.3047c-0.09972,0.19548 -0.19944,0.39175 -0.29757,0.58882c-0.41945,0.82071 -0.41945,0.8207 -0.86503,1.07079c0.2485,-0.80013 0.63235,-1.51953 1.01619,-2.26109c0.03878,-0.0744 0.07756,-0.14879 0.11713,-0.22635c1.84085,-3.54716 4.07978,-6.89487 6.64715,-9.95689c0.04907,-0.05936 0.09893,-0.11872 0.14958,-0.18045c0.64976,-0.78035 1.31218,-1.54564 1.99992,-2.29354c0.15275,-0.16778 0.3047,-0.33557 0.45111,-0.50889c0.67429,-0.793 1.41506,-1.51795 2.15267,-2.2508c0.13612,-0.13612 0.27225,-0.27146 0.40838,-0.40759c0.33082,-0.32923 0.66163,-0.65926 0.99245,-0.9877z" fill="#72d7ee"/><path d="M261.76589,156.77436c0.05698,0.11507 0.05698,0.11507 0.11554,0.23244c-0.1013,0.20482 -0.1013,0.20481 -0.26433,0.45364c-0.06015,0.09284 -0.12108,0.18559 -0.18282,0.28119c-0.06648,0.10035 -0.13375,0.2007 -0.20261,0.30407c-0.1021,0.15544 -0.1021,0.15543 -0.20577,0.31403c-0.21368,0.32472 -0.42974,0.64842 -0.64501,0.97187c-0.06569,0.09893 -0.13138,0.19778 -0.19865,0.29963c-0.72652,1.09636 -1.47441,2.16367 -2.2967,3.19015c-0.29125,0.36643 -0.5627,0.74314 -0.82625,1.13015c-0.04669,0.04827 -0.09339,0.09655 -0.14087,0.14562c-0.11397,0 -0.22872,0 -0.34664,0c-0.11397,0.05777 -0.11397,0.05778 -0.2303,0.11634c0.18994,-0.45981 0.50414,-0.79618 0.82941,-1.16181c1.69206,-1.95006 3.19497,-4.10677 4.595,-6.27732z" fill="#161616"/><path d="M261.76747,156.77436c0.03719,0.07677 0.07518,0.15362 0.11317,0.23275c-0.10764,0.21796 -0.10763,0.21795 -0.27937,0.48284c-0.06252,0.09726 -0.12505,0.19454 -0.18915,0.29473c-0.06806,0.10344 -0.13533,0.20695 -0.20498,0.31356c-0.06806,0.1047 -0.13533,0.20933 -0.20498,0.3172c-0.19786,0.30707 -0.3973,0.61328 -0.59753,0.9194c-0.10051,0.1548 -0.20023,0.30968 -0.30074,0.46464c-0.20182,0.31118 -0.40362,0.6219 -0.60781,0.93198c-0.07439,-0.03839 -0.14958,-0.07684 -0.22714,-0.11641c0.16224,-0.35361 0.35298,-0.66456 0.57378,-0.98335c0.06727,-0.09877 0.13534,-0.19762 0.20577,-0.2994c0.07043,-0.10233 0.14167,-0.20474 0.21448,-0.31024c0.51205,-0.74236 1.01698,-1.48835 1.50449,-2.24772z" fill="#242424"/><path d="M241.89564,163.66109c0.03799,0.07519 0.07677,0.15037 0.11634,0.22714c-0.13771,0.26117 -0.28016,0.50889 -0.43528,0.75977c-0.32606,0.52946 -0.60386,1.0518 -0.84208,1.62479c-0.15275,-0.03719 -0.30628,-0.07439 -0.46377,-0.11317c0.18282,-0.31024 0.36643,-0.62047 0.55083,-0.92992c0.05144,-0.08705 0.10288,-0.1749 0.15591,-0.26433c0.277,-0.46456 0.55875,-0.89431 0.91805,-1.30427z" fill="#121212"/><path d="M219.05518,200.39181c0,0.45902 -0.1939,0.65926 -0.46694,1.03834c-0.08626,0.12267 -0.17253,0.24455 -0.26196,0.37038c-0.25009,0.29836 -0.25009,0.29836 -0.61652,0.41154c0.16304,-0.42895 0.36722,-0.74711 0.67271,-1.10166c0.0744,-0.08705 0.14879,-0.1749 0.22556,-0.26433c0.20261,-0.22635 0.2026,-0.22635 0.44715,-0.45427z" fill="#72e2fc"/><path d="M226.81271,200.47095c-0.73128,0 -1.46255,0 -2.21599,0c0,-0.03719 0,-0.07439 0,-0.11317c0.20418,-0.04116 0.40838,-0.08073 0.61256,-0.11951c0.17015,-0.03403 0.17016,-0.03403 0.34427,-0.06806c0.52946,-0.06252 0.77876,0.06806 1.25915,0.30074z" fill="#2f2f2f"/><path d="M258.09052,161.9991c0.07518,0 0.15037,0 0.22793,0c-0.15907,0.5263 -0.41154,0.81596 -0.80013,1.18713c-0.07518,-0.07835 -0.15037,-0.1567 -0.22872,-0.23743c0.12821,-0.15908 0.25721,-0.31736 0.38621,-0.47486c0.10764,-0.13217 0.10763,-0.13216 0.21685,-0.2675c0.06489,-0.06806 0.13059,-0.13691 0.19786,-0.20735z" fill="#0f0f0f"/><path d="M224.39808,193.50564c0.11792,0.03799 0.23505,0.07598 0.35614,0.11476c-0.05698,0.05381 -0.11396,0.10843 -0.17332,0.16383c-0.07519,0.07202 -0.14958,0.14404 -0.22714,0.21764c-0.0744,0.07044 -0.14878,0.14167 -0.22555,0.21448c-0.22635,0.22001 -0.22635,0.22001 -0.44241,0.55558c-0.11713,-0.03799 -0.23505,-0.07598 -0.35614,-0.11555c0.08626,-0.08151 0.08627,-0.08151 0.17332,-0.16383c0.07519,-0.07202 0.15037,-0.14324 0.22793,-0.21764c0.11159,-0.10605 0.11159,-0.10605 0.22477,-0.21447c0.22635,-0.22001 0.22634,-0.22002 0.4424,-0.55479z" fill="#72cde2"/><path d="M241.90197,163.66109c0.03641,0.0744 0.07202,0.14799 0.10922,0.22476c-0.13217,0.26671 -0.13217,0.26671 -0.31974,0.57457c-0.06173,0.10209 -0.12346,0.2034 -0.18677,0.30865c-0.04827,0.07835 -0.09655,0.1567 -0.14641,0.23743c-0.07202,-0.0736 -0.14325,-0.148 -0.21764,-0.22397c0.37671,-0.55479 0.37672,-0.55478 0.76135,-1.12144z" fill="#232323"/><path d="M225.42534,170.62719c0.03878,0 0.07836,0 0.11793,0c0.00949,0.46694 -0.00159,0.89114 -0.11793,1.34542c-0.19153,-0.18203 -0.19152,-0.18203 -0.35376,-0.44795c0.08231,-0.32686 0.19627,-0.59752 0.35376,-0.89747z" fill="#3d3d3d"/><path d="M258.0818,181.06922c-0.25959,0.2493 -0.25958,0.2493 -0.59356,0.48277c-0.33398,-0.03008 -0.33398,-0.03008 -0.59357,-0.12029c0.37435,-0.38146 0.67508,-0.53659 1.18713,-0.36247z" fill="#2f2f2f"/><path d="M252.85684,167.85722c0.07835,0.03719 0.1567,0.07519 0.23743,0.11397c-0.11872,0.34268 -0.11871,0.34268 -0.3411,0.45744c-0.0831,0.03799 -0.1662,0.07519 -0.25247,0.11397c-0.20261,0.17649 -0.20261,0.17649 -0.35614,0.34348c0,-0.34348 0,-0.34348 0.15591,-0.52708c0.06648,-0.05936 0.13217,-0.11872 0.20023,-0.18045c0.06648,-0.06094 0.13217,-0.12109 0.20023,-0.18361c0.07756,-0.06806 0.07756,-0.06806 0.15591,-0.13771z" fill="#0e0e0e"/><path d="M219.49047,199.67953c0.03878,0.0744 0.07834,0.14957 0.11871,0.22634c-0.15195,0.19311 -0.31103,0.38147 -0.47485,0.56508c-0.07835,0 -0.1567,0 -0.23743,0c0.148,-0.41313 0.19786,-0.54054 0.59357,-0.79142z" fill="#71cee4"/><path d="M233.18524,161.04932c0.03957,0 0.07835,0 0.11871,0c-0.03878,0.44406 -0.07835,0.88806 -0.11871,1.3455c-0.11713,-0.12109 -0.23505,-0.24218 -0.35614,-0.36722c0.22239,-0.70279 0.22239,-0.70278 0.35614,-0.97828z" fill="#353535"/><path d="M217.84114,202.13373c0.03483,0.0744 0.06964,0.14879 0.10525,0.22635c-0.13533,0.19311 -0.27621,0.38147 -0.42183,0.56508c-0.06965,0 -0.13929,0 -0.21131,0c0.13217,-0.41313 0.17649,-0.54055 0.52788,-0.79143z" fill="#71d1e7"/><path d="M260.88741,158.19915c0.04037,0.07305 0.08152,0.14626 0.12426,0.2216c-0.12426,0.21551 -0.12426,0.2155 -0.30311,0.45696c-0.05935,0.08033 -0.11793,0.16058 -0.17887,0.24328c-0.04591,0.06142 -0.0926,0.12283 -0.14008,0.18615c-0.08231,-0.07321 -0.16461,-0.14626 -0.2485,-0.22168c0.24613,-0.29243 0.49226,-0.58494 0.74631,-0.88631z" fill="#252525"/></g></g></svg>