<svg version="1.1" xmlns="http://www.w3.org/2000/svg" xmlns:xlink="http://www.w3.org/1999/xlink" width="531.13259" height="278.92804" viewBox="0,0,531.13259,278.92804"><g transform="translate(26.39636,-40.53589)"><g stroke-width="1.5"><path d="M227.42868,282.03241c26.32949,-70.60122 14.18316,-63.86511 21.27474,-95.79855h13.25895c7.09158,31.93344 1.70447,70.13556 21.27474,95.79855z" fill="#843c0c" fill-rule="evenodd" stroke="#000000" stroke-miterlimit="8"/><path d="M202.01274,236.17707c32.3369,-36.07997 36.07997,-53.32016 54.11996,-79.98023c18.03999,26.66008 18.66383,43.90026 54.11996,79.98023c-50.11739,-16.22177 -66.70174,-16.22177 -108.23992,0z" fill="#548235" fill-rule="evenodd" stroke="#000000" stroke-miterlimit="8"/><path d="M208.05569,191.74361c29.80064,-23.46798 40.36869,-62.08954 48.07701,-62.56232c9.7878,0.47277 7.10047,26.55344 48.07701,62.56232c-43.22665,-11.4976 -58.90455,-10.97507 -96.15402,0z" fill="#548235" fill-rule="evenodd" stroke="#000000" stroke-miterlimit="8"/><path d="M215.69825,153.70855c23.62083,-21.78128 26.42369,-41.47064 39.63465,-62.20685c13.21096,20.73621 2.74243,21.59644 39.63465,62.20685c-39.69508,-13.59842 -30.20765,-15.16781 -79.2693,0z" fill="#548235" fill-rule="evenodd" stroke="#000000" stroke-miterlimit="8"/><path d="M224.05174,118.51725c28.41076,-29.06873 23.21026,-31.47631 31.5602,-48.52134c7.30664,19.13625 10.44364,30.42981 32.60172,48.52134c-29.72421,-11.50116 -33.13492,-12.0237 -64.16192,0z" fill="#548235" fill-rule="evenodd" stroke="#000000" stroke-miterlimit="8"/><path d="M251.18966,234.04515l-9.36453,37.8742" fill="none" fill-rule="evenodd" stroke="#000000" stroke-miterlimit="8"/><path d="M255.19428,238.84343l-1.99419,33.23765" fill="none" fill-rule="evenodd" stroke="#000000" stroke-miterlimit="8"/><path d="M260.6649,237.42121l8.04779,34.5408" fill="none" fill-rule="evenodd" stroke="#000000" stroke-miterlimit="8"/><path d="M238.53216,215.91623l-14.48042,3.40456" fill="none" fill-rule="evenodd" stroke="#000000" stroke-miterlimit="8"/><path d="M224.05174,219.54828l11.09875,-13.05286" fill="none" fill-rule="evenodd" stroke="#000000" stroke-miterlimit="8"/><path d="M227.78415,179.05875l10.74931,-3.84389" fill="none" fill-rule="evenodd" stroke="#000000" stroke-miterlimit="8"/><path d="M227.78415,179.27912l7.36764,-9.21918" fill="none" fill-rule="evenodd" stroke="#000000" stroke-miterlimit="8"/><path d="M231.1611,143.56352l9.18859,-3.54101" fill="none" fill-rule="evenodd" stroke="#000000" stroke-miterlimit="8"/><path d="M231.16109,143.823l6.06707,-6.99939" fill="none" fill-rule="evenodd" stroke="#000000" stroke-miterlimit="8"/><path d="M249.41411,104.12026l-9.18859,3.54101" fill="none" fill-rule="evenodd" stroke="#000000" stroke-miterlimit="8"/><path d="M240.22552,107.92076l6.06707,-6.99939" fill="none" fill-rule="evenodd" stroke="#000000" stroke-miterlimit="8"/><path d="M278.79377,221.42515l14.47998,3.40538" fill="none" fill-rule="evenodd" stroke="#000000" stroke-miterlimit="8"/><path d="M293.44792,225.05803l-11.09948,-13.05277" fill="none" fill-rule="evenodd" stroke="#000000" stroke-miterlimit="8"/><path d="M291.14272,183.85756l-10.74934,-3.84438" fill="none" fill-rule="evenodd" stroke="#000000" stroke-miterlimit="8"/><path d="M291.13738,184.07795l-7.36707,-9.21906" fill="none" fill-rule="evenodd" stroke="#000000" stroke-miterlimit="8"/><path d="M273.10628,141.08945l9.18884,3.54046" fill="none" fill-rule="evenodd" stroke="#000000" stroke-miterlimit="8"/><path d="M282.19559,144.71168l-6.06783,-6.99916" fill="none" fill-rule="evenodd" stroke="#000000" stroke-miterlimit="8"/><path d="M262.97544,103.0544l9.18884,3.54046" fill="none" fill-rule="evenodd" stroke="#000000" stroke-miterlimit="8"/><path d="M266.17467,99.85519l6.06783,6.99916" fill="none" fill-rule="evenodd" stroke="#000000" stroke-miterlimit="8"/><path d="M243.24877,204.75728l9.86397,-4.73469" fill="none" fill-rule="evenodd" stroke="#000000" stroke-miterlimit="8"/><path d="M249.24073,195.27366l-5.95641,9.61515" fill="none" fill-rule="evenodd" stroke="#000000" stroke-miterlimit="8"/><path d="M261.72424,193.77358l11.07279,18.58004" fill="none" fill-rule="evenodd" stroke="#000000" stroke-miterlimit="8"/><path d="M261.65038,199.53478l11.20708,12.78685" fill="none" fill-rule="evenodd" stroke="#000000" stroke-miterlimit="8"/><path d="M253.97503,156.15027l-7.85052,8.28808" fill="none" fill-rule="evenodd" stroke="#000000" stroke-miterlimit="8"/><path d="M248.63173,153.08872l-2.40414,11.55402" fill="none" fill-rule="evenodd" stroke="#000000" stroke-miterlimit="8"/><path d="M266.63144,165.97397l-7.8505,-8.28773" fill="none" fill-rule="evenodd" stroke="#000000" stroke-miterlimit="8"/><path d="M266.52835,166.17836l-2.40296,-11.55448" fill="none" fill-rule="evenodd" stroke="#000000" stroke-miterlimit="8"/><path d="M244.13567,126.50106l9.18859,-3.54101" fill="none" fill-rule="evenodd" stroke="#000000" stroke-miterlimit="8"/><path d="M244.13567,126.58281l6.06707,-6.99939" fill="none" fill-rule="evenodd" stroke="#000000" stroke-miterlimit="8"/><path d="M267.15931,133.55176l-7.40497,-17.00357" fill="none" fill-rule="evenodd" stroke="#000000" stroke-miterlimit="8"/><path d="M267.26595,133.51621l-7.09473,-10.50713" fill="none" fill-rule="evenodd" stroke="#000000" stroke-miterlimit="8"/><path d="M253.81384,100.9312l3.07601,-18.28917" fill="none" fill-rule="evenodd" stroke="#000000" stroke-miterlimit="8"/><path d="M256.78143,82.6127l0.20986,12.6764" fill="none" fill-rule="evenodd" stroke="#000000" stroke-miterlimit="8"/><path d="M22.13087,318.71393c51.49367,-98.49053 136.07453,-276.67358 153.97975,-277.42785c21.4159,0.253 103.48861,178.93732 154.98228,277.42785z" fill="#8faadc" fill-rule="evenodd" stroke="#000000" stroke-miterlimit="8"/><path d="M193.0443,160.63107c-12.75767,10.63595 -31.72375,8.91524 -42.3597,-3.84425c-0.2242,-0.26795 -0.44294,-0.54137 -0.65803,-0.81661l23.76,-18.44111z" fill="#dae3f3" fill-rule="evenodd" stroke="none" stroke-miterlimit="10"/><path d="M193.0443,160.63106c-12.75767,10.63595 -31.72375,8.91524 -42.3597,-3.84425c-0.2242,-0.26795 -0.44294,-0.54137 -0.65803,-0.81661" fill="none" fill-rule="evenodd" stroke="#000000" stroke-miterlimit="8"/><path d="M226.58353,156.62093c-12.4478,10.37529 -30.87797,9.02461 -41.67797,-3.05499l22.42025,-20.04699z" fill="#dae3f3" fill-rule="evenodd" stroke="none" stroke-miterlimit="10"/><path d="M226.58353,156.62094c-12.4478,10.37529 -30.87797,9.02461 -41.67797,-3.05499" fill="none" fill-rule="evenodd" stroke="#000000" stroke-miterlimit="8"/><path d="M245.72278,149.51208c-7.64658,6.37428 -17.95078,8.55068 -27.52223,5.81651l8.26451,-28.91848z" fill="#dae3f3" fill-rule="evenodd" stroke="none" stroke-miterlimit="10"/><path d="M245.72278,149.51207c-7.64658,6.37428 -17.95078,8.55068 -27.52223,5.81651" fill="none" fill-rule="evenodd" stroke="#000000" stroke-miterlimit="8"/><path d="M110.80936,146.098c21.04952,-40.25347 54.8403,-104.61892 65.76425,-103.98714c12.04496,-0.2098 47.16091,66.24055 68.21043,106.49529c-31.05114,-0.69266 -37.49651,2.69043 -68.70441,4.97438c-31.05661,6.12273 -41.73813,-4.20516 -65.27028,-7.48253z" fill="#dae3f3" fill-rule="evenodd" stroke="none" stroke-miterlimit="10"/><path d="M156.26232,152.1624c-14.4802,11.18278 -35.20527,8.43949 -46.33154,-6.13367l26.21529,-20.34775z" fill="#dae3f3" fill-rule="evenodd" stroke="none" stroke-miterlimit="10"/><path d="M156.26232,152.1624c-14.4802,11.18278 -35.20527,8.43949 -46.33154,-6.13367" fill="none" fill-rule="evenodd" stroke="#000000" stroke-miterlimit="8"/><path d="M87.02202,294.77711l39.1279,-102.1999" fill="none" fill-rule="evenodd" stroke="#000000" stroke-miterlimit="8"/><path d="M116.18658,273.54895l19.95767,-75.32166" fill="none" fill-rule="evenodd" stroke="#000000" stroke-miterlimit="8"/><path d="M254.5648,208.54007c3.55867,5.3747 2.02963,8.74732 -2.06089,11.36088c-4.09051,2.61357 -6.75815,-0.01172 -9.41695,-4.02731c-2.65879,-4.0156 -7.49603,-12.82955 -2.49439,-16.02526c5.00165,-3.19572 10.41354,3.317 13.97222,8.6917z" fill="#546381" fill-rule="nonzero" stroke="#000000" stroke-miterlimit="10"/><path d="M265.83721,256.92152l30.07595,33.47544" fill="none" fill-rule="evenodd" stroke="#000000" stroke-miterlimit="8"/><path d="M285.80035,294.70237l-59.33529,-66.2163" fill="none" fill-rule="evenodd" stroke="#000000" stroke-miterlimit="8"/><path d="M194.53576,318.71393c51.49367,-98.49053 136.07453,-276.67358 153.97975,-277.42785c21.4159,0.253 103.48861,178.93732 154.98228,277.42785z" fill="#8faadc" fill-rule="evenodd" stroke="#000000" stroke-miterlimit="8"/><path d="M365.44919,160.63106c-12.75767,10.63595 -31.72375,8.91524 -42.3597,-3.84425c-0.2242,-0.26795 -0.44294,-0.54137 -0.65803,-0.81661l23.76,-18.44111z" fill="#dae3f3" fill-rule="evenodd" stroke="none" stroke-miterlimit="10"/><path d="M365.44919,160.63106c-12.75767,10.63595 -31.72375,8.91524 -42.3597,-3.84425c-0.2242,-0.26795 -0.44294,-0.54137 -0.65803,-0.81661" fill="none" fill-rule="evenodd" stroke="#000000" stroke-miterlimit="8"/><path d="M398.98842,156.62094c-12.4478,10.37529 -30.87797,9.02461 -41.67797,-3.05499l22.42025,-20.04699z" fill="#dae3f3" fill-rule="evenodd" stroke="none" stroke-miterlimit="10"/><path d="M398.98842,156.62094c-12.4478,10.37529 -30.87797,9.02461 -41.67797,-3.05499" fill="none" fill-rule="evenodd" stroke="#000000" stroke-miterlimit="8"/><path d="M418.12767,149.51208c-7.64658,6.37428 -17.95078,8.55068 -27.52223,5.81651l8.26451,-28.91848z" fill="#dae3f3" fill-rule="evenodd" stroke="none" stroke-miterlimit="10"/><path d="M418.12767,149.51207c-7.64658,6.37428 -17.95078,8.55068 -27.52223,5.81651" fill="none" fill-rule="evenodd" stroke="#000000" stroke-miterlimit="8"/><path d="M283.21425,146.098c21.04952,-40.25347 54.8403,-104.61892 65.76425,-103.98714c12.04496,-0.2098 47.16091,66.24055 68.21043,106.49529c-31.05114,-0.69266 -37.49651,2.69043 -68.70441,4.97438c-31.05661,6.12273 -41.73813,-4.20516 -65.27028,-7.48253z" fill="#dae3f3" fill-rule="evenodd" stroke="none" stroke-miterlimit="10"/><path d="M328.66721,152.1624c-14.4802,11.18278 -35.20527,8.43949 -46.33154,-6.13367l26.21529,-20.34775z" fill="#dae3f3" fill-rule="evenodd" stroke="none" stroke-miterlimit="10"/><path d="M328.66721,152.1624c-14.4802,11.18278 -35.20527,8.43949 -46.33154,-6.13367" fill="none" fill-rule="evenodd" stroke="#000000" stroke-miterlimit="8"/><path d="M259.4269,294.77711l39.1279,-102.1999" fill="none" fill-rule="evenodd" stroke="#000000" stroke-miterlimit="8"/><path d="M288.59147,273.54895l19.95767,-75.32166" fill="none" fill-rule="evenodd" stroke="#000000" stroke-miterlimit="8"/><path d="M438.2421,256.92151l30.07595,33.47544" fill="none" fill-rule="evenodd" stroke="#000000" stroke-miterlimit="8"/><path d="M398.86995,228.48606l59.33529,66.2163" fill="none" fill-rule="evenodd" stroke="#000000" stroke-miterlimit="8"/><path d="M7.12501,318.56635c31.73286,-42.31595 17.09408,-38.27848 25.64111,-57.41772h15.97853c8.54704,19.13924 2.05428,42.03706 25.64111,57.41772z" fill="#843c0c" fill-rule="evenodd" stroke="#000000" stroke-miterlimit="8"/><path d="M-23.49777,291.0423c38.99119,-21.62552 43.50441,-31.95889 65.2557,-47.93924c21.75129,15.98035 22.5041,26.31372 65.2557,47.93924c-60.42896,-9.72273 -80.42491,-9.72273 -130.51139,0z" fill="#548235" fill-rule="evenodd" stroke="#000000" stroke-miterlimit="8"/><path d="M-16.20663,264.42964c35.92891,-14.08466 48.67018,-37.26501 57.96456,-37.54937c11.80071,0.28435 8.56162,15.93661 57.96456,37.54937c-52.11706,-6.90106 -71.01934,-6.58754 -115.92911,0z" fill="#548235" fill-rule="evenodd" stroke="#000000" stroke-miterlimit="8"/><path d="M-6.91043,241.64483c28.40628,-13.08395 31.77661,-24.912 47.66582,-37.36709c15.88922,12.45509 3.29924,12.97276 47.66582,37.36709c-47.73691,-8.1679 -36.3281,-9.1121 -95.33165,0z" fill="#548235" fill-rule="evenodd" stroke="#000000" stroke-miterlimit="8"/><path d="M3.29716,220.50053c34.14076,-17.47139 27.89225,-18.91868 37.92486,-29.16456c8.78218,11.50177 12.5517,18.29165 39.17894,29.16456c-35.72111,-6.912 -39.81873,-7.22734 -77.1038,0z" fill="#548235" fill-rule="evenodd" stroke="#000000" stroke-miterlimit="8"/><path d="M35.90223,289.76654l-11.27848,22.7026" fill="none" fill-rule="evenodd" stroke="#000000" stroke-miterlimit="8"/><path d="M40.69642,292.68244l-2.40179,19.9234" fill="none" fill-rule="evenodd" stroke="#000000" stroke-miterlimit="8"/><path d="M57.1003,312.47643l-9.69175,-20.70501" fill="none" fill-rule="evenodd" stroke="#000000" stroke-miterlimit="8"/><path d="M3.29716,280.87117l17.43991,-2.04079" fill="none" fill-rule="evenodd" stroke="#000000" stroke-miterlimit="8"/><path d="M3.29716,281.0024l13.36708,-7.82416" fill="none" fill-rule="evenodd" stroke="#000000" stroke-miterlimit="8"/><path d="M7.67185,256.89062l12.94627,-2.30411" fill="none" fill-rule="evenodd" stroke="#000000" stroke-miterlimit="8"/><path d="M16.54531,251.48841l-8.87346,5.52615" fill="none" fill-rule="evenodd" stroke="#000000" stroke-miterlimit="8"/><path d="M22.7485,233.44147l-11.06653,2.12256" fill="none" fill-rule="evenodd" stroke="#000000" stroke-miterlimit="8"/><path d="M18.989,231.43771l-7.30703,4.19558" fill="none" fill-rule="evenodd" stroke="#000000" stroke-miterlimit="8"/><path d="M33.68521,211.9326l-11.06653,2.12256" fill="none" fill-rule="evenodd" stroke="#000000" stroke-miterlimit="8"/><path d="M22.61868,214.12443l7.30703,-4.19558" fill="none" fill-rule="evenodd" stroke="#000000" stroke-miterlimit="8"/><path d="M86.5401,284.15219l-17.44041,-2.04152" fill="none" fill-rule="evenodd" stroke="#000000" stroke-miterlimit="8"/><path d="M86.65858,284.28342l-13.36648,-7.82339" fill="none" fill-rule="evenodd" stroke="#000000" stroke-miterlimit="8"/><path d="M71.10476,257.32078l12.94542,2.304" fill="none" fill-rule="evenodd" stroke="#000000" stroke-miterlimit="8"/><path d="M83.9882,259.74873l-8.87332,-5.52668" fill="none" fill-rule="evenodd" stroke="#000000" stroke-miterlimit="8"/><path d="M73.23923,236.11087l-11.06613,-2.12172" fill="none" fill-rule="evenodd" stroke="#000000" stroke-miterlimit="8"/><path d="M66.00096,232.16635l7.30754,4.19605" fill="none" fill-rule="evenodd" stroke="#000000" stroke-miterlimit="8"/><path d="M61.20886,213.32606l-11.06613,-2.12172" fill="none" fill-rule="evenodd" stroke="#000000" stroke-miterlimit="8"/><path d="M61.09585,213.57759l-7.30754,-4.19605" fill="none" fill-rule="evenodd" stroke="#000000" stroke-miterlimit="8"/><path d="M37.89182,268.5096l-12.19628,4.52177" fill="none" fill-rule="evenodd" stroke="#000000" stroke-miterlimit="8"/><path d="M25.71559,273.10976l8.38657,-7.05398" fill="none" fill-rule="evenodd" stroke="#000000" stroke-miterlimit="8"/><path d="M58.7882,276.2103l-7.17376,-10.85047" fill="none" fill-rule="evenodd" stroke="#000000" stroke-miterlimit="8"/><path d="M58.85929,276.17202l-8.77448,-6.56518" fill="none" fill-rule="evenodd" stroke="#000000" stroke-miterlimit="8"/><path d="M39.05264,241.5823l-10.50626,7.9078" fill="none" fill-rule="evenodd" stroke="#000000" stroke-miterlimit="8"/><path d="M28.60835,249.61222l5.4168,-8.94063" fill="none" fill-rule="evenodd" stroke="#000000" stroke-miterlimit="8"/><path d="M55.64207,250.41061l-10.50653,-7.90724" fill="none" fill-rule="evenodd" stroke="#000000" stroke-miterlimit="8"/><path d="M50.16278,241.59197l5.41732,8.94076" fill="none" fill-rule="evenodd" stroke="#000000" stroke-miterlimit="8"/><path d="M27.17564,225.35643l11.06653,-2.12256" fill="none" fill-rule="evenodd" stroke="#000000" stroke-miterlimit="8"/><path d="M34.48266,221.23012l-7.30703,4.19558" fill="none" fill-rule="evenodd" stroke="#000000" stroke-miterlimit="8"/><path d="M47.89318,219.3393l5.45219,9.86138" fill="none" fill-rule="evenodd" stroke="#000000" stroke-miterlimit="8"/><path d="M53.47478,229.15877l-6.25611,-5.64417" fill="none" fill-rule="evenodd" stroke="#000000" stroke-miterlimit="8"/><path d="M41.26577,198.73466l-0.81399,11.23881" fill="none" fill-rule="evenodd" stroke="#000000" stroke-miterlimit="8"/><path d="M41.13452,198.70003l2.16142,8.14395" fill="none" fill-rule="evenodd" stroke="#000000" stroke-miterlimit="8"/><path d="M335.94381,220.47335c1.03834,6.36187 -1.74055,8.8094 -6.54344,9.51317c-4.80289,0.70378 -6.15752,-2.78526 -6.93329,-7.53841c-0.77576,-4.75314 -1.56795,-14.77597 4.30473,-15.6365c5.8727,-0.86053 8.13365,7.29987 9.17199,13.66174z" fill="#546381" fill-rule="nonzero" stroke="#000000" stroke-miterlimit="10"/><path d="M369.54539,261.43257c-4.29544,4.80631 -7.94572,4.18337 -11.51193,0.89016c-3.56622,-3.2932 -1.70398,-6.53982 1.50527,-10.13076c3.20926,-3.59094 5.70148,-5.70157 10.06203,-1.67484c4.36057,4.02673 4.24006,6.10911 -0.05539,10.91543z" fill="#546381" fill-rule="nonzero" stroke="#000000" stroke-miterlimit="10"/><path d="M323.74419,290.94223c0.20509,1.25658 0.48131,7.2783 9.6655,9.46147c15.84242,3.76589 44.31624,4.14262 44.63644,6.84166c0.43397,3.65803 -46.79905,5.45283 -54.19184,2.45105c-4.80289,0.70378 -12.81105,-12.02627 -13.58682,-16.77941c-0.77576,-4.75315 -1.56795,-14.77597 4.30474,-15.6365c5.8727,-0.86054 8.13365,7.29987 9.17198,13.66174z" fill="#546381" fill-rule="nonzero" stroke="#000000" stroke-miterlimit="10"/><path d="M260.16255,268.24963c1.03834,6.36187 -8.76371,2.52551 -13.5666,3.22928c-4.80289,0.70378 -1.47808,-16.03049 4.39461,-16.89102c5.8727,-0.86053 8.13365,7.29987 9.17198,13.66174z" fill="#546381" fill-rule="nonzero" stroke="#000000" stroke-miterlimit="10"/><path d="M432.97927,298.01554c1.03834,6.36187 -0.63162,7.70047 -5.43451,8.40425c-4.80289,0.70378 -7.26644,-1.67634 -8.04222,-6.42948c-0.77576,-4.75315 -1.56795,-14.77597 4.30473,-15.6365c5.8727,-0.86054 8.13365,7.29987 9.17199,13.66174z" fill="#546381" fill-rule="nonzero" stroke="#000000" stroke-miterlimit="10"/><path d="M427.20206,199.13499c7.97826,11.54325 5.05263,19.13514 -3.34068,25.28753c-8.3933,6.15241 -14.24982,0.60016 -20.21063,-8.02414c-5.96079,-8.62432 -16.93885,-27.64656 -6.67601,-35.16933c10.26286,-7.5228 22.24904,6.36271 30.2273,17.90596z" fill="#546381" fill-rule="nonzero" stroke="#000000" stroke-miterlimit="10"/><path d="M190.83006,264.38575c-2.01288,6.12371 -43.3107,9.23156 -47.89684,7.64084c-4.58614,-1.59071 -4.1789,-5.31127 -2.67502,-9.88648c1.50389,-4.57521 7.27186,-17.53012 12.87952,-15.58509c0.71111,0.24665 12.89825,-7.81029 14.26935,-7.85463c9.44106,-0.30532 20.74492,1.85618 18.98729,7.20333z" fill="#546381" fill-rule="nonzero" stroke="#000000" stroke-miterlimit="10"/><path d="M98.9739,207.02594c-4.80289,0.70378 -2.09148,-5.37274 -2.86725,-10.12589c-0.77576,-4.75315 19.87119,-21.05986 25.74388,-21.92039c5.8727,-0.86053 -11.45729,13.21412 -10.41895,19.57599c0,0 -7.65478,11.76652 -12.45767,12.47029z" fill="#546381" fill-rule="nonzero" stroke="#000000" stroke-miterlimit="10"/></g></g></svg>