<svg version="1.1" xmlns="http://www.w3.org/2000/svg" xmlns:xlink="http://www.w3.org/1999/xlink" width="182.01776" height="116.03894" viewBox="0,0,182.01776,116.03894"><g transform="translate(-148.99112,-121.98053)"><g><path d="M155.96028,232.96304c-6.80545,-4.69955 -9.03465,-97.6887 0,-105.76923c6.40719,-5.73055 162.1538,-5.50371 168.84615,0c7.50874,6.1751 6.33988,100.15472 0,105.76923c-6.29166,5.57181 -161.25396,5.24284 -168.84615,0z" fill="#e7e6e6" fill-rule="nonzero" stroke="#000000" stroke-width="2" stroke-miterlimit="10"/><path d="M186.88904,210.27809c12.56859,-18.4335 33.21289,-51.78221 37.58343,-51.92337c5.227,0.04735 25.25946,33.48987 37.82806,51.92337z" fill="#8faadc" fill-rule="evenodd" stroke="#000000" stroke-width="1.5" stroke-miterlimit="8"/><path d="M228.86686,177.45861c-0.79119,2.76229 -4.86745,4.07946 -9.10443,2.942c-0.74113,-0.19897 -1.45825,-0.46688 -2.12911,-0.79541l3.56169,-4.20622z" fill="#dae3f3" fill-rule="evenodd" stroke="none" stroke-width="1.5" stroke-miterlimit="10"/><path d="M228.86686,177.45861c-0.79119,2.76229 -4.86745,4.07946 -9.10443,2.942c-0.74113,-0.19897 -1.45825,-0.46688 -2.12911,-0.79541" fill="none" fill-rule="evenodd" stroke="#000000" stroke-width="1.5" stroke-miterlimit="8"/><path d="M235.86389,179.66067c-3.62316,1.81503 -8.1827,1.27905 -10.18404,-1.19708c-0.27218,-0.33678 -0.48796,-0.70029 -0.64329,-1.08367l7.20362,-2.20275z" fill="#dae3f3" fill-rule="evenodd" stroke="none" stroke-width="1.5" stroke-miterlimit="10"/><path d="M235.86389,179.66067c-3.62316,1.81503 -8.1827,1.27905 -10.18404,-1.19708c-0.27218,-0.33678 -0.48796,-0.70029 -0.64329,-1.08367" fill="none" fill-rule="evenodd" stroke="#000000" stroke-width="1.5" stroke-miterlimit="8"/><path d="M241.54067,178.54257c-2.02383,1.33965 -4.83782,1.72747 -7.34288,1.01206l2.55631,-5.26834z" fill="#dae3f3" fill-rule="evenodd" stroke="none" stroke-width="1.5" stroke-miterlimit="10"/><path d="M241.54067,178.54257c-2.02383,1.33965 -4.83782,1.72747 -7.34288,1.01206" fill="none" fill-rule="evenodd" stroke="#000000" stroke-width="1.5" stroke-miterlimit="8"/><path d="M208.554,177.94089c5.12759,-7.53644 13.35885,-19.58696 16.01995,-19.46865c2.93416,-0.03932 11.48853,12.40157 16.61612,19.93796c-7.56404,-0.1295 -9.13414,0.50365 -16.73636,0.93145c-7.56508,1.14632 -10.16709,-0.7872 -15.89971,-1.40076z" fill="#dae3f3" fill-rule="evenodd" stroke="none" stroke-width="1.5" stroke-miterlimit="10"/><path d="M220.42616,178.53696c-3.13536,2.44483 -8.22611,2.45057 -11.37059,0.01278c-0.23146,-0.17942 -0.44858,-0.36967 -0.65026,-0.56966l6.32736,-3.85707z" fill="#dae3f3" fill-rule="evenodd" stroke="none" stroke-width="1.5" stroke-miterlimit="10"/><path d="M220.42616,178.53696c-3.13536,2.44483 -8.22611,2.45057 -11.37059,0.01278c-0.23146,-0.17942 -0.44858,-0.36967 -0.65026,-0.56966" fill="none" fill-rule="evenodd" stroke="#000000" stroke-width="1.5" stroke-miterlimit="8"/><path d="M217.6524,184.29322l-14.92062,21.48905" fill="none" fill-rule="evenodd" stroke="#000000" stroke-width="1.5" stroke-miterlimit="8"/><path d="M224.09274,189.09813l-7.89462,13.63639" fill="none" fill-rule="evenodd" stroke="#000000" stroke-width="1.5" stroke-miterlimit="8"/><path d="M245.26958,200.7145l6.68659,7.0752" fill="none" fill-rule="evenodd" stroke="#000000" stroke-width="1.5" stroke-miterlimit="8"/><path d="M245.25286,207.59376l-14.95469,-10.37814" fill="none" fill-rule="evenodd" stroke="#000000" stroke-width="1.5" stroke-miterlimit="8"/><path d="M221.78782,210.47644c8.6893,-21.63909 22.96175,-60.78715 25.98333,-60.95287c3.61369,0.05559 17.46313,39.31378 26.15245,60.95287z" fill="#8faadc" fill-rule="evenodd" stroke="#000000" stroke-width="1.5" stroke-miterlimit="8"/><path d="M250.80921,171.94963c-0.54699,3.24266 -3.36512,4.78887 -6.29435,3.45361c-0.51237,-0.23357 -1.00816,-0.54808 -1.47196,-0.93374l2.46237,-4.93767z" fill="#dae3f3" fill-rule="evenodd" stroke="none" stroke-width="1.5" stroke-miterlimit="10"/><path d="M250.80921,171.94963c-0.54699,3.24266 -3.36512,4.78887 -6.29435,3.45361c-0.51237,-0.23357 -1.00816,-0.54808 -1.47196,-0.93374" fill="none" fill-rule="evenodd" stroke="#000000" stroke-width="1.5" stroke-miterlimit="8"/><path d="M255.64661,174.53462c-2.50487,2.13067 -5.65712,1.50147 -7.04074,-1.40526c-0.18817,-0.39534 -0.33735,-0.82207 -0.44474,-1.27213l4.98022,-2.58581z" fill="#dae3f3" fill-rule="evenodd" stroke="none" stroke-width="1.5" stroke-miterlimit="10"/><path d="M255.64661,174.53462c-2.50487,2.13067 -5.65712,1.50147 -7.04074,-1.40526c-0.18817,-0.39534 -0.33735,-0.82207 -0.44474,-1.27213" fill="none" fill-rule="evenodd" stroke="#000000" stroke-width="1.5" stroke-miterlimit="8"/><path d="M259.57124,173.22209c-1.39918,1.57262 -3.34463,2.02787 -5.0765,1.18806l1.7673,-6.1845z" fill="#dae3f3" fill-rule="evenodd" stroke="none" stroke-width="1.5" stroke-miterlimit="10"/><path d="M259.57124,173.22209c-1.39918,1.57262 -3.34463,2.02787 -5.0765,1.18806" fill="none" fill-rule="evenodd" stroke="#000000" stroke-width="1.5" stroke-miterlimit="8"/><path d="M236.7659,172.51579c3.54496,-8.84704 9.23565,-22.99314 11.0754,-22.85426c2.02853,-0.04617 7.9426,14.55821 11.48756,23.40519c-5.22941,-0.15203 -6.31489,0.59123 -11.57069,1.09342c-5.23012,1.34568 -7.02902,-0.9241 -10.99227,-1.64436z" fill="#dae3f3" fill-rule="evenodd" stroke="none" stroke-width="1.5" stroke-miterlimit="10"/><path d="M244.97373,173.2155c-2.16763,2.86999 -5.68713,2.87672 -7.86106,0.01501c-0.16002,-0.21062 -0.31013,-0.43395 -0.44956,-0.66873l4.37442,-4.52782z" fill="#dae3f3" fill-rule="evenodd" stroke="none" stroke-width="1.5" stroke-miterlimit="10"/><path d="M244.97373,173.2155c-2.16763,2.86999 -5.68713,2.87672 -7.86106,0.01501c-0.16002,-0.21062 -0.31013,-0.43395 -0.44956,-0.66873" fill="none" fill-rule="evenodd" stroke="#000000" stroke-width="1.5" stroke-miterlimit="8"/><path d="M243.05609,179.9728l-10.31538,25.226" fill="none" fill-rule="evenodd" stroke="#000000" stroke-width="1.5" stroke-miterlimit="8"/><path d="M242.05068,201.62103l5.45794,-16.00777" fill="none" fill-rule="evenodd" stroke="#000000" stroke-width="1.5" stroke-miterlimit="8"/><path d="M262.14923,199.24972l4.62278,8.30558" fill="none" fill-rule="evenodd" stroke="#000000" stroke-width="1.5" stroke-miterlimit="8"/><path d="M251.79875,195.14239l10.33893,12.18291" fill="none" fill-rule="evenodd" stroke="#000000" stroke-width="1.5" stroke-miterlimit="8"/><path d="M272.8291,210.27809c6.44755,-17.28878 3.47316,-15.63925 5.20974,-23.45909h3.24685c1.73658,7.81984 0.41739,17.17476 5.20974,23.45909z" fill="#843c0c" fill-rule="evenodd" stroke="#000000" stroke-width="1.5" stroke-miterlimit="8"/><path d="M266.60526,199.04907c7.91864,-8.83524 8.83524,-13.05701 13.25286,-19.58551c4.41762,6.5285 4.57039,10.75027 13.25286,19.58551c-12.27272,-3.97237 -16.33388,-3.97237 -26.50573,0z" fill="#548235" fill-rule="evenodd" stroke="#000000" stroke-width="1.5" stroke-miterlimit="8"/><path d="M268.08504,188.16822c7.29757,-5.74683 9.88546,-15.20445 11.77307,-15.32022c2.39683,0.11577 1.73876,6.50239 11.77307,15.32022c-10.58531,-2.81553 -14.42451,-2.68757 -23.54614,0z" fill="#548235" fill-rule="evenodd" stroke="#000000" stroke-width="1.5" stroke-miterlimit="8"/><path d="M269.95655,178.85423c5.78425,-5.33379 6.47062,-10.15531 9.70571,-15.23318c3.23509,5.07787 0.67156,5.28852 9.70571,15.23318c-9.72051,-3.32997 -7.39723,-3.71428 -19.41142,0z" fill="#548235" fill-rule="evenodd" stroke="#000000" stroke-width="1.5" stroke-miterlimit="8"/><path d="M272.00216,170.2366c6.95721,-7.11834 5.68371,-7.7079 7.72844,-11.88188c1.78924,4.68607 2.55743,7.45163 7.98349,11.88188c-7.27884,-2.81639 -8.11406,-2.94436 -15.71193,0z" fill="#548235" fill-rule="evenodd" stroke="#000000" stroke-width="1.5" stroke-miterlimit="8"/><path d="M276.35449,207.80161l2.29318,-9.27461" fill="none" fill-rule="evenodd" stroke="#000000" stroke-width="1.5" stroke-miterlimit="8"/><path d="M279.62833,199.70201l-0.48834,8.13921" fill="none" fill-rule="evenodd" stroke="#000000" stroke-width="1.5" stroke-miterlimit="8"/><path d="M280.96796,199.35373l1.97074,8.45833" fill="none" fill-rule="evenodd" stroke="#000000" stroke-width="1.5" stroke-miterlimit="8"/><path d="M272.00216,194.92131l3.54595,-0.83371" fill="none" fill-rule="evenodd" stroke="#000000" stroke-width="1.5" stroke-miterlimit="8"/><path d="M274.72001,191.78064l-2.71785,3.19638" fill="none" fill-rule="evenodd" stroke="#000000" stroke-width="1.5" stroke-miterlimit="8"/><path d="M272.91614,185.06197l2.63228,-0.94129" fill="none" fill-rule="evenodd" stroke="#000000" stroke-width="1.5" stroke-miterlimit="8"/><path d="M274.72033,182.85835l-1.80418,2.25758" fill="none" fill-rule="evenodd" stroke="#000000" stroke-width="1.5" stroke-miterlimit="8"/><path d="M273.74309,176.36992l2.2501,-0.86712" fill="none" fill-rule="evenodd" stroke="#000000" stroke-width="1.5" stroke-miterlimit="8"/><path d="M275.22879,174.71944l-1.4857,1.71401" fill="none" fill-rule="evenodd" stroke="#000000" stroke-width="1.5" stroke-miterlimit="8"/><path d="M275.96279,167.5782l2.25009,-0.86712" fill="none" fill-rule="evenodd" stroke="#000000" stroke-width="1.5" stroke-miterlimit="8"/><path d="M277.44847,165.92772l-1.4857,1.71401" fill="none" fill-rule="evenodd" stroke="#000000" stroke-width="1.5" stroke-miterlimit="8"/><path d="M285.40735,195.43663l3.54584,0.83391" fill="none" fill-rule="evenodd" stroke="#000000" stroke-width="1.5" stroke-miterlimit="8"/><path d="M288.99584,196.32625l-2.71803,-3.19636" fill="none" fill-rule="evenodd" stroke="#000000" stroke-width="1.5" stroke-miterlimit="8"/><path d="M288.43135,186.23709l-2.63229,-0.94141" fill="none" fill-rule="evenodd" stroke="#000000" stroke-width="1.5" stroke-miterlimit="8"/><path d="M288.43005,186.29106l-1.80404,-2.25755" fill="none" fill-rule="evenodd" stroke="#000000" stroke-width="1.5" stroke-miterlimit="8"/><path d="M286.26475,176.63105l-2.25016,-0.86698" fill="none" fill-rule="evenodd" stroke="#000000" stroke-width="1.5" stroke-miterlimit="8"/><path d="M286.24039,176.65108l-1.48589,-1.71395" fill="none" fill-rule="evenodd" stroke="#000000" stroke-width="1.5" stroke-miterlimit="8"/><path d="M283.78393,167.31705l-2.25016,-0.86698" fill="none" fill-rule="evenodd" stroke="#000000" stroke-width="1.5" stroke-miterlimit="8"/><path d="M282.31719,165.66664l1.48588,1.71395" fill="none" fill-rule="evenodd" stroke="#000000" stroke-width="1.5" stroke-miterlimit="8"/><path d="M276.70311,191.355l2.41548,-1.15942" fill="none" fill-rule="evenodd" stroke="#000000" stroke-width="1.5" stroke-miterlimit="8"/><path d="M276.71181,191.38722l1.45861,-2.35456" fill="none" fill-rule="evenodd" stroke="#000000" stroke-width="1.5" stroke-miterlimit="8"/><path d="M283.93887,193.2152l-2.7115,-4.54987" fill="none" fill-rule="evenodd" stroke="#000000" stroke-width="1.5" stroke-miterlimit="8"/><path d="M283.95367,193.20737l-2.74438,-3.13124" fill="none" fill-rule="evenodd" stroke="#000000" stroke-width="1.5" stroke-miterlimit="8"/><path d="M279.32975,179.45215l-1.92243,2.02958" fill="none" fill-rule="evenodd" stroke="#000000" stroke-width="1.5" stroke-miterlimit="8"/><path d="M278.02128,178.70244l-0.58873,2.82935" fill="none" fill-rule="evenodd" stroke="#000000" stroke-width="1.5" stroke-miterlimit="8"/><path d="M282.42904,181.85777l-1.92243,-2.02949" fill="none" fill-rule="evenodd" stroke="#000000" stroke-width="1.5" stroke-miterlimit="8"/><path d="M281.81536,179.07837l0.58844,2.82945" fill="none" fill-rule="evenodd" stroke="#000000" stroke-width="1.5" stroke-miterlimit="8"/><path d="M276.9203,172.19166l2.25009,-0.86712" fill="none" fill-rule="evenodd" stroke="#000000" stroke-width="1.5" stroke-miterlimit="8"/><path d="M276.9203,172.21169l1.4857,-1.71401" fill="none" fill-rule="evenodd" stroke="#000000" stroke-width="1.5" stroke-miterlimit="8"/><path d="M280.74498,169.75442l1.81333,4.16383" fill="none" fill-rule="evenodd" stroke="#000000" stroke-width="1.5" stroke-miterlimit="8"/><path d="M280.84707,171.33656l1.73735,2.57298" fill="none" fill-rule="evenodd" stroke="#000000" stroke-width="1.5" stroke-miterlimit="8"/><path d="M280.04353,161.4515l-0.75325,4.47864" fill="none" fill-rule="evenodd" stroke="#000000" stroke-width="1.5" stroke-miterlimit="8"/><path d="M280.06836,164.54849l-0.05139,-3.10419" fill="none" fill-rule="evenodd" stroke="#000000" stroke-width="1.5" stroke-miterlimit="8"/></g></g></svg>