<svg version="1.1" xmlns="http://www.w3.org/2000/svg" xmlns:xlink="http://www.w3.org/1999/xlink" width="525.92306" height="278.92804" viewBox="0,0,525.92306,278.92804"><g transform="translate(22.89699,-40.53589)"><g stroke-width="1.5"><path d="M-3.35677,317.91269c67.06503,-96.03493 177.22198,-269.77546 200.54244,-270.51093c27.89,0.24669 134.78269,174.47599 201.84701,270.51093z" fill="#8faadc" fill-rule="evenodd" stroke="#000000" stroke-miterlimit="8"/><path d="M205.18013,153.61018c-5.86522,15.26734 -27.40656,22.90812 -48.11362,17.06423c-7.65802,-2.16124 -14.46807,-6.00029 -19.51464,-10.99817l30.13353,-16.64655z" fill="#dae3f3" fill-rule="evenodd" stroke="none" stroke-miterlimit="10"/><path d="M205.18013,153.61018c-5.86522,15.26734 -27.40656,22.90812 -48.11362,17.06423c-7.65802,-2.16124 -14.46807,-6.00029 -19.51464,-10.99817" fill="none" fill-rule="evenodd" stroke="#000000" stroke-miterlimit="8"/><path d="M112.08136,149.6005c27.39376,-39.24986 71.36903,-102.01052 85.58596,-101.3945c15.67613,-0.20457 61.37683,64.58902 88.77095,103.84012c-40.41135,-0.67539 -48.79861,2.62335 -89.41257,4.85036c-40.41703,5.97008 -54.31813,-4.10032 -84.94434,-7.29597z" fill="#dae3f3" fill-rule="evenodd" stroke="none" stroke-miterlimit="10"/><path d="M162.20941,155.22934c-16.66948,7.24265 -37.67033,5.23782 -51.43991,-4.90723l30.01587,-23.29558z" fill="#dae3f3" fill-rule="evenodd" stroke="none" stroke-miterlimit="10"/><path d="M162.20941,155.22934c-16.66948,7.24265 -37.67033,5.23782 -51.43991,-4.90723" fill="none" fill-rule="evenodd" stroke="#000000" stroke-miterlimit="8"/><path d="M124.61159,205.88882l143.2741,-8.12375" fill="none" fill-rule="evenodd" stroke="#000000" stroke-miterlimit="8"/><path d="M115.36944,240.59668l116.40608,-21.14855" fill="none" fill-rule="evenodd" stroke="#000000" stroke-miterlimit="8"/><path d="M343.00917,303.79173l-112.82367,-42.57614" fill="none" fill-rule="evenodd" stroke="#000000" stroke-miterlimit="8"/><path d="M267.74954,296.31804l-200.72373,-15.72945" fill="none" fill-rule="evenodd" stroke="#000000" stroke-miterlimit="8"/><path d="M243.62573,145.34379c-5.90965,15.58015 -27.58074,24.62503 -48.40226,20.20301c-5.3018,-1.12683 -10.22503,-3.07657 -14.45154,-5.72303l25.1529,-22.48866z" fill="#dae3f3" fill-rule="evenodd" stroke="none" stroke-miterlimit="10"/><path d="M243.62573,145.34378c-5.90965,15.58015 -27.58074,24.62503 -48.40226,20.20301c-5.3018,-1.12683 -10.22503,-3.07657 -14.45154,-5.72303" fill="none" fill-rule="evenodd" stroke="#000000" stroke-miterlimit="8"/><path d="M287.34826,152.41936c-16.37995,10.58761 -41.12761,9.2315 -55.27523,-3.02503c-0.59719,-0.51721 -1.16949,-1.05041 -1.71691,-1.59783l31.37713,-17.57077z" fill="#dae3f3" fill-rule="evenodd" stroke="none" stroke-miterlimit="10"/><path d="M287.34826,152.41936c-16.37995,10.58761 -41.12761,9.2315 -55.27523,-3.02503c-0.59719,-0.51721 -1.16949,-1.05041 -1.71691,-1.59783" fill="none" fill-rule="evenodd" stroke="#000000" stroke-miterlimit="8"/><path d="M-21.78762,317.97477c28.92154,-72.0237 76.42605,-202.32437 86.48308,-202.87595c12.02783,0.18501 58.12442,130.85225 87.04599,202.87595z" fill="#8faadc" fill-rule="evenodd" stroke="#000000" stroke-miterlimit="8"/><path d="M74.80737,191.73477c-1.8206,10.79289 -11.20047,15.93934 -20.95018,11.49503c-1.7054,-0.77742 -3.35556,-1.82424 -4.89928,-3.10785l8.19579,-16.43459z" fill="#dae3f3" fill-rule="evenodd" stroke="none" stroke-miterlimit="10"/><path d="M74.80737,191.73477c-1.8206,10.79289 -11.20047,15.93934 -20.95018,11.49503c-1.7054,-0.77742 -3.35556,-1.82424 -4.89928,-3.10785" fill="none" fill-rule="evenodd" stroke="#000000" stroke-miterlimit="8"/><path d="M90.90821,200.33869c-8.33724,7.09173 -18.82918,4.99753 -23.43445,-4.67727c-0.62631,-1.31587 -1.12284,-2.73618 -1.48028,-4.23415l16.57622,-8.60664z" fill="#dae3f3" fill-rule="evenodd" stroke="none" stroke-miterlimit="10"/><path d="M90.90821,200.33869c-8.33724,7.09173 -18.82918,4.99753 -23.43445,-4.67727c-0.62631,-1.31587 -1.12284,-2.73618 -1.48028,-4.23415" fill="none" fill-rule="evenodd" stroke="#000000" stroke-miterlimit="8"/><path d="M103.97101,195.97002c-4.65703,5.23431 -11.13229,6.74959 -16.89667,3.95435l5.88231,-20.58453z" fill="#dae3f3" fill-rule="evenodd" stroke="none" stroke-miterlimit="10"/><path d="M103.97101,195.97002c-4.65703,5.23431 -11.13229,6.74959 -16.89667,3.95435" fill="none" fill-rule="evenodd" stroke="#000000" stroke-miterlimit="8"/><path d="M28.06552,193.61917c11.79907,-29.44654 30.73999,-76.53053 36.86345,-76.06827c6.75178,-0.15366 26.43621,48.45564 38.23528,77.90199c-17.40559,-0.50601 -21.01853,1.96788 -38.51198,3.63937c-17.40796,4.47895 -23.39544,-3.07577 -36.58675,-5.47309z" fill="#dae3f3" fill-rule="evenodd" stroke="none" stroke-miterlimit="10"/><path d="M55.38451,195.94814c-7.21476,9.55249 -18.92907,9.57491 -26.1648,0.04994c-0.53262,-0.70104 -1.03224,-1.44437 -1.49632,-2.2258l14.55986,-15.07042z" fill="#dae3f3" fill-rule="evenodd" stroke="none" stroke-miterlimit="10"/><path d="M55.38451,195.94814c-7.21476,9.55249 -18.92907,9.57491 -26.1648,0.04994c-0.53262,-0.70104 -1.03224,-1.44437 -1.49632,-2.2258" fill="none" fill-rule="evenodd" stroke="#000000" stroke-miterlimit="8"/><path d="M14.66804,302.40151l34.33379,-83.96239" fill="none" fill-rule="evenodd" stroke="#000000" stroke-miterlimit="8"/><path d="M63.82167,237.21289l-18.16627,53.28036" fill="none" fill-rule="evenodd" stroke="#000000" stroke-miterlimit="8"/><path d="M112.5516,282.6006l15.38649,27.64435" fill="none" fill-rule="evenodd" stroke="#000000" stroke-miterlimit="8"/><path d="M78.10096,268.92971l34.41217,40.54967" fill="none" fill-rule="evenodd" stroke="#000000" stroke-miterlimit="8"/><path d="M192.82559,318.71393c51.49367,-98.49053 136.07453,-276.67358 153.97975,-277.42785c21.4159,0.253 103.48861,178.93732 154.98228,277.42785z" fill="#8faadc" fill-rule="evenodd" stroke="#000000" stroke-miterlimit="8"/><path d="M363.73902,160.63108c-12.75767,10.63595 -31.72375,8.91524 -42.3597,-3.84425c-0.2242,-0.26795 -0.44294,-0.54137 -0.65803,-0.81661l23.76,-18.44111z" fill="#dae3f3" fill-rule="evenodd" stroke="none" stroke-miterlimit="10"/><path d="M363.73902,160.63108c-12.75767,10.63595 -31.72375,8.91524 -42.3597,-3.84425c-0.2242,-0.26795 -0.44294,-0.54137 -0.65803,-0.81661" fill="none" fill-rule="evenodd" stroke="#000000" stroke-miterlimit="8"/><path d="M397.27825,156.62095c-12.4478,10.37529 -30.87797,9.02461 -41.67797,-3.05499l22.42025,-20.04699z" fill="#dae3f3" fill-rule="evenodd" stroke="none" stroke-miterlimit="10"/><path d="M397.27825,156.62096c-12.4478,10.37529 -30.87797,9.02461 -41.67797,-3.05499" fill="none" fill-rule="evenodd" stroke="#000000" stroke-miterlimit="8"/><path d="M416.4175,149.51208c-7.64658,6.37428 -17.95078,8.55068 -27.52223,5.81651l8.26451,-28.91848z" fill="#dae3f3" fill-rule="evenodd" stroke="none" stroke-miterlimit="10"/><path d="M416.4175,149.51208c-7.64658,6.37428 -17.95078,8.55068 -27.52223,5.81651" fill="none" fill-rule="evenodd" stroke="#000000" stroke-miterlimit="8"/><path d="M281.50408,146.09802c21.04952,-40.25347 54.8403,-104.61892 65.76425,-103.98714c12.04496,-0.2098 47.16091,66.24055 68.21043,106.49529c-31.05114,-0.69266 -37.49651,2.69043 -68.70441,4.97438c-31.05661,6.12273 -41.73813,-4.20516 -65.27028,-7.48253z" fill="#dae3f3" fill-rule="evenodd" stroke="none" stroke-miterlimit="10"/><path d="M326.95704,152.16242c-14.4802,11.18278 -35.20527,8.43949 -46.33154,-6.13367l26.21529,-20.34775z" fill="#dae3f3" fill-rule="evenodd" stroke="none" stroke-miterlimit="10"/><path d="M326.95704,152.16242c-14.4802,11.18278 -35.20527,8.43949 -46.33154,-6.13367" fill="none" fill-rule="evenodd" stroke="#000000" stroke-miterlimit="8"/><path d="M257.71674,294.7771l39.1279,-102.1999" fill="none" fill-rule="evenodd" stroke="#000000" stroke-miterlimit="8"/><path d="M306.83897,198.22728l-19.95767,75.32166" fill="none" fill-rule="evenodd" stroke="#000000" stroke-miterlimit="8"/><path d="M436.53193,256.92152l30.07595,33.47544" fill="none" fill-rule="evenodd" stroke="#000000" stroke-miterlimit="8"/><path d="M397.15978,228.48608l59.33529,66.2163" fill="none" fill-rule="evenodd" stroke="#000000" stroke-miterlimit="8"/><path d="M251.86871,264.23404c-3.03087,5.68906 -6.72464,5.95098 -10.97102,3.5991c-4.24638,-2.35187 -3.20862,-5.9479 -0.94416,-10.19837c2.26446,-4.25046 7.71042,-12.70186 12.90264,-9.82613c5.19223,2.87573 2.04341,10.73633 -0.98746,16.42539z" fill="#546381" fill-rule="nonzero" stroke="#000000" stroke-miterlimit="10"/><path d="M345.31446,209.43147c-6.44497,0.11762 -8.46982,-2.98279 -8.47932,-7.83696c-0.00951,-4.85417 3.63742,-5.69579 8.45266,-5.78366c4.81523,-0.08787 14.8483,0.56181 14.85992,6.4972c0.01162,5.9354 -8.38828,7.00579 -14.83325,7.12341z" fill="#546381" fill-rule="nonzero" stroke="#000000" stroke-miterlimit="10"/><path d="M362.92784,291.58244c-3.03087,5.68905 -36.29216,-5.96429 -40.53854,-8.31617c-4.24638,-2.35186 -3.20862,-5.9479 -0.94416,-10.19837c2.26446,-4.25046 7.71042,-12.70186 12.90264,-9.82612c1.63757,0.90697 32.43324,-28.0941 38.08621,-26.96089c12.27085,2.45986 2.71886,35.51973 0.64389,39.41452z" fill="#546381" fill-rule="nonzero" stroke="#000000" stroke-miterlimit="10"/><path d="M439.75291,222.91974c0.79457,6.39689 -6.4995,3.21546 -11.32577,3.73525c-4.82627,0.51981 -3.21895,-17.1018 2.68232,-17.73738c5.90129,-0.63558 7.84887,7.60523 8.64344,14.00212z" fill="#546381" fill-rule="nonzero" stroke="#000000" stroke-miterlimit="10"/><path d="M163.42151,272.56035c-10.71561,-2.21723 -12.87641,-7.96013 -11.02655,-15.77138c1.84985,-7.81126 8.21123,-7.80326 16.21719,-6.1467c8.00595,1.65657 24.36718,6.4477 22.10528,15.99883c-2.2619,9.55116 -16.5803,8.13646 -27.29591,5.91923z" fill="#546381" fill-rule="nonzero" stroke="#000000" stroke-miterlimit="10"/><path d="M128.46552,189.91704c-6.44563,-0.07337 -8.37773,-3.23241 -8.24342,-8.08473c0.1343,-4.85232 3.80457,-5.58552 8.6203,-5.5307c4.81572,0.05482 14.82514,1.00146 14.66091,6.93459c-0.16423,5.93314 -8.59215,6.7542 -15.03778,6.68083z" fill="#546381" fill-rule="nonzero" stroke="#000000" stroke-miterlimit="10"/><path d="M245.06328,186.00794c-3.03087,5.68905 -6.72464,5.95097 -10.97102,3.5991c-4.24639,-2.35186 -3.20862,-5.9479 -0.94416,-10.19837c2.26446,-4.25046 7.71042,-12.70186 12.90264,-9.82612c5.19223,2.87574 2.04341,10.73633 -0.98746,16.42539z" fill="#546381" fill-rule="nonzero" stroke="#000000" stroke-miterlimit="10"/><path d="M72.08909,302.32598c-3.03087,5.68905 -6.72464,5.95098 -10.97102,3.5991c-4.24639,-2.35186 -3.20862,-5.9479 -0.94416,-10.19837c2.26446,-4.25046 7.71042,-12.70186 12.90264,-9.82612c5.19223,2.87574 2.04341,10.73633 -0.98746,16.42539z" fill="#546381" fill-rule="nonzero" stroke="#000000" stroke-miterlimit="10"/><path d="M92.83958,255.24905c-3.03087,5.68906 -6.72464,5.95098 -10.97102,3.5991c-4.24639,-2.35186 -3.64993,-32.42628 -1.38547,-36.67675c2.26446,-4.25046 12.56958,8.19846 15.10917,13.56311c3.8683,8.17141 0.27818,13.82547 -2.75269,19.51453z" fill="#546381" fill-rule="nonzero" stroke="#000000" stroke-miterlimit="10"/><path d="M22.81751,257.60121c-3.03087,5.68905 -6.72464,5.95097 -10.97102,3.5991c-4.24639,-2.35186 -3.20862,-5.9479 -0.94416,-10.19837c2.26446,-4.25046 7.71042,-12.70186 12.90264,-9.82612c5.19223,2.87573 2.04341,10.73633 -0.98746,16.42538z" fill="#546381" fill-rule="nonzero" stroke="#000000" stroke-miterlimit="10"/></g></g></svg>