<svg version="1.1" xmlns="http://www.w3.org/2000/svg" xmlns:xlink="http://www.w3.org/1999/xlink" width="403.87899" height="215.52053" viewBox="0,0,403.87899,215.52053"><g transform="translate(-64.30971,-66.12395)"><g fill-rule="evenodd" stroke="#000000" stroke-width="1.5" stroke-miterlimit="8"><path d="M92.38536,280.03951c26.32949,-70.60122 14.18316,-63.86511 21.27474,-95.79855h13.25895c7.09158,31.93344 1.70447,70.13556 21.27474,95.79855z" fill="#843c0c"/><path d="M66.96942,234.18417c32.3369,-36.07997 36.07997,-53.32016 54.11996,-79.98023c18.03999,26.66008 18.66383,43.90026 54.11996,79.98023c-50.11739,-16.22177 -66.70174,-16.22177 -108.23992,0z" fill="#548235"/><path d="M73.01237,189.75071c29.80064,-23.46798 40.36869,-62.08954 48.07701,-62.56232c9.7878,0.47277 7.10047,26.55344 48.07701,62.56232c-43.22665,-11.4976 -58.90455,-10.97507 -96.15402,0z" fill="#548235"/><path d="M80.65493,151.71565c23.62083,-21.78128 26.42369,-41.47064 39.63465,-62.20685c13.21096,20.73621 2.74243,21.59644 39.63465,62.20685c-39.69508,-13.59842 -30.20765,-15.16781 -79.2693,0z" fill="#548235"/><path d="M89.00842,116.52435c28.41076,-29.06873 23.21026,-31.47631 31.5602,-48.52134c7.30664,19.13625 10.44364,30.42981 32.60172,48.52134c-29.72421,-11.50116 -33.13492,-12.0237 -64.16192,0z" fill="#548235"/><path d="M106.78181,269.92644l9.36453,-37.8742" fill="none"/><path d="M118.15677,270.08817l1.99419,-33.23765" fill="none"/><path d="M125.62159,235.42831l8.04779,34.5408" fill="none"/><path d="M89.00842,217.32789l14.48042,-3.40456" fill="none"/><path d="M89.00842,217.55538l11.09875,-13.05286" fill="none"/><path d="M103.49014,173.22196l-10.74931,3.84389" fill="none"/><path d="M92.74083,177.28622l7.36764,-9.21918" fill="none"/><path d="M105.30637,138.02961l-9.18859,3.54101" fill="none"/><path d="M96.11777,141.8301l6.06707,-6.99939" fill="none"/><path d="M114.37079,102.12736l-9.18859,3.54101" fill="none"/><path d="M105.1822,105.92786l6.06707,-6.99939" fill="none"/><path d="M143.75045,219.43225l14.47998,3.40538" fill="none"/><path d="M158.4046,223.06513l-11.09948,-13.05277" fill="none"/><path d="M156.09939,181.86466l-10.74934,-3.84438" fill="none"/><path d="M156.09406,182.08505l-7.36707,-9.21906" fill="none"/><path d="M138.06295,139.09655l9.18884,3.54046" fill="none"/><path d="M141.08444,135.71962l6.06783,6.99916" fill="none"/><path d="M127.93213,101.0615l9.18884,3.54046" fill="none"/><path d="M131.13135,97.86229l6.06783,6.99916" fill="none"/><path d="M108.20545,202.76438l9.86397,-4.73469" fill="none"/><path d="M114.19741,193.28075l-5.95641,9.61515" fill="none"/><path d="M137.75371,210.36072l-11.07279,-18.58004" fill="none"/><path d="M126.60706,197.54188l11.20708,12.78685" fill="none"/><path d="M118.93171,154.15737l-7.85052,8.28808" fill="none"/><path d="M113.58841,151.09581l-2.40414,11.55402" fill="none"/><path d="M131.58811,163.98107l-7.8505,-8.28773" fill="none"/><path d="M129.08207,152.63098l2.40296,11.55448" fill="none"/><path d="M109.09235,124.50816l9.18859,-3.54101" fill="none"/><path d="M109.09235,124.58991l6.06707,-6.99939" fill="none"/><path d="M124.71102,114.55529l7.40497,17.00357" fill="none"/><path d="M125.1279,121.01618l7.09473,10.50713" fill="none"/><path d="M121.84653,80.64913l-3.07601,18.28917" fill="none"/><path d="M121.73811,80.6198l0.20986,12.6764" fill="none"/><path d="M177.62949,280.89448c18.61777,-49.92262 10.02901,-45.15947 15.04352,-67.73983h9.3755c5.01451,22.58036 1.20524,49.59335 15.04352,67.73983z" fill="#843c0c"/><path d="M159.65769,248.46984c22.86565,-25.5124 25.5124,-37.70306 38.26861,-56.55459c12.7562,18.85153 13.19733,31.04218 38.26861,56.55459c-35.43836,-11.47053 -47.16527,-11.47053 -76.53721,0z" fill="#548235"/><path d="M163.9307,217.05063c21.07224,-16.59437 28.54499,-43.90395 33.99559,-44.23826c6.92102,0.3343 5.02079,18.77613 33.99559,44.23826c-30.56587,-8.13003 -41.65182,-7.76055 -67.99119,0z" fill="#548235"/><path d="M169.33482,190.15577c16.70246,-15.4017 18.68438,-29.32418 28.02594,-43.9869c9.34156,14.66272 1.93919,15.271 28.02594,43.9869c-28.06867,-9.61554 -21.36004,-10.72527 -56.05188,0z" fill="#548235"/><path d="M175.24163,165.27175c20.08945,-20.5547 16.41214,-22.25712 22.31644,-34.30978c5.16658,13.53138 7.38477,21.51713 23.05291,34.30978c-21.0182,-8.13255 -23.42994,-8.50204 -45.36935,0z" fill="#548235"/><path d="M187.80932,273.74345l6.62173,-26.78111" fill="none"/><path d="M197.26274,250.35524l-1.41011,23.50258" fill="none"/><path d="M201.13106,249.34958l5.69065,24.42404" fill="none"/><path d="M175.24163,236.55065l10.23921,-2.40739" fill="none"/><path d="M183.08963,227.48173l-7.848,9.22977" fill="none"/><path d="M185.48176,205.36303l-7.60091,2.71804" fill="none"/><path d="M183.09056,201.71795l-5.20971,6.51895" fill="none"/><path d="M186.76603,180.47827l-6.49732,2.50387" fill="none"/><path d="M180.2687,183.16562l4.29007,-4.94932" fill="none"/><path d="M193.17554,155.09152l-6.49732,2.50387" fill="none"/><path d="M190.9683,152.82958l-4.29007,4.94932" fill="none"/><path d="M213.95011,238.03865l10.2389,2.40797" fill="none"/><path d="M224.31216,240.60749l-7.84852,-9.22971" fill="none"/><path d="M222.68214,211.47434l-7.60093,-2.71839" fill="none"/><path d="M217.46905,211.09007l5.20931,6.51886" fill="none"/><path d="M216.42593,183.73619l-6.49749,-2.50348" fill="none"/><path d="M216.35556,183.79402l-4.29061,-4.94916" fill="none"/><path d="M202.76486,154.33785l6.49749,2.50348" fill="none"/><path d="M205.02705,152.07566l4.29061,4.94916" fill="none"/><path d="M188.81599,226.25268l6.97488,-3.34793" fill="none"/><path d="M188.84112,226.34568l4.21182,-6.79894" fill="none"/><path d="M201.88012,218.48603l7.82965,13.13808" fill="none"/><path d="M209.7525,231.60149l-7.92461,-9.04167" fill="none"/><path d="M190.84944,197.74288l5.55116,-5.86056" fill="none"/><path d="M190.92234,197.88741l1.69998,-8.16993" fill="none"/><path d="M199.7989,192.96842l5.55114,5.86031" fill="none"/><path d="M203.57799,190.803l1.69915,8.17025" fill="none"/><path d="M189.44312,170.91716l6.49732,-2.50387" fill="none"/><path d="M193.73319,166.02564l-4.29007,4.94932" fill="none"/><path d="M205.7233,175.90275l-5.23611,-12.02334" fill="none"/><path d="M205.7987,175.87762l-5.01673,-7.42967" fill="none"/><path d="M196.28662,152.83653l2.17507,-12.9324" fill="none"/><path d="M198.38503,139.88339l0.14839,8.96357" fill="none"/><path d="M382.68669,280.15932c26.32949,-70.60122 14.18316,-63.86511 21.27474,-95.79855h13.25895c7.09158,31.93344 1.70447,70.13556 21.27474,95.79855z" fill="#843c0c"/><path d="M357.27075,234.30398c32.3369,-36.07997 36.07997,-53.32016 54.11996,-79.98023c18.03999,26.66008 18.66383,43.90026 54.11996,79.98023c-50.11739,-16.22177 -66.70174,-16.22177 -108.23992,0z" fill="#548235"/><path d="M363.3137,189.87052c29.80064,-23.46798 40.36869,-62.08954 48.07701,-62.56232c9.7878,0.47277 7.10047,26.55344 48.07701,62.56232c-43.22665,-11.4976 -58.90455,-10.97507 -96.15402,0z" fill="#548235"/><path d="M370.95626,151.83546c23.62083,-21.78128 26.42369,-41.47064 39.63465,-62.20685c13.21096,20.73621 2.74243,21.59644 39.63465,62.20685c-39.69508,-13.59842 -30.20765,-15.16781 -79.2693,0z" fill="#548235"/><path d="M379.30975,116.64416c28.41076,-29.06873 23.21026,-31.47631 31.5602,-48.52134c7.30664,19.13625 10.44364,30.42981 32.60172,48.52134c-29.72421,-11.50116 -33.13492,-12.0237 -64.16192,0z" fill="#548235"/><path d="M406.44767,232.17205l-9.36453,37.8742" fill="none"/><path d="M410.45229,236.97034l-1.99419,33.23765" fill="none"/><path d="M415.92292,235.54812l8.04779,34.5408" fill="none"/><path d="M379.30975,217.4477l14.48042,-3.40456" fill="none"/><path d="M390.4085,204.62233l-11.09875,13.05286" fill="none"/><path d="M393.79147,173.34177l-10.74931,3.84389" fill="none"/><path d="M390.4098,168.18685l-7.36764,9.21918" fill="none"/><path d="M395.6077,138.14942l-9.18859,3.54101" fill="none"/><path d="M386.4191,141.94991l6.06707,-6.99939" fill="none"/><path d="M395.48353,105.78818l9.18859,-3.54101" fill="none"/><path d="M395.48353,106.04767l6.06707,-6.99939" fill="none"/><path d="M434.05178,219.55206l14.47998,3.40538" fill="none"/><path d="M437.60645,210.13217l11.09948,13.05277" fill="none"/><path d="M446.40073,181.98447l-10.74934,-3.84438" fill="none"/><path d="M446.39539,182.20486l-7.36707,-9.21906" fill="none"/><path d="M437.55313,142.75681l-9.18884,-3.54046" fill="none"/><path d="M437.4536,142.83859l-6.06783,-6.99916" fill="none"/><path d="M427.4223,104.72177l-9.18884,-3.54046" fill="none"/><path d="M427.50051,104.98126l-6.06783,-6.99916" fill="none"/><path d="M408.37075,198.1495l-9.86397,4.73469" fill="none"/><path d="M398.54233,203.01571l5.95641,-9.61515" fill="none"/><path d="M428.05504,210.48053l-11.07279,-18.58004" fill="none"/><path d="M416.90839,197.66169l11.20708,12.78685" fill="none"/><path d="M401.38252,162.56526l7.85052,-8.28808" fill="none"/><path d="M403.88974,151.21562l-2.40414,11.55402" fill="none"/><path d="M421.88945,164.10088l-7.8505,-8.28773" fill="none"/><path d="M421.78636,164.30527l-2.40296,-11.55448" fill="none"/><path d="M399.39368,124.62797l9.18859,-3.54101" fill="none"/><path d="M399.39368,124.70972l6.06707,-6.99939" fill="none"/><path d="M415.01235,114.6751l7.40497,17.00357" fill="none"/><path d="M415.42923,121.13599l7.09473,10.50713" fill="none"/><path d="M412.14786,80.76894l-3.07601,18.28917" fill="none"/><path d="M412.03944,80.73961l0.20986,12.6764" fill="none"/></g></g></svg>