<svg version="1.1" xmlns="http://www.w3.org/2000/svg" xmlns:xlink="http://www.w3.org/1999/xlink" width="92.08652" height="111.47208" viewBox="0,0,92.08652,111.47208"><g transform="translate(-193.89434,-124.47958)"><g fill-rule="evenodd" stroke-width="1.5"><path d="M245.89979,129.04373c28.9121,-1.04535 13.22089,28.22639 15.92779,37.11368c2.7069,8.88545 13.82426,3.14337 11.35394,15.72972c-2.47032,12.58451 -7.27158,53.31453 -16.24323,53.31453c-7.84927,0 -12.98981,-27.27255 -15.38494,-45.94392l-0.45114,-3.87878h-28.59849c-2.28509,0 -4.13554,-1.85044 -4.13554,-4.1337l-0.32278,-2.30344l-9.10553,-33.85165c-0.94448,-3.51072 1.13705,-7.12193 4.64905,-8.06586c3.512,-0.94412 4.94431,-1.79543 8.06934,4.64739c3.12504,6.44283 7.12303,22.67376 10.68271,34.00936l17.38027,1.43048l-0.51533,-2.53268c-5.02317,-18.39444 -18.60351,-44.62073 6.69389,-45.53514z" fill="#a6a200" stroke="#000000" stroke-miterlimit="8"/><path d="M216.86277,132.13412l-7.69685,7.14393" fill="none" stroke="#4c4a00" stroke-miterlimit="8"/><path d="M196.87852,132.5009l4.88378,7.06893" fill="none" stroke="#4c4a00" stroke-miterlimit="8"/><path d="M205.31465,139.44603l5.67813,-10.06286" fill="none" stroke="#4c4a00" stroke-miterlimit="8"/><path d="M203.4807,137.47822l0.00006,-9.37869" fill="none" stroke="#4c4a00" stroke-miterlimit="8"/><path d="M194.1276,139.28649l7.21656,2.36157" fill="none" stroke="#4c4a00" stroke-miterlimit="8"/><path d="M220.93815,139.10315l-11.77222,2.39123" fill="none" stroke="#4c4a00" stroke-miterlimit="8"/><path d="M259.78306,168.53187l6.02235,-5.58753" fill="none" stroke="#4c4a00" stroke-miterlimit="8"/><path d="M265.83292,166.42882l-4.58289,4.25666" fill="none" stroke="#4c4a00" stroke-miterlimit="8"/><path d="M269.84924,169.36314l-6.21475,3.8027" fill="none" stroke="#4c4a00" stroke-miterlimit="8"/><path d="M259.04916,139.09851l8.57553,-5.68064" fill="none" stroke="#4c4a00" stroke-miterlimit="8"/><path d="M261.90307,131.58401l-3.22071,5.18153" fill="none" stroke="#4c4a00" stroke-miterlimit="8"/><path d="M256.11485,135.38826l1.76259,-7.28882" fill="none" stroke="#4c4a00" stroke-miterlimit="8"/><path d="M252.81375,132.30997l0.00006,-7.14492" fill="none" stroke="#4c4a00" stroke-miterlimit="8"/><path d="M228.9725,132.86768l4.47299,7.14504" fill="none" stroke="#4c4a00" stroke-miterlimit="8"/><path d="M236.12488,136.60177l0.00006,-10.33621" fill="none" stroke="#4c4a00" stroke-miterlimit="8"/><path d="M238.87579,133.53542l1.25846,-6.35296" fill="none" stroke="#4c4a00" stroke-miterlimit="8"/><path d="M243.30292,132.03471l-1.12604,-7.23637" fill="none" stroke="#4c4a00" stroke-miterlimit="8"/><path d="M249.58537,124.79835l-3.19042,6.79474" fill="none" stroke="#4c4a00" stroke-miterlimit="8"/><path d="M278.92909,194.85677l-11.81059,-4.58669" fill="none" stroke="#4c4a00" stroke-miterlimit="8"/><path d="M268.21813,186.43158l17.65427,-2.58031" fill="none" stroke="#4c4a00" stroke-miterlimit="8"/><path d="M278.87224,190.19489l-9.7364,-2.49233" fill="none" stroke="#4c4a00" stroke-miterlimit="8"/><path d="M209.53271,190.64787l4.08675,-6.79745" fill="none" stroke="#4c4a00" stroke-miterlimit="8"/><path d="M205.86483,189.18621l3.78423,-5.88569" fill="none" stroke="#4c4a00" stroke-miterlimit="8"/><path d="M209.16222,178.71618l-3.84757,5.04156" fill="none" stroke="#4c4a00" stroke-miterlimit="8"/><path d="M221.75308,169.1806l-3.78423,6.15201" fill="none" stroke="#4c4a00" stroke-miterlimit="8"/><path d="M226.84021,170.64712l-6.30385,4.56263" fill="none" stroke="#4c4a00" stroke-miterlimit="8"/><path d="M221.79745,165.32763l-4.74556,5.69157" fill="none" stroke="#4c4a00" stroke-miterlimit="8"/><path d="M240.82607,186.96984l-3.78423,6.15201" fill="none" stroke="#4c4a00" stroke-miterlimit="8"/><path d="M239.42598,192.99899l6.30385,-4.56263" fill="none" stroke="#4c4a00" stroke-miterlimit="8"/><path d="M240.68705,183.11686l-4.74556,5.69157" fill="none" stroke="#4c4a00" stroke-miterlimit="8"/><path d="M230.98983,148.63959l3.57435,4.45098" fill="none" stroke="#4c4a00" stroke-miterlimit="8"/><path d="M233.19057,154.69159l4.28408,3.27726" fill="none" stroke="#4c4a00" stroke-miterlimit="8"/><path d="M238.32927,161.4992l-4.95531,-2.77292" fill="none" stroke="#4c4a00" stroke-miterlimit="8"/><path d="M246.83327,159.8138v0c-0.28243,-0.83811 -0.34662,-1.78259 -0.84545,-2.51617c-1.14621,-1.68172 -2.73258,-3.02417 -4.01084,-4.61054c-0.41447,-0.51442 -0.70424,-1.1176 -1.05635,-1.67641c-0.21091,-0.69873 -0.46583,-1.38591 -0.63271,-2.09601c-0.33011,-1.39086 -0.30993,-2.8129 0.21091,-4.19185c0.12288,-0.32717 0.53735,-0.45757 0.84361,-0.62886c2.67389,-1.49302 1.88529,-1.18601 4.43448,-1.46715c0.58869,-0.35084 1.58636,-1.04792 2.3236,-1.04792c1.74591,0 3.22041,0.43262 4.85628,0.8383c0.63271,0.69873 1.28376,1.38224 1.89996,2.09601c0.22924,0.26519 0.53184,0.50378 0.63271,0.8383c2.19706,7.26773 -0.5025,0.72148 1.26725,4.8207c-0.15955,2.381 -0.22741,3.54739 -0.4218,5.86916c-0.13571,1.60654 -0.17606,3.2259 -0.42364,4.8196c-0.03851,0.24942 -0.23291,0.46032 -0.4218,0.62904c-0.74824,0.66939 -2.07419,1.51301 -2.95632,2.09619c-0.4218,-0.06969 -0.86745,-0.05685 -1.26543,-0.20907c-0.57036,-0.21824 -1.77708,-0.994 -2.3236,-1.46715c-0.29894,-0.26041 -0.56301,-0.55935 -0.84361,-0.83811c-0.14121,-0.35028 -0.21273,-0.73541 -0.42364,-1.04902c-0.35945,-0.53551 -0.7024,-0.17422 -0.84361,-0.20907z" fill="#c0bb00" stroke="none" stroke-miterlimit="10"/><path d="M255.21437,219.62415v0c-0.20907,-0.97932 -0.38697,-1.96783 -0.62904,-2.93797c-0.31543,-1.26909 -0.76475,-2.50332 -1.04718,-3.77792c-0.13755,-0.61804 -0.09904,-1.26543 -0.20907,-1.88896c-0.10086,-0.56852 -0.30627,-1.11321 -0.41997,-1.6799c-0.16689,-0.83444 -0.23108,-1.68723 -0.41814,-2.51801c-0.3026,-1.34061 -1.04718,-3.98699 -1.04718,-3.98699c0.06969,-0.77026 0.20907,-1.53501 0.20907,-2.30894c0,-1.88896 -0.25126,-3.77609 -0.20907,-5.66505c0.00733,-0.39613 0.32644,-4.35011 0.83811,-5.45781c0.18707,-0.4053 0.6272,-0.65288 0.83811,-1.04902c1.09119,-2.05218 0.31543,-1.78443 1.67439,-3.14705c0.38697,-0.38697 0.83811,-0.70056 1.25808,-1.05084c0.06969,-0.27876 0.0055,-0.63455 0.20907,-0.83811c0.33194,-0.33194 0.84545,-0.40714 1.25808,-0.63088c0.49516,-0.26593 0.99033,-0.53551 1.46531,-0.83811c0.29526,-0.18889 0.52634,-0.47316 0.83811,-0.63088c0.25859,-0.12838 0.55935,-0.13939 0.83811,-0.20907c0.69873,0.06969 1.44331,-0.05136 2.09619,0.20907c0.45849,0.18523 0.77392,0.63821 1.04718,1.05084c0.49516,0.74275 0.63271,1.48733 0.83811,2.3071c-0.20907,1.25992 -0.39613,2.5235 -0.62904,3.77792c-0.11737,0.63455 -0.26225,1.26359 -0.41814,1.88896c-0.12288,0.49333 -0.31911,0.97016 -0.41997,1.46899c-0.17972,0.9023 -0.27876,1.81927 -0.41814,2.7289c-0.06969,2.09803 -0.12838,4.19789 -0.20907,6.29593c-0.12838,3.28826 -0.1082,6.58752 -0.41997,9.86294c-0.1082,1.14805 -0.64922,2.21907 -0.83811,3.35794c-0.06969,0.41997 -0.12104,0.84361 -0.20907,1.25992c-0.12104,0.56301 -0.31361,1.11137 -0.41997,1.67806c-0.1027,0.55386 -0.12288,1.12237 -0.20907,1.6799c-0.05318,0.35212 -0.15038,0.6969 -0.20907,1.04902c-0.08069,0.48783 -0.02568,1.00867 -0.20907,1.46899c-0.11003,0.2751 -0.41997,0.41997 -0.62904,0.62904c-0.48967,-0.13939 -1.05635,-0.12104 -1.46715,-0.41997c-0.40714,-0.2971 -0.41814,-0.97932 -0.83811,-1.25808c-0.68589,-0.45849 -1.57169,-0.35028 -1.88529,-0.41997z" fill="#c0bb00" stroke="none" stroke-miterlimit="10"/><path d="M210.73945,172.49v0c-0.20907,-0.84361 -0.45114,-1.67806 -0.6272,-2.529c-0.17239,-0.83811 -0.28609,-1.68539 -0.41814,-2.53084c-0.07702,-0.49149 -0.08253,-0.99583 -0.20907,-1.47632c-0.15405,-0.57952 -0.46765,-1.1077 -0.6272,-1.68539c-0.19073,-0.69139 -0.30076,-1.40114 -0.41814,-2.10904c-0.0917,-0.55935 -0.04218,-1.14621 -0.20907,-1.68723c-0.18523,-0.5997 -0.55752,-1.1242 -0.83627,-1.68539c-0.06969,-0.35212 -0.11554,-0.70973 -0.20907,-1.05452c-0.11554,-0.42914 -0.31911,-0.83261 -0.41814,-1.26543c-0.11003,-0.48416 -0.13387,-0.98483 -0.20907,-1.47632c-0.06419,-0.4218 -0.13939,-0.84178 -0.20907,-1.26359c-0.13387,-2.43731 -0.48783,-4.57147 0.20907,-6.95816c0.07152,-0.243 0.41814,-0.28114 0.6272,-0.42163c0.48783,0.07024 1.01417,0.00513 1.46349,0.21091c0.35945,0.16432 0.62538,0.50709 0.83627,0.84324c0.63271,1.01013 1.04535,2.14938 1.67256,3.16245c0.63088,1.01748 1.45798,2.23337 1.88162,3.37408c0.20174,0.54101 0.26409,1.12788 0.41814,1.68539c0.61621,2.23558 0.46032,1.71657 1.25442,3.58536c0.13939,1.26359 0.28793,2.529 0.41814,3.79443c0.07886,0.77209 0.22741,1.54235 0.20907,2.31811c-0.04952,2.10354 0.73907,5.26342 -0.83627,7.16888c-0.18889,0.22924 -0.41814,0.4218 -0.6272,0.63271c-1.56619,-0.79043 -2.61337,-0.52634 -3.13604,-0.63271z" fill="#c0bb00" stroke="none" stroke-miterlimit="10"/></g></g></svg>