<svg version="1.1" xmlns="http://www.w3.org/2000/svg" xmlns:xlink="http://www.w3.org/1999/xlink" width="69.21495" height="41.62053" viewBox="0,0,69.21495,41.62053"><defs><radialGradient cx="239.99998" cy="180.00003" r="39.35393" fx="239.99998" fy="180.00003" gradientUnits="userSpaceOnUse" id="color-1"><stop offset="0" stop-color="#9dc3e6"/><stop offset="0.5" stop-color="#9dc3e6"/><stop offset="1" stop-color="#ffffff"/></radialGradient></defs><g transform="translate(-205.39252,-159.18974)"><g fill-rule="evenodd" stroke="#000000" stroke-width="1.5" stroke-miterlimit="8"><path d="M212.30421,173.14936c-0.78562,-4.66833 3.26461,-8.96774 9.05013,-9.60261c2.3441,-0.25738 4.7283,0.12723 6.76982,1.09239c2.16182,-3.29031 7.21641,-4.54074 11.28851,-2.79305c0.71089,0.30568 1.36527,0.69302 1.93944,1.14999c1.68425,-2.72725 5.78734,-3.83532 9.16496,-2.47479c0.93509,0.37641 1.74987,0.92105 2.38238,1.59184c2.71595,-2.57924 7.51352,-2.89786 10.71615,-0.71162c1.34704,0.91887 2.25478,2.18625 2.56648,3.58469c4.44942,0.97956 7.07423,4.69021 5.86208,8.28784c-0.10208,0.30258 -0.22967,0.59878 -0.38278,0.88697c3.56901,3.74874 2.6959,9.12176 -1.95038,12.00085c-1.44547,0.89626 -3.15342,1.47664 -4.95797,1.68498c-0.0401,4.03291 -4.12678,7.27619 -9.12851,7.24375c-1.67149,-0.01075 -3.30653,-0.39409 -4.72284,-1.10771c-1.69154,4.5216 -7.5919,7.07714 -13.17873,5.70805c-2.34228,-0.57363 -4.36557,-1.78706 -5.72537,-3.43303c-5.7199,2.78485 -13.1441,1.28689 -16.5837,-3.34572c-0.04192,-0.05833 -0.08567,-0.11721 -0.12759,-0.17626c-3.744,0.35362 -7.13438,-1.80237 -7.57367,-4.81562c-0.23514,-1.60624 0.42289,-3.21375 1.79544,-4.39437c-3.24091,-1.54025 -4.33094,-4.92097 -2.43159,-7.55089c1.09549,-1.51729 3.01489,-2.52036 5.17124,-2.70064z" fill="url(#color-1)"/><path d="M213.54553,184.10959c-1.38349,0.08731 -2.76699,-0.17079 -3.96456,-0.73987M217.04527,192.20585c-0.55777,0.17882 -1.14106,0.29784 -1.73529,0.35417M231.99393,196.09622c-0.41742,-0.50673 -0.76922,-1.0481 -1.04446,-1.61517M251.32639,192.06859c-0.06197,0.60097 -0.20233,1.19502 -0.41742,1.77229M259.62553,181.11767c3.13701,1.23257 5.11838,3.80944 5.08922,6.62382M271.63039,174.06294c-0.50856,0.95824 -1.28324,1.80838 -2.26572,2.48373M266.1912,164.84694c0.08749,0.38698 0.12759,0.77979 0.1203,1.17314M251.71829,163.47876c0.29529,-0.54118 0.68719,-1.045 1.16111,-1.49596M240.85996,164.19165c0.1203,-0.44731 0.30805,-0.88059 0.56142,-1.29017M228.11505,164.62985c0.73823,0.34906 1.42177,0.7694 2.03423,1.25152M212.65965,174.46669c-0.16041,-0.43072 -0.27889,-0.87111 -0.35544,-1.31696" fill="none"/><path d="M242.37287,186.27396c-4.51139,3.49902 -11.00597,2.67785 -14.50572,-1.83409c-0.37732,-0.48814 -0.71271,-1.00928 -0.99706,-1.55721" fill="none"/><path d="M248.03626,166.6803c5.18582,2.38785 7.45519,8.52808 5.06734,13.71463c-0.3682,0.80257 -0.8403,1.55447 -1.3999,2.23747" fill="none"/></g></g></svg>