<svg version="1.1" xmlns="http://www.w3.org/2000/svg" xmlns:xlink="http://www.w3.org/1999/xlink" width="336.70968" height="207.04107" viewBox="0,0,336.70968,207.04107"><g transform="translate(2.23589,-77.81171)"><g stroke-width="1.5"><path d="M229.94636,281.51997c31.73286,-42.31595 17.09408,-38.27848 25.64111,-57.41772h15.97853c8.54704,19.13924 2.05428,42.03706 25.64111,57.41772z" fill="#843c0c" fill-rule="evenodd" stroke="#000000" stroke-miterlimit="8"/><path d="M199.32358,253.99592c38.99119,-21.62552 43.50441,-31.95889 65.2557,-47.93924c21.75129,15.98035 22.5041,26.31372 65.2557,47.93924c-60.42896,-9.72273 -80.42491,-9.72273 -130.51139,0z" fill="#548235" fill-rule="evenodd" stroke="#000000" stroke-miterlimit="8"/><path d="M206.61472,227.38326c35.92891,-14.08466 48.67018,-37.26501 57.96456,-37.54937c11.80071,0.28435 8.56162,15.93661 57.96456,37.54937c-52.11706,-6.90106 -71.01934,-6.58754 -115.92911,0z" fill="#548235" fill-rule="evenodd" stroke="#000000" stroke-miterlimit="8"/><path d="M215.91092,204.59845c28.40628,-13.08395 31.77661,-24.912 47.66582,-37.36709c15.88922,12.45509 3.29924,12.97276 47.66582,37.36709c-47.73691,-8.1679 -36.3281,-9.1121 -95.33165,0z" fill="#548235" fill-rule="evenodd" stroke="#000000" stroke-miterlimit="8"/><path d="M226.11851,183.45415c34.14076,-17.47139 27.89225,-18.91868 37.92486,-29.16456c8.78218,11.50177 12.5517,18.29165 39.17894,29.16456c-35.72111,-6.912 -39.81873,-7.22734 -77.1038,0z" fill="#548235" fill-rule="evenodd" stroke="#000000" stroke-miterlimit="8"/><path d="M247.4451,275.42276l11.27848,-22.7026" fill="none" fill-rule="evenodd" stroke="#000000" stroke-miterlimit="8"/><path d="M261.11598,275.55946l2.40179,-19.9234" fill="none" fill-rule="evenodd" stroke="#000000" stroke-miterlimit="8"/><path d="M279.92165,275.43005l-9.69175,-20.70501" fill="none" fill-rule="evenodd" stroke="#000000" stroke-miterlimit="8"/><path d="M243.55842,241.78399l-17.43991,2.04079" fill="none" fill-rule="evenodd" stroke="#000000" stroke-miterlimit="8"/><path d="M239.48559,236.13186l-13.36708,7.82416" fill="none" fill-rule="evenodd" stroke="#000000" stroke-miterlimit="8"/><path d="M230.4932,219.84423l12.94627,-2.30411" fill="none" fill-rule="evenodd" stroke="#000000" stroke-miterlimit="8"/><path d="M230.4932,219.96818l8.87346,-5.52615" fill="none" fill-rule="evenodd" stroke="#000000" stroke-miterlimit="8"/><path d="M234.50332,198.51764l11.06653,-2.12256" fill="none" fill-rule="evenodd" stroke="#000000" stroke-miterlimit="8"/><path d="M241.81035,194.39133l-7.30703,4.19558" fill="none" fill-rule="evenodd" stroke="#000000" stroke-miterlimit="8"/><path d="M245.44003,177.00878l11.06653,-2.12256" fill="none" fill-rule="evenodd" stroke="#000000" stroke-miterlimit="8"/><path d="M252.74706,172.88247l-7.30703,4.19558" fill="none" fill-rule="evenodd" stroke="#000000" stroke-miterlimit="8"/><path d="M291.92104,245.06428l17.44041,2.04152" fill="none" fill-rule="evenodd" stroke="#000000" stroke-miterlimit="8"/><path d="M296.11345,239.41365l13.36648,7.82339" fill="none" fill-rule="evenodd" stroke="#000000" stroke-miterlimit="8"/><path d="M306.87153,222.5784l-12.94542,-2.304" fill="none" fill-rule="evenodd" stroke="#000000" stroke-miterlimit="8"/><path d="M297.93623,217.17567l8.87332,5.52668" fill="none" fill-rule="evenodd" stroke="#000000" stroke-miterlimit="8"/><path d="M296.06059,199.06448l-11.06613,-2.12172" fill="none" fill-rule="evenodd" stroke="#000000" stroke-miterlimit="8"/><path d="M288.82232,195.11997l7.30754,4.19605" fill="none" fill-rule="evenodd" stroke="#000000" stroke-miterlimit="8"/><path d="M284.03021,176.27967l-11.06613,-2.12172" fill="none" fill-rule="evenodd" stroke="#000000" stroke-miterlimit="8"/><path d="M283.9172,176.53121l-7.30754,-4.19605" fill="none" fill-rule="evenodd" stroke="#000000" stroke-miterlimit="8"/><path d="M248.51689,235.98499l12.19628,-4.52177" fill="none" fill-rule="evenodd" stroke="#000000" stroke-miterlimit="8"/><path d="M256.92351,229.00939l-8.38657,7.05398" fill="none" fill-rule="evenodd" stroke="#000000" stroke-miterlimit="8"/><path d="M281.60955,239.16392l-7.17376,-10.85047" fill="none" fill-rule="evenodd" stroke="#000000" stroke-miterlimit="8"/><path d="M272.90616,232.56046l8.77448,6.56518" fill="none" fill-rule="evenodd" stroke="#000000" stroke-miterlimit="8"/><path d="M251.36773,212.44372l10.50626,-7.9078" fill="none" fill-rule="evenodd" stroke="#000000" stroke-miterlimit="8"/><path d="M256.8465,203.62521l-5.4168,8.94063" fill="none" fill-rule="evenodd" stroke="#000000" stroke-miterlimit="8"/><path d="M278.46342,213.36423l-10.50653,-7.90724" fill="none" fill-rule="evenodd" stroke="#000000" stroke-miterlimit="8"/><path d="M278.40145,213.48635l-5.41732,-8.94076" fill="none" fill-rule="evenodd" stroke="#000000" stroke-miterlimit="8"/><path d="M249.99699,188.31005l11.06653,-2.12256" fill="none" fill-rule="evenodd" stroke="#000000" stroke-miterlimit="8"/><path d="M249.99699,188.37932l7.30703,-4.19558" fill="none" fill-rule="evenodd" stroke="#000000" stroke-miterlimit="8"/><path d="M276.16672,192.1543l-5.45219,-9.86138" fill="none" fill-rule="evenodd" stroke="#000000" stroke-miterlimit="8"/><path d="M276.29613,192.11238l-6.25611,-5.64417" fill="none" fill-rule="evenodd" stroke="#000000" stroke-miterlimit="8"/><path d="M264.08712,161.68828l-0.81399,11.23881" fill="none" fill-rule="evenodd" stroke="#000000" stroke-miterlimit="8"/><path d="M266.1173,169.79759l-2.16142,-8.14395" fill="none" fill-rule="evenodd" stroke="#000000" stroke-miterlimit="8"/><path d="M104.7412,281.43798c28.92154,-72.0237 76.42605,-202.32437 86.48308,-202.87595c12.02783,0.18501 58.12442,130.85225 87.04599,202.87595z" fill="#8faadc" fill-rule="evenodd" stroke="#000000" stroke-miterlimit="8"/><path d="M201.33618,153.20505c-1.8206,10.79289 -11.20047,15.93934 -20.95018,11.49503c-1.7054,-0.77742 -3.35556,-1.82424 -4.89928,-3.10785l8.19579,-16.43459z" fill="#dae3f3" fill-rule="evenodd" stroke="none" stroke-miterlimit="10"/><path d="M201.33618,153.20505c-1.8206,10.79289 -11.20047,15.93934 -20.95018,11.49503c-1.7054,-0.77742 -3.35556,-1.82424 -4.89928,-3.10785" fill="none" fill-rule="evenodd" stroke="#000000" stroke-miterlimit="8"/><path d="M217.43702,161.80897c-8.33724,7.09173 -18.82918,4.99753 -23.43445,-4.67727c-0.62631,-1.31587 -1.12284,-2.73618 -1.48028,-4.23415l16.57622,-8.60664z" fill="#dae3f3" fill-rule="evenodd" stroke="none" stroke-miterlimit="10"/><path d="M217.43702,161.80897c-8.33724,7.09173 -18.82918,4.99753 -23.43445,-4.67727c-0.62631,-1.31587 -1.12284,-2.73618 -1.48028,-4.23415" fill="none" fill-rule="evenodd" stroke="#000000" stroke-miterlimit="8"/><path d="M230.49982,157.4403c-4.65703,5.23431 -11.13229,6.74959 -16.89667,3.95435l5.88231,-20.58453z" fill="#dae3f3" fill-rule="evenodd" stroke="none" stroke-miterlimit="10"/><path d="M230.49982,157.4403c-4.65703,5.23431 -11.13229,6.74959 -16.89667,3.95435" fill="none" fill-rule="evenodd" stroke="#000000" stroke-miterlimit="8"/><path d="M154.59433,155.08945c11.79907,-29.44654 30.73999,-76.53053 36.86345,-76.06827c6.75178,-0.15366 26.43621,48.45564 38.23528,77.90199c-17.40559,-0.50601 -21.01853,1.96788 -38.51198,3.63937c-17.40796,4.47895 -23.39544,-3.07577 -36.58675,-5.47309z" fill="#dae3f3" fill-rule="evenodd" stroke="none" stroke-miterlimit="10"/><path d="M181.91332,157.41842c-7.21476,9.55249 -18.92907,9.57491 -26.1648,0.04994c-0.53262,-0.70104 -1.03224,-1.44437 -1.49632,-2.2258l14.55986,-15.07042z" fill="#dae3f3" fill-rule="evenodd" stroke="none" stroke-miterlimit="10"/><path d="M181.91332,157.41842c-7.21476,9.55249 -18.92907,9.57491 -26.1648,0.04994c-0.53262,-0.70104 -1.03224,-1.44437 -1.49632,-2.2258" fill="none" fill-rule="evenodd" stroke="#000000" stroke-miterlimit="8"/><path d="M141.19685,263.87181l34.33379,-83.96239" fill="none" fill-rule="evenodd" stroke="#000000" stroke-miterlimit="8"/><path d="M190.35048,198.68318l-18.16627,53.28036" fill="none" fill-rule="evenodd" stroke="#000000" stroke-miterlimit="8"/><path d="M239.08041,244.0709l15.38649,27.64435" fill="none" fill-rule="evenodd" stroke="#000000" stroke-miterlimit="8"/><path d="M239.04194,270.94967l-34.41217,-40.54967" fill="none" fill-rule="evenodd" stroke="#000000" stroke-miterlimit="8"/><path d="M23.9857,188.58959h5.66886c0,31.83676 8.98997,95.81833 0,95.5121h-5.66886c-5.32253,-18.26977 0,-63.67534 0,-95.5121z" fill="#843c0c" fill-rule="evenodd" stroke="#000000" stroke-miterlimit="8"/><path d="M27.63499,198.61436l-0.00007,40.46637" fill="none" fill-rule="evenodd" stroke="#000000" stroke-miterlimit="8"/><path d="M25.08302,278.19405l0.00007,-28.17697" fill="none" fill-rule="evenodd" stroke="#000000" stroke-miterlimit="8"/><path d="M29.4577,255.77379l0.00007,-28.17697" fill="none" fill-rule="evenodd" stroke="#000000" stroke-miterlimit="8"/><path d="M23.87633,124.11951c0.66532,0.02005 1.29965,0.16223 1.89205,0.43382c1.77722,0.81661 2.91828,2.68314 3.41408,5.21316l0.1203,1.17023l2.92922,0.27706c6.70967,1.29053 11.75696,6.87008 11.75696,13.55787c0,1.91028 -0.41195,3.72942 -1.15747,5.38633l-0.91504,1.58218l0.71271,0.47939c3.07868,3.07139 4.98349,7.31301 4.98349,11.99939l-0.10572,1.03716l1.18299,0.97337c3.07868,3.07139 4.98349,7.31301 4.98349,11.99939c0,9.37276 -7.61742,16.97013 -17.0157,16.97013c-3.52344,0 -6.79716,-1.06815 -9.51311,-2.89823l-0.06562,-0.05468l-0.74916,0.6161c-2.71595,1.83008 -5.98967,2.89823 -9.51311,2.89823c-9.39646,0 -17.0157,-7.59737 -17.0157,-16.97013c0,-2.34228 0.47757,-4.57519 1.33792,-6.60577l0.04375,-0.0802l-1.33063,-2.448c-0.86218,-2.03058 -1.33792,-4.26167 -1.33792,-6.60577c0,-4.68638 1.90481,-8.928 4.98349,-11.99939l2.69043,-1.8082l0.43382,-3.82238c0.53408,-2.30765 1.3598,-4.73742 2.47716,-7.17266c3.90987,-8.5197 10.11281,-14.2797 14.77732,-14.12841z" fill="#548235" fill-rule="evenodd" stroke="#000000" stroke-miterlimit="8"/><path d="M45.86276,177.37946c0,4.88324 -3.79504,8.84051 -8.47595,8.84051" fill="none" fill-rule="evenodd" stroke="#000000" stroke-miterlimit="8"/><path d="M31.71431,137.342c4.71737,1.26319 7.56638,5.92587 6.36334,10.41357" fill="none" fill-rule="evenodd" stroke="#000000" stroke-miterlimit="8"/><path d="M19.13892,186.25096c-4.23068,2.44253 -9.54228,1.15929 -11.86451,-2.86359" fill="none" fill-rule="evenodd" stroke="#000000" stroke-miterlimit="8"/><path d="M15.76494,143.822c-1.53478,-4.35646 0.39008,-9.22329 4.40749,-11.13722" fill="none" fill-rule="evenodd" stroke="#000000" stroke-miterlimit="8"/><path d="M5.91826,168.50797c-2.66856,-4.02471 -1.74805,-9.5277 2.0561,-12.28922c0.54684,-0.39554 1.13559,-0.72182 1.75716,-0.97154" fill="none" fill-rule="evenodd" stroke="#000000" stroke-miterlimit="8"/><path d="M35.20312,165.34726c-0.48122,3.48334 -2.87635,6.33418 -6.09904,7.25651" fill="none" fill-rule="evenodd" stroke="#000000" stroke-miterlimit="8"/><path d="M33.15795,155.60448c4.25803,0.24243 7.93641,3.76405 8.784,8.41033" fill="none" fill-rule="evenodd" stroke="#000000" stroke-miterlimit="8"/><path d="M14.82256,172.93369c0.24243,-4.25803 3.76405,-7.93641 8.41033,-8.784" fill="none" fill-rule="evenodd" stroke="#000000" stroke-miterlimit="8"/><path d="M27.36514,149.48903c-0.48122,3.48334 -2.87635,6.33418 -6.09904,7.25651" fill="none" fill-rule="evenodd" stroke="#000000" stroke-miterlimit="8"/><path d="M227.98317,209.35717c1.03834,10.19048 -1.74054,14.11094 -6.54343,15.23824c-4.80289,1.12732 -6.15752,-4.46144 -6.9333,-12.07506c-0.77576,-7.61361 -1.56795,-23.66823 4.30473,-25.04663c5.8727,-1.37841 8.13365,11.69297 9.17199,21.88345z" fill="#546381" fill-rule="nonzero" stroke="#000000" stroke-miterlimit="10"/><path d="M206.22088,260.2701c1.03834,3.57051 -1.74054,4.94415 -6.54343,5.33913c-4.80289,0.39499 -6.15752,-1.56319 -6.9333,-4.23082c-0.77576,-2.66764 -1.56795,-8.29281 4.30473,-8.77577c5.8727,-0.48296 8.13365,4.09695 9.17199,7.66746z" fill="#546381" fill-rule="nonzero" stroke="#000000" stroke-miterlimit="10"/><path d="M146.64466,225.6833c-2.64441,5.87866 -6.31246,6.38653 -10.70634,4.32331c-4.39389,-2.06321 -3.59844,-5.72048 -1.62273,-10.11261c1.97572,-4.39212 6.84546,-13.18815 12.21804,-10.66538c5.37259,2.52278 2.75543,10.57601 0.11102,16.45467z" fill="#546381" fill-rule="nonzero" stroke="#000000" stroke-miterlimit="10"/></g></g></svg>