<svg version="1.1" xmlns="http://www.w3.org/2000/svg" xmlns:xlink="http://www.w3.org/1999/xlink" width="470.66393" height="253.66279" viewBox="0,0,470.66393,253.66279"><g transform="translate(-4.55238,-41.46749)"><g fill-rule="evenodd" stroke="none" stroke-miterlimit="10"><g><path d="M287.50251,46.8873c8.06414,5.62496 14.95804,12.68317 21.83964,19.65741c1.71028,1.73008 3.42476,3.45714 5.13922,5.1842c0.89622,0.90551 1.79123,1.81103 2.68505,2.71654c4.58154,4.65049 9.0902,9.0701 14.33168,12.98301c4.09248,3.23225 6.44413,7.5889 8.86263,12.11647c0.67374,1.23532 1.34868,2.46766 2.0248,3.69999c0.51154,0.93548 0.51154,0.93548 1.03325,1.88899c6.60664,11.98753 13.66065,23.51931 23.29534,33.34803c0.7286,0.75859 0.7286,0.75859 1.47221,1.53217c5.76588,5.54102 13.09694,7.51094 20.60788,9.65479c19.51646,5.59197 28.13682,22.50887 38.5742,38.64915c11.3309,17.50455 23.61226,33.71383 37.94154,48.89164c5.75089,6.17067 10.02958,11.95156 9.90367,20.62886c-0.50974,4.89338 -3.26225,8.86321 -6.80333,12.16444c-25.00951,18.53901 -65.08592,17.9993 -94.7849,20.5809c-0.63866,0.05397 -1.27732,0.11095 -1.93696,0.1679c-9.84069,0.85155 -19.69009,1.55316 -29.55177,2.13484c-0.68992,0.04197 -1.37986,0.08095 -2.09077,0.12292c-49.27633,2.86645 -99.31964,2.78851 -148.59749,0c-2.17352,-0.12292 -4.34706,-0.24286 -6.52057,-0.35981c-103.97933,-5.72692 -103.97933,-5.72692 -122.68478,-26.36179c-3.07123,-3.85291 -3.90882,-7.13916 -3.79209,-12.05349c0.86343,-6.17968 4.94629,-11.77765 9.50425,-15.88844c0.50684,0 1.01378,0 1.53599,0c0.19884,-0.44977 0.39771,-0.89951 0.6025,-1.36126c1.00441,-1.841 2.08352,-3.02537 3.58266,-4.48259c0.52522,-0.51872 1.05036,-1.03443 1.59148,-1.56814c0.54894,-0.53072 1.09797,-1.06443 1.66356,-1.61313c17.31635,-16.8869 30.25349,-36.83815 42.84788,-57.35006c16.35709,-26.62565 16.35709,-26.62565 28.10054,-29.80994c3.70541,-0.80958 7.46988,-1.22935 11.22924,-1.70909c8.719,-1.13938 14.53467,-3.00438 20.26848,-9.99062c6.55596,-8.72829 11.97884,-18.26314 17.28027,-27.79202c3.30483,-5.88283 6.18836,-10.96509 11.8442,-14.88698c8.10824,-5.78388 14.4564,-13.26484 21.02436,-20.69185c15.49805,-17.26769 34.32999,-34.75427 57.97614,-20.20312z" fill="#bfdef2"/><path d="M287.50251,46.8873c8.06414,5.62496 14.95804,12.68317 21.83964,19.65741c1.71028,1.73008 3.42476,3.45714 5.13922,5.1842c0.89622,0.90551 1.79123,1.81103 2.68505,2.71654c4.58154,4.65049 9.0902,9.0701 14.33168,12.98301c4.09248,3.23225 6.44413,7.5889 8.86263,12.11647c0.67374,1.23532 1.34868,2.46766 2.0248,3.69999c0.51154,0.93548 0.51154,0.93548 1.03325,1.88899c6.60664,11.98753 13.66065,23.51931 23.29534,33.34803c0.7286,0.75859 0.7286,0.75859 1.47221,1.53217c5.76588,5.54102 13.09694,7.51094 20.60788,9.65479c19.51646,5.59197 28.13682,22.50887 38.5742,38.64915c11.3309,17.50455 23.61226,33.71383 37.94154,48.89164c5.75089,6.17067 10.02958,11.95156 9.90367,20.62886c-0.50974,4.89338 -3.26225,8.86321 -6.80333,12.16444c-25.00951,18.53901 -65.08592,17.9993 -94.7849,20.5809c-0.63866,0.05397 -1.27732,0.11095 -1.93696,0.1679c-9.84069,0.85155 -19.69009,1.55316 -29.55177,2.13484c-0.68992,0.04197 -1.37986,0.08095 -2.09077,0.12292c-49.27633,2.86645 -99.31964,2.78851 -148.59749,0c-2.17352,-0.12292 -4.34706,-0.24286 -6.52057,-0.35981c-103.97933,-5.72692 -103.97933,-5.72692 -122.68478,-26.36179c-3.07123,-3.85291 -3.90882,-7.13916 -3.79209,-12.05349c0.86343,-6.17968 4.94629,-11.77765 9.50425,-15.88844c0.50684,0 1.01378,0 1.53599,0c0.19884,-0.44977 0.39771,-0.89951 0.6025,-1.36126c1.00441,-1.841 2.08352,-3.02537 3.58266,-4.48259c0.52522,-0.51872 1.05036,-1.03443 1.59148,-1.56814c0.54894,-0.53072 1.09797,-1.06443 1.66356,-1.61313c17.31635,-16.8869 30.25349,-36.83815 42.84788,-57.35006c16.35709,-26.62565 16.35709,-26.62565 28.10054,-29.80994c3.70541,-0.80958 7.46988,-1.22935 11.22924,-1.70909c8.719,-1.13938 14.53467,-3.00438 20.26848,-9.99062c6.55596,-8.72829 11.97884,-18.26314 17.28027,-27.79202c3.30483,-5.88283 6.18836,-10.96509 11.8442,-14.88698c8.10824,-5.78388 14.4564,-13.26484 21.02436,-20.69185c15.49805,-17.26769 34.32999,-34.75427 57.97614,-20.20312zM243.06252,63.20151c-0.82697,0.80958 -1.65482,1.61913 -2.48386,2.4287c-3.71379,3.64003 -7.31575,7.34605 -10.69824,11.3009c-11.43974,13.26786 -11.43974,13.26786 -17.45868,17.17474c-4.80012,3.16029 -7.01171,7.09418 -9.63201,12.11346c-0.86354,1.58916 -1.72947,3.17828 -2.5981,4.76443c-0.41588,0.76758 -0.83205,1.53217 -1.26081,2.32375c-4.14437,7.47795 -9.03592,14.55416 -14.23751,21.3365c-0.44045,0.57568 -0.88094,1.15437 -1.33488,1.75106c-4.95453,6.1047 -11.93956,9.59482 -19.69097,10.83017c-2.45596,0.25486 -4.91406,0.43476 -7.37693,0.60866c-7.47348,0.63266 -12.48198,2.78251 -17.67787,8.3175c-1.82211,2.29077 -3.41636,4.68947 -4.9923,7.15415c-0.67432,1.03145 -0.67432,1.03145 -1.36217,2.08388c-4.25499,6.55447 -8.34391,13.21986 -12.38991,19.90627c-3.04757,5.0223 -6.25073,9.87069 -9.67218,14.64111c-0.79548,1.13339 -1.59034,2.26378 -2.38521,3.39717c-5.25108,7.40602 -10.76241,14.42223 -16.81524,21.18657c-0.92531,1.03745 -0.92531,1.03745 -1.8692,2.09887c-1.1234,1.25332 -2.25121,2.50366 -3.38393,3.75098c-1.17121,1.2923 -2.33224,2.59359 -3.48614,3.90091c-0.60098,0.68063 -1.20181,1.35827 -1.82098,2.05988c-0.53465,0.60568 -1.06927,1.21434 -1.62007,1.841c-1.64406,1.71208 -1.64406,1.71208 -3.54014,3.19927c-2.18499,1.78103 -3.82842,3.70901 -5.59206,5.90381c-0.59793,0.7406 -1.19601,1.47821 -1.812,2.23979c-2.36276,3.07635 -2.48391,4.91135 -2.22007,8.80324c2.84936,6.87529 10.42707,10.3744 16.89627,13.06094c8.81942,3.22927 18.01846,4.95633 27.24507,6.56647c1.25902,0.22489 2.51654,0.46174 3.77108,0.71063c7.2072,1.40925 14.48878,2.20982 21.78506,2.9954c1.14447,0.12292 1.14447,0.12292 2.31236,0.25187c16.73097,1.76306 33.49915,2.65956 50.29669,3.49311c0.63805,0.03298 1.27641,0.06597 1.93395,0.09895c26.5504,1.32827 53.07768,2.15585 79.66283,2.11385c2.90872,-0.00299 5.81777,0 8.72649,0.00299c2.28416,0.00299 4.56863,0.00299 6.85282,0c1.07521,0 2.15015,0 3.22506,0.00299c1.48061,0 2.9612,-0.00299 4.4415,-0.006c1.25393,0 1.25393,0 2.53304,-0.00299c2.11745,-0.08997 4.03763,-0.3838 6.09842,-0.86354c0,-0.25486 0,-0.50974 0,-0.77059c-8.87043,-0.25187 -17.74113,-0.50673 -26.88051,-0.76758c2.40769,-0.99847 4.81541,-1.99693 7.29625,-3.02537c12.15665,-5.1782 22.18263,-11.00706 31.8725,-20.0202c0.65635,-0.58469 1.31268,-1.16938 1.98913,-1.77204c8.13071,-7.57691 13.99256,-17.74445 14.49898,-28.97938c0.13973,-9.286 -3.17947,-16.46113 -8.80805,-23.78918c-1.26173,-1.04643 -2.54142,-2.07188 -3.84003,-3.07333c-0.87463,-0.93548 -1.72438,-1.89497 -2.54413,-2.87845c-1.88029,-2.2068 -3.82203,-4.27269 -5.90412,-6.2906c-6.95655,-6.91726 -11.89759,-14.40124 -12.72005,-24.38885c-0.09655,-1.14538 -0.09655,-1.14538 -0.19519,-2.31474c-0.04648,-0.58168 -0.09295,-1.16637 -0.14092,-1.76605c0.66534,0.06295 1.33068,0.12593 2.01612,0.1919c3.80434,-0.28184 5.91252,-2.0629 8.64015,-4.60852c1.60594,-3.21425 1.40535,-6.16467 0.35112,-9.49587c-2.43559,-5.41207 -6.15717,-10.04758 -9.66469,-14.79702c-4.37106,-5.96079 -8.27824,-11.6847 -8.28272,-19.25862c-0.06116,-4.95033 -0.28753,-8.30852 -3.66823,-12.19143c-0.52771,-0.50374 -1.05514,-1.00745 -1.59903,-1.52617c-4.71347,-6.04473 -5.1623,-13.00999 -5.02498,-20.41299c-0.00539,-0.84555 -0.01109,-1.69109 -0.01648,-2.56362c0.06295,-7.99969 0.06295,-7.99969 3.42446,-11.36087c3.1474,0.29085 5.0226,0.53371 7.68036,2.30575c0.76009,0 1.52048,0 2.30396,0c-0.02638,-6.68339 -1.51807,-12.14644 -5.3761,-17.66947c-2.12524,-1.99093 -4.30418,-3.3312 -6.91217,-4.60852c-0.48123,-0.25787 -0.96219,-0.51571 -1.45811,-0.78257c-14.17605,-6.55146 -26.02656,3.63104 -35.4067,13.07294z" fill="#a5d1ec"/><path d="M284.60217,53.3878c3.85562,2.68054 5.60218,7.16615 6.99462,11.47782c0.47493,2.82149 0.70822,5.59197 0.76907,8.45245c-2.59569,-0.42276 -3.90898,-0.81256 -6.15328,-2.30575c-2.24369,-0.28184 -3.35758,-0.36581 -5.19169,1.00745c-2.68925,3.62806 -1.93364,8.5274 -1.97083,12.82107c-0.0222,0.83355 -0.04468,1.67011 -0.06776,2.53064c-0.05126,6.61142 0.83626,12.64418 5.00399,17.9813c0.52862,0.50374 1.05694,1.00745 1.60143,1.52919c3.27303,3.76898 3.46253,7.13015 3.53331,11.89759c0.07736,4.52456 0.96247,7.53494 3.24486,11.39086c0.30733,0.56669 0.61466,1.1304 0.93159,1.71506c2.66976,4.71646 5.86154,9.02514 9.16667,13.30983c3.73419,4.93233 6.087,9.39695 5.28464,15.70552c-1.35526,2.31474 -2.94381,4.15875 -5.3839,5.3761c-4.51228,0.65666 -7.67826,0.06295 -11.40496,-2.53363c-2.73813,-2.14084 -5.40969,-4.35665 -8.04617,-6.61742c-3.89281,-2.99238 -7.08937,-4.37164 -11.96085,-4.17075c-2.72464,0.42876 -4.18753,1.55916 -6.27622,3.33419c-0.42848,0.35981 -0.85694,0.71961 -1.298,1.0884c-6.67529,6.08371 -11.54287,14.13138 -16.6749,21.50139c-6.63573,9.39993 -6.63573,9.39993 -12.12007,11.26493c-2.72882,-0.05997 -3.94108,-0.65066 -6.05703,-2.35372c-2.4227,-3.93986 -2.02571,-8.37448 -1.1244,-12.7791c0.5508,-2.04788 1.15738,-4.06881 1.79723,-6.09273c3.07693,-9.73275 3.07693,-9.73275 4.18214,-19.83131c0.01949,-1.14837 0.01949,-1.14837 0.03929,-2.32074c-0.13492,-1.99992 -0.13492,-1.99992 -1.20806,-3.42117c-1.93815,-1.24132 -2.9537,-1.25932 -5.22468,-0.88453c-2.23799,1.46021 -4.22862,3.11232 -6.2945,4.80341c-2.49285,1.54716 -3.9003,1.61614 -6.78085,1.34329c-0.38079,-2.66257 -0.38079,-2.66257 -0.76938,-5.3761c-3.99505,2.73451 -6.45582,6.38955 -9.22962,10.27545c-8.41587,11.6727 -8.41587,11.6727 -11.24873,12.81809c-1.82693,-0.04797 -1.82693,-0.04797 -3.22086,-0.91151c-1.17237,-1.847 -0.98047,-3.13032 -0.91331,-5.28016c-7.75532,3.56507 -14.42881,7.2411 -20.7671,13.05796c-0.45126,0.41377 -0.9025,0.82155 -1.36756,1.24732c-10.3924,9.46889 -10.3924,9.46889 -19.97644,19.73836c-3.95996,4.53656 -3.95996,4.53656 -6.34548,5.90683c-2.83617,-0.04797 -2.83617,-0.04797 -5.3842,-0.77059c-1.70787,-2.55762 -1.69319,-3.63403 -1.24973,-6.60244c0.94358,-3.62806 2.65837,-6.95326 4.32665,-10.29945c-4.75575,0.32984 -7.81949,1.36726 -11.82593,3.88891c-4.93863,3.02537 -4.93863,3.02537 -6.63393,3.02537c1.08271,-4.74344 3.1333,-8.44944 5.67265,-12.57822c0.60988,-1.00145 0.60988,-1.00145 1.23234,-2.02391c2.79149,-4.52456 5.68614,-8.97416 8.71839,-13.34281c0.53822,-0.78558 0.53822,-0.78558 1.08721,-1.58916c3.88471,-5.46905 8.16668,-9.56184 14.82461,-11.18398c2.36603,-0.36879 4.72666,-0.55469 7.11455,-0.71961c10.44158,-0.94148 18.51172,-3.3192 25.54414,-11.45683c5.90351,-7.31306 10.91112,-15.24978 15.44917,-23.46236c0.74961,-1.34027 1.49919,-2.68054 2.24908,-4.02383c0.72381,-1.30729 1.42902,-2.62658 2.13334,-3.94586c3.25385,-5.84384 6.72207,-9.36695 12.11827,-13.24386c4.31526,-3.53209 8.1898,-7.38503 11.96986,-11.4748c0.47734,-0.51272 0.95498,-1.02244 1.44672,-1.54716c2.37681,-2.55461 4.70985,-5.13623 6.99584,-7.76881c6.22884,-7.14516 12.87385,-14.35026 21.12152,-19.15967c0.54751,-0.32984 1.09471,-0.65964 1.65872,-0.99847c8.86083,-4.66548 17.70665,-1.99693 25.95849,2.58162z" fill="#fcfdfd"/><path d="M287.50251,46.8873c8.06414,5.62496 14.95804,12.68317 21.83964,19.65741c1.71028,1.73008 3.42476,3.45714 5.13922,5.1842c0.89622,0.90551 1.79123,1.81103 2.68505,2.71654c4.58154,4.65049 9.0902,9.0701 14.33168,12.98301c4.09248,3.23225 6.44413,7.5889 8.86263,12.11647c0.67374,1.23532 1.34868,2.46766 2.0248,3.69999c0.51154,0.93548 0.51154,0.93548 1.03325,1.88899c6.60664,11.98753 13.66065,23.51931 23.29534,33.34803c0.7286,0.75859 0.7286,0.75859 1.47221,1.53217c5.76588,5.54102 13.09694,7.51094 20.60788,9.65479c19.51646,5.59197 28.13682,22.50887 38.5742,38.64915c11.3309,17.50455 23.61226,33.71383 37.94154,48.89164c5.75089,6.17067 10.02958,11.95156 9.90367,20.62886c-0.50974,4.89338 -3.26225,8.86321 -6.80333,12.16444c-25.00951,18.53901 -65.08592,17.9993 -94.7849,20.5809c-0.63866,0.05397 -1.27732,0.11095 -1.93696,0.1679c-9.84069,0.85155 -19.69009,1.55316 -29.55177,2.13484c-0.68992,0.04197 -1.37986,0.08095 -2.09077,0.12292c-49.27633,2.86645 -99.31964,2.78851 -148.59749,0c-2.17352,-0.12292 -4.34706,-0.24286 -6.52057,-0.35981c-103.97933,-5.72692 -103.97933,-5.72692 -122.68478,-26.36179c-3.07123,-3.85291 -3.90882,-7.13916 -3.79209,-12.05349c0.86343,-6.17968 4.94629,-11.77765 9.50425,-15.88844c0.50684,0 1.01378,0 1.53599,0c0.19884,-0.44977 0.39771,-0.89951 0.6025,-1.36126c1.00441,-1.841 2.08352,-3.02537 3.58266,-4.48259c0.52522,-0.51872 1.05036,-1.03443 1.59148,-1.56814c0.54894,-0.53072 1.09797,-1.06443 1.66356,-1.61313c17.31635,-16.8869 30.25349,-36.83815 42.84788,-57.35006c16.35709,-26.62565 16.35709,-26.62565 28.10054,-29.80994c3.70541,-0.80958 7.46988,-1.22935 11.22924,-1.70909c8.719,-1.13938 14.53467,-3.00438 20.26848,-9.99062c6.55596,-8.72829 11.97884,-18.26314 17.28027,-27.79202c3.30483,-5.88283 6.18836,-10.96509 11.8442,-14.88698c8.10824,-5.78388 14.4564,-13.26484 21.02436,-20.69185c15.49805,-17.26769 34.32999,-34.75427 57.97614,-20.20312zM243.06252,63.20151c-0.82697,0.80958 -1.65482,1.61913 -2.48386,2.4287c-3.71379,3.64003 -7.31575,7.34605 -10.69824,11.3009c-11.43974,13.26786 -11.43974,13.26786 -17.45868,17.17474c-4.80012,3.16029 -7.01171,7.09418 -9.63201,12.11346c-0.86354,1.58916 -1.72947,3.17828 -2.5981,4.76443c-0.41588,0.76758 -0.83205,1.53217 -1.26081,2.32375c-4.14437,7.47795 -9.03592,14.55416 -14.23751,21.3365c-0.44045,0.57568 -0.88094,1.15437 -1.33488,1.75106c-4.95453,6.1047 -11.93956,9.59482 -19.69097,10.83017c-2.45596,0.25486 -4.91406,0.43476 -7.37693,0.60866c-7.47348,0.63266 -12.48198,2.78251 -17.67787,8.3175c-1.82211,2.29077 -3.41636,4.68947 -4.9923,7.15415c-0.67432,1.03145 -0.67432,1.03145 -1.36217,2.08388c-4.25499,6.55447 -8.34391,13.21986 -12.38991,19.90627c-3.04757,5.0223 -6.25073,9.87069 -9.67218,14.64111c-0.79548,1.13339 -1.59034,2.26378 -2.38521,3.39717c-5.25108,7.40602 -10.76241,14.42223 -16.81524,21.18657c-0.92531,1.03745 -0.92531,1.03745 -1.8692,2.09887c-1.1234,1.25332 -2.25121,2.50366 -3.38393,3.75098c-1.17121,1.2923 -2.33224,2.59359 -3.48614,3.90091c-0.60098,0.68063 -1.20181,1.35827 -1.82098,2.05988c-0.53465,0.60568 -1.06927,1.21434 -1.62007,1.841c-1.64406,1.71208 -1.64406,1.71208 -3.54014,3.19927c-2.18499,1.78103 -3.82842,3.70901 -5.59206,5.90381c-0.59793,0.7406 -1.19601,1.47821 -1.812,2.23979c-2.36276,3.07635 -2.48391,4.91135 -2.22007,8.80324c2.84936,6.87529 10.42707,10.3744 16.89627,13.06094c8.81942,3.22927 18.01846,4.95633 27.24507,6.56647c1.25902,0.22489 2.51654,0.46174 3.77108,0.71063c7.2072,1.40925 14.48878,2.20982 21.78506,2.9954c1.14447,0.12292 1.14447,0.12292 2.31236,0.25187c16.73097,1.76306 33.49915,2.65956 50.29669,3.49311c0.63805,0.03298 1.27641,0.06597 1.93395,0.09895c26.90119,1.34627 53.7877,2.17982 80.72337,2.15883c0.82697,0 0.82697,0 1.67041,0c51.21838,-0.012 102.76118,-2.25477 153.37391,-10.51532c0.95948,-0.1559 1.91896,-0.30882 2.90844,-0.46774c12.60221,-2.11087 28.61357,-5.1962 37.60272,-15.08787c2.0509,-3.07635 2.33575,-4.89636 1.92195,-8.64134c-2.71353,-5.59197 -7.32506,-10.09856 -11.5228,-14.59613c-5.35512,-5.73889 -10.32043,-11.65172 -15.09987,-17.87337c-0.97148,-1.25633 -1.95493,-2.50366 -2.94441,-3.74799c-6.61444,-8.40747 -12.39533,-17.35763 -18.16422,-26.35579c-13.66363,-22.43989 -13.66363,-22.43989 -35.88765,-34.55338c-18.98275,-5.04928 -30.15564,-18.64095 -40.03291,-35.00014c-2.35524,-4.0898 -4.65049,-8.21258 -6.91428,-12.35333c-4.11888,-7.50795 -7.89176,-13.73259 -14.59013,-19.14167c-4.07,-3.38818 -7.86535,-7.01923 -11.61603,-10.75519c-0.45035,-0.44676 -0.90043,-0.89351 -1.36397,-1.35227c-2.63407,-2.64458 -5.09576,-5.3761 -7.50226,-8.22756c-1.22125,-1.40325 -2.52705,-2.62058 -3.95007,-3.81393c-1.64462,-1.39424 -3.26883,-2.78549 -4.84809,-4.2517c-7.88576,-7.31005 -16.12502,-13.04596 -27.17465,-12.71615c-9.8512,1.47821 -16.6971,8.23356 -23.41856,14.99791z" fill="#194972"/><path d="M287.77957,56.46114c3.96115,2.78251 7.41591,5.78388 10.784,9.25901c1.35288,1.35526 2.74024,2.57562 4.21753,3.78996c1.84459,1.55017 3.42805,3.1513 4.9845,4.9923c5.71221,6.69838 12.00854,13.32783 19.22503,18.40409c3.04967,2.49766 5.0088,5.72391 6.8777,9.15108c0.43506,0.79158 0.87013,1.58316 1.31838,2.39871c0.45666,0.83355 0.91301,1.67011 1.38346,2.53064c16.80324,30.52654 16.80324,30.52654 45.53166,48.50784c1.57716,0.40177 3.1573,0.78856 4.74344,1.15138c10.49135,2.49464 16.26323,8.25753 22.33497,16.84192c0.42577,0.59669 0.84853,1.19335 1.2863,1.80503c2.86045,4.04783 5.60997,8.15861 8.25156,12.35035c0.47974,0.75859 0.47974,0.75859 0.97148,1.53516c1.43322,2.32074 2.48267,4.34465 3.05536,7.00723c-7.01923,-0.82155 -12.20041,-5.46905 -17.68746,-9.6458c-9.05511,-6.85431 -18.1792,-12.29936 -29.86089,-11.80464c-8.78826,-0.18289 -17.94202,-5.18721 -24.53577,-10.79417c0,-0.50673 0,-1.01345 0,-1.53516c-0.45245,-0.2039 -0.90491,-0.40777 -1.37115,-0.61767c-5.06816,-2.74353 -8.31781,-7.90373 -11.52128,-12.53025c-3.02926,-4.23072 -5.47895,-7.31906 -10.61007,-8.95318c-5.0109,-2.59061 -7.58412,-8.11963 -9.999,-12.97399c-1.69289,-3.35219 -3.3189,-6.4645 -5.60726,-9.4539c0,-0.50673 0,-1.01345 0,-1.53516c-0.45876,-0.20689 -0.91751,-0.41079 -1.39004,-0.62367c-1.6677,-0.90551 -2.64997,-1.88598 -3.97796,-3.21425c-2.31206,-0.77059 -3.86641,-0.84853 -6.2786,-0.81555c-0.69083,0.006 -1.38196,0.012 -2.09378,0.02098c-0.52682,0.00899 -1.05362,0.018 -1.59665,0.02698c-1.18017,2.17083 -1.86439,4.14078 -2.35433,6.56047c-0.13343,0.64764 -0.26685,1.2983 -0.40448,1.96395c-0.20028,1.00745 -0.20028,1.00745 -0.40448,2.02991c-0.13912,0.68364 -0.27855,1.36427 -0.42218,2.0689c-0.34242,1.67611 -0.68063,3.3552 -1.01555,5.03429c-2.39002,-3.58907 -3.1813,-6.11371 -3.16269,-10.45837c-0.0018,-4.91135 -0.24916,-8.19458 -3.59507,-12.04451c-0.52682,-0.50374 -1.05362,-1.00745 -1.59665,-1.52919c-4.70626,-6.03873 -5.15453,-13.00098 -5.01749,-20.40099c-0.00539,-0.84555 -0.01078,-1.68808 -0.01648,-2.56061c0.04078,-5.16023 0.40028,-8.3295 4.18634,-12.12247c3.86342,0.22489 6.57664,1.2923 9.96903,3.07333c-0.32652,-1.71506 -0.66415,-3.42415 -1.00657,-5.13623c-0.18679,-0.9505 -0.37391,-1.90398 -0.56639,-2.88743c-0.69202,-2.59061 -1.62302,-4.31468 -3.02838,-6.56346c0,-0.76158 0,-1.52018 0,-2.30277z" fill="#cbe7f7"/><path d="M190.01309,213.09968c0.50913,0.50673 1.01796,1.01646 1.54207,1.53817c-0.36462,4.54554 -3.1513,6.83932 -6.16798,9.99361c-0.62127,0.68663 -1.24254,1.37027 -1.88239,2.07788c-0.65096,0.69263 -1.3022,1.38824 -1.97263,2.10185c-0.9067,0.97447 -0.9067,0.97447 -1.8314,1.96693c-2.47966,1.88598 -4.34706,2.10185 -7.421,2.30877c-1.20474,-1.34627 -1.20474,-1.34627 -2.31294,-3.07333c0.78287,-6.58444 9.15525,-12.20943 13.87832,-16.1463c2.12975,-1.06142 3.81454,-0.9145 6.16798,-0.76758z" fill="#95c8e9"/><path d="M255.41383,94.79248c0.7649,2.34175 0.85813,3.57707 0.04827,5.9308c-2.22599,3.47212 -4.57225,6.71939 -7.77691,9.37295c-2.65657,0.09295 -2.65657,0.09295 -4.637,-0.76758c-0.77297,-0.76459 -0.77297,-0.76459 -1.11091,-2.67756c0.58378,-4.62351 3.75518,-8.81524 7.29357,-11.85861c2.54264,-0.83955 3.64243,-0.61168 6.18297,0z" fill="#d8eef9"/><path d="M242.23503,54.06243c0,3.38219 -1.04165,4.79741 -3.29733,7.31005c-0.67822,0.67164 -1.35617,1.34627 -2.0548,2.0389c-0.67822,0.68063 -1.35617,1.36126 -2.0548,2.0629c-1.76815,1.56214 -1.76815,1.56214 -3.29733,1.56214c-0.25245,0.75558 -0.50462,1.51119 -0.76459,2.28776c-0.7571,0 -1.51387,0 -2.29375,0c0,0.50673 0,1.01046 0,1.52919c-0.50462,-0.25187 -1.00925,-0.50374 -1.52919,-0.76459c4.73835,-5.69394 10.0191,-10.83617 15.29175,-16.02637z" fill="#325878"/><path d="M223.78087,73.25509c0.25096,0.77059 0.50222,1.54116 0.761,2.33575c-2.07907,3.99383 -4.93775,6.56946 -8.37238,9.35796c-0.50222,-0.51571 -1.00477,-1.03145 -1.52228,-1.55916c3.01428,-3.34619 6.02825,-6.68939 9.13369,-10.13453z" fill="#214a6f"/><path d="M234.57985,71.75288c0.25007,0.76459 0.50012,1.52919 0.75738,2.31474c-8.7274,9.76872 -8.7274,9.76872 -12.87717,13.87652c-0.49984,-0.25187 -0.99996,-0.50673 -1.51478,-0.77059c0.32113,-0.31784 0.64225,-0.63565 0.97328,-0.96247c4.53985,-4.55154 8.73788,-9.34596 12.66127,-14.4582z" fill="#e1f2f7"/><path d="M140.87527,144.62558c0.49473,0.25787 0.98948,0.51272 1.49919,0.77958c-0.78497,1.03145 -1.58435,2.05388 -2.38942,3.07035c-0.44347,0.56971 -0.88693,1.13938 -1.34417,1.72706c-1.75736,1.67011 -2.92583,1.95493 -5.26156,2.2188c4.61032,-5.83486 4.61032,-5.83486 7.49595,-7.79579z" fill="#466b8b"/><path d="M199.96951,97.24515c0.77388,2.35074 0.84134,2.83946 -0.19339,5.24718c-1.1322,1.87998 -2.18643,3.61606 -3.67423,5.24718c-0.51032,0 -1.02094,0 -1.54686,0c1.12949,-3.98186 3.08083,-7.09418 5.41448,-10.49433z" fill="#4b6c89"/><path d="M137.71319,157.81848c0.25187,0.76459 0.50374,1.52919 0.7631,2.31474c-1.18047,2.08087 -1.18047,2.08087 -2.86197,4.38364c-0.82066,1.15138 -0.82066,1.15138 -1.6578,2.32375c-0.78497,0.87853 -0.78497,0.87853 -1.58614,1.77204c-0.75558,0 -1.51119,0 -2.28955,0c2.51864,-3.56209 5.03728,-7.12415 7.63239,-10.79417z" fill="#def1f6"/><path d="M105.60225,194.7046c0.25967,0 0.51933,0 0.78707,0c0,1.2803 0,2.55762 0,3.8739c-0.77928,0.25486 -1.55827,0.50974 -2.36121,0.77358c-0.96429,2.32975 -0.96429,2.32975 -1.57414,4.6475c-0.77928,-0.25486 -1.55855,-0.50974 -2.36152,-0.77358c1.38644,-3.10032 3.35429,-5.88883 5.50983,-8.5214z" fill="#436583"/><path d="M182.52552,126.33246c0.50554,1.02844 1.01135,2.0569 1.53248,3.11832c-1.51719,1.54417 -3.03435,3.08835 -4.59771,4.67747c-0.75829,-0.25787 -1.51689,-0.51571 -2.29857,-0.77958c1.76994,-2.31474 3.54019,-4.62951 5.3638,-7.01621z" fill="#375b79"/><path d="M246.8825,59.45952c0.24736,0.76758 0.49503,1.53217 0.74961,2.32375c-2.47366,2.29975 -4.94734,4.59951 -7.49595,6.97123c-0.49473,-0.25486 -0.98948,-0.51272 -1.49919,-0.77659c2.72102,-2.80949 5.44237,-5.62197 8.24556,-8.51842z" fill="#e5f8fe"/><path d="M190.80525,126.33246c0.24736,0.50073 0.49473,1.00446 0.74961,1.52319c-1.32919,3.19628 -3.03618,5.73889 -5.24746,8.3715c-0.74181,-0.25187 -1.4839,-0.50374 -2.2485,-0.76158c0.54211,-0.70161 0.54211,-0.70161 1.09501,-1.41824c0.47344,-0.61466 0.9469,-1.22935 1.43472,-1.865c0.46954,-0.60866 0.93938,-1.21735 1.42302,-1.84401c0.97778,-1.30129 1.89978,-2.64458 2.7936,-4.00583z" fill="#d7ebf2"/><path d="M152.51801,287.77737c0.51212,0.75558 1.02454,1.51119 1.55197,2.28776c-4.35364,-0.24886 -8.70731,-0.50073 -13.19288,-0.76158c0,-0.25187 0,-0.50374 0,-0.76158c1.21254,-0.13193 2.42508,-0.25787 3.63793,-0.3838c0.67524,-0.06895 1.35047,-0.14092 2.04609,-0.21289c4.16624,-0.33581 4.16624,-0.33581 5.95689,-0.1679z" fill="#66849e"/><path d="M116.41387,177.91062c0.57808,1.24132 0.57808,1.24132 0.7709,3.05235c-2.41789,4.36265 -2.41789,4.36265 -5.39709,5.34312c1.1184,-3.13632 2.70725,-5.67295 4.62622,-8.39547z" fill="#4d6f8a"/><path d="M255.42967,46.5095c-2.10006,2.32074 -3.83044,3.67901 -6.86899,4.55154c-0.50374,-0.24886 -1.00745,-0.50073 -1.52648,-0.75859c4.68829,-4.33265 4.68829,-4.33265 8.39547,-3.79295z" fill="#456687"/><path d="M97.8212,205.50176c0.25455,0.50374 0.50883,1.01046 0.77117,1.53217c-0.91572,2.34474 -0.91572,2.34474 -2.31325,4.59652c-1.68659,0.67164 -1.68659,0.67164 -3.08384,0.76758c1.17715,-2.63258 2.77502,-4.68947 4.62591,-6.89628z" fill="#476b85"/><path d="M203.85002,104.7411c0.49473,0.50374 0.98948,1.00745 1.49919,1.52617c-1.48421,2.26677 -2.96841,4.53357 -4.49788,6.86929c-0.49442,-0.25187 -0.98948,-0.50374 -1.49919,-0.76459c1.48451,-2.51864 2.96869,-5.03728 4.49788,-7.63087z" fill="#def0f5"/><path d="M204.70726,90.94554c0.50883,0.26086 1.01765,0.52171 1.54207,0.78856c-0.99097,2.25477 -1.98253,3.91589 -3.85501,5.50804c-0.50883,0 -1.01796,0 -1.54207,0c0.9142,-2.65657 1.75465,-4.4436 3.85501,-6.2966z" fill="#3f607f"/><path d="M223.79198,73.25207c0.24736,0.75859 0.49473,1.51719 0.74961,2.29975c-0.74209,0.25187 -1.48421,0.50673 -2.2488,0.76758c-0.54961,1.54417 -0.54961,1.54417 -0.74961,3.06435c-0.98948,0.25187 -1.97893,0.50673 -2.99838,0.76459c1.4716,-2.70753 3.02896,-4.78243 5.24718,-6.89628z" fill="#53748f"/><path d="M333.70039,90.94554c2.39871,0.78856 2.39871,0.78856 3.79776,2.70753c0.49473,0.99847 0.49473,0.99847 0.99965,2.0149c-0.26387,0.52171 -0.52771,1.04043 -0.79968,1.57414c-1.99903,-1.37627 -1.99903,-1.37627 -3.99773,-3.14831c0,-1.03745 0,-2.07788 0,-3.14831z" fill="#446783"/><path d="M230.08947,74.75428c0.74209,0.25187 1.48421,0.50374 2.2488,0.76459c-1.73157,2.02391 -3.46314,4.04482 -5.24746,6.13168c-0.24736,-0.75859 -0.49442,-1.51719 -0.74961,-2.29975c1.05304,-1.73608 2.3963,-3.08235 3.74827,-4.59652z" fill="#264e6f"/><path d="M311.50756,70.25369c2.5963,1.07643 3.84423,2.29677 5.39739,4.62649c-0.76338,0.25486 -1.52678,0.50974 -2.31325,0.77059c-3.08414,-3.66104 -3.08414,-3.66104 -3.08414,-5.39709z" fill="#345978"/><path d="M88.54634,216.89862c0.4686,1.49919 0.4686,1.49919 0.74953,3.19628c-0.49473,0.52771 -0.98948,1.05542 -1.49925,1.60113c-1.59286,-0.29984 -1.59286,-0.29984 -2.99841,-0.80056c1.23693,-1.31929 2.47371,-2.63858 3.74813,-3.99685z" fill="#466a87"/><path d="M133.2282,152.4214c0.74209,0 1.48451,0 2.24908,0c-0.56249,1.51119 -0.56249,1.51119 -1.49949,3.11832c-1.59275,0.58469 -1.59275,0.58469 -2.99838,0.77958c1.40563,-3.01937 1.40563,-3.01937 2.2488,-3.8979z" fill="#315879"/><path d="M75.50155,230.69118c0,2.31175 0,2.31175 -0.74961,4.62649c-1.23693,0.25486 -2.47371,0.50974 -3.74813,0.77059c1.48423,-1.78103 2.96855,-3.56209 4.49774,-5.39709z" fill="#7090a5"/><path d="M91.69518,212.99771c0.79158,0 1.58316,0 2.39871,0c-0.59968,1.51119 -0.59968,1.51119 -1.59903,3.11832c-1.69919,0.58469 -1.69919,0.58469 -3.19838,0.77958c1.04945,-1.94896 1.04945,-1.94896 2.39871,-3.8979z" fill="#395d7a"/><path d="M180.07315,137.7293c0.7211,0.26387 1.44193,0.52771 2.18493,0.79758c-2.16304,1.97893 -2.16304,1.97893 -4.36923,3.99983c-0.24048,-0.79158 -0.48065,-1.58316 -0.72832,-2.39871c1.3199,-1.25033 1.3199,-1.25033 2.91262,-2.39871z" fill="#264f70"/><path d="M198.44514,114.03609c0.77809,2.33874 0.77809,2.33874 0.1733,3.76298c-0.83595,1.34329 -1.6716,2.68956 -2.50755,4.03282c-0.51333,0 -1.02694,0 -1.55587,0c1.03833,-2.80048 2.30304,-5.26515 3.8901,-7.79579z" fill="#d4e8ef"/><path d="M230.68914,65.75612c0.24736,0.96247 0.49473,1.92195 0.74961,2.91143c-0.98948,0.24286 -1.97893,0.48273 -2.99838,0.7286c0,0.48273 0,0.96247 0,1.45722c-0.49473,-0.23987 -0.98948,-0.47974 -1.49919,-0.7286c1.23684,-1.44221 2.47366,-2.88445 3.74799,-4.36865z" fill="#597992"/><path d="M287.51841,56.46114c2.37471,1.48421 2.37471,1.48421 4.79741,2.99838c-0.26387,0.49473 -0.52771,0.98948 -0.79937,1.49919c-0.79188,0 -1.58343,0 -2.39901,0c-1.59903,-2.2488 -1.59903,-2.2488 -1.59903,-4.49757z" fill="#c0ddef"/></g><path d="M196.98315,78.00436c6.77453,4.72542 12.56597,10.6549 18.34708,16.51383c1.43677,1.4534 2.87708,2.90428 4.31736,4.35515c0.7529,0.76071 1.50478,1.52141 2.25566,2.28212c3.84887,3.90679 7.63651,7.61962 12.03978,10.90678c3.43802,2.71536 5.41359,6.3753 7.44533,10.17883c0.566,1.03777 1.133,2.07303 1.701,3.1083c0.42973,0.78588 0.42973,0.78588 0.86801,1.58691c5.55012,10.0705 11.47606,19.75814 19.56998,28.01507c0.61208,0.63728 0.61208,0.63728 1.23677,1.28715c4.84381,4.65491 11.0025,6.3098 17.3123,8.11081c16.39542,4.69771 23.63722,18.90929 32.40547,32.46844c9.51888,14.70525 19.83623,28.32237 31.87399,41.07297c4.83122,5.18386 8.42566,10.04028 8.31989,17.32993c-0.42822,4.11083 -2.74056,7.44582 -5.71535,10.21912c-21.01003,15.57428 -54.67748,15.12088 -79.62705,17.28963c-0.53653,0.04534 -1.07305,0.09321 -1.62721,0.14105c-8.26698,0.71537 -16.54128,1.30478 -24.82589,1.79344c-0.57959,0.03526 -1.1592,0.06801 -1.75641,0.10326c-41.39614,2.40805 -83.4366,2.34257 -124.83402,0c-1.82593,-0.10326 -3.65188,-0.20402 -5.47781,-0.30227c-87.35112,-4.81108 -87.35112,-4.81108 -103.06523,-22.14605c-2.58009,-3.23676 -3.28372,-5.99748 -3.18566,-10.12592c0.72536,-5.19143 4.15529,-9.89419 7.98434,-13.34758c0.42578,0 0.85166,0 1.29036,0c0.16704,-0.37784 0.33411,-0.75567 0.50615,-1.14357c0.84379,-1.54659 1.75033,-2.54155 3.00973,-3.76574c0.44123,-0.43577 0.88239,-0.86901 1.33697,-1.31737c0.46116,-0.44585 0.92238,-0.89421 1.39752,-1.35516c14.54715,-14.18637 25.4154,-30.94705 35.99572,-48.17873c13.74129,-22.36772 13.74129,-22.36772 23.60675,-25.04278c3.11285,-0.68011 6.27531,-1.03275 9.43347,-1.43578c7.32467,-0.95718 12.21031,-2.52393 17.02718,-8.39294c5.50754,-7.33248 10.06321,-15.34253 14.51684,-23.34757c2.77632,-4.94205 5.19873,-9.21157 9.9501,-12.50628c6.81158,-4.85893 12.14456,-11.14355 17.66218,-17.38284c13.01963,-14.50627 28.83999,-29.19642 48.70469,-16.97227z" fill="#bfdef2"/><path d="M196.98315,78.00436c6.77453,4.72542 12.56597,10.6549 18.34708,16.51383c1.43677,1.4534 2.87708,2.90428 4.31736,4.35515c0.7529,0.76071 1.50478,1.52141 2.25566,2.28212c3.84887,3.90679 7.63651,7.61962 12.03978,10.90678c3.43802,2.71536 5.41359,6.3753 7.44533,10.17883c0.566,1.03777 1.133,2.07303 1.701,3.1083c0.42973,0.78588 0.42973,0.78588 0.86801,1.58691c5.55012,10.0705 11.47606,19.75814 19.56998,28.01507c0.61208,0.63728 0.61208,0.63728 1.23677,1.28715c4.84381,4.65491 11.0025,6.3098 17.3123,8.11081c16.39542,4.69771 23.63722,18.90929 32.40547,32.46844c9.51888,14.70525 19.83623,28.32237 31.87399,41.07297c4.83122,5.18386 8.42566,10.04028 8.31989,17.32993c-0.42822,4.11083 -2.74056,7.44582 -5.71535,10.21912c-21.01003,15.57428 -54.67748,15.12088 -79.62705,17.28963c-0.53653,0.04534 -1.07305,0.09321 -1.62721,0.14105c-8.26698,0.71537 -16.54128,1.30478 -24.82589,1.79344c-0.57959,0.03526 -1.1592,0.06801 -1.75641,0.10326c-41.39614,2.40805 -83.4366,2.34257 -124.83402,0c-1.82593,-0.10326 -3.65188,-0.20402 -5.47781,-0.30227c-87.35112,-4.81108 -87.35112,-4.81108 -103.06523,-22.14605c-2.58009,-3.23676 -3.28372,-5.99748 -3.18566,-10.12592c0.72536,-5.19143 4.15529,-9.89419 7.98434,-13.34758c0.42578,0 0.85166,0 1.29036,0c0.16704,-0.37784 0.33411,-0.75567 0.50615,-1.14357c0.84379,-1.54659 1.75033,-2.54155 3.00973,-3.76574c0.44123,-0.43577 0.88239,-0.86901 1.33697,-1.31737c0.46116,-0.44585 0.92238,-0.89421 1.39752,-1.35516c14.54715,-14.18637 25.4154,-30.94705 35.99572,-48.17873c13.74129,-22.36772 13.74129,-22.36772 23.60675,-25.04278c3.11285,-0.68011 6.27531,-1.03275 9.43347,-1.43578c7.32467,-0.95718 12.21031,-2.52393 17.02718,-8.39294c5.50754,-7.33248 10.06321,-15.34253 14.51684,-23.34757c2.77632,-4.94205 5.19873,-9.21157 9.9501,-12.50628c6.81158,-4.85893 12.14456,-11.14355 17.66218,-17.38284c13.01963,-14.50627 28.83999,-29.19642 48.70469,-16.97227zM159.64993,91.70963c-0.69472,0.68011 -1.39018,1.3602 -2.08664,2.04031c-3.11989,3.05792 -6.14582,6.17128 -8.98739,9.49368c-9.61032,11.14608 -9.61032,11.14608 -14.66672,14.42818c-4.03249,2.6549 -5.89041,5.95969 -8.09167,10.1763c-0.72545,1.33502 -1.45289,2.67002 -2.18262,4.00251c-0.34937,0.64483 -0.69899,1.28715 -1.05919,1.95214c-3.48161,6.28209 -7.59091,12.22668 -11.96067,17.9244c-0.37002,0.48362 -0.74006,0.96976 -1.12141,1.47103c-4.16221,5.12845 -10.0302,8.06043 -16.54203,9.09823c-2.06321,0.2141 -4.12821,0.36523 -6.19722,0.51133c-6.27833,0.53149 -10.48588,2.33753 -14.85085,6.98738c-1.53072,1.92443 -2.87002,3.93954 -4.19394,6.01007c-0.56649,0.8665 -0.56649,0.8665 -1.14433,1.75063c-3.57454,5.50629 -7.00956,11.10576 -10.40853,16.72289c-2.5602,4.21914 -5.25113,8.29218 -8.12542,12.29973c-0.66827,0.95214 -1.33602,1.90176 -2.00377,2.8539c-4.41134,6.22166 -9.0413,12.11585 -14.12617,17.79845c-0.77734,0.87154 -0.77734,0.87154 -1.57028,1.76322c-0.94375,1.05289 -1.8912,2.10327 -2.84277,3.15113c-0.98391,1.08564 -1.95927,2.17883 -2.92864,3.27708c-0.50487,0.57178 -1.00962,1.14106 -1.52977,1.73047c-0.44915,0.50882 -0.89827,1.02014 -1.36099,1.54659c-1.38115,1.43828 -1.38115,1.43828 -2.974,2.68765c-1.83557,1.49621 -3.21618,3.11587 -4.69778,4.95968c-0.50231,0.62216 -1.00474,1.24181 -1.52222,1.8816c-1.98491,2.58438 -2.08669,4.12593 -1.86504,7.39544c2.3937,5.77581 8.75959,8.71534 14.19425,10.97226c7.40903,2.71285 15.13698,4.16372 22.88808,5.51637c1.05768,0.18892 2.1141,0.3879 3.16801,0.59698c6.05464,1.18389 12.17175,1.85643 18.30123,2.51638c0.96145,0.10326 0.96145,0.10326 1.94257,0.21159c14.05538,1.48111 28.14202,2.23425 42.25333,2.9345c0.53602,0.02771 1.07229,0.05542 1.62468,0.08313c22.3045,1.11586 44.58958,1.81109 66.92328,1.77581c2.44356,-0.00251 4.8874,0 7.33097,0.00251c1.91888,0.00251 3.83802,0.00251 5.75692,0c0.90327,0 1.8063,0 2.70932,0.00251c1.24383,0 2.48765,-0.00251 3.73122,-0.00504c1.0534,0 1.0534,0 2.12796,-0.00251c1.77883,-0.07558 3.39194,-0.32243 5.12317,-0.72545c0,-0.2141 0,-0.42822 0,-0.64736c-7.45188,-0.21159 -14.904,-0.42569 -22.58182,-0.64483c2.02266,-0.83879 4.04534,-1.67758 6.12945,-2.54155c10.21257,-4.35011 18.63522,-9.24683 26.7755,-16.8186c0.55139,-0.49119 1.10276,-0.98238 1.67103,-1.48866c6.83046,-6.36522 11.75489,-14.90678 12.18032,-24.34504c0.11739,-7.801 -2.67102,-13.82869 -7.39948,-19.98485c-1.05995,-0.87909 -2.135,-1.74055 -3.22594,-2.58185c-0.73476,-0.78588 -1.44862,-1.59193 -2.13728,-2.41813c-1.57959,-1.85389 -3.21082,-3.58941 -4.95994,-5.28462c-5.84407,-5.81106 -9.99495,-12.09822 -10.68588,-20.48863c-0.08111,-0.96222 -0.08111,-0.96222 -0.16398,-1.94457c-0.03904,-0.48866 -0.07809,-0.97985 -0.11838,-1.48362c0.55894,0.05289 1.11788,0.1058 1.6937,0.16121c3.19595,-0.23677 4.967,-1.733 7.25843,-3.87153c1.34912,-2.70024 1.18061,-5.17882 0.29497,-7.97731c-2.04609,-4.54658 -5.17253,-8.44078 -8.11912,-12.4307c-3.67204,-5.00755 -6.9544,-9.8161 -6.95816,-16.17881c-0.05138,-4.15868 -0.24155,-6.97983 -3.08161,-10.24179c-0.44332,-0.42318 -0.88641,-0.84634 -1.34331,-1.28211c-3.9597,-5.07807 -4.33676,-10.92945 -4.22139,-17.14858c-0.00453,-0.71033 -0.00931,-1.42066 -0.01384,-2.15365c0.05289,-6.72039 0.05289,-6.72039 2.87682,-9.54405c2.64407,0.24434 4.21939,0.44836 6.45213,1.93702c0.63854,0 1.27733,0 1.93551,0c-0.02216,-5.61459 -1.27531,-10.204 -4.51636,-14.84379c-1.78538,-1.67254 -3.61586,-2.79848 -5.80679,-3.87153c-0.40428,-0.21663 -0.80832,-0.43324 -1.22493,-0.65742c-11.90904,-5.50376 -21.86443,3.05037 -29.74451,10.98234z" fill="#a5d1ec"/><path d="M194.54663,83.46531c3.23904,2.25188 4.70629,6.02015 5.87605,9.6423c0.39898,2.37028 0.59496,4.69771 0.64608,7.10075c-2.18059,-0.35515 -3.28386,-0.68262 -5.16925,-1.93702c-1.88488,-0.23677 -2.82064,-0.30731 -4.36145,0.84634c-2.25919,3.04786 -1.62442,7.16371 -1.65566,10.77075c-0.01865,0.70025 -0.03753,1.40303 -0.05693,2.12594c-0.04306,5.55414 0.70252,10.62215 4.20376,15.10576c0.44409,0.42318 0.88792,0.84634 1.34533,1.28464c2.74961,3.16625 2.90881,5.98991 2.96827,9.99495c0.06499,3.801 0.80855,6.32996 2.72595,9.56925c0.25818,0.47607 0.51637,0.94963 0.78261,1.44079c2.24282,3.96221 4.92417,7.58186 7.70075,11.18134c3.13703,4.14356 5.11358,7.8942 4.43953,13.19392c-1.13853,1.94457 -2.47304,3.49369 -4.52291,4.51636c-3.79068,0.55165 -6.45037,0.05289 -9.5811,-2.12845c-2.30026,-1.79848 -4.54458,-3.65994 -6.75944,-5.55918c-3.27028,-2.51384 -5.95565,-3.67253 -10.04809,-3.50377c-2.28892,0.36019 -3.51787,1.30982 -5.27254,2.80099c-0.35996,0.30227 -0.7199,0.60453 -1.09043,0.91435c-5.60779,5.11082 -9.69695,11.87151 -14.00828,18.06293c-5.57455,7.89671 -5.57455,7.89671 -10.18185,9.46346c-2.29243,-0.05038 -3.31083,-0.54661 -5.0884,-1.97732c-2.03527,-3.30981 -1.70176,-7.03525 -0.94459,-10.73549c0.46271,-1.72039 0.9723,-3.41814 1.50982,-5.11839c2.58487,-8.17631 2.58487,-8.17631 3.51334,-16.65992c0.01637,-0.96472 0.01637,-0.96472 0.033,-1.94961c-0.11334,-1.68009 -0.11334,-1.68009 -1.01487,-2.87406c-1.62821,-1.04281 -2.48135,-1.05793 -4.38915,-0.74308c-1.88009,1.22669 -3.55238,2.6146 -5.28789,4.03526c-2.09419,1.29974 -3.27657,1.35769 -5.69647,1.12847c-0.31989,-2.23678 -0.31989,-2.23678 -0.64634,-4.51636c-3.35617,2.29721 -5.42342,5.36775 -7.75364,8.63222c-7.07002,9.80602 -7.07002,9.80602 -9.44985,10.76824c-1.53477,-0.0403 -1.53477,-0.0403 -2.70579,-0.76575c-0.98489,-1.55163 -0.82367,-2.62972 -0.76726,-4.43577c-6.5151,2.99495 -12.12138,6.08311 -17.44606,10.96975c-0.3791,0.3476 -0.75817,0.69017 -1.14886,1.04785c-8.73046,7.95464 -8.73046,7.95464 -16.78184,16.58184c-3.32669,3.81108 -3.32669,3.81108 -5.33072,4.96222c-2.38262,-0.0403 -2.38262,-0.0403 -4.52317,-0.64736c-1.43475,-2.14861 -1.42242,-3.05288 -1.04987,-5.54659c0.79269,-3.04786 2.23325,-5.8413 3.63474,-8.65238c-3.99521,0.27709 -6.56901,1.14861 -9.93474,3.267c-4.14886,2.54155 -4.14886,2.54155 -5.57304,2.54155c0.90956,-3.98488 2.63223,-7.09822 4.76549,-10.56673c0.51235,-0.8413 0.51235,-0.8413 1.03526,-1.70025c2.34508,-3.801 4.77682,-7.53903 7.32416,-11.20905c0.45215,-0.65995 0.45215,-0.65995 0.91335,-1.33502c3.26347,-4.59445 6.86068,-8.03272 12.45388,-9.39545c1.98765,-0.30981 3.97078,-0.46599 5.97681,-0.60453c8.77178,-0.79092 15.55136,-2.7884 21.45916,-9.62467c4.95943,-6.14357 9.16623,-12.81106 12.97856,-19.71029c0.62973,-1.12594 1.25944,-2.25188 1.88941,-3.38035c0.60806,-1.09823 1.20049,-2.20654 1.79218,-3.31485c2.7335,-4.90931 5.64709,-7.869 10.18034,-11.12592c3.62517,-2.96724 6.8801,-6.20403 10.05566,-9.63977c0.401,-0.43073 0.80226,-0.85893 1.21536,-1.29974c1.99671,-2.14608 3.95666,-4.31485 5.87707,-6.52643c5.23273,-6.00252 10.81509,-12.05539 17.7438,-16.09569c0.45995,-0.27709 0.91964,-0.55415 1.39346,-0.83879c7.44382,-3.91938 14.87503,-1.67758 21.80725,2.16877z" fill="#fcfdfd"/><path d="M196.98315,78.00436c6.77453,4.72542 12.56597,10.6549 18.34708,16.51383c1.43677,1.4534 2.87708,2.90428 4.31736,4.35515c0.7529,0.76071 1.50478,1.52141 2.25566,2.28212c3.84887,3.90679 7.63651,7.61962 12.03978,10.90678c3.43802,2.71536 5.41359,6.3753 7.44533,10.17883c0.566,1.03777 1.133,2.07303 1.701,3.1083c0.42973,0.78588 0.42973,0.78588 0.86801,1.58691c5.55012,10.0705 11.47606,19.75814 19.56998,28.01507c0.61208,0.63728 0.61208,0.63728 1.23677,1.28715c4.84381,4.65491 11.0025,6.3098 17.3123,8.11081c16.39542,4.69771 23.63722,18.90929 32.40547,32.46844c9.51888,14.70525 19.83623,28.32237 31.87399,41.07297c4.83122,5.18386 8.42566,10.04028 8.31989,17.32993c-0.42822,4.11083 -2.74056,7.44582 -5.71535,10.21912c-21.01003,15.57428 -54.67748,15.12088 -79.62705,17.28963c-0.53653,0.04534 -1.07305,0.09321 -1.62721,0.14105c-8.26698,0.71537 -16.54128,1.30478 -24.82589,1.79344c-0.57959,0.03526 -1.1592,0.06801 -1.75641,0.10326c-41.39614,2.40805 -83.4366,2.34257 -124.83402,0c-1.82593,-0.10326 -3.65188,-0.20402 -5.47781,-0.30227c-87.35112,-4.81108 -87.35112,-4.81108 -103.06523,-22.14605c-2.58009,-3.23676 -3.28372,-5.99748 -3.18566,-10.12592c0.72536,-5.19143 4.15529,-9.89419 7.98434,-13.34758c0.42578,0 0.85166,0 1.29036,0c0.16704,-0.37784 0.33411,-0.75567 0.50615,-1.14357c0.84379,-1.54659 1.75033,-2.54155 3.00973,-3.76574c0.44123,-0.43577 0.88239,-0.86901 1.33697,-1.31737c0.46116,-0.44585 0.92238,-0.89421 1.39752,-1.35516c14.54715,-14.18637 25.4154,-30.94705 35.99572,-48.17873c13.74129,-22.36772 13.74129,-22.36772 23.60675,-25.04278c3.11285,-0.68011 6.27531,-1.03275 9.43347,-1.43578c7.32467,-0.95718 12.21031,-2.52393 17.02718,-8.39294c5.50754,-7.33248 10.06321,-15.34253 14.51684,-23.34757c2.77632,-4.94205 5.19873,-9.21157 9.9501,-12.50628c6.81158,-4.85893 12.14456,-11.14355 17.66218,-17.38284c13.01963,-14.50627 28.83999,-29.19642 48.70469,-16.97227zM159.64993,91.70963c-0.69472,0.68011 -1.39018,1.3602 -2.08664,2.04031c-3.11989,3.05792 -6.14582,6.17128 -8.98739,9.49368c-9.61032,11.14608 -9.61032,11.14608 -14.66672,14.42818c-4.03249,2.6549 -5.89041,5.95969 -8.09167,10.1763c-0.72545,1.33502 -1.45289,2.67002 -2.18262,4.00251c-0.34937,0.64483 -0.69899,1.28715 -1.05919,1.95214c-3.48161,6.28209 -7.59091,12.22668 -11.96067,17.9244c-0.37002,0.48362 -0.74006,0.96976 -1.12141,1.47103c-4.16221,5.12845 -10.0302,8.06043 -16.54203,9.09823c-2.06321,0.2141 -4.12821,0.36523 -6.19722,0.51133c-6.27833,0.53149 -10.48588,2.33753 -14.85085,6.98738c-1.53072,1.92443 -2.87002,3.93954 -4.19394,6.01007c-0.56649,0.8665 -0.56649,0.8665 -1.14433,1.75063c-3.57454,5.50629 -7.00956,11.10576 -10.40853,16.72289c-2.5602,4.21914 -5.25113,8.29218 -8.12542,12.29973c-0.66827,0.95214 -1.33602,1.90176 -2.00377,2.8539c-4.41134,6.22166 -9.0413,12.11585 -14.12617,17.79845c-0.77734,0.87154 -0.77734,0.87154 -1.57028,1.76322c-0.94375,1.05289 -1.8912,2.10327 -2.84277,3.15113c-0.98391,1.08564 -1.95927,2.17883 -2.92864,3.27708c-0.50487,0.57178 -1.00962,1.14106 -1.52977,1.73047c-0.44915,0.50882 -0.89827,1.02014 -1.36099,1.54659c-1.38115,1.43828 -1.38115,1.43828 -2.974,2.68765c-1.83557,1.49621 -3.21618,3.11587 -4.69778,4.95968c-0.50231,0.62216 -1.00474,1.24181 -1.52222,1.8816c-1.98491,2.58438 -2.08669,4.12593 -1.86504,7.39544c2.3937,5.77581 8.75959,8.71534 14.19425,10.97226c7.40903,2.71285 15.13698,4.16372 22.88808,5.51637c1.05768,0.18892 2.1141,0.3879 3.16801,0.59698c6.05464,1.18389 12.17175,1.85643 18.30123,2.51638c0.96145,0.10326 0.96145,0.10326 1.94257,0.21159c14.05538,1.48111 28.14202,2.23425 42.25333,2.9345c0.53602,0.02771 1.07229,0.05542 1.62468,0.08313c22.5992,1.13098 45.18606,1.83123 67.81422,1.8136c0.69472,0 0.69472,0 1.40328,0c43.02762,-0.01008 86.32778,-1.89419 128.8466,-8.83373c0.80604,-0.13097 1.61209,-0.25944 2.44333,-0.39294c10.58689,-1.7733 24.03774,-4.36523 31.58935,-12.67504c1.72292,-2.58438 1.96222,-4.11334 1.61459,-7.25943c-2.27959,-4.69771 -6.15365,-8.48361 -9.68009,-12.26194c-4.49874,-4.82114 -8.67,-9.78839 -12.68512,-15.01509c-0.81612,-1.05542 -1.6423,-2.10327 -2.47355,-3.14862c-5.55667,-7.06296 -10.41309,-14.58182 -15.25943,-22.14101c-11.47857,-18.85134 -11.47857,-18.85134 -30.14856,-29.02766c-15.94706,-4.24181 -25.3332,-15.65992 -33.63091,-29.40297c-1.9786,-3.43576 -3.90679,-6.89924 -5.80856,-10.37781c-3.4602,-6.30729 -6.62972,-11.53649 -12.2569,-16.08057c-3.41913,-2.84635 -6.60754,-5.89672 -9.75841,-9.03524c-0.37833,-0.37531 -0.75643,-0.75063 -1.14584,-1.13602c-2.21283,-2.22166 -4.28085,-4.51636 -6.30251,-6.91183c-1.02595,-1.17885 -2.12292,-2.2015 -3.31838,-3.20401c-1.38161,-1.17128 -2.74608,-2.34004 -4.07279,-3.57178c-6.62468,-6.14104 -13.54633,-10.95967 -22.82893,-10.6826c-8.27581,1.24181 -14.02693,6.91687 -19.6735,12.59947z" fill="#194972"/><path d="M197.2159,86.04716c3.32769,2.33753 6.22997,4.85893 9.05944,7.77833c1.13653,1.13853 2.30202,2.16373 3.54307,3.18388c1.54961,1.30227 2.87984,2.64735 4.18739,4.19394c4.79873,5.62718 10.08815,11.19646 16.15059,15.46094c2.56197,2.09823 4.2078,4.80855 5.77783,7.68765c0.36549,0.66499 0.73098,1.32998 1.10754,2.01511c0.38363,0.70025 0.767,1.40303 1.16222,2.12594c14.11609,25.64478 14.11609,25.64478 38.25031,40.75054c1.32494,0.33752 2.65239,0.66246 3.98488,0.96726c8.81359,2.0957 13.66244,6.937 18.7632,14.14859c0.35768,0.50127 0.71284,1.00251 1.0806,1.51637c2.40301,3.40051 4.71284,6.8539 6.93199,10.3753c0.40302,0.63728 0.40302,0.63728 0.81612,1.28966c1.20402,1.94961 2.08565,3.64986 2.56675,5.88664c-5.89672,-0.69017 -10.24934,-4.59445 -14.85891,-8.10326c-7.60703,-5.75818 -15.27202,-10.33247 -25.08559,-9.91686c-7.38285,-0.15364 -15.07276,-4.35768 -20.61205,-9.06799c0,-0.42569 0,-0.85138 0,-1.28966c-0.3801,-0.17129 -0.76019,-0.34256 -1.15188,-0.5189c-4.25767,-2.30479 -6.98764,-6.63978 -9.67881,-10.52643c-2.54483,-3.55415 -4.60277,-6.14861 -8.91332,-7.5214c-4.20957,-2.17632 -6.37128,-6.82115 -8.39998,-10.89921c-1.42217,-2.81611 -2.78815,-5.43071 -4.71056,-7.94205c0,-0.42569 0,-0.85138 0,-1.28966c-0.38539,-0.1738 -0.77079,-0.3451 -1.16775,-0.52394c-1.40101,-0.76071 -2.22619,-1.58438 -3.34181,-2.70024c-1.94232,-0.64736 -3.2481,-0.71284 -5.27454,-0.68513c-0.58035,0.00504 -1.16096,0.01008 -1.75895,0.01763c-0.44258,0.00755 -0.88513,0.01512 -1.34131,0.02267c-0.99144,1.82368 -1.56624,3.47859 -1.97783,5.51133c-0.11209,0.54407 -0.22418,1.09068 -0.3398,1.64988c-0.16825,0.84634 -0.16825,0.84634 -0.3398,1.70529c-0.11687,0.57432 -0.234,1.1461 -0.35466,1.73804c-0.28766,1.40807 -0.57178,2.81864 -0.85315,4.22922c-2.00782,-3.01511 -2.67255,-5.13602 -2.65692,-8.78588c-0.00151,-4.12593 -0.20931,-6.88412 -3.02015,-10.11837c-0.44258,-0.42318 -0.88513,-0.84634 -1.34131,-1.28464c-3.95364,-5.07303 -4.33023,-10.92188 -4.2151,-17.1385c-0.00453,-0.71033 -0.00906,-1.41812 -0.01384,-2.15112c0.03426,-4.33501 0.33627,-6.99746 3.51687,-10.18387c3.24559,0.18892 5.52492,1.08564 8.3748,2.58185c-0.2743,-1.44079 -0.55794,-2.87657 -0.8456,-4.31485c-0.15692,-0.79849 -0.31411,-1.5995 -0.47581,-2.42568c-0.58135,-2.17632 -1.36347,-3.62469 -2.54409,-5.51384c0,-0.63979 0,-1.27707 0,-1.93451z" fill="#cbe7f7"/><path d="M115.08408,217.63632c0.42771,0.42569 0.85517,0.85391 1.29547,1.29219c-0.30631,3.81863 -2.64735,5.74559 -5.18161,8.39545c-0.52192,0.57682 -1.04383,1.15114 -1.58136,1.74559c-0.54686,0.58186 -1.09396,1.16624 -1.65717,1.76573c-0.7617,0.81863 -0.7617,0.81863 -1.53853,1.65238c-2.08311,1.58438 -3.65188,1.76573 -6.23425,1.93955c-1.01208,-1.13098 -1.01208,-1.13098 -1.94306,-2.58185c0.65767,-5.53147 7.69116,-10.25691 11.65892,-13.56421c1.78916,-0.89168 3.20452,-0.76825 5.18161,-0.64483z" fill="#95c8e9"/><path d="M170.02604,118.24862c0.64258,1.96726 0.7209,3.00503 0.04055,4.98235c-1.87001,2.91687 -3.84106,5.64483 -6.53324,7.87404c-2.23174,0.07809 -2.23174,0.07809 -3.89546,-0.64483c-0.64936,-0.64232 -0.64936,-0.64232 -0.93325,-2.24937c0.49042,-3.88412 3.15466,-7.40552 6.1272,-9.9622c2.13602,-0.70529 3.05994,-0.51386 5.1942,0z" fill="#d8eef9"/><path d="M158.95477,84.03206c0,2.84131 -0.87507,4.03022 -2.77003,6.14104c-0.56976,0.56423 -1.13929,1.13098 -1.7262,1.71284c-0.56976,0.57178 -1.13929,1.14357 -1.7262,1.733c-1.48539,1.31233 -1.48539,1.31233 -2.77003,1.31233c-0.21208,0.63475 -0.42393,1.26952 -0.64232,1.9219c-0.63603,0 -1.27178,0 -1.92694,0c0,0.42569 0,0.84887 0,1.28464c-0.42393,-0.21159 -0.84785,-0.42318 -1.28464,-0.64232c3.9806,-4.78337 8.41686,-9.10327 12.84631,-13.46346z" fill="#325878"/><path d="M143.45177,100.15545c0.21082,0.64736 0.4219,1.2947 0.6393,1.96222c-1.74659,3.35515 -4.14811,5.51888 -7.03348,7.86145c-0.4219,-0.43324 -0.84409,-0.8665 -1.27884,-1.30982c2.53224,-2.81107 5.06422,-5.61963 7.67304,-8.51383z" fill="#214a6f"/><path d="M152.5238,98.89348c0.21008,0.64232 0.42014,1.28464 0.63626,1.94457c-7.33173,8.20653 -7.33173,8.20653 -10.81787,11.65741c-0.41991,-0.21159 -0.84005,-0.42569 -1.27254,-0.64736c0.26977,-0.26701 0.53955,-0.53399 0.81763,-0.80855c3.81384,-3.82367 7.34054,-7.85137 10.6365,-12.14607z" fill="#e1f2f7"/><path d="M73.80431,160.11249c0.41561,0.21663 0.83124,0.43073 1.25944,0.65491c-0.65944,0.8665 -1.33098,1.72543 -2.0073,2.57934c-0.37255,0.4786 -0.7451,0.95718 -1.12921,1.45087c-1.47633,1.40303 -2.45794,1.6423 -4.42014,1.86397c3.87304,-4.90176 3.87304,-4.90176 6.29721,-6.5491z" fill="#466b8b"/><path d="M123.44829,120.30906c0.65013,1.97481 0.7068,2.38538 -0.16247,4.40806c-0.95114,1.57934 -1.83678,3.03778 -3.08665,4.40806c-0.42871,0 -0.85768,0 -1.29948,0c0.94886,-3.34509 2.58815,-5.95969 4.5486,-8.8161z" fill="#4b6c89"/><path d="M71.1479,171.19561c0.21159,0.64232 0.42318,1.28464 0.64107,1.94457c-0.99169,1.7481 -0.99169,1.7481 -2.40429,3.68261c-0.68942,0.96726 -0.68942,0.96726 -1.39269,1.95214c-0.65944,0.73804 -0.65944,0.73804 -1.33249,1.48866c-0.63475,0 -1.26952,0 -1.92341,0c2.11586,-2.99244 4.23173,-5.98487 6.41183,-9.06799z" fill="#def1f6"/><path d="M44.17209,202.18296c0.21814,0 0.43628,0 0.6612,0c0,1.07556 0,2.14861 0,3.25439c-0.65465,0.2141 -1.30908,0.42822 -1.98361,0.64987c-0.81008,1.95718 -0.81008,1.95718 -1.32241,3.90428c-0.65465,-0.2141 -1.30931,-0.42822 -1.98387,-0.64987c1.16473,-2.60452 2.81788,-4.94709 4.62871,-7.15867z" fill="#436583"/><path d="M108.79391,144.74478c0.42469,0.86397 0.84962,1.72796 1.28741,2.61964c-1.27456,1.29723 -2.5491,2.59446 -3.86245,3.92946c-0.63703,-0.21663 -1.27431,-0.43324 -1.93098,-0.65491c1.4869,-1.94457 2.97405,-3.88916 4.50603,-5.89419z" fill="#375b79"/><path d="M162.85903,88.56605c0.20781,0.64483 0.41587,1.28715 0.62973,1.95214c-2.07807,1.93198 -4.15617,3.86396 -6.29721,5.8564c-0.41561,-0.2141 -0.83124,-0.43073 -1.25944,-0.6524c2.28588,-2.3602 4.57204,-4.72292 6.92695,-7.15617z" fill="#e5f8fe"/><path d="M115.74956,144.74478c0.20781,0.42065 0.41561,0.84383 0.62973,1.2796c-1.11662,2.68514 -2.55064,4.82114 -4.40829,7.03274c-0.62318,-0.21159 -1.2466,-0.42318 -1.88892,-0.63979c0.45542,-0.58941 0.45542,-0.58941 0.9199,-1.19144c0.39773,-0.51637 0.79548,-1.03275 1.20528,-1.56675c0.39445,-0.51133 0.78916,-1.02267 1.19545,-1.54912c0.82142,-1.09319 1.59597,-2.22166 2.34685,-3.36523z" fill="#d7ebf2"/><path d="M83.58515,280.37168c0.43022,0.63475 0.86069,1.26952 1.30378,1.9219c-3.65741,-0.20906 -7.31485,-0.42065 -11.08309,-0.63979c0,-0.21159 0,-0.42318 0,-0.63979c1.01863,-0.11084 2.03727,-0.21663 3.05615,-0.32243c0.56725,-0.05793 1.13451,-0.11838 1.71888,-0.17884c3.49998,-0.28211 3.49998,-0.28211 5.00428,-0.14105z" fill="#66849e"/><path d="M53.25474,188.07464c0.48564,1.04281 0.48564,1.04281 0.64762,2.56422c-2.03123,3.66498 -2.03123,3.66498 -4.53399,4.48866c0.93955,-2.63476 2.27431,-4.76574 3.8864,-7.05288z" fill="#4d6f8a"/><path d="M170.03935,77.68697c-1.76422,1.94961 -3.21788,3.09067 -5.77051,3.82367c-0.42318,-0.20906 -0.84634,-0.42065 -1.28237,-0.63728c3.93854,-3.63978 3.93854,-3.63978 7.05288,-3.18638z" fill="#456687"/><path d="M37.63537,211.25345c0.21384,0.42318 0.42746,0.84887 0.64785,1.28715c-0.76928,1.96977 -0.76928,1.96977 -1.94332,3.86145c-1.41687,0.56423 -1.41687,0.56423 -2.59068,0.64483c0.9889,-2.21158 2.33124,-3.93954 3.88614,-5.79344z" fill="#476b85"/><path d="M126.70823,126.60628c0.41561,0.42318 0.83124,0.84634 1.25944,1.28211c-1.24685,1.90427 -2.49371,3.80857 -3.77858,5.77077c-0.41535,-0.21159 -0.83124,-0.42318 -1.25944,-0.64232c1.24711,-2.11586 2.49394,-4.23173 3.77858,-6.41056z" fill="#def0f5"/><path d="M127.42839,115.01687c0.42746,0.21914 0.85491,0.43828 1.29547,0.66246c-0.8325,1.89419 -1.66548,3.28967 -3.23853,4.6272c-0.42746,0 -0.85517,0 -1.29547,0c0.768,-2.23174 1.47405,-3.73299 3.23853,-5.28966z" fill="#3f607f"/><path d="M143.46111,100.15292c0.20781,0.63728 0.41561,1.27456 0.62973,1.93198c-0.62342,0.21159 -1.24685,0.42569 -1.88918,0.64483c-0.46171,1.29723 -0.46171,1.29723 -0.62973,2.5743c-0.83124,0.21159 -1.66246,0.42569 -2.51889,0.64232c1.23626,-2.27455 2.54457,-4.01763 4.40806,-5.79344z" fill="#53748f"/><path d="M235.79314,115.01687c2.01511,0.66246 2.01511,0.66246 3.19043,2.27455c0.41561,0.83879 0.41561,0.83879 0.83979,1.69268c-0.22167,0.43828 -0.44332,0.87405 -0.6718,1.32241c-1.67935,-1.15618 -1.67935,-1.15618 -3.35842,-2.64484c0,-0.87154 0,-1.74559 0,-2.64484z" fill="#446783"/><path d="M148.75151,101.4149c0.62342,0.21159 1.24685,0.42318 1.88918,0.64232c-1.45466,1.70025 -2.90932,3.39797 -4.40829,5.15111c-0.20781,-0.63728 -0.41535,-1.27456 -0.62973,-1.93198c0.88464,-1.45844 2.01309,-2.58942 3.14885,-3.86145z" fill="#264e6f"/><path d="M217.14935,97.63404c2.18111,0.90429 3.22947,1.92947 4.53425,3.88663c-0.6413,0.2141 -1.28262,0.42822 -1.94332,0.64736c-2.59093,-3.07557 -2.59093,-3.07557 -2.59093,-4.53399z" fill="#345978"/><path d="M29.84374,220.82774c0.39366,1.25944 0.39366,1.25944 0.62966,2.68514c-0.41561,0.44332 -0.83124,0.88664 -1.25949,1.34508c-1.33813,-0.25189 -1.33813,-0.25189 -2.51891,-0.67254c1.03912,-1.10831 2.07812,-2.21662 3.14873,-3.35768z" fill="#466a87"/><path d="M67.38014,166.66161c0.62342,0 1.24711,0 1.88941,0c-0.47254,1.26952 -0.47254,1.26952 -1.2597,2.61964c-1.33804,0.49119 -1.33804,0.49119 -2.51889,0.65491c1.18084,-2.53651 1.18084,-2.53651 1.88918,-3.27455z" fill="#315879"/><path d="M18.88504,232.41462c0,1.94206 0,1.94206 -0.62973,3.88663c-1.03912,0.2141 -2.07812,0.42822 -3.14873,0.64736c1.24688,-1.49621 2.49382,-2.99244 3.77847,-4.53399z" fill="#7090a5"/><path d="M32.48902,217.55066c0.66499,0 1.32998,0 2.01511,0c-0.50378,1.26952 -0.50378,1.26952 -1.34331,2.61964c-1.42746,0.49119 -1.42746,0.49119 -2.6869,0.65491c0.88162,-1.63729 0.88162,-1.63729 2.01511,-3.27455z" fill="#395d7a"/><path d="M106.73372,154.31905c0.60579,0.22167 1.21134,0.44332 1.83552,0.67003c-1.81713,1.66246 -1.81713,1.66246 -3.67051,3.36019c-0.20202,-0.66499 -0.40379,-1.32998 -0.61185,-2.01511c1.10882,-1.05038 1.10882,-1.05038 2.44684,-2.01511z" fill="#264f70"/><path d="M122.16769,134.41482c0.65366,1.96473 0.65366,1.96473 0.14558,3.16121c-0.70227,1.12847 -1.40428,2.25945 -2.10655,3.38789c-0.43124,0 -0.86272,0 -1.30706,0c0.87228,-2.35263 1.93475,-4.42316 3.268,-6.5491z" fill="#d4e8ef"/><path d="M149.25529,93.85571c0.20781,0.80855 0.41561,1.61459 0.62973,2.44584c-0.83124,0.20402 -1.66246,0.40553 -2.51889,0.61208c0,0.40553 0,0.80855 0,1.22419c-0.41561,-0.20151 -0.83124,-0.40302 -1.25944,-0.61208c1.03905,-1.21157 2.07807,-2.42317 3.14862,-3.67002z" fill="#597992"/><path d="M196.99651,86.04716c1.99495,1.24685 1.99495,1.24685 4.03022,2.51889c-0.22167,0.41561 -0.44332,0.83124 -0.67154,1.25944c-0.66525,0 -1.33021,0 -2.01536,0c-1.34331,-1.88918 -1.34331,-1.88918 -1.34331,-3.77833z" fill="#c0ddef"/></g></g></svg>