<svg version="1.1" xmlns="http://www.w3.org/2000/svg" xmlns:xlink="http://www.w3.org/1999/xlink" width="76.22194" height="56.56194" viewBox="0,0,76.22194,56.56194"><defs><linearGradient x1="266.74288" y1="187.66969" x2="266.74288" y2="191.70635" gradientUnits="userSpaceOnUse" id="color-1"><stop offset="0" stop-color="#f18c55"/><stop offset="0.5" stop-color="#f67b28"/><stop offset="1" stop-color="#e56b17"/></linearGradient></defs><g transform="translate(-201.87211,-151.74228)"><g fill-rule="evenodd" stroke-width="0.4" stroke-miterlimit="8"><path d="M254.22663,151.94228c0.28913,0.09183 0.67069,0.32293 1.1562,0.71651c0.83246,0.60146 1.80368,1.20191 2.21996,1.34118c0.41618,0.18468 1.43412,1.29476 2.26567,2.54309c1.48044,2.12732 1.98906,3.69959 2.59052,7.76854c0.18468,1.06366 0.83256,2.40484 1.52586,3.14455c1.01724,1.11008 1.43402,1.24934 2.68236,1.01824c1.20292,-0.23211 1.75695,-0.04642 2.7752,0.92439c0.6933,0.64788 1.52586,1.1565 1.8498,1.1565c0.32394,0 0.60146,0.2311 0.60146,0.55403c0,0.27752 0.41578,0.97182 0.87797,1.48044c0.9254,1.01724 2.35841,5.27187 2.35841,7.02882c0,1.43402 -1.34118,5.31829 -2.12732,6.24269c-1.15549,1.29476 -0.78614,2.22016 1.20292,2.72878c1.06366,0.27752 2.35842,0.36935 2.91346,0.18468c1.01724,-0.27752 1.01724,-0.27752 0.09284,0.4622c-0.50862,0.37036 -1.24935,0.73972 -1.6187,0.73972c-0.37036,0 -1.8498,0.41679 -3.2374,0.9254c-1.3876,0.50862 -2.59052,0.92439 -2.68236,0.92439c-0.04642,0 -0.73972,1.29476 -1.48044,2.86703c-0.73972,1.6187 -2.21915,3.79244 -3.32923,4.85609c-1.94264,1.89622 -6.10443,4.30004 -7.39979,4.30004c-0.36996,0 -0.83246,0.13927 -1.01744,0.32394c-0.97122,1.01724 -5.91965,1.57228 -14.6142,1.75695c-5.31839,0.09284 -8.64823,0 -7.63079,-0.18468c1.75736,-0.36935 1.71114,-0.36935 -0.97122,-0.4622c-2.0811,-0.04642 -3.006,0.13826 -3.46849,0.6933c-0.83246,1.01724 -3.09854,2.08089 -4.48604,2.12732c-1.98866,0.04642 -5.64213,-1.80338 -5.64213,-2.86703c0,-0.60146 -0.41628,-0.97081 -1.24874,-1.15549c-3.28352,-0.6943 -4.06975,-1.01825 -4.20852,-1.71154c-0.13876,-0.64687 0.32374,-0.73972 3.4686,-0.50862c3.0061,0.2311 3.74601,0.13927 4.25473,-0.50862c0.55494,-0.64788 0.50872,-0.87898 -0.13876,-1.57228c-0.41618,-0.4622 -0.73992,-1.01724 -0.73992,-1.20191c0,-0.18569 -0.41628,-0.87898 -0.9249,-1.52686c-0.50882,-0.64687 -0.925,-1.57228 -0.925,-2.0809c0,-1.61769 -1.20242,-1.57228 -6.24339,0.32394c-0.73992,0.32394 -0.83246,0.27752 -0.32374,-0.27752c0.27752,-0.32394 0.55494,-0.97082 0.55494,-1.43301c0,-0.50862 0.32374,-0.83256 0.925,-0.83256c0.50872,0 0.9249,-0.18467 0.9249,-0.41678c0,-0.36935 -1.8499,0 -8.09329,1.71154l-3.2373,0.87898l-0.50872,-1.66512c-0.32374,-0.9254 -0.64738,-2.45126 -0.78624,-3.42207l-0.27742,-1.71154l2.86734,-0.09183c1.57238,-0.04642 3.83856,-0.04642 5.08719,0c1.80368,0.09183 2.17364,0 2.17364,-0.6943c0,-0.50862 -0.60126,-1.10907 -1.43372,-1.47943c-0.78614,-0.32394 -2.35862,-1.15549 -3.46849,-1.75695c-1.94244,-1.11008 -1.98866,-1.1565 -1.29496,-2.22016c0.41628,-0.60045 1.1562,-1.15549 1.71114,-1.24833c0.6937,-0.09284 1.06376,-0.50862 1.1562,-1.34118c0.09254,-0.6933 0.55494,-1.6187 1.10998,-2.0809c0.9249,-0.87797 0.97112,-0.83256 2.63604,1.1565c2.12742,2.58951 5.31849,6.01159 4.90221,5.22545c-0.13866,-0.27752 -0.04622,-0.55504 0.2313,-0.55504c0.27742,0 0.41618,-1.01724 0.2312,-2.86703c-0.13876,-2.0809 -0.04622,-2.72878 0.27752,-2.22016c0.32374,0.46321 0.36996,-0.32293 0.18498,-2.63594l-0.32374,-3.28281l1.89612,-2.0809c1.06366,-1.11008 1.89612,-2.45126 1.89612,-2.95988c0,-0.50862 0.32374,-1.20191 0.6937,-1.52585c0.37006,-0.32394 0.6938,-0.83256 0.6938,-1.11008c0,-0.32293 0.6937,-1.20191 1.47984,-1.98805c1.6187,-1.52586 3.93109,-2.91346 3.42238,-2.03447c-0.4625,0.73972 0.64738,0.64687 1.52616,-0.13926c0.41618,-0.32394 1.20242,-0.78614 1.75736,-0.92439c1.01744,-0.32394 1.01744,-0.32394 0.32374,1.38659c-0.36996,0.9254 -0.60126,2.17374 -0.4625,2.7752c0.13876,0.55504 0.09254,1.20191 -0.18498,1.34118c-0.6937,0.41578 -0.55494,1.47943 0.18498,1.75695c0.37006,0.13826 1.52616,-0.13825 2.5436,-0.64788c1.01744,-0.4622 2.17364,-0.87797 2.5436,-0.87797c0.37006,0 0.83246,-0.2311 0.97122,-0.4622c0.13876,-0.27752 0.73992,-0.46321 1.34118,-0.46321c0.55494,0 1.24874,-0.2311 1.57248,-0.55504c0.64738,-0.64687 9.85065,-0.83155 12.81042,-0.2311l1.8499,0.37036l-1.6186,-1.06366c-0.87878,-0.55504 -3.6998,-2.0809 -6.19717,-3.37565c-2.5436,-1.24833 -4.67101,-2.54309 -4.76345,-2.7752c-0.32374,-0.97081 1.89612,-1.43301 4.53226,-0.87797c3.56104,0.6933 6.65957,2.49667 10.03563,5.82691c2.86693,2.82061 3.33014,2.91245 2.35831,0.50862c-1.3871,-3.33024 -1.84959,-4.20821 -2.49707,-4.76325c-0.36996,-0.32394 -0.6937,-0.78614 -0.6937,-1.06366c0,-0.27752 -0.64748,-1.1565 -1.43362,-1.98805c-0.78624,-0.83256 -1.29496,-1.71154 -1.10998,-2.03548c0.11565,-0.16147 0.31213,-0.20789 0.60116,-0.11504zM229.76189,161.7685c-0.925,0 -2.26618,2.82061 -2.26618,4.80967c0,2.21915 0.27752,2.49667 1.47994,1.52585c0.50872,-0.37036 0.78624,-1.52586 0.925,-3.46849c0.09244,-1.57228 0.04622,-2.86703 -0.13876,-2.86703zM225.87711,163.1561c-0.41628,0 -2.21986,2.49667 -2.7749,3.79143c-0.9249,2.313 -0.87868,4.30105 0.2313,7.58386l0.9249,2.72878l-1.1562,-1.29476c-0.64748,-0.6933 -1.29496,-2.12732 -1.43362,-3.14455c-0.36996,-2.31199 -0.87868,-2.58952 -1.80368,-1.1565c-1.20242,1.80338 -0.09244,5.54939 2.45116,8.23175c1.6186,1.75695 0.6937,1.6187 -1.10998,-0.13926c-1.94234,-1.89521 -2.68236,-1.43301 -2.40484,1.48044c0.27742,2.68236 0.78614,3.37565 3.74601,4.85509c1.24864,0.64788 2.17364,1.24833 2.0811,1.3876c-0.27742,0.27752 -4.06975,-1.06366 -4.85589,-1.75695c-0.32374,-0.27752 -0.6938,-0.41678 -0.78624,-0.32394c-0.41628,0.55504 0.6937,7.9078 1.47994,9.7576c2.12732,4.85509 7.53825,8.27716 14.66032,9.20155c5.08719,0.64788 14.98416,0.27752 19.14646,-0.73972c4.1625,-1.01724 8.46355,-3.18997 10.17408,-5.08618c1.6187,-1.8498 3.46849,-5.27187 3.09914,-5.64223c-0.2311,-0.2311 -4.48674,0.46321 -6.93699,1.11008c-0.78614,0.2311 -0.83256,0.04642 -0.60146,-1.29476c0.13826,-0.87898 0.41578,-2.0809 0.60146,-2.72878c0.32293,-1.10907 0.27752,-1.10907 -0.55504,-0.41577c-6.70619,5.73407 -15.49318,0 -15.58562,-10.17338c-0.04632,-3.05171 0.09244,-3.83785 1.24864,-5.96517c1.47994,-2.63593 3.2373,-4.16179 7.35337,-6.38195l2.72858,-1.43301l-2.35862,-0.78614c-1.43362,-0.46321 -3.83855,-0.74073 -6.52091,-0.74073c-3.46849,0 -4.99465,0.2311 -8.55569,1.43402c-5.27227,1.75695 -10.12817,4.43931 -10.31325,5.78049c-0.13866,0.97081 0.78624,2.31199 5.04097,7.35277c1.47994,1.66411 2.72858,3.60675 2.86734,4.30004l0.2313,1.24935l-1.01744,-1.3876c-0.50872,-0.73972 -2.40494,-2.86704 -4.11608,-4.71683c-4.16219,-4.43931 -5.17963,-6.70589 -5.17963,-11.3763c0,-1.94163 0,-3.56033 0,-3.56033zM253.2093,169.62989c-1.71124,0 -2.40494,0.27752 -3.79234,1.47943c-2.45106,2.12732 -3.42228,4.57858 -3.42228,8.50927c0,2.58951 0.2312,3.74601 1.20242,5.64122c1.71114,3.46849 3.83856,4.94894 7.07585,4.94894c3.05232,0 4.99506,-1.20292 6.38165,-3.88528c0.46321,-0.92439 0.87898,-1.75695 0.9254,-1.80337c0.04642,-0.09183 0.64788,0.2311 1.3876,0.73972c1.75695,1.20292 6.47479,2.26658 7.44561,1.66512c0.4622,-0.27752 1.29476,-1.47943 1.89622,-2.68236c1.57228,-3.14455 1.52586,-6.7513 -0.09284,-10.03411c-2.63593,-5.36471 -7.72313,-6.10443 -10.49732,-1.57228l-1.06467,1.66411l-1.34118,-1.6187c-0.73972,-0.92439 -1.98815,-1.98805 -2.68185,-2.35841c-0.73992,-0.36935 -2.26608,-0.6933 -3.42227,-0.6933zM263.38338,187.66465c-0.36935,0 -0.73972,0.73972 -0.73972,1.52585c0,0.78614 0.09284,0.83256 0.73972,0.27752c0.9254,-0.73972 1.94264,-0.92439 2.313,-0.36935c0.13826,0.2311 0.6933,0.41578 1.24834,0.41578c0.97081,0.04642 0.97081,0.04642 0.13825,0.55504c-0.50862,0.27752 -1.80337,0.50862 -2.91345,0.4622c-1.43301,0 -1.98805,0.18569 -1.98805,0.64788c0,0.83256 0.32394,0.83256 5.54939,-0.4622c2.40484,-0.60146 4.06995,-1.20292 3.69959,-1.34118c-0.36935,-0.13927 -2.31199,-0.60146 -4.34748,-0.97182c-1.98805,-0.41578 -3.65317,-0.73972 -3.69959,-0.73972zM224.9175,202.67091c-0.94811,-0.04642 -1.93083,0.11504 -2.60142,0.48541c-1.6187,0.9254 -1.6187,1.20192 0.09244,2.45126c1.52616,1.15549 2.5436,1.24833 4.30105,0.41577c1.34108,-0.60146 1.6186,-1.75695 0.60116,-2.58951c-0.53183,-0.4622 -1.44522,-0.71651 -2.39323,-0.76293z" fill="#000000" stroke="#000000"/><path d="M268.19709,176.76568c0.40266,0.1211 0.72458,0.47834 0.81641,1.00916c0.09183,0.5066 0.36834,1.33714 0.59843,1.84475c0.59843,1.19889 -0.18367,3.4584 -1.15045,3.4584c-1.56521,0 -2.80749,-4.6583 -1.56521,-5.9026c0.41477,-0.41578 0.89815,-0.53082 1.30081,-0.40972z" fill="#000000" stroke="#2f528f"/><path d="M257.55495,177.87778c0.71096,-0.19881 1.38911,0.23816 1.25388,1.06063c-0.09082,0.41073 0.13523,1.09696 0.45211,1.50769c0.85981,1.00513 0.09082,3.24446 -1.08586,3.42712c-1.71982,0.27348 -2.71546,-4.11234 -1.31242,-5.57462c0.21495,-0.21697 0.45533,-0.35422 0.69229,-0.42082z" fill="#000000" stroke="#2f528f"/><path d="M229.76844,161.78465c0.19043,0 0.23806,1.29375 0.1429,2.86502c-0.1429,1.94163 -0.42849,3.09712 -0.95205,3.46648c-1.23774,0.97081 -1.52333,0.6933 -1.52333,-1.52485c0,-1.98704 1.38054,-4.80665 2.33248,-4.80665z" fill="#71e4ff" stroke="#71e4ff"/><path d="M225.80233,163.19748c0,0 0,1.62072 0,3.56538c0,4.67646 1.01946,6.94506 5.18982,11.39043c1.71457,1.85182 3.61442,3.98216 4.12405,4.72288l1.01946,1.38861l-0.2316,-1.25035c-0.13906,-0.6943 -1.39022,-2.63896 -2.87299,-4.3061c-4.26311,-5.04683 -5.18983,-6.38902 -5.05086,-7.36185c0.18538,-1.34219 5.05086,-4.02858 10.33333,-5.78755c3.5681,-1.20393 5.09718,-1.43503 8.57254,-1.43503c2.6876,0 5.09718,0.27752 6.53363,0.74073l2.36326,0.78715l-2.73392,1.43503c-4.12405,2.22218 -5.88494,3.75005 -7.3677,6.39002c-1.15842,2.12933 -1.29748,2.91648 -1.25116,5.97223c0.09274,10.1865 8.89689,15.92864 15.6159,10.1865c0.83458,-0.6943 0.87999,-0.6943 0.55605,0.41679c-0.18569,0.64889 -0.46321,1.85282 -0.60247,2.7318c-0.2311,1.3432 -0.18569,1.52787 0.60247,1.29678c2.4563,-0.64788 6.71901,-1.3432 6.95112,-1.11109c0.37036,0.37036 -1.48347,3.79647 -3.1052,5.64829c-1.71457,1.89925 -6.0237,4.075 -10.19417,5.09325c-4.17047,1.01925 -14.08681,1.38962 -19.18399,0.74073c-7.136,-0.9254 -12.55753,-4.35151 -14.68908,-9.21366c-0.78775,-1.85182 -1.89985,-9.21366 -1.48276,-9.76971c0.09264,-0.09284 0.4633,0.04642 0.78775,0.32394c0.78775,0.6943 4.58736,2.0375 4.86548,1.75998c0.09264,-0.13927 -0.83418,-0.74073 -2.08524,-1.38962c-2.96563,-1.48145 -3.47536,-2.17576 -3.75338,-4.86114c-0.27802,-2.91749 0.46341,-3.3807 2.40958,-1.48246c1.80721,1.75998 2.73393,1.89925 1.1121,0.13927c-2.54854,-2.68538 -3.66074,-6.43544 -2.4559,-8.24184c0.92671,-1.43503 1.43645,-1.15751 1.80711,1.15751c0.13906,1.01925 0.78775,2.45428 1.43654,3.14859l1.15842,1.29678l-0.92671,-2.73181c-1.1122,-3.28785 -1.15852,-5.27894 -0.2317,-7.59396c0.55605,-1.29577 2.36326,-3.79647 2.78025,-3.79647z" fill="#71e4ff" stroke="#71e4ff"/><path d="M253.21485,169.65612c1.15549,0 2.68074,0.32394 3.42026,0.6943c0.6933,0.36935 1.94163,1.43402 2.68034,2.35942l1.34118,1.6187l1.06265,-1.66512c2.77318,-4.53417 7.85735,-3.79345 10.49227,1.57228c1.61769,3.28483 1.6631,6.8936 0.09184,10.03916c-0.60045,1.20292 -1.43301,2.40585 -1.89521,2.68337c-0.96981,0.60146 -5.68462,-0.4622 -7.44056,-1.66512c-0.73972,-0.50862 -1.34118,-0.83256 -1.38659,-0.74073c-0.04642,0.04642 -0.4622,0.87898 -0.92439,1.80438c-1.38659,2.68337 -3.32822,3.88629 -6.37872,3.88629c-3.23538,0 -5.36148,-1.48044 -7.07161,-4.94995c-0.97061,-1.89723 -1.20171,-3.05373 -1.20171,-5.64425c0,-3.93271 0.97061,-6.38397 3.42026,-8.51229c1.38659,-1.20292 2.07989,-1.48044 3.79002,-1.48044zM268.18195,176.74045c-0.40467,-0.12211 -0.89008,-0.00606 -1.30586,0.41073c-1.24833,1.24833 0,5.92177 1.57127,5.92177c0.97081,0 1.75594,-2.26759 1.15549,-3.47051c-0.2311,-0.50862 -0.50862,-1.34118 -0.60045,-1.8498c-0.09284,-0.53284 -0.41679,-0.89109 -0.82045,-1.01219zM257.5605,177.83439c-0.2419,0.06761 -0.48743,0.20587 -0.70702,0.42587c-1.43281,1.48044 -0.41598,5.92177 1.34078,5.64425c1.2009,-0.18569 1.98704,-2.45227 1.10907,-3.4695c-0.32394,-0.41679 -0.55504,-1.11109 -0.4622,-1.52686c0.13826,-0.83256 -0.55504,-1.27558 -1.28063,-1.07375z" fill="#ffffff" stroke="#000000"/><path d="M263.30063,187.66969c0.04642,0 1.70851,0.3199 3.69354,0.73063c2.03145,0.36431 3.97005,0.82146 4.3394,0.9577c0.36935,0.13725 -1.29274,0.73063 -3.69354,1.32402c-5.21637,1.2776 -5.5393,1.2776 -5.5393,0.45614c0,-0.45614 0.55403,-0.6388 1.98502,-0.6388c1.10806,0.04541 2.4008,-0.18266 2.90841,-0.45715c0.83054,-0.50155 0.83054,-0.50155 -0.13826,-0.54697c-0.55403,0 -1.10806,-0.18266 -1.24632,-0.41073c-0.36935,-0.54798 -1.38558,-0.36532 -2.30897,0.36532c-0.64587,0.54697 -0.73871,0.50155 -0.73871,-0.27449c0,-0.77504 0.36935,-1.50567 0.73871,-1.50567z" fill="url(#color-1)" stroke="#ed7d31"/></g></g></svg>