<svg version="1.1" xmlns="http://www.w3.org/2000/svg" xmlns:xlink="http://www.w3.org/1999/xlink" width="77.02972" height="50.54702" viewBox="0,0,77.02972,50.54702"><g transform="translate(-201.75431,-154.72226)"><g fill-rule="evenodd" stroke-width="0.4"><path d="M255.78658,154.93c1.30989,-0.09991 3.60978,0.77605 5.41416,2.19897c1.61971,1.24934 3.19299,4.67344 3.19299,6.94103c0,2.22117 1.85081,4.67344 3.47051,4.67344c3.194,0 7.63634,4.02656 7.63634,6.89561c0,0.50862 0.2311,1.06366 0.4622,1.20292c1.20393,0.73972 -0.13826,7.91285 -1.80438,9.67081c-1.57329,1.66613 -1.24934,2.40685 1.48044,3.14657l2.40685,0.74073l-2.17475,0.55504c-1.24934,0.32394 -2.22117,0.74073 -2.22117,0.9254c0,0.18569 -0.46321,0.23211 -1.06467,0.13927c-1.24934,-0.2311 -3.56336,1.71154 -3.56336,3.00731c0,1.15751 -3.74904,5.36774 -6.06204,6.80277c-0.9254,0.60146 -3.00832,1.57329 -4.62802,2.12833c-2.7308,0.97182 -3.79445,1.06467 -12.91124,1.11109c-7.68175,0.04642 -10.08861,-0.09284 -10.55081,-0.55605c-0.32394,-0.32394 -1.20393,-0.60146 -1.89824,-0.60146c-0.6933,0 -1.48044,-0.2311 -1.75796,-0.50862c-0.41679,-0.41679 -1.11109,-0.27752 -2.77722,0.50862c-3.51693,1.71255 -9.8565,1.43503 -9.8565,-0.41578c0,-0.78715 0.32394,-0.83357 4.16482,-0.60146c3.93372,0.2311 4.16482,0.18468 4.16482,-0.6943c0,-1.61971 -2.22117,-2.17475 -5.0438,-1.24935c-3.19299,1.01724 -8.14496,0.4622 -8.14496,-0.9254c0,-0.78715 0.32394,-0.87999 4.1184,-0.78715c2.77722,0.09284 4.21124,-0.09284 4.44234,-0.41679c0.18569,-0.32394 0.01817,-0.32394 -0.95366,-1.80438l-1.22311,0.29568l-2.85593,-0.13926c-0.70742,-0.02422 -0.60449,-0.71045 -0.52275,-1.04549c-0.52577,-0.07367 -1.48751,0.68623 -2.62887,0.59944c-1.14237,-0.08578 -3.70969,-0.33201 -4.22335,-1.11916c-0.51467,-0.78816 2.04558,-2.29383 0.79219,-1.95778c-2.31401,1.80539 -4.19913,3.15263 -4.75417,1.7186c-0.23211,-0.60247 -0.94861,-0.9032 -1.22613,-1.04146c-0.23211,-0.18569 -1.04751,-1.27256 -1.41788,-2.0597c-0.64788,-1.24934 -2.02539,-0.8144 -0.86183,-1.66512c1.16458,-0.85173 7.84423,-3.16474 7.84423,-3.44226c0,-0.2311 0.55504,-0.37036 1.20292,-0.37036c2.12833,0 0.6943,-0.83256 -1.99007,-1.11008c-4.30408,-0.50862 -4.34949,-0.55504 -3.56336,-2.08291c0.37036,-0.73972 1.01824,-1.48044 1.38861,-1.6187c0.4622,-0.18569 0.64788,-0.64788 0.50862,-1.20393c-0.13826,-0.50862 -0.04642,-1.66512 0.18569,-2.59052l0.4622,-1.61971l1.71255,1.01825c0.9254,0.60146 2.12833,1.29476 2.63795,1.52686c0.4622,0.27752 1.89723,1.20292 3.14657,2.03548c2.54511,1.71255 3.37868,1.66613 3.84088,-0.2311c1.15751,-5.13664 6.06204,-10.59722 12.44904,-13.78921c2.26759,-1.15751 4.39592,-2.08291 4.71986,-2.08291c0.32394,0 0.97182,-0.18468 1.43503,-0.41679c1.34118,-0.64788 4.02555,-1.43402 5.09022,-1.43402c0.55504,0 1.20292,-0.37036 1.43402,-0.87898c0.74073,-1.34219 3.70262,-2.54511 7.0813,-2.82263c1.66512,-0.13927 2.96089,-0.09284 2.86905,0.04642c-0.09284,0.18468 0.73972,0.64687 1.89723,1.06366c1.11008,0.46321 2.68337,1.43503 3.42409,2.22117c0.78715,0.83256 1.52787,1.34219 1.66613,1.20292c0.87898,-0.87898 -3.79446,-7.31139 -5.32132,-7.31139c-1.06467,0 -1.99007,-0.73972 -1.66613,-1.34118c0.16147,-0.26642 0.48844,-0.4077 0.9254,-0.44101zM248.42877,164.11641c-9.99677,0 -21.24188,5.32132 -25.4067,11.98483c-1.38861,2.26759 -2.68438,5.59884 -2.17475,5.59884c0.27752,0 0.60146,-0.18468 0.74073,-0.4622c0.6933,-1.1565 5.78453,-1.80438 9.3943,-1.1565c2.59153,0.41578 2.54511,1.29577 0,1.06366c-4.21124,-0.4622 -7.21956,0.41679 -11.80116,3.42409c-5.69168,3.74904 -5.64627,3.6562 -3.6562,5.7381l1.08182,1.26852l3.11731,1.17063l0.10495,-0.12514c0.46321,-0.2311 1.1565,-0.04642 2.08291,0.64788c2.22117,1.66613 3.97913,1.66613 6.52424,0.04642l2.22218,-1.43503l-1.01824,1.38861c-1.29577,1.71255 -3.79546,2.91547 -5.55343,2.68337c-0.74073,-0.13826 -1.34219,-0.04541 -1.34219,0.09284c0,0.64788 4.07198,4.11839 5.92379,5.0438c1.01724,0.50963 3.56336,1.43503 5.69168,1.99007c3.33226,0.87898 4.99839,1.06467 11.29153,1.01824c6.15489,-0.04642 8.0057,-0.18569 11.10685,-1.06467c4.1184,-1.1565 6.80277,-2.54511 8.60716,-4.53518c1.29577,-1.34118 3.28584,-4.81169 3.00832,-5.13563c-0.09284,-0.09284 -1.80539,0.04541 -3.74904,0.32394c-1.94264,0.27752 -3.74803,0.41577 -3.97913,0.2311c-0.2311,-0.13927 -0.09284,-0.97182 0.27752,-1.89723c1.06467,-2.49869 0.9254,-3.28584 -0.32394,-2.08291c-3.47051,3.19299 -8.97752,2.22117 -12.17051,-2.17475c-3.74904,-5.18205 -3.28584,-13.28059 0.97182,-17.2133c0.73972,-0.6943 2.72979,-1.94365 4.48876,-2.77621c1.71154,-0.83357 3.10015,-1.66613 3.10015,-1.85182c0,-0.78614 -4.90554,-1.80438 -8.56073,-1.80438zM255.46264,169.66985c-3.10116,-0.00101 -5.18306,1.24934 -6.80277,4.16381c-1.57329,2.86905 -1.66613,8.56073 -0.13927,11.38336c2.12933,3.93372 5.83095,5.92379 9.1632,4.8127c1.48044,-0.50862 4.48876,-3.33125 4.95197,-4.67344c0.18468,-0.50862 0.41577,-0.46321 1.20292,0.2311c0.55504,0.46321 2.36043,1.24935 4.02555,1.71255c3.60978,0.97182 4.21124,0.78614 5.87737,-2.08291c0.87999,-1.57329 1.06467,-2.54511 1.01825,-5.59884c-0.04642,-4.16482 -0.6943,-5.87636 -2.9619,-7.77359c-2.77621,-2.36043 -6.38599,-1.94365 -8.19037,0.97183c-0.41679,0.6933 -0.83357,1.34118 -0.87999,1.43402c-0.09183,0.09284 -1.1565,-0.9254 -2.45227,-2.22117c-2.22117,-2.26759 -2.40685,-2.36043 -4.8127,-2.35942zM264.20906,188.29497c-0.24321,0.05752 -0.39358,0.18468 -0.46321,0.39256c-0.09183,0.37036 -0.41577,1.34219 -0.6943,2.22117c-0.41578,1.20393 -0.36935,1.48145 0.09284,1.29577c0.37036,-0.13826 2.03649,-0.37036 3.74803,-0.55504c1.71255,-0.18468 3.4251,-0.64788 3.79546,-1.01824c0.32394,-0.37036 0.64788,-0.4622 0.64788,-0.2311c0,0.27752 0.41577,0.37036 0.9254,0.2311c1.38861,-0.37036 0.87898,-0.64788 -2.63795,-1.3876l-4.39592,-0.9254c-0.43999,-0.06963 -0.77504,-0.08174 -1.01824,-0.02321z" fill="#000000" stroke="#000000" stroke-miterlimit="8"/><path d="M269.45469,176.61894c0.4511,0 1.3543,1.19687 1.26448,1.65806c-0.04541,0.23009 0.04541,0.78311 0.22605,1.19687c0.85779,2.0264 -0.76797,4.37472 -2.16768,3.17786c-0.85779,-0.73669 -0.99403,-4.65124 -0.18064,-5.47976c0.31587,-0.32293 0.67715,-0.55302 0.85779,-0.55302z" fill="#000000" stroke="#2f528f" stroke-miterlimit="8"/><path d="M259.23287,177.52719c0.96476,0 2.11319,3.54721 1.65402,4.97518c-0.41376,1.33613 -1.74686,1.70448 -2.43511,0.7377c-0.59743,-0.82953 -0.82751,-4.88334 -0.27651,-5.38994c0.13826,-0.18468 0.64385,-0.32293 1.0576,-0.32293z" fill="#000000" stroke="#2f528f" stroke-miterlimit="8"/><path d="M265.37666,189.48578c0.90017,0 1.80035,0.18367 1.94264,0.46018c0.14229,0.23009 0.09486,0.46018 -0.14229,0.46018c-0.23715,0 -1.13733,0.13725 -1.94264,0.2755c-1.13632,0.23009 -1.46833,0.13825 -1.46833,-0.46018c0,-0.55201 0.42688,-0.73568 1.61062,-0.73568z" fill="#000000" stroke="none" stroke-miterlimit="10"/><path d="M248.40152,164.10531c3.65317,0 8.55468,1.01724 8.55468,1.80338c0,0.18468 -1.38659,1.01724 -3.09813,1.8498c-1.75695,0.83256 -3.74501,2.0809 -4.48472,2.7752c-4.25463,3.93069 -4.71683,12.02317 -0.97182,17.20321c3.19098,4.39289 8.69394,5.36471 12.16143,2.17374c1.24833,-1.20292 1.3876,-0.41679 0.32394,2.0809c-0.37036,0.9254 -0.50862,1.75695 -0.27752,1.89622c0.2311,0.18468 2.03447,0.04642 3.97711,-0.2311c1.94163,-0.27752 3.65216,-0.41679 3.74501,-0.32394c0.27752,0.32394 -1.71053,3.79244 -3.00529,5.13361c-1.80338,1.98805 -4.48573,3.37565 -8.6011,4.53215c-3.09813,0.87797 -4.94793,1.01724 -11.09777,1.06366c-6.2881,0.04541 -7.95322,-0.13927 -11.28245,-1.01825c-2.12732,-0.55504 -4.67041,-1.47943 -5.68764,-1.98805c-1.8498,-0.9254 -5.91874,-4.3939 -5.91874,-5.04077c0,-0.13927 0.60146,-0.2311 1.34118,-0.09284c1.75695,0.2311 4.25362,-0.97081 5.54838,-2.68236l1.01724,-1.38659c-2.32814,1.05559 -3.96399,2.80547 -6.98644,3.16776l-0.16752,-0.10495l-0.85173,0.80733c-0.63779,0.41578 -1.41384,0.56917 -2.64704,0.67715c-2.67832,0.21697 -3.10419,-0.36128 -1.36035,-1.87805c1.61567,-1.40778 1.74283,-2.13034 0.12716,-0.86586c-2.46639,1.98603 -5.90966,2.8519 -7.56873,1.91337c-1.31797,-0.72256 -1.06265,-1.11916 1.06366,-1.40778c0.9355,-0.10899 2.25346,-0.61458 2.89125,-1.12017l1.19081,-0.90219l-2.50878,0.72155c-3.01942,0.86687 -4.84701,0.9032 -6.97332,0.18064c-1.19081,-0.43293 -3.48666,-1.84172 -3.48666,-2.16667h3.27373c4.295,0 7.01671,-4.3172 9.16018,-5.60489c2.14245,-1.2887 2.78125,-1.47842 3.69757,-2.1253c8.59101,-2.8418 7.99358,-2.04154 11.47015,-2.02135c2.54309,0.2311 2.58951,-0.64788 0,-1.06366c-3.60675,-0.64788 -8.69294,0 -9.38623,1.1565c-0.13927,0.27752 -0.46321,0.4622 -0.73972,0.4622c-0.50862,0 0.78513,-3.33024 2.17273,-5.59581c4.16179,-6.65947 15.39782,-11.97776 25.38551,-11.97776z" fill="#71e4ff" stroke="#71e4ff" stroke-miterlimit="8"/><path d="M255.40612,169.65572c2.40685,0 2.59153,0.09284 4.81371,2.36245c1.29678,1.29678 2.36144,2.31603 2.45328,2.22319c0.04642,-0.09183 0.46321,-0.74073 0.87999,-1.43604c1.80539,-2.91749 5.41618,-3.33528 8.1934,-0.97283c2.26759,1.89925 2.91648,3.61381 2.9629,7.78267c0.04541,3.05777 -0.13926,4.0306 -1.01925,5.60489c-1.66613,2.87208 -2.26759,3.05777 -5.87838,2.08493c-1.66613,-0.46321 -3.47152,-1.25136 -4.02757,-1.71457c-0.78715,-0.6943 -1.01824,-0.74073 -1.20292,-0.2311c-0.46321,1.3432 -3.47253,4.16885 -4.95298,4.67848c-3.33327,1.1121 -7.0369,-0.87999 -9.16623,-4.81774c-1.52686,-2.82566 -1.43503,-8.5234 0.13926,-11.39547c1.61971,-2.9185 3.70262,-4.16885 6.80479,-4.16885zM269.45772,176.60482c-0.18569,0 -0.55605,0.2311 -0.87999,0.55504c-0.83256,0.83458 -0.6943,4.77133 0.18569,5.51306c1.43503,1.20393 3.10116,-1.15852 2.22218,-3.19602c-0.18569,-0.41779 -0.27853,-0.97283 -0.23211,-1.20494c0.09284,-0.46321 -0.83256,-1.66714 -1.29576,-1.66714zM259.23489,177.53022c-0.41679,0 -0.92641,0.13926 -1.06467,0.32394c-0.55605,0.50963 -0.32394,4.58665 0.27752,5.42022c0.6943,0.97283 2.03649,0.60247 2.45328,-0.74173c0.46321,-1.43604 -0.6943,-5.00242 -1.66613,-5.00242z" fill="#ffffff" stroke="#000000" stroke-miterlimit="8"/><path d="M264.14649,188.26166c0.2422,-0.05853 0.57724,-0.04642 1.01623,0.02321c0.6933,0.14027 2.68034,0.56109 4.38885,0.93449c3.51189,0.74678 4.0195,1.02733 2.63392,1.40072c-0.50862,0.14027 -0.92439,0.04642 -0.92439,-0.23312c0,-0.23413 -0.32293,-0.14027 -0.64687,0.23312c-0.36935,0.37339 -2.07888,0.84063 -3.7884,1.02733c-1.70952,0.1867 -3.37262,0.42082 -3.74198,0.56109c-0.4622,0.1867 -0.50862,-0.09385 -0.09184,-1.30787c0.27651,-0.88706 0.60045,-1.86796 0.69229,-2.24236c0.06963,-0.20991 0.22,-0.33807 0.4622,-0.3966zM265.42207,189.53725c-1.15448,0 -1.57026,0.1867 -1.57026,0.74678c0,0.60752 0.32293,0.70137 1.432,0.46724c0.78513,-0.14027 1.6631,-0.28055 1.8942,-0.28055c0.2311,0 0.27752,-0.23312 0.13826,-0.46623c-0.13826,-0.28055 -1.01623,-0.46724 -1.8942,-0.46724z" fill="#ed7d31" stroke="#ae5a21" stroke-miterlimit="8"/></g></g></svg>