<svg version="1.1" xmlns="http://www.w3.org/2000/svg" xmlns:xlink="http://www.w3.org/1999/xlink" width="503.69951" height="96.48833" viewBox="0,0,503.69951,96.48833"><g transform="translate(11.84976,38.30595)"><g fill-rule="evenodd" stroke="none" stroke-miterlimit="10"><path d="M-1.88883,-27.53901h484.46813v38.17431l0.46635,0.10118c3.71803,1.37113 6.4027,4.14334 6.92031,7.45362c0.58834,3.76953 -1.76502,7.44948 -5.9909,9.36709c2.97847,2.44465 4.05617,5.91477 2.83705,9.12995c-1.68298,4.44412 -7.29769,7.30371 -13.27718,6.76385c-6.08718,8.21366 -19.70943,10.95481 -30.19781,6.07821c-4.44371,5.13776 -12.5559,7.59208 -20.3288,6.15179c-6.59627,-1.22232 -11.86019,-5.05922 -13.82599,-10.0784c-6.07862,2.92212 -13.91944,2.45914 -19.34736,-1.14392c-1.78634,-1.18547 -3.19764,-2.63928 -4.16721,-4.25073l-0.71104,-2.4383l-0.44628,0.62559c-1.17401,1.09989 -2.60339,2.02777 -4.2187,2.73287l-3.41477,1.08414l-0.0439,0.01394c-0.8147,3.48614 -3.84683,6.42428 -8.07562,7.82771c-1.38728,0.4605 -2.83212,0.73325 -4.27972,0.82767c-4.34308,0.28339 -8.71321,-1.0368 -11.64499,-3.69706l-0.13541,0.10463l-2.19121,1.69083c-2.59235,1.52669 -5.90663,2.22172 -9.22506,1.85896c-3.01474,-0.32936 -5.72718,-1.50102 -7.65971,-3.24844l-1.54878,-1.80512l-0.10629,-0.12437c-6.29176,4.7801 -16.25118,4.28966 -21.81271,-0.51502l-2.08712,-2.31544l-0.00415,-0.00511c-7.75358,3.5005 -17.62188,2.36458 -23.70934,-2.73149l-1.21335,-1.27409l-1.4839,2.34002c-5.67059,5.55657 -15.42019,7.4608 -23.42361,4.57733l-0.00414,0.00539l-1.8994,2.47156c-5.16813,5.225 -15.05991,6.49288 -21.70504,2.21951l-0.09662,0.13224l-1.40247,1.92065c-1.79035,1.89332 -4.4034,3.27357 -7.38225,3.83759c-3.27978,0.62117 -6.63823,0.18746 -9.34377,-1.13163l-2.31489,-1.51441l-0.14356,-0.09359c-2.7152,2.8814 -6.96814,4.53923 -11.32047,4.59638c-1.45077,0.01905 -2.91259,-0.13983 -4.33162,-0.49045c-4.32472,-1.06841 -7.57826,-3.76042 -8.66324,-7.17202l-0.04417,-0.01049l-3.48959,-0.81387c-1.66474,-0.57659 -3.16244,-1.38976 -4.41858,-2.39454l-2.13269,-2.54183l-1.40246,1.51289c-6.82872,5.96061 -18.40594,7.52582 -27.58268,3.2588c-4.44343,5.13776 -12.55591,7.59207 -20.32881,6.15178c-6.59682,-1.22232 -11.86019,-5.05922 -13.82585,-10.0784c-6.07918,2.92212 -13.91972,2.45914 -19.34736,-1.14392c-0.89311,-0.59273 -1.69372,-1.25256 -2.39081,-1.96566l-0.70813,-0.91077l-0.70813,0.91077c-0.69709,0.7131 -1.49632,1.37293 -2.38943,1.96566c-5.42902,3.60306 -13.26956,4.06604 -19.34736,1.14392c-1.96703,5.01919 -7.23041,8.85608 -13.82585,10.0784c-7.7729,1.44029 -15.88538,-1.01402 -20.33018,-6.15178c-10.4881,4.8766 -24.10966,2.13544 -30.19712,-6.07821c-5.97979,0.53986 -11.59378,-2.31972 -13.27784,-6.76384c-1.21887,-3.21518 -0.1408,-6.68517 2.83805,-9.12995c-4.22672,-1.91762 -6.57887,-5.59756 -5.99083,-9.36709c0.51764,-3.31028 3.20247,-6.08249 6.91983,-7.45362l0.46657,-0.10118z" fill="#96e3ff"/><path d="M-1.94266,-38.30595h484.59056v38.17432l0.46647,0.10118c3.71897,1.37113 5.58064,4.29435 6.92205,7.45362c1.3414,3.15941 2.65584,6.21059 1.12645,11.50254c-1.5294,5.29181 -1.35416,4.70156 -4.2811,6.99464c-2.92695,2.29308 -7.29953,7.30372 -13.28059,6.76371c-6.08857,8.21379 -19.7144,10.95481 -30.20526,6.07821c-4.44481,5.13776 -12.55921,7.59207 -20.33405,6.15179c-6.59778,-1.22232 -11.8631,-5.05922 -13.82944,-10.07841c-6.08015,2.92212 -13.92289,2.45914 -19.35218,-1.14378c-1.78676,-1.18561 -3.19847,-2.63942 -4.16818,-4.25087l-0.71131,-2.43829l-0.44642,0.62559c-1.17428,1.10002 -2.60394,2.02777 -4.21981,2.73287l-3.41546,1.08429l-0.04404,0.01394c-0.81484,3.48601 -3.8478,6.42413 -8.07755,7.82756c-1.38769,0.46063 -2.8328,0.73325 -4.28082,0.82767c-4.34418,0.28339 -8.71543,-1.0368 -11.64735,-3.69692l-0.13666,0.1045l-2.19065,1.69096c-2.59373,1.52656 -5.9094,2.22158 -9.22782,1.85882c-3.01612,-0.32922 -5.72857,-1.50102 -7.66109,-3.24844l-1.54878,-1.80512l-0.10767,-0.12423c-6.29314,4.7801 -16.25532,4.28966 -21.81823,-0.51515l-2.08713,-2.31545c-0.00138,-0.00165 -0.00276,-0.00332 -0.00414,-0.00511c-7.75495,3.5005 -17.62603,2.36473 -23.71487,-2.73148l-1.21473,-1.27395l-1.4839,2.33987c-5.67196,5.55657 -15.42433,7.4608 -23.42913,4.57747c-0.00138,0.0018 -0.00276,0.00359 -0.00414,0.00538l-1.8994,2.47157c-5.17089,5.225 -15.06404,6.49287 -21.71194,2.2195l-0.09663,0.13224l-1.40246,1.92066c-1.79035,1.89319 -4.4034,3.27343 -7.38363,3.83745c-3.28116,0.6213 -6.64099,0.18759 -9.34515,-1.13163l-2.31765,-1.51427l-0.14218,-0.09373c-2.71658,2.8814 -6.9709,4.53923 -11.32323,4.59638c-1.45216,0.01905 -2.91397,-0.1397 -4.333,-0.49045c-4.3261,-1.06841 -7.57965,-3.76028 -8.66463,-7.17202l-0.04555,-0.01049l-3.48959,-0.81387c-1.66611,-0.57659 -3.16382,-1.38963 -4.41997,-2.3944l-2.13268,-2.54182l-1.40384,1.51275c-6.83011,5.96061 -18.41008,7.52582 -27.58958,3.25879c-4.44481,5.13776 -12.55867,7.59207 -20.33433,6.15179c-6.5982,-1.22232 -11.86295,-5.05922 -13.82861,-10.07841c-6.08056,2.92212 -13.92386,2.45914 -19.35288,-1.14378c-0.89311,-0.59287 -1.69234,-1.25269 -2.39081,-1.96566l-0.70813,-0.91077l-0.70813,0.91077c-0.69847,0.71297 -1.4977,1.37279 -2.39081,1.96566c-5.42902,3.60292 -13.27232,4.0659 -19.35288,1.14378c-1.96565,5.01919 -7.23041,8.85608 -13.82861,10.07841c-7.77566,1.44029 -15.88951,-1.01403 -20.33432,-6.15179c-10.49086,4.8766 -24.11656,2.13558 -30.2054,-6.07821c-5.98117,0.54001 -10.23411,-4.51024 -13.2806,-6.7637c-3.04511,-2.25361 -2.90155,-1.99257 -4.99282,-6.75735c-2.09127,-4.76478 1.24925,-7.9703 1.83867,-11.73983c0.51764,-3.31028 3.20247,-6.08235 6.92121,-7.45361l0.46657,-0.10119z" fill="#dbf6ff"/></g></g></svg>