<svg version="1.1" xmlns="http://www.w3.org/2000/svg" xmlns:xlink="http://www.w3.org/1999/xlink" width="406.29358" height="226.3577" viewBox="0,0,406.29358,226.3577"><g transform="translate(-36.85321,-66.82115)"><g fill-rule="evenodd" stroke="none" stroke-miterlimit="10"><path d="M208.98411,89.56823c0.53317,-0.00827 1.06427,-0.01654 1.6119,-0.02479c3.38086,-0.00206 6.0901,0.45464 9.21473,1.72349c0.55798,0.19838 1.11799,0.39677 1.69251,0.60137c3.83964,1.45072 7.48089,3.14115 11.12008,5.03617c0.36371,0.16738 0.72742,0.3327 1.10353,0.5063c1.04154,0.57036 1.64496,1.21514 2.48399,2.05622c1.47758,1.07047 2.96963,2.1182 4.47406,3.15355c1.94669,1.36392 3.6206,2.79809 5.26348,4.53399c0.4009,0.4009 0.80388,0.80388 1.21719,1.21719c3.13909,3.13909 3.13909,3.13909 4.05456,4.0587c0.55384,0.54971 1.1118,1.09734 1.67597,1.63669c0.6055,0.58277 1.18827,1.18827 1.76482,1.79996c0,0.33892 0,0.67576 0,1.025c0.33684,0 0.67576,0 1.025,0c0.51457,0.85141 1.02708,1.70697 1.53751,2.56251c0.5063,0.33892 1.01467,0.67783 1.53751,1.025c0.5187,0.85141 1.02914,1.70489 1.53751,2.56251c0.61169,0.72949 1.22339,1.45691 1.84543,2.17607c1.15107,1.44452 2.12028,3.00475 3.10809,4.56086c0.61996,1.01881 0.61996,1.01881 1.70903,1.46312c0.46083,0.81629 0.91961,1.63464 1.37219,2.45506c1.10766,1.8537 2.40546,3.56272 3.68672,5.29656c0.69435,0.93821 1.37838,1.88468 2.05,2.83737c2.25046,3.18248 4.68072,6.1397 7.26596,9.05146c1.14899,1.30399 1.97975,2.26906 2.53565,3.93676c0.33892,0 0.67783,0 1.025,0c0,0.33892 0,0.67576 0,1.025c0.27899,0.12193 0.56003,0.24593 0.84729,0.37198c1.49618,0.81215 2.72578,1.83096 4.05456,2.89524c4.55259,3.51107 9.56189,4.68485 15.08577,5.95786c0.16946,-0.33892 0.33892,-0.67576 0.51251,-1.025c0.84522,0.16946 1.69043,0.33892 2.56251,0.51251c0,0.33892 0,0.67576 0,1.025c0.33892,0 0.67576,0 1.025,0c0.16946,-0.33892 0.33892,-0.67576 0.51251,-1.025c0.33892,0 0.67576,0 1.025,0c0,0.33892 0,0.67576 0,1.025c0.59104,0.04547 1.18206,0.09093 1.79169,0.1364c2.41579,0.30378 4.30255,1.17173 6.43935,2.29799c0.34305,0.17152 0.68608,0.34305 1.03946,0.52076c3.43046,1.76069 6.31124,3.67225 8.6671,6.7824c0.5063,0.33892 1.01467,0.67783 1.53751,1.025c0,0.33892 0,0.67783 0,1.025c0.5063,0.16946 1.01467,0.33892 1.53751,0.51251c0,0.50838 0,1.01467 0,1.53751c0.33684,0 0.67576,0 1.025,0c0,0.33892 0,0.67783 0,1.025c0.33684,0 0.67576,0 1.025,0c0.62823,0.81215 0.62823,0.81215 1.34326,1.95496c1.1924,1.8537 2.43646,3.64331 3.7487,5.41229c2.3414,3.19488 4.51333,6.49516 6.47656,9.93595c0.63029,1.20892 0.63029,1.20892 1.75449,1.6615c0.36784,0.61583 0.70468,1.2482 1.025,1.88882c1.71936,3.18455 3.86237,6.05085 5.99092,8.96674c0.64064,0.88655 1.26885,1.78136 1.89089,2.68237c3.18661,4.57946 6.67287,8.86754 10.25213,13.14322c1.50032,1.79996 2.96549,3.62885 4.43481,5.45568c1.12626,1.31639 2.33726,2.51913 3.56892,3.73838c0.93407,1.00021 1.86402,2.00248 2.78571,3.01096c0.37198,0.40504 0.37198,0.40504 0.75015,0.81835c1.30812,1.43212 2.58938,2.88076 3.83137,4.3728c1.21719,1.39079 2.46745,2.44266 3.90783,3.58752c0,0.33684 0,0.67576 0,1.025c0.33684,0 0.67576,0 1.025,0c1.42179,1.71524 2.02315,2.75471 2.20913,4.9969c-0.15913,1.66564 -0.15913,1.66564 -0.67162,2.69064c-0.24799,1.52718 -0.46083,3.05643 -0.66956,4.5898c-0.91961,4.02769 -4.10416,6.9312 -7.41269,9.19405c-41.75247,25.11886 -107.45207,21.74006 -154.37709,23.11636c-0.56003,0.0186 -1.12007,0.03514 -1.6987,0.05166c-15.51356,0.45877 -30.96511,0.51665 -46.47454,-0.05166c-0.6427,-0.02273 -1.28539,-0.04547 -1.94669,-0.0682c-17.9686,-0.64475 -35.90828,-1.37425 -53.78389,-3.38913c-1.14486,-0.12813 -2.28974,-0.25418 -3.43254,-0.38025c-10.55797,-1.16553 -21.05809,-2.68858 -31.54788,-4.36247c-0.56209,-0.08885 -1.12626,-0.17773 -1.70489,-0.26866c-2.8911,-0.46497 -5.70987,-1.01467 -8.5431,-1.7483c-0.70262,-0.18186 -1.40731,-0.36165 -2.10995,-0.54349c-0.33684,-0.0868 -0.67576,-0.17565 -1.02294,-0.26658c-1.37632,-0.35338 -2.75884,-0.68197 -4.13928,-1.01673c-4.90391,-1.23579 -9.58257,-2.65345 -14.12897,-4.89358c-1.17794,-0.5869 -1.17794,-0.5869 -2.68651,-0.4877c0,-0.33892 0,-0.67576 0,-1.025c-0.45464,-0.1364 -0.90928,-0.27485 -1.37838,-0.41537c-1.58917,-0.57036 -2.88076,-1.1738 -4.25916,-2.14715c0,-0.33892 0,-0.67576 0,-1.025c-0.30172,-0.05579 -0.60342,-0.11366 -0.91341,-0.17152c-2.58319,-0.77288 -4.34182,-2.93657 -5.97232,-4.98657c-1.46726,-2.79396 -1.32259,-6.84646 -0.47531,-9.82642c0.06201,-0.29964 0.12193,-0.59723 0.186,-0.90309c-0.65716,-0.87622 -1.34119,-1.7297 -2.05,-2.56251c-0.51251,-0.96094 -0.51251,-0.96094 -0.51251,-2.05c1.21514,-2.52532 2.70924,-4.61046 4.61254,-6.66254c0.33892,0 0.67576,0 1.025,0c0.17359,-0.42985 0.17359,-0.42985 0.35338,-0.86589c0.85762,-1.51478 1.99007,-2.53359 3.23414,-3.7487c0.36992,-0.47531 0.73982,-0.95061 1.12007,-1.44039c0.30791,-0.36992 0.61377,-0.73982 0.92995,-1.12213c0.33892,0 0.67576,0 1.025,0c0.17359,-0.41125 0.17359,-0.41125 0.35132,-0.83281c1.47551,-2.66791 3.66193,-4.71793 5.79873,-6.85473c0.94028,-1.09114 1.87022,-2.1864 2.7919,-3.29201c0.26245,-0.26658 0.5249,-0.53317 0.79561,-0.80802c0.33684,0 0.67576,0 1.025,0c0.11572,-0.36992 0.23145,-0.73982 0.35132,-1.12007c0.81629,-1.75036 1.83923,-2.66997 3.23621,-4.00496c0.6365,-0.68608 1.26679,-1.38252 1.88882,-2.08101c0.29759,-0.33478 0.59723,-0.66749 0.90309,-1.01262c0.77702,-0.98367 1.26885,-1.93842 1.82064,-3.05643c0.84108,-0.86589 1.69664,-1.71936 2.56251,-2.56251c1.72143,-1.91982 1.72143,-1.91982 3.07502,-4.10003c0.33684,0 0.67576,0 1.025,0c0.13019,-0.37404 0.26245,-0.74601 0.39677,-1.13247c0.6551,-1.49618 1.42385,-2.56871 2.45298,-3.83344c1.26266,-1.53751 1.26266,-1.53751 2.2732,-3.23414c0.33892,0 0.67783,0 1.025,0c0.13846,-0.36992 0.27485,-0.73982 0.41744,-1.12213c0.60756,-1.44039 1.26266,-2.71543 2.14507,-4.0029c0.33892,0 0.67783,0 1.025,0c0.0496,-0.29137 0.0992,-0.58277 0.14878,-0.88449c0.44637,-1.43212 1.1428,-2.28353 2.09341,-3.44079c1.27299,-1.58504 2.36205,-3.14942 3.39532,-4.90185c0.73982,-1.00848 1.4941,-2.00248 2.25666,-2.99236c1.0064,-1.36186 1.93222,-2.77125 2.86837,-4.18269c0.86589,-1.26679 1.74417,-2.52532 2.62658,-3.77971c0.22733,-0.32859 0.45258,-0.65716 0.68608,-0.994c0.57863,-0.82042 1.1924,-1.61398 1.81237,-2.40133c0.33892,0 0.67783,0 1.025,0c0.20046,-0.44845 0.20046,-0.44845 0.40712,-0.90514c2.99442,-5.54455 9.74995,-8.85927 15.36889,-11.09116c1.27299,-0.34097 2.38686,-0.35957 3.69912,-0.30378c0.16946,-0.33892 0.33892,-0.67783 0.51251,-1.025c0.89687,-0.17565 0.89687,-0.17565 2.05,-0.25626c7.42096,-0.71503 12.37034,-3.44079 17.42511,-8.9688c0.28518,-0.26866 0.57036,-0.53524 0.86381,-0.81215c0.80388,-0.76669 0.80388,-0.76669 1.18413,-2.26287c0.36992,-0.26453 0.7419,-0.52903 1.12213,-0.80183c1.66977,-1.44658 2.46539,-2.89524 3.55032,-4.79852c1.43212,-2.3352 3.07089,-4.50714 4.70966,-6.69974c1.31226,-1.72557 1.31226,-1.72557 2.40546,-3.58959c0.33892,0 0.67783,0 1.025,0c0.20252,-0.55798 0.20252,-0.55798 0.40917,-1.12834c0.62616,-1.45485 1.35359,-2.58938 2.28147,-3.86858c1.21927,-1.69457 2.39306,-3.40154 3.52345,-5.15603c1.18619,-1.79169 2.47572,-3.22381 4.03596,-4.70966c0.94234,-1.08907 1.87022,-2.1864 2.7919,-3.29406c0.26245,-0.26453 0.5249,-0.53111 0.79561,-0.80596c0.33892,0 0.67576,0 1.025,0c0,-0.33892 0,-0.67576 0,-1.025c0.33892,0 0.67576,0 1.025,0c0.33892,-0.67576 0.67576,-1.35359 1.025,-2.05c0.33892,0 0.67576,0 1.025,0c0.15913,-0.44431 0.15913,-0.44431 0.32032,-0.89687c0.96715,-1.58298 2.21946,-2.21327 3.77971,-3.20315c1.04568,-0.83075 2.05622,-1.6987 3.07502,-2.56251c5.2697,-4.29635 11.99422,-6.84854 18.45011,-8.71254c0.5373,-0.18806 1.07666,-0.37611 1.63258,-0.5683c2.69478,-0.63029 5.28208,-0.62616 8.03886,-0.61791z" fill="#edf6fb"/><path d="M208.93864,89.56823c0.53111,-0.00827 1.06427,-0.01654 1.6119,-0.02479c3.3788,-0.00206 6.08804,0.45464 9.21265,1.72143c0.55798,0.19838 1.11593,0.39677 1.69043,0.60342c3.83758,1.44658 7.47883,3.13701 11.118,5.02996c0.36371,0.16738 0.72742,0.33478 1.10147,0.5063c1.04154,0.57036 1.64496,1.21719 2.48399,2.05622c1.47758,1.07047 2.96963,2.11614 4.47406,3.15147c1.94669,1.36186 3.61852,2.79809 5.26143,4.53193c0.4009,0.4009 0.80183,0.80183 1.21719,1.21514c3.13701,3.13701 3.13701,3.13701 4.0525,4.05662c0.55384,0.54971 1.1118,1.09734 1.67597,1.63669c0.6055,0.58069 1.18827,1.18827 1.76276,1.7979c0,0.33892 0,0.67576 0,1.025c0.33892,0 0.67783,0 1.025,0c0.51665,0.85141 1.02914,1.70489 1.53751,2.56046c0.50838,0.33892 1.01467,0.67576 1.53751,1.025c0.5187,0.84935 1.02914,1.70284 1.53751,2.56046c0.61169,0.72742 1.22339,1.45485 1.84543,2.174c1.14899,1.44452 2.1182,3.00269 3.10809,4.5588c0.61791,1.01881 0.61791,1.01881 1.70697,1.46312c0.46083,0.81421 0.91961,1.63258 1.37219,2.45298c1.10561,1.85162 2.40338,3.55859 3.68672,5.29243c0.6923,0.93821 1.37632,1.88262 2.05,2.83529c2.24841,3.18042 4.67866,6.13557 7.26185,9.04527c1.14899,1.30399 1.97975,2.26906 2.53565,3.9347c0.33892,0 0.67783,0 1.025,0c0,0.33892 0,0.67576 0,1.025c0.27899,0.12193 0.55798,0.24593 0.84729,0.37198c1.4941,0.81008 2.72578,1.82889 4.0525,2.89316c4.55053,3.50899 9.55778,4.68279 15.08165,5.95372c0.16946,-0.33684 0.33892,-0.67576 0.51251,-1.025c0.84522,0.16946 1.69043,0.33892 2.56251,0.51251c0,0.33892 0,0.67576 0,1.025c0.33684,0 0.67576,0 1.025,0c0.16738,-0.33892 0.33684,-0.67576 0.51043,-1.025c0.33892,0 0.67783,0 1.025,0c0,0.33892 0,0.67576 0,1.025c0.59104,0.04547 1.18206,0.08885 1.79169,0.1364c2.41579,0.30378 4.30255,1.16967 6.43935,2.29593c0.34097,0.17152 0.68403,0.34305 1.03741,0.52076c3.4284,1.75863 6.31124,3.67018 8.66502,6.77826c0.5063,0.33892 1.01467,0.67576 1.53544,1.025c0,0.33892 0,0.67576 0,1.025c0.50838,0.16738 1.01467,0.33684 1.53751,0.51251c0,0.5063 0,1.01262 0,1.53544c0.33892,0 0.67783,0 1.025,0c0,0.33892 0,0.67576 0,1.025c0.33892,0 0.67576,0 1.025,0c0.62823,0.81008 0.62823,0.81008 1.34532,1.95288c1.19033,1.85162 2.43439,3.63919 3.74665,5.41021c2.33932,3.19075 4.51126,6.48895 6.47448,9.92768c0.63029,1.20687 0.63029,1.20687 1.75449,1.65943c0.36578,0.61583 0.70262,1.25025 1.025,1.88882c1.7173,3.18248 3.86031,6.04671 5.98678,8.96261c0.64064,0.88655 1.26885,1.7793 1.89295,2.67824c3.18455,4.5774 6.66873,8.86135 10.248,13.13497c1.50032,1.79996 2.96549,3.62679 4.43273,5.45362c1.12834,1.31639 2.33726,2.51705 3.56892,3.73632c0.93407,0.99813 1.86402,2.00042 2.78571,3.00888c0.37198,0.40504 0.37198,0.40504 0.75015,0.81629c1.30812,1.43212 2.5873,2.88076 3.82931,4.37074c1.21719,1.39079 2.46745,2.44266 3.90578,3.58546c0,0.33684 0,0.67576 0,1.025c0.33892,0 0.67783,0 1.025,0c1.01673,0.93615 1.48997,1.6801 1.67183,3.06056c0.02687,1.09939 0.02687,1.09939 -0.13432,3.08535c-1.025,1.025 -1.025,1.025 -2.41787,1.27506c-2.3228,-0.34719 -3.43666,-1.6119 -4.99277,-3.24448c-0.30586,-0.30791 -0.61169,-0.61791 -0.92582,-0.93407c-0.9754,-0.98988 -1.93842,-1.98802 -2.90349,-2.98823c-0.64475,-0.6551 -1.29158,-1.31226 -1.94049,-1.96734c-3.05021,-3.10189 -6.03844,-6.23477 -8.85102,-9.5557c-0.49184,-0.56209 -0.98367,-1.12213 -1.47758,-1.68216c-3.54205,-4.0525 -6.82581,-8.24965 -10.01034,-12.58939c-0.82662,-1.12007 -1.66356,-2.23394 -2.50053,-3.34574c-3.68464,-4.9101 -7.15645,-9.93387 -10.54351,-15.05478c-7.42509,-11.47552 -7.42509,-11.47552 -15.94339,-22.13477c-0.39471,-0.44223 -0.79148,-0.88449 -1.1986,-1.34119c-5.13743,-5.46189 -10.36372,-8.21038 -17.75781,-8.58236c-11.20894,-0.68816 -19.31392,-5.26556 -27.1544,-13.12462c-0.35957,-0.32859 -0.71916,-0.65716 -1.08907,-0.99608c-5.64787,-5.24696 -9.92768,-12.11408 -14.30048,-18.40878c-12.36207,-17.79295 -27.15646,-36.8093 -49.2127,-42.21332c-8.52862,-1.52511 -16.14385,0.36578 -23.77766,4.25089c-0.32859,0.16327 -0.65716,0.32859 -0.99608,0.49597c-1.52924,0.83489 -2.24427,1.27712 -2.79809,2.96136c-0.01654,0.38025 -0.03306,0.7605 -0.0496,1.15313c0.36165,0.1364 0.72122,0.27485 1.0932,0.41537c3.11428,1.23579 6.05912,2.62658 8.96261,4.29014c0.46291,0.26453 0.46291,0.26453 0.93615,0.53524c1.25647,0.73363 2.32072,1.40938 3.35399,2.44266c0.40298,0.12605 0.80388,0.25212 1.21719,0.38438c1.93222,0.91961 2.47779,1.77517 3.39532,3.71359c0.91755,5.41229 -1.13453,11.18415 -2.87043,16.26577c-2.86424,8.21865 -2.86424,8.21865 -1.51684,16.64188c1.28126,2.14507 3.06675,3.89751 4.76751,5.71193c3.57513,4.11449 5.00311,7.81361 4.9473,13.23001c-0.80596,7.60902 -7.48296,13.18249 -13.01303,17.80949c-1.91363,1.51684 -3.85204,3.00269 -5.80078,4.472c-4.14549,3.12874 -8.22279,6.3071 -12.19055,9.65696c-0.93821,0.78323 -1.88468,1.55611 -2.84564,2.31247c-2.14921,1.69457 -4.18888,3.42219 -6.09631,5.38748c-0.32238,0.3327 -0.64683,0.66543 -0.97954,1.0064c-0.62202,0.64889 -1.23787,1.30399 -1.84748,1.96528c-4.98657,5.21596 -11.80824,8.09052 -18.2414,11.118c-12.52533,5.37923 -12.52533,5.37923 -21.16556,15.30069c-0.51665,2.99236 -0.42777,5.59207 0.70468,8.41911c5.6024,5.47014 13.61026,6.81132 21.02916,8.21865c12.13268,2.33313 23.76941,6.48068 33.59996,14.09383c0.63856,0.42985 1.2792,0.85762 1.91982,1.28126c2.08928,1.48585 3.6206,3.42219 5.25316,5.37923c0.59723,0.66129 1.19446,1.32259 1.79169,1.98388c8.45423,9.69829 8.45423,9.69829 8.45423,13.89338c-38.85104,0.21079 -76.8548,-1.55403 -115.27807,-7.68341c-0.56209,-0.08885 -1.12626,-0.17773 -1.70697,-0.26866c-2.88903,-0.46497 -5.7078,-1.01262 -8.54103,-1.7483c-0.70262,-0.17979 -1.40319,-0.36165 -2.10582,-0.54144c-0.33892,-0.08885 -0.67576,-0.17565 -1.025,-0.26658c-1.37632,-0.35338 -2.75676,-0.68197 -4.13722,-1.01673c-4.90391,-1.23579 -9.58051,-2.65137 -14.12483,-4.88945c-1.17794,-0.58896 -1.17794,-0.58896 -2.68651,-0.4877c0,-0.33892 0,-0.67576 0,-1.025c-0.45464,-0.1364 -0.90928,-0.27485 -1.37632,-0.41537c-1.59125,-0.57036 -2.88283,-1.1738 -4.25916,-2.14507c0,-0.33892 0,-0.67576 0,-1.025c-0.30172,-0.05579 -0.60342,-0.11366 -0.91341,-0.17152c-2.58111,-0.77288 -4.34182,-2.93449 -5.97232,-4.98244c-1.46518,-2.79396 -1.32259,-6.84233 -0.47324,-9.82228c0.05993,-0.29759 0.12193,-0.59517 0.186,-0.90101c-0.65716,-0.87622 -1.34119,-1.7297 -2.05,-2.56251c-0.51251,-0.95888 -0.51251,-0.95888 -0.51251,-2.04795c1.21514,-2.52326 2.70924,-4.60632 4.61046,-6.65841c0.33892,0 0.67783,0 1.025,0c0.17565,-0.42777 0.17565,-0.42777 0.35338,-0.86381c0.85968,-1.51478 1.99007,-2.53359 3.23414,-3.74665c0.36992,-0.47531 0.73982,-0.95061 1.12007,-1.44039c0.30586,-0.36992 0.61377,-0.73982 0.92995,-1.12007c0.33684,0 0.67576,0 1.02294,0c0.17565,-0.41125 0.17565,-0.41125 0.35338,-0.83281c1.47345,-2.66585 3.65985,-4.71585 5.79459,-6.8506c0.94028,-1.08907 1.87022,-2.1864 2.7919,-3.29201c0.26245,-0.26453 0.5249,-0.53111 0.79561,-0.80596c0.33892,0 0.67576,0 1.025,0c0.11572,-0.36992 0.23145,-0.73982 0.35132,-1.12007c0.81629,-1.7483 1.83716,-2.66791 3.23414,-4.00082c0.63856,-0.68816 1.26679,-1.38046 1.89089,-2.08101c0.29759,-0.33478 0.59517,-0.66749 0.90101,-1.01054c0.77702,-0.98367 1.26885,-1.93636 1.82064,-3.05643c0.84108,-0.86381 1.69664,-1.7173 2.56046,-2.56046c1.72143,-1.91776 1.72143,-1.91776 3.07502,-4.09795c0.33684,0 0.67576,0 1.025,0c0.13019,-0.37198 0.26245,-0.74601 0.39677,-1.1304c0.6551,-1.49618 1.42385,-2.56665 2.45298,-3.83137c1.2606,-1.53544 1.2606,-1.53544 2.2732,-3.23208c0.33892,0 0.67576,0 1.025,0c0.1364,-0.36992 0.27485,-0.73982 0.41537,-1.12007c0.60756,-1.44039 1.26266,-2.71337 2.14507,-4.0029c0.33892,0 0.67783,0 1.025,0c0.0496,-0.29137 0.0992,-0.58277 0.14878,-0.88241c0.44637,-1.43004 1.1428,-2.28353 2.09341,-3.43873c1.27299,-1.58504 2.36205,-3.14734 3.39327,-4.89772c0.73982,-1.00848 1.4941,-2.00248 2.25666,-2.99236c1.0064,-1.35978 1.93015,-2.76917 2.86837,-4.17855c0.86381,-1.26679 1.74209,-2.52326 2.62452,-3.77765c0.22733,-0.32859 0.45464,-0.65716 0.68608,-0.994c0.57863,-0.81835 1.1924,-1.6119 1.81237,-2.39927c0.33892,0 0.67576,0 1.025,0c0.20046,-0.44845 0.20046,-0.44845 0.40504,-0.90514c2.99442,-5.54041 9.74789,-8.85308 15.36476,-11.08494c1.27299,-0.33892 2.38686,-0.35751 3.69912,-0.30378c0.16946,-0.33684 0.33892,-0.67576 0.51251,-1.02294c0.89687,-0.17773 0.89687,-0.17773 2.05,-0.25626c7.4189,-0.71503 12.3662,-3.44079 17.41891,-8.96466c0.28518,-0.26658 0.57036,-0.53524 0.86381,-0.81008c0.80388,-0.76669 0.80388,-0.76669 1.18619,-2.26287c0.36992,-0.26453 0.73982,-0.52697 1.12007,-0.79975c1.66977,-1.44658 2.46539,-2.89316 3.54826,-4.79646c1.43212,-2.33313 3.07089,-4.50301 4.70966,-6.6956c1.31226,-1.72349 1.31226,-1.72349 2.40546,-3.58546c0.33892,0 0.67576,0 1.025,0c0.20252,-0.56003 0.20252,-0.56003 0.40712,-1.12834c0.62616,-1.45485 1.35565,-2.5873 2.28147,-3.8665c1.21927,-1.69457 2.39306,-3.39946 3.52345,-5.15395c1.18619,-1.78963 2.47366,-3.22175 4.0339,-4.70553c0.94234,-1.08907 1.87022,-2.1864 2.7919,-3.29201c0.26245,-0.26658 0.5249,-0.53111 0.79561,-0.80596c0.33684,0 0.67576,0 1.025,0c0,-0.33892 0,-0.67576 0,-1.025c0.33684,0 0.67576,0 1.025,0c0.33684,-0.67576 0.67576,-1.35151 1.02294,-2.04795c0.33892,0 0.67783,0 1.025,0c0.15913,-0.44431 0.15913,-0.44431 0.32032,-0.89687c0.96715,-1.5809 2.21946,-2.21121 3.77971,-3.20108c1.04568,-0.82868 2.05414,-1.69664 3.07295,-2.56046c5.26762,-4.29428 11.99009,-6.8444 18.44392,-8.70843c0.53936,-0.186 1.07874,-0.37404 1.63464,-0.5683c2.6927,-0.62823 5.28002,-0.6241 8.03679,-0.61583z" fill="#d1e7f3"/><path d="M208.93864,89.56823c0.53111,-0.00827 1.06427,-0.01654 1.6119,-0.02479c3.3788,-0.00206 6.08804,0.45464 9.21265,1.72143c0.55798,0.20046 1.11593,0.39885 1.69043,0.60342c3.83758,1.44864 7.47883,3.13909 11.118,5.0341c0.36371,0.16738 0.72742,0.33478 1.10147,0.5063c1.04154,0.57036 1.64496,1.21514 2.48399,2.05622c1.47758,1.07047 2.96963,2.11614 4.47406,3.15147c1.94669,1.36392 3.61852,2.80017 5.26143,4.53399c0.4009,0.4009 0.80183,0.80388 1.21719,1.21719c3.13701,3.13909 3.13701,3.13909 4.0525,4.05662c0.55384,0.55176 1.1118,1.09734 1.67597,1.63669c0.6055,0.58277 1.18827,1.19033 1.76276,1.79996c0,0.33892 0,0.67576 0,1.025c0.33892,0 0.67783,0 1.025,0c0.51665,0.85141 1.02914,1.70697 1.53751,2.56251c0.50838,0.33892 1.01467,0.67576 1.53751,1.025c0.5187,0.84935 1.02914,1.70489 1.53751,2.56251c0.61169,0.72742 1.22339,1.45485 1.84543,2.174c1.14899,1.44452 2.1182,3.00269 3.10809,4.56086c0.61791,1.01881 0.61791,1.01881 1.70697,1.46312c0.46083,0.81629 0.91961,1.63258 1.37219,2.45298c1.10561,1.8537 2.40338,3.56065 3.68672,5.29449c0.6923,0.93821 1.37632,1.88468 2.05,2.83943c2.24841,3.18042 4.67866,6.13764 7.26185,9.04733c1.14899,1.30399 1.97975,2.26906 2.53565,3.93676c0.33892,0 0.67783,0 1.025,0c0,0.33684 0,0.67576 0,1.025c0.27899,0.12193 0.55798,0.24385 0.84729,0.37198c1.4941,0.81008 2.72578,1.82889 4.0525,2.89316c4.55053,3.51107 9.55778,4.68485 15.08165,5.95786c0.16946,-0.33892 0.33892,-0.67783 0.51251,-1.025c0.84522,0.16946 1.69043,0.33684 2.56251,0.51251c0,0.33684 0,0.67576 0,1.025c0.33684,0 0.67576,0 1.025,0c0.16738,-0.33892 0.33684,-0.67783 0.51043,-1.025c0.33892,0 0.67783,0 1.025,0c0,0.33684 0,0.67576 0,1.025c0.59104,0.04339 1.18206,0.08885 1.79169,0.1364c2.41579,0.30378 4.30255,1.16967 6.43935,2.29593c0.34097,0.17359 0.68403,0.34511 1.03741,0.52076c3.4284,1.76069 6.31124,3.67018 8.66502,6.7824c0.5063,0.33684 1.01467,0.67576 1.53544,1.025c0,0.33684 0,0.67576 0,1.025c0.50838,0.16738 1.01467,0.33684 1.53751,0.51251c0,0.5063 0,1.01262 0,1.53544c0.33892,0 0.67783,0 1.025,0c0,0.33892 0,0.67783 0,1.025c0.33892,0 0.67576,0 1.025,0c0.62823,0.81215 0.62823,0.81215 1.34532,1.95496c1.19033,1.85162 2.43439,3.64125 3.74665,5.41229c2.33932,3.19281 4.51126,6.49102 6.47448,9.93181c0.63029,1.20687 0.63029,1.20687 1.75449,1.6615c0.36578,0.61377 0.70262,1.2482 1.025,1.88882c1.7173,3.18455 3.86031,6.04877 5.98678,8.96466c0.64064,0.88655 1.26885,1.78136 1.89295,2.68031c3.18455,4.57946 6.66873,8.86548 10.248,13.14116c1.50032,1.79996 2.96549,3.62679 4.43273,5.45362c1.12834,1.31845 2.33726,2.51913 3.56892,3.73838c0.93407,1.00021 1.86402,2.00042 2.78571,3.01096c0.37198,0.40504 0.37198,0.40504 0.75015,0.81629c1.30812,1.43212 2.5873,2.88076 3.82931,4.3728c1.21719,1.39079 2.46745,2.44266 3.90578,3.58546c0,0.33892 0,0.67783 0,1.025c0.33892,0 0.67783,0 1.025,0c1.01673,0.93821 1.48997,1.68216 1.67183,3.06262c0.02687,1.10147 0.02687,1.10147 -0.13432,3.08741c-1.025,1.02294 -1.025,1.02294 -2.41787,1.27506c-2.3228,-0.34719 -3.43666,-1.6119 -4.99277,-3.24654c-0.30586,-0.30791 -0.61169,-0.61583 -0.92582,-0.93407c-0.9754,-0.98988 -1.93842,-1.98802 -2.90349,-2.98823c-0.64475,-0.65716 -1.29158,-1.31432 -1.94049,-1.96942c-3.05021,-3.10189 -6.03844,-6.23683 -8.85102,-9.55984c-0.49184,-0.56003 -0.98367,-1.12213 -1.47758,-1.6801c-3.54205,-4.05662 -6.82581,-8.25585 -10.01034,-12.59559c-0.82662,-1.12213 -1.66356,-2.236 -2.50053,-3.3478c-3.68464,-4.91218 -7.15645,-9.93801 -10.54351,-15.06098c-7.42509,-11.47965 -7.42509,-11.47965 -15.94339,-22.14302c-0.39471,-0.44223 -0.79148,-0.88655 -1.1986,-1.34326c-5.13743,-5.46189 -10.36372,-8.21246 -17.75781,-8.58444c-11.20894,-0.68816 -19.31392,-5.26762 -27.1544,-13.13083c-0.35957,-0.32859 -0.71916,-0.65716 -1.08907,-0.99608c-5.64787,-5.24902 -9.92768,-12.11822 -14.30048,-18.41705c-12.36207,-17.79914 -27.15646,-36.82377 -49.2127,-42.22984c-10.32858,-1.84543 -19.89669,1.33705 -28.41293,7.2019c-1.13247,0.86589 -2.21946,1.7669 -3.30647,2.68858c-0.44637,0.35338 -0.89274,0.70468 -1.35151,1.06841c-6.41661,5.1023 -11.22753,10.8225 -16.06946,17.37758c-0.54349,0.72949 -0.54349,0.72949 -1.09939,1.47137c-1.84543,2.49432 -3.59992,5.04444 -5.34201,7.60902c-17.34039,25.53423 -17.34039,25.53423 -32.49641,28.83864c-1.12007,0.16946 -2.24014,0.32859 -3.36226,0.47943c-5.28416,0.77702 -9.04527,2.65345 -13.03371,6.18103c-0.35544,0.30791 -0.71089,0.61583 -1.07874,0.93407c-3.69085,3.4284 -6.46621,7.58009 -9.34078,11.68631c-0.82248,1.17586 -1.65118,2.34553 -2.48193,3.5152c-2.27733,3.20935 -4.53399,6.4311 -6.75966,9.67764c-4.80265,6.95391 -9.88635,13.71152 -15.1767,20.3038c-0.25831,0.32238 -0.51665,0.64475 -0.78323,0.97748c-5.85452,7.31351 -11.94876,14.35008 -18.38604,21.15521c-1.65737,1.75449 -3.28995,3.52759 -4.91218,5.31308c-1.73797,1.90536 -3.50485,3.75697 -5.35236,5.55488c-1.12834,1.1614 -2.12855,2.41787 -3.12255,3.69705c-0.91341,0.86381 -1.5623,1.04981 -2.79604,1.22133c-1.08907,-0.28932 -1.08907,-0.28932 -2.05,-1.025c-0.76875,-1.37838 -0.76875,-1.37838 -1.025,-3.07502c1.14072,-2.55424 2.71337,-4.61459 4.61046,-6.66048c0.33892,0 0.67783,0 1.025,0c0.17565,-0.42985 0.17565,-0.42985 0.35338,-0.86589c0.85968,-1.5127 1.99007,-2.53359 3.23414,-3.74665c0.36992,-0.47531 0.73982,-0.95061 1.12007,-1.44039c0.30586,-0.36992 0.61377,-0.73982 0.92995,-1.12213c0.33684,0 0.67576,0 1.02294,0c0.17565,-0.41125 0.17565,-0.41125 0.35338,-0.83281c1.47345,-2.66585 3.65985,-4.71585 5.79459,-6.85265c0.94028,-1.09114 1.87022,-2.1864 2.7919,-3.29201c0.26245,-0.26658 0.5249,-0.53317 0.79561,-0.80802c0.33892,0 0.67576,0 1.025,0c0.11572,-0.36992 0.23145,-0.73982 0.35132,-1.12007c0.81629,-1.75036 1.83716,-2.66791 3.23414,-4.0029c0.63856,-0.68816 1.26679,-1.38252 1.89089,-2.08308c0.29759,-0.3327 0.59517,-0.66543 0.90101,-1.01054c0.77702,-0.98367 1.26885,-1.93636 1.82064,-3.05643c0.84108,-0.86381 1.69664,-1.7173 2.56046,-2.56046c1.72143,-1.91982 1.72143,-1.91982 3.07502,-4.10003c0.33684,0 0.67576,0 1.025,0c0.13019,-0.37404 0.26245,-0.74601 0.39677,-1.1304c0.6551,-1.49824 1.42385,-2.56871 2.45298,-3.83344c1.2606,-1.53751 1.2606,-1.53751 2.2732,-3.23414c0.33892,0 0.67576,0 1.025,0c0.1364,-0.36992 0.27485,-0.73982 0.41537,-1.12213c0.60756,-1.44039 1.26266,-2.71337 2.14507,-4.0029c0.33892,0 0.67783,0 1.025,0c0.0496,-0.29137 0.0992,-0.58277 0.14878,-0.88241c0.44637,-1.43212 1.1428,-2.28353 2.09341,-3.44079c1.27299,-1.58504 2.36205,-3.14734 3.39327,-4.89978c0.73982,-1.00848 1.4941,-2.00248 2.25666,-2.99236c1.0064,-1.36186 1.93015,-2.77125 2.86837,-4.18061c0.86381,-1.26679 1.74209,-2.52532 2.62452,-3.77971c0.22733,-0.32859 0.45464,-0.65716 0.68608,-0.994c0.57863,-0.82042 1.1924,-1.6119 1.81237,-2.40133c0.33892,0 0.67576,0 1.025,0c0.20046,-0.44637 0.20046,-0.44637 0.40504,-0.90514c2.99442,-5.54247 9.74789,-8.85515 15.36476,-11.08702c1.27299,-0.34097 2.38686,-0.35957 3.69912,-0.30586c0.16946,-0.33684 0.33892,-0.67576 0.51251,-1.02294c0.89687,-0.17773 0.89687,-0.17773 2.05,-0.25626c7.4189,-0.71503 12.3662,-3.44079 17.41891,-8.9688c0.28518,-0.26658 0.57036,-0.53524 0.86381,-0.81008c0.80388,-0.76875 0.80388,-0.76875 1.18619,-2.26287c0.36992,-0.26453 0.73982,-0.52903 1.12007,-0.80183c1.66977,-1.44658 2.46539,-2.89524 3.54826,-4.79646c1.43212,-2.3352 3.07089,-4.50714 4.70966,-6.69974c1.31226,-1.72349 1.31226,-1.72349 2.40546,-3.58752c0.33892,0 0.67576,0 1.025,0c0.20252,-0.55798 0.20252,-0.55798 0.40712,-1.12834c0.62616,-1.45485 1.35565,-2.58938 2.28147,-3.8665c1.21927,-1.69664 2.39306,-3.40359 3.52345,-5.15603c1.18619,-1.79169 2.47366,-3.22381 4.0339,-4.70966c0.94234,-1.08701 1.87022,-2.1864 2.7919,-3.29201c0.26245,-0.26658 0.5249,-0.53111 0.79561,-0.80596c0.33684,0 0.67576,0 1.025,0c0,-0.33892 0,-0.67576 0,-1.025c0.33684,0 0.67576,0 1.025,0c0.33684,-0.67576 0.67576,-1.35359 1.02294,-2.05c0.33892,0 0.67783,0 1.025,0c0.15913,-0.44431 0.15913,-0.44431 0.32032,-0.89687c0.96715,-1.58298 2.21946,-2.21327 3.77971,-3.20315c1.04568,-0.82868 2.05414,-1.69664 3.07295,-2.56046c5.26762,-4.29635 11.99009,-6.84646 18.44392,-8.71049c0.53936,-0.18806 1.07874,-0.37611 1.63464,-0.57036c2.6927,-0.62823 5.28002,-0.6241 8.03679,-0.61583z" fill="#203f62"/><path d="M224.29099,121.99231c2.81463,0.34097 3.78592,1.54165 5.55693,3.64331c1.93222,2.59352 3.52553,5.37096 5.1333,8.17318c0.5931,1.02087 1.20479,2.02729 1.82269,3.03162c6.72247,10.92789 6.72247,10.92789 5.95372,15.96199c-0.51457,1.83096 -0.51457,1.83096 -1.02708,3.08122c-1.82683,-1.61604 -2.8229,-3.37467 -3.84585,-5.55074c-0.35751,-0.73776 -0.71503,-1.47345 -1.0746,-2.20913c-0.19425,-0.4009 -0.39058,-0.79975 -0.59104,-1.21306c-1.20065,-2.41992 -2.46539,-4.80884 -3.71978,-7.2019c-3.7673,-7.20811 -3.7673,-7.20811 -5.45154,-10.52699c-0.16327,-0.31618 -0.32651,-0.63237 -0.49391,-0.9568c-1.03121,-2.04795 -1.69457,-4.02356 -2.26287,-6.23269z" fill="#e3f2f8"/><path d="M260.76965,229.1468c5.63546,-0.76875 10.54764,3.49247 14.8068,6.69974c0.56209,0.49803 0.56209,0.49803 1.13453,1.00435c0,0.33892 0,0.67783 0,1.02708c0.29759,0.12813 0.59723,0.25626 0.90514,0.38644c1.31432,0.73155 2.11614,1.53957 3.11222,2.66377c0.32032,0.35338 0.6427,0.70676 0.97334,1.07254c0.32859,0.50216 0.32859,0.50216 0.66543,1.01262c-0.25418,0.76255 -0.25418,0.76255 -0.51457,1.54165c-0.51251,-0.38231 -1.02294,-0.76463 -1.54992,-1.15932c-1.91982,-1.37011 -3.90783,-2.39513 -6.03431,-3.39946c-5.17463,-2.52118 -9.80782,-5.34822 -14.01324,-9.30979c0.16946,-0.50838 0.33892,-1.01673 0.51457,-1.53957z" fill="#fcfefe"/><path d="M163.85697,250.75665c0.53317,0 1.06427,0 1.6119,0c0.17773,0.6551 0.35544,1.31018 0.5373,1.98388c-0.70882,0.16327 -1.41765,0.32651 -2.14921,0.49597c-0.17565,-0.49184 -0.35338,-0.98161 -0.5373,-1.48791c0.17773,-0.32651 0.35544,-0.6551 0.5373,-0.99194z" fill="#f6fefe"/><g><path d="M361.08575,68.19268c3.10416,1.99881 5.2647,4.75076 7.22677,7.82306c0.4335,0.66174 0.867,1.32331 1.30224,1.98488c0.42828,0.65931 0.8583,1.31878 1.28831,1.97827c2.85694,4.37959 5.87229,8.28023 9.5318,12.01948c0.25418,0.27455 0.50837,0.54927 0.76951,0.83219c4.55786,4.83816 10.60599,8.45432 16.24151,11.89169c6.21004,3.80124 12.14848,7.70397 14.31774,15.03711c0.76776,3.745 -0.04526,7.2924 -2.09613,10.49247c-2.02824,2.55105 -4.63098,3.83466 -7.67942,4.85087c4.68843,4.66058 10.51197,8.13711 16.21366,11.40979c2.46347,1.4236 4.74937,3.00405 6.99696,4.75425c0.35516,0.27229 0.71206,0.54457 1.07941,0.82557c3.51676,2.94816 5.64422,7.38032 6.07251,11.90423c0.18803,4.75651 -1.00802,8.88957 -4.17136,12.48989c-2.76292,2.70896 -6.03595,4.08257 -9.61189,5.45098c3.48019,3.85799 7.77169,6.48337 12.14848,9.19581c5.94367,3.69608 10.3518,7.48618 12.14501,14.60848c0.78866,5.23161 -0.01915,9.7564 -2.86041,14.19413c-3.02058,4.08084 -7.77344,6.42592 -12.72998,7.17802c-1.41889,0.1062 -2.8256,0.11839 -4.24797,0.10272c-0.38127,-0.00174 -0.76255,-0.00349 -1.15601,-0.00522c-2.55749,-0.03134 -4.99659,-0.27856 -7.51403,-0.74687c-1.17516,-0.18107 -2.24237,-0.19324 -3.42797,-0.15494c-3.12503,0.07486 -6.20308,-0.7051 -9.18884,-1.58951c-1.35273,-0.12709 -1.90288,0.31511 -3.01188,1.07243c-3.36704,2.13095 -6.46422,2.5157 -10.41274,2.1501c-0.78344,-0.27856 -1.56165,-0.57104 -2.33116,-0.88093c-1.10377,-0.39346 -1.10377,-0.39346 -2.22844,-0.36212c-1.53727,0.95579 -2.68457,2.20058 -3.92241,3.51153c-1.12467,1.11596 -2.38339,2.05609 -3.64211,3.01537c-1.55469,1.19952 -3.08674,2.40254 -4.55786,3.70479c-1.14033,0.95753 -1.14033,0.95753 -1.96904,0.95753c0.03656,0.5188 0.03656,0.5188 0.07486,1.04807c0.23852,3.27825 0.47529,6.55824 0.7138,9.83822c0.12187,1.68525 0.24373,3.37052 0.36735,5.05578c0.11664,1.63129 0.23503,3.26258 0.35341,4.89386c0.04526,0.61804 0.09053,1.23609 0.13405,1.85239c0.28377,3.90499 0.56408,7.80825 0.84263,11.71325c0.38475,-0.13754 0.76951,-0.27507 1.16645,-0.41435c5.37438,-1.48157 10.92632,0.47006 15.88635,2.55574c2.89524,0.84436 5.93323,0.79214 8.9277,0.84611c0.32556,0.00696 0.65112,0.01219 0.98713,0.01915c1.36144,0.02264 2.72113,0.04526 4.08084,0.06094c3.56202,0.04004 6.84723,0.10272 10.27173,1.19952c1.44674,0.4422 2.84126,0.54667 4.34894,0.68072c5.13063,0.52925 11.32676,1.20126 14.8435,5.41268c0.02611,1.42586 0.02611,1.42586 -0.41435,2.9022c-4.36461,4.13306 -12.73345,3.6543 -18.37071,3.99727c-4.18007,0.25592 -8.2609,0.58323 -12.3783,1.36492c-12.97545,2.31027 -26.16504,2.21626 -39.30066,2.22669c-1.14556,0 -2.29286,0.00174 -3.43842,0.00522c-10.16552,0.01393 -20.20222,-0.29771 -30.32421,-1.30224c-3.87366,-0.38475 -7.72642,-0.58671 -11.61749,-0.69638c-26.10411,-0.7521 -26.10411,-0.7521 -33.02794,-4.69017c-0.75036,-0.9053 -0.75036,-0.9053 -1.03588,-2.33116c0.30467,-1.5808 0.68595,-2.18318 1.9969,-3.11286c3.12503,-1.75142 6.6592,-2.02997 10.1516,-2.45651c4.31238,-0.57452 8.12859,-1.33707 12.17635,-2.95269c1.01324,-0.38301 2.02824,-0.76255 3.04496,-1.1386c0.67376,-0.25071 1.34752,-0.50488 2.01779,-0.76255c3.48368,-1.31792 6.75148,-1.98992 10.47891,-1.98471c0.52055,-0.00174 0.52055,-0.00174 1.05154,-0.00349c2.25107,0.03656 3.79879,0.38301 5.77305,1.50246c1.76708,0.65983 3.63515,-0.0766 5.40223,-0.51359c1.76012,-0.30292 3.49761,-0.43524 5.2821,-0.4248c0.33078,0.00174 0.66331,0.00349 1.00454,0.00349c0.25071,0.00349 0.5014,0.00522 0.75906,0.00696c0.99758,-8.94859 1.96381,-17.88672 2.41472,-26.88058c0.06615,-1.20301 0.16365,-2.39906 0.26637,-3.59858c0.26811,-3.31655 0.26811,-3.31655 -0.97494,-6.32668c-1.06373,-0.99235 -2.14835,-1.7723 -3.36355,-2.56793c-0.72251,-0.57278 -1.43804,-1.15078 -2.1501,-1.73574c-0.34122,-0.26637 -0.68246,-0.53274 -1.03239,-0.80606c-1.11771,-0.90008 -2.15358,-1.86632 -3.17205,-2.87434c-0.69813,-0.47529 -0.69813,-0.47529 -1.63825,-0.30467c-1.31269,0.38824 -2.58708,0.84611 -3.87192,1.31618c-4.82075,1.67655 -10.37444,2.80122 -15.48941,2.33116c-0.43001,-0.0383 -0.8583,-0.0766 -1.29876,-0.11664c-4.23927,-0.51184 -7.61674,-1.90636 -10.72089,-4.85556c-0.41086,-0.61631 -0.41086,-0.61631 -0.8287,-1.24479c-0.4631,0.06094 -0.92445,0.12013 -1.39974,0.18107c-8.56035,1.06373 -16.92572,1.4659 -24.35094,-3.69434c-3.50457,-2.8256 -5.33085,-6.51994 -5.91059,-10.98552c-0.16888,-4.40291 0.97494,-8.65436 3.88758,-12.01095c2.90394,-2.94398 6.217,-4.92172 9.78774,-6.94474c5.01922,-2.85867 9.69198,-6.0255 13.84071,-10.06281c-0.33252,-0.1062 -0.33252,-0.1062 -0.67027,-0.21413c-1.02369,-0.33252 -2.04216,-0.68072 -3.06063,-1.03066c-0.34297,-0.10968 -0.68595,-0.22111 -1.03936,-0.33426c-3.88411,-1.37014 -6.40328,-3.55332 -8.28528,-7.22851c-1.87677,-4.02338 -2.11528,-8.37301 -0.63546,-12.60619c2.18839,-4.95497 6.19263,-7.95484 10.84102,-10.4749c0.76951,-0.42897 1.53902,-0.85865 2.30678,-1.28849c0.37431,-0.2077 0.74861,-0.41522 1.13337,-0.62919c4.32283,-2.4109 8.36884,-4.98423 12.25817,-8.05512c0.25941,-0.19551 0.5188,-0.39119 0.78691,-0.59263c1.61562,-1.25506 2.64802,-2.6945 3.77268,-4.3808c-0.24199,-0.07556 -0.48225,-0.15095 -0.72946,-0.22842c-4.47255,-1.43909 -7.33296,-2.98211 -9.53529,-7.26141c-1.36318,-3.23368 -1.10377,-6.60107 -0.09749,-9.91761c0.56756,-1.2185 1.24305,-2.26048 2.07175,-3.31568c0.16539,-0.21675 0.33078,-0.43315 0.5014,-0.65617c1.60344,-1.99898 3.38444,-3.3364 5.53454,-4.70619c0.32905,-0.21466 0.65808,-0.42932 0.99758,-0.6506c1.89417,-1.22912 3.80924,-2.42203 5.73824,-3.59772c10.12722,-6.19768 17.13115,-13.85777 23.43171,-23.84294c4.11914,-6.52185 10.85147,-17.05106 19.88013,-11.9044z" fill="#fcfdfd"/><path d="M358.11566,70.41154c4.37506,2.14262 7.24766,7.00096 9.78425,10.94948c2.80645,4.35695 5.71039,8.48479 9.27763,12.25904c0.26115,0.29387 0.52229,0.58775 0.79214,0.89051c4.95829,5.3399 11.62794,9.39132 17.79097,13.20212c10.87236,6.72972 10.87236,6.72972 12.91103,12.8461c0.14798,2.95861 -0.05571,5.39422 -1.99341,7.77064c-2.96488,3.19295 -6.71318,3.51119 -10.85321,3.83362c2.73681,7.87893 13.61787,13.23015 20.3711,17.17346c7.78561,4.55106 7.78561,4.55106 9.88,7.69283c0.35167,2.08673 0.24547,4.03139 -0.77647,5.90589c-2.35031,3.26832 -6.19785,4.54097 -9.99839,5.28333c-1.89417,0.18628 -3.7692,0.21762 -5.67207,0.20718c-0.5101,-0.00174 -1.02194,-0.00349 -1.54946,-0.00522c-4.05646,-0.07834 -7.28596,-0.67289 -11.01164,-2.27336c-0.54144,-0.21692 -1.08462,-0.43281 -1.62781,-0.64747c-4.47777,-1.81514 -4.47777,-1.81514 -5.8305,-3.08256c0,-0.41034 0,-0.82052 0,-1.2434c0.20543,-0.17932 0.40913,-0.35881 0.62153,-0.5437c0.90356,-1.01621 0.66331,-1.86998 0.62153,-3.18615c-0.2803,0.0087 -0.55885,0.01741 -0.84785,0.02611c-1.28831,0.03516 -2.57664,0.05641 -3.86669,0.07747c-0.43873,0.0141 -0.87919,0.02785 -1.33184,0.04231c-3.04669,0.03726 -5.31866,-0.4443 -8.04328,-1.80364c-0.44046,-0.21466 -0.87919,-0.42932 -1.33184,-0.65077c-2.70024,-1.5425 -4.86601,-3.30836 -7.12579,-5.43653c-2.02649,-1.80939 -3.9816,-3.11128 -6.74626,-3.26327c-1.83498,0.12727 -2.89001,0.63162 -4.27234,1.89069c-1.71659,2.00159 -2.66194,4.09129 -3.49761,6.57913c-1.83672,5.39648 -4.63098,8.64688 -9.42735,11.65614c-3.44364,0.90356 -7.326,1.03814 -10.53635,-0.65565c-0.48921,-0.29092 -0.48921,-0.29092 -0.98887,-0.58775c-0.73991,-0.4288 -1.47982,-0.85568 -2.22148,-1.28222c-0.51184,-0.2958 -1.02021,-0.59629 -1.5251,-0.90183c-1.37537,-0.81634 -2.53485,-1.35309 -4.1261,-1.54581c-0.29945,-0.03726 -0.59716,-0.07452 -0.9053,-0.11317c-4.70236,-0.21222 -8.96077,2.09335 -13.11473,4.05698c-1.3005,0.60917 -2.60798,1.191 -3.92937,1.75473c-0.37431,0.16034 -0.74861,0.32034 -1.13511,0.48573c-4.483,1.6386 -10.2195,2.29147 -14.79303,0.60273c-1.95162,-0.95788 -4.08084,-2.31027 -5.07667,-4.30037c-0.38127,-2.07767 -0.43524,-3.83153 0.67202,-5.67905c3.10067,-3.60364 7.23373,-5.75321 11.36506,-7.99071c5.22813,-2.83447 10.43538,-5.7936 14.61022,-10.09588c1.11771,-1.10064 1.11771,-1.10064 1.94641,-1.10064c0.10272,-0.22963 0.20369,-0.45961 0.3099,-0.69638c1.13511,-2.10031 2.89698,-4.52512 5.13412,-5.48631c0.60238,-0.1123 1.20824,-0.20178 1.81583,-0.27177c1.28135,-0.22024 2.30678,-0.72616 3.48891,-1.26446c4.24971,-1.67238 8.98341,-1.734 13.23485,-0.02629c1.109,0.52647 2.03345,1.04196 2.99273,1.80713c0.83044,0.69412 0.83044,0.69412 2.26501,0.52455c1.41018,-0.27385 1.41018,-0.27385 2.22669,-1.08828c0.60412,-1.31583 0.69465,-2.00542 0.44046,-3.44486c-1.08462,-2.11144 -2.62887,-3.09824 -4.81726,-3.91144c-4.90257,-1.39034 -8.42107,-0.58514 -13.00156,1.42481c-0.92098,0.38475 -1.84368,0.76429 -2.7664,1.14313c-0.61108,0.25071 -1.22041,0.50349 -1.82802,0.75837c-4.18355,1.74567 -8.37058,2.73402 -12.84837,1.4659c-2.36076,-1.07957 -3.66649,-2.35937 -4.93391,-4.61061c-0.82,-2.52058 -0.97668,-5.6625 0.02438,-8.12511c2.68806,-4.23561 6.90991,-6.58591 11.07954,-9.13452c4.20618,-2.58621 8.36014,-5.19923 12.10148,-8.43569c0.33775,-0.28795 0.6755,-0.57591 1.02543,-0.87257c5.23857,-4.57561 9.05653,-9.75779 12.68645,-15.62643c1.21869,-1.95773 2.48785,-3.87018 3.82317,-5.75112c0.24547,-0.35046 0.24547,-0.35046 0.49618,-0.70788c2.61842,-3.6381 5.77305,-7.25113 10.56246,-6.46719z" fill="#fcfdfd"/><path d="M361.08575,68.19268c3.10416,1.99881 5.2647,4.75076 7.22677,7.82306c0.4335,0.66174 0.867,1.32331 1.30224,1.98488c0.42828,0.65931 0.8583,1.31878 1.28831,1.97827c2.85694,4.37959 5.87229,8.28023 9.5318,12.01948c0.25418,0.27455 0.50837,0.54927 0.76951,0.83219c4.55786,4.83816 10.60599,8.45432 16.24151,11.89169c6.21004,3.80124 12.14848,7.70397 14.31774,15.03711c0.76776,3.745 -0.04526,7.2924 -2.09613,10.49247c-2.02824,2.55105 -4.63098,3.83466 -7.67942,4.85087c4.68843,4.66058 10.51197,8.13711 16.21366,11.40979c2.46347,1.4236 4.74937,3.00405 6.99696,4.75425c0.35516,0.27229 0.71206,0.54457 1.07941,0.82557c3.51676,2.94816 5.64422,7.38032 6.07251,11.90423c0.18803,4.75651 -1.00802,8.88957 -4.17136,12.48989c-2.76292,2.70896 -6.03595,4.08257 -9.61189,5.45098c3.48019,3.85799 7.77169,6.48337 12.14848,9.19581c5.94367,3.69608 10.3518,7.48618 12.14501,14.60848c0.78866,5.23161 -0.01915,9.7564 -2.86041,14.19413c-3.02058,4.08084 -7.77344,6.42592 -12.72998,7.17802c-1.41889,0.1062 -2.8256,0.11839 -4.24797,0.10272c-0.38127,-0.00174 -0.76255,-0.00349 -1.15601,-0.00522c-2.55749,-0.03134 -4.99659,-0.27856 -7.51403,-0.74687c-1.17516,-0.18107 -2.24237,-0.19324 -3.42797,-0.15494c-3.12503,0.07486 -6.20308,-0.7051 -9.18884,-1.58951c-1.35273,-0.12709 -1.90288,0.31511 -3.01188,1.07243c-3.36704,2.13095 -6.46422,2.5157 -10.41274,2.1501c-0.78344,-0.27856 -1.56165,-0.57104 -2.33116,-0.88093c-1.10377,-0.39346 -1.10377,-0.39346 -2.22844,-0.36212c-1.53727,0.95579 -2.68457,2.20058 -3.92241,3.51153c-1.12467,1.11596 -2.38339,2.05609 -3.64211,3.01537c-1.55469,1.19952 -3.08674,2.40254 -4.55786,3.70479c-1.14033,0.95753 -1.14033,0.95753 -1.96904,0.95753c0.03656,0.5188 0.03656,0.5188 0.07486,1.04807c0.23852,3.27825 0.47529,6.55824 0.7138,9.83822c0.12187,1.68525 0.24373,3.37052 0.36735,5.05578c0.11664,1.63129 0.23503,3.26258 0.35341,4.89386c0.04526,0.61804 0.09053,1.23609 0.13405,1.85239c0.28377,3.90499 0.56408,7.80825 0.84263,11.71325c0.38475,-0.13754 0.76951,-0.27507 1.16645,-0.41435c5.37438,-1.48157 10.92632,0.47006 15.88635,2.55574c2.89524,0.84436 5.93323,0.79214 8.9277,0.84611c0.32556,0.00696 0.65112,0.01219 0.98713,0.01915c1.36144,0.02264 2.72113,0.04526 4.08084,0.06094c3.56202,0.04004 6.84723,0.10272 10.27173,1.19952c1.44674,0.4422 2.84126,0.54667 4.34894,0.68072c5.13063,0.52925 11.32676,1.20126 14.8435,5.41268c0.02611,1.42586 0.02611,1.42586 -0.41435,2.9022c-4.36461,4.13306 -12.73345,3.6543 -18.37071,3.99727c-4.18007,0.25592 -8.2609,0.58323 -12.3783,1.36492c-12.97545,2.31027 -26.16504,2.21626 -39.30066,2.22669c-1.14556,0 -2.29286,0.00174 -3.43842,0.00522c-10.16552,0.01393 -20.20222,-0.29771 -30.32421,-1.30224c-3.87366,-0.38475 -7.72642,-0.58671 -11.61749,-0.69638c-26.10411,-0.7521 -26.10411,-0.7521 -33.02794,-4.69017c-0.75036,-0.9053 -0.75036,-0.9053 -1.03588,-2.33116c0.30467,-1.5808 0.68595,-2.18318 1.9969,-3.11286c3.12503,-1.75142 6.6592,-2.02997 10.1516,-2.45651c4.31238,-0.57452 8.12859,-1.33707 12.17635,-2.95269c1.01324,-0.38301 2.02824,-0.76255 3.04496,-1.1386c0.67376,-0.25071 1.34752,-0.50488 2.01779,-0.76255c3.48368,-1.31792 6.75148,-1.98992 10.47891,-1.98471c0.52055,-0.00174 0.52055,-0.00174 1.05154,-0.00349c2.25107,0.03656 3.79879,0.38301 5.77305,1.50246c1.76708,0.65983 3.63515,-0.0766 5.40223,-0.51359c1.76012,-0.30292 3.49761,-0.43524 5.2821,-0.4248c0.33078,0.00174 0.66331,0.00349 1.00454,0.00349c0.25071,0.00349 0.5014,0.00522 0.75906,0.00696c0.99758,-8.94859 1.96381,-17.88672 2.41472,-26.88058c0.06615,-1.20301 0.16365,-2.39906 0.26637,-3.59858c0.26811,-3.31655 0.26811,-3.31655 -0.97494,-6.32668c-1.06373,-0.99235 -2.14835,-1.7723 -3.36355,-2.56793c-0.72251,-0.57278 -1.43804,-1.15078 -2.1501,-1.73574c-0.34122,-0.26637 -0.68246,-0.53274 -1.03239,-0.80606c-1.11771,-0.90008 -2.15358,-1.86632 -3.17205,-2.87434c-0.69813,-0.47529 -0.69813,-0.47529 -1.63825,-0.30467c-1.31269,0.38824 -2.58708,0.84611 -3.87192,1.31618c-4.82075,1.67655 -10.37444,2.80122 -15.48941,2.33116c-0.43001,-0.0383 -0.8583,-0.0766 -1.29876,-0.11664c-4.23927,-0.51184 -7.61674,-1.90636 -10.72089,-4.85556c-0.41086,-0.61631 -0.41086,-0.61631 -0.8287,-1.24479c-0.4631,0.06094 -0.92445,0.12013 -1.39974,0.18107c-8.56035,1.06373 -16.92572,1.4659 -24.35094,-3.69434c-3.50457,-2.8256 -5.33085,-6.51994 -5.91059,-10.98552c-0.16888,-4.40291 0.97494,-8.65436 3.88758,-12.01095c2.90394,-2.94398 6.217,-4.92172 9.78774,-6.94474c5.01922,-2.85867 9.69198,-6.0255 13.84071,-10.06281c-0.33252,-0.1062 -0.33252,-0.1062 -0.67027,-0.21413c-1.02369,-0.33252 -2.04216,-0.68072 -3.06063,-1.03066c-0.34297,-0.10968 -0.68595,-0.22111 -1.03936,-0.33426c-3.88411,-1.37014 -6.40328,-3.55332 -8.28528,-7.22851c-1.87677,-4.02338 -2.11528,-8.37301 -0.63546,-12.60619c2.18839,-4.95497 6.19263,-7.95484 10.84102,-10.4749c0.76951,-0.42897 1.53902,-0.85865 2.30678,-1.28849c0.37431,-0.2077 0.74861,-0.41522 1.13337,-0.62919c4.32283,-2.4109 8.36884,-4.98423 12.25817,-8.05512c0.25941,-0.19551 0.5188,-0.39119 0.78691,-0.59263c1.61562,-1.25506 2.64802,-2.6945 3.77268,-4.3808c-0.24199,-0.07556 -0.48225,-0.15095 -0.72946,-0.22842c-4.47255,-1.43909 -7.33296,-2.98211 -9.53529,-7.26141c-1.36318,-3.23368 -1.10377,-6.60107 -0.09749,-9.91761c0.56756,-1.2185 1.24305,-2.26048 2.07175,-3.31568c0.16539,-0.21675 0.33078,-0.43315 0.5014,-0.65617c1.60344,-1.99898 3.38444,-3.3364 5.53454,-4.70619c0.32905,-0.21466 0.65808,-0.42932 0.99758,-0.6506c1.89417,-1.22912 3.80924,-2.42203 5.73824,-3.59772c10.12722,-6.19768 17.13115,-13.85777 23.43171,-23.84294c4.11914,-6.52185 10.85147,-17.05106 19.88013,-11.9044zM351.83772,72.10411c-0.32382,0.23677 -0.64764,0.47337 -0.98191,0.71727c-1.26046,1.08637 -2.17448,2.30086 -3.11112,3.66057c-0.17932,0.25662 -0.36037,0.51323 -0.54493,0.77752c-1.82106,2.61406 -3.52024,5.29969 -5.18635,8.01351c-5.53628,8.90367 -12.71082,15.51344 -21.52187,21.02953c-1.79494,1.12589 -3.5777,2.26848 -5.36045,3.41439c-0.33949,0.21466 -0.68072,0.42968 -1.03066,0.65112c-5.05752,3.24483 -5.05752,3.24483 -8.26787,8.1561c-0.38475,2.97219 -0.32382,5.69593 1.24305,8.28929c1.89592,2.33012 3.87539,3.5333 6.84201,3.91963c4.07387,0.17114 7.22851,-0.67445 10.93677,-2.29652c1.25175,-0.54545 2.51744,-1.05694 3.78313,-1.5721c0.90356,-0.36978 1.80364,-0.74479 2.70547,-1.12153c3.88237,-1.59613 7.60107,-1.35238 11.52174,0.10359c1.65044,0.82974 2.73158,1.81113 3.58466,3.45373c0.28552,1.29476 0.28552,1.29476 0,2.48681c-0.85481,1.21728 -0.85481,1.21728 -2.07175,2.07227c-2.20929,0.08339 -3.61077,-0.73451 -5.35174,-1.96747c-3.18076,-1.90811 -7.22851,-1.82437 -10.81317,-1.34821c-1.70268,0.45265 -3.24691,1.14799 -4.83641,1.90201c-1.38059,0.58479 -1.38059,0.58479 -2.85345,0.71727c-1.93247,0.38093 -2.65847,1.27666 -3.88933,2.74254c-0.20369,0.22842 -0.40913,0.45683 -0.61978,0.69221c-1.12292,1.15601 -1.12292,1.15601 -1.47808,2.64958c-0.23677,0.10237 -0.47354,0.20491 -0.71727,0.31094c-1.08811,0.59889 -1.83498,1.31217 -2.7281,2.17587c-4.45862,4.05176 -9.60144,6.87109 -14.93578,9.60807c-4.28974,2.24359 -9.46391,5.44105 -11.26408,10.22768c-0.78344,3.54497 -0.45091,6.91514 1.46067,10.00536c1.9377,2.79774 4.57875,4.5683 7.87615,5.3883c1.64174,0.09749 3.2765,0.07834 4.91999,0.05223c0.66679,-0.00696 0.66679,-0.00696 1.34577,-0.01219c1.08811,-0.0087 2.17795,-0.02264 3.26606,-0.04004c-1.17516,2.26152 -2.50525,3.94852 -4.32631,5.72431c-0.25418,0.25071 -0.5101,0.50314 -0.77299,0.7608c-4.23752,4.10346 -8.96947,7.22154 -14.04093,10.21079c-7.91793,4.41685 -7.91793,4.41685 -12.60985,11.87864c-0.64938,3.38097 -0.28726,6.59131 1.49376,9.55618c2.99447,3.75528 6.47815,5.88797 11.19095,6.63135c1.46242,0.11839 2.91264,0.13754 4.37853,0.12883c0.59889,-0.00174 0.59889,-0.00174 1.20997,-0.00522c3.21382,-0.05049 6.19263,-0.43873 9.32812,-1.1769c0.90008,-0.20543 1.80364,-0.38127 2.70896,-0.55537c3.04844,-0.60063 5.7365,-1.2709 8.51161,-2.69153c2.03694,-1.01498 3.02058,-1.24305 5.15849,-0.53797c5.94367,1.60344 11.51129,-0.82521 16.82821,-3.21035c8.08506,-3.61251 16.33205,-4.38202 24.75137,-1.41714c2.33116,0.90008 4.53349,2.04912 6.73233,3.23472c1.33184,0.7138 2.68457,1.38582 4.03731,2.05956c0.46484,0.23503 0.92794,0.47006 1.40671,0.71206c1.51465,0.72946 2.57838,1.01498 4.23752,0.95753c4.75633,-0.05398 7.62718,0.27856 11.14047,3.60032c2.04912,1.78798 4.27931,2.04041 6.91687,1.98296c3.66996,-0.53448 6.54605,-2.70372 9.02345,-5.34478c1.35795,-0.93664 2.20058,-0.83915 3.82665,-0.63893c1.19082,0.43176 2.2946,0.99583 3.41927,1.5808c6.63832,3.29218 14.29511,4.69017 21.55147,2.58012c4.28974,-1.62085 7.01611,-4.02686 8.96251,-8.14947c1.39974,-3.64385 1.42063,-6.97085 0.02611,-10.61991c-3.00143,-6.31798 -8.41063,-9.34901 -14.15931,-12.87448c-3.43493,-2.13443 -6.53909,-4.52826 -9.02519,-7.74557c-0.35864,-0.35864 -0.71727,-0.71902 -1.08811,-1.08811c-0.84611,-0.84611 -1.57384,-1.64348 -2.22669,-2.64279c0,-0.27333 0,-0.54667 0,-0.8287c0.36037,-0.03481 0.72076,-0.07138 1.09333,-0.10794c5.01922,-0.59193 9.54399,-1.79842 12.99808,-5.69471c2.23192,-3.06759 2.87434,-6.22362 2.4861,-9.94634c-1.27788,-5.81083 -5.24206,-9.26944 -10.01232,-12.36976c-1.65915,-1.04076 -3.37052,-1.98732 -5.08014,-2.93981c-4.2027,-2.37677 -8.17907,-5.18409 -11.8473,-8.31488c-0.36386,-0.30797 -0.72598,-0.61596 -1.1003,-0.93246c-2.01256,-1.75159 -3.72045,-3.41822 -5.11672,-5.69889c0,-0.27403 0,-0.54754 0,-0.82905c0.38475,-0.04544 0.76951,-0.09105 1.16645,-0.13789c4.10695,-0.52647 6.98304,-1.10464 10.02451,-4.00667c1.60866,-2.21938 2.06479,-4.74885 1.6574,-7.46023c-2.27718,-6.59828 -7.98061,-9.7644 -13.56913,-13.24199c-3.93982,-2.45651 -7.68986,-4.97152 -11.29889,-7.896c-0.59889,-0.47267 -0.59889,-0.47267 -1.21171,-0.9551c-6.1317,-4.89613 -10.52416,-10.70679 -14.8052,-17.21157c-3.95722,-6.35906 -3.95722,-6.35906 -9.67979,-10.84555c-2.57664,-0.4389 -4.16614,-0.01985 -6.217,1.65775z" fill="#4a5d63"/><path d="M389.24246,274.4386c2.89524,0.84436 5.93148,0.79214 8.92596,0.84785c0.48921,0.0087 0.48921,0.0087 0.98713,0.01741c1.35969,0.02438 2.7194,0.047 4.08084,0.06094c3.56202,0.04179 6.8455,0.10272 10.26999,1.20126c1.44674,0.4422 2.84126,0.5484 4.34894,0.68246c5.12889,0.52925 11.32501,1.20301 14.84003,5.41964c0.02611,1.42759 0.02611,1.42759 -0.41435,2.90568c-4.36287,4.14003 -12.73171,3.65951 -18.36723,4.0025c-4.18007,0.25766 -8.25916,0.58323 -12.37655,1.36667c-12.97545,2.31375 -26.16156,2.21973 -39.29544,2.23018c-1.1473,0 -2.29286,0.00174 -3.43842,0.00522c-10.16378,0.01393 -20.20048,-0.29771 -30.32074,-1.30399c-3.87192,-0.38475 -7.72469,-0.58671 -11.61575,-0.69813c-26.10062,-0.75385 -26.10062,-0.75385 -33.02272,-4.69539c-0.7521,-0.90704 -0.7521,-0.90704 -1.03762,-2.3329c0.30641,-1.58429 0.68768,-2.18667 1.9969,-3.11982c3.12503,-1.75315 6.6592,-2.03171 10.1516,-2.45825c4.31064,-0.57452 8.12511,-1.3388 12.17286,-2.95617c1.01324,-0.38475 2.02997,-0.76429 3.04669,-1.14033c0.67376,-0.25071 1.34577,-0.50488 2.01779,-0.76429c3.48194,-1.31965 6.74974,-1.99167 10.47542,-1.98645c0.52055,-0.00174 0.52055,-0.00174 1.05154,-0.00349c2.25282,0.03656 3.79879,0.38301 5.77305,1.5042c1.76708,0.66157 3.63515,-0.07486 5.40223,-0.51533c2.34857,-0.4039 4.66754,-0.46484 7.04396,-0.41435c-0.05745,0.80433 -0.11839,1.60866 -0.18107,2.41299c-0.05049,0.67027 -0.05049,0.67027 -0.10098,1.35622c-0.13232,1.20997 -0.13232,1.20997 -0.54667,2.45651c-0.02785,0.64764 -0.03481,1.29703 -0.02611,1.94466c0.00522,0.33601 0.0087,0.67027 0.01219,1.01673c0.00522,0.25418 0.01045,0.5101 0.01393,0.77299c3.54636,1.61389 7.11534,1.30747 10.70349,0.0383c1.734,-0.65461 3.45583,-1.34403 5.17938,-2.02824c5.20027,-2.05956 10.08022,-2.32942 15.61301,-2.16054c-0.13754,-1.91681 -0.27333,-3.83362 -0.41435,-5.80962c5.78003,-2.05783 11.61053,-0.14624 17.05106,2.14488z" fill="#fbfbfb"/><path d="M363.55966,146.25203c2.38687,1.01133 4.25842,2.55053 6.13866,4.31012c4.25667,3.97168 8.90332,6.68375 14.77735,6.53996c0.59716,-0.0242 0.59716,-0.0242 1.20475,-0.04875c0.80606,-0.03169 1.61389,-0.05797 2.41995,-0.07782c0.35167,-0.01445 0.70336,-0.02889 1.06547,-0.04387c0.91923,0.12169 0.91923,0.12169 1.67308,0.66697c0.48921,0.70109 0.48921,0.70109 0.36037,2.02527c-0.14102,0.57835 -0.14102,0.57835 -0.28552,1.16836c-0.41086,0.13718 -0.82,0.2742 -1.24305,0.41539c0,0.4114 0,0.82261 0,1.24654c2.1675,1.11283 4.3977,2.0775 6.65399,2.99377c0.75557,0.30884 1.5042,0.6311 2.25282,0.9544c3.68215,1.39295 7.13449,1.65549 11.06386,1.68613c0.48225,0.00609 0.96449,0.01219 1.46067,0.01846c4.39247,-0.05171 8.58646,-0.88129 12.13804,-3.5756c0.27507,0 0.5484,0 0.83044,0c0.11839,-0.24008 0.23852,-0.47998 0.36212,-0.72703c0.28552,-0.57313 0.58148,-1.14155 0.89312,-1.70075c0.4422,-0.98765 0.56582,-1.7939 0.66157,-2.86911c0.0296,-0.332 0.06094,-0.664 0.09401,-1.00611c0.01915,-0.25071 0.04004,-0.50123 0.06094,-0.75958c1.9969,1.74428 2.70721,4.4245 3.06411,6.98617c0.14277,3.73229 -0.97147,6.65887 -3.2974,9.55409c-3.26606,3.45583 -7.99628,4.64143 -12.5994,4.91999c-0.27856,0.047 -0.55712,0.09401 -0.84436,0.14277c-0.13754,0.27333 -0.27333,0.5484 -0.41435,0.83044c-6.61046,0.53622 -14.51273,-1.27265 -19.74434,-5.53803c-0.21239,-0.18628 -0.42654,-0.37256 -0.64591,-0.56582c-2.4478,-2.02126 -5.57807,-1.55817 -8.62129,-1.37363c-3.65255,0.69813 -6.78282,2.79077 -9.71461,4.9844c-5.69124,4.20444 -12.14848,5.90189 -19.16808,5.89493c-0.32382,0 -0.64764,0 -0.98191,-0.00174c-2.80819,-0.0296 -5.51365,-0.34297 -8.26613,-0.90704c-0.4248,-0.08009 -0.4248,-0.08009 -0.86004,-0.16017c-2.27718,-0.45614 -4.25667,-1.18386 -6.34062,-2.20233c-0.30467,-0.14624 -0.60934,-0.29248 -0.92272,-0.44395c-2.8256,-1.38233 -5.46839,-2.99969 -8.02066,-4.8399c-4.07735,-2.81689 -8.98166,-3.65604 -13.82156,-3.03103c-3.57247,0.79562 -6.58784,3.20686 -9.55967,5.24555c-0.6755,0.44569 -0.6755,0.44569 -1.5042,0.86178c0,-0.27333 0,-0.5484 0,-0.83044c-0.40216,0.01219 -0.40216,0.01219 -0.80955,0.02611c-1.2326,0.03481 -2.46521,0.05571 -3.69781,0.0766c-0.41957,0.01393 -0.83915,0.02785 -1.27265,0.04353c-4.15395,0.05223 -7.45135,-1.01847 -10.51197,-3.88237c-1.15426,-1.37363 -1.75664,-2.89871 -2.35901,-4.57353c-0.13579,-0.27333 -0.27333,-0.54788 -0.41435,-0.83026c-0.05049,-0.8731 -0.07313,-1.74793 -0.07834,-2.6226c-0.0087,-0.7044 -0.0087,-0.7044 -0.01741,-1.42325c0.09401,-1.32662 0.36037,-2.23888 0.92445,-3.43215c0.8287,1.24636 0.8287,1.24636 0.75036,2.41472c0.08705,1.47895 0.4805,2.15689 1.47634,3.24082c3.82492,3.26379 8.80408,2.93649 13.52211,2.65271c1.60866,-0.24373 3.04496,-0.65983 4.5596,-1.24584c0.37256,-0.14136 0.74687,-0.28273 1.13163,-0.42828c1.90636,-0.76324 3.76745,-1.60918 5.6216,-2.49273c0.30815,-0.14781 0.61978,-0.29544 0.93838,-0.4476c0.60759,-0.29161 1.2152,-0.58566 1.81932,-0.88268c3.7309,-1.80138 7.3556,-2.72931 11.41902,-1.51291c1.79842,0.66958 3.36529,1.64714 4.99484,2.6501c3.62122,2.21765 6.66965,2.81532 10.96115,2.28329c1.5425,-0.49531 2.80645,-1.16888 4.14525,-2.07715c0.43524,-0.29144 0.87223,-0.58271 1.32139,-0.88285c2.69328,-2.47235 4.14525,-5.78194 5.33607,-9.16568c1.11422,-3.1663 2.36597,-5.37733 4.8695,-7.6077c1.78275,-0.84089 3.11633,-1.027 5.05055,-0.62309z" fill="#d6e9f1"/><path d="M349.84606,213.78147c5.26817,0.4805 5.26817,0.4805 7.99106,1.58255c0.27507,0.10272 0.55014,0.20543 0.83219,0.31163c1.77579,0.69117 3.28173,1.54425 4.83293,2.67064c0.3865,0.22981 0.77125,0.46135 1.16992,0.69813c1.35273,1.45023 1.2065,2.82907 1.20824,4.74937c-0.07138,2.32942 -0.07138,2.32942 0.51707,4.51434c2.62713,-0.13928 4.4917,-1.53206 6.64703,-2.90568c0.72772,-0.46135 1.45719,-0.91923 2.18667,-1.37537c0.32034,-0.20369 0.64068,-0.40739 0.97147,-0.61631c1.02892,-0.53797 1.87154,-0.7817 3.02407,-0.914c1.16297,0.38997 1.16297,0.38997 2.06827,0.83044c0,0.41086 0,0.82174 0,1.24479c0.54667,0 1.09158,0 1.65566,0c0.40913,1.02717 0.40913,1.02717 0.82696,2.07524c-2.66717,2.51744 -5.40398,4.87297 -8.30094,7.11883c-1.3005,1.00802 -2.56968,2.03345 -3.80228,3.12852c-1.1386,0.95928 -1.1386,0.95928 -1.96556,0.95928c0.25418,3.59162 0.5101,7.18151 0.76602,10.77313c0.12013,1.66785 0.23852,3.3357 0.3569,5.00355c0.13579,1.929 0.27333,3.85799 0.41261,5.78699c0.02264,0.31337 0.04526,0.62676 0.0679,0.94883c0.289,3.98682 0.60412,7.96842 1.05328,11.93958c0.21588,1.95337 0.26986,3.84754 0.24026,5.80788c-0.68421,0.01741 -0.68421,0.01741 -1.38233,0.03308c-6.30405,0.20892 -11.66276,1.42237 -17.49848,3.8075c-3.54287,1.43282 -6.64354,2.26501 -10.49978,1.55642c-1.41018,-0.64068 -1.41018,-0.64068 -2.48263,-1.24654c-0.1149,-2.23367 0.05049,-4.12261 0.57278,-6.30057c0.79562,-3.61426 1.1682,-7.24243 1.52335,-10.92285c0.03308,-0.35167 0.0679,-0.70336 0.10445,-1.06547c0.61282,-6.19089 1.14033,-12.38178 1.45197,-18.59704c0.06615,-1.20126 0.16192,-2.39557 0.26637,-3.59336c0.26811,-3.32351 0.26811,-3.32351 -0.9732,-6.33887c-1.06199,-0.99235 -2.14662,-1.77404 -3.35833,-2.57315c-0.72076,-0.57278 -1.43631,-1.15252 -2.14662,-1.73749c-0.33949,-0.26811 -0.67898,-0.53448 -1.02892,-0.81129c-0.88615,-0.71032 -1.74097,-1.44501 -2.5923,-2.1971c-1.17341,-1.11771 -1.17341,-1.11771 -2.50874,-1.47982c-0.5014,-0.60238 -0.5014,-0.60238 -0.98364,-1.34752c-0.92619,-1.37014 -1.97077,-2.47566 -3.15463,-3.63341c-0.4248,-0.54318 -0.84436,-1.09333 -1.24131,-1.65915c1.02194,-1.02369 1.95337,-1.2065 3.31133,-1.66089c0.27158,-0.27333 0.54493,-0.54667 0.82696,-0.83044c1.40322,-0.16539 2.19884,-0.17584 3.4123,0.58148c0.29945,0.26986 0.59889,0.54144 0.90704,0.82c1.72183,1.4659 3.48019,2.78555 5.35349,4.04601c0.3569,0.24722 0.3569,0.24722 0.72076,0.49792c2.3921,1.59821 4.76677,2.69676 7.39913,4.01642c0.61457,-6.77933 0.61457,-6.77933 1.24131,-13.69622z" fill="#7e5942"/><path d="M376.81889,212.17108c5.07144,2.75943 10.92458,5.84095 16.81429,4.12261c1.74619,-0.99932 2.9492,-2.22844 4.30368,-3.6926c0.3952,-0.39869 0.79214,-0.79562 1.19256,-1.18909c0.29075,-0.289 0.58148,-0.57974 0.88093,-0.87745c0.41609,-0.41261 0.41609,-0.41261 1.46763,-0.5101c1.78972,0.12013 3.26084,0.63023 4.93739,1.2326c8.75882,3.02581 16.82299,5.07319 25.54178,0.92968c2.18492,-1.25175 3.85103,-2.66891 4.97744,-4.95829c0.16539,-0.97494 0.25766,-1.92377 0.30118,-2.9109c0.1149,-0.80781 0.1149,-0.80781 0.9436,-1.63304c1.80364,3.55158 2.36597,6.94299 1.29354,10.83058c-1.69919,4.44296 -4.0199,6.95866 -8.36188,8.92421c-7.16583,2.86215 -15.0594,1.23609 -21.97278,-1.57557c-0.75732,-0.37779 -1.50942,-0.76429 -2.25629,-1.16122c-1.73053,-0.87223 -2.83604,-1.39278 -4.79637,-0.90356c-1.06896,0.867 -2.04739,1.80364 -3.04148,2.75247c-2.68109,2.33812 -5.62507,3.37748 -9.17665,3.17205c-2.86041,-0.37954 -4.26538,-1.26916 -6.32147,-3.29044c-2.55226,-2.20754 -4.83293,-2.10484 -8.10944,-2.12573c-3.82665,-0.04004 -6.43462,-1.13163 -9.71287,-3.03799c-0.55014,-0.3186 -1.1003,-0.63893 -1.65044,-0.95753c-0.27507,-0.16017 -0.55014,-0.32034 -0.83393,-0.48573c-7.35386,-4.15744 -16.39124,-5.72083 -24.6295,-3.46453c-1.81932,0.63719 -3.59685,1.35622 -5.36741,2.11354c-1.23086,0.52578 -2.46695,1.03936 -3.70304,1.55121c-0.61282,0.25418 -1.22216,0.5101 -1.83149,0.76776c-2.58708,1.07766 -4.65883,1.41541 -7.45658,1.42933c-0.27681,0.00174 -0.55363,0.00349 -0.84089,0.00522c-1.5425,-0.00696 -2.83604,-0.15843 -4.29323,-0.65112c-1.69396,-0.43699 -2.53659,-0.01566 -4.07039,0.77474c-2.78903,1.43456 -5.60592,2.13095 -8.66133,2.81515c-0.46484,0.10445 -0.92968,0.20892 -1.40844,0.3186c-7.20762,1.57384 -16.27458,2.89524 -22.83631,-1.17167c-3.14767,-2.28763 -5.38308,-4.48822 -6.32668,-8.3671c-0.23677,-2.25803 -0.33949,-4.19225 0.83044,-6.19785c0.13754,0.48573 0.27333,0.97147 0.41435,1.47286c0.97147,2.53834 2.80992,4.05646 5.21595,5.25772c8.0694,3.3357 16.95879,1.28831 24.73397,-1.90113c2.13618,-0.88964 4.24971,-1.81409 6.33364,-2.82037c3.85973,-1.84543 7.37997,-2.86911 11.67147,-1.72183c0.94883,0.33252 0.94883,0.33252 1.72355,0.68246c2.9579,0.85481 5.64771,-0.01741 8.48201,-0.89138c0.77995,-0.22807 1.55991,-0.45614 2.33986,-0.68246c1.19952,-0.35341 2.39557,-0.71206 3.59162,-1.07592c13.84767,-3.77616 27.76847,2.61494 39.668,9.10179z" fill="#d6e9f1"/><path d="M363.94269,153.74829c1.07592,0.81738 1.07592,0.81738 2.09613,1.86842c5.3587,5.14631 11.2397,8.29363 18.73632,8.39704c0.34645,0.00522 0.69117,0.01028 1.04807,0.01549c0.3099,-0.00017 0.62153,-0.00035 0.94187,-0.00052c0.77474,0.0994 0.77474,0.0994 1.60344,0.92985c0.16539,0.46241 0.16539,0.46241 0.33601,0.93421c0.63372,1.47321 1.5042,2.43196 2.56097,3.63324c-0.77647,2.02301 -0.77647,2.02301 -1.24131,2.49133c-0.78344,0.047 -1.56687,0.09053 -2.35031,0.12013c-5.76261,0.21066 -9.75291,1.80364 -14.39085,5.27687c-5.68601,4.20095 -12.13456,5.89841 -19.14718,5.89144c-0.32382,-0.00174 -0.64764,-0.00174 -0.98017,-0.00174c-2.8047,-0.0296 -5.50669,-0.34297 -8.25568,-0.90704c-0.28377,-0.05398 -0.56756,-0.1062 -0.86004,-0.16017c-2.27545,-0.45614 -4.25144,-1.18386 -6.33364,-2.20233c-0.30292,-0.1445 -0.60586,-0.29075 -0.91749,-0.44046c-2.5244,-1.23435 -4.89212,-2.65847 -7.20762,-4.25493c-0.40913,-0.27507 -0.81825,-0.5484 -1.24131,-0.83044c-0.12883,-1.24654 -0.12883,-1.24654 0,-2.49133c0.27333,-0.27507 0.54667,-0.5484 0.8287,-0.83044c2.50874,0.13232 4.68669,0.80433 7.037,1.66089c3.95548,1.32139 8.27135,0.32207 12.00573,-1.24654c4.76677,-2.48785 6.61569,-5.7868 8.28005,-10.79471c0.19499,-0.67758 0.19499,-0.67758 0.39346,-1.36875c0.71206,-2.43057 1.37014,-4.1019 3.30088,-5.7755c1.37711,-0.52769 2.34857,-0.27542 3.75701,0.08601z" fill="#485d63"/><path d="M350.27956,228.40736c1.36492,0.23503 2.05956,0.55885 2.9109,1.65566c0.13928,0.99409 0.13928,0.99409 0.11664,2.18667c-0.00696,0.44918 -0.01219,0.89834 -0.01741,1.35969c-0.01393,0.48748 -0.02611,0.97494 -0.04004,1.47808c-0.0087,0.50663 -0.01741,1.01498 -0.02611,1.53727c-0.02611,1.35795 -0.05745,2.71591 -0.09228,4.07387c-0.03134,1.34229 -0.05223,2.68457 -0.07486,4.02686c-0.16365,8.48897 -0.60759,16.92223 -1.9969,25.30848c-0.66853,4.0025 -0.66853,4.0025 -0.77995,8.04676c4.08606,-6.0464 3.80228,-11.89431 3.78313,-18.95394c-0.00174,-0.79214 -0.00174,-1.58429 -0.00174,-2.37642c-0.00174,-2.0735 -0.00696,-4.14699 -0.01045,-6.21874c-0.00522,-2.1205 -0.00696,-4.241 -0.0087,-6.35977c-0.00522,-4.15221 -0.01219,-8.30269 -0.02089,-12.45316c0.27507,-0.13579 0.5484,-0.27333 0.83219,-0.41435c0.80955,1.04111 1.61389,2.08569 2.41646,3.13027c0.22633,0.29248 0.45439,0.58323 0.68942,0.88441c2.04739,2.68109 3.16335,5.2055 3.80575,8.53424c0.09924,0.5014 0.19847,1.00279 0.30118,1.52161c1.87328,10.86713 0.50314,22.2287 -0.56233,33.11847c0.68595,0 1.37188,0 2.07871,0c0,0.13754 0,0.27333 0,0.41435c-0.39346,0.08705 -0.78691,0.17236 -1.19082,0.26115c-3.21731,0.73642 -6.19089,1.65566 -9.22714,2.94746c-3.41578,1.43108 -6.264,1.68525 -9.95139,1.34577c0.27507,-0.13754 0.5484,-0.27333 0.83219,-0.41435c-0.01741,-0.44569 -0.03308,-0.88964 -0.04875,-1.34752c0,-2.34335 0.42828,-4.60313 0.82696,-6.90642c0.99062,-5.95586 1.75489,-11.81075 1.98992,-17.84668c0.01915,-0.48921 0.01915,-0.48921 0.0383,-0.98887c0.01045,-0.28377 0.02089,-0.56929 0.03134,-0.86178c0.05919,-0.86004 0.16192,-1.71485 0.27507,-2.56793c0.23503,-1.81583 0.32207,-3.62122 0.38997,-5.44924c0.03134,-0.70161 0.06268,-1.40322 0.09401,-2.10658c0.047,-1.08811 0.09228,-2.17795 0.13232,-3.26606c0.39346,-10.1429 0.39346,-10.1429 2.50525,-13.29927z" fill="#a17050"/><path d="M347.30772,210.13937c0.31337,-0.00522 0.62676,-0.01045 0.94883,-0.01566c2.16577,-0.00522 4.01642,0.32207 6.09861,0.91749c-0.23852,1.18212 -0.3569,1.59125 -1.24305,2.47391c-1.07418,0.05919 -2.0909,0.0766 -3.16161,0.05049c-1.51291,-0.02438 -1.51291,-0.02438 -3.05714,-0.05049c-0.13579,3.26431 -0.27333,6.52864 -0.41435,9.89219c-3.49413,-1.38929 -6.24485,-3.50979 -9.14879,-5.85663c-1.38407,-0.84089 -2.10831,-0.96102 -3.7013,-0.73817c-0.27333,0.27158 -0.54667,0.54318 -0.8287,0.82348c-0.8287,0.27507 -1.6574,0.55014 -2.48785,0.82521c-0.27333,0.27158 -0.54667,0.54318 -0.8287,0.82348c-0.82174,0.29422 -1.65044,0.57278 -2.4861,0.82521c0.34122,0.39171 0.68246,0.7817 1.03588,1.1856c1.03588,1.18386 1.03588,1.18386 1.03588,2.1118c0.61631,0.20369 0.61631,0.20369 1.24305,0.41261c-0.13579,0.40739 -0.27333,0.81651 -0.41435,1.23609c-0.94013,0.42131 -1.81757,0.7521 -2.79774,1.05677c-0.28203,0.08879 -0.56408,0.17758 -0.85481,0.26986c-3.97637,1.21171 -7.85004,1.62432 -11.99528,1.66263c-0.48399,0.00522 -0.48399,0.00522 -0.98017,0.01045c-3.13723,-0.01741 -6.08991,-0.34297 -8.68222,-2.22669c-0.31337,-0.22284 -0.62676,-0.44395 -0.94883,-0.67376c-0.22458,-0.16888 -0.45091,-0.33775 -0.68421,-0.51184c0.13754,-0.54318 0.27333,-1.08811 0.41435,-1.6487c0.27333,0 0.54667,0 0.8287,0c0,-0.40739 0,-0.81651 0,-1.23609c-1.02543,-0.40739 -1.02543,-0.40739 -2.07175,-0.82521c1.05851,-1.57906 1.67481,-1.55991 3.49761,-2.00907c1.98992,-0.51707 3.72219,-1.11596 5.54324,-2.06131c1.90113,-0.90183 2.84475,-0.92098 4.81901,-0.31337c6.02027,1.48678 11.47821,-0.80781 16.85955,-3.20686c4.80333,-2.13443 9.21147,-3.19816 14.46224,-3.20339z" fill="#4e6b73"/><path d="M361.84481,157.53908c0.95928,0.40895 1.91681,0.8179 2.90394,1.23923c0.55363,4.84059 0.96275,9.58125 0.83044,14.45597c1.95511,-1.22041 3.59336,-2.59927 5.26295,-4.1818c2.4687,-2.32786 2.4687,-2.32786 3.86322,-3.25283c2.57664,0.08688 4.41336,0.79946 6.63658,2.06496c-0.53622,2.87138 -3.12156,4.94662 -5.39179,6.60751c-0.96102,0.43001 -1.929,0.84436 -2.90394,1.23956c-0.39869,0.32034 -0.39869,0.32034 -0.80433,0.64591c-1.29528,0.89834 -2.63757,1.08811 -4.17484,1.41889c0,0.27333 0,0.54667 0,0.82696c-0.68421,0 -1.3684,0 -2.0735,0c0,0.40913 0,0.81825 0,1.23956c-0.40216,0.11839 -0.80433,0.23852 -1.21869,0.36037c-1.31443,0.31686 -1.31443,0.31686 -1.68525,1.29005c-2.95617,0.79562 -6.05161,0.90879 -9.10005,0.92968c-0.29422,0.00349 -0.58844,0.0087 -0.89138,0.01219c-1.80017,-0.01045 -3.2678,-0.28377 -4.94261,-0.94187c-0.08009,-1.09158 -0.15669,-2.18492 -0.23328,-3.27825c-0.02264,-0.31163 -0.04526,-0.62327 -0.06964,-0.9436c-0.05398,-0.79389 -0.08357,-1.58951 -0.11143,-2.38512c0.41435,-0.41435 0.41435,-0.41435 1.7636,-0.54318c1.70268,-0.3099 2.35901,-0.81477 3.62992,-1.93596c0.27333,0 0.54667,0 0.8287,0c0.13754,-0.40913 0.27333,-0.81651 0.41435,-1.23784c0.31686,-0.30815 0.63372,-0.61457 0.95928,-0.92968c2.43736,-2.48263 3.93111,-5.97884 4.87471,-9.29312c0.37954,-1.3113 0.87745,-2.27737 1.63304,-3.4076z" fill="#785844"/><path d="M305.81169,118.47936c0.11664,0.2521 0.23503,0.50436 0.3569,0.76411c1.12815,2.13391 2.86215,3.31985 5.04882,4.21958c1.17341,0.20317 2.31897,0.23729 3.50806,0.23347c0.32905,-0.0007 0.65808,-0.00139 0.99583,-0.00209c3.17727,-0.09523 5.58156,-1.05486 8.44022,-2.38217c1.35448,-0.59367 2.75247,-1.04998 4.15744,-1.50907c0.49792,-0.16557 0.99583,-0.33096 1.50942,-0.5014c4.73892,-1.43108 9.70938,-1.28797 14.2394,0.8388c0.20543,0.61665 0.20543,0.61665 0.41609,1.24584c0.4248,0.01288 0.4248,0.01288 0.8583,0.02594c2.33638,0.74496 3.72915,2.61093 4.93739,4.67225c0.56059,1.94344 0.74514,3.6785 0.4422,5.68445c-0.62327,1.09019 -0.62327,1.09019 -1.66436,1.66124c-1.14556,0.12674 -2.16403,0.0773 -3.32525,0c0.13579,-0.22284 0.27333,-0.44534 0.41435,-0.67497c0.55537,-1.316 0.64068,-2.05591 0.41609,-3.47811c-1.08462,-2.11649 -2.63932,-3.10572 -4.83293,-3.91944c-4.92172,-1.39365 -8.45241,-0.58671 -13.04682,1.42759c-0.92445,0.38527 -1.85066,0.76585 -2.77685,1.14539c-0.61282,0.25139 -1.2239,0.5047 -1.83498,0.7601c-4.19748,1.74916 -8.39844,2.73959 -12.89188,1.46886c-2.36946,-1.08167 -3.67866,-2.36441 -4.95306,-4.62018c-0.5101,-1.47999 -0.45614,-2.91003 -0.44046,-4.46454c0.00349,-0.48608 0.00696,-0.97216 0.01045,-1.47303c0.00522,-0.37048 0.01045,-0.74095 0.01566,-1.12257z" fill="#d5e8f0"/><path d="M328.63407,219.00439c1.74619,0.30292 2.10831,0.95928 3.16161,2.31375c1.5425,1.91332 3.53417,3.3914 5.46664,4.89039c0.26288,0.20543 0.52578,0.40913 0.79736,0.61978c0.53274,0.41261 1.06547,0.82 1.59995,1.22565c0.64591,0.49618 1.2709,1.02021 1.89069,1.54598c0,0.27507 0,0.5484 0,0.83044c0.22981,0.10272 0.45788,0.20543 0.69465,0.31163c1.13163,0.61108 2.0735,1.34229 3.07629,2.14835c0.36037,0.28726 0.71902,0.57278 1.08811,0.867c1.26743,1.11771 1.73227,1.74097 1.84891,3.44712c0,0.57452 -0.00696,1.14905 -0.01741,1.72355c-0.00349,0.30641 -0.00522,0.61457 -0.0087,0.93142c-0.05919,4.1731 -0.13928,8.40888 -0.69465,12.55066c-0.18628,1.40671 -0.25766,2.79426 -0.29945,4.2114c-0.27856,8.84413 -1.6191,17.75789 -3.20861,26.45056c-2.84126,-0.36212 -2.84126,-0.36212 -3.3061,-0.8287c-0.15147,-2.23541 0.05223,-4.11391 0.57278,-6.29013c0.79389,-3.61077 1.16645,-7.23547 1.51987,-10.91241c0.03481,-0.34994 0.06964,-0.70161 0.10445,-1.06199c0.61282,-6.18219 1.1386,-12.36785 1.45023,-18.57267c0.0679,-1.19952 0.16365,-2.39384 0.26637,-3.58988c0.26811,-3.32003 0.26811,-3.32003 -0.97147,-6.33017c-1.06026,-0.99235 -2.14314,-1.7723 -3.35485,-2.56968c-0.72076,-0.57278 -1.43456,-1.15078 -2.14488,-1.73574c-0.33775,-0.26637 -0.67723,-0.53448 -1.02717,-0.80955c-0.88615,-0.70857 -1.73923,-1.44327 -2.58883,-2.19537c-1.17167,-1.11422 -1.17167,-1.11422 -2.50525,-1.47634c-0.5014,-0.60238 -0.5014,-0.60238 -0.98191,-1.34752c-0.92619,-1.36667 -1.96904,-2.47218 -3.1529,-3.62645c-0.4248,-0.54493 -0.84263,-1.09333 -1.23956,-1.65915c0.82696,-0.8287 0.82696,-0.8287 1.96381,-1.06199z" fill="#554336"/><path d="M405.42824,115.57543c1.85413,1.65339 3.10067,3.2631 3.41927,5.79517c0.09575,3.07629 -0.67202,5.41546 -2.76988,7.67507c-2.57142,2.46887 -5.90885,2.75735 -9.31071,2.96801c-0.95928,0.06999 -0.95928,0.06999 -1.69919,0.97147c0,-0.27351 0,-0.54719 0,-0.82905c-0.52229,-0.01705 -1.04284,-0.03412 -1.5808,-0.05188c-4.16963,-0.4779 -7.59586,-3.23455 -10.43886,-6.16582c-0.8287,-1.24357 -0.8287,-1.24357 -0.8287,-2.90168c2.02997,-0.38371 3.43493,-0.3818 5.41442,0.1814c2.68283,0.62275 5.25076,0.80172 8.00323,0.82905c0.38475,0.00905 0.76951,0.01811 1.16471,0.02733c2.92309,-0.00801 5.20898,-0.56756 7.35386,-2.63739c0.57627,-1.15113 0.75732,-2.20494 0.93664,-3.47811c0.09924,-0.6701 0.09924,-0.6701 0.19847,-1.35361c0.04526,-0.33983 0.09228,-0.67985 0.13754,-1.02996z" fill="#d5e8f0"/><path d="M382.95582,224.57722c0.27333,0.68595 0.54667,1.37188 0.82696,2.07871c-2.66368,2.51919 -5.397,4.8782 -8.2905,7.12753c-1.29876,1.01151 -2.56793,2.03694 -3.79705,3.13375c-1.13686,0.96102 -1.13686,0.96102 -1.96381,0.96102c0.25418,3.59685 0.50837,7.19194 0.76602,10.78879c0.11839,1.66959 0.23677,3.34093 0.35516,5.01225c0.13579,1.93073 0.27333,3.86322 0.41261,5.79395c0.02264,0.31511 0.04526,0.62849 0.0679,0.95057c0.289,3.99378 0.60238,7.98061 1.05328,11.95873c0.21413,1.95511 0.26637,3.85277 0.23852,5.81658c-1.09158,0 -2.18318,0 -3.3061,0c-0.77299,-6.32494 -1.27788,-12.67252 -1.7723,-19.02532c-0.09228,-1.19082 -0.18803,-2.38165 -0.28377,-3.57247c-0.91749,-11.34416 -0.91749,-11.34416 -1.02194,-15.70878c-0.01393,-0.50837 -0.02785,-1.01847 -0.04179,-1.5425c0.37954,-2.18492 1.74445,-3.25039 3.44364,-4.54568c0.43873,-0.30118 0.87745,-0.60412 1.32835,-0.914c0.85308,-0.64764 1.70615,-1.29703 2.55749,-1.94815c0.40913,-0.30118 0.82,-0.60238 1.24131,-0.91227c1.35099,-1.02369 2.59927,-2.12746 3.83709,-3.28521c0.63023,-0.50488 0.63023,-0.50488 1.45719,-0.50488c0,-0.27507 0,-0.5484 0,-0.83219c1.23956,-0.83044 1.23956,-0.83044 2.89175,-0.83044z" fill="#554235"/><path d="M361.89009,157.53925c1.43456,0.61578 1.43456,0.61578 2.89871,1.24392c0.55014,4.85992 0.95928,9.6199 0.82696,14.51377c1.95162,-1.22565 3.5864,-2.60972 5.25076,-4.19922c2.46347,-2.33638 2.46347,-2.33638 3.85451,-3.26519c2.56968,0.0874 4.40291,0.80276 6.6209,2.07333c-0.53448,2.88409 -3.1146,4.96629 -5.3796,6.63413c-0.95928,0.43176 -1.92377,0.84785 -2.89698,1.24479c-0.26462,0.21413 -0.52925,0.42654 -0.80259,0.64764c-1.2918,0.90183 -2.63061,1.09333 -4.1644,1.42586c0,0.27333 0,0.54667 0,0.8287c-0.68246,0 -1.36492,0 -2.06827,0c0,0.41086 0,0.82174 0,1.24479c-1.22912,0.20543 -1.22912,0.20543 -2.48436,0.41435c-0.58148,-4.0582 -0.94883,-8.07113 -1.09856,-12.16938c-0.01393,-0.33514 -0.02785,-0.67044 -0.04004,-1.01602c-0.01045,-0.29648 -0.02089,-0.59297 -0.0296,-0.89851c-0.05049,-0.85169 -0.05049,-0.85169 -0.28377,-1.68735c-0.32905,-1.3254 -0.24547,-2.67205 -0.22807,-4.02929c0.00174,-0.28917 0.00349,-0.57835 0.00522,-0.87622c0.00522,-0.71015 0.01219,-1.42011 0.01915,-2.13007z" fill="#514336"/><path d="M319.12141,283.96519c2.00211,1.00802 3.82143,2.62887 4.96003,4.5683c-0.10445,1.16645 -0.10445,1.16645 -0.41435,2.07524c0.81825,0.13754 1.63651,0.27333 2.47914,0.41435c0,0.13754 0,0.27507 0,0.41609c-24.76182,-0.49618 -24.76182,-0.49618 -34.29711,-2.07524c0,-0.13754 0,-0.27507 0,-0.41609c0.81825,0 1.63651,0 2.47914,0c0.0853,-0.24026 0.17062,-0.47877 0.25941,-0.72598c0.80606,-1.32488 1.70093,-1.84021 3.04669,-2.59579c1.48157,-0.20543 1.48157,-0.20543 3.10937,-0.20892c0.29075,-0.00349 0.58323,-0.00696 0.88268,-0.01219c0.92445,-0.01045 1.84891,-0.01219 2.77511,-0.01219c4.90084,-0.00696 10.08718,-2.26674 14.7199,-1.42759z" fill="#d7e8f0"/><path d="M388.38068,274.03122c2.08743,0.80085 4.07214,1.07243 6.29709,1.1682c0,0.13754 0,0.27507 0,0.41609c-0.82174,0 -1.64174,0 -2.48785,0c0,0.27333 0,0.5484 0,0.83044c0.24026,0.05049 0.4805,0.10098 0.72946,0.1532c1.87328,0.4039 3.68041,0.8583 5.48754,1.50942c0,0.27507 0,0.5484 0,0.83219c-0.23852,0.01741 -0.47877,0.03656 -0.72598,0.05571c-5.37438,0.35341 -5.37438,0.35341 -10.61991,1.47634c-1.80713,0.54667 -2.97532,0.76951 -4.81901,0.13058c-1.1386,-0.80781 -2.20233,-1.66263 -3.26084,-2.57142c-1.05503,-0.90008 -1.40148,-1.18386 -2.79251,-1.11945c-0.61978,0.06441 -0.61978,0.06441 -1.2535,0.13058c-1.10203,0.11664 -1.10203,0.11664 -2.22669,0.23503c-0.13754,-1.64696 -0.27507,-3.29218 -0.41609,-4.98788c5.49798,-1.96033 10.84451,-0.29075 16.0883,1.74097z" fill="#d6e9f2"/><path d="M346.86201,213.43328c0.95753,0 1.91507,0 2.9022,0c0.12013,4.61879 0.23328,9.66761 -1.24305,14.10186c-4.07039,-0.55712 -7.94057,-4.02338 -11.24667,-6.32494c-0.45614,-0.31686 -0.45614,-0.31686 -0.92272,-0.63719c-1.42759,-1.00977 -2.65323,-1.88896 -3.58466,-3.40708c0.8287,-0.83044 0.8287,-0.83044 1.96556,-0.99932c1.70964,0.21413 2.62713,0.97494 3.88933,2.06131c2.47391,2.02301 5.01399,3.62817 7.82566,5.15849c-0.00522,-0.40565 -0.01045,-0.81129 -0.01393,-1.22912c-0.02089,-2.9405 0.01915,-5.80614 0.42828,-8.724z" fill="#504034"/><path d="M346.86899,213.43328c-0.13579,3.27476 -0.27333,6.54954 -0.41261,9.92353c-2.98577,-1.19779 -5.4353,-2.90568 -8.02238,-4.80682c-0.4248,-0.31337 -0.84959,-0.62501 -1.28658,-0.94709c-1.00802,-0.86178 -1.00802,-0.86178 -1.42063,-2.10309c0.90183,-0.26986 1.80538,-0.53622 2.70721,-0.80085c0.50314,-0.14798 1.00628,-0.29771 1.52335,-0.45091c2.36772,-0.61631 4.45689,-0.81477 6.91165,-0.81477z" fill="#5f7c83"/><path d="M365.1631,159.6286c0.18454,0.14485 0.37082,0.28969 0.56059,0.4389c3.97637,3.13496 3.97637,3.13496 8.48027,5.32215c0,0.40739 0,0.81477 0,1.23452c-0.87223,0.8294 -0.87223,0.8294 -2.05435,1.74933c-1.76187,1.39103 -3.45931,2.81689 -5.11323,4.33502c-0.64068,0.49965 -0.64068,0.49965 -1.46242,0.49965c-0.37431,-4.53696 -0.45788,-9.02972 -0.41086,-13.57956z" fill="#738e96"/><path d="M366.33304,104.43149c1.58255,0.11003 2.37468,0.97878 3.47672,2.04512c1.94641,1.77701 3.35137,2.36998 5.96804,2.718c1.34925,0.20718 1.34925,0.20718 2.17969,1.03552c0.10272,1.03536 0.10272,1.03536 0,2.07088c-1.00454,1.00158 -1.31618,0.97251 -2.69851,1.00958c-3.23124,-0.07452 -5.75913,-1.51883 -8.12162,-3.64994c-1.27613,-1.37172 -1.67308,-2.49412 -1.63477,-4.40082c0.27333,-0.27333 0.5484,-0.54667 0.83044,-0.82835z" fill="#56686e"/><path d="M387.95587,166.24515c0.47877,0.3677 0.95232,0.74166 1.42412,1.11787c0.26462,0.20753 0.52752,0.41487 0.80085,0.62867c0.77995,0.80137 1.03936,1.2105 1.08811,2.31775c-0.34122,0.89485 -0.34122,0.89485 -1.24131,1.62606c-1.35099,0.27681 -2.68981,0.30292 -4.06516,0.33078c-0.36909,0.01566 -0.73817,0.03134 -1.11771,0.047c-1.92203,0.06615 -3.69781,0.02438 -5.58852,-0.37779c0.57974,-1.65915 1.13511,-2.89524 2.4861,-4.06447c1.27265,-0.30398 2.51919,-0.48364 3.81969,-0.62728c1.23435,-0.11961 1.23435,-0.11961 2.39384,-0.99862z" fill="#617f88"/><path d="M341.45284,274.39509c0.11317,2.55923 -0.3186,4.9252 -0.82696,7.43046c-2.52093,0.15843 -4.91476,-0.1532 -6.90642,-1.84194c-0.52752,-0.63546 -0.52752,-0.63546 -0.60586,-1.58951c0.76429,-1.72704 2.19014,-2.64628 3.79532,-3.5864c1.51465,-0.49965 2.95617,-0.44395 4.54394,-0.41261z" fill="#d6e8f0"/><path d="M377.48395,166.94172c0.29771,0.05084 0.59367,0.10185 0.90008,0.15425c-0.17758,2.12712 -0.78517,3.12991 -2.23888,4.6759c-0.33078,0.35864 -0.66331,0.71902 -1.00279,1.08811c-0.87745,0.81304 -0.87745,0.81304 -1.70268,0.81304c0,0.27158 0,0.54318 0,0.82174c-0.27158,0 -0.54318,0 -0.82348,0c-0.08879,0.4718 -0.08879,0.4718 -0.17932,0.95057c-0.89485,1.53553 -1.91332,1.66959 -3.57073,2.14139c-0.25766,0.06441 -0.51533,0.13058 -0.7817,0.19673c0,0.27158 0,0.54318 0,0.82348c-0.68072,0 -1.35969,0 -2.06131,0c0.07486,-1.734 0.30641,-2.35727 1.53727,-3.6247c0.47006,-0.38301 0.94534,-0.75906 1.42412,-1.1299c0.23328,-0.18628 0.46658,-0.37431 0.70683,-0.56756c0.69638,-0.55885 1.39799,-1.11248 2.10135,-1.66611c1.93422,-1.54076 1.93422,-1.54076 3.52721,-3.41753c1.00454,-1.10516 1.00454,-1.10516 2.16403,-1.25942z" fill="#755843"/><path d="M365.54264,220.04896c2.44432,0.78344 2.44432,0.78344 2.91264,1.2535c0.0296,0.63546 0.03481,1.2709 0.02611,1.90636c-0.00349,0.34471 -0.00696,0.68942 -0.01045,1.04458c-0.0087,0.40042 -0.0087,0.40042 -0.01566,0.80781c0.30118,-0.18454 0.60238,-0.37082 0.914,-0.56233c0.40216,-0.23677 0.80433,-0.47354 1.21869,-0.71555c0.39694,-0.23852 0.79214,-0.47529 1.19952,-0.72076c1.45719,-0.59367 2.24063,-0.4805 3.74134,-0.08879c0.13754,0.41261 0.27507,0.82696 0.41609,1.25175c-1.26743,0.78517 -2.54355,1.55642 -3.82143,2.3242c-0.36037,0.22284 -0.72076,0.44569 -1.09158,0.67376c-0.34994,0.20892 -0.69987,0.41784 -1.06026,0.63197c-0.32034,0.19499 -0.64068,0.38997 -0.96972,0.59019c-1.19605,0.46658 -1.84021,0.3656 -3.04322,-0.04353c-0.47703,-0.95928 -0.46484,-1.4955 -0.45614,-2.56097c0,-0.33601 0.00174,-0.67202 0.00349,-1.02021c0.00349,-0.34994 0.00696,-0.70161 0.01045,-1.06373c0.00174,-0.35516 0.00349,-0.71032 0.00522,-1.07592c0.00522,-0.87745 0.01219,-1.75489 0.02089,-2.63234z" fill="#534030"/><path d="M342.78815,129.34355c0.44046,1.00019 0.44046,1.00019 0.41435,2.05191c-0.59542,0.949 -0.59542,0.949 -1.24305,1.64156c0.27333,0.13527 0.54667,0.27073 0.8287,0.41034c-0.41086,0.13527 -0.82,0.27073 -1.24305,0.41034c-0.75906,-0.38006 -0.75906,-0.38006 -1.5808,-0.949c-2.44259,-1.68473 -4.7929,-2.05557 -7.69335,-2.18021c-0.30467,-0.01585 -0.61108,-0.03169 -0.92445,-0.04806c-0.74514,-0.0383 -1.49027,-0.07242 -2.23714,-0.10568c3.1529,-3.4379 9.9009,-3.56603 13.6788,-1.23121z" fill="#638289"/><path d="M378.90807,281.82032c0,0.27681 0,0.55363 0,0.83915c-3.57073,2.39035 -8.42107,1.76534 -12.53498,1.6783c0.47877,-1.44501 1.01151,-1.88896 2.32942,-2.60623c3.15812,-1.03239 6.97085,-0.43001 10.20556,0.08879z" fill="#ddecf4"/><path d="M348.08767,175.649c0,1.66611 0,3.33221 0,5.04882c-3.00492,-0.09924 -5.03837,-0.84785 -7.31207,-2.94573c0,-0.27856 0,-0.55537 0,-0.84089c0.91227,-0.21239 1.82802,-0.42305 2.74202,-0.63197c0.76255,-0.17584 0.76255,-0.17584 1.5425,-0.35516c1.40148,-0.27507 1.40148,-0.27507 3.02754,-0.27507z" fill="#69878f"/><path d="M349.60404,174.42858c0.4631,0.0087 0.92619,0.01741 1.40497,0.02611c0.01045,1.08811 0.01915,2.17622 0.02611,3.26431c0.00174,0.3099 0.00522,0.61804 0.0087,0.93664c0.01045,2.33638 0.01045,2.33638 -0.44395,3.2591c-0.80955,-0.13579 -1.61736,-0.27333 -2.45129,-0.41435c-0.08009,-1.09681 -0.15669,-2.19188 -0.22981,-3.28869c-0.02438,-0.31337 -0.047,-0.62676 -0.06964,-0.94883c-0.05398,-0.79736 -0.08357,-1.59472 -0.10968,-2.39384c0.40913,-0.41435 0.40913,-0.41435 1.86458,-0.44046z" fill="#523f33"/><path d="M341.02978,102.03226c0.28552,0.10985 0.57278,0.21953 0.867,0.3327c0.12883,1.33062 0.12883,1.33062 0,2.86598c-0.867,1.02352 -0.867,1.02352 -2.04041,1.63756c-1.35273,-0.10237 -1.35273,-0.10237 -2.44955,-0.4093c-0.1532,-1.1003 -0.1532,-1.1003 0,-2.45651c1.90113,-2.08307 1.90113,-2.08307 3.62296,-1.97044z" fill="#dde9ef"/><path d="M402.47731,150.95386c0.96102,0.39242 1.43978,0.68421 2.02475,1.55156c-0.12535,1.09368 -0.12535,1.09368 -0.4039,2.03484c-1.3684,0.05084 -1.3684,0.05084 -2.83604,0c-0.81129,-0.81408 -0.81129,-0.81408 -0.93838,-1.83133c0.04179,-0.33584 0.08357,-0.6715 0.12709,-1.01743c1.2152,-0.81391 1.2152,-0.81391 2.02649,-0.73765z" fill="#daeaee"/><path d="M365.94829,178.60866c1.63304,0 3.26606,0 4.94784,0c-1.32139,0.99409 -2.1971,1.53553 -3.68389,2.11876c-0.34471,0.13754 -0.68768,0.27507 -1.04284,0.41609c-1.03066,0.35341 -2.0352,0.58323 -3.10763,0.77299c0.13754,-0.54667 0.27333,-1.09158 0.41261,-1.65391c0.81651,-0.13754 1.63304,-0.27333 2.47391,-0.41435c0,-0.40913 0,-0.81825 0,-1.23956z" fill="#535d60"/><path d="M417.41658,198.96234c0.41609,0.41609 0.41609,0.41609 0.49444,1.42933c-0.07834,1.06547 -0.07834,1.06547 -0.91227,1.89766c-1.37363,-0.13754 -1.92726,-0.25941 -2.91786,-1.24828c0.10445,-1.06547 0.10445,-1.06547 0.41609,-2.07871c1.11945,-0.55885 1.73227,-0.30292 2.9196,0z" fill="#596b6f"/><path d="M408.66299,195.6719c1.38755,0.17236 1.97252,0.26288 2.9788,1.24131c0,0.54493 0,1.09158 0,1.65391c-1.43456,0.25766 -1.43456,0.25766 -2.9788,0.41261c-0.2803,-0.27333 -0.56059,-0.54493 -0.85134,-0.82696c0.23677,-1.88373 0.23677,-1.88373 0.85134,-2.48089z" fill="#5b6a6d"/><path d="M374.35717,166.65428c0.23852,0.09801 0.47529,0.19586 0.71902,0.29684c-0.21066,0.17984 -0.42131,0.35968 -0.63719,0.5451c-1.38059,1.18891 -2.73332,2.37625 -3.99901,3.6872c-2.4391,2.37468 -2.4391,2.37468 -4.06865,2.37468c0,-0.82696 0,-0.82696 0.59542,-1.42237c0.27333,-0.22981 0.54667,-0.45788 0.83044,-0.69465c0.98539,-0.82696 1.94815,-1.65391 2.88305,-2.53834c0.32207,-0.30292 0.64416,-0.60759 0.97668,-0.9194c0.44569,-0.42793 0.44569,-0.42793 0.90008,-0.86457c0.86178,-0.58061 0.86178,-0.58061 1.80017,-0.46449z" fill="#46453f"/><path d="M293.67366,204.72669c0.69813,0.02438 0.69813,0.02438 1.41018,0.04875c0.13754,0.52578 0.27681,1.05154 0.41784,1.59472c-1.85066,1.22565 -1.85066,1.22565 -3.05541,1.0707c-0.23156,-0.09053 -0.46484,-0.18107 -0.7051,-0.27333c-0.26115,-0.74861 -0.26115,-0.74861 -0.41784,-1.59472c0.83566,-0.79736 0.83566,-0.79736 2.35031,-0.84611z" fill="#53676a"/><path d="M300.12569,202.32067c0.29248,0.94709 0.29248,0.94709 0.42654,2.04739c-0.50488,0.76776 -0.50488,0.76776 -1.27788,1.22912c-0.87745,0 -0.87745,0 -1.70093,-0.41086c-0.53274,-1.04807 -0.53274,-1.04807 -0.85134,-2.04739c1.37363,-0.88093 1.82279,-0.90183 3.40359,-0.81825z" fill="#58676b"/><path d="M381.69362,171.96512c-1.02892,0.85308 -2.07698,1.4659 -3.27476,2.0439c-1.50246,0.72425 -2.84475,1.55642 -4.2114,2.50874c0.07834,-0.77647 0.07834,-0.77647 0.41609,-1.65566c0.68942,-0.28203 1.38407,-0.55712 2.07871,-0.82696c0.47877,-0.81477 0.47877,-0.81477 0.83219,-1.65566c1.6017,-1.06373 2.32246,-0.75906 4.15918,-0.41435z" fill="#4d6166"/><path d="M387.98896,170.30249c1.21171,0.60759 1.21171,0.60759 2.06131,1.26743c0,0.13928 0,0.27856 0,0.42131c-2.58534,0 -5.17068,0 -7.83436,0c2.05435,-1.40148 3.23299,-1.91681 5.77305,-1.68874z" fill="#546b72"/><path d="M368.46049,221.78994c3.2382,0.31163 3.2382,0.31163 4.17833,1.24131c-1.35622,0.84263 -2.67762,1.51465 -4.17833,2.06654c0,-1.09158 0,-2.18318 0,-3.30784z" fill="#74868b"/><path d="M360.99696,156.6686c0.55885,0 1.11771,0 1.69223,0c0,0.27455 0,0.54893 0,0.83184c0.69813,0.13718 1.39452,0.27455 2.11354,0.41591c-0.13928,0.27455 -0.27856,0.54893 -0.42305,0.83184c-0.8374,-0.27455 -1.67308,-0.5491 -2.53659,-0.83184c-0.87223,1.24828 -1.37884,2.35727 -1.71659,3.82108c-0.39694,1.5855 -0.39694,1.5855 -1.24305,2.41734c0.55014,-5.94733 0.55014,-5.94733 2.11354,-7.48618z" fill="#515554"/><path d="M335.24627,215.17425c0.27333,0.13405 0.54493,0.26811 0.82696,0.40565c-0.41435,0.81304 -0.41435,0.81304 -1.49897,1.19256c-0.46135,0.14277 -0.92098,0.28552 -1.39626,0.43176c-2.02126,0.75036 -2.02126,0.75036 -3.72045,2.03171c-1.08811,0.3482 -2.19014,0.56408 -3.30784,0.81304c0.98364,-1.61214 1.93247,-1.90288 3.72045,-2.43736c0.13754,-0.26811 0.27333,-0.53622 0.41435,-0.81304c0.68768,-0.13928 1.37711,-0.27333 2.06654,-0.40565c0.51184,-0.21239 1.02021,-0.43176 1.5251,-0.66157c0.67898,-0.27507 0.67898,-0.27507 1.37014,-0.55712z" fill="#4c5756"/><path d="M346.94733,213.43328c0.95057,0 1.90113,0 2.8813,0c-0.26288,0.12883 -0.52752,0.25766 -0.79736,0.38997c-0.82348,0.37256 -0.82348,0.37256 -1.26046,0.8583c-0.09924,1.59299 -0.16365,3.1825 -0.21413,4.77722c-0.01393,0.33426 -0.02785,0.66679 -0.04179,1.01151c-0.01045,0.30641 -0.02089,0.61282 -0.03134,0.92968c-0.12535,0.77647 -0.12535,0.77647 -0.94883,1.60866c-0.04004,-3.2295 -0.02438,-6.37369 0.41261,-9.57533z" fill="#474742"/><path d="M372.98703,222.11723c1.15775,-0.03656 2.31548,-0.06268 3.47323,-0.08357c0.32905,-0.01045 0.65635,-0.02264 0.99583,-0.03308c0.31511,-0.00522 0.63197,-0.0087 0.95753,-0.01393c0.43699,-0.01045 0.43699,-0.01045 0.88268,-0.02089c1.02194,0.19324 1.39103,0.65112 2.04739,1.47461c-0.25243,-0.04179 -0.50314,-0.08357 -0.76429,-0.12709c-0.33252,-0.04875 -0.66679,-0.09749 -1.01151,-0.14798c-0.32905,-0.05223 -0.65983,-0.10272 -0.99932,-0.15669c-1.00106,-0.09053 -1.00106,-0.09053 -1.84717,0.45961c-0.26637,0.13579 -0.53448,0.27333 -0.80955,0.41261c-1.56687,-0.60586 -1.56687,-0.60586 -2.92483,-1.32314c0,-0.14624 0,-0.29075 0,-0.44046z" fill="#51524e"/><path d="M378.40666,167.81238c0.68246,0 1.36492,0 2.06827,0c-0.21066,0.89712 -0.41435,1.65445 -0.82696,2.48141c-0.81825,0.29945 -1.64696,0.578 -2.48089,0.82696c0.25941,-1.21171 0.65461,-2.21626 1.23956,-3.30836z" fill="#543e2f"/><path d="M349.45781,174.42858c0.61457,0.01393 0.61457,0.01393 1.24131,0.02785c-0.13928,0.27681 -0.27856,0.55363 -0.42305,0.83915c-0.55712,0 -1.11596,0 -1.69049,0c0,1.93945 0,3.87888 0,5.87752c0.69813,0.13928 1.39452,0.27681 2.11354,0.41957c-1.05328,0.52403 -1.44152,0.3273 -2.53659,0c-0.08183,-1.11073 -0.16017,-2.22148 -0.23852,-3.33221c-0.02264,-0.31686 -0.047,-0.63372 -0.07138,-0.96102c-0.05398,-0.80606 -0.0853,-1.61562 -0.11317,-2.42344c0.42305,-0.41957 0.42305,-0.41957 1.71834,-0.44743z" fill="#494a45"/><path d="M345.65032,180.69782c0.8374,0 1.67481,0 2.53659,0c0.13928,0.68942 0.27856,1.37884 0.42305,2.08916c-0.8374,0 -1.67481,0 -2.53659,0c-0.13928,-0.68942 -0.2803,-1.37884 -0.42305,-2.08916z" fill="#4e6268"/><path d="M370.50614,255.74407c0.14973,0 0.29771,0 0.45091,0c0.32034,3.02754 0.51707,6.01157 0.45091,9.05304c-0.14798,0 -0.29771,0 -0.45091,0c-0.98887,-3.13201 -0.85481,-5.82703 -0.45091,-9.05304z" fill="#665c54"/><path d="M374.72798,222.91112c-0.65112,0.34645 -1.30399,0.68942 -1.9586,1.03066c-0.36386,0.19151 -0.72598,0.38301 -1.1003,0.57974c-1.08114,0.48573 -2.0439,0.74166 -3.20861,0.92619c3.84058,-3.31306 3.84058,-3.31306 6.26749,-2.53659z" fill="#49433d"/><path d="M374.72798,165.72303c2.36597,0.20753 4.12784,0.64572 6.26749,1.67134c0,0.13789 0,0.27594 0,0.41784c-0.82696,0 -1.65391,0 -2.507,0c0,-0.27577 0,-0.55137 0,-0.83566c-0.46484,-0.05153 -0.92968,-0.10341 -1.41018,-0.15652c-1.51465,-0.26132 -1.51465,-0.26132 -2.35031,-1.09698z" fill="#4f5250"/><path d="M381.34542,224.57722c0.53622,0 1.07243,0 1.62432,0c0.26811,0.68942 0.53622,1.37884 0.81304,2.08916c-1.2065,1.03413 -1.2065,1.03413 -2.43736,2.08916c0.24896,-1.23784 0.50837,-1.83149 1.21869,-2.92483c0,-0.27681 0,-0.55189 0,-0.83566c-0.40216,-0.13754 -0.80433,-0.27681 -1.21869,-0.41784z" fill="#514a43"/><path d="M365.50085,220.05071c2.45825,0.78866 2.45825,0.78866 2.92831,1.2622c0.0296,0.63893 0.03481,1.27961 0.02611,1.91855c-0.00349,0.3482 -0.00696,0.69465 -0.01045,1.05328c-0.0087,0.4039 -0.0087,0.4039 -0.01566,0.81477c-0.13754,0 -0.27507,0 -0.41784,0c-0.13754,-1.25001 -0.27681,-2.50004 -0.41957,-3.7866c-0.68942,0 -1.38059,0 -2.0909,0c0,-0.41784 0,-0.83393 0,-1.2622z" fill="#48423a"/><path d="M376.75969,170.25025c0.13405,0.41435 0.26811,0.82696 0.40565,1.2535c-1.14033,1.23784 -2.10484,2.27545 -3.65604,2.92483c0,-0.83566 0,-0.83566 0.94013,-1.85413c0.36037,-0.35341 0.72076,-0.70683 1.09158,-1.0707c0.24199,-0.24896 0.48573,-0.49965 0.73642,-0.75732c0.15843,-0.16365 0.3186,-0.3273 0.48225,-0.49618z" fill="#5e493b"/><path d="M333.33992,129.24241c0.56929,0.12466 0.56929,0.12466 1.15252,0.25191c0.29075,0.06667 0.58323,0.13319 0.88441,0.20178c0,0.14102 0,0.28186 0,0.42706c-2.06827,0.14102 -4.13654,0.28186 -6.26749,0.42706c1.66785,-1.70476 2.01605,-1.80104 4.23055,-1.30781z" fill="#627a81"/><path d="M371.75615,274.02774c0.80433,0.83566 0.80433,0.83566 0.88268,1.6487c-0.02611,0.84263 -0.05223,1.687 -0.07834,2.52963c-0.66506,-0.13754 -1.32835,-0.27507 -2.01082,-0.41784c0.39694,-0.13754 0.79562,-0.27507 1.2065,-0.41784c0,-1.10203 0,-2.20582 0,-3.34266z" fill="#5e554d"/><path d="M366.3696,178.60866c1.49376,0 2.9875,0 4.52652,0c-1.64521,1.29528 -1.64521,1.29528 -3.18771,1.16122c-0.4422,-0.09749 -0.88268,-0.19673 -1.3388,-0.29771c0,-0.28377 0,-0.56929 0,-0.86353z" fill="#6a7376"/><path d="M296.72035,203.15982c0.41957,0.13405 0.8374,0.26811 1.26916,0.40565c0,0.26811 0,0.53622 0,0.81304c0.55885,0.13405 1.11596,0.26811 1.69049,0.40565c-0.13928,0.26811 -0.27856,0.53622 -0.42131,0.81304c-0.79389,-0.0766 -0.79389,-0.0766 -1.69223,-0.40739c-0.52752,-1.04111 -0.52752,-1.04111 -0.84611,-2.02997z" fill="#68797a"/><path d="M417.44269,199.32968c0.14102,0 0.28377,0 0.42828,0c0.05398,1.00454 0.05398,1.00454 0,2.11354c-0.28203,0.27856 -0.56582,0.55885 -0.85655,0.84611c-0.91053,-0.15843 -0.91053,-0.15843 -1.71485,-0.42305c0,-0.27856 0,-0.55885 0,-0.84611c0.56582,0 1.13163,0 1.71485,0c0.14102,-0.55712 0.28203,-1.11596 0.42828,-1.69049z" fill="#707f7f"/><path d="M373.91497,223.01035c0.68072,0.11839 1.35969,0.25766 2.03171,0.41784c0,0.27507 0,0.55014 0,0.83566c-0.67027,0.27507 -1.34054,0.55014 -2.03171,0.83566c-0.22807,-0.80955 -0.22807,-0.80955 -0.40565,-1.67134c0.13405,-0.13928 0.26811,-0.27681 0.40565,-0.41784z" fill="#564739"/><path d="M356.79252,168.68338c0,1.75315 -0.84785,2.40776 -1.98819,3.65604c-0.26288,0 -0.52578,0 -0.79736,0c0.49269,-1.50593 1.27265,-2.16924 2.38861,-3.25039c0.13058,-0.13405 0.26288,-0.26811 0.39694,-0.40565z" fill="#695a4f"/></g></g></g></svg>