<svg version="1.1" xmlns="http://www.w3.org/2000/svg" xmlns:xlink="http://www.w3.org/1999/xlink" width="164.55501" height="88.86449" viewBox="0,0,164.55501,88.86449"><defs><linearGradient x1="239.99915" y1="136.31776" x2="239.99915" y2="223.68168" gradientUnits="userSpaceOnUse" id="color-1"><stop offset="0" stop-color="#fafafa"/><stop offset="1" stop-color="#abeafa"/></linearGradient></defs><g transform="translate(-157.7225,-135.56776)"><g fill-rule="evenodd" stroke="#000000" stroke-width="1.5" stroke-miterlimit="8"><path d="M173.31057,165.08241c-1.89475,-10.16567 7.86201,-19.52759 21.79115,-20.91036c5.64491,-0.56025 11.38364,0.2774 16.2991,2.37888c5.20905,-7.16449 17.37814,-9.88736 27.18332,-6.08182c1.71466,0.66558 3.28857,1.50899 4.6718,2.50404c4.05586,-5.9388 13.93671,-8.35158 22.0681,-5.38914c2.2504,0.81995 4.21325,2.00583 5.73874,3.46655c6.5378,-5.6163 18.09094,-6.31004 25.80463,-1.54955c3.24166,2.00084 5.42698,4.76049 6.17913,7.80586c10.71321,2.13311 17.03157,10.21304 14.11529,18.04705c-0.24517,0.65862 -0.55238,1.30393 -0.92013,1.93122c8.59146,8.16302 6.48786,19.86295 -4.69753,26.13258c-3.48229,1.95165 -7.59565,3.21533 -11.94056,3.66934c-0.09686,8.78214 -9.93836,15.84357 -21.98184,15.77395c-4.02256,-0.02421 -7.95886,-0.8596 -11.37153,-2.41233c-4.07402,9.84453 -18.28162,15.41074 -31.73557,12.42939c-5.63734,-1.25005 -10.50891,-3.89241 -13.78235,-7.47609c-13.77478,6.06411 -31.65385,2.80278 -39.93355,-7.28541c-0.10442,-0.12712 -0.20733,-0.25576 -0.30722,-0.3844c-9.0152,0.77031 -17.1814,-3.92419 -18.23925,-10.48621c-0.56449,-3.49681 1.0185,-6.99741 4.32373,-9.56849c-7.8045,-3.3538 -10.42718,-10.71518 -5.85527,-16.44211c2.63631,-3.30401 7.26119,-5.48812 12.45209,-5.88084z" fill="url(#color-1)"/><path d="M176.27008,188.94908c-3.33246,0.19038 -6.66492,-0.37184 -9.54791,-1.61114M184.69506,206.57949c-1.34085,0.38894 -2.74527,0.64773 -4.17844,0.77031M220.6923,215.04988c-1.00791,-1.10325 -1.85086,-2.28218 -2.51675,-3.51709M267.24234,206.27985c-0.14831,1.30907 -0.48579,2.60301 -1.0064,3.85912M287.22652,182.43428c7.5563,2.68383 12.32345,8.29514 12.25686,14.42326M316.1351,167.07197c-1.22432,2.08695 -3.09183,3.93812 -5.45725,5.40852M303.03982,147.0041c0.20885,0.8428 0.3057,1.69816 0.28906,2.55428M268.18821,144.02471c0.71129,-1.17847 1.65261,-2.27567 2.79521,-3.25755M242.03852,145.57698c0.29057,-0.97371 0.7461,-1.91745 1.35447,-2.80929M211.35173,146.53117c1.77973,0.76032 3.42478,1.67561 4.90032,2.72545M174.13621,167.95124c-0.38743,-0.93784 -0.67345,-1.89672 -0.85506,-2.86755" fill="none"/><path d="M224.57529,159.56617c5.87622,-3.40562 35.25659,13.62263 35.25659,20.43393c0,6.81131 -29.38037,23.83935 -35.25659,20.43373c-5.87622,-3.40562 -5.87622,-37.46197 0,-40.86766z" fill="#33cc33"/></g></g></svg>