<svg version="1.1" xmlns="http://www.w3.org/2000/svg" xmlns:xlink="http://www.w3.org/1999/xlink" width="61.2162" height="61.28391" viewBox="0,0,61.2162,61.28391"><g transform="translate(-209.3919,-149.35805)"><g fill-rule="evenodd" stroke="#000000"><path d="M210.1419,180c0,-16.50889 13.36776,-29.89195 29.8581,-29.89195c16.49034,0 29.8581,13.38307 29.8581,29.89195c0,16.50862 -13.36776,29.89195 -29.8581,29.89195c-16.49034,0 -29.8581,-13.38333 -29.8581,-29.89195z" fill="#e7e6e6" stroke-width="1.5" stroke-miterlimit="8"/><path d="M254.77062,157.28489c1.04876,2.61797 2.09345,5.23783 3.13612,7.8585c0.09411,0.23683 0.1889,0.47367 0.28301,0.7105c0.74815,1.88031 1.49426,3.76151 2.23631,5.64427c0.1828,0.46365 0.36561,0.92723 0.54909,1.39067c0.02505,0.06405 0.05078,0.1281 0.07651,0.19405c0.04943,0.12444 0.09885,0.24888 0.1476,0.37333c0.07989,0.20237 0.16046,0.40481 0.24036,0.60725c0.26405,0.66791 0.5281,1.33576 0.79215,2.00361c0.12187,0.30813 0.24374,0.61626 0.36561,0.92438c0.05823,0.1459 0.11578,0.29181 0.17333,0.43771c0.13067,0.32911 0.26066,0.6583 0.38998,0.98776c0.08598,0.21869 0.17333,0.4367 0.2627,0.6541c0.03589,0.09005 0.07244,0.18009 0.10968,0.27292c0.03114,0.07576 0.06229,0.15159 0.09411,0.22966c0.07312,0.24347 0.08531,0.43724 0.065,0.69012c-0.12458,0.22025 -0.12458,0.22025 -0.30129,0.44422c-0.03182,0.04062 -0.06364,0.08125 -0.09614,0.12309c-1.32093,1.65635 -2.95331,2.96049 -4.73464,4.09164c-0.08666,0.05538 -0.17265,0.11077 -0.26202,0.16784c-3.61818,2.26529 -8.62771,4.53653 -13.00215,3.70173c-1.22005,-0.30745 -2.18011,-0.90922 -2.85988,-1.98059c-0.08328,-0.20508 -0.09817,-0.32675 -0.06161,-0.54659c1.09277,-1.33265 3.29184,-2.75263 5.00885,-2.95345c0.39472,-0.01808 0.6669,-0.01638 1.01626,0.17488c0.22275,0.42072 0.22613,0.81152 0.08869,1.26832c-0.18213,0.52133 -0.41503,1.01856 -0.66622,1.51024c1.5667,-1.6988 1.5667,-1.6988 2.22074,-3.82976c0.00068,-0.11361 0.00068,-0.11361 0.00068,-0.22952c-0.00203,-0.21395 -0.00203,-0.21395 -0.08937,-0.44171c-1.0887,-0.46656 -2.38053,-0.01388 -3.42048,0.39919c-0.80028,0.33088 -1.5816,0.70183 -2.34938,1.10143c-0.15098,0.07847 -0.30332,0.15511 -0.45566,0.23169c-2.11038,1.0734 -4.05962,2.43489 -5.93371,3.87424c-0.04739,0.03629 -0.09479,0.07258 -0.14354,0.10996c-0.92418,0.71043 -1.80841,1.46467 -2.67098,2.2487c-0.1239,0.11239 -0.24848,0.22343 -0.37306,0.33379c-0.7732,0.68383 -1.52202,1.40759 -2.18079,2.20314c-0.09208,0.11036 -0.09208,0.11036 -0.18551,0.22343c-0.35681,0.42993 -0.35681,0.42993 -0.68315,0.8822c-0.05213,0 -0.10427,0 -0.15775,0c-0.03994,-0.10223 -0.03994,-0.10223 -0.08057,-0.20718c-0.55857,-1.4428 -1.12188,-2.88425 -1.69128,-4.32299c-0.02844,-0.07177 -0.05687,-0.14354 -0.08598,-0.21733c-0.14218,-0.36033 -0.28504,-0.72039 -0.4279,-1.08051c-0.24374,-0.61524 -0.4868,-1.23075 -0.72986,-1.84626c-0.02302,-0.05904 -0.04672,-0.11808 -0.07041,-0.17888c-0.50779,-1.2862 -1.01287,-2.57348 -1.51796,-3.8607c-0.47732,-1.21552 -0.956,-2.43056 -1.43671,-3.64472c-0.69262,-1.75113 -1.38119,-3.5041 -2.06908,-5.25719c-0.30332,-0.77238 -0.60664,-1.54463 -0.91064,-2.31688c-0.28978,-0.73799 -0.57956,-1.47625 -0.86934,-2.21451c-0.18754,-0.47902 -0.37644,-0.95769 -0.56602,-1.43603c-0.1063,-0.26865 -0.21259,-0.53758 -0.31821,-0.80644c-0.04807,-0.12086 -0.09614,-0.24164 -0.14421,-0.36223c-0.06432,-0.16188 -0.12796,-0.32411 -0.19161,-0.48633c-0.03589,-0.0889 -0.07109,-0.1778 -0.10697,-0.2694c-0.07244,-0.22946 -0.10223,-0.39229 -0.0738,-0.63041c0.15708,-0.17522 0.15708,-0.17522 0.38457,-0.35532c0.04198,-0.03318 0.08328,-0.06635 0.12593,-0.10054c5.47669,-4.30647 12.09558,-5.96444 18.9907,-5.62443c1.11917,2.51702 2.23767,5.03404 3.35616,7.55098c0.0325,0.07332 0.065,0.14658 0.09817,0.22214c0.06635,0.14807 0.13202,0.29615 0.1977,0.44422c0.16452,0.36987 0.32837,0.73968 0.49289,1.10949c0.2979,0.66988 0.59581,1.33975 0.89303,2.00984c0.16588,0.37502 0.33244,0.74998 0.49899,1.125c0.0325,0.0736 0.06568,0.14719 0.09885,0.22296c0.49967,1.12432 1.00339,2.24653 1.50916,3.3678c0.57617,1.27781 1.14016,2.56096 1.69805,3.84675c-0.21192,-0.92689 -0.44482,-1.84619 -0.69398,-2.76381c-0.03724,-0.13649 -0.0738,-0.27306 -0.11104,-0.40955c-0.07854,-0.29113 -0.15708,-0.58213 -0.23629,-0.8732c-0.12458,-0.46094 -0.24916,-0.92201 -0.37373,-1.38308c-0.17536,-0.6476 -0.35003,-1.29521 -0.52539,-1.94281c-0.37915,-1.40164 -0.7583,-2.80341 -1.13678,-4.20525c-0.12526,-0.46392 -0.25051,-0.92777 -0.37577,-1.39162c-0.07854,-0.28863 -0.1564,-0.57726 -0.23426,-0.86595c-0.03589,-0.13345 -0.07177,-0.26683 -0.10833,-0.40014c-0.16859,-0.62194 -0.33649,-1.2424 -0.46785,-1.87348c0.0738,-0.0174 0.1476,-0.0348 0.22343,-0.05267c3.52271,-0.83596 7.04001,-1.86786 9.79021,-4.33755c0.30467,-0.26872 0.30467,-0.26872 0.56669,-0.26872zM248.53292,178.21068c0.07922,0.15789 0.07922,0.15789 0.07922,0.15789z" fill="#0fd200" stroke-width="0.5" stroke-miterlimit="10"/><path d="M218.52316,163.92077c0.01896,0.04861 0.03792,0.09729 0.05823,0.14746c0.24577,0.62431 0.49154,1.24862 0.73799,1.87287c0.02979,0.07583 0.02979,0.07583 0.06026,0.15315c0.49154,1.247 0.98376,2.49379 1.47801,3.73978c0.5281,1.33129 1.05282,2.66367 1.57821,3.99618c0.44889,1.13874 0.89777,2.27734 1.34937,3.41513c0.6669,1.68139 1.32973,3.36435 1.99257,5.04717c0.26134,0.66318 0.52336,1.32621 0.7847,1.98932c1.22818,3.11499 2.45568,6.2308 3.67911,9.34728c0.58226,1.48342 1.16589,2.96618 1.74951,4.44892c0.06161,0.15572 0.12255,0.31145 0.18416,0.46717c0.15843,0.40352 0.31754,0.80569 0.47935,1.20786c0.03318,0.08328 0.06635,0.16588 0.10088,0.25187c0.06297,0.15843 0.12729,0.31686 0.19093,0.47529c0.02844,0.07109 0.05687,0.14218 0.08598,0.2153c0.03792,0.09343 0.03792,0.09343 0.07583,0.18822c0.05349,0.17265 0.05349,0.17265 0.05349,0.48748c-0.33446,0.14083 -0.66961,0.28098 -1.00407,0.42113c-0.11375,0.04739 -0.22749,0.09479 -0.34124,0.14218c-0.3216,0.13473 -0.6432,0.26947 -0.96548,0.40285c-0.12864,0.05349 -0.2566,0.10833 -0.38457,0.1625c-0.06838,0.02911 -0.13744,0.05755 -0.20786,0.08734c-0.05755,0.02437 -0.1151,0.04943 -0.174,0.07448c-0.19364,0.05823 -0.36087,0.0589 -0.56263,0.0501c-0.74137,-2.0772 -1.47733,-4.15644 -2.20584,-6.23838c-0.14827,-0.42519 -0.29723,-0.85038 -0.44618,-1.27489c-0.02776,-0.07854 -0.02776,-0.07854 -0.05552,-0.15911c-0.3778,-1.0799 -0.75898,-2.15845 -1.14016,-3.23767c-0.06161,-0.174 -0.12322,-0.34869 -0.18484,-0.52268c-0.03047,-0.08666 -0.06093,-0.17265 -0.09208,-0.26134c-0.03047,-0.08666 -0.06093,-0.17265 -0.09276,-0.26202c-0.03047,-0.08598 -0.06093,-0.17197 -0.09208,-0.26134c-1.07449,-3.03984 -2.14288,-6.08218 -3.21127,-9.12446c-0.24171,-0.68911 -0.48409,-1.37815 -0.7258,-2.06725c-0.68924,-1.96082 -1.3778,-3.9219 -2.06502,-5.8834c-0.57753,-1.64924 -1.15573,-3.2984 -1.73461,-4.94731c-0.07244,-0.2065 -0.14489,-0.41307 -0.21733,-0.61957c-0.10021,-0.28599 -0.20108,-0.57198 -0.30129,-0.85796c-0.02911,-0.08321 -0.05823,-0.16642 -0.08869,-0.25214c-0.02776,-0.07881 -0.05484,-0.15762 -0.08396,-0.23886c-0.0264,-0.07535 -0.05281,-0.15071 -0.07989,-0.22837c-0.05552,-0.15491 -0.11307,-0.30921 -0.17197,-0.46297c-0.04333,-0.11415 -0.04333,-0.11415 -0.08802,-0.2306c-0.0264,-0.06737 -0.05281,-0.1348 -0.07989,-0.2042c-0.06026,-0.20603 -0.06771,-0.3757 -0.05755,-0.58924c0.30941,-0.1455 0.6195,-0.28971 0.93027,-0.43359c0.08734,-0.04144 0.17536,-0.08274 0.26608,-0.12539c0.08463,-0.03913 0.16926,-0.07827 0.2566,-0.11855c0.11713,-0.0545 0.11713,-0.0545 0.23629,-0.11009c0.20988,-0.07962 0.20988,-0.07962 0.52675,-0.07962z" fill="#000000" stroke-width="0.5" stroke-miterlimit="10"/></g></g></svg>