<svg version="1.1" xmlns="http://www.w3.org/2000/svg" xmlns:xlink="http://www.w3.org/1999/xlink" width="105.76419" height="58.50463" viewBox="0,0,105.76419,58.50463"><defs><radialGradient cx="239.99985" cy="179.99993" r="59.38244" gradientUnits="userSpaceOnUse" id="color-1"><stop offset="0" stop-color="#9dc3e6"/><stop offset="0.5" stop-color="#9dc3e6"/><stop offset="1" stop-color="#ffffff"/></radialGradient></defs><g transform="translate(-187.11791,-150.44454)"><g fill-rule="evenodd" stroke="#000000" stroke-width="1.5" stroke-miterlimit="8"><path d="M251.82796,151.59458c0.80203,0.05487 1.60223,0.2129 2.36962,0.48012c2.34046,0.81369 4.01924,2.51745 4.46947,4.53892l0.02552,0.0113l3.52891,1.60678c0.98613,0.75737 1.74441,1.70959 2.1837,2.78722c0.31716,0.78234 0.45387,1.59822 0.41195,2.40772l-0.34633,1.22619l0.30623,-0.09971c1.22309,-0.14017 2.448,-0.00784 3.55261,0.35836l2.7597,1.70977l0.08203,0.05104c1.62228,-1.54262 4.04111,-2.30819 6.44537,-2.14378c0.80203,0.05468 1.60223,0.2129 2.36962,0.47994c2.34046,0.81369 4.01924,2.51763 4.46947,4.5391l0.02552,0.01112l3.52891,1.60697c0.98613,0.75737 1.74441,1.70959 2.1837,2.78722c0.63615,1.5645 0.54501,3.26351 -0.25701,4.77679c1.97408,2.07542 2.66491,4.76585 1.87565,7.3039c-1.04992,3.37416 -4.52233,5.9009 -8.78765,6.39324c-0.02005,2.10605 -1.16841,4.10345 -3.14613,5.47838c-3.00395,2.08928 -7.344,2.35777 -10.70886,0.66331c-1.0882,2.91062 -4.00284,5.13551 -7.65387,5.84439c-4.30177,0.8352 -8.79311,-0.58821 -11.25205,-3.56737c-1.45276,0.70688 -3.01124,1.13778 -4.58795,1.31204l-2.97843,-0.14491l-1.81914,0.90228c-2.64668,0.87749 -5.7199,0.7107 -8.24263,-0.56014c-1.0882,2.91062 -4.00284,5.13551 -7.65387,5.84439c-4.30177,0.8352 -8.79311,-0.58821 -11.25205,-3.56737c-5.80739,2.82787 -13.34643,1.23822 -16.71676,-3.52472c-3.31018,0.31315 -6.41803,-1.34503 -7.34947,-3.92227c-0.67443,-1.86453 -0.07838,-3.8767 1.56942,-5.29428c-2.33863,-1.11208 -3.64192,-3.24583 -3.31565,-5.4319c0.38278,-2.55937 2.89641,-4.56407 6.05711,-4.82801c0.01823,-0.04265 0.03828,-0.08439 0.05651,-0.12723c-0.42289,-2.52036 0.56689,-5.06206 2.69772,-6.93314l2.66309,-1.65163l-0.06927,-0.06143c-0.57782,-0.94566 -0.82208,-2.02566 -0.65985,-3.1186c0.38278,-2.55937 2.89641,-4.56407 6.05711,-4.82801c0.01823,-0.04265 0.03828,-0.08458 0.05651,-0.12723c-0.42289,-2.52036 0.56689,-5.06224 2.69954,-6.93314c3.36851,-2.9551 8.83139,-3.61385 13.12405,-1.584l0.00182,-0.00273l2.61023,-2.3822c3.15706,-1.76573 7.63382,-1.63522 10.61954,0.7406l0.04739,-0.04484l2.07251,-1.97025c0.88587,-0.51567 1.92304,-0.86017 3.03676,-0.9874c1.22309,-0.14035 2.448,-0.00784 3.55261,0.35836l2.7597,1.70959l0.08203,0.05104c1.62228,-1.54262 4.04111,-2.30801 6.44537,-2.14378z" fill="url(#color-1)"/><path d="M252.38026,158.78784c2.72689,1.41831 4.68091,3.97641 5.33347,6.98017" fill="none"/><path d="M231.08649,195.75501c-2.85995,4.93701 -9.17954,6.62364 -14.11929,3.76843" fill="none"/><path d="M211.41318,167.86695c2.45529,-3.37835 6.70238,-4.94777 10.76537,-3.97786" fill="none"/><path d="M280.75738,174.53907c2.35686,1.95658 3.71848,4.85973 3.71848,7.92164" fill="none"/><path d="M266.91697,189.64084c-1.57489,4.77169 -6.35423,7.71949 -11.32496,6.98673" fill="none"/></g></g></svg>