<svg version="1.1" xmlns="http://www.w3.org/2000/svg" xmlns:xlink="http://www.w3.org/1999/xlink" width="83.38178" height="70.43138" viewBox="0,0,83.38178,70.43138"><g transform="translate(-198.25188,-144.75738)"><g fill-rule="evenodd"><path d="M265.9795,180.47018c-0.51232,0.06724 -0.42836,0.32097 -0.5068,0.87311c-0.05916,0.52297 -0.23425,1.52674 -0.36578,2.21685c-0.13064,0.68883 -0.16169,1.3607 0.00436,1.43325c0.40972,0.28393 9.62324,-3.07655 10.02815,-3.66222c0.16275,-0.23486 0.02749,-0.41455 -0.31933,-0.35165c-0.35584,0.0132 -2.51665,-0.05585 -4.75418,-0.26498c-2.46551,-0.19234 -3.57412,-0.3117 -4.08642,-0.24434zM251.26102,163.04432c-4.40388,1.46356 -6.97419,7.12405 -5.12533,13.5098c1.61919,5.54399 6.49884,9.31922 10.95679,8.51076c2.03018,-0.36817 4.85432,-3.13351 5.6969,-5.53961l0.77125,-2.23938l1.84043,0.84394c2.55741,1.12371 7.5013,1.30251 8.33922,0.27996c2.69354,-3.20245 2.10093,-10.98101 -1.02232,-14.66485c-2.20591,-2.57006 -3.97975,-3.32373 -6.65387,-2.83878c-2.52611,0.45811 -3.89059,1.67859 -4.58519,4.05763l-0.56295,1.68959l-1.76967,-1.5738c-1.03048,-0.88849 -2.36709,-1.77269 -2.96666,-1.97119c-1.77911,-0.5735 -3.4503,-0.55199 -4.91862,-0.06407zM244.00605,158.60786c-6.79425,1.18092 -9.77183,2.54026 -16.06784,7.31782c-2.62023,2.04984 -6.27345,6.18811 -7.83342,8.69372l-0.34802,0.64711l0.10592,-0.05593c2.72423,-1.28561 5.40633,-2.10201 6.4443,-0.75988c0.25951,0.33561 0.49354,0.88152 0.70011,1.58362c0.0747,0.35037 0.14832,0.70095 0.22302,1.05133l0.4879,0.06887c2.35947,0.4938 4.48067,1.26138 5.18813,2.05478c0.58002,0.66295 0.05819,0.60391 -2.96817,-0.28108l-2.40689,-0.41679c0.00371,0.01428 0.00635,0.02887 0.01007,0.04326c0.89072,5.7608 0.69363,15.19083 -1.11338,16.57425c-0.9035,0.69171 -2.83541,-0.15204 -5.02583,-1.60289l-0.35405,-0.25385l-0.00432,0.00078c-1.03286,0.29221 -1.02216,0.51124 -0.66459,1.21531c1.83214,3.61053 6.03227,6.74029 10.65117,7.95161c5.15068,1.3191 9.50968,1.09106 18.72647,-0.83597c11.52823,-2.44888 15.95479,-4.83969 19.51378,-10.60527c1.57586,-2.5903 2.42309,-5.2538 1.79762,-5.60128c-0.11723,-0.0803 -1.95451,0.50845 -4.01218,1.29118c-2.06668,0.73302 -3.91278,1.27316 -4.03021,1.19179c-0.11742,-0.08137 -0.10269,-1.41542 0.04118,-2.87444c0.29367,-2.61445 0.27565,-2.71385 -0.44005,-1.86648c-5.57642,7.05325 -15.65739,3.09503 -18.16238,-7.05035c-0.76415,-3.08753 -0.81285,-4.20529 -0.25839,-6.5078c0.81081,-3.42437 2.99576,-6.3298 6.58552,-8.82419c1.50778,-0.99035 2.64283,-2.06678 2.49056,-2.34639c-0.46795,-0.88806 -3.37318,-0.82209 -9.27606,0.19717zM249.2648,145.56915c0.73315,-0.04334 1.75528,0.09136 2.83598,0.4075c4.60612,1.41775 8.2655,5.51649 9.11963,10.22631c0.25174,1.38817 0.66575,1.97878 1.71473,2.40312c0.72486,0.32934 1.67917,0.51473 2.07569,0.44282c1.63473,-0.29646 6.74896,1.38771 7.41095,2.49659c0.35533,0.55013 0.87773,1.17231 1.20182,1.26709c0.99029,0.38376 3.20848,5.56311 3.42433,7.87949c0.16508,2.32569 -0.47972,5.82229 -1.45719,7.4846c-0.46839,0.80175 -0.38264,0.99153 0.4146,1.15385c0.53972,0.15768 1.07062,0.26675 1.21973,0.23971c0.15811,0.02266 0.58942,0.14867 0.98131,0.33428c0.38268,0.13483 1.28307,0.02288 1.94087,-0.30064c1.04511,-0.44621 1.15245,-0.41434 0.81526,0.26171c-0.28393,0.40972 -1.70247,1.33211 -3.17471,1.95844c-3.60354,1.57531 -5.26533,2.8487 -5.07645,3.89026c0.23376,1.28899 -1.6091,5.51464 -3.27598,7.60921c-2.83717,3.53662 -6.97143,6.12998 -13.52732,8.34226c-3.36824,1.1744 -18.03001,3.83332 -17.83184,3.23381c0.20719,-0.54981 -2.80269,-0.58094 -4.04339,-0.2901c-1.2398,0.28957 -1.85065,1.26617 -3.02468,2.71225c0.3489,1.91967 6.53503,2.98149 4.82503,5.11004c-1.98484,2.47065 -7.60564,-4.01018 -7.16038,-5.42565c0.44615,-1.41675 1.00445,-1.02978 0.99291,-2.21957c-0.01262,-1.18959 -1.08926,-2.05564 -2.44006,-2.16891c-0.51287,-0.00966 -2.71921,2.69017 -3.71553,4.25468c-0.99632,1.56451 -0.38761,2.66458 -0.12953,3.80726c0.41786,1.85013 3.21718,2.34564 2.14762,3.55082c-1.02356,1.15335 -4.78708,-2.83267 -5.1097,-3.36336c0.45997,-4.5708 0.57658,-3.49808 1.2335,-5.11264c0.65711,-1.61348 2.97082,-3.94477 1.72032,-5.20338c-0.43676,-0.43303 -1.63381,-1.95689 -2.65599,-3.35957c-2.18735,-3.03387 -2.65161,-3.05236 -5.9838,-0.55311l-2.34205,1.75611l0.64861,-1.50034c0.36112,-0.83329 0.42823,-1.30636 0.15813,-1.10338c-0.26127,0.25161 -0.49968,0.34618 -0.53553,0.14845c-0.02704,-0.1491 0.50431,-0.6037 1.1529,-0.978c0.63977,-0.42292 1.01301,-0.90018 0.77022,-1.11283c-0.38686,-0.44097 -3.42257,1.44094 -7.58808,4.7051c-1.30219,1.00396 -2.51819,1.63404 -2.76078,1.42247c-0.29249,-0.20364 -1.14734,-1.53287 -1.97179,-2.97141l-1.48514,-2.54631l1.17994,-0.82889c0.63076,-0.47262 1.20549,-0.64492 2.02269,-0.98172c0.8174,-0.33572 1.79659,-0.53004 2.88152,-1.03369c-0.22555,-0.33296 -0.3633,-0.64947 -0.67864,-0.9976c-0.31429,-0.34844 -0.31782,-0.65715 -1.20928,-1.09288c-0.89148,-0.43583 -3.23372,-1.25919 -4.13843,-1.52187c-0.90364,-0.26288 -0.80368,-0.61011 -1.11831,-1.23738c-0.31465,-0.62737 -1.10815,-1.67367 -0.76956,-2.52654l8.39462,-1.37762c0.56716,0.11208 2.38879,-0.69836 3.74533,-1.07037l6.22517,-5.33432l3.05827,-4.29284c1.72025,-2.36025 3.33742,-4.44581 3.65727,-4.65749c0.31986,-0.21157 1.33388,-1.11237 2.2971,-2.00397c0.96431,-0.89179 2.58521,-2.10755 3.60348,-2.70177c1.02616,-0.54455 2.02642,-1.23807 2.2876,-1.49023c0.21145,-0.24324 0.86915,-0.5673 1.4634,-0.67506c0.64396,-0.11678 1.20223,-0.42292 1.30531,-0.69762c0.52757,-1.32471 11.88868,-3.84584 15.78311,-3.52796c1.92235,0.1634 1.97205,0.15439 0.9548,-0.37805c-0.61646,-0.29777 -2.11167,-0.64119 -3.31341,-0.78171c-1.24352,-0.08172 -2.26552,-0.35729 -2.30148,-0.55555c-0.03596,-0.19827 -0.8639,-0.25301 -1.85468,-0.07333c-1.98156,0.35936 -5.81728,0.08204 -5.91619,-0.46337c-0.14384,-0.79316 4.72432,-3.00738 6.71011,-3.06027c2.34162,-0.0662 8.88701,1.61445 9.01288,2.30853c0.04495,0.24786 0.37803,0.39224 0.77456,0.32033c0.34682,-0.0629 1.0807,0.31614 1.6348,0.83012c1.52117,1.61886 1.6115,0.42467 0.14371,-1.45988c-0.78306,-0.93336 -1.42601,-1.94335 -1.47995,-2.2408c-0.12587,-0.69409 -4.07913,-3.30559 -5.64992,-3.78887c-0.70689,-0.23026 -1.28266,-0.58675 -1.32761,-0.83461c-0.07193,-0.39664 0.37334,-0.61822 1.10758,-0.66177z" fill="#000000" stroke="#000000" stroke-width="1.5" stroke-miterlimit="8"/><path d="M268.96602,167.54177c0.4867,-0.00545 0.97222,0.32722 1.09308,0.99365c0.11639,0.64179 0.49271,1.33844 0.83708,1.582c0.91794,0.64944 0.91228,3.09816 0.01088,3.92452c-0.6455,0.57596 -0.95404,0.52991 -1.66963,-0.10522c-0.85649,-0.86446 -1.65361,-3.8815 -1.37164,-5.36044c0.12563,-0.68568 0.61352,-1.02916 1.10024,-1.03451z" fill="#000000" stroke="#2f528f" stroke-width="0" stroke-miterlimit="8"/><path d="M257.55948,170.74787c0.53712,-0.25052 1.24854,-0.04451 1.5465,0.5524c0.23657,0.46755 0.74151,1.295 1.14402,1.83457c1.55824,2.1679 -0.02197,5.46652 -1.7448,3.78792c-0.85746,-0.81441 -1.88255,-5.07003 -1.40127,-5.76999c0.11781,-0.18732 0.2776,-0.32153 0.45555,-0.40492z" fill="#000000" stroke="#2f528f" stroke-width="0" stroke-miterlimit="8"/><path d="M267.62883,181.55268c0.64964,-0.09773 1.32442,0.01092 1.75042,0.37224c0.84962,0.72197 0.54698,1.03465 -1.81359,1.61786c-1.91326,0.50209 -2.39238,0.12473 -1.53764,-1.11278c0.32511,-0.47188 0.95029,-0.77832 1.60081,-0.87732z" fill="#000000" stroke="none" stroke-width="0" stroke-miterlimit="10"/><path d="M226.39168,177.01607l-0.00472,0.13399l0.41814,-0.07583zM244.00176,158.66422c5.90071,-1.01887 8.80376,-1.08466 9.27164,-0.19692c0.15332,0.27931 -0.98071,1.35522 -2.48962,2.34544c-3.5877,2.49347 -5.77066,5.39753 -6.58169,8.82071c-0.55461,2.30175 -0.5049,3.41888 0.25904,6.50522c2.50443,10.14225 12.5796,14.09929 18.15406,7.04751c0.71588,-0.84629 0.7339,-0.74688 0.43985,1.8654c-0.14367,1.4601 -0.15753,2.79287 -0.04118,2.87444c0.11742,0.08137 1.96245,-0.45856 4.02913,-1.19159c2.05658,-0.78252 3.89279,-1.37109 4.01022,-1.28971c0.62528,0.3464 -0.22107,3.00862 -1.79713,5.59784c-3.55702,5.76411 -7.98269,8.15364 -19.50444,10.60135c-9.21356,1.92644 -13.57038,2.15409 -18.71871,0.83568c-4.61763,-1.21043 -8.81648,-4.33931 -10.64734,-7.94896c-0.23796,-0.46909 -0.32192,-0.72282 -0.04623,-0.9257l0.00825,-0.00372l3.45007,-4.46467l-3.82728,3.7385l-0.66575,0.10734c-3.17091,0.27485 -3.66721,-0.53575 -1.58803,-2.63367c0.48197,-0.48693 0.85283,-0.91577 1.10911,-1.25641l0.3477,-0.6119l-0.02426,-0.13376l-0.21376,-0.02797c-0.22583,0.12086 -0.57627,0.3854 -1.05839,0.82224c-2.93941,2.74517 -7.02402,3.92004 -8.97437,2.59306c-1.5512,-1.02139 -1.24499,-1.57286 1.27273,-1.95412c1.10815,-0.1417 2.6734,-0.83357 3.43388,-1.53238l1.41873,-1.24751l-2.97678,0.98222c-3.58069,1.17823 -5.7444,1.21004 -8.2512,0.18082c-1.40308,-0.61692 -4.10384,-2.60496 -4.10014,-3.0584c1.29097,0.01107 1.21654,0.92372 3.87296,0.03341c2.6564,-0.89042 10.2032,-3.42925 12.06546,-5.37567c2.16167,-2.2584 0.19666,-1.83866 2.77009,-1.02654l6.9286,-5.65852l-5.97171,3.41505c-0.24267,-1.33814 5.08284,-7.78109 8.57591,-10.51329c6.29408,-4.77587 9.26956,-6.1345 16.06057,-7.31483z" fill="#71e4ff" stroke="#71e4ff" stroke-width="0" stroke-miterlimit="8"/><path d="M251.25834,163.10954c1.46948,-0.48768 3.14383,-0.51031 4.92584,0.06076c0.59945,0.19785 1.9378,1.07938 2.96896,1.96541l1.77113,1.56952l0.56572,-1.68663c0.6965,-2.37469 2.06352,-3.59352 4.59395,-4.05241c2.67845,-0.48574 4.45405,0.26539 6.66208,2.8287c3.1249,3.67451 3.7135,11.43705 1.01354,14.63497c-0.83942,1.02046 -5.79039,0.84575 -8.35044,-0.27413l-1.84324,-0.84098l-0.77312,2.23525c-0.84566,2.40141 -3.676,5.16341 -5.70941,5.53217c-4.46552,0.80982 -9.34989,-2.95451 -10.96799,-8.4863c-1.84637,-6.37203 0.73128,-12.02282 5.14298,-13.48634zM268.98867,167.57438c-0.49754,0.0072 -0.9994,0.35366 -1.13018,1.04173c-0.29443,1.4841 0.50925,4.50653 1.38342,5.37002c0.7299,0.63409 1.04606,0.67898 1.70866,0.09891c0.926,-0.83228 0.94158,-3.28782 0.00391,-3.93536c-0.35095,-0.24292 -0.73405,-0.94001 -0.85067,-1.5831c-0.12113,-0.66794 -0.61651,-0.99961 -1.11514,-0.99221zM257.56258,170.72186c-0.18118,0.08397 -0.3431,0.21879 -0.46198,0.40641c-0.48768,0.70156 0.54029,4.9608 1.40549,5.77481c1.73938,1.6775 3.34285,-1.62825 1.77125,-3.79596c-0.40587,-0.53963 -0.91419,-1.36724 -1.153,-1.83484c-0.30023,-0.59707 -1.01927,-0.80202 -1.56176,-0.55041z" fill="#ffffff" stroke="#000000" stroke-width="0" stroke-miterlimit="8"/><path d="M265.99562,180.45443c0.5102,-0.06664 1.61728,0.05657 4.0764,0.25676c2.23224,0.21679 4.38734,0.29133 4.74229,0.27941c0.34575,-0.0627 0.4814,0.11915 0.32012,0.35598c-0.40305,0.5898 -9.58406,3.96335 -9.99349,3.6749c-0.16625,-0.07364 -0.13618,-0.75091 -0.00799,-1.44711c0.12927,-0.69638 0.3024,-1.71097 0.3595,-2.23914c0.07745,-0.55754 -0.00702,-0.81407 0.50316,-0.88081zM267.68144,181.63353c-0.64512,0.09802 -1.26471,0.40457 -1.58745,0.87713c-0.8464,1.24047 -0.36924,1.61931 1.5289,1.11995c2.34329,-0.58008 2.64357,-0.89345 1.79748,-1.62052c-0.42295,-0.36299 -1.09273,-0.47477 -1.73892,-0.37656z" fill="#ed7d31" stroke="#ae5a21" stroke-width="0" stroke-miterlimit="8"/></g></g></svg>