<svg version="1.1" xmlns="http://www.w3.org/2000/svg" xmlns:xlink="http://www.w3.org/1999/xlink" width="61.2162" height="61.2162" viewBox="0,0,61.2162,61.2162"><g transform="translate(-209.3919,-149.3919)"><g fill-rule="evenodd" stroke="#000000" stroke-width="1.5" stroke-miterlimit="8"><path d="M210.1419,180c0,-16.49019 13.36818,-29.8581 29.8581,-29.8581c16.48993,0 29.8581,13.3679 29.8581,29.8581c0,16.48993 -13.36817,29.8581 -29.8581,29.8581c-16.48992,0 -29.8581,-13.36818 -29.8581,-29.8581z" fill="#e7e6e6"/><path d="M225.44695,161.15394c0,-0.87421 0.70852,-1.58286 1.58307,-1.58286h6.33092c0.87455,0 1.58307,0.70866 1.58307,1.58286v37.69191c0,0.87455 -0.70852,1.58307 -1.58307,1.58307h-6.33092c-0.87455,0 -1.58307,-0.70852 -1.58307,-1.58307z" fill="#ffd966"/><path d="M245.05599,161.15394c0,-0.87421 0.70852,-1.58286 1.58307,-1.58286h6.33092c0.87455,0 1.58307,0.70866 1.58307,1.58286v37.69191c0,0.87455 -0.70852,1.58307 -1.58307,1.58307h-6.33092c-0.87455,0 -1.58307,-0.70852 -1.58307,-1.58307z" fill="#ffd966"/></g></g></svg>