<svg version="1.1" xmlns="http://www.w3.org/2000/svg" xmlns:xlink="http://www.w3.org/1999/xlink" width="474.53673" height="317.61867" viewBox="0,0,474.53673,317.61867"><g transform="translate(-4.55238,28.05448)"><g fill-rule="evenodd" stroke="none" stroke-miterlimit="10"><g><path d="M367.49293,-26.29553c4.14952,3.26827 6.05009,8.31156 8.20973,12.99129c10.73116,23.2032 26.15678,41.52611 47.75979,55.12955c0.37519,0.23718 0.74817,0.47436 1.13452,0.71891c1.02733,0.64967 2.05912,1.29153 3.09317,1.93294c2.78496,1.93942 5.15677,4.08587 6.56822,7.21567c0.00224,1.79293 0.00224,1.79293 -0.25907,3.6506c-0.469,2.81579 -0.469,2.81579 0.85536,5.28987c0.7973,2.92366 0.52706,4.94125 -0.5963,7.74854c-2.57949,3.15437 -5.32872,4.70652 -9.34873,5.21549c-3.27629,0.25439 -6.46549,-0.04466 -9.72168,-0.4471c1.34892,2.45398 3.01276,4.45192 4.9178,6.48203c0.2948,0.31513 0.58737,0.63115 0.89111,0.95587c0.5829,0.62355 1.16804,1.24597 1.75539,1.86707c0.63427,0.67223 1.25961,1.35049 1.88493,2.03122c6.74243,7.10825 15.64449,12.18416 24.51975,16.11885c4.74582,2.13484 7.76082,4.31569 9.83337,9.23862c0.3819,2.62952 0.19207,4.9149 -0.74593,7.41332c-0.27693,1.35787 -0.27693,1.35787 0.74593,3.09182c1.21046,2.63019 1.15464,4.88631 0.29704,7.63688c-1.83132,3.42861 -4.50686,4.83047 -8.06456,6.12335c-6.60397,1.94658 -13.77518,1.13833 -20.53995,0.43327c7.93502,10.83657 19.01681,19.36343 31.30684,24.70108c0.58066,0.25237 1.16133,0.50697 1.75986,0.76604c1.14347,0.49357 2.29363,0.97597 3.44827,1.44273c4.64309,1.98543 7.16229,4.69222 9.96736,8.81496c0.71467,2.18421 0.55386,3.72744 0.19431,5.96746c-0.27469,1.73306 -0.2412,2.88101 0.36626,4.53814c1.3467,4.3617 1.80007,8.00202 -0.34839,12.16049c-2.74476,4.12272 -7.08635,6.39403 -11.82325,7.52857c-3.88599,0.72584 -7.638,1.06754 -11.59099,1.06083c-0.58737,0 -1.17473,0 -1.77996,0c-5.94735,-0.09157 -11.57312,-1.17249 -17.32842,-2.60853c-0.46007,-0.1139 -0.92013,-0.2278 -1.3936,-0.34394c-1.1256,-0.2814 -2.24896,-0.56281 -3.37457,-0.84643c-0.22333,0.35734 -0.44667,0.71689 -0.67671,1.08763c-2.16857,3.38795 -3.89939,5.8692 -7.74073,7.40572c-7.36776,1.42486 -13.16995,-0.09826 -19.42775,-4.0669c-1.59907,-1.00501 -3.22492,-1.83132 -4.9312,-2.63981c-0.201,0.49133 -0.201,0.49133 -0.4087,0.99384c-2.86537,5.092 -8.47995,9.03605 -13.29725,12.12029c-1.93406,1.00053 -1.93406,1.00053 -2.20877,2.83186c-0.16974,1.88717 -0.14963,3.60014 0.00669,5.4873c0.0536,0.66331 0.10721,1.32659 0.16079,2.00999c0.0603,0.6834 0.11837,1.36903 0.17867,2.07476c0.05584,0.67893 0.10943,1.35563 0.16527,2.05467c0.53822,6.5526 1.32214,13.06945 2.13284,19.59302c0.10721,0.871 0.2144,1.74423 0.32161,2.61746c0.15634,1.27077 0.3149,2.54376 0.47347,3.81677c0.09157,0.75264 0.18536,1.50526 0.2814,2.28023c0.21216,1.48517 0.46453,2.87877 0.87323,4.31926c0.43996,-0.03573 0.88216,-0.07146 1.33776,-0.10943c1.34892,-0.10721 2.7001,-0.20993 4.05126,-0.30821c1.59236,-0.12059 3.18027,-0.25013 4.77039,-0.39083c8.01095,-0.66552 15.11518,-0.29033 22.68619,2.57056c7.72286,2.90557 14.65512,3.46389 22.78668,3.51973c10.19516,0.06477 21.96258,0.98044 30.77754,6.6397c1.19037,1.7889 1.19037,1.7889 1.52759,3.16686c-0.4556,2.1775 -1.33776,2.99267 -3.07529,4.3349c-10.69542,6.29576 -27.34044,5.7017 -39.33566,5.58556c-0.67447,-0.00669 -1.34892,-0.01116 -2.04572,-0.01787c-2.814,-0.0268 -5.62577,-0.05584 -8.43977,-0.10274c-10.89643,-0.19876 -10.89643,-0.19876 -21.33501,2.53036c-1.73977,0.43103 -3.48176,0.73477 -5.25279,1.00501c-0.44891,0.0737 -0.90003,0.14517 -1.36232,0.21887c-9.95843,1.50974 -19.98385,1.23726 -30.02043,0.94247c-0.81517,-0.02457 -1.62809,-0.04689 -2.44326,-0.07146c-2.59066,-0.0737 -5.18357,-0.1541 -7.77646,-0.23227c-0.4422,-0.0134 -0.88663,-0.0268 -1.34223,-0.0402c-12.47763,-0.37967 -24.93962,-0.80401 -37.39713,-1.65044c-2.48123,-0.1675 -4.9647,-0.31266 -7.4504,-0.46007c-45.61803,-2.68223 -45.61803,-2.68223 -52.82944,-9.98745c-0.72584,-1.04966 -0.72584,-1.04966 -1.0251,-2.8743c1.92513,-3.76762 5.02276,-5.2327 8.95342,-6.54589c7.16452,-2.1909 14.87621,-3.4438 22.36682,-3.64256c4.78826,-0.1273 7.99755,-1.26406 12.03988,-3.7252c2.24227,-1.30427 3.96864,-1.63033 6.5392,-1.5209c6.80049,0.37967 6.80049,0.37967 13.09849,-1.82911c4.94013,-2.6867 12.89302,-1.4204 18.13018,-0.24567c1.49186,0.27693 2.87653,0.30373 4.39072,0.26129c0.73924,-3.38126 1.3199,-6.7134 1.6214,-10.16166c0.16079,-1.70402 0.36403,-3.39914 0.57174,-5.09647c1.00277,-8.39509 1.45837,-16.83708 1.9765,-25.27237c-0.469,-0.18314 -0.938,-0.36626 -1.4204,-0.5561c-3.50633,-1.4338 -6.09253,-3.91056 -8.70999,-6.59726c-0.98713,-0.79954 -1.98097,-1.5946 -2.97927,-2.38297c-1.19929,-1.06083 -1.8626,-1.91844 -2.68223,-3.31649c-0.84419,-1.59907 -0.84419,-1.59907 -2.67999,-2.64426c-0.44891,0.31713 -0.89556,0.63203 -1.35563,0.95809c-4.73242,3.26736 -9.47156,6.29129 -15.33181,6.78933c-0.59406,0.05806 -0.59406,0.05806 -1.19929,0.1139c-3.72744,0.20323 -6.91663,-0.55386 -10.1237,-2.49687c-2.76263,-2.62862 -3.8123,-5.27512 -4.76815,-8.94002c-0.33277,0.11837 -0.66552,0.23896 -1.00722,0.36403c-1.53654,0.55162 -3.07753,1.09879 -4.61629,1.64596c-0.5226,0.18983 -1.04743,0.37967 -1.58567,0.57397c-6.18186,2.1909 -11.49942,2.97256 -18.07881,2.9279c-1.05859,0.00669 -1.05859,0.00669 -2.13729,0.0134c-1.00501,-0.00224 -1.00501,-0.00224 -2.03234,-0.00447c-0.6097,0 -1.21717,-0.00224 -1.84473,-0.00224c-1.47401,-0.1541 -1.47401,-0.1541 -2.66437,-1.3467c-0.62756,-0.20323 -0.62756,-0.20323 -1.2663,-0.41094c-3.65819,-1.67053 -6.8407,-4.56494 -8.50452,-8.26332c-0.64543,-2.61522 -0.49357,-5.23715 -0.38636,-7.91269c0.02233,-1.64149 -0.14294,-2.72467 -0.5695,-4.27459c-0.29257,-3.71403 -0.4556,-6.99256 1.78667,-10.13263c3.11326,-3.0686 6.69107,-4.45549 10.69096,-6.1104c8.70553,-3.72296 16.13582,-7.86356 23.27801,-14.15485c0.51366,-0.44443 1.02957,-0.88663 1.55887,-1.34223c3.32766,-2.91226 6.3114,-6.01212 9.16782,-9.3867c-0.36179,0.04244 -0.72584,0.08486 -1.09879,0.12954c-1.81792,0.19207 -3.63363,0.33723 -5.45603,0.46676c-0.76826,0.0536 -1.53654,0.10943 -2.32936,0.16527c-6.44092,0.31266 -10.95896,-1.11443 -15.84773,-5.45557c-3.63363,-4.19263 -3.60237,-9.09636 -3.6113,-14.37953c-0.03349,-1.01684 -0.03349,-1.01684 -0.06701,-2.054c-0.02009,-3.73793 0.18314,-6.58141 2.7269,-9.45035c2.61077,-2.11475 5.65702,-3.30666 8.73679,-4.58882c1.39807,-0.61461 2.79613,-1.23214 4.19196,-1.85367c0.66331,-0.29457 1.32883,-0.58892 2.01223,-0.89289c7.6916,-3.53872 13.98065,-8.89648 20.16475,-14.57629c0.5695,-0.51613 0.5695,-0.51613 1.14793,-1.04297c2.39861,-2.23869 4.33936,-4.49838 6.11486,-7.2639c0,-0.39352 0,-0.7868 0,-1.19215c-0.58959,0.09826 -1.1792,0.19676 -1.78667,0.29814c-5.3198,0.72337 -11.26939,0.56793 -15.75392,-2.79434c-3.70733,-4.06735 -4.68106,-8.23206 -4.5091,-13.59696c0.19876,-0.39328 0.3953,-0.78658 0.5963,-1.19193c-0.00447,-1.4539 -0.07817,-2.89798 -0.1541,-4.34942c0.20323,-2.12501 0.79061,-3.38795 1.94301,-5.18736c1.25737,-0.99896 2.39637,-1.7994 3.76093,-2.60763c0.3685,-0.22959 0.73924,-0.4585 1.11891,-0.69435c2.47454,-1.52068 5.00935,-2.90936 7.55983,-4.2976c10.46762,-5.81493 19.82529,-14.99035 26.89155,-24.58675c0.4556,-0.60858 0.9112,-1.21695 1.3802,-1.84406c6.61959,-8.96592 11.91706,-18.40979 16.49761,-28.55404c0.63874,-1.409 1.27746,-2.8169 1.9229,-4.22212c0.39307,-0.85426 0.77942,-1.71052 1.16133,-2.56966c1.85367,-4.03898 3.97533,-6.98161 8.23875,-8.7053c3.11326,-0.99115 6.11933,-0.36224 8.91769,1.28529zM384.7968,188.18534c-0.95364,1.1122 -1.86036,2.23334 -2.75592,3.39019c-0.25907,0.31713 -0.51589,0.63203 -0.78166,0.95809c-1.24621,1.61693 -1.85367,2.45666 -1.69064,4.52919c0.15187,0.4154 0.30373,0.82857 0.46007,1.25513c0.58959,0 1.1792,0 1.7889,0c0,-0.39307 0,-0.78613 0,-1.19037c0.58959,-0.20323 0.58959,-0.20323 1.19037,-0.41094c2.34053,-1.0251 4.41753,-2.3718 6.55706,-3.76317c-0.5963,-2.00107 -0.98489,-2.83186 -2.72019,-4.06019c-1.27299,-0.7504 -1.27299,-0.7504 -2.04796,-0.70796zM333.43465,191.68722c-1.21046,1.14123 -1.21046,1.14123 -1.08094,2.4589c1.23281,1.1792 1.23281,1.1792 2.79389,2.3852c0.51813,0.41763 1.03626,0.83527 1.57227,1.2663c2.4187,1.6951 3.98649,2.30927 6.95683,2.30927c-0.31266,-2.40306 -0.94024,-3.65819 -2.57056,-5.43817c-0.35286,-0.3953 -0.70796,-0.79061 -1.07199,-1.19706c-2.99491,-3.11997 -2.99491,-3.11997 -6.5995,-1.78443z" fill="#fcfcfc"/><path d="M381.85105,170.29189c1.94746,0.0536 3.5577,0.1005 5.12104,1.36011c0.92907,1.02957 1.78443,2.08816 2.63086,3.18696c0.62756,0.76826 1.25513,1.53654 1.88269,2.30256c0.2948,0.36626 0.58959,0.73253 0.89332,1.10996c4.32596,5.30863 10.72,11.23589 17.50038,12.90866c3.50856,0.34617 6.97693,0.56503 10.13932,-1.1926c0.67447,-1.1792 0.67447,-1.1792 0.96926,-2.57056c0.61194,-2.1641 1.33554,-3.89716 2.60853,-5.7754c2.60629,0.23004 4.78603,0.77497 7.23153,1.71297c11.52175,4.35723 26.44712,6.00543 38.09393,1.2663c1.51643,-0.8375 2.89663,-1.71297 4.27459,-2.7604c1.1122,-0.83079 2.22439,-1.42486 3.47729,-2.00776c2.09933,2.73583 2.54153,5.56769 2.38742,8.94226c-0.97373,4.01553 -3.1289,6.72232 -6.56153,8.9445c-5.6615,3.2428 -12.03543,3.81006 -18.44955,3.80113c-0.58737,0 -1.17473,0 -1.77996,0c-5.95406,-0.09157 -11.58428,-1.17249 -17.34182,-2.60853c-0.46007,-0.1139 -0.92236,-0.2278 -1.39584,-0.34617c-1.1256,-0.27917 -2.25119,-0.56281 -3.37457,-0.84643c-0.22556,0.35957 -0.44891,0.71913 -0.67893,1.08987c-2.17081,3.38795 -3.90163,5.8692 -7.74519,7.40572c-7.37447,1.42709 -13.18112,-0.09603 -19.44339,-4.0669c-1.59907,-1.00501 -3.2294,-1.83356 -4.93342,-2.63981c-0.20323,0.49133 -0.20323,0.49133 -0.41094,0.99384c-2.86761,5.092 -8.48666,9.03829 -13.30618,12.12253c-1.9363,1.00277 -1.9363,1.00277 -2.21099,2.83409c-0.16974,1.88717 -0.14963,3.60237 0.00669,5.4873c0.0536,0.66331 0.10497,1.32883 0.16079,2.01223c0.05806,0.68564 0.11837,1.36903 0.17867,2.07476c0.05584,0.67893 0.10943,1.35787 0.16527,2.05691c0.53822,6.55482 1.32214,13.07169 2.13506,19.59749c0.10721,0.87323 0.2144,1.74646 0.32161,2.61746c0.15634,1.27299 0.3149,2.546 0.47124,3.81899c0.09381,0.75264 0.1876,1.5075 0.28364,2.28247c0.21216,1.48517 0.46453,2.88101 0.87323,4.3215c0.4422,-0.03573 0.8844,-0.07146 1.34,-0.10943c1.35116,-0.10721 2.70234,-0.20993 4.0535,-0.31042c1.59236,-0.11837 3.1825,-0.25013 4.77486,-0.39083c8.01766,-0.66552 15.12412,-0.29033 22.70181,2.5728c7.72957,2.90779 14.66629,3.46612 22.80454,3.51973c10.20409,0.06701 21.98044,0.98266 30.79987,6.64194c1.1926,1.7889 1.1926,1.7889 1.52759,3.16686c-0.4556,2.1775 -1.33776,2.99491 -3.07753,4.33714c-10.70212,6.298 -27.35831,5.70394 -39.36247,5.5878c-0.67447,-0.00447 -1.35116,-0.01116 -2.04796,-0.01787c-2.81624,-0.0268 -5.63022,-0.05584 -8.44646,-0.10274c-10.90536,-0.19876 -10.90536,-0.19876 -21.35065,2.5326c-1.73977,0.43103 -3.48624,0.73477 -5.25726,1.00501c-0.44891,0.07146 -0.90003,0.14294 -1.36232,0.21664c-9.96512,1.51197 -19.99949,1.2395 -30.04501,0.94469c-0.81294,-0.02457 -1.62809,-0.04913 -2.44326,-0.07146c-2.59289,-0.07593 -5.18802,-0.1541 -7.78315,-0.23227c-0.4422,-0.0134 -0.88663,-0.0268 -1.34223,-0.0402c-12.48655,-0.37967 -24.95971,-0.80401 -37.42393,-1.65044c-2.4857,-0.1675 -4.97139,-0.3149 -7.45709,-0.46007c-45.65376,-2.68446 -45.65376,-2.68446 -52.86965,-9.99416c-0.72584,-1.04743 -0.72584,-1.04743 -1.0251,-2.87206c1.92513,-3.76986 5.02499,-5.23494 8.96012,-6.55036c7.17123,-2.18866 14.88516,-3.4438 22.38245,-3.64256c4.79274,-0.1273 8.00202,-1.26406 12.04883,-3.72744c2.2445,-1.30203 3.97309,-1.63033 6.54366,-1.5209c6.80497,0.37967 6.80497,0.37967 13.10966,-1.82911c4.94237,-2.6867 12.90195,-1.4204 18.14358,-0.24567c1.49186,0.27693 2.87653,0.30373 4.39296,0.26129c0.74146,-3.38126 1.32214,-6.71563 1.62364,-10.16388c0.16079,-1.70402 0.36403,-3.40136 0.57174,-5.09869c1.00501,-8.39733 1.4606,-16.84379 1.97874,-25.28132c-0.469,-0.18314 -0.938,-0.36626 -1.42264,-0.55386c-3.50856,-1.43604 -6.097,-3.91503 -8.71446,-6.60173c-0.98937,-0.79954 -1.98319,-1.59683 -2.98372,-2.3852c-1.19929,-1.06083 -1.86484,-1.91844 -2.68223,-3.31649c-0.84643,-1.59907 -0.84643,-1.59907 -2.68446,-2.64426c-0.44667,0.3149 -0.89556,0.63203 -1.35563,0.95809c-4.73466,3.26736 -9.47827,6.29353 -15.34298,6.79157c-0.3953,0.03797 -0.79283,0.07593 -1.19929,0.1139c-3.72965,0.20323 -6.92332,-0.55386 -10.13263,-2.4991c-2.76487,-2.6264 -3.81453,-5.27512 -4.77039,-8.94226c-0.33277,0.12059 -0.66552,0.23896 -1.00946,0.36403c-1.53876,0.55162 -3.07753,1.10103 -4.61852,1.6482c-0.52484,0.1876 -1.04743,0.37743 -1.58791,0.57174c-6.18634,2.1909 -11.50835,2.9748 -18.09221,2.93014c-0.70573,0.00447 -1.41147,0.00893 -2.13729,0.01564c-0.67223,-0.00224 -1.34447,-0.00447 -2.0368,-0.00669c-0.60747,0 -1.21717,-0.00224 -1.84473,-0.00224c-1.47401,-0.1541 -1.47401,-0.1541 -2.66659,-1.3467c-0.41763,-0.13623 -0.83527,-0.27246 -1.2663,-0.41094c-3.70956,-1.69286 -6.83846,-4.59172 -8.50452,-8.33927c-0.73924,-2.78496 -0.74369,-5.69723 -0.3685,-8.54248c0.3953,-0.39307 0.78837,-0.78613 1.1926,-1.1926c0.56726,0.5427 1.13231,1.08316 1.71521,1.64149c6.21983,5.16346 13.21239,4.90216 20.94865,4.3215c2.5125,-0.3417 4.77039,-0.94024 7.15559,-1.7889c0.38859,-0.13623 0.77497,-0.27469 1.17249,-0.4154c3.37234,-1.21046 6.72232,-2.46783 10.0232,-3.85696c1.71521,-0.64096 3.0954,-0.65883 4.90664,-0.49804c1.54994,1.54994 1.45613,2.50803 1.71521,4.65873c0.43103,2.84973 0.84643,4.66765 3.05744,6.67096c2.38966,1.19484 4.97139,0.84867 7.48389,0.20993c6.32033,-2.13953 16.76114,-6.95236 19.94812,-13.32629c0.3953,0 0.78837,0 1.1926,0c0.14517,-0.3417 0.2881,-0.6834 0.43551,-1.03403c0.90673,-1.61693 1.95863,-2.64202 3.3299,-3.88599c0.45336,-0.42211 0.90451,-0.84197 1.37127,-1.27523c1.42486,-0.96033 1.42486,-0.96033 2.8743,-1.3802c2.54823,0.6968 3.5577,2.78049 4.99819,4.891c0.63427,0.88216 1.27299,1.7621 1.91173,2.64202c0.46007,0.63427 0.46007,0.63427 0.92907,1.2797c3.6649,4.94906 8.32809,8.59609 14.48538,9.83782c4.95129,0.30821 8.15613,-1.83132 11.92598,-4.79496c3.015,-2.72243 5.0183,-6.20196 7.14667,-9.61895c1.48517,-2.37626 3.14006,-4.5895 4.8642,-6.79826zM384.83253,188.17865c-0.95587,1.1122 -1.8626,2.23334 -2.75816,3.39243c-0.25907,0.3149 -0.51813,0.63203 -0.7839,0.95809c-1.24621,1.61693 -1.85367,2.45443 -1.69064,4.53143c0.15187,0.41316 0.30373,0.82857 0.46229,1.25513c0.58959,0 1.1792,0 1.7889,0c0,-0.39307 0,-0.78837 0,-1.1926c0.58959,-0.20323 0.58959,-0.20323 1.1926,-0.41094c2.34053,-1.02286 4.41976,-2.3718 6.55929,-3.76317c-0.5963,-2.0033 -0.98489,-2.83409 -2.72019,-4.06243c-1.27523,-0.7504 -1.27523,-0.7504 -2.0502,-0.70796zM333.43242,191.68274c-1.21046,1.139 -1.21046,1.139 -1.08094,2.4589c1.23281,1.1792 1.23281,1.1792 2.79389,2.3852c0.52037,0.41763 1.0385,0.83527 1.57227,1.2663c2.42317,1.69733 3.99097,2.31149 6.96352,2.31149c-0.31266,-2.4053 -0.94024,-3.66043 -2.57056,-5.44039c-0.3551,-0.3953 -0.7102,-0.79061 -1.07423,-1.19706c-2.99712,-3.12219 -2.99712,-3.12219 -6.60397,-1.78443z" fill="#376d68"/><path d="M338.9465,257.28238c-1.07423,8.27226 -1.07423,8.27226 -1.86036,10.71776c-0.59183,2.07476 -0.55833,3.8659 -0.5226,6.01436c0.62756,-0.22556 1.25513,-0.44891 1.9028,-0.67893c4.37063,-1.55887 8.74572,-3.1021 13.14315,-4.58727c0.70349,-0.23896 1.407,-0.47569 2.13284,-0.72137c7.81666,-2.42317 16.43284,-1.77996 23.93685,1.35563c2.8006,0.70349 5.50292,0.22556 8.34149,-0.14963c-0.05137,-0.5963 -0.1005,-1.1926 -0.15187,-1.809c-0.09157,-1.15687 -0.09157,-1.15687 -0.18314,-2.33607c-0.06253,-0.7705 -0.12506,-1.53876 -0.18983,-2.3316c-0.02233,-0.6231 -0.04689,-1.24621 -0.07146,-1.8894c3.10881,-3.11773 14.01638,-2.37626 18.47188,-2.38966c5.33096,0.07593 9.983,1.07199 14.96555,2.95916c7.72286,2.9145 14.65512,3.47507 22.78445,3.52866c10.19516,0.06701 21.96035,0.98489 30.77307,6.65756c1.1926,1.79336 1.1926,1.79336 1.52759,3.17579c-0.4556,2.18197 -1.33776,3.0016 -3.07529,4.34607c-10.6932,6.3114 -27.33597,5.71734 -39.32896,5.6012c-0.67447,-0.00669 -1.34892,-0.0134 -2.04572,-0.02009c-2.814,-0.0268 -5.62577,-0.05584 -8.43977,-0.10274c-10.89419,-0.19876 -10.89419,-0.19876 -21.33277,2.53707c-1.73754,0.43327 -3.48176,0.737 -5.25055,1.00946c-0.44891,0.07146 -0.90003,0.14294 -1.36232,0.21887c-9.95619,1.51197 -19.98161,1.24173 -30.01821,0.94469c-0.81294,-0.02457 -1.62587,-0.04913 -2.44103,-0.07146c-2.59289,-0.07593 -5.18357,-0.1541 -7.77646,-0.23227c-0.4422,-0.0134 -0.8844,-0.0268 -1.34,-0.04244c-12.47763,-0.37967 -24.93738,-0.80401 -37.39266,-1.65266c-2.48347,-0.1675 -4.96693,-0.3149 -7.4504,-0.46007c-45.61132,-2.69116 -45.61132,-2.69116 -52.82275,-10.01649c-0.72584,-1.0519 -0.72584,-1.0519 -1.02286,-2.88101c1.9229,-3.77657 5.02054,-5.2461 8.95119,-6.56377c7.16452,-2.19537 14.87176,-3.45272 22.36234,-3.6515c4.78826,-0.1273 7.99533,-1.26854 12.03988,-3.73413c2.24003,-1.3065 3.9664,-1.6348 6.53696,-1.52537c6.79826,0.37967 6.79826,0.37967 13.09626,-1.83356c6.44092,-3.51304 16.32342,-0.78613 23.11275,0.61418z" fill="#fafbfa"/><path d="M392.57995,193.56991c1.86484,1.60131 3.3567,3.35222 4.77039,5.35776c-0.39307,0 -0.78613,0 -1.1926,0c0.0603,0.42432 0.12059,0.8509 0.1809,1.28863c-0.25907,2.40753 -1.36232,3.22047 -3.08646,4.88653c-0.2948,0.28364 -0.58959,0.56726 -0.89111,0.85983c-2.68894,2.54153 -5.60566,4.6632 -8.72339,6.6531c-1.93406,1.00053 -1.93406,1.00053 -2.20877,2.82964c-0.17196,1.88493 -0.14963,3.59566 0.00669,5.47835c0.0536,0.66331 0.10497,1.32436 0.16079,2.00776c0.0871,1.0251 0.0871,1.0251 0.17867,2.07253c0.0536,0.67671 0.10943,1.3534 0.16527,2.05243c0.53601,6.53249 1.3199,13.02702 2.13284,19.53272c0.16079,1.29757 0.32161,2.59737 0.4824,3.89716c0.10497,0.83303 0.20771,1.66829 0.31266,2.50132c0.09157,0.74817 0.18536,1.49633 0.2814,2.26683c0.1675,1.21046 0.36179,2.4187 0.60747,3.61575c0.39083,1.99883 0.3283,3.98649 0.30373,6.01212c-0.00447,0.41094 -0.00669,0.8241 -0.00893,1.24842c-0.00669,1.00946 -0.01787,2.01894 -0.02904,3.0284c-4.8642,1.4941 -8.174,0.73029 -12.91759,-0.76157c-0.46007,-0.1407 -0.91791,-0.28364 -1.39136,-0.4288c-0.35286,-0.11166 -0.70573,-0.22333 -1.06754,-0.33946c-10.452,-2.0301 -20.45285,1.53206 -29.90877,5.6146c-1.81123,0.67671 -1.81123,0.67671 -4.19644,0.67671c-0.65436,-2.66883 -0.62087,-4.43316 0.18536,-7.06626c1.25066,-4.12272 1.62809,-8.28343 2.07031,-12.54909c0.3015,-2.84304 0.66552,-5.66597 1.13231,-8.48666c1.5946,-9.82442 2.07253,-19.70244 2.5728,-29.63184c-0.70349,-0.27246 -0.70349,-0.27246 -1.4204,-0.55162c-3.50856,-1.4338 -6.097,-3.9061 -8.71446,-6.59057c-0.98937,-0.7973 -1.98097,-1.59236 -2.9815,-2.38073c-2.47454,-2.18642 -3.60014,-4.51802 -4.17187,-7.73626c0.82186,-0.71913 1.65713,-1.42264 2.49687,-2.12166c0.69456,-0.58959 0.69456,-0.58959 1.40253,-1.1926c1.46506,-0.85314 1.46506,-0.85314 3.00607,-0.7504c2.72019,0.93129 4.97139,2.32713 7.14219,4.17633c1.71966,1.27746 2.90557,1.5343 5.02946,1.67277c0.58959,-0.19652 1.18144,-0.39307 1.7889,-0.59406c1.18144,0.5293 1.18144,0.5293 2.49687,1.33776c6.16175,3.5242 10.81826,3.63587 17.77286,3.4237c0,-0.39307 0,-0.78613 0,-1.19037c1.10103,-0.72807 2.23779,-1.40029 3.39019,-2.04572c0.94469,-0.53377 0.94469,-0.53377 1.90726,-1.07647c0.61194,-0.34394 1.2261,-0.69011 1.85589,-1.04519c0.52037,-0.33723 1.04074,-0.67671 1.57672,-1.0251c1.40476,-0.75933 1.40476,-0.75933 3.78997,-0.75933c0,0.58959 0,1.1792 0,1.78443c1.40924,-0.60299 2.33607,-1.139 3.39019,-2.26907c2.84304,-2.68446 6.37393,-5.29523 10.32022,-3.68276z" fill="#784b31"/><path d="M340.76666,214.96523c0.6968,0.10943 1.39584,0.22111 2.1172,0.33501c1.80676,0.2412 2.87653,0.21216 4.7168,-0.14963c2.07923,-0.18536 2.07923,-0.18536 6.83399,2.19537c-0.19652,7.86132 -0.39083,15.72264 -0.59406,23.82295c1.58791,-10.97906 1.58791,-10.97906 1.78443,-22.03628c1.25737,0.28586 2.51696,0.57174 3.77433,0.85983c1.04297,0.22111 2.09264,0.41094 3.14677,0.57174c3.33882,0.52706 5.22823,1.08316 7.34095,3.92843c1.23502,2.52812 1.56779,5.08752 1.85813,7.85463c0.05137,0.46229 0.1005,0.9246 0.15187,1.40029c0.50473,5.05403 0.47569,10.09242 0.3685,15.16433c-0.19652,0 -0.39307,0 -0.59406,0c-0.39307,-3.34106 -0.78613,-6.68212 -1.19037,-10.12592c-0.10721,1.65044 -0.10721,1.65044 -0.21664,3.33437c-1.49857,22.32438 -1.49857,22.32438 -3.34777,24.65821c-1.5611,0.25684 -1.5611,0.25684 -3.56662,0.25907c-7.93949,0.35957 -15.32065,3.07306 -22.5611,6.2109c-1.80676,0.67671 -1.80676,0.67671 -4.18303,0.67671c-0.65214,-2.67106 -0.61863,-4.43764 0.18536,-7.07295c1.24621,-4.12496 1.62364,-8.2879 2.0636,-12.5558c0.29926,-2.84526 0.66331,-5.67042 1.12783,-8.49113c1.59012,-9.83113 2.06583,-19.71585 2.56609,-29.64971c-0.58959,-0.19652 -1.17696,-0.39307 -1.78219,-0.5963c0,-0.19652 0,-0.39307 0,-0.59406z" fill="#905f43"/><path d="M386.02737,160.1481c2.65766,1.608 4.6364,3.75869 5.96523,6.58386c0,0.3953 0,0.79061 0,1.19706c0.39307,0 0.78837,0 1.1926,0c0,0.59406 0,1.18589 0,1.79783c0.39307,0 0.78837,0 1.1926,0c0.86207,1.02957 0.86207,1.02957 1.86484,2.42986c4.13836,5.46943 9.12986,9.39562 15.96608,10.69542c1.42486,0.13399 1.42486,0.13399 3.27184,-0.77942c1.71742,-1.72413 2.21546,-2.95247 2.9279,-5.22153c0.75933,-2.02563 2.11944,-3.18474 4.0066,-4.13167c4.27013,-0.59854 7.33203,0.43551 11.18453,2.20654c3.31649,1.34447 6.77369,1.94077 10.28897,2.58173c0,0.3953 0,0.79061 0,1.19706c0.58959,0 1.18144,0 1.7889,0c0,0.3953 0,0.79061 0,1.19706c0.57397,-0.19207 1.15016,-0.38414 1.74199,-0.5829c2.65543,-0.76157 5.24163,-0.80846 7.98862,-0.87547c6.96352,-0.2881 13.02702,-1.47846 18.08328,-6.73572c0.81963,-0.7839 0.81963,-0.7839 2.01223,-0.7839c0.19652,-0.79061 0.39307,-1.5812 0.5963,-2.39637c1.7889,2.80284 1.89164,4.59172 1.38689,7.75189c-0.2412,1.31767 -0.2412,1.31767 -0.19431,3.02393c-1.15687,1.08539 -1.15687,1.08539 -2.9815,2.39413c-0.53377,0.43103 -0.53377,0.43103 -1.08094,0.86876c-8.19633,6.17294 -19.29152,6.12602 -29.04894,4.79274c-5.63917,-0.91791 -11.09966,-2.5996 -16.46859,-4.5359c-1.80007,-0.6432 -1.80007,-0.6432 -4.10487,-0.52706c-0.13847,0.39754 -0.27469,0.79506 -0.41763,1.206c-1.34223,3.64703 -2.5192,6.55482 -6.1439,8.37276c-6.00989,0.77497 -10.4788,-0.73029 -15.30725,-4.33043c-2.34946,-1.84473 -4.57387,-3.81453 -6.76476,-5.84686c-0.46229,-0.4288 -0.9246,-0.85759 -1.40253,-1.29979c-2.08147,-2.0167 -3.8123,-4.07806 -5.49399,-6.44316c-1.33107,-1.82463 -1.33107,-1.82463 -3.23833,-2.90557c-1.2663,-0.20993 -1.2663,-0.20993 -2.9882,-0.12506c-2.16857,3.04849 -4.25897,6.10593 -6.18855,9.31522c-3.10881,4.92673 -7.2628,9.67926 -12.89971,11.63565c-4.48453,0.88216 -8.00873,-0.23896 -11.9595,-2.39413c-2.95916,-2.01447 -5.35105,-4.51802 -7.72509,-7.18463c0.59183,-0.2948 0.59183,-0.2948 1.19484,-0.59854c0.58959,0.19876 1.18144,0.3953 1.7889,0.59854c0,0.3953 0,0.79061 0,1.19706c2.07476,0.10721 4.14952,0.16974 6.22652,0.22556c0.58066,0.02904 1.16133,0.0603 1.75986,0.09157c4.48229,0.08933 7.1221,-0.96704 10.50558,-3.90832c3.68052,-3.5979 6.35159,-7.9931 8.89089,-12.4419c1.25513,-2.19537 2.53483,-4.23662 4.23217,-6.11486c0.39307,0 0.78613,0 1.1926,0c0,-0.3953 0,-0.79061 0,-1.19706c2.51696,-0.84197 4.6029,-0.69456 7.15783,0z" fill="#d7ecf7"/><path d="M337.89015,118.54584c0.52706,0.14673 1.0519,0.29369 1.5946,0.44489c0.96704,3.06725 0.29926,5.09468 -0.938,7.92385c-4.42869,8.47595 -11.43018,14.65667 -20.47741,17.72304c-3.78102,0.70349 -7.06179,0.64543 -10.44529,-1.30427c-2.63086,-1.98766 -4.21877,-3.60906 -4.87089,-6.93405c-0.04913,-0.62756 -0.09826,-1.25492 -0.14963,-1.90123c-0.4087,0.17219 -0.81739,0.34439 -1.23726,0.52194c-0.53601,0.22132 -1.07199,0.44287 -1.62364,0.6709c-0.53153,0.22132 -1.06306,0.44287 -1.61023,0.67112c-1.47622,0.5217 -1.47622,0.5217 -3.26067,0.5217c0,0.39285 0,0.78814 0,1.19237c-0.83079,0.1876 -1.6616,0.37297 -2.49016,0.56057c-0.46453,0.10274 -0.92684,0.20771 -1.40253,0.31266c-0.4824,0.10721 -0.9648,0.21216 -1.4606,0.31937c-0.45784,0.10721 -0.91343,0.21216 -1.38243,0.32161c-5.83793,1.00946 -11.21133,0.9916 -16.30109,-2.28692c-3.40136,-2.55628 -5.98532,-4.98905 -6.70669,-9.36615c0.03573,-2.41222 0.26577,-4.7686 0.5963,-7.15716c0.23896,0.2307 0.47569,0.46141 0.72137,0.69904c5.16122,4.7398 9.83113,5.80018 16.70085,5.53798c4.34383,-0.31713 8.2745,-1.71854 12.31905,-3.25486c1.2261,-0.46051 2.45443,-0.92013 3.68052,-1.3793c0.48687,-0.19452 0.97373,-0.38904 1.47622,-0.58938c1.51643,-0.45627 2.78496,-0.49266 4.3617,-0.41697c0.23896,0.9226 0.23896,0.9226 0.4824,1.86393c0.83079,2.89708 1.85589,5.76511 4.27682,7.67887c6.88983,1.27634 12.35033,-2.07409 17.82868,-5.81984c2.39637,-1.77996 4.61852,-3.73391 6.81389,-5.75685c1.52983,-0.94828 1.52983,-0.94828 3.50409,-0.79685z" fill="#376d68"/><path d="M391.91667,114.2277c2.72467,0.05606 4.23217,0.49468 6.36722,2.20809c4.41976,3.54162 9.08073,6.22452 14.86952,5.89711c2.13953,-0.48888 3.13113,-1.55596 4.3818,-3.31471c0.19652,-0.39507 0.39307,-0.79037 0.5963,-1.19751c3.71627,0.29302 7.03277,1.22721 10.57706,2.37426c0.95587,0.30664 0.95587,0.30664 1.93406,0.61975c0.96704,0.32987 0.96704,0.32987 1.95417,0.66664c2.75816,0.66084 5.31309,0.70618 8.13603,0.68071c0.76604,0.00693 0.76604,0.00693 1.54547,0.01407c4.95129,-0.01519 10.07902,-0.70373 13.90919,-4.16828c0.33053,-0.38904 0.33053,-0.38904 0.67,-0.78592c1.7353,0.87235 2.0368,2.23132 2.64873,4.00213c0.67671,2.84124 0.4824,5.37228 -0.8978,7.96472c-2.86313,3.82346 -7.30746,5.27959 -11.87909,5.99739c-7.03946,0.36248 -14.52782,0.4058 -20.85261,-2.994c-1.3333,-0.41116 -1.3333,-0.41116 -2.38297,-0.59899c-0.12283,0.45693 -0.24789,0.9141 -0.37297,1.38489c-1.14123,2.24136 -2.01894,2.60943 -4.3952,3.40561c-6.66203,0.86162 -11.72722,-1.49365 -17.00682,-5.39863c-4.50239,-3.65998 -9.44699,-7.98907 -10.3247,-14.02509c-0.02457,-0.70418 -0.04913,-1.40812 -0.0737,-2.13327c0.19652,-0.19764 0.39307,-0.3953 0.5963,-0.59899z" fill="#366d67"/><path d="M332.35372,166.05751c2.46336,1.52537 3.96193,3.43039 5.35776,5.9563c-0.19652,0.58959 -0.39307,1.1792 -0.59406,1.7889c-0.42656,-0.05584 -0.85314,-0.10943 -1.2931,-0.16303c-2.30703,0.22111 -3.14677,1.19037 -4.80836,2.76709c-0.52037,0.48464 -1.0385,0.96926 -1.57227,1.4673c-1.27746,1.1792 -1.27746,1.1792 -1.85144,2.47899c-0.39307,0 -0.78613,0 -1.19037,0c-0.12059,0.3283 -0.24344,0.65883 -0.3685,0.99606c-1.14123,1.92513 -2.72912,3.1557 -4.46889,4.51357c-0.54493,0.4288 -0.54493,0.4288 -1.10103,0.8643c-5.36445,4.0669 -12.13145,8.2209 -19.04585,8.12932c-2.24227,-0.38414 -3.24056,-1.5343 -4.77934,-3.18474c-1.3199,-2.26236 -1.43157,-4.64533 -1.63927,-7.21365c-0.03128,-1.13231 -0.03128,-1.13231 -0.74146,-1.7219c-4.6632,0.1541 -8.28119,1.69064 -12.50219,3.57333c-7.76753,3.28524 -18.52548,5.02276 -26.63695,2.04796c-2.88546,-1.4606 -7.08635,-3.60906 -8.33032,-6.72903c-0.18983,-1.57672 -0.20993,-3.11102 -0.18983,-4.69893c0.00447,-0.58737 0.01116,-1.17473 0.01564,-1.77774c0.00669,-0.44667 0.0134,-0.89111 0.02009,-1.34892c0.19652,0 0.39307,0 0.5963,0c0,0.98266 0,1.96533 0,2.97703c0.39307,0 0.78613,0 1.19037,0c0,0.39307 0,0.78613 0,1.19037c0.39307,0 0.78613,0 1.19037,0c0.26353,0.27024 0.5293,0.53822 0.80177,0.81517c3.12443,3.0887 7.77422,3.64256 11.96619,3.65596c0.57397,-0.0134 1.15016,-0.0268 1.74199,-0.0402c0.90451,-0.01116 0.90451,-0.01116 1.82687,-0.02457c4.2813,-0.10497 8.20078,-0.51366 12.23643,-2.02339c0.6365,-0.23673 1.27299,-0.47347 1.92737,-0.71913c3.38795,-1.28639 3.38795,-1.28639 6.40966,-3.2294c2.29587,-1.57896 5.06967,-1.15016 7.73626,-0.81517c2.14177,0.95587 2.747,1.83132 3.63587,3.97756c0.41987,1.17473 0.81739,2.3584 1.18813,3.54877c0.38636,1.50303 0.38636,1.50303 1.72413,2.0033c3.85026,0.5695 6.36499,-0.26129 9.61449,-2.32713c1.09879,-0.65214 1.09879,-0.65214 2.28916,-0.65214c0.2948,-0.8844 0.2948,-0.8844 0.5963,-1.78667c3.25396,-2.97703 3.25396,-2.97703 4.76146,-2.97703c0.13623,-0.33277 0.27024,-0.66331 0.41094,-1.00501c1.00722,-1.77774 2.278,-2.94354 3.75646,-4.35723c0.70796,-0.71913 1.41369,-1.43826 2.12166,-2.1574c4.3617,-4.31926 4.3617,-4.31926 7.99755,-3.7989z" fill="#d6ecf7"/><path d="M288.33476,60.62058c0.40647,0.43058 0.81294,0.8614 1.23057,1.30517c2.52812,2.51608 5.22153,5.00066 8.90429,5.25772c0.62087,0.04511 0.62087,0.04511 1.25513,0.0909c4.91333,0.19586 9.70159,-0.81606 14.16601,-2.88748c1.97203,-0.82857 3.32542,-0.938 5.44039,-0.78323c0.07817,0.36693 0.15634,0.73365 0.23896,1.11174c0.10497,0.48218 0.20993,0.96457 0.31937,1.46127c0.10274,0.47771 0.20771,0.95519 0.31266,1.44742c0.31937,1.43604 0.31937,1.43604 0.91567,3.13918c4.34159,1.44832 8.53579,1.04274 12.62949,-0.93219c2.79613,-1.53475 5.23494,-3.3194 7.61567,-5.43972c1.4941,-0.97061 2.4455,-0.93979 4.19196,-0.7877c0.7973,2.63376 0.39754,3.97913 -0.81739,6.4139c-3.41923,6.38643 -8.01542,9.9754 -14.67969,12.67839c-3.28076,0.97932 -6.54813,1.03157 -9.70828,-0.44265c-2.0904,-1.53921 -3.41476,-3.83955 -4.59619,-6.12022c0,-0.39373 0,-0.7877 0,-1.19327c-0.57174,0.24813 -0.57174,0.24813 -1.15687,0.50094c-6.89876,2.89217 -13.25481,3.37077 -20.30098,0.69233c-3.47729,-1.89543 -5.20813,-5.25905 -6.31586,-8.94024c-0.40199,-2.01492 -0.30821,-3.92374 -0.23896,-5.97573c0.19652,-0.19676 0.39307,-0.39373 0.59406,-0.59652z" fill="#386d69"/><path d="M392.03502,106.8568c1.3668,0 2.70234,0.05851 4.06243,0.18693c0,0.39485 0,0.78971 0,1.19639c0.4556,0.16036 0.91343,0.32071 1.38243,0.48597c1.53876,0.6814 2.36286,1.19751 3.3969,2.50513c0,0.39485 0,0.78971 0,1.19639c0.50697,0.16036 1.0117,0.32092 1.53206,0.48619c2.05243,0.7102 2.05243,0.7102 4.1071,1.68236c2.26459,0.87568 3.90387,0.96994 6.30916,0.82253c0.13623,-0.43192 0.27246,-0.86364 0.41094,-1.30874c0.9983,-2.13865 1.87153,-3.25642 3.77209,-4.67346c2.53483,-0.39709 4.74137,-0.21195 7.16899,0.5983c0,0.39485 0,0.78949 0,1.19639c1.42933,0.28631 2.8609,0.5715 4.29246,0.85067c1.00722,0.20726 2.01223,0.43215 3.01053,0.69144c7.19803,1.77996 16.54005,2.11944 23.16635,-1.54211c1.30203,-1.13788 2.04796,-2.11385 2.98596,-3.58919c1.64149,1.64261 1.61469,2.98194 1.80454,5.23896c-0.02233,2.43902 -1.07423,3.6133 -2.75147,5.26709c-5.68159,5.16703 -12.85282,4.90328 -20.15581,4.59262c-3.86814,-0.34706 -7.5375,-1.53832 -11.20686,-2.75592c-1.59012,-0.52551 -3.19812,-0.99249 -4.8039,-1.46282c-0.77273,-0.23561 -1.54547,-0.47169 -2.31596,-0.71042c-0.14739,0.4565 -0.2948,0.9132 -0.44891,1.38332c-0.84419,1.81816 -1.45166,2.36331 -3.13559,3.40247c-5.58556,1.30807 -10.31129,-1.39226 -14.93653,-4.18749c-1.29757,-0.93957 -2.53483,-1.88895 -3.73636,-2.95135c-1.38689,-0.84822 -2.43657,-0.74995 -4.02893,-0.63806c-0.3953,0.78971 -0.78837,1.57941 -1.19484,2.39301c0,-0.59228 0,-1.18456 0,-1.79471c-0.3953,0 -0.78837,0 -1.19484,0c-0.8844,-1.40521 -1.21269,-2.17438 -1.08316,-3.85093c1.39136,-4.3981 1.39136,-4.3981 3.59119,-4.711z" fill="#d7ecf6"/><path d="M387.31376,55.92971c2.39413,0.16839 3.62694,0.93667 5.3466,2.54778c0.40647,0.37162 0.81517,0.74326 1.23502,1.12626c0.37743,0.34729 0.75264,0.69435 1.14123,1.05235c3.2964,2.80662 3.2964,2.80662 7.42583,3.61844c2.08147,-0.4402 2.08147,-0.4402 2.8743,-1.76077c0.5963,-1.19349 1.11891,-2.37916 1.5812,-3.63006c0.80401,0.06879 1.608,0.14406 2.41201,0.22154c0.67223,0.06165 0.67223,0.06165 1.35787,0.12461c1.57672,0.24456 1.57672,0.24456 3.484,0.84688c2.7001,0.69523 5.15453,0.77473 7.93056,0.7638c0.48909,0.0096 0.9782,0.01899 1.48293,0.0288c3.07084,0.00245 4.95799,-0.47569 7.68713,-1.98566c0.7839,0 1.56779,0 2.37626,0c1.71966,2.56542 1.94522,4.38849 1.41147,7.42158c-1.17027,2.90779 -2.77827,4.33064 -5.38456,6.01838c-4.69893,1.76389 -10.14155,1.70247 -15.03479,0.73855c-1.69733,-0.91389 -1.69733,-0.91389 -2.97032,-1.77236c-0.12283,0.35331 -0.24567,0.70685 -0.37297,1.07087c-1.17473,1.86058 -2.32044,2.30547 -4.37956,3.06458c-4.59172,0.70842 -8.07127,-1.05726 -11.88133,-3.54453c-3.60459,-2.89574 -7.15783,-6.31966 -8.91099,-10.634c-0.22111,-2.25231 -0.22111,-2.25231 0,-4.13545c0.39307,-0.38995 0.7839,-0.77988 1.18813,-1.18165z" fill="#376d68"/><path d="M421.73386,262.29621c5.67937,2.26683 10.5793,2.71796 16.62939,2.7403c0.87994,0.01564 1.7621,0.02904 2.64202,0.04689c2.12613,0.03573 4.25002,0.05584 6.37617,0.06701c0,0.19652 0,0.39307 0,0.5963c-7.97077,0.29704 -7.97077,0.29704 -16.10009,0.59854c0.58959,0.19876 1.18144,0.3953 1.7889,0.59854c1.65044,1.77774 1.7889,2.23779 1.7889,4.78379c-1.68617,0.84643 -3.082,0.6432 -4.9647,0.61418c-0.76157,-0.00669 -1.5209,-0.0134 -2.3048,-0.02233c-1.20824,-0.0134 -2.41422,-0.03128 -3.62246,-0.05137c-1.16804,-0.01787 -2.33384,-0.0268 -3.50185,-0.03797c-0.69904,-0.00893 -1.39584,-0.02009 -2.11496,-0.02904c-2.04796,0.12954 -3.63587,0.61194 -5.55207,1.32214c-4.9781,0.62534 -9.37329,-0.41987 -14.10348,-1.81123c-3.33661,-0.97149 -6.48112,-1.32659 -9.93386,-1.51643c-0.4422,-0.02457 -0.88216,-0.05137 -1.33776,-0.07817c-1.08316,-0.06253 -2.1641,-0.12283 -3.24503,-0.18314c0.58959,-0.19652 1.1792,-0.3953 1.7889,-0.59854c-0.05137,-0.5963 -0.1005,-1.19484 -0.15187,-1.81123c-0.0603,-0.7705 -0.12283,-1.54323 -0.18536,-2.33829c-0.0603,-0.7705 -0.12283,-1.53876 -0.1876,-2.33384c-0.02457,-0.6231 -0.04689,-1.24621 -0.07146,-1.8894c6.67096,-6.69329 28.8725,-1.75317 36.36311,1.3333z" fill="#d8ebf7"/><path d="M338.92417,111.22227c1.41593,0.48687 1.41593,0.48687 2.3852,1.19818c1.04297,3.14497 1.19929,7.07162 0.19431,10.25679c-0.49357,0.97575 -0.49357,0.97575 -1.38689,2.32379c-0.61863,-2.02496 -0.6432,-3.88085 -0.5963,-5.99091c-1.71966,-0.23182 -3.04626,-0.31623 -4.57387,0.59697c-1.08763,0.86787 -2.13284,1.77193 -3.17134,2.69808c-6.04785,5.13063 -12.24312,9.66296 -20.43945,9.56401c-2.30032,-0.39797 -3.21376,-1.30583 -4.54035,-3.18027c-1.06754,-2.14132 -1.52537,-4.31993 -1.8358,-6.68324c-3.7118,0.3705 -7.02606,1.46953 -10.53909,2.69563c-1.10774,0.38145 -2.21546,0.76224 -3.32097,1.14212c-0.48687,0.16884 -0.97149,0.33746 -1.47177,0.51121c-5.25726,1.72323 -12.45752,2.21637 -17.62768,0.03171c-2.06583,-1.15509 -3.66043,-2.54355 -5.17686,-4.38068c-0.3551,-0.42009 -0.71244,-0.84017 -1.0787,-1.27299c-1.1122,-2.70524 -0.84419,-5.42387 -0.70796,-8.31223c0.19652,0 0.39307,0 0.5963,0c0,0.72896 0,1.45813 0,2.2092c0.19876,1.66517 0.37519,2.3718 1.59012,3.54741c4.1406,2.65968 8.06679,2.75325 12.85953,2.78006c0.53822,0.0125 1.07647,0.02478 1.63033,0.03752c5.32427,0.03082 9.33309,-1.49074 14.04766,-3.89382c3.12666,-1.47087 5.18357,-2.29921 8.6028,-1.68505c2.09264,1.19439 3.04404,2.42898 4.09816,4.53054c0.95587,1.79404 1.3333,2.09999 3.2026,3.22002c3.40807,0.97106 5.5275,1.42666 8.67649,-0.26219c1.14123,-0.73186 2.26907,-1.48472 3.38126,-2.26036c1.49857,-1.03448 1.49857,-1.03448 2.84749,-1.65691c1.24621,-0.54091 1.24621,-0.54091 1.63033,-2.37292c1.34447,-1.35497 1.34447,-1.35497 3.05297,-2.80819c0.5561,-0.48419 1.10996,-0.96837 1.68169,-1.4673c2.18642,-1.34133 3.4706,-1.36344 5.98979,-1.11622z" fill="#d7ecf6"/><path d="M319.25746,58.23853c0.95809,1.47153 1.64149,2.93595 2.3048,4.55956c0.6231,1.57717 0.6231,1.57717 2.47454,2.59066c3.23833,0.54805 6.03893,0.05963 8.90429,-1.49655c1.54547,-1.09858 2.81176,-2.3852 4.15847,-3.71716c2.12837,-2.00419 3.38574,-2.89619 6.34489,-2.90489c1.52314,0.12999 2.51472,0.28654 3.88154,0.96837c0.88216,3.6535 0.88216,3.6535 -0.03573,5.32537c-1.15687,0.63315 -1.15687,0.63315 -2.80507,0.51434c-2.52812,0.15499 -3.47507,1.05057 -5.40689,2.65097c-4.75923,3.75177 -8.44422,5.6874 -14.63501,5.49087c-1.60131,-0.27693 -1.60131,-0.27693 -3.50633,-1.69219c-1.71966,-2.48435 -1.7353,-3.90454 -1.67946,-6.92668c-2.80284,0.63315 -5.44486,1.41012 -8.13603,2.42048c-5.38456,1.98186 -11.51506,2.86715 -16.94652,0.55855c-4.45104,-3.17044 -4.45104,-3.17044 -5.21037,-5.49756c-0.05584,-0.34863 -0.10943,-0.69725 -0.16527,-1.05659c1.5075,-0.75196 2.02116,-0.49759 3.62246,-0.0746c0.42432,0.10921 0.8509,0.2182 1.28863,0.33053c1.06306,0.33991 1.06306,0.33991 1.65937,0.93576c5.87366,0.43482 10.69542,0.08152 16.12466,-2.38342c2.8542,-1.15016 4.79719,-1.67232 7.76306,-0.59585z" fill="#d6ecf6"/><path d="M303.05465,276.87316c0.40199,-0.01116 0.80623,-0.02457 1.22164,-0.03573c3.49964,-0.0268 6.05904,0.80177 8.94002,2.76263c0.59406,0.95809 0.59406,0.95809 0.59406,2.3584c-0.88216,2.29587 -1.4606,3.1155 -3.57333,4.4957c-6.1305,0.59854 -12.53569,-0.23227 -18.65949,-0.7236c-1.56334,-0.12506 -3.12666,-0.24567 -4.68777,-0.36403c-1.00722,-0.07817 -2.01447,-0.15856 -3.02169,-0.23673c-0.46007,-0.03573 -0.92013,-0.07146 -1.39584,-0.10721c-2.67554,-0.21664 -5.31309,-0.52484 -7.96853,-0.92684c0,-0.19431 0,-0.38859 0,-0.58959c0.65214,-0.04913 1.30203,-0.09603 1.97426,-0.14739c2.21323,-0.1876 2.21323,-0.1876 3.0284,-1.5946c1.25737,-1.59012 2.14846,-1.68393 4.12943,-2.06136c0.6231,-0.12059 1.24621,-0.24344 1.88717,-0.37074c0.65214,-0.11837 1.30203,-0.23673 1.97203,-0.35734c0.6432,-0.12506 1.28863,-0.25013 1.95193,-0.37967c4.54706,-0.87547 8.96012,-1.68617 13.60768,-1.7219z" fill="#d8ebf6"/><path d="M374.63961,93.50371c1.85144,0.99741 3.19812,2.24562 4.15176,4.1549c0.31266,2.23446 0.50473,4.41776 -0.60077,6.44316c-1.77327,2.16007 -3.2964,3.551 -6.1104,3.86969c-2.60406,-0.26486 -3.75424,-0.92124 -5.74636,-2.5967c-1.40924,-1.73708 -1.75539,-2.77961 -2.03903,-5.00802c0.30597,-2.50646 1.04966,-3.73146 2.63086,-5.67601c2.51696,-1.67834 4.75699,-1.65065 7.71393,-1.18701z" fill="#376a65"/><path d="M372.98472,33.82509c1.72637,1.07535 2.70234,1.78778 3.6113,3.59633c0.25237,1.8338 0.29257,3.5644 0,5.39461c-1.31319,1.65177 -2.3316,2.65878 -4.21429,3.59633c-2.63757,0.30283 -3.92172,0.16705 -6.24663,-1.16133c-1.84696,-1.73149 -2.16857,-3.47238 -2.28692,-5.94c0.14963,-1.83244 0.72584,-2.89507 1.91173,-4.2871c2.4187,-1.60576 4.37956,-1.61604 7.22484,-1.19886z" fill="#396b67"/><path d="M336.51662,268.00907c0,1.9899 0,3.9798 0,6.03223c0.3953,0.19876 0.78837,0.39754 1.19706,0.60299c-6.05456,2.0502 -12.1873,3.69392 -18.53888,1.809c0.5293,-2.77827 1.99883,-4.35052 4.18749,-6.03223c4.27682,-2.4991 8.29906,-2.71574 13.15432,-2.41201z" fill="#d9ecf7"/><path d="M433.04122,50.56904c1.1926,1.18523 1.1926,1.18523 1.38689,2.62238c-0.11614,4.32752 -0.11614,4.32752 -1.76434,6.16846c-5.36893,3.21733 -13.11635,2.64091 -19.03692,1.33554c-2.10156,-0.52461 -4.16516,-1.14659 -6.22207,-1.83066c0,-0.19564 0,-0.39128 0,-0.5925c1.18144,0 2.36064,0 3.57779,0c0,-0.78233 0,-1.56444 0,-2.37023c0.62979,0.01854 0.62979,0.01854 1.27299,0.03752c1.9363,0.0498 3.87036,0.08017 5.80665,0.11055c0.66107,0.01988 1.32214,0.03975 2.0033,0.06008c4.14952,0.04868 8.27672,-0.12171 11.78306,-2.57837c0.77721,-1.5095 0.77721,-1.5095 1.1926,-2.96273z" fill="#dbeef5"/><path d="M334.12698,39.1775c0.59406,0 1.18813,0 1.79783,0c-0.80623,1.73351 -1.72861,3.10188 -2.99712,4.54147c-0.30821,0.35555 -0.61863,0.71132 -0.93576,1.0778c-1.11443,1.13588 -1.75094,1.45613 -3.35893,1.52759c-0.73029,-0.01028 -0.73029,-0.01028 -1.47401,-0.02099c-0.73477,-0.00781 -0.73477,-0.00781 -1.48517,-0.01609c-0.56281,-0.01028 -0.56281,-0.01028 -1.139,-0.02078c0,-0.58469 0,-1.16959 0,-1.77215c0.34839,-0.15008 0.6968,-0.30016 1.05414,-0.4547c4.94906,-1.68236 4.94906,-1.68236 8.53803,-4.86218z" fill="#e0eef3"/><path d="M352.06287,247.12966c0.20323,0 0.40647,0 0.61639,0c-0.49804,10.921 -0.49804,10.921 -1.8492,16.07998c-0.6097,0 -1.22164,0 -1.8492,0c-0.4824,-5.39797 0.87547,-10.35595 2.46559,-15.48592c0.20323,-0.19652 0.40647,-0.39307 0.61639,-0.59406z" fill="#78472c"/><path d="M341.28481,235.96077c0.201,0 0.40199,0 0.6097,0c0.201,7.1958 0,13.77518 -1.82911,20.77667c0.40199,0.19431 0.80401,0.39083 1.2194,0.59183c-0.80401,0.39307 -1.61023,0.7839 -2.43879,1.18813c-0.66552,-1.94746 -0.5427,-2.54823 -0.07593,-4.489c0.55386,-2.49239 0.89332,-4.92226 1.12112,-7.45933c0.36179,-3.54653 0.89556,-7.07742 1.3936,-10.60832z" fill="#997f70"/><path d="M371.14668,232.83411c0.1876,0 0.37743,0 0.57174,0c0.75933,5.3466 0.62087,10.68872 0.57174,16.07998c-0.18983,0 -0.37743,0 -0.57174,0c-0.37743,-3.34106 -0.75486,-6.68212 -1.14347,-10.12592c-0.18983,0.98266 -0.37967,1.96533 -0.57397,2.97927c-0.1876,0 -0.37743,0 -0.57174,0c0,-2.3584 0,-4.7168 0,-7.14667c0.56726,-0.19652 1.13231,-0.39307 1.71742,-0.5963c0,-0.39307 0,-0.78613 0,-1.19037z" fill="#8b583c"/><path d="M349.77371,202.00967c1.65489,0.2948 3.2093,0.65883 4.81507,1.15909c2.4589,0.62756 4.7235,0.83303 7.2494,0.94024c0.64767,0.03349 0.64767,0.03349 1.3065,0.06924c1.0519,0.0536 2.1038,0.10274 3.1557,0.14963c-3.33213,1.99437 -7.82112,1.65044 -11.52399,0.82857c-2.08147,-0.7236 -3.51973,-1.57227 -5.00266,-3.14677z" fill="#4c6255"/><path d="M449.82471,132.09791c0.5963,0.20681 1.19037,0.41384 1.8023,0.62713c0,0.41384 0,0.82767 0,1.25402c-5.59225,1.90682 -11.67362,1.78064 -17.41998,0.62713c0,-0.20702 0,-0.41384 0,-0.62713c0.61418,-0.01854 0.61418,-0.01854 1.2395,-0.03752c1.85367,-0.05984 3.70509,-0.12842 5.55652,-0.19764c0.6432,-0.01921 1.28863,-0.03863 1.95193,-0.05874c0.9246,-0.0364 0.9246,-0.0364 1.87153,-0.07348c0.85314,-0.02947 0.85314,-0.02947 1.72413,-0.05963c1.62587,-0.10519 1.62587,-0.10519 3.27406,-1.45413z" fill="#688885"/><path d="M304.43038,139.91413c1.8894,0.60077 3.6783,1.24397 5.48059,2.077c2.60406,1.15464 5.34883,1.59683 8.14273,2.07476c0,0.19652 0,0.39083 0,0.59406c-4.40636,0.3015 -7.86579,0.49133 -11.55526,-2.144c-0.88216,-0.82186 -0.88216,-0.82186 -2.06807,-2.60184z" fill="#476d6c"/><path d="M374.79148,199.55301c0,0.79506 0,1.59012 0,2.40753c-0.95587,0.42211 -1.9162,0.83527 -2.87877,1.24173c-0.53601,0.23004 -1.06977,0.46007 -1.6214,0.69904c-1.65489,0.4958 -2.3919,0.45336 -3.98649,-0.13399c1.18589,-0.70573 2.3718,-1.407 3.56217,-2.10827c0.66107,-0.39083 1.32214,-0.78166 2.0033,-1.18367c1.7085,-0.92236 1.7085,-0.92236 2.92119,-0.92236z" fill="#585a4b"/><path d="M343.0737,181.68413c1.48293,0.29033 1.48293,0.29033 2.99491,0.58959c0,0.38859 0,0.77721 0,1.17696c3.35893,0.19652 6.72009,0.39083 10.18176,0.58959c0,0.19652 0,0.39083 0,0.58959c-1.6348,0.19652 -3.26513,0.36403 -4.9044,0.51589c-0.46007,0.05806 -0.92013,0.11614 -1.39584,0.17643c-3.38795,0.28586 -3.38795,0.28586 -4.87983,-0.88663c-0.82857,-0.9782 -0.82857,-0.9782 -1.99659,-2.75147z" fill="#e6f3f7"/><path d="M264.98081,112.44078c0.19652,0 0.39307,0 0.59406,0c0.03797,0.737 0.0737,1.47401 0.11166,2.23334c0.24789,2.11765 0.38859,2.43969 2.00554,4.02c0.47793,0.2948 0.95587,0.58959 1.4472,0.89332c-0.19652,0.39307 -0.39083,0.78613 -0.59406,1.19127c-1.22386,0.37207 -1.22386,0.37207 -2.37626,0.5954c-1.20377,-1.99481 -1.31767,-3.49561 -1.26183,-5.80665c0.01564,-0.87971 0.01564,-0.87971 0.03349,-1.77729c0.0134,-0.44532 0.0268,-0.89065 0.0402,-1.34937z" fill="#dce8ea"/><path d="M396.82328,61.29014c0.8777,0.57219 0.8777,0.57219 1.77103,1.15597c1.34892,0.13937 1.34892,0.13937 2.76709,0.07215c0.47793,-0.01028 0.95364,-0.02078 1.44497,-0.03149c0.36403,-0.0134 0.72584,-0.0268 1.10103,-0.04065c0.19431,0.57219 0.38859,1.14435 0.58959,1.73373c-2.59066,0.62132 -4.15847,0.76626 -6.45656,-0.54181c-0.5963,-0.39328 -1.1926,-0.78658 -1.80676,-1.19193c0.19431,-0.38145 0.38859,-0.7629 0.58959,-1.15597z" fill="#c2e4e9"/><path d="M344.26408,69.55503c0.4154,1.03693 0.4154,1.03693 0.5963,2.36464c-0.7504,1.16156 -0.7504,1.16156 -1.86036,2.32779c-0.38414,0.4078 -0.76604,0.81539 -1.16133,1.23547c-0.37967,0.38481 -0.7571,0.76961 -1.14793,1.16602c-0.46676,0.47681 -0.46676,0.47681 -0.94247,0.96302c-0.67,0.6729 -1.35116,1.33442 -2.03456,1.99302c-0.58959,-0.19519 -1.1792,-0.39016 -1.78667,-0.59116c0.3015,-0.23696 0.60523,-0.47414 0.91567,-0.71825c3.1423,-2.57592 5.3332,-5.27624 7.42136,-8.7406z" fill="#dcf1f0"/><path d="M405.09331,60.62014c0.39307,0 0.78613,0 1.1926,0c-0.39307,0.95809 -0.78613,1.91642 -1.1926,2.90355c-0.62534,-0.14382 -0.62534,-0.14382 -1.26406,-0.29033c-1.7353,-0.35443 -1.7353,-0.35443 -3.6113,-0.21775c-0.55386,-0.02411 -1.1055,-0.04801 -1.675,-0.07281c-0.39307,-0.57486 -0.78613,-1.1495 -1.19037,-1.74199c0.76157,0.01028 0.76157,0.01028 1.54099,0.02054c0.98713,0.00781 0.98713,0.00781 1.99437,0.01585c0.98489,0.01005 0.98489,0.01005 1.9899,0.02033c1.57003,0.12485 1.57003,0.12485 2.21546,-0.63739z" fill="#e2f2f6"/><path d="M389.08703,193.52301c-0.6231,1.99659 -1.54323,2.80507 -3.23833,3.8391c-2.12166,1.07423 -2.12166,1.07423 -3.90832,1.07423c0,-0.40647 0,-0.8107 0,-1.22833c1.10996,-0.92684 1.10996,-0.92684 2.56833,-1.92066c0.47569,-0.33053 0.95364,-0.66107 1.44497,-1.00277c1.3467,-0.76157 1.3467,-0.76157 3.13337,-0.76157z" fill="#8d7568"/><path d="M389.08703,192.85302c2.30256,0.16303 3.34999,0.43551 5.12773,1.99659c1.1055,1.31319 2.15962,2.61746 3.13559,4.03341c-2.03903,-0.91791 -3.72744,-2.18866 -5.5007,-3.54653c-1.06306,-0.78837 -1.06306,-0.78837 -2.76263,-1.27746c0,-0.39976 0,-0.7973 0,-1.206z" fill="#605645"/><path d="M265.61732,120.92857c0.57174,0.58514 1.14571,1.17049 1.7353,1.77348c-0.18983,0.19497 -0.3819,0.39016 -0.57843,0.59116c-0.12283,3.31337 -0.12283,3.31337 0.57843,6.50278c-0.3819,0.39016 -0.7638,0.78054 -1.15687,1.18256c-1.13676,-2.39123 -1.22164,-4.06087 -0.94024,-6.68771c0.06477,-0.63181 0.12954,-1.26361 0.19431,-1.91442c0.08262,-0.71668 0.08262,-0.71668 0.1675,-1.44787z" fill="#6c8d8c"/><path d="M379.4502,192.85302c0.39976,0.201 0.79954,0.40199 1.21269,0.60747c-0.201,1.608 -0.39976,3.216 -0.60747,4.87313c0.39976,0.201 0.80177,0.40199 1.21269,0.6097c-0.79954,0.201 -1.59907,0.40199 -2.42539,0.6097c0,-0.60299 0,-1.206 0,-1.82687c-0.59854,0 -1.19929,0 -1.81792,0c0,-0.40199 0,-0.80401 0,-1.2194c0.60077,0 1.20153,0 1.81792,0c-0.19876,-0.60299 -0.39976,-1.206 -0.60523,-1.82687c0.39976,-0.60299 0.79954,-1.206 1.21269,-1.82687z" fill="#76796c"/><path d="M425.45237,172.75079c0.54941,0.00447 1.09879,0.00893 1.66606,0.01564c0.42211,0.00669 0.84419,0.0134 1.2797,0.02009c-1.4204,0.80846 -2.2445,1.1658 -3.91727,1.1256c-1.93182,0.04689 -2.64426,0.62087 -4.12719,1.78219c-0.42211,0.32383 -0.84419,0.64767 -1.27746,0.98044c-0.3149,0.25237 -0.62756,0.50473 -0.9514,0.7638c1.73306,-3.48624 3.26513,-4.73913 7.32755,-4.68777z" fill="#e2eef3"/><path d="M379.50828,213.84856c0.58066,0 1.16133,0 1.75986,0c0,2.94799 0,5.89599 0,8.93333c-0.19431,0 -0.38636,0 -0.58737,0c-0.74146,-3.02393 -1.3333,-5.79327 -1.17249,-8.93333z" fill="#8d7363"/><path d="M387.18646,55.92971c0.77497,0 1.5477,0 2.345,0c0,1.75875 0,1.75875 -0.76826,2.57168c-0.91567,0.70618 -1.83356,1.41236 -2.74923,2.11832c-0.0737,-1.6855 -0.0737,-1.6855 0,-3.51749c0.38636,-0.38681 0.77497,-0.77385 1.17249,-1.17249z" fill="#4c7270"/><path d="M434.32315,60.62038c0.19207,0 0.38636,0 0.58737,0c0.70796,2.92476 0.4958,4.87872 -0.58737,7.68534c-1.25066,1.44095 -1.25066,1.44095 -2.35169,2.36464c0.51366,-2.80796 0.51366,-2.80796 1.17473,-4.13814c0.38859,0 0.77721,0 1.17696,0c0,-1.95082 0,-3.90185 0,-5.91186z" fill="#5d7f7b"/><path d="M383.49254,170.06857c0.44443,0.04913 0.89111,0.1005 1.34892,0.15187c-0.5829,0.29926 -0.5829,0.29926 -1.17696,0.60299c-0.19431,0.39754 -0.38859,0.7973 -0.58959,1.20824c-0.19431,-0.201 -0.38859,-0.39976 -0.58737,-0.60523c-0.19431,0.59854 -0.38859,1.19484 -0.58959,1.81123c-0.76157,0.82857 -1.54547,1.63704 -2.35617,2.41422c-0.38859,-0.19876 -0.77721,-0.39754 -1.17696,-0.60299c0.51589,-0.81294 1.04519,-1.61693 1.58343,-2.41422c0.29257,-0.44891 0.58737,-0.8978 0.88887,-1.35787c1.06083,-1.05637 1.06083,-1.05637 2.65543,-1.20824z" fill="#4a7373"/><path d="M338.83038,192.85302c2.40753,0.83974 4.10039,2.00107 6.03,3.685c-0.19876,0.40423 -0.39976,0.8107 -0.60299,1.22833c-2.57726,-0.97373 -3.7788,-2.76709 -5.42699,-4.91333z" fill="#5c7c79"/><path d="M315.16376,143.42716c0.54046,0.11166 1.08316,0.22333 1.64149,0.33723c0.41316,0.08933 0.82634,0.17643 1.25066,0.27024c0,0.1876 0,0.37519 0,0.5695c-2.57949,0 -5.159,0 -7.81666,0c0,-0.37743 0,-0.75264 0,-1.14123c2.03456,-0.6432 2.86761,-0.46676 4.92449,-0.03573z" fill="#537873"/><path d="M288.32359,60.62058c0.37743,0.39685 0.75264,0.79373 1.14123,1.20265c-0.0134,1.56422 -0.0134,1.56422 -0.2144,3.38217c-0.06253,0.60299 -0.12506,1.206 -0.19207,1.82732c-0.0536,0.46364 -0.10721,0.92705 -0.16303,1.40476c-1.37351,-2.53795 -1.2797,-4.33579 -1.14347,-7.21567c0.1876,-0.19833 0.37743,-0.39685 0.57174,-0.60121z" fill="#8b9e9f"/><path d="M340.17038,199.55301c2.16186,0 4.32374,0 6.55036,0c0.19652,0.39754 0.39307,0.79283 0.5963,1.20153c-5.1054,0.85983 -5.1054,0.85983 -7.14667,-0.60077c0,-0.19876 0,-0.39754 0,-0.60077z" fill="#917868"/><path d="M337.72264,263.21188c0.1809,0 0.36403,0 0.55162,0c0.02904,0.88887 0.05137,1.7755 0.06924,2.66437c0.01116,0.4958 0.02457,0.98937 0.03797,1.49857c-0.10721,1.3199 -0.10721,1.3199 -1.21269,2.53707c-0.78166,-2.58844 -0.10497,-4.09146 0.55386,-6.69999z" fill="#8a624e"/><path d="M421.11076,187.04411c0.19431,0.58066 0.38636,1.16133 0.58514,1.75763c-1.13452,1.57672 -1.13452,1.57672 -2.345,2.93236c-0.77273,-0.19431 -1.5477,-0.38636 -2.345,-0.58737c0.69011,-0.19876 0.69011,-0.19876 1.3936,-0.40199c1.66606,-0.64096 1.66606,-0.64096 2.30703,-2.30927c0.13399,-0.45784 0.268,-0.91791 0.40423,-1.39136z" fill="#457170"/><path d="M423.58082,181.68189c1.00053,0.19207 1.99883,0.38414 3.03064,0.58066c-1.00053,0.76826 -2.00107,1.5343 -3.03064,2.32267c-0.39976,-0.3819 -0.80177,-0.76604 -1.21269,-1.16133c0.39976,-0.57397 0.79954,-1.14793 1.21269,-1.74199z" fill="#467471"/><path d="M246.5804,173.86523c0.19207,0 0.38414,0 0.58066,0c0,0.98266 0,1.96533 0,2.97927c0.38414,0 0.76604,0 1.16133,0c0,0.39307 0,0.78613 0,1.19037c0.38414,0.19652 0.76604,0.39307 1.16133,0.5963c-0.95809,0.19652 -1.9162,0.39307 -2.90334,0.59406c0,-1.76879 0,-3.5376 0,-5.36z" fill="#ebf2f2"/><path d="M340.11452,119.58836c0.60747,0.19652 1.21493,0.39307 1.84251,0.59563c-0.3685,1.40053 -0.77942,2.79077 -1.22833,4.16897c-0.60747,0.2948 -0.60747,0.2948 -1.22833,0.5954c0.20323,-1.76879 0.40423,-3.5376 0.61418,-5.36z" fill="#e5f4f3"/><path d="M357.92982,225.23856c0.20771,2.66883 0.20771,2.66883 -0.83974,3.9932c-0.27693,0.23004 -0.55386,0.46007 -0.83974,0.6968c0,-1.3534 0,-2.70903 0,-4.10263c1.12112,-0.58737 1.12112,-0.58737 1.67946,-0.58737z" fill="#9c6a4e"/><path d="M334.80814,209.60523c2.19983,0.87994 2.9413,2.077 4.02,4.24333c-1.64596,-0.77942 -2.85642,-1.55887 -4.02,-3.03064c0,-0.40199 0,-0.80177 0,-1.21269z" fill="#937a6a"/><path d="M392.66036,204.24299c-0.83079,2.04127 -1.7755,3.02393 -3.57333,4.24333c0.37297,-2.20877 1.10327,-4.24333 3.57333,-4.24333z" fill="#836557"/><path d="M349.77371,202.00744c1.43826,0.27693 1.43826,0.27693 2.90334,0.56057c0,0.37074 0,0.73924 0,1.12112c0.95809,0.18536 1.9162,0.37074 2.90334,0.56057c-1.74199,0.56057 -1.74199,0.56057 -2.8006,0.12506c-1.00277,-0.60299 -2.0033,-1.20377 -3.00607,-1.80676c0,-0.18536 0,-0.37074 0,-0.56057z" fill="#545c4d"/><path d="M473.10272,194.63968c0.80177,0.20771 1.60131,0.41316 2.42539,0.62534c-2.87877,2.50132 -2.87877,2.50132 -4.24333,2.50132c0,-0.41316 0,-0.8241 0,-1.25066c0.39976,0 0.79954,0 1.21269,0c0.19876,-0.61863 0.39976,-1.23726 0.60523,-1.876z" fill="#60837f"/></g><path d="M194.58246,79.27682c6.69002,4.66647 12.4092,10.52197 18.11818,16.30781c1.41885,1.43527 2.84119,2.86805 4.2635,4.30082c0.74351,0.75122 1.48601,1.50243 2.22752,2.25365c3.80085,3.85805 7.54124,7.52456 11.88958,10.77071c3.39513,2.68148 5.34606,6.29576 7.35245,10.05184c0.55894,1.02482 1.11886,2.04717 1.67978,3.06952c0.42437,0.77608 0.42437,0.77608 0.85718,1.56711c5.48088,9.94486 11.33289,19.51164 19.32584,27.66556c0.60444,0.62933 0.60444,0.62933 1.22134,1.27109c4.78338,4.59684 10.86524,6.23108 17.09632,8.00962c16.19088,4.63911 23.34233,18.67338 32.00119,32.06338c9.40012,14.52179 19.58876,27.96903 31.47634,40.56056c4.77095,5.11919 8.32055,9.91502 8.2161,17.11373c-0.42288,4.05955 -2.70637,7.35293 -5.64405,10.09163c-20.74792,15.37998 -53.99534,14.93224 -78.63366,17.07393c-0.52983,0.04477 -1.05966,0.09204 -1.60691,0.13929c-8.16385,0.70644 -16.33492,1.2885 -24.51618,1.77106c-0.57236,0.03482 -1.14474,0.06716 -1.7345,0.10198c-40.8797,2.37801 -82.39567,2.31335 -123.27663,0c-1.80315,-0.10198 -3.60632,-0.20147 -5.40948,-0.2985c-86.26136,-4.75106 -86.26136,-4.75106 -101.77942,-21.86977c-2.5479,-3.19638 -3.24276,-5.92266 -3.14592,-9.99959c0.71631,-5.12667 4.10345,-9.77075 7.88473,-13.18106c0.42047,0 0.84103,0 1.27426,0c0.16496,-0.37313 0.32994,-0.74624 0.49983,-1.1293c0.83326,-1.52729 1.72849,-2.50985 2.97218,-3.71876c0.43572,-0.43033 0.87138,-0.85817 1.32029,-1.30093c0.4554,-0.44029 0.91088,-0.88305 1.38009,-1.33825c14.36566,-14.00939 25.09833,-30.56097 35.54665,-47.57767c13.56986,-22.08867 13.56986,-22.08867 23.31224,-24.73036c3.07401,-0.67163 6.19702,-1.01987 9.31579,-1.41786c7.23329,-0.94523 12.05798,-2.49244 16.81475,-8.28823c5.43883,-7.241 9.93766,-15.15112 14.33573,-23.05629c2.74169,-4.8804 5.13387,-9.09665 9.82596,-12.35026c6.7266,-4.79831 11.99305,-11.00453 17.44183,-17.16598c12.8572,-14.32529 28.48019,-28.83218 48.09707,-16.76053z" fill="#bfdef2"/><path d="M194.58246,79.27682c6.69002,4.66647 12.4092,10.52197 18.11818,16.30781c1.41885,1.43527 2.84119,2.86805 4.2635,4.30082c0.74351,0.75122 1.48601,1.50243 2.22752,2.25365c3.80085,3.85805 7.54124,7.52456 11.88958,10.77071c3.39513,2.68148 5.34606,6.29576 7.35245,10.05184c0.55894,1.02482 1.11886,2.04717 1.67978,3.06952c0.42437,0.77608 0.42437,0.77608 0.85718,1.56711c5.48088,9.94486 11.33289,19.51164 19.32584,27.66556c0.60444,0.62933 0.60444,0.62933 1.22134,1.27109c4.78338,4.59684 10.86524,6.23108 17.09632,8.00962c16.19088,4.63911 23.34233,18.67338 32.00119,32.06338c9.40012,14.52179 19.58876,27.96903 31.47634,40.56056c4.77095,5.11919 8.32055,9.91502 8.2161,17.11373c-0.42288,4.05955 -2.70637,7.35293 -5.64405,10.09163c-20.74792,15.37998 -53.99534,14.93224 -78.63366,17.07393c-0.52983,0.04477 -1.05966,0.09204 -1.60691,0.13929c-8.16385,0.70644 -16.33492,1.2885 -24.51618,1.77106c-0.57236,0.03482 -1.14474,0.06716 -1.7345,0.10198c-40.8797,2.37801 -82.39567,2.31335 -123.27663,0c-1.80315,-0.10198 -3.60632,-0.20147 -5.40948,-0.2985c-86.26136,-4.75106 -86.26136,-4.75106 -101.77942,-21.86977c-2.5479,-3.19638 -3.24276,-5.92266 -3.14592,-9.99959c0.71631,-5.12667 4.10345,-9.77075 7.88473,-13.18106c0.42047,0 0.84103,0 1.27426,0c0.16496,-0.37313 0.32994,-0.74624 0.49983,-1.1293c0.83326,-1.52729 1.72849,-2.50985 2.97218,-3.71876c0.43572,-0.43033 0.87138,-0.85817 1.32029,-1.30093c0.4554,-0.44029 0.91088,-0.88305 1.38009,-1.33825c14.36566,-14.00939 25.09833,-30.56097 35.54665,-47.57767c13.56986,-22.08867 13.56986,-22.08867 23.31224,-24.73036c3.07401,-0.67163 6.19702,-1.01987 9.31579,-1.41786c7.23329,-0.94523 12.05798,-2.49244 16.81475,-8.28823c5.43883,-7.241 9.93766,-15.15112 14.33573,-23.05629c2.74169,-4.8804 5.13387,-9.09665 9.82596,-12.35026c6.7266,-4.79831 11.99305,-11.00453 17.44183,-17.16598c12.8572,-14.32529 28.48019,-28.83218 48.09707,-16.76053zM157.71499,92.81111c-0.68605,0.67163 -1.37284,1.34323 -2.06061,2.01485c-3.08096,3.01977 -6.06915,6.09429 -8.87527,9.37524c-9.49042,11.00703 -9.49042,11.00703 -14.48374,14.24818c-3.98218,2.62178 -5.81692,5.88534 -7.99072,10.04934c-0.7164,1.31837 -1.43477,2.63671 -2.15539,3.95257c-0.34501,0.63679 -0.69027,1.27109 -1.04597,1.92779c-3.43818,6.20372 -7.49621,12.07415 -11.81146,17.70079c-0.3654,0.47758 -0.73082,0.95767 -1.10742,1.45268c-4.11028,5.06446 -9.90507,7.95987 -16.33565,8.98472c-2.03747,0.21143 -4.07671,0.36068 -6.11991,0.50495c-6.2,0.52486 -10.35506,2.30837 -14.66558,6.90021c-1.51163,1.90042 -2.83421,3.89039 -4.14162,5.93509c-0.55942,0.85569 -0.55942,0.85569 -1.13006,1.72879c-3.52995,5.4376 -6.92211,10.96721 -10.27868,16.51426c-2.52826,4.1665 -5.18562,8.18873 -8.02405,12.14628c-0.65993,0.94026 -1.31935,1.87804 -1.97878,2.8183c-4.3563,6.14404 -8.9285,11.9647 -13.94994,17.5764c-0.76764,0.86067 -0.76764,0.86067 -1.55069,1.74122c-0.93198,1.03976 -1.8676,2.07704 -2.80731,3.11181c-0.97163,1.0721 -1.93483,2.15165 -2.89211,3.2362c-0.49857,0.56465 -0.99703,1.12682 -1.51069,1.70888c-0.44355,0.50247 -0.88707,1.00742 -1.34401,1.52729c-1.36392,1.42034 -1.36392,1.42034 -2.9369,2.65412c-1.81267,1.47754 -3.17606,3.077 -4.63918,4.89781c-0.49605,0.6144 -0.99221,1.22632 -1.50323,1.85813c-1.96015,2.55214 -2.06066,4.07446 -1.84178,7.30318c2.36383,5.70375 8.65031,8.60661 14.01717,10.83537c7.3166,2.679 14.94813,4.11178 22.60254,5.44755c1.04448,0.18657 2.08772,0.38306 3.12849,0.58954c5.9791,1.16912 12.0199,1.83327 18.07291,2.48498c0.94946,0.10198 0.94946,0.10198 1.91834,0.20895c13.88003,1.46264 27.79093,2.20637 41.72619,2.89789c0.52933,0.02736 1.05891,0.05473 1.60441,0.08209c22.02624,1.10194 44.0333,1.78849 66.08837,1.75365c2.41308,-0.00248 4.82643,0 7.23951,0.00248c1.89494,0.00248 3.79014,0.00248 5.6851,0c0.892,0 1.78377,0 2.67552,0.00248c1.22832,0 2.45661,-0.00248 3.68468,-0.00498c1.04026,0 1.04026,0 2.10142,-0.00248c1.75664,-0.07464 3.34962,-0.3184 5.05926,-0.7164c0,-0.21143 0,-0.42288 0,-0.63929c-7.35891,-0.20895 -14.71806,-0.42038 -22.3001,-0.63679c1.99742,-0.82833 3.99487,-1.65666 6.05298,-2.50985c10.08517,-4.29584 18.40273,-9.13147 26.44146,-16.60878c0.54451,-0.48506 1.089,-0.97012 1.65019,-1.47009c6.74525,-6.28581 11.60824,-14.72081 12.02837,-24.04132c0.11592,-7.70367 -2.63769,-13.65617 -7.30717,-19.73553c-1.04673,-0.86812 -2.10837,-1.71884 -3.18569,-2.54964c-0.7256,-0.77608 -1.43055,-1.57207 -2.11061,-2.38796c-1.55989,-1.83077 -3.17076,-3.54463 -4.89806,-5.21869c-5.77116,-5.73857 -9.87025,-11.94729 -10.55257,-20.23302c-0.08009,-0.95021 -0.08009,-0.95021 -0.16193,-1.92031c-0.03856,-0.48256 -0.07711,-0.96762 -0.11691,-1.46511c0.55197,0.05223 1.10393,0.10448 1.67257,0.1592c3.15608,-0.23381 4.90503,-1.71138 7.16788,-3.82323c1.33229,-2.66655 1.16588,-5.11421 0.29129,-7.87778c-2.02057,-4.48986 -5.108,-8.33548 -8.01783,-12.27562c-3.62623,-4.94508 -6.86764,-9.69364 -6.87135,-15.97697c-0.05074,-4.1068 -0.23854,-6.89275 -3.04317,-10.11402c-0.43779,-0.4179 -0.87535,-0.83578 -1.32655,-1.26612c-3.9103,-5.01472 -4.28265,-10.7931 -4.16873,-16.93464c-0.00447,-0.70147 -0.0092,-1.40293 -0.01367,-2.12678c0.05223,-6.63655 0.05223,-6.63655 2.84093,-9.42499c2.61109,0.24129 4.16675,0.44277 6.37164,1.91286c0.63057,0 1.26139,0 1.91136,0c-0.02188,-5.54455 -1.2594,-10.0767 -4.46002,-14.65861c-1.7631,-1.65168 -3.57075,-2.76357 -5.73435,-3.82323c-0.39923,-0.21393 -0.79824,-0.42783 -1.20965,-0.64922c-11.76047,-5.4351 -21.59166,3.01232 -29.37343,10.84533z" fill="#a5d1ec"/><path d="M192.17633,84.66965c3.19863,2.22378 4.64757,5.94504 5.80274,9.52201c0.394,2.34071 0.58754,4.63911 0.63802,7.01216c-2.15339,-0.35072 -3.2429,-0.6741 -5.10476,-1.91286c-1.86136,-0.23381 -2.78545,-0.30347 -4.30703,0.83578c-2.23101,3.00984 -1.60415,7.07434 -1.635,10.63638c-0.01842,0.69151 -0.03707,1.38552 -0.05622,2.09942c-0.04252,5.48484 0.69376,10.48963 4.15132,14.91731c0.43855,0.4179 0.87684,0.83578 1.32855,1.26862c2.71531,3.12675 2.87252,5.91518 2.93124,9.87025c0.06418,3.75358 0.79846,6.25099 2.69194,9.44987c0.25496,0.47013 0.50992,0.93778 0.77284,1.42282c2.21484,3.91278 4.86274,7.48727 7.60468,11.04185c3.09789,4.09187 5.04979,7.79572 4.38415,13.02931c-1.12432,1.92031 -2.44218,3.4501 -4.46649,4.46002c-3.74339,0.54476 -6.36989,0.05223 -9.46157,-2.1019c-2.27156,-1.77604 -4.48789,-3.61428 -6.67511,-5.48982c-3.22948,-2.48248 -5.88135,-3.62671 -9.92273,-3.46006c-2.26037,0.3557 -3.47398,1.29348 -5.20676,2.76605c-0.35547,0.2985 -0.71092,0.59699 -1.07682,0.90294c-5.53783,5.04706 -9.57598,11.7234 -13.83351,17.83758c-5.50501,7.79819 -5.50501,7.79819 -10.05482,9.3454c-2.26383,-0.04975 -3.26953,-0.53979 -5.02492,-1.95265c-2.00988,-3.26852 -1.68053,-6.94748 -0.9328,-10.60156c0.45694,-1.69893 0.96017,-3.37549 1.49099,-5.05453c2.55262,-8.0743 2.55262,-8.0743 3.46951,-16.45208c0.01617,-0.95269 0.01617,-0.95269 0.03259,-1.92529c-0.11193,-1.65913 -0.11193,-1.65913 -1.00221,-2.8382c-1.60789,-1.0298 -2.4504,-1.04473 -4.3344,-0.73381c-1.85664,1.21139 -3.50806,2.58198 -5.22192,3.98491c-2.06807,1.28352 -3.23569,1.34075 -5.6254,1.11439c-0.3159,-2.20887 -0.3159,-2.20887 -0.63828,-4.46002c-3.3143,2.26855 -5.35576,5.30078 -7.65691,8.52452c-6.98182,9.68369 -6.98182,9.68369 -9.33196,10.6339c-1.51562,-0.03979 -1.51562,-0.03979 -2.67203,-0.75619c-0.9726,-1.53227 -0.8134,-2.59691 -0.75768,-4.38043c-6.43382,2.95759 -11.97015,6.00722 -17.22841,10.8329c-0.37437,0.34327 -0.74872,0.68156 -1.13453,1.03478c-8.62154,7.8554 -8.62154,7.8554 -16.57247,16.37497c-3.28519,3.76353 -3.28519,3.76353 -5.26422,4.90031c-2.35289,-0.03979 -2.35289,-0.03979 -4.46674,-0.63929c-1.41685,-2.12181 -1.40468,-3.01479 -1.03677,-5.47739c0.7828,-3.00984 2.20539,-5.76843 3.5894,-8.54443c-3.94537,0.27363 -6.48705,1.13428 -9.8108,3.22624c-4.0971,2.50985 -4.0971,2.50985 -5.50351,2.50985c0.89822,-3.93516 2.59939,-7.00966 4.70604,-10.4349c0.50596,-0.8308 0.50596,-0.8308 1.02235,-1.67904c2.31583,-3.75358 4.71723,-7.44497 7.23279,-11.06921c0.4465,-0.65172 0.4465,-0.65172 0.90195,-1.31837c3.22276,-4.53713 6.77509,-7.93251 12.29851,-9.27824c1.96286,-0.30595 3.92124,-0.46017 5.90224,-0.59699c8.66235,-0.78106 15.35734,-2.75362 21.19144,-9.5046c4.89756,-6.06693 9.05188,-12.65123 12.81665,-19.46439c0.62188,-1.11189 1.24373,-2.22378 1.86584,-3.33817c0.60048,-1.08453 1.18552,-2.17901 1.76982,-3.27349c2.69939,-4.84806 5.57664,-7.77083 10.05333,-10.98712c3.57995,-2.93023 6.79426,-6.12663 9.93021,-9.51951c0.396,-0.42536 0.79225,-0.84821 1.2002,-1.28352c1.9718,-2.11931 3.9073,-4.26102 5.80375,-6.44501c5.16745,-5.92763 10.68016,-11.90499 17.52243,-15.89488c0.45421,-0.27363 0.90817,-0.54724 1.37607,-0.82833c7.35096,-3.87048 14.68946,-1.65666 21.53519,2.14172z" fill="#fcfdfd"/><path d="M194.58246,79.27682c6.69002,4.66647 12.4092,10.52197 18.11818,16.30781c1.41885,1.43527 2.84119,2.86805 4.2635,4.30082c0.74351,0.75122 1.48601,1.50243 2.22752,2.25365c3.80085,3.85805 7.54124,7.52456 11.88958,10.77071c3.39513,2.68148 5.34606,6.29576 7.35245,10.05184c0.55894,1.02482 1.11886,2.04717 1.67978,3.06952c0.42437,0.77608 0.42437,0.77608 0.85718,1.56711c5.48088,9.94486 11.33289,19.51164 19.32584,27.66556c0.60444,0.62933 0.60444,0.62933 1.22134,1.27109c4.78338,4.59684 10.86524,6.23108 17.09632,8.00962c16.19088,4.63911 23.34233,18.67338 32.00119,32.06338c9.40012,14.52179 19.58876,27.96903 31.47634,40.56056c4.77095,5.11919 8.32055,9.91502 8.2161,17.11373c-0.42288,4.05955 -2.70637,7.35293 -5.64405,10.09163c-20.74792,15.37998 -53.99534,14.93224 -78.63366,17.07393c-0.52983,0.04477 -1.05966,0.09204 -1.60691,0.13929c-8.16385,0.70644 -16.33492,1.2885 -24.51618,1.77106c-0.57236,0.03482 -1.14474,0.06716 -1.7345,0.10198c-40.8797,2.37801 -82.39567,2.31335 -123.27663,0c-1.80315,-0.10198 -3.60632,-0.20147 -5.40948,-0.2985c-86.26136,-4.75106 -86.26136,-4.75106 -101.77942,-21.86977c-2.5479,-3.19638 -3.24276,-5.92266 -3.14592,-9.99959c0.71631,-5.12667 4.10345,-9.77075 7.88473,-13.18106c0.42047,0 0.84103,0 1.27426,0c0.16496,-0.37313 0.32994,-0.74624 0.49983,-1.1293c0.83326,-1.52729 1.72849,-2.50985 2.97218,-3.71876c0.43572,-0.43033 0.87138,-0.85817 1.32029,-1.30093c0.4554,-0.44029 0.91088,-0.88305 1.38009,-1.33825c14.36566,-14.00939 25.09833,-30.56097 35.54665,-47.57767c13.56986,-22.08867 13.56986,-22.08867 23.31224,-24.73036c3.07401,-0.67163 6.19702,-1.01987 9.31579,-1.41786c7.23329,-0.94523 12.05798,-2.49244 16.81475,-8.28823c5.43883,-7.241 9.93766,-15.15112 14.33573,-23.05629c2.74169,-4.8804 5.13387,-9.09665 9.82596,-12.35026c6.7266,-4.79831 11.99305,-11.00453 17.44183,-17.16598c12.8572,-14.32529 28.48019,-28.83218 48.09707,-16.76053zM157.71499,92.81111c-0.68605,0.67163 -1.37284,1.34323 -2.06061,2.01485c-3.08096,3.01977 -6.06915,6.09429 -8.87527,9.37524c-9.49042,11.00703 -9.49042,11.00703 -14.48374,14.24818c-3.98218,2.62178 -5.81692,5.88534 -7.99072,10.04934c-0.7164,1.31837 -1.43477,2.63671 -2.15539,3.95257c-0.34501,0.63679 -0.69027,1.27109 -1.04597,1.92779c-3.43818,6.20372 -7.49621,12.07415 -11.81146,17.70079c-0.3654,0.47758 -0.73082,0.95767 -1.10742,1.45268c-4.11028,5.06446 -9.90507,7.95987 -16.33565,8.98472c-2.03747,0.21143 -4.07671,0.36068 -6.11991,0.50495c-6.2,0.52486 -10.35506,2.30837 -14.66558,6.90021c-1.51163,1.90042 -2.83421,3.89039 -4.14162,5.93509c-0.55942,0.85569 -0.55942,0.85569 -1.13006,1.72879c-3.52995,5.4376 -6.92211,10.96721 -10.27868,16.51426c-2.52826,4.1665 -5.18562,8.18873 -8.02405,12.14628c-0.65993,0.94026 -1.31935,1.87804 -1.97878,2.8183c-4.3563,6.14404 -8.9285,11.9647 -13.94994,17.5764c-0.76764,0.86067 -0.76764,0.86067 -1.55069,1.74122c-0.93198,1.03976 -1.8676,2.07704 -2.80731,3.11181c-0.97163,1.0721 -1.93483,2.15165 -2.89211,3.2362c-0.49857,0.56465 -0.99703,1.12682 -1.51069,1.70888c-0.44355,0.50247 -0.88707,1.00742 -1.34401,1.52729c-1.36392,1.42034 -1.36392,1.42034 -2.9369,2.65412c-1.81267,1.47754 -3.17606,3.077 -4.63918,4.89781c-0.49605,0.6144 -0.99221,1.22632 -1.50323,1.85813c-1.96015,2.55214 -2.06066,4.07446 -1.84178,7.30318c2.36383,5.70375 8.65031,8.60661 14.01717,10.83537c7.3166,2.679 14.94813,4.11178 22.60254,5.44755c1.04448,0.18657 2.08772,0.38306 3.12849,0.58954c5.9791,1.16912 12.0199,1.83327 18.07291,2.48498c0.94946,0.10198 0.94946,0.10198 1.91834,0.20895c13.88003,1.46264 27.79093,2.20637 41.72619,2.89789c0.52933,0.02736 1.05891,0.05473 1.60441,0.08209c22.31726,1.11687 44.62233,1.80838 66.96819,1.79097c0.68605,0 0.68605,0 1.38578,0c42.49082,-0.00995 85.25078,-1.87056 127.23916,-8.72352c0.79599,-0.12934 1.59197,-0.2562 2.41285,-0.38804c10.45481,-1.75118 23.73785,-4.31077 31.19525,-12.51691c1.70143,-2.55214 1.93774,-4.06203 1.59445,-7.16886c-2.25115,-4.63911 -6.07688,-8.37778 -9.55933,-12.10897c-4.44261,-4.76099 -8.56184,-9.66628 -12.52687,-14.82776c-0.80594,-1.04226 -1.62181,-2.07704 -2.44269,-3.10934c-5.48734,-6.97484 -10.28318,-14.39991 -15.06906,-21.86479c-11.33536,-18.61616 -11.33536,-18.61616 -29.77243,-28.66552c-15.74811,-4.18889 -25.01715,-15.46455 -33.21135,-29.03615c-1.95391,-3.3929 -3.85805,-6.81316 -5.73609,-10.24834c-3.41703,-6.22861 -6.54701,-11.39257 -12.10399,-15.87995c-3.37648,-2.81084 -6.52511,-5.82316 -9.63667,-8.92252c-0.37361,-0.37063 -0.747,-0.74126 -1.13155,-1.12185c-2.18523,-2.19394 -4.22744,-4.46002 -6.22388,-6.8256c-1.01315,-1.16414 -2.09644,-2.17403 -3.27698,-3.16404c-1.36438,-1.15666 -2.71182,-2.31085 -4.02198,-3.52722c-6.54203,-6.06443 -13.37733,-10.82294 -22.54412,-10.54933c-8.17256,1.22632 -13.85193,6.83057 -19.42806,12.44228z" fill="#194972"/><path d="M194.8123,87.21929c3.28618,2.30837 6.15225,4.79831 8.94642,7.68129c1.12235,1.12432 2.2733,2.13674 3.49887,3.14415c1.53028,1.28603 2.84392,2.61432 4.13515,4.14162c4.73886,5.55698 9.9623,11.05678 15.9491,15.26805c2.53001,2.07206 4.15531,4.74856 5.70575,7.59174c0.36093,0.65669 0.72186,1.31339 1.09373,1.98997c0.37884,0.69151 0.75743,1.38552 1.14772,2.09942c13.93998,25.32485 13.93998,25.32485 37.77311,40.24215c1.30841,0.33331 2.6193,0.65419 3.93516,0.95519c8.70363,2.06956 13.49199,6.85046 18.52911,13.97207c0.35322,0.49501 0.70394,0.99001 1.06712,1.49745c2.37303,3.35808 4.65404,6.76839 6.8455,10.24586c0.39799,0.62933 0.39799,0.62933 0.80594,1.27357c1.189,1.92529 2.05963,3.60433 2.53473,5.8132c-5.82316,-0.68156 -10.12148,-4.53713 -14.67354,-8.00217c-7.51213,-5.68634 -15.08149,-10.20356 -24.77263,-9.79314c-7.29075,-0.15172 -14.88471,-4.30332 -20.3549,-8.95486c0,-0.42038 0,-0.84076 0,-1.27357c-0.37536,-0.16916 -0.75071,-0.33829 -1.13751,-0.51242c-4.20455,-2.27603 -6.90046,-6.55694 -9.55806,-10.39511c-2.51308,-3.50981 -4.54534,-6.0719 -8.80212,-7.42756c-4.15705,-2.14917 -6.2918,-6.73605 -8.29518,-10.76324c-1.40442,-2.78098 -2.75336,-5.36296 -4.65179,-7.84297c0,-0.42038 0,-0.84076 0,-1.27357c-0.38058,-0.17163 -0.76117,-0.34079 -1.15318,-0.5174c-1.38353,-0.75122 -2.19841,-1.56461 -3.30012,-2.66655c-1.91809,-0.63929 -3.20757,-0.70394 -5.20874,-0.67658c-0.57311,0.00498 -1.14648,0.00995 -1.737,0.01741c-0.43705,0.00745 -0.87409,0.01493 -1.32458,0.02239c-0.97907,1.80093 -1.5467,3.4352 -1.95316,5.44257c-0.11069,0.53729 -0.22138,1.07707 -0.33556,1.62929c-0.16615,0.83578 -0.16615,0.83578 -0.33556,1.68402c-0.11542,0.56715 -0.23108,1.1318 -0.35024,1.71636c-0.28407,1.3905 -0.56465,2.78348 -0.8425,4.17646c-1.98277,-2.9775 -2.63921,-5.07194 -2.62377,-8.67627c-0.00149,-4.07446 -0.2067,-6.79823 -2.98248,-9.99214c-0.43705,-0.4179 -0.87409,-0.83578 -1.32458,-1.26862c-3.90432,-5.00974 -4.27621,-10.78562 -4.16251,-16.92468c-0.00447,-0.70147 -0.00895,-1.40043 -0.01367,-2.12428c0.03383,-4.28093 0.33207,-6.91016 3.47299,-10.05682c3.2051,0.18657 5.45599,1.0721 8.27032,2.54964c-0.27088,-1.42282 -0.55098,-2.84068 -0.83505,-4.26102c-0.15496,-0.78853 -0.31019,-1.57954 -0.46988,-2.39542c-0.5741,-2.14917 -1.34646,-3.57947 -2.51235,-5.44505c0,-0.63181 0,-1.26114 0,-1.91038z" fill="#cbe7f7"/><path d="M113.70513,217.16678c0.42238,0.42038 0.8445,0.84326 1.2793,1.27607c-0.30249,3.77099 -2.61432,5.67391 -5.11697,8.29071c-0.51541,0.56963 -1.03081,1.13678 -1.56163,1.72381c-0.54004,0.5746 -1.08031,1.15169 -1.63649,1.7437c-0.7522,0.80842 -0.7522,0.80842 -1.51933,1.63177c-2.05713,1.56461 -3.60632,1.7437 -6.15647,1.91536c-0.99946,-1.11687 -0.99946,-1.11687 -1.91882,-2.54964c0.64947,-5.46246 7.59521,-10.12895 11.51347,-13.39499c1.76684,-0.88055 3.16454,-0.75867 5.11697,-0.63679z" fill="#95c8e9"/><path d="M167.96165,119.01901c0.63456,1.94272 0.7119,2.96754 0.04005,4.92019c-1.84668,2.88048 -3.79314,5.57441 -6.45173,7.77581c-2.2039,0.07711 -2.2039,0.07711 -3.84686,-0.63679c-0.64126,-0.63431 -0.64126,-0.63431 -0.92161,-2.22131c0.4843,-3.83567 3.1153,-7.31313 6.05076,-9.83791c2.10938,-0.69649 3.02177,-0.50745 5.1294,0z" fill="#d8eef9"/><path d="M157.0285,85.22932c0,2.80586 -0.86415,3.97994 -2.73547,6.06443c-0.56265,0.5572 -1.12508,1.11687 -1.70466,1.69147c-0.56265,0.56465 -1.12508,1.1293 -1.70466,1.71138c-1.46686,1.29596 -1.46686,1.29596 -2.73547,1.29596c-0.20943,0.62683 -0.41864,1.25368 -0.63431,1.89792c-0.62809,0 -1.25591,0 -1.9029,0c0,0.42038 0,0.83828 0,1.26862c-0.41864,-0.20895 -0.83727,-0.4179 -1.26862,-0.63431c3.93094,-4.7237 8.31186,-8.9897 12.68605,-13.29549z" fill="#325878"/><path d="M141.71891,101.15156c0.20819,0.63929 0.41664,1.27855 0.63133,1.93774c-1.7248,3.31329 -4.09636,5.45003 -6.94574,7.76338c-0.41664,-0.42783 -0.83356,-0.85569 -1.26288,-1.29348c2.50065,-2.776 5.00105,-5.54953 7.57732,-8.40762z" fill="#214a6f"/><path d="M150.67776,99.90533c0.20746,0.63431 0.4149,1.26862 0.62832,1.92031c-7.24026,8.10414 -7.24026,8.10414 -10.68291,11.51198c-0.41467,-0.20895 -0.82957,-0.42038 -1.25667,-0.63929c0.26641,-0.26368 0.53281,-0.52733 0.80743,-0.79846c3.76626,-3.77596 7.24896,-7.75342 10.5038,-11.99454z" fill="#e1f2f7"/><path d="M72.94035,160.3606c0.41043,0.21393 0.82087,0.42536 1.24373,0.64674c-0.65121,0.85569 -1.31437,1.7039 -1.98226,2.54716c-0.3679,0.47263 -0.7358,0.94523 -1.11513,1.43277c-1.45791,1.38552 -2.42728,1.62181 -4.36499,1.84072c3.82473,-4.8406 3.82473,-4.8406 6.21865,-6.4674z" fill="#466b8b"/><path d="M121.96499,121.05375c0.64201,1.95017 0.69798,2.35562 -0.16044,4.35307c-0.93927,1.55963 -1.81386,2.99988 -3.04814,4.35307c-0.42336,0 -0.84698,0 -1.28327,0c0.93702,-3.30336 2.55586,-5.88534 4.49186,-8.70611z" fill="#4b6c89"/><path d="M70.31708,171.30545c0.20895,0.63431 0.4179,1.26862 0.63307,1.92031c-0.97932,1.72629 -0.97932,1.72629 -2.37429,3.63667c-0.68082,0.95519 -0.68082,0.95519 -1.37532,1.92779c-0.65121,0.72883 -0.65121,0.72883 -1.31587,1.47009c-0.62683,0 -1.25368,0 -1.89942,0c2.08947,-2.95511 4.17893,-5.9102 6.33184,-8.95486z" fill="#def1f6"/><path d="M43.67781,201.90621c0.21542,0 0.43084,0 0.65296,0c0,1.06214 0,2.12181 0,3.21379c-0.64649,0.21143 -1.29275,0.42288 -1.95887,0.64176c-0.79998,1.93276 -0.79998,1.93276 -1.30591,3.85558c-0.64649,-0.21143 -1.29297,-0.42288 -1.95912,-0.64176c1.1502,-2.57203 2.78272,-4.88538 4.57096,-7.06936z" fill="#436583"/><path d="M107.49343,145.18461c0.41939,0.85319 0.83902,1.7064 1.27135,2.58696c-1.25866,1.28105 -2.5173,2.5621 -3.81427,3.88044c-0.62908,-0.21393 -1.25841,-0.42783 -1.90689,-0.64674c1.46835,-1.92031 2.93695,-3.84064 4.44981,-5.82066z" fill="#375b79"/><path d="M160.88405,89.70675c0.20521,0.63679 0.41068,1.27109 0.62188,1.92779c-2.05215,1.90788 -4.10432,3.81576 -6.21865,5.78334c-0.41043,-0.21143 -0.82087,-0.42536 -1.24373,-0.64426c2.25736,-2.33076 4.515,-4.66399 6.84053,-7.06689z" fill="#e5f8fe"/><path d="M114.36231,145.18461c0.20521,0.4154 0.41043,0.8333 0.62188,1.26364c-1.10269,2.65164 -2.51881,4.76099 -4.3533,6.945c-0.61541,-0.20895 -1.23105,-0.4179 -1.86535,-0.63181c0.44974,-0.58206 0.44974,-0.58206 0.90842,-1.17657c0.39276,-0.50992 0.78555,-1.01987 1.19024,-1.5472c0.38953,-0.50495 0.77931,-1.00992 1.18054,-1.52979c0.81117,-1.07955 1.57606,-2.19394 2.31757,-3.32324z" fill="#d7ebf2"/><path d="M82.59917,279.11948c0.42485,0.62683 0.84996,1.25368 1.28752,1.89792c-3.61178,-0.20645 -7.22359,-0.4154 -10.94483,-0.63181c0,-0.20895 0,-0.4179 0,-0.63181c1.00592,-0.10945 2.01185,-0.21393 3.01803,-0.3184c0.56018,-0.0572 1.12035,-0.11691 1.69744,-0.17661c3.45632,-0.27859 3.45632,-0.27859 4.94185,-0.13929z" fill="#66849e"/><path d="M52.64714,187.97391c0.47958,1.0298 0.47958,1.0298 0.63954,2.53223c-2.00589,3.61926 -2.00589,3.61926 -4.47743,4.43266c0.92783,-2.60189 2.24594,-4.70629 3.83791,-6.96489z" fill="#4d6f8a"/><path d="M167.9748,78.9634c-1.74221,1.92529 -3.17773,3.05211 -5.69852,3.77596c-0.4179,-0.20645 -0.83578,-0.4154 -1.26637,-0.62933c3.88941,-3.59437 3.88941,-3.59437 6.96489,-3.14663z" fill="#456687"/><path d="M37.22264,210.86354c0.21118,0.4179 0.42212,0.83828 0.63977,1.27109c-0.75968,1.9452 -0.75968,1.9452 -1.91907,3.81328c-1.39919,0.5572 -1.39919,0.5572 -2.55836,0.63679c0.97657,-2.18399 2.30216,-3.89039 3.83766,-5.72116z" fill="#476b85"/><path d="M125.18426,127.2724c0.41043,0.4179 0.82087,0.83578 1.24373,1.26612c-1.2313,1.88052 -2.4626,3.76105 -3.73144,5.69877c-0.41017,-0.20895 -0.82087,-0.4179 -1.24373,-0.63431c1.23155,-2.08947 2.46283,-4.17893 3.73144,-6.33058z" fill="#def0f5"/><path d="M125.89543,115.82758c0.42212,0.21641 0.84425,0.43281 1.2793,0.65419c-0.82211,1.87056 -1.64471,3.24863 -3.19812,4.56947c-0.42212,0 -0.8445,0 -1.2793,0c0.75842,-2.2039 1.45566,-3.68642 3.19812,-5.22367z" fill="#3f607f"/><path d="M141.72813,101.14906c0.20521,0.62933 0.41043,1.25866 0.62188,1.90788c-0.61564,0.20895 -1.2313,0.42038 -1.86561,0.63679c-0.45595,1.28105 -0.45595,1.28105 -0.62188,2.54219c-0.82087,0.20895 -1.64172,0.42038 -2.48746,0.63431c1.22084,-2.24617 2.51283,-3.9675 4.35307,-5.72116z" fill="#53748f"/><path d="M232.90827,115.82758c1.98997,0.65419 1.98997,0.65419 3.15062,2.24617c0.41043,0.82833 0.41043,0.82833 0.82931,1.67156c-0.21891,0.43281 -0.43779,0.86315 -0.66341,1.30591c-1.6584,-1.14175 -1.6584,-1.14175 -3.31652,-2.61184c0,-0.86067 0,-1.72381 0,-2.61184z" fill="#446783"/><path d="M146.95253,102.39529c0.61564,0.20895 1.2313,0.4179 1.86561,0.63431c-1.43651,1.67904 -2.87302,3.35558 -4.3533,5.08685c-0.20521,-0.62933 -0.41017,-1.25866 -0.62188,-1.90788c0.8736,-1.44025 1.98797,-2.55712 3.10957,-3.81328z" fill="#264e6f"/><path d="M214.49707,98.6616c2.1539,0.89301 3.18918,1.9054 4.47768,3.83814c-0.6333,0.21143 -1.26662,0.42288 -1.91907,0.63929c-2.55861,-3.0372 -2.55861,-3.0372 -2.55861,-4.47743z" fill="#345978"/><path d="M29.52821,220.31839c0.38875,1.24373 0.38875,1.24373 0.62181,2.65164c-0.41043,0.43779 -0.82087,0.87558 -1.24378,1.3283c-1.32144,-0.24875 -1.32144,-0.24875 -2.48748,-0.66415c1.02615,-1.09448 2.05219,-2.18897 3.10945,-3.31579z" fill="#466a87"/><path d="M66.59632,166.82802c0.61564,0 1.23155,0 1.86584,0c-0.46664,1.25368 -0.46664,1.25368 -1.24398,2.58696c-1.32135,0.48506 -1.32135,0.48506 -2.48746,0.64674c1.16611,-2.50487 1.16611,-2.50487 1.86561,-3.2337z" fill="#315879"/><path d="M18.70623,231.76071c0,1.91783 0,1.91783 -0.62188,3.83814c-1.02615,0.21143 -2.05219,0.42288 -3.10945,0.63929c1.23132,-1.47754 2.46271,-2.95511 3.73133,-4.47743z" fill="#7090a5"/><path d="M32.14049,217.08219c0.65669,0 1.31339,0 1.98997,0c-0.49749,1.25368 -0.49749,1.25368 -1.32655,2.58696c-1.40965,0.48506 -1.40965,0.48506 -2.65338,0.64674c0.87062,-1.61686 0.87062,-1.61686 1.98997,-3.2337z" fill="#395d7a"/><path d="M105.45894,154.63944c0.59823,0.21891 1.19623,0.43779 1.81262,0.66167c-1.79446,1.64172 -1.79446,1.64172 -3.62472,3.31827c-0.1995,-0.65669 -0.39875,-1.31339 -0.60422,-1.98997c1.09499,-1.03728 1.09499,-1.03728 2.41631,-1.98997z" fill="#264f70"/><path d="M120.70036,134.98353c0.6455,1.94022 0.6455,1.94022 0.14377,3.12177c-0.69351,1.11439 -1.38676,2.23126 -2.08027,3.34563c-0.42586,0 -0.85195,0 -1.29075,0c0.8614,-2.32328 1.91061,-4.36798 3.22723,-6.4674z" fill="#d4e8ef"/><path d="M147.45002,94.93041c0.20521,0.79846 0.41043,1.59445 0.62188,2.41533c-0.82087,0.20147 -1.64172,0.40047 -2.48746,0.60444c0,0.40047 0,0.79846 0,1.20891c-0.41043,-0.199 -0.82087,-0.39799 -1.24373,-0.60444c1.02609,-1.19646 2.05215,-2.39294 3.10934,-3.62424z" fill="#597992"/><path d="M194.59564,87.21929c1.97006,1.2313 1.97006,1.2313 3.97994,2.48746c-0.21891,0.41043 -0.43779,0.82087 -0.66316,1.24373c-0.65695,0 -1.31362,0 -1.99022,0c-1.32655,-1.86561 -1.32655,-1.86561 -1.32655,-3.73119z" fill="#c0ddef"/></g></g></svg>