<svg version="1.1" xmlns="http://www.w3.org/2000/svg" xmlns:xlink="http://www.w3.org/1999/xlink" width="66.15646" height="66.74083" viewBox="0,0,66.15646,66.74083"><defs><radialGradient cx="240" cy="179.99998" r="17.86516" fx="240" fy="179.99998" gradientUnits="userSpaceOnUse" id="color-1"><stop offset="0" stop-color="#303300"/><stop offset="1" stop-color="#959100"/></radialGradient></defs><g transform="translate(-205.82375,-146.229)"><g stroke="#000000"><path d="M227.38753,180c0,-0.66834 4.34578,-0.97163 4.4453,-1.61197c0.41745,-2.68573 -2.05027,-7.2789 -1.16825,-9.20222c11.40045,-8.53008 8.65391,4.04389 12.15895,4.04389c2.48398,0 7.11919,-6.24999 8.72495,-6.10342c2.8972,0.26444 1.064,8.37799 1.064,12.87372c0,0.73458 -5.70946,0.1016 -5.82925,0.8019c-0.15005,0.87724 5.20274,6.45881 5.09109,7.3144c-0.44369,3.40022 -6.54202,6.78432 -10.60346,5.39588c-1.86132,-0.6363 -1.48255,-6.2713 -3.15322,-6.2713c-0.5868,0 -2.445,4.64526 -2.98603,4.63779c-5.88131,-0.08121 -7.74409,-5.47983 -7.74409,-11.87867z" fill="url(#color-1)" fill-rule="evenodd" stroke-linecap="butt" stroke-miterlimit="8"/><path d="M244.76962,179.21216c-0.6789,0.1726 -0.90778,0.32439 -1.46709,-0.29902c-0.21957,-0.80537 0.2499,-0.75653 0.70609,-1.28676l27.75944,-11.06457z" fill="#686500" fill-rule="evenodd" stroke-linecap="butt" stroke-miterlimit="8"/><path d="M239.61767,175.38469c-0.81395,0.18528 -0.74527,-0.2817 -1.25572,-0.75992l-9.87944,-28.20299l11.49602,27.5098c0.1437,0.6856 0.28566,0.92071 -0.36086,1.45311z" fill="#686500" fill-rule="evenodd" stroke-linecap="butt" stroke-miterlimit="8"/><path d="M234.74673,180.50796c0.69862,-0.05136 0.9505,-0.16083 1.39229,0.5507c0.0755,0.83135 -0.37823,0.70124 -0.92002,1.14363l-29.26546,6.04513z" fill="#686500" fill-rule="evenodd" stroke-linecap="butt" stroke-miterlimit="8"/><path d="M240.46874,185.49892c0.78195,-0.29222 0.77619,0.17975 1.34588,0.58559l13.55401,26.6327l-15.06365,-25.73002c-0.23389,-0.6603 -0.40595,-0.87436 0.16376,-1.48827z" fill="#686500" fill-rule="evenodd" stroke-linecap="butt" stroke-miterlimit="8"/><path d="M248.03962,186.67056l4.68031,1.50997l-4.45115,2.77786" fill="#8ca700" fill-rule="nonzero" stroke-linecap="round" stroke-miterlimit="10"/><path d="M232.19476,187.65067l-3.58659,1.83686l0.96949,-4.18842" fill="#8ca700" fill-rule="nonzero" stroke-linecap="round" stroke-miterlimit="10"/><path d="M237.51148,186.23795l0.41186,4.0085l-3.55214,-2.42178" fill="#8ca700" fill-rule="nonzero" stroke-linecap="round" stroke-miterlimit="10"/><path d="M245.82821,181.91169l3.79772,1.34723l-3.71126,2.1701" fill="#8ca700" fill-rule="nonzero" stroke-linecap="round" stroke-miterlimit="10"/><path d="M233.12651,178.2591l-2.07,-3.45728l4.24336,0.69041" fill="#8ca700" fill-rule="nonzero" stroke-linecap="round" stroke-miterlimit="10"/><path d="M232.54561,172.59176l-1.38715,-3.78332l4.03946,1.47155" fill="#8ca700" fill-rule="nonzero" stroke-linecap="round" stroke-miterlimit="10"/><path d="M228.43502,181.53638l0.37793,-3.07277l2.24575,2.42209" fill="#8ca700" fill-rule="nonzero" stroke-linecap="round" stroke-miterlimit="10"/><path d="M243.128,174.22172l0.7456,-3.96002l2.71634,3.3323" fill="#8ca700" fill-rule="nonzero" stroke-linecap="round" stroke-miterlimit="10"/><path d="M249.45759,169.28304l2.56817,-3.10519l0.76542,4.23047" fill="#8ca700" fill-rule="nonzero" stroke-linecap="round" stroke-miterlimit="10"/><path d="M251.87565,177.82741l2.03428,3.07277l-3.90522,-0.45501" fill="#8ca700" fill-rule="nonzero" stroke-linecap="round" stroke-miterlimit="10"/><path d="M238.33321,179.4204l2.56817,-3.10519l0.76541,4.23047" fill="#8ca700" fill-rule="nonzero" stroke-linecap="round" stroke-miterlimit="10"/></g></g></svg>