<svg version="1.1" xmlns="http://www.w3.org/2000/svg" xmlns:xlink="http://www.w3.org/1999/xlink" width="61.2162" height="61.28391" viewBox="0,0,61.2162,61.28391"><g transform="translate(-209.3919,-149.35805)"><g fill-rule="evenodd"><path d="M210.1419,180c0,-16.50889 13.36776,-29.89195 29.8581,-29.89195c16.49034,0 29.8581,13.38306 29.8581,29.89195c0,16.50862 -13.36776,29.89195 -29.8581,29.89195c-16.49034,0 -29.8581,-13.38333 -29.8581,-29.89195z" fill="#e7e6e6" stroke="#000000" stroke-width="1.5" stroke-miterlimit="8"/><path d="M240.09343,165.88409c0.60123,-2.29846 10.17071,-2.65845 14.68667,-0.24286c4.12326,4.79713 12.35624,9.86272 12.36979,14.3914c0.01354,4.52875 -8.23366,12.29517 -12.72795,14.5958c-4.49496,2.30063 -13.69749,1.74071 -14.23913,-0.79216c-0.54232,-2.53286 12.41312,-9.18546 10.98724,-14.4044c-1.42656,-5.219 -11.67851,-11.24933 -11.07661,-13.54779z" fill="#363636" stroke="none" stroke-width="1" stroke-miterlimit="10"/><path d="M242.70822,166.70963c-0.01895,-2.26556 7.35552,-2.27192 11.18697,-0.03839c3.83145,4.46713 9.5485,7.4759 11.49435,13.40135c-2.75426,7.5757 -7.12397,10.20036 -11.49435,13.40148c-3.79963,2.2011 -10.78276,1.7793 -10.76381,-0.42248c0.01963,-2.2011 9.94864,-8.42878 10.87891,-12.78712c-7.3975,-11.18318 -11.28311,-11.28927 -11.30207,-13.55483z" fill="#fda735" stroke="none" stroke-width="1" stroke-miterlimit="10"/><path d="M253.81191,180.03818c0.60935,-0.14624 0.20041,3.42332 -1.32703,5.84873c-0.92621,1.95473 -3.57485,4.62164 -4.88089,6.07189c-1.30671,1.45092 -2.06637,2.41099 -2.9567,2.63171c-0.47664,-0.42316 -0.53216,0.50034 -1.73597,-1.50035c0.5694,-1.43942 3.56469,-4.15034 5.91813,-6.32586c1.81654,-2.17524 4.37309,-6.57988 4.98244,-6.72613z" fill="#ffffff" stroke="none" stroke-width="1" stroke-miterlimit="10"/><path d="M249.95269,165.27407c1.32703,0.46033 0.88153,-0.03839 3.9804,1.38099c6.84028,6.57548 9.40834,8.70103 11.65956,13.39681c-3.33449,7.91815 -7.3237,10.6957 -11.65956,13.39714c-1.01829,0.35748 -1.8443,1.02235 -3.05555,1.07381c3.97566,-4.8362 8.99264,-7.75478 11.15854,-14.62437c-1.98648,-3.92854 -8.24856,-10.1588 -12.08339,-14.62437z" fill="#ffffff" stroke="none" stroke-width="1" stroke-miterlimit="10"/><path d="M226.20772,169.08405c0.45566,-1.74565 7.7042,-2.01904 11.12536,-0.18443c3.12325,3.64336 9.3596,7.49066 9.36976,10.93023c0.01016,3.4395 -6.23702,9.33814 -9.64193,11.08561c-3.40423,1.74747 -10.37518,1.32161 -10.78548,-0.6019c-0.41097,-1.92351 9.40293,-6.97623 8.32235,-10.94005c-1.0799,-3.96374 -8.84639,-8.54382 -8.39006,-10.28947z" fill="#363636" stroke="none" stroke-width="1" stroke-miterlimit="10"/><path d="M228.15155,169.75339c-0.01489,-1.72222 5.5769,-1.7271 8.48214,-0.02918c2.90457,3.39583 7.23974,5.68299 8.71504,10.18743c-2.08803,5.75889 -5.40154,7.75437 -8.71504,10.1873c-2.88087,1.67368 -8.17543,1.35276 -8.16122,-0.32093c0.01489,-1.67348 7.54306,-6.40737 8.24856,-9.72054c-5.6094,-8.50123 -8.55458,-8.58187 -8.56947,-10.30409z" fill="#fda735" stroke="none" stroke-width="1" stroke-miterlimit="10"/><path d="M236.61134,179.90176c0.46514,-0.1109 0.15233,2.59528 -1.01423,4.4341c-0.70685,1.48194 -2.72921,3.50362 -3.72651,4.6033c-0.99798,1.10021 -1.57822,1.82805 -2.25798,1.99528c-0.36426,-0.32093 -0.40623,0.37915 -1.32567,-1.13745c0.43467,-1.09141 2.72243,-3.14675 4.51934,-4.79592c1.38729,-1.64917 3.33991,-4.98847 3.80505,-5.0993z" fill="#ffffff" stroke="none" stroke-width="1" stroke-miterlimit="10"/><path d="M233.63569,168.65934c1.00543,0.34949 0.66825,-0.02911 3.0156,1.04855c5.1815,4.99247 7.12735,6.60636 8.83285,10.17166c-2.52609,6.0119 -5.54778,8.12086 -8.83285,10.17132c-0.77184,0.27217 -1.39744,0.77726 -2.31553,0.81585c3.01289,-3.67207 6.8132,-5.88794 8.4537,-11.10369c-1.50442,-2.98276 -6.24853,-7.71314 -9.15378,-11.10369z" fill="#ffffff" stroke="none" stroke-width="1" stroke-miterlimit="10"/><path d="M212.86637,171.00263c0.37712,-1.44504 6.38191,-1.67137 9.21606,-0.15274c2.58702,3.01594 7.75295,6.20067 7.76175,9.04782c0.0088,2.84715 -5.1666,7.73 -7.98721,9.17619c-2.81993,1.44619 -8.59453,1.09412 -8.93441,-0.49832c-0.34056,-1.59209 7.78883,-5.77446 6.89444,-9.0556c-0.89507,-3.28114 -7.32843,-7.07238 -6.95064,-8.51735z" fill="#363636" stroke="none" stroke-width="1" stroke-miterlimit="10"/><path d="M214.47505,171.55679c-0.01219,-1.41985 4.61074,-1.42384 7.01225,-0.0241c2.40219,2.79955 5.98651,4.68515 7.20589,8.39859c-1.72649,4.74764 -4.46585,6.39275 -7.20589,8.39859c-2.3812,1.37977 -6.75904,1.11504 -6.74685,-0.26459c0.01219,-1.3797 6.23635,-5.28238 6.81929,-8.01375c-4.63715,-7.00846 -7.07251,-7.07494 -7.0847,-8.49473z" fill="#fda735" stroke="none" stroke-width="1" stroke-miterlimit="10"/><path d="M221.48121,179.96886c0.38389,-0.09113 0.12593,2.1336 -0.83684,3.64526c-0.58362,1.21829 -2.25324,2.88025 -3.07653,3.78433c-0.8233,0.90414 -1.30197,1.50279 -1.86325,1.64023c-0.30061,-0.26405 -0.33514,0.31144 -1.09412,-0.93528c0.35884,-0.89689 2.24714,-2.58668 3.72989,-3.94242c1.14558,-1.3558 2.75697,-4.10099 3.14086,-4.19211z" fill="#ffffff" stroke="none" stroke-width="1" stroke-miterlimit="10"/><path d="M219.07901,170.6905c0.82736,0.28876 0.54977,-0.02404 2.4814,0.86636c4.26409,4.12488 5.86464,5.45828 7.26818,8.404c-2.07856,4.96714 -4.56537,6.70961 -7.26818,8.40414c-0.63508,0.22478 -1.15032,0.64185 -1.90523,0.67367c2.4787,-3.03395 5.60601,-4.86471 6.95606,-9.17408c-1.23766,-2.46441 -5.14155,-6.37278 -7.53223,-9.17408z" fill="#ffffff" stroke="none" stroke-width="1" stroke-miterlimit="10"/></g></g></svg>