<svg version="1.1" xmlns="http://www.w3.org/2000/svg" xmlns:xlink="http://www.w3.org/1999/xlink" width="75.93963" height="76.97365" viewBox="0,0,75.93963,76.97365"><g transform="translate(-201.97967,-141.48089)"><g fill-rule="evenodd" stroke="#000000" stroke-width="1.5" stroke-miterlimit="8"><path d="M214.71518,142.94282c0.79396,0 1.58896,0.30379 2.19447,0.9093l23.98472,23.98472l18.97893,-18.97893c1.21309,-1.21206 3.17792,-1.21206 4.38997,0l8.78097,8.77994c1.21206,1.21206 1.21206,3.17792 0,4.38997l-18.97996,18.97893l22.19598,22.19598c1.21206,1.21206 1.21206,3.17689 0,4.38997l-8.77994,8.77994c-1.21309,1.21206 -3.17792,1.21206 -4.38997,0l-22.5667,-22.5667l-18.47743,18.47743c-1.21206,1.21206 -3.17792,1.21206 -4.38997,0l-8.77994,-8.77994c-1.21206,-1.21206 -1.21206,-3.17792 0,-4.38997l18.47743,-18.47743l-23.61399,-23.61296c-1.21206,-1.21309 -1.21206,-3.17792 0,-4.391l8.77994,-8.77994c0.60654,-0.60551 1.40154,-0.9093 2.1955,-0.9093z" fill="#548235"/><path d="M221.85776,153.01926l12.11027,-3.57541l-4.2458,11.1917" fill="#ffd966"/><path d="M252.52372,173.74677l11.12168,6.0747l-10.94558,4.944" fill="#ffd966"/><path d="M236.56206,168.8038l6.0747,-11.12168l4.944,10.94558" fill="#ffd966"/><path d="M219.80436,166.62992l-12.11027,3.57541l4.2458,-11.1917" fill="#ffd966"/><path d="M230.58518,185.14339l-12.27503,-2.95857l9.27218,-7.56892" fill="#ffd966"/><path d="M247.49734,193.10157l-8.69962,9.1517l-1.91952,-11.81472" fill="#ffd966"/><path d="M263.26953,210.09508l-12.11027,3.57541l4.2458,-11.19067" fill="#ffd966"/><path d="M273.04013,205.1068l3.57541,12.11027l-11.19067,-4.2458" fill="#ffd966"/><path d="M260.68888,190.46944l12.11027,-3.57541l-4.2458,11.1917" fill="#ffd966"/><path d="M260.73625,153.25817l12.11027,-3.57541l-4.2458,11.19067" fill="#ffd966"/><path d="M250.41164,162.34499l-3.57541,-12.11027l11.1917,4.2458" fill="#ffd966"/><path d="M267.38352,163.83612l3.57541,12.1113l-11.19067,-4.2458" fill="#ffd966"/><path d="M206.70241,154.82859l-3.57541,-12.11027l11.1917,4.2458" fill="#ffd966"/><path d="M218.74163,209.65124l-12.11027,3.57541l4.2458,-11.19067" fill="#ffd966"/><path d="M229.06625,200.56339l3.57541,12.1113l-11.1917,-4.2458" fill="#ffd966"/><path d="M212.09437,199.07226l-3.57541,-12.11027l11.1917,4.2458" fill="#ffd966"/></g></g></svg>