<svg version="1.1" xmlns="http://www.w3.org/2000/svg" xmlns:xlink="http://www.w3.org/1999/xlink" width="39.00553" height="62.1765" viewBox="0,0,39.00553,62.1765"><g transform="translate(-220.50353,-148.68994)"><g fill-rule="evenodd" stroke="#000000" stroke-width="1.5" stroke-miterlimit="8"><path d="M230.62896,159.86226c0,-1.71572 1.39083,-3.10655 3.10655,-3.10655h12.426c1.71531,0 3.10655,1.39083 3.10655,3.10655v43.83413c0,1.71562 -1.39124,3.10686 -3.10655,3.10686h-12.426c-1.71572,0 -3.10655,-1.39124 -3.10655,-3.10686z" fill="#548235"/><path d="M234.43916,161.49271l6.07491,-11.12168l4.94379,10.94558" fill="#ffd966"/><path d="M233.20342,181.1616l-11.0187,-6.01806l10.84384,-4.89766" fill="#ffd966"/><path d="M233.20342,200.83049l-11.0187,-6.01806l10.84374,-4.89766" fill="#ffd966"/><path d="M248.10028,197.5187l3.57644,12.11027l-11.1917,-4.2458" fill="#ffd966"/><path d="M246.6936,164.78803l11.12168,6.01806l-10.94558,4.89766" fill="#ffd966"/><path d="M246.6936,182.39734l11.12168,6.0747l-10.94558,4.944" fill="#ffd966"/></g></g></svg>