<svg version="1.1" xmlns="http://www.w3.org/2000/svg" xmlns:xlink="http://www.w3.org/1999/xlink" width="460.59854" height="240.1058" viewBox="0,0,460.59854,240.1058"><g transform="translate(-5.41803,-59.9471)"><g fill-rule="evenodd" stroke="none" stroke-miterlimit="10"><g><path d="M148.24157,116.03601c0.44239,-0.00686 0.88307,-0.01372 1.33746,-0.02057c2.80523,-0.00171 5.05319,0.37723 7.64581,1.43005c0.46297,0.16461 0.92764,0.32921 1.40434,0.49898c3.18589,1.20371 6.20718,2.60633 9.22676,4.17871c0.30178,0.13888 0.60356,0.27606 0.91564,0.4201c0.86421,0.47325 1.36489,1.00824 2.06106,1.70612c1.22601,0.88821 2.46402,1.75755 3.7123,2.61662c1.61524,1.1317 3.00415,2.32169 4.36731,3.76203c0.33265,0.33265 0.66701,0.66701 1.00995,1.00995c2.60462,2.60462 2.60462,2.60462 3.36422,3.36765c0.45954,0.45611 0.9225,0.9105 1.39061,1.35803c0.50241,0.48354 0.98595,0.98595 1.46434,1.4935c0,0.28121 0,0.5607 0,0.85048c0.27949,0 0.5607,0 0.85048,0c0.42696,0.70645 0.85221,1.41634 1.27573,2.12622c0.4201,0.28121 0.84191,0.56242 1.27573,0.85048c0.43039,0.70645 0.85391,1.41462 1.27573,2.12622c0.50755,0.60529 1.01509,1.20885 1.53122,1.80557c0.95509,1.19858 1.75928,2.49315 2.5789,3.78432c0.51441,0.84534 0.51441,0.84534 1.41805,1.21401c0.38237,0.67731 0.76303,1.35632 1.13856,2.03706c0.91907,1.53808 1.9959,2.95613 3.05901,4.39476c0.57613,0.77846 1.1437,1.56379 1.70097,2.35427c1.8673,2.64062 3.88377,5.09435 6.02885,7.51034c0.95336,1.08197 1.64267,1.88273 2.10392,3.26648c0.28121,0 0.56242,0 0.85048,0c0,0.28121 0,0.5607 0,0.85048c0.23149,0.10117 0.46468,0.20406 0.70303,0.30864c1.24144,0.67388 2.26168,1.51922 3.36422,2.40229c3.77746,2.91327 7.93387,3.8872 12.51724,4.94346c0.14061,-0.28121 0.28121,-0.5607 0.42525,-0.85048c0.70131,0.14061 1.40261,0.28121 2.12622,0.42525c0,0.28121 0,0.5607 0,0.85048c0.28121,0 0.5607,0 0.85048,0c0.14061,-0.28121 0.28121,-0.5607 0.42525,-0.85048c0.28121,0 0.5607,0 0.85048,0c0,0.28121 0,0.5607 0,0.85048c0.49041,0.03772 0.9808,0.07545 1.48663,0.11317c2.00447,0.25206 3.56999,0.97223 5.34297,1.90673c0.28464,0.14231 0.56927,0.28464 0.86248,0.4321c2.84639,1.46091 5.23667,3.04701 7.19142,5.62761c0.4201,0.28121 0.84191,0.56242 1.27573,0.85048c0,0.28121 0,0.56242 0,0.85048c0.4201,0.14061 0.84191,0.28121 1.27573,0.42525c0,0.42182 0,0.84191 0,1.27573c0.27949,0 0.5607,0 0.85048,0c0,0.28121 0,0.56242 0,0.85048c0.27949,0 0.5607,0 0.85048,0c0.52127,0.67388 0.52127,0.67388 1.11456,1.6221c0.98938,1.53808 2.02163,3.02299 3.11044,4.49078c1.94275,2.65092 3.74489,5.38928 5.37385,8.24424c0.52298,1.00309 0.52298,1.00309 1.45577,1.37861c0.30521,0.51098 0.5847,1.03568 0.85048,1.56722c1.42662,2.64235 3.20476,5.02062 4.97089,7.44005c0.53156,0.7356 1.05281,1.47806 1.56895,2.22567c2.64405,3.79975 5.53673,7.35774 8.50659,10.90543c1.24487,1.4935 2.46058,3.01099 3.67973,4.52678c0.9345,1.09226 1.93932,2.09021 2.96127,3.10187c0.77503,0.82991 1.54665,1.66153 2.31141,2.49831c0.30864,0.33608 0.30864,0.33608 0.62243,0.67901c1.0854,1.18828 2.14851,2.39027 3.17903,3.62828c1.00995,1.15399 2.04734,2.02677 3.24248,2.9767c0,0.27949 0,0.5607 0,0.85048c0.27949,0 0.5607,0 0.85048,0c1.17971,1.4232 1.67869,2.28568 1.833,4.14612c-0.13204,1.38204 -0.13204,1.38204 -0.55727,2.23253c-0.20576,1.26716 -0.38237,2.53603 -0.55556,3.80834c-0.76303,3.34193 -3.40538,5.75108 -6.15059,7.62866c-34.64362,20.84208 -89.15709,18.03856 -128.09257,19.18053c-0.46468,0.01543 -0.92936,0.02916 -1.40948,0.04286c-12.87219,0.38066 -25.69294,0.42868 -38.5617,-0.04286c-0.53327,-0.01886 -1.06654,-0.03772 -1.61524,-0.05659c-14.90923,-0.53498 -29.79447,-1.14026 -44.62655,-2.81209c-0.94993,-0.10631 -1.89988,-0.2109 -2.84811,-0.31551c-8.76035,-0.96709 -17.4727,-2.23082 -26.17648,-3.61971c-0.46639,-0.07373 -0.9345,-0.14747 -1.41462,-0.22292c-2.39886,-0.3858 -4.7377,-0.84191 -7.08854,-1.45063c-0.58299,-0.1509 -1.1677,-0.30007 -1.75071,-0.45096c-0.27949,-0.07202 -0.5607,-0.14574 -0.84878,-0.22119c-1.14199,-0.29321 -2.28912,-0.56586 -3.43452,-0.84362c-4.06896,-1.02538 -7.95102,-2.20167 -11.72334,-4.06039c-0.97738,-0.48698 -0.97738,-0.48698 -2.2291,-0.40466c0,-0.28121 0,-0.5607 0,-0.85048c-0.37723,-0.11317 -0.75446,-0.22806 -1.1437,-0.34465c-1.3186,-0.47325 -2.39027,-0.97395 -3.53398,-1.78157c0,-0.28121 0,-0.5607 0,-0.85048c-0.25035,-0.04629 -0.50068,-0.09431 -0.75789,-0.14231c-2.14337,-0.64129 -3.60257,-2.43658 -4.95546,-4.13755c-1.21744,-2.31825 -1.0974,-5.68077 -0.39439,-8.15336c0.05145,-0.24863 0.10117,-0.49554 0.15433,-0.74933c-0.54527,-0.72703 -1.11283,-1.4352 -1.70097,-2.12622c-0.42525,-0.79733 -0.42525,-0.79733 -0.42525,-1.70097c1.00824,-2.09535 2.24796,-3.82547 3.8272,-5.52816c0.28121,0 0.5607,0 0.85048,0c0.14404,-0.35666 0.14404,-0.35666 0.29321,-0.71846c0.7116,-1.25687 1.65124,-2.10221 2.68349,-3.11044c0.30694,-0.39439 0.61386,-0.78876 0.92936,-1.19514c0.25549,-0.30694 0.50927,-0.61386 0.77162,-0.93107c0.28121,0 0.5607,0 0.85048,0c0.14404,-0.34123 0.14404,-0.34123 0.29151,-0.69101c1.22428,-2.21367 3.03844,-3.91465 4.81143,-5.68763c0.78019,-0.90536 1.55179,-1.81414 2.31655,-2.7315c0.21776,-0.22119 0.43553,-0.44239 0.66015,-0.67044c0.27949,0 0.5607,0 0.85048,0c0.09602,-0.30694 0.19204,-0.61386 0.29151,-0.92936c0.67731,-1.45234 1.52608,-2.21537 2.68521,-3.32307c0.52813,-0.56927 1.05111,-1.14713 1.56722,-1.72669c0.24692,-0.27778 0.49554,-0.55384 0.74933,-0.84021c0.64472,-0.81619 1.05281,-1.60838 1.51065,-2.53603c0.69788,-0.71846 1.40777,-1.42662 2.12622,-2.12622c1.42834,-1.59295 1.42834,-1.59295 2.55147,-3.40195c0.27949,0 0.5607,0 0.85048,0c0.10802,-0.31035 0.21776,-0.619 0.32921,-0.93966c0.54356,-1.24144 1.18142,-2.13135 2.03533,-3.18075c1.04768,-1.27573 1.04768,-1.27573 1.88616,-2.68349c0.28121,0 0.56242,0 0.85048,0c0.11488,-0.30694 0.22806,-0.61386 0.34637,-0.93107c0.50411,-1.19514 1.04768,-2.2531 1.77985,-3.32136c0.28121,0 0.56242,0 0.85048,0c0.04116,-0.24176 0.08231,-0.48354 0.12345,-0.73389c0.37037,-1.18828 0.94823,-1.89473 1.73698,-2.85496c1.05625,-1.31516 1.95989,-2.61319 2.81723,-4.06725c0.61386,-0.83678 1.23972,-1.66153 1.87244,-2.48288c0.83505,-1.12999 1.60324,-2.29941 2.38,-3.47054c0.71846,-1.05111 1.4472,-2.09535 2.17937,-3.13617c0.18862,-0.27264 0.37552,-0.54527 0.56927,-0.82476c0.48011,-0.68074 0.98938,-1.33918 1.50379,-1.99247c0.28121,0 0.56242,0 0.85048,0c0.16633,-0.37209 0.16633,-0.37209 0.3378,-0.75103c2.48459,-4.60052 8.08991,-7.35087 12.75216,-9.20276c1.05625,-0.28292 1.98047,-0.29835 3.0693,-0.25206c0.14061,-0.28121 0.28121,-0.56242 0.42525,-0.85048c0.74417,-0.14574 0.74417,-0.14574 1.70097,-0.21262c6.15745,-0.59329 10.26414,-2.85496 14.45828,-7.44176c0.23663,-0.22292 0.47325,-0.44411 0.71674,-0.67388c0.66701,-0.63615 0.66701,-0.63615 0.98252,-1.87759c0.30694,-0.21949 0.61558,-0.43896 0.93107,-0.66531c1.38548,-1.20028 2.04563,-2.40229 2.94584,-3.98151c1.18828,-1.93761 2.54803,-3.73975 3.90779,-5.55903c1.08883,-1.43177 1.08883,-1.43177 1.9959,-2.97842c0.28121,0 0.56242,0 0.85048,0c0.16804,-0.46297 0.16804,-0.46297 0.33951,-0.93623c0.51955,-1.20714 1.12313,-2.14851 1.89302,-3.20991c1.01168,-1.40605 1.98561,-2.82238 2.92354,-4.27816c0.98423,-1.48663 2.0542,-2.67492 3.34879,-3.90779c0.7819,-0.90364 1.55179,-1.81414 2.31655,-2.73321c0.21776,-0.21949 0.43553,-0.44068 0.66015,-0.66874c0.28121,0 0.5607,0 0.85048,0c0,-0.28121 0,-0.5607 0,-0.85048c0.28121,0 0.5607,0 0.85048,0c0.28121,-0.5607 0.5607,-1.12313 0.85048,-1.70097c0.28121,0 0.5607,0 0.85048,0c0.13204,-0.36866 0.13204,-0.36866 0.26578,-0.74417c0.80248,-1.31346 1.84157,-1.83643 3.13617,-2.65778c0.86764,-0.68931 1.70612,-1.40948 2.55147,-2.12622c4.37247,-3.56485 9.95206,-5.68249 15.30876,-7.22913c0.44582,-0.15604 0.89335,-0.31208 1.35461,-0.47154c2.23596,-0.52298 4.38274,-0.51955 6.67015,-0.5127z" fill="#edf6fb"/><path d="M148.20384,116.03601c0.44068,-0.00686 0.88307,-0.01372 1.33746,-0.02057c2.80352,-0.00171 5.05148,0.37723 7.64409,1.42834c0.46297,0.16461 0.92593,0.32921 1.40261,0.50068c3.18419,1.20028 6.20547,2.6029 9.22503,4.17355c0.30178,0.13888 0.60356,0.27778 0.91393,0.4201c0.86421,0.47325 1.36489,1.00995 2.06106,1.70612c1.22601,0.88821 2.46402,1.75585 3.7123,2.6149c1.61524,1.12999 3.00242,2.32169 4.36561,3.76032c0.33265,0.33265 0.66531,0.66531 1.00995,1.00824c2.6029,2.6029 2.6029,2.6029 3.36252,3.36593c0.45954,0.45611 0.9225,0.9105 1.39061,1.35803c0.50241,0.48182 0.98595,0.98595 1.46263,1.49179c0,0.28121 0,0.5607 0,0.85048c0.28121,0 0.56242,0 0.85048,0c0.42868,0.70645 0.85391,1.41462 1.27573,2.12451c0.42182,0.28121 0.84191,0.5607 1.27573,0.85048c0.43039,0.70474 0.85391,1.41291 1.27573,2.12451c0.50755,0.60356 1.01509,1.20714 1.53122,1.80385c0.95336,1.19858 1.75755,2.49145 2.5789,3.78261c0.5127,0.84534 0.5127,0.84534 1.41634,1.21401c0.38237,0.67558 0.76303,1.35461 1.13856,2.03533c0.91736,1.53636 1.99418,2.9527 3.05901,4.39133c0.57443,0.77846 1.14199,1.56208 1.70097,2.35255c1.86559,2.63892 3.88206,5.09091 6.02543,7.5052c0.95336,1.08197 1.64267,1.88273 2.10392,3.26477c0.28121,0 0.56242,0 0.85048,0c0,0.28121 0,0.5607 0,0.85048c0.23149,0.10117 0.46297,0.20406 0.70303,0.30864c1.23972,0.67215 2.26168,1.5175 3.36252,2.40057c3.77575,2.91154 7.93045,3.88549 12.51382,4.94003c0.14061,-0.27949 0.28121,-0.5607 0.42525,-0.85048c0.70131,0.14061 1.40261,0.28121 2.12622,0.42525c0,0.28121 0,0.5607 0,0.85048c0.27949,0 0.5607,0 0.85048,0c0.13888,-0.28121 0.27949,-0.5607 0.42353,-0.85048c0.28121,0 0.56242,0 0.85048,0c0,0.28121 0,0.5607 0,0.85048c0.49041,0.03772 0.9808,0.07373 1.48663,0.11317c2.00447,0.25206 3.56999,0.97052 5.34297,1.90502c0.28292,0.14231 0.56756,0.28464 0.86078,0.4321c2.84468,1.4592 5.23667,3.04529 7.1897,5.62418c0.4201,0.28121 0.84191,0.5607 1.27401,0.85048c0,0.28121 0,0.5607 0,0.85048c0.42182,0.13888 0.84191,0.27949 1.27573,0.42525c0,0.4201 0,0.84021 0,1.27401c0.28121,0 0.56242,0 0.85048,0c0,0.28121 0,0.5607 0,0.85048c0.28121,0 0.5607,0 0.85048,0c0.52127,0.67215 0.52127,0.67215 1.11626,1.62038c0.98766,1.53636 2.0199,3.01958 3.10874,4.48906c1.94102,2.64748 3.74316,5.38413 5.37213,8.23737c0.52298,1.00138 0.52298,1.00138 1.45577,1.37689c0.30351,0.51098 0.58299,1.03738 0.85048,1.56722c1.42491,2.64062 3.20305,5.01719 4.96746,7.43662c0.53156,0.7356 1.05281,1.47636 1.57065,2.22224c2.64235,3.79804 5.5333,7.3526 8.50316,10.89858c1.24487,1.4935 2.46058,3.00929 3.67801,4.52507c0.93623,1.09226 1.93932,2.08849 2.96127,3.10017c0.77503,0.82819 1.54665,1.65983 2.31141,2.49659c0.30864,0.33608 0.30864,0.33608 0.62243,0.67731c1.0854,1.18828 2.14679,2.39027 3.17732,3.62657c1.00995,1.15399 2.04734,2.02677 3.24077,2.97499c0,0.27949 0,0.5607 0,0.85048c0.28121,0 0.56242,0 0.85048,0c0.84362,0.77676 1.23628,1.39405 1.38718,2.53946c0.02229,0.91221 0.02229,0.91221 -0.11145,2.56003c-0.85048,0.85048 -0.85048,0.85048 -2.0062,1.05797c-1.92731,-0.28807 -2.85152,-1.33746 -4.14269,-2.69207c-0.25378,-0.25549 -0.50755,-0.5127 -0.76819,-0.77503c-0.80933,-0.82134 -1.60838,-1.64953 -2.40914,-2.47945c-0.53498,-0.54356 -1.07168,-1.08883 -1.6101,-1.63238c-2.53088,-2.57376 -5.01033,-5.17323 -7.34403,-7.92873c-0.40809,-0.46639 -0.81619,-0.93107 -1.22601,-1.39575c-2.93897,-3.36252 -5.66363,-6.84505 -8.30596,-10.4459c-0.68588,-0.92936 -1.38032,-1.85359 -2.07478,-2.77609c-3.05729,-4.0741 -5.93798,-8.24251 -8.74835,-12.49153c-6.16088,-9.52168 -6.16088,-9.52168 -13.22884,-18.36606c-0.32751,-0.36694 -0.65672,-0.73389 -0.99452,-1.11283c-4.26272,-4.53194 -8.59917,-6.81247 -14.73433,-7.12111c-9.30048,-0.57099 -16.0255,-4.36904 -22.53104,-10.89c-0.29835,-0.27264 -0.59672,-0.54527 -0.90364,-0.82648c-4.68625,-4.35361 -8.23737,-10.05151 -11.86566,-15.27447c-10.25728,-14.76349 -22.53275,-30.54209 -40.83366,-35.026c-7.07652,-1.26544 -13.39517,0.30351 -19.72923,3.52712c-0.27264,0.13547 -0.54527,0.27264 -0.82648,0.41153c-1.26887,0.69274 -1.86216,1.05968 -2.32169,2.45715c-0.01372,0.31551 -0.02743,0.63101 -0.04116,0.9568c0.30007,0.11317 0.59843,0.22806 0.90707,0.34465c2.58404,1.02538 5.02748,2.17937 7.43662,3.55969c0.38409,0.21949 0.38409,0.21949 0.77676,0.44411c1.04254,0.60872 1.92559,1.16942 2.78294,2.02677c0.33437,0.10459 0.66701,0.20919 1.00995,0.31894c1.60324,0.76303 2.05592,1.47293 2.81723,3.0813c0.76133,4.49078 -0.94136,9.27991 -2.3817,13.49633c-2.37657,6.81933 -2.37657,6.81933 -1.25858,13.8084c1.06311,1.77985 2.5446,3.23391 3.95579,4.73941c2.96642,3.41395 4.15127,6.48325 4.10496,10.97745c-0.66874,6.31349 -6.2089,10.93802 -10.79741,14.77721c-1.58781,1.25858 -3.19619,2.49145 -4.81313,3.71059c-3.43967,2.59604 -6.82276,5.23324 -10.11496,8.01275c-0.77846,0.64987 -1.56379,1.29116 -2.36113,1.91875c-1.78328,1.40605 -3.47567,2.83952 -5.05834,4.47019c-0.26749,0.27606 -0.5367,0.55213 -0.81276,0.83505c-0.51611,0.53841 -1.02711,1.08197 -1.53293,1.63067c-4.13755,4.32788 -9.79775,6.71302 -15.13558,9.22503c-10.39275,4.46335 -10.39275,4.46335 -17.56187,12.69557c-0.42868,2.48288 -0.35494,4.63996 0.5847,6.98566c4.64853,4.53878 11.29295,5.65162 17.4487,6.81933c10.06695,1.93588 19.72238,5.37726 27.87917,11.69419c0.52984,0.35666 1.0614,0.7116 1.59295,1.06311c1.73355,1.23287 3.00415,2.83952 4.35874,4.46335c0.49554,0.5487 0.99109,1.0974 1.48663,1.6461c7.0148,8.04704 7.0148,8.04704 7.0148,11.52787c-32.23619,0.1749 -63.76936,-1.28944 -95.65062,-6.37522c-0.46639,-0.07373 -0.9345,-0.14747 -1.41634,-0.22292c-2.39714,-0.3858 -4.73598,-0.84021 -7.08682,-1.45063c-0.58299,-0.14918 -1.16428,-0.30007 -1.74728,-0.44925c-0.28121,-0.07373 -0.5607,-0.14574 -0.85048,-0.22119c-1.14199,-0.29321 -2.28739,-0.56586 -3.43281,-0.84362c-4.06896,-1.02538 -7.94932,-2.19994 -11.71991,-4.05696c-0.97738,-0.48868 -0.97738,-0.48868 -2.2291,-0.40466c0,-0.28121 0,-0.5607 0,-0.85048c-0.37723,-0.11317 -0.75446,-0.22806 -1.14199,-0.34465c-1.32032,-0.47325 -2.392,-0.97395 -3.53398,-1.77985c0,-0.28121 0,-0.5607 0,-0.85048c-0.25035,-0.04629 -0.50068,-0.09431 -0.75789,-0.14231c-2.14165,-0.64129 -3.60257,-2.43486 -4.95546,-4.13412c-1.21571,-2.31825 -1.0974,-5.67734 -0.39266,-8.14992c0.04973,-0.24692 0.10117,-0.49384 0.15433,-0.7476c-0.54527,-0.72703 -1.11283,-1.4352 -1.70097,-2.12622c-0.42525,-0.79562 -0.42525,-0.79562 -0.42525,-1.69926c1.00824,-2.09365 2.24796,-3.82204 3.82547,-5.52473c0.28121,0 0.56242,0 0.85048,0c0.14574,-0.35494 0.14574,-0.35494 0.29321,-0.71674c0.71331,-1.25687 1.65124,-2.10221 2.68349,-3.10874c0.30694,-0.39439 0.61386,-0.78876 0.92936,-1.19514c0.25378,-0.30694 0.50927,-0.61386 0.77162,-0.92936c0.27949,0 0.5607,0 0.84878,0c0.14574,-0.34123 0.14574,-0.34123 0.29321,-0.69101c1.22258,-2.21196 3.03672,-3.91292 4.80799,-5.6842c0.78019,-0.90364 1.55179,-1.81414 2.31655,-2.7315c0.21776,-0.21949 0.43553,-0.44068 0.66015,-0.66874c0.28121,0 0.5607,0 0.85048,0c0.09602,-0.30694 0.19204,-0.61386 0.29151,-0.92936c0.67731,-1.45063 1.52436,-2.21367 2.68349,-3.31964c0.52984,-0.57099 1.05111,-1.14542 1.56895,-1.72669c0.24692,-0.27778 0.49384,-0.55384 0.7476,-0.83848c0.64472,-0.81619 1.05281,-1.60667 1.51065,-2.53603c0.69788,-0.71674 1.40777,-1.42491 2.12451,-2.12451c1.42834,-1.59124 1.42834,-1.59124 2.55147,-3.40022c0.27949,0 0.5607,0 0.85048,0c0.10802,-0.30864 0.21776,-0.619 0.32921,-0.93793c0.54356,-1.24144 1.18142,-2.12965 2.03533,-3.17903c1.04597,-1.27401 1.04597,-1.27401 1.88616,-2.68178c0.28121,0 0.5607,0 0.85048,0c0.11317,-0.30694 0.22806,-0.61386 0.34465,-0.92936c0.50411,-1.19514 1.04768,-2.25139 1.77985,-3.32136c0.28121,0 0.56242,0 0.85048,0c0.04116,-0.24176 0.08231,-0.48354 0.12345,-0.73217c0.37037,-1.18656 0.94823,-1.89473 1.73698,-2.85325c1.05625,-1.31516 1.95989,-2.61147 2.81552,-4.06382c0.61386,-0.83678 1.23972,-1.66153 1.87244,-2.48288c0.83505,-1.12826 1.60152,-2.29768 2.38,-3.4671c0.71674,-1.05111 1.44548,-2.09365 2.17766,-3.13446c0.18862,-0.27264 0.37723,-0.54527 0.56927,-0.82476c0.48011,-0.67901 0.98938,-1.33746 1.50379,-1.99076c0.28121,0 0.5607,0 0.85048,0c0.16633,-0.37209 0.16633,-0.37209 0.33608,-0.75103c2.48459,-4.59709 8.0882,-7.34574 12.74872,-9.1976c1.05625,-0.28121 1.98047,-0.29664 3.0693,-0.25206c0.14061,-0.27949 0.28121,-0.5607 0.42525,-0.84878c0.74417,-0.14747 0.74417,-0.14747 1.70097,-0.21262c6.15575,-0.59329 10.26071,-2.85496 14.45314,-7.43832c0.23663,-0.22119 0.47325,-0.44411 0.71674,-0.67215c0.66701,-0.63615 0.66701,-0.63615 0.98423,-1.87759c0.30694,-0.21949 0.61386,-0.43725 0.92936,-0.66358c1.38548,-1.20028 2.04563,-2.40057 2.94413,-3.9798c1.18828,-1.93588 2.54803,-3.73632 3.90779,-5.5556c1.08883,-1.43005 1.08883,-1.43005 1.9959,-2.97499c0.28121,0 0.5607,0 0.85048,0c0.16804,-0.46468 0.16804,-0.46468 0.3378,-0.93623c0.51955,-1.20714 1.12483,-2.14679 1.89302,-3.20819c1.01168,-1.40605 1.98561,-2.82066 2.92354,-4.27643c0.98423,-1.48493 2.05249,-2.67321 3.34708,-3.90435c0.7819,-0.90364 1.55179,-1.81414 2.31655,-2.7315c0.21776,-0.22119 0.43553,-0.44068 0.66015,-0.66874c0.27949,0 0.5607,0 0.85048,0c0,-0.28121 0,-0.5607 0,-0.85048c0.27949,0 0.5607,0 0.85048,0c0.27949,-0.5607 0.5607,-1.1214 0.84878,-1.69926c0.28121,0 0.56242,0 0.85048,0c0.13204,-0.36866 0.13204,-0.36866 0.26578,-0.74417c0.80248,-1.31173 1.84157,-1.83473 3.13617,-2.65605c0.86764,-0.68758 1.7044,-1.40777 2.54974,-2.12451c4.37074,-3.56312 9.94863,-5.67906 15.30362,-7.22572c0.44753,-0.15433 0.89507,-0.31035 1.35632,-0.47154c2.23424,-0.52127 4.38104,-0.51784 6.66843,-0.51098z" fill="#d1e7f3"/><path d="M148.20384,116.03601c0.44068,-0.00686 0.88307,-0.01372 1.33746,-0.02057c2.80352,-0.00171 5.05148,0.37723 7.64409,1.42834c0.46297,0.16633 0.92593,0.33094 1.40261,0.50068c3.18419,1.20199 6.20547,2.60462 9.22503,4.17698c0.30178,0.13888 0.60356,0.27778 0.91393,0.4201c0.86421,0.47325 1.36489,1.00824 2.06106,1.70612c1.22601,0.88821 2.46402,1.75585 3.7123,2.6149c1.61524,1.1317 3.00242,2.32341 4.36561,3.76203c0.33265,0.33265 0.66531,0.66701 1.00995,1.00995c2.6029,2.60462 2.6029,2.60462 3.36252,3.36593c0.45954,0.45782 0.9225,0.9105 1.39061,1.35803c0.50241,0.48354 0.98595,0.98766 1.46263,1.4935c0,0.28121 0,0.5607 0,0.85048c0.28121,0 0.56242,0 0.85048,0c0.42868,0.70645 0.85391,1.41634 1.27573,2.12622c0.42182,0.28121 0.84191,0.5607 1.27573,0.85048c0.43039,0.70474 0.85391,1.41462 1.27573,2.12622c0.50755,0.60356 1.01509,1.20714 1.53122,1.80385c0.95336,1.19858 1.75755,2.49145 2.5789,3.78432c0.5127,0.84534 0.5127,0.84534 1.41634,1.21401c0.38237,0.67731 0.76303,1.35461 1.13856,2.03533c0.91736,1.53808 1.99418,2.95441 3.05901,4.39304c0.57443,0.77846 1.14199,1.56379 1.70097,2.35598c1.86559,2.63892 3.88206,5.09264 6.02543,7.50691c0.95336,1.08197 1.64267,1.88273 2.10392,3.26648c0.28121,0 0.56242,0 0.85048,0c0,0.27949 0,0.5607 0,0.85048c0.23149,0.10117 0.46297,0.20233 0.70303,0.30864c1.23972,0.67215 2.26168,1.5175 3.36252,2.40057c3.77575,2.91327 7.93045,3.8872 12.51382,4.94346c0.14061,-0.28121 0.28121,-0.56242 0.42525,-0.85048c0.70131,0.14061 1.40261,0.27949 2.12622,0.42525c0,0.27949 0,0.5607 0,0.85048c0.27949,0 0.5607,0 0.85048,0c0.13888,-0.28121 0.27949,-0.56242 0.42353,-0.85048c0.28121,0 0.56242,0 0.85048,0c0,0.27949 0,0.5607 0,0.85048c0.49041,0.036 0.9808,0.07373 1.48663,0.11317c2.00447,0.25206 3.56999,0.97052 5.34297,1.90502c0.28292,0.14404 0.56756,0.28635 0.86078,0.4321c2.84468,1.46091 5.23667,3.04529 7.1897,5.62761c0.4201,0.27949 0.84191,0.5607 1.27401,0.85048c0,0.27949 0,0.5607 0,0.85048c0.42182,0.13888 0.84191,0.27949 1.27573,0.42525c0,0.4201 0,0.84021 0,1.27401c0.28121,0 0.56242,0 0.85048,0c0,0.28121 0,0.56242 0,0.85048c0.28121,0 0.5607,0 0.85048,0c0.52127,0.67388 0.52127,0.67388 1.11626,1.6221c0.98766,1.53636 2.0199,3.02129 3.10874,4.49078c1.94102,2.64919 3.74316,5.38585 5.37213,8.24081c0.52298,1.00138 0.52298,1.00138 1.45577,1.37861c0.30351,0.50927 0.58299,1.03568 0.85048,1.56722c1.42491,2.64235 3.20305,5.0189 4.96746,7.43832c0.53156,0.7356 1.05281,1.47806 1.57065,2.22396c2.64235,3.79975 5.5333,7.35603 8.50316,10.90372c1.24487,1.4935 2.46058,3.00929 3.67801,4.52507c0.93623,1.09397 1.93932,2.09021 2.96127,3.10187c0.77503,0.82991 1.54665,1.65983 2.31141,2.49831c0.30864,0.33608 0.30864,0.33608 0.62243,0.67731c1.0854,1.18828 2.14679,2.39027 3.17732,3.62828c1.00995,1.15399 2.04734,2.02677 3.24077,2.97499c0,0.28121 0,0.56242 0,0.85048c0.28121,0 0.56242,0 0.85048,0c0.84362,0.77846 1.23628,1.39575 1.38718,2.54117c0.02229,0.91393 0.02229,0.91393 -0.11145,2.56174c-0.85048,0.84878 -0.85048,0.84878 -2.0062,1.05797c-1.92731,-0.28807 -2.85152,-1.33746 -4.14269,-2.69378c-0.25378,-0.25549 -0.50755,-0.51098 -0.76819,-0.77503c-0.80933,-0.82134 -1.60838,-1.64953 -2.40914,-2.47945c-0.53498,-0.54527 -1.07168,-1.09054 -1.6101,-1.6341c-2.53088,-2.57376 -5.01033,-5.17493 -7.34403,-7.93216c-0.40809,-0.46468 -0.81619,-0.93107 -1.22601,-1.39405c-2.93897,-3.36593 -5.66363,-6.85019 -8.30596,-10.45104c-0.68588,-0.93107 -1.38032,-1.8553 -2.07478,-2.7778c-3.05729,-4.07582 -5.93798,-8.24594 -8.74835,-12.49667c-6.16088,-9.52511 -6.16088,-9.52511 -13.22884,-18.37291c-0.32751,-0.36694 -0.65672,-0.7356 -0.99452,-1.11456c-4.26272,-4.53194 -8.59917,-6.81419 -14.73433,-7.12283c-9.30048,-0.57099 -16.0255,-4.37074 -22.53104,-10.89515c-0.29835,-0.27264 -0.59672,-0.54527 -0.90364,-0.82648c-4.68625,-4.35531 -8.23737,-10.05495 -11.86566,-15.28133c-10.25728,-14.76863 -22.53275,-30.55409 -40.83366,-35.03971c-8.57002,-1.53122 -16.50904,1.1094 -23.57529,5.97569c-0.93966,0.71846 -1.84157,1.46606 -2.7435,2.23082c-0.37037,0.29321 -0.74074,0.5847 -1.1214,0.8865c-5.32411,4.23357 -9.31591,8.97984 -13.33344,14.41884c-0.45096,0.60529 -0.45096,0.60529 -0.91221,1.22085c-1.53122,2.06963 -2.98699,4.18557 -4.43247,6.31349c-14.38798,21.18672 -14.38798,21.18672 -26.96351,23.92852c-0.92936,0.14061 -1.85873,0.27264 -2.7898,0.3978c-4.38447,0.64472 -7.5052,2.20167 -10.81456,5.12864c-0.29492,0.25549 -0.58986,0.51098 -0.89507,0.77503c-3.06244,2.84468 -5.36526,6.28949 -7.7504,9.69658c-0.68245,0.97566 -1.37004,1.94618 -2.05935,2.9167c-1.88959,2.66292 -3.76203,5.33613 -5.60875,8.0299c-3.98494,5.76993 -8.20308,11.37697 -12.59269,16.84684c-0.21433,0.26749 -0.42868,0.53498 -0.64987,0.81105c-4.85772,6.0683 -9.91434,11.90681 -15.2556,17.55329c-1.37518,1.45577 -2.7298,2.92697 -4.07582,4.40847c-1.44206,1.58095 -2.90811,3.11731 -4.44106,4.60909c-0.93623,0.96366 -1.76614,2.0062 -2.5909,3.06758c-0.75789,0.71674 -1.2963,0.87107 -2.31998,1.01338c-0.90364,-0.24006 -0.90364,-0.24006 -1.70097,-0.85048c-0.63786,-1.1437 -0.63786,-1.1437 -0.85048,-2.55147c0.9465,-2.11935 2.25139,-3.82891 3.82547,-5.52646c0.28121,0 0.56242,0 0.85048,0c0.14574,-0.35666 0.14574,-0.35666 0.29321,-0.71846c0.71331,-1.25515 1.65124,-2.10221 2.68349,-3.10874c0.30694,-0.39439 0.61386,-0.78876 0.92936,-1.19514c0.25378,-0.30694 0.50927,-0.61386 0.77162,-0.93107c0.27949,0 0.5607,0 0.84878,0c0.14574,-0.34123 0.14574,-0.34123 0.29321,-0.69101c1.22258,-2.21196 3.03672,-3.91292 4.80799,-5.68591c0.78019,-0.90536 1.55179,-1.81414 2.31655,-2.7315c0.21776,-0.22119 0.43553,-0.44239 0.66015,-0.67044c0.28121,0 0.5607,0 0.85048,0c0.09602,-0.30694 0.19204,-0.61386 0.29151,-0.92936c0.67731,-1.45234 1.52436,-2.21367 2.68349,-3.32136c0.52984,-0.57099 1.05111,-1.14713 1.56895,-1.72841c0.24692,-0.27606 0.49384,-0.55213 0.7476,-0.83848c0.64472,-0.81619 1.05281,-1.60667 1.51065,-2.53603c0.69788,-0.71674 1.40777,-1.42491 2.12451,-2.12451c1.42834,-1.59295 1.42834,-1.59295 2.55147,-3.40195c0.27949,0 0.5607,0 0.85048,0c0.10802,-0.31035 0.21776,-0.619 0.32921,-0.93793c0.54356,-1.24315 1.18142,-2.13135 2.03533,-3.18075c1.04597,-1.27573 1.04597,-1.27573 1.88616,-2.68349c0.28121,0 0.5607,0 0.85048,0c0.11317,-0.30694 0.22806,-0.61386 0.34465,-0.93107c0.50411,-1.19514 1.04768,-2.25139 1.77985,-3.32136c0.28121,0 0.56242,0 0.85048,0c0.04116,-0.24176 0.08231,-0.48354 0.12345,-0.73217c0.37037,-1.18828 0.94823,-1.89473 1.73698,-2.85496c1.05625,-1.31516 1.95989,-2.61147 2.81552,-4.06553c0.61386,-0.83678 1.23972,-1.66153 1.87244,-2.48288c0.83505,-1.12999 1.60152,-2.29941 2.38,-3.46881c0.71674,-1.05111 1.44548,-2.09535 2.17766,-3.13617c0.18862,-0.27264 0.37723,-0.54527 0.56927,-0.82476c0.48011,-0.68074 0.98938,-1.33746 1.50379,-1.99247c0.28121,0 0.5607,0 0.85048,0c0.16633,-0.37037 0.16633,-0.37037 0.33608,-0.75103c2.48459,-4.5988 8.0882,-7.34746 12.74872,-9.19932c1.05625,-0.28292 1.98047,-0.29835 3.0693,-0.25378c0.14061,-0.27949 0.28121,-0.5607 0.42525,-0.84878c0.74417,-0.14747 0.74417,-0.14747 1.70097,-0.21262c6.15575,-0.59329 10.26071,-2.85496 14.45314,-7.44176c0.23663,-0.22119 0.47325,-0.44411 0.71674,-0.67215c0.66701,-0.63786 0.66701,-0.63786 0.98423,-1.87759c0.30694,-0.21949 0.61386,-0.43896 0.92936,-0.66531c1.38548,-1.20028 2.04563,-2.40229 2.94413,-3.9798c1.18828,-1.93761 2.54803,-3.73975 3.90779,-5.55903c1.08883,-1.43005 1.08883,-1.43005 1.9959,-2.9767c0.28121,0 0.5607,0 0.85048,0c0.16804,-0.46297 0.16804,-0.46297 0.3378,-0.93623c0.51955,-1.20714 1.12483,-2.14851 1.89302,-3.20819c1.01168,-1.40777 1.98561,-2.82409 2.92354,-4.27816c0.98423,-1.48663 2.05249,-2.67492 3.34708,-3.90779c0.7819,-0.90193 1.55179,-1.81414 2.31655,-2.7315c0.21776,-0.22119 0.43553,-0.44068 0.66015,-0.66874c0.27949,0 0.5607,0 0.85048,0c0,-0.28121 0,-0.5607 0,-0.85048c0.27949,0 0.5607,0 0.85048,0c0.27949,-0.5607 0.5607,-1.12313 0.84878,-1.70097c0.28121,0 0.56242,0 0.85048,0c0.13204,-0.36866 0.13204,-0.36866 0.26578,-0.74417c0.80248,-1.31346 1.84157,-1.83643 3.13617,-2.65778c0.86764,-0.68758 1.7044,-1.40777 2.54974,-2.12451c4.37074,-3.56485 9.94863,-5.68077 15.30362,-7.22742c0.44753,-0.15604 0.89507,-0.31208 1.35632,-0.47325c2.23424,-0.52127 4.38104,-0.51784 6.66843,-0.51098z" fill="#203f62"/><path d="M160.94227,142.93951c2.33541,0.28292 3.14132,1.27916 4.6108,3.02299c1.60324,2.15194 2.92527,4.45649 4.25929,6.7816c0.49211,0.84705 0.99966,1.68212 1.51236,2.51545c5.57789,9.06729 5.57789,9.06729 4.94003,13.24427c-0.42696,1.51922 -0.42696,1.51922 -0.85221,2.5566c-1.51579,-1.34089 -2.34227,-2.80009 -3.19105,-4.60566c-0.29664,-0.61215 -0.59329,-1.22258 -0.89164,-1.833c-0.16118,-0.33265 -0.32408,-0.66358 -0.49041,-1.00652c-0.99623,-2.0079 -2.04563,-3.99008 -3.08644,-5.97569c-3.12587,-5.98085 -3.12587,-5.98085 -4.52335,-8.73464c-0.13547,-0.26235 -0.27092,-0.5247 -0.40982,-0.7939c-0.85564,-1.69926 -1.40605,-3.3385 -1.87759,-5.1715z" fill="#e3f2f8"/><path d="M191.21001,231.84967c4.67596,-0.63786 8.75178,2.89783 12.28577,5.55903c0.46639,0.41323 0.46639,0.41323 0.94136,0.83334c0,0.28121 0,0.56242 0,0.85221c0.24692,0.10631 0.49554,0.21262 0.75103,0.32064c1.09054,0.607 1.75585,1.27744 2.58233,2.21023c0.26578,0.29321 0.53327,0.58643 0.80762,0.88993c0.27264,0.41666 0.27264,0.41666 0.55213,0.84021c-0.2109,0.63272 -0.2109,0.63272 -0.42696,1.27916c-0.42525,-0.31721 -0.84878,-0.63444 -1.28603,-0.96193c-1.59295,-1.13683 -3.24248,-1.98733 -5.0069,-2.82066c-4.29359,-2.09192 -8.13792,-4.43762 -11.62732,-7.72469c0.14061,-0.42182 0.28121,-0.84362 0.42696,-1.27744z" fill="#fcfefe"/><path d="M110.79786,249.78019c0.44239,0 0.88307,0 1.33746,0c0.14747,0.54356 0.29492,1.08711 0.44582,1.6461c-0.58813,0.13547 -1.17628,0.27092 -1.78328,0.41153c-0.14574,-0.40809 -0.29321,-0.81448 -0.44582,-1.23458c0.14747,-0.27092 0.29492,-0.54356 0.44582,-0.82305z" fill="#f6fefe"/></g><g><path d="M323.79841,59.97635c0.42221,-0.00975 0.84278,-0.01951 1.27644,-0.02924c2.67724,-0.00243 4.82264,0.53627 7.29698,2.03297c0.44185,0.234 0.88532,0.46802 1.34027,0.70935c3.04054,1.71122 5.92398,3.70519 8.80579,5.9405c0.28801,0.19744 0.57603,0.39245 0.87386,0.59721c0.82478,0.67278 1.30262,1.43333 1.96703,2.42544c1.17007,1.26269 2.3516,2.49856 3.54293,3.71983c1.54155,1.60883 2.86708,3.30054 4.16806,5.34814c0.31747,0.47289 0.63658,0.94823 0.96388,1.43576c2.48579,3.70276 2.48579,3.70276 3.21073,4.7875c0.43858,0.64841 0.88041,1.29439 1.32717,1.93059c0.47948,0.68741 0.94097,1.40164 1.39753,2.12317c0,0.39977 0,0.7971 0,1.20905c0.26674,0 0.53512,0 0.81168,0c0.40748,1.00429 0.81332,2.01349 1.21753,3.02266c0.40093,0.39977 0.8035,0.79954 1.21753,1.20905c0.41075,1.00429 0.81495,2.01103 1.21753,3.02265c0.48439,0.86049 0.96878,1.71852 1.46136,2.56683c0.91151,1.70391 1.67901,3.54429 2.46124,5.37983c0.49094,1.20175 0.49094,1.20176 1.35335,1.72585c0.36492,0.96287 0.72822,1.92815 1.08661,2.8959c0.87714,2.18656 1.90484,4.20247 2.91945,6.24764c0.54985,1.10668 1.09152,2.22311 1.62336,3.34687c1.7821,3.75394 3.70658,7.24218 5.75379,10.67679c0.90987,1.53814 1.56772,2.67651 2.00793,4.64368c0.26838,0 0.53676,0 0.81168,0c0,0.39977 0,0.7971 0,1.20905c0.22092,0.14383 0.44348,0.29009 0.67095,0.43877c1.1848,0.95799 2.15849,2.15974 3.21073,3.41513c3.60511,4.14153 7.5719,5.52609 11.94615,7.02768c0.13419,-0.39977 0.26838,-0.7971 0.40585,-1.20905c0.66931,0.19989 1.33862,0.39978 2.02921,0.60454c0,0.39977 0,0.7971 0,1.20905c0.26838,0 0.53512,0 0.81168,0c0.13419,-0.39977 0.26838,-0.7971 0.40585,-1.20905c0.26838,0 0.53512,0 0.81168,0c0,0.39977 0,0.7971 0,1.20905c0.46803,0.05363 0.93605,0.10726 1.41881,0.16089c1.91302,0.35832 3.40711,1.38213 5.0992,2.71063c0.27166,0.20232 0.5433,0.40465 0.82314,0.61427c2.71652,2.07685 4.99776,4.33167 6.86332,8.00029c0.40093,0.39977 0.8035,0.79954 1.21753,1.20905c0,0.39977 0,0.79955 0,1.20906c0.40093,0.19989 0.8035,0.39978 1.21753,0.60454c0,0.59966 0,1.19688 0,1.8136c0.26674,0 0.53512,0 0.81168,0c0,0.39977 0,0.79954 0,1.20905c0.26674,0 0.53512,0 0.81168,0c0.49749,0.95799 0.49748,0.95799 1.0637,2.306c0.94424,2.18656 1.92939,4.29753 2.96853,6.38416c1.85411,3.76857 3.57403,7.66147 5.12867,11.72011c0.49911,1.42601 0.49912,1.42601 1.38936,1.95986c0.29129,0.72641 0.55802,1.47233 0.81168,2.22798c1.36153,3.75639 3.05854,7.13738 4.7441,10.57687c0.50731,1.04574 1.00478,2.10124 1.49736,3.16403c2.52342,5.40177 5.28412,10.45985 8.11848,15.50329c1.18807,2.12317 2.34832,4.28046 3.51185,6.43533c0.89186,1.55278 1.85084,2.97148 2.82617,4.40966c0.73967,1.17982 1.47609,2.36205 2.20595,3.55162c0.29456,0.47777 0.29456,0.47777 0.59403,0.9653c1.03588,1.68928 2.05049,3.39804 3.03399,5.15801c0.96387,1.64053 1.95393,2.88127 3.09455,4.23171c0,0.39733 0,0.79711 0,1.20906c0.26674,0 0.53512,0 0.81168,0c1.12589,2.02324 1.6021,3.24936 1.74937,5.89418c-0.12601,1.96473 -0.12601,1.96473 -0.53185,3.17378c-0.19638,1.80142 -0.36492,3.60526 -0.53021,5.41398c-0.72822,4.75093 -3.25002,8.17581 -5.86998,10.84499c-33.06304,29.62936 -85.08938,25.64383 -122.24847,27.26728c-0.44348,0.02194 -0.88696,0.04145 -1.34517,0.06094c-12.28491,0.54116 -24.52072,0.60942 -36.80236,-0.06094c-0.50894,-0.02681 -1.01788,-0.05363 -1.54155,-0.08044c-14.22902,-0.76053 -28.43513,-1.62102 -42.5905,-3.99771c-0.9066,-0.15113 -1.8132,-0.29982 -2.71817,-0.44853c-8.36067,-1.37483 -16.67553,-3.17136 -24.9822,-5.14582c-0.44511,-0.10481 -0.89186,-0.20965 -1.35007,-0.31691c-2.28941,-0.54846 -4.52155,-1.19687 -6.76513,-2.06223c-0.5564,-0.21452 -1.11442,-0.42659 -1.67083,-0.64109c-0.26674,-0.10238 -0.53512,-0.20719 -0.81005,-0.31445c-1.08989,-0.41684 -2.18468,-0.80443 -3.27782,-1.1993c-3.88332,-1.4577 -7.58826,-3.12991 -11.18847,-5.7723c-0.93279,-0.69229 -0.93279,-0.69229 -2.1274,-0.57528c0,-0.39977 0,-0.79711 0,-1.20906c-0.36002,-0.16089 -0.72004,-0.32421 -1.09152,-0.48995c-1.25844,-0.67278 -2.28122,-1.38458 -3.37275,-2.5327c0,-0.39977 0,-0.79711 0,-1.20906c-0.23893,-0.06581 -0.47784,-0.13407 -0.72332,-0.20231c-2.04558,-0.91167 -3.43821,-3.46388 -4.72937,-5.88199c-1.1619,-3.29566 -1.04734,-8.07585 -0.3764,-11.59091c0.0491,-0.35345 0.09656,-0.70447 0.14729,-1.06525c-0.52039,-1.03355 -1.06206,-2.0403 -1.62336,-3.02265c-0.40585,-1.13349 -0.40585,-1.13349 -0.40585,-2.41812c0.96224,-2.97878 2.1454,-5.43834 3.65259,-7.85891c0.26838,0 0.53512,0 0.81168,0c0.13746,-0.50703 0.13747,-0.50703 0.27984,-1.02137c0.67913,-1.78678 1.5759,-2.98853 2.56105,-4.42185c0.29293,-0.56066 0.58585,-1.1213 0.88696,-1.69903c0.24383,-0.43634 0.48604,-0.87267 0.73642,-1.32363c0.26838,0 0.53512,0 0.81168,0c0.13746,-0.4851 0.13746,-0.4851 0.27821,-0.98236c1.16843,-3.14697 2.89981,-5.56511 4.59191,-8.0856c0.74459,-1.28708 1.481,-2.579 2.21086,-3.88314c0.20783,-0.31445 0.41565,-0.62891 0.63003,-0.95311c0.26674,0 0.53512,0 0.81168,0c0.09164,-0.43634 0.18328,-0.87267 0.27821,-1.3212c0.6464,-2.06466 1.45646,-3.1494 2.5627,-4.72411c0.50403,-0.80928 1.00315,-1.63077 1.49572,-2.45468c0.23565,-0.3949 0.47294,-0.78735 0.71514,-1.19445c0.61531,-1.16031 1.00478,-2.28649 1.44173,-3.60526c0.66604,-1.02137 1.34354,-2.02809 2.02921,-3.02265c1.36317,-2.26455 1.36317,-2.26456 2.43506,-4.83625c0.26674,0 0.53512,0 0.81168,0c0.10309,-0.4412 0.20783,-0.87997 0.31419,-1.33583c0.51876,-1.76485 1.12752,-3.02996 1.94247,-4.5218c0.99988,-1.8136 0.99988,-1.81359 1.80011,-3.81488c0.26838,0 0.53676,0 0.81168,0c0.10964,-0.43634 0.21765,-0.87267 0.33057,-1.32363c0.48112,-1.69903 0.99988,-3.20303 1.69864,-4.72169c0.26838,0 0.53676,0 0.81168,0c0.03928,-0.3437 0.07855,-0.68741 0.11782,-1.04331c0.35347,-1.68928 0.90497,-2.69357 1.65774,-4.05864c1.00805,-1.86965 1.87047,-3.71494 2.6887,-5.78206c0.58585,-1.18957 1.18315,-2.36206 1.78701,-3.52969c0.79695,-1.60641 1.53009,-3.26886 2.27141,-4.93376c0.68568,-1.49426 1.38118,-2.97878 2.07994,-4.45841c0.18002,-0.3876 0.35839,-0.77516 0.5433,-1.17249c0.45821,-0.96775 0.94425,-1.90379 1.43518,-2.83252c0.26838,0 0.53676,0 0.81168,0c0.15874,-0.52897 0.15874,-0.52897 0.32239,-1.06768c2.37123,-6.54016 7.72081,-10.45009 12.17035,-13.08275c1.00805,-0.4022 1.89012,-0.42414 2.92927,-0.35832c0.13419,-0.39977 0.26838,-0.79955 0.40585,-1.20906c0.71022,-0.20719 0.71022,-0.20719 1.62336,-0.30227c5.87653,-0.84343 9.79585,-4.05864 13.79863,-10.57929c0.22583,-0.31691 0.45166,-0.63135 0.68404,-0.95799c0.63658,-0.90436 0.63658,-0.90436 0.93769,-2.66921c0.29293,-0.31202 0.58749,-0.62402 0.88859,-0.94581c1.32226,-1.70634 1.9523,-3.41513 2.81144,-5.66017c1.13407,-2.75453 2.43178,-5.31647 3.7295,-7.90278c1.03915,-2.03542 1.03915,-2.03543 1.90484,-4.23417c0.26838,0 0.53676,0 0.81168,0c0.16037,-0.65817 0.16037,-0.65817 0.32402,-1.33095c0.49584,-1.71609 1.07188,-3.05435 1.80665,-4.56325c0.96552,-1.99885 1.89502,-4.01234 2.79016,-6.08188c0.93932,-2.11342 1.96047,-3.80269 3.196,-5.55536c0.74622,-1.28463 1.481,-2.579 2.21086,-3.88556c0.20783,-0.31202 0.41565,-0.62648 0.63003,-0.95068c0.26838,0 0.53512,0 0.81168,0c0,-0.39977 0,-0.79711 0,-1.20906c0.26838,0 0.53512,0 0.81168,0c0.26838,-0.7971 0.53512,-1.59665 0.81168,-2.41811c0.26838,0 0.53512,0 0.81168,0c0.12601,-0.52409 0.12601,-0.5241 0.25365,-1.05793c0.76587,-1.86722 1.75755,-2.61069 2.99308,-3.77833c0.82805,-0.97992 1.62828,-2.00373 2.43506,-3.02265c4.17298,-5.06783 9.49801,-8.0783 14.61031,-10.27702c0.42548,-0.22183 0.85259,-0.44365 1.29281,-0.67035c2.13395,-0.74347 4.18278,-0.73859 6.36583,-0.72886z" fill="#edf6fb"/><path d="M323.76241,59.97635c0.42057,-0.00975 0.84278,-0.01951 1.27644,-0.02924c2.67561,-0.00243 4.82101,0.53627 7.29533,2.03054c0.44185,0.234 0.88369,0.46802 1.33862,0.71178c3.03891,1.70634 5.92236,3.70031 8.80415,5.93317c0.28801,0.19744 0.57602,0.3949 0.87223,0.59721c0.82478,0.67278 1.30262,1.43576 1.96703,2.42544c1.17007,1.26269 2.3516,2.49613 3.54293,3.71737c1.54155,1.60641 2.86544,3.30054 4.16643,5.34572c0.31747,0.47289 0.63496,0.9458 0.96388,1.43333c2.48415,3.70031 2.48414,3.70031 3.2091,4.78505c0.43858,0.64841 0.88041,1.29438 1.32717,1.93059c0.47948,0.68496 0.94097,1.40164 1.3959,2.12075c0,0.39977 0,0.79711 0,1.20906c0.26838,0 0.53676,0 0.81168,0c0.40912,1.00429 0.81495,2.01103 1.21753,3.02022c0.40257,0.39977 0.8035,0.79711 1.21753,1.20906c0.41075,1.00187 0.81495,2.00861 1.21753,3.02023c0.48439,0.85804 0.96878,1.71609 1.46136,2.56437c0.90987,1.70391 1.67736,3.54187 2.46124,5.3774c0.48931,1.20175 0.48931,1.20176 1.35172,1.72585c0.36492,0.96042 0.72822,1.92574 1.08661,2.89346c0.87551,2.18411 1.9032,4.19759 2.91945,6.24277c0.54822,1.10668 1.08989,2.22067 1.62336,3.34441c1.78047,3.75151 3.70494,7.23731 5.75053,10.66949c0.90987,1.53814 1.56772,2.67651 2.00793,4.64124c0.26838,0 0.53676,0 0.81168,0c0,0.39977 0,0.7971 0,1.20905c0.22092,0.14383 0.44185,0.29009 0.67095,0.43877c1.18315,0.95554 2.15849,2.15729 3.2091,3.41267c3.60349,4.13908 7.56864,5.52367 11.94289,7.02281c0.13419,-0.39733 0.26838,-0.79711 0.40585,-1.20906c0.66931,0.19989 1.33862,0.39978 2.02921,0.60454c0,0.39977 0,0.79711 0,1.20906c0.26674,0 0.53512,0 0.81168,0c0.13255,-0.39977 0.26674,-0.79711 0.4042,-1.20906c0.26838,0 0.53676,0 0.81168,0c0,0.39977 0,0.79711 0,1.20906c0.46803,0.05363 0.93605,0.1048 1.41881,0.16088c1.91302,0.35832 3.40711,1.37971 5.0992,2.70821c0.27001,0.20232 0.54167,0.40465 0.82151,0.61427c2.71489,2.07442 4.99775,4.32922 6.86167,7.99541c0.40093,0.39977 0.8035,0.7971 1.21588,1.20905c0,0.39977 0,0.79711 0,1.20906c0.40257,0.19744 0.8035,0.39733 1.21753,0.60454c0,0.59721 0,1.19445 0,1.81115c0.26838,0 0.53676,0 0.81168,0c0,0.39977 0,0.7971 0,1.20905c0.26838,0 0.53512,0 0.81168,0c0.49749,0.95554 0.49749,0.95554 1.06534,2.30355c0.9426,2.18411 1.92775,4.29266 2.9669,6.3817c1.85247,3.7637 3.57238,7.65415 5.12703,11.71035c0.49911,1.42357 0.49911,1.42357 1.38935,1.9574c0.28966,0.72641 0.5564,1.47476 0.81168,2.22799c1.3599,3.75394 3.05691,7.13249 4.74082,10.57198c0.50731,1.04574 1.00478,2.0988 1.499,3.15916c2.52179,5.39935 5.28085,10.45255 8.11521,15.49356c1.18807,2.12317 2.34832,4.27803 3.5102,6.4329c0.89351,1.55278 1.85084,2.96903 2.82617,4.40724c0.73967,1.17737 1.47609,2.35963 2.20595,3.54918c0.29456,0.47777 0.29456,0.47777 0.59403,0.96287c1.03588,1.68928 2.04884,3.39804 3.03236,5.15558c0.96387,1.64053 1.95393,2.88127 3.09291,4.22928c0,0.39733 0,0.79711 0,1.20906c0.26838,0 0.53676,0 0.81168,0c0.80513,1.10424 1.17988,1.98179 1.32389,3.61013c0.02128,1.29681 0.02128,1.2968 -0.10637,3.63937c-0.81168,1.20906 -0.81168,1.20906 -1.91466,1.50402c-1.83938,-0.40953 -2.72143,-1.90134 -3.95368,-3.82708c-0.2422,-0.36321 -0.48439,-0.72886 -0.73314,-1.1018c-0.7724,-1.16763 -1.53499,-2.34499 -2.29922,-3.52481c-0.51057,-0.77273 -1.02278,-1.5479 -1.53664,-2.32061c-2.41541,-3.65889 -4.78174,-7.35432 -7.00897,-11.27158c-0.38948,-0.66303 -0.77895,-1.32362 -1.17007,-1.98422c-2.80489,-4.78019 -5.40524,-9.73101 -7.92701,-14.85003c-0.65458,-1.3212 -1.31734,-2.63509 -1.98012,-3.94652c-2.9178,-5.79179 -5.66707,-11.71766 -8.34922,-17.75811c-5.8798,-13.53613 -5.8798,-13.53613 -12.62528,-26.10942c-0.31256,-0.52165 -0.62676,-1.04331 -0.94915,-1.58202c-4.06824,-6.44265 -8.20685,-9.68468 -14.0621,-10.12346c-8.87616,-0.81173 -15.29435,-6.21107 -21.50309,-15.48135c-0.28474,-0.3876 -0.5695,-0.77517 -0.86241,-1.17494c-4.47244,-6.18914 -7.86155,-14.28936 -11.3243,-21.71437c-9.7893,-20.98796 -21.50472,-43.419 -38.97066,-49.7934c-6.75367,-1.79897 -12.78403,0.43147 -18.8291,5.0142c-0.26021,0.19259 -0.52039,0.38759 -0.78877,0.58503c-1.21098,0.98481 -1.77721,1.50645 -2.21577,3.49312c-0.0131,0.44853 -0.02618,0.89705 -0.03928,1.36019c0.28638,0.16089 0.57112,0.32421 0.86569,0.48995c2.46614,1.4577 4.79811,3.09823 7.09733,5.06051c0.36657,0.31202 0.36657,0.31202 0.74132,0.63135c0.99498,0.86536 1.83774,1.66246 2.65597,2.88127c0.31911,0.14869 0.63658,0.29739 0.96388,0.45341c1.53009,1.08474 1.96212,2.09392 2.6887,4.38041c0.72659,6.38415 -0.89842,13.19244 -2.27304,19.18655c-2.26814,9.69444 -2.26814,9.69444 -1.20116,19.63019c1.01461,2.53025 2.42851,4.59737 3.77531,6.7376c2.83108,4.85331 3.96188,9.21668 3.91768,15.60568c-0.63822,8.97534 -5.92563,15.54961 -10.30479,21.00746c-1.51537,1.78921 -3.05037,3.54188 -4.59354,5.27503c-3.28274,3.69056 -6.51147,7.43965 -9.65348,11.39102c-0.74295,0.92387 -1.49244,1.83554 -2.25341,2.72771c-1.70192,1.99885 -3.3171,4.0367 -4.82756,6.35488c-0.25529,0.39245 -0.51221,0.78491 -0.77568,1.18712c-0.49257,0.76541 -0.98024,1.53814 -1.46299,2.31818c-3.94878,6.15257 -9.35074,9.54331 -14.44504,13.11442c-9.91859,6.34515 -9.91859,6.34515 -16.76063,18.04818c-0.40912,3.52969 -0.33874,6.59622 0.55803,9.93089c4.43644,6.45239 10.77773,8.03441 16.65262,9.69444c9.60765,2.75208 18.82257,7.64439 26.60721,16.6246c0.50567,0.50703 1.01297,1.01162 1.52027,1.51133c1.65446,1.75266 2.86709,4.0367 4.15988,6.34515c0.47294,0.78004 0.94587,1.56008 1.4188,2.34012c6.69476,11.43978 6.69476,11.43977 6.69476,16.38816c-30.76545,0.24864 -60.85995,-1.83308 -91.28665,-9.06308c-0.44511,-0.10481 -0.89187,-0.20964 -1.35172,-0.3169c-2.28777,-0.54846 -4.5199,-1.19445 -6.76349,-2.06224c-0.5564,-0.21207 -1.11116,-0.42659 -1.66756,-0.63866c-0.26838,-0.10481 -0.53512,-0.20719 -0.81168,-0.31445c-1.08989,-0.41684 -2.18303,-0.80443 -3.27619,-1.1993c-3.88332,-1.4577 -7.58664,-3.12746 -11.1852,-5.76742c-0.93279,-0.69472 -0.93279,-0.69472 -2.1274,-0.57528c0,-0.39977 0,-0.79711 0,-1.20906c-0.36002,-0.16089 -0.72004,-0.32421 -1.08989,-0.48995c-1.26008,-0.67278 -2.28286,-1.38458 -3.37275,-2.53025c0,-0.39977 0,-0.79711 0,-1.20906c-0.23893,-0.06581 -0.47784,-0.13408 -0.72332,-0.20232c-2.04393,-0.91167 -3.43821,-3.46142 -4.72937,-5.87711c-1.16025,-3.29566 -1.04734,-8.07098 -0.37475,-11.58603c0.04746,-0.35102 0.09656,-0.70204 0.14729,-1.0628c-0.52039,-1.03355 -1.06206,-2.04031 -1.62336,-3.02266c-0.40585,-1.13106 -0.40585,-1.13106 -0.40585,-2.41568c0.96224,-2.97635 2.1454,-5.43347 3.65094,-7.85403c0.26838,0 0.53676,0 0.81168,0c0.1391,-0.50459 0.13909,-0.50459 0.27983,-1.01893c0.68077,-1.78678 1.57591,-2.98853 2.56106,-4.41942c0.29293,-0.56066 0.58585,-1.12131 0.88696,-1.69903c0.2422,-0.43634 0.48604,-0.87266 0.73642,-1.32119c0.26674,0 0.53512,0 0.81005,0c0.1391,-0.4851 0.1391,-0.4851 0.27984,-0.98236c1.1668,-3.14455 2.89817,-5.56267 4.58863,-8.08074c0.74459,-1.28463 1.481,-2.579 2.21086,-3.88313c0.20783,-0.31202 0.41565,-0.62648 0.63003,-0.95069c0.26838,0 0.53512,0 0.81168,0c0.09164,-0.43634 0.18328,-0.87267 0.27821,-1.3212c0.6464,-2.06224 1.45481,-3.14697 2.56105,-4.71923c0.50567,-0.81173 1.00315,-1.62834 1.49736,-2.45468c0.23565,-0.3949 0.47131,-0.78735 0.7135,-1.192c0.61531,-1.16031 1.00478,-2.28405 1.44173,-3.60525c0.66604,-1.01893 1.34354,-2.02567 2.02758,-3.02023c1.36317,-2.26213 1.36317,-2.26213 2.43506,-4.8338c0.26674,0 0.53512,0 0.81168,0c0.10309,-0.43877 0.20783,-0.87998 0.31419,-1.33338c0.51876,-1.76485 1.12752,-3.02753 1.94247,-4.51935c0.99825,-1.81115 0.99825,-1.81114 1.80011,-3.81244c0.26838,0 0.53512,0 0.81168,0c0.10801,-0.43634 0.21765,-0.87267 0.32892,-1.3212c0.48112,-1.69903 0.99988,-3.2006 1.69865,-4.72169c0.26838,0 0.53676,0 0.81168,0c0.03928,-0.3437 0.07856,-0.68741 0.11782,-1.04086c0.35347,-1.68683 0.90496,-2.69357 1.65773,-4.05622c1.00805,-1.86965 1.87047,-3.71249 2.68707,-5.77718c0.58585,-1.18957 1.18315,-2.36206 1.78701,-3.52969c0.79695,-1.60396 1.52845,-3.26642 2.27141,-4.92888c0.68404,-1.49426 1.37953,-2.97635 2.07831,-4.45599c0.18002,-0.3876 0.36002,-0.77516 0.5433,-1.17249c0.45821,-0.9653 0.94425,-1.90134 1.43518,-2.83009c0.26838,0 0.53512,0 0.81168,0c0.15874,-0.52897 0.15875,-0.52897 0.32075,-1.06768c2.37123,-6.53529 7.71918,-10.44279 12.16708,-13.07542c1.00805,-0.39977 1.89011,-0.42171 2.92927,-0.35833c0.13419,-0.39733 0.26838,-0.7971 0.40585,-1.20663c0.71022,-0.20965 0.71022,-0.20965 1.62336,-0.30227c5.8749,-0.84343 9.79258,-4.05863 13.79373,-10.57441c0.22583,-0.31445 0.45166,-0.63136 0.68404,-0.95554c0.63658,-0.90436 0.63658,-0.90436 0.93932,-2.66921c0.29293,-0.31202 0.58585,-0.62159 0.88696,-0.94335c1.32226,-1.70634 1.9523,-3.41267 2.80981,-5.65774c1.13407,-2.75208 2.43178,-5.31159 3.7295,-7.8979c1.03915,-2.03297 1.03915,-2.03298 1.90484,-4.22929c0.26838,0 0.53512,0 0.81168,0c0.16037,-0.66059 0.16037,-0.66059 0.32239,-1.33095c0.49584,-1.71609 1.07352,-3.0519 1.80665,-4.5608c0.96552,-1.99885 1.89502,-4.00988 2.79016,-6.07943c0.93932,-2.11099 1.95884,-3.80027 3.19437,-5.55048c0.74622,-1.28463 1.481,-2.579 2.21086,-3.88314c0.20783,-0.31445 0.41565,-0.62648 0.63003,-0.95069c0.26674,0 0.53512,0 0.81168,0c0,-0.39977 0,-0.7971 0,-1.20905c0.26674,0 0.53512,0 0.81168,0c0.26674,-0.7971 0.53512,-1.5942 0.81005,-2.41569c0.26838,0 0.53676,0 0.81168,0c0.12601,-0.52409 0.12601,-0.52409 0.25365,-1.05792c0.76587,-1.86478 1.75756,-2.60827 2.99309,-3.77588c0.82805,-0.97748 1.62663,-2.0013 2.43341,-3.02023c4.17133,-5.06538 9.49474,-8.07343 14.60541,-10.27217c0.42711,-0.2194 0.85424,-0.4412 1.29444,-0.67035c2.1323,-0.74104 4.18115,-0.73617 6.36418,-0.72642z" fill="#d1e7f3"/><path d="M323.76241,59.97635c0.42057,-0.00975 0.84278,-0.01951 1.27644,-0.02924c2.67561,-0.00243 4.82101,0.53627 7.29533,2.03054c0.44185,0.23646 0.88369,0.47047 1.33862,0.71178c3.03891,1.70876 5.92236,3.70276 8.80415,5.93805c0.28801,0.19744 0.57602,0.3949 0.87223,0.59722c0.82478,0.67278 1.30262,1.43333 1.96703,2.42544c1.17007,1.26269 2.3516,2.49612 3.54293,3.71737c1.54155,1.60883 2.86544,3.30299 4.16643,5.34814c0.31747,0.47289 0.63496,0.94824 0.96388,1.43576c2.48415,3.70276 2.48414,3.70276 3.2091,4.78505c0.43858,0.65084 0.88041,1.29439 1.32717,1.93059c0.47948,0.68741 0.94097,1.40406 1.3959,2.12317c0,0.39977 0,0.7971 0,1.20905c0.26838,0 0.53676,0 0.81168,0c0.40912,1.00429 0.81495,2.01349 1.21753,3.02266c0.40257,0.39977 0.8035,0.7971 1.21753,1.20905c0.41075,1.00187 0.81495,2.01103 1.21753,3.02265c0.48439,0.85804 0.96878,1.71609 1.46136,2.56438c0.90987,1.70391 1.67736,3.54188 2.46124,5.37984c0.48931,1.20175 0.48931,1.20175 1.35172,1.72584c0.36492,0.96287 0.72822,1.92574 1.08661,2.89346c0.87551,2.18656 1.9032,4.20002 2.91945,6.24519c0.54822,1.10668 1.08989,2.2231 1.62336,3.34929c1.78047,3.75151 3.70494,7.23976 5.75053,10.67192c0.90987,1.53814 1.56772,2.67651 2.00793,4.64367c0.26838,0 0.53676,0 0.81168,0c0,0.39733 0,0.7971 0,1.20905c0.22092,0.14383 0.44185,0.28764 0.67095,0.43877c1.18315,0.95554 2.15849,2.15729 3.2091,3.41267c3.60349,4.14153 7.56864,5.5261 11.94289,7.02769c0.13419,-0.39977 0.26838,-0.79955 0.40585,-1.20906c0.66931,0.19989 1.33862,0.39733 2.02921,0.60454c0,0.39733 0,0.79711 0,1.20906c0.26674,0 0.53512,0 0.81168,0c0.13255,-0.39977 0.26674,-0.79955 0.4042,-1.20906c0.26838,0 0.53676,0 0.81168,0c0,0.39733 0,0.79711 0,1.20906c0.46803,0.05118 0.93605,0.10481 1.41881,0.16089c1.91302,0.35832 3.40711,1.3797 5.0992,2.7082c0.27001,0.20476 0.54167,0.40708 0.82151,0.61427c2.71489,2.07685 4.99775,4.32921 6.86167,8.00029c0.40093,0.39733 0.8035,0.79711 1.21588,1.20906c0,0.39733 0,0.7971 0,1.20905c0.40257,0.19744 0.8035,0.39733 1.21753,0.60454c0,0.59721 0,1.19445 0,1.81115c0.26838,0 0.53676,0 0.81168,0c0,0.39977 0,0.79955 0,1.20906c0.26838,0 0.53512,0 0.81168,0c0.49749,0.95799 0.49749,0.95799 1.06534,2.306c0.9426,2.18411 1.92775,4.2951 2.9669,6.38415c1.85247,3.76612 3.57238,7.65659 5.12703,11.71523c0.49911,1.42357 0.49911,1.42358 1.38935,1.95986c0.28966,0.72398 0.5564,1.47233 0.81168,2.22798c1.3599,3.75639 3.05691,7.13492 4.74082,10.57441c0.50731,1.04574 1.00478,2.10124 1.499,3.16161c2.52179,5.40177 5.28085,10.45742 8.11521,15.50086c1.18807,2.12317 2.34832,4.27804 3.5102,6.4329c0.89351,1.5552 1.85084,2.97148 2.82617,4.40966c0.73967,1.17982 1.47609,2.35962 2.20595,3.55162c0.29456,0.47777 0.29456,0.47778 0.59403,0.96287c1.03588,1.68928 2.04884,3.39804 3.03236,5.15801c0.96387,1.64053 1.95393,2.88127 3.09291,4.22928c0,0.39977 0,0.79955 0,1.20906c0.26838,0 0.53676,0 0.81168,0c0.80513,1.10668 1.17988,1.98422 1.32389,3.61256c0.02128,1.29925 0.02128,1.29926 -0.10637,3.64181c-0.81168,1.20663 -0.81168,1.20663 -1.91466,1.50402c-1.83938,-0.40953 -2.72143,-1.90135 -3.95368,-3.82951c-0.2422,-0.36321 -0.48439,-0.72641 -0.73314,-1.1018c-0.7724,-1.16763 -1.53499,-2.34499 -2.29922,-3.52481c-0.51057,-0.77516 -1.02278,-1.55033 -1.53664,-2.32306c-2.41541,-3.65889 -4.78174,-7.35674 -7.00897,-11.27646c-0.38948,-0.66059 -0.77895,-1.32362 -1.17007,-1.98179c-2.80489,-4.78505 -5.40524,-9.73831 -7.92701,-14.85733c-0.65458,-1.32362 -1.31734,-2.63752 -1.98012,-3.94895c-2.9178,-5.79424 -5.66707,-11.72253 -8.34922,-17.76541c-5.8798,-13.54101 -5.8798,-13.54101 -12.62528,-26.11915c-0.31256,-0.52165 -0.62676,-1.04574 -0.94915,-1.58447c-4.06824,-6.44265 -8.20685,-9.68714 -14.0621,-10.12591c-8.87616,-0.81173 -15.29435,-6.2135 -21.50309,-15.48868c-0.28474,-0.3876 -0.5695,-0.77517 -0.86241,-1.17494c-4.47244,-6.19157 -7.86155,-14.29423 -11.3243,-21.72412c-9.7893,-20.99527 -21.50472,-43.43607 -38.97066,-49.81289c-8.17902,-2.1768 -15.75584,1.57714 -22.49969,8.49512c-0.89678,1.02137 -1.75756,2.08418 -2.61834,3.17136c-0.35347,0.41684 -0.70694,0.83122 -1.07024,1.26026c-5.0812,6.0185 -8.89089,12.76585 -12.72512,20.49801c-0.43039,0.86049 -0.43039,0.86048 -0.87059,1.73558c-1.46136,2.94221 -2.85071,5.95025 -4.23024,8.97534c-13.73154,30.11931 -13.73154,30.11931 -25.73333,34.01708c-0.88696,0.19989 -1.77393,0.3876 -2.66252,0.56552c-4.18443,0.91654 -7.16279,3.12991 -10.32116,7.29093c-0.28146,0.36321 -0.56294,0.72641 -0.85423,1.1018c-2.92272,4.04403 -5.12048,8.94122 -7.3968,13.78477c-0.65131,1.38701 -1.30754,2.76671 -1.96539,4.14642c-1.80338,3.78563 -3.59039,7.5859 -5.35286,11.41541c-3.80314,8.2026 -7.82883,16.17364 -12.01816,23.94967c-0.20455,0.38027 -0.40912,0.76053 -0.62023,1.153c-4.63609,8.62676 -9.462,16.92687 -14.55958,24.95397c-1.31244,2.06954 -2.60525,4.16102 -3.88987,6.26714c-1.37627,2.24749 -2.77543,4.43159 -4.23844,6.55234c-0.89351,1.36994 -1.68556,2.85203 -2.47269,4.36091c-0.72332,1.01893 -1.23716,1.23832 -2.21413,1.44064c-0.86241,-0.34127 -0.86242,-0.34127 -1.62336,-1.20906c-0.60876,-1.62589 -0.60875,-1.62589 -0.81168,-3.62719c0.90332,-3.0129 2.14867,-5.44322 3.65094,-7.85648c0.26838,0 0.53676,0 0.81168,0c0.1391,-0.50703 0.1391,-0.50704 0.27984,-1.02138c0.68077,-1.78433 1.5759,-2.98853 2.56105,-4.41942c0.29293,-0.56066 0.58585,-1.12131 0.88696,-1.69903c0.2422,-0.43634 0.48603,-0.87266 0.73641,-1.32362c0.26674,0 0.53512,0 0.81006,0c0.1391,-0.4851 0.13909,-0.4851 0.27983,-0.98236c1.1668,-3.14455 2.89817,-5.56266 4.58864,-8.08316c0.74459,-1.28708 1.48099,-2.579 2.21086,-3.88313c0.20783,-0.31445 0.41566,-0.62891 0.63004,-0.95311c0.26838,0 0.53512,0 0.81168,0c0.09164,-0.43634 0.18328,-0.87267 0.27821,-1.3212c0.6464,-2.06466 1.45482,-3.14697 2.56106,-4.72169c0.50567,-0.81173 1.00315,-1.63077 1.49736,-2.45714c0.23565,-0.39245 0.4713,-0.78491 0.71349,-1.19199c0.61531,-1.16031 1.00478,-2.28406 1.44173,-3.60526c0.66604,-1.01893 1.34354,-2.02567 2.02758,-3.02023c1.36317,-2.26455 1.36317,-2.26455 2.43506,-4.83625c0.26674,0 0.53512,0 0.81168,0c0.10309,-0.4412 0.20783,-0.87998 0.31419,-1.33338c0.51876,-1.76727 1.12752,-3.02996 1.94247,-4.5218c0.99825,-1.8136 0.99825,-1.81359 1.80011,-3.81488c0.26838,0 0.53512,0 0.81168,0c0.10801,-0.43634 0.21765,-0.87266 0.32892,-1.32362c0.48112,-1.69903 0.99988,-3.2006 1.69864,-4.72169c0.26838,0 0.53676,0 0.81168,0c0.03928,-0.3437 0.07855,-0.68741 0.11782,-1.04086c0.35347,-1.68928 0.90497,-2.69357 1.65774,-4.05864c1.00805,-1.86965 1.87047,-3.7125 2.68706,-5.77961c0.58585,-1.18957 1.18315,-2.36205 1.78701,-3.52969c0.79695,-1.60641 1.52845,-3.26887 2.27141,-4.93131c0.68404,-1.49426 1.37953,-2.97878 2.07831,-4.45841c0.18002,-0.3876 0.36002,-0.77516 0.5433,-1.17249c0.45821,-0.96775 0.94424,-1.90134 1.43518,-2.83252c0.26838,0 0.53512,0 0.81168,0c0.15874,-0.52652 0.15874,-0.52652 0.32074,-1.06768c2.37123,-6.53771 7.71918,-10.44524 12.16708,-13.07787c1.00805,-0.4022 1.89012,-0.42414 2.92927,-0.36078c0.13419,-0.39733 0.26838,-0.7971 0.40585,-1.20663c0.71022,-0.20965 0.71022,-0.20965 1.62336,-0.30227c5.8749,-0.84343 9.79257,-4.05864 13.79373,-10.57929c0.22583,-0.31445 0.45166,-0.63135 0.68404,-0.95554c0.63658,-0.90679 0.63658,-0.90679 0.93933,-2.66921c0.29293,-0.31202 0.58585,-0.62402 0.88696,-0.94581c1.32226,-1.70634 1.9523,-3.41513 2.80981,-5.65774c1.13407,-2.75453 2.43178,-5.31647 3.7295,-7.90279c1.03915,-2.03297 1.03916,-2.03297 1.90484,-4.23171c0.26838,0 0.53512,0 0.81168,0c0.16037,-0.65817 0.16037,-0.65818 0.32239,-1.33096c0.49584,-1.71609 1.07352,-3.05435 1.80666,-4.5608c0.96552,-2.0013 1.89501,-4.01476 2.79016,-6.08188c0.93932,-2.11342 1.95885,-3.80269 3.19438,-5.55536c0.74622,-1.28219 1.48099,-2.579 2.21086,-3.88314c0.20783,-0.31445 0.41566,-0.62648 0.63004,-0.95068c0.26674,0 0.53512,0 0.81168,0c0,-0.39977 0,-0.79711 0,-1.20906c0.26674,0 0.53512,0 0.81168,0c0.26674,-0.7971 0.53512,-1.59665 0.81005,-2.41811c0.26838,0 0.53676,0 0.81168,0c0.12601,-0.52409 0.12601,-0.52409 0.25365,-1.05792c0.76587,-1.86722 1.75755,-2.6107 2.99308,-3.77833c0.82805,-0.97748 1.62664,-2.0013 2.43342,-3.02022c4.17133,-5.06783 9.49474,-8.07586 14.60541,-10.2746c0.42711,-0.22183 0.85423,-0.44365 1.29444,-0.67278c2.1323,-0.74104 4.18116,-0.73616 6.36419,-0.72641z" fill="#203f62"/><path d="M335.91966,98.22269c2.22886,0.4022 2.998,1.81847 4.40044,4.29752c1.53009,3.05922 2.7918,6.3354 4.06496,9.64081c0.46966,1.20418 0.95405,2.39132 1.44336,3.57599c5.3234,12.89017 5.3234,12.89016 4.71465,18.82821c-0.40748,2.15974 -0.40748,2.15974 -0.81332,3.6345c-1.44663,-1.90623 -2.23541,-3.98064 -3.04546,-6.54746c-0.28311,-0.87024 -0.56622,-1.73803 -0.85096,-2.60582c-0.15382,-0.47289 -0.30929,-0.94335 -0.46803,-1.43088c-0.95078,-2.85446 -1.9523,-5.67235 -2.94563,-8.49511c-2.98326,-8.50244 -2.98326,-8.50245 -4.31698,-12.41728c-0.12929,-0.37296 -0.25856,-0.74592 -0.39112,-1.12861c-0.8166,-2.41569 -1.3419,-4.74605 -1.79193,-7.35187z" fill="#e3f2f8"/><path d="M364.80646,224.61847c4.46262,-0.90679 8.35249,4.1196 11.72524,7.90279c0.44511,0.58746 0.44511,0.58746 0.89842,1.18469c0,0.39977 0,0.79955 0,1.21151c0.23565,0.15113 0.47293,0.30227 0.71677,0.45583c1.04079,0.86291 1.67574,1.81602 2.46451,3.1421c0.25365,0.41684 0.50894,0.83367 0.77077,1.26514c0.26021,0.59234 0.2602,0.59234 0.52694,1.19445c-0.20128,0.89948 -0.20128,0.89948 -0.40748,1.81848c-0.40585,-0.45096 -0.81005,-0.90193 -1.22735,-1.3675c-1.52027,-1.61614 -3.09455,-2.82521 -4.77846,-4.00988c-4.09769,-2.9739 -7.76664,-6.30858 -11.09684,-10.98151c0.13419,-0.59966 0.26838,-1.1993 0.40748,-1.81602z" fill="#fcfefe"/><path d="M288.06303,250.10872c0.42221,0 0.84278,0 1.27644,0c0.14074,0.77273 0.28146,1.54545 0.42548,2.34012c-0.5613,0.19259 -1.12262,0.38514 -1.70192,0.58503c-0.1391,-0.58015 -0.27984,-1.15787 -0.42548,-1.75509c0.14074,-0.38514 0.28146,-0.77274 0.42548,-1.17007z" fill="#f6fefe"/></g></g></g></svg>