<svg version="1.1" xmlns="http://www.w3.org/2000/svg" xmlns:xlink="http://www.w3.org/1999/xlink" width="71.14819" height="68.50894" viewBox="0,0,71.14819,68.50894"><g transform="translate(-204.42589,-145.54685)"><g fill-rule="evenodd" stroke="#000000" stroke-width="1.5" stroke-miterlimit="8"><path d="M259.38519,147.65058c1.21206,-1.21226 3.17792,-1.21226 4.38997,0l8.77994,8.78005c1.21206,1.21226 1.21206,3.17781 0,4.38997l-51.57574,51.57615c-1.21206,1.21206 -3.17689,1.21206 -4.38997,0l-8.77994,-8.78097c-1.21206,-1.21206 -1.21206,-3.17689 0,-4.38997z" fill="#548235"/><path d="M230.371,197.59153l3.57541,12.1113l-11.1917,-4.2458" fill="#ffd966"/><path d="M247.38613,181.80287l3.57541,12.11027l-11.19067,-4.2458" fill="#ffd966"/><path d="M262.96987,165.72124l3.57541,12.11078l-11.1917,-4.2458" fill="#ffd966"/><path d="M262.22636,150.26973l12.11027,-3.57552l-4.2458,11.19129" fill="#ffd966"/><path d="M248.02563,165.22324l-3.57541,-12.11047l11.19067,4.2457" fill="#ffd966"/><path d="M232.90942,180.80604l-3.57541,-12.11006l11.19067,4.2456" fill="#ffd966"/><path d="M215.93445,197.48135l-3.57541,-12.11027l11.1917,4.2458" fill="#ffd966"/><path d="M217.77364,208.57625l-12.11027,3.57541l4.2458,-11.19067" fill="#ffd966"/></g></g></svg>