<svg version="1.1" xmlns="http://www.w3.org/2000/svg" xmlns:xlink="http://www.w3.org/1999/xlink" width="524.49874" height="316.24005" viewBox="0,0,524.49874,316.24005"><g transform="translate(54.08939,-7.17645)"><g fill-rule="evenodd"><path d="M372.20757,217.11651c18.61777,-49.92262 10.02901,-45.15947 15.04352,-67.73983h9.3755c5.01451,22.58036 1.20524,49.59335 15.04352,67.73983z" fill="#843c0c" stroke="#000000" stroke-width="1.5" stroke-miterlimit="8"/><path d="M354.23578,184.69187c22.86565,-25.5124 25.5124,-37.70306 38.26861,-56.55459c12.7562,18.85153 13.19733,31.04218 38.26861,56.55459c-35.43836,-11.47053 -47.16527,-11.47053 -76.53721,0z" fill="#548235" stroke="#000000" stroke-width="1.5" stroke-miterlimit="8"/><path d="M358.50879,153.27265c21.07224,-16.59437 28.54499,-43.90395 33.99559,-44.23826c6.92102,0.3343 5.02079,18.77613 33.99559,44.23826c-30.56587,-8.13003 -41.65182,-7.76055 -67.99119,0z" fill="#548235" stroke="#000000" stroke-width="1.5" stroke-miterlimit="8"/><path d="M363.9129,126.3778c16.70246,-15.4017 18.68438,-29.32418 28.02594,-43.9869c9.34156,14.66272 1.93919,15.271 28.02594,43.9869c-28.06867,-9.61554 -21.36004,-10.72527 -56.05188,0z" fill="#548235" stroke="#000000" stroke-width="1.5" stroke-miterlimit="8"/><path d="M369.81971,101.49378c20.08945,-20.5547 16.41214,-22.25712 22.31644,-34.30978c5.16658,13.53138 7.38477,21.51713 23.05291,34.30978c-21.0182,-8.13255 -23.42994,-8.50204 -45.36935,0z" fill="#548235" stroke="#000000" stroke-width="1.5" stroke-miterlimit="8"/><path d="M382.3874,209.96548l6.62173,-26.78111" fill="none" stroke="#000000" stroke-width="1.5" stroke-miterlimit="8"/><path d="M390.43071,210.07985l1.41011,-23.50258" fill="none" stroke="#000000" stroke-width="1.5" stroke-miterlimit="8"/><path d="M401.39979,209.99565l-5.69065,-24.42404" fill="none" stroke="#000000" stroke-width="1.5" stroke-miterlimit="8"/><path d="M380.05892,170.36529l-10.23921,2.40739" fill="none" stroke="#000000" stroke-width="1.5" stroke-miterlimit="8"/><path d="M377.66771,163.70376l-7.848,9.22977" fill="none" stroke="#000000" stroke-width="1.5" stroke-miterlimit="8"/><path d="M372.45893,144.3031l7.60091,-2.71804" fill="none" stroke="#000000" stroke-width="1.5" stroke-miterlimit="8"/><path d="M372.45893,144.45891l5.20971,-6.51895" fill="none" stroke="#000000" stroke-width="1.5" stroke-miterlimit="8"/><path d="M374.84679,119.20417l6.49732,-2.50387" fill="none" stroke="#000000" stroke-width="1.5" stroke-miterlimit="8"/><path d="M374.84678,119.38765l4.29007,-4.94932" fill="none" stroke="#000000" stroke-width="1.5" stroke-miterlimit="8"/><path d="M387.75362,91.31356l-6.49732,2.50387" fill="none" stroke="#000000" stroke-width="1.5" stroke-miterlimit="8"/><path d="M381.25631,94.00092l4.29007,-4.94932" fill="none" stroke="#000000" stroke-width="1.5" stroke-miterlimit="8"/><path d="M418.76709,176.66865l-10.2389,-2.40797" fill="none" stroke="#000000" stroke-width="1.5" stroke-miterlimit="8"/><path d="M418.89024,176.82952l-7.84852,-9.22971" fill="none" stroke="#000000" stroke-width="1.5" stroke-miterlimit="8"/><path d="M417.26022,147.69636l-7.60093,-2.71839" fill="none" stroke="#000000" stroke-width="1.5" stroke-miterlimit="8"/><path d="M412.04713,141.33335l5.20931,6.51886" fill="none" stroke="#000000" stroke-width="1.5" stroke-miterlimit="8"/><path d="M411.00401,119.95822l-6.49749,-2.50348" fill="none" stroke="#000000" stroke-width="1.5" stroke-miterlimit="8"/><path d="M406.64303,115.06689l4.29061,4.94916" fill="none" stroke="#000000" stroke-width="1.5" stroke-miterlimit="8"/><path d="M403.84043,93.06337l-6.49749,-2.50348" fill="none" stroke="#000000" stroke-width="1.5" stroke-miterlimit="8"/><path d="M399.60513,88.2977l4.29061,4.94916" fill="none" stroke="#000000" stroke-width="1.5" stroke-miterlimit="8"/><path d="M390.36895,159.12678l-6.97488,3.34793" fill="none" stroke="#000000" stroke-width="1.5" stroke-miterlimit="8"/><path d="M383.4192,162.56769l4.21182,-6.79894" fill="none" stroke="#000000" stroke-width="1.5" stroke-miterlimit="8"/><path d="M404.28785,167.84614l-7.82965,-13.13808" fill="none" stroke="#000000" stroke-width="1.5" stroke-miterlimit="8"/><path d="M404.33058,167.82352l-7.92461,-9.04167" fill="none" stroke="#000000" stroke-width="1.5" stroke-miterlimit="8"/><path d="M385.42752,133.96491l5.55116,-5.86056" fill="none" stroke="#000000" stroke-width="1.5" stroke-miterlimit="8"/><path d="M387.2004,125.93949l-1.69998,8.16993" fill="none" stroke="#000000" stroke-width="1.5" stroke-miterlimit="8"/><path d="M399.92812,135.05076l-5.55114,-5.86031" fill="none" stroke="#000000" stroke-width="1.5" stroke-miterlimit="8"/><path d="M399.85522,135.19528l-1.69915,-8.17025" fill="none" stroke="#000000" stroke-width="1.5" stroke-miterlimit="8"/><path d="M384.0212,107.13919l6.49732,-2.50387" fill="none" stroke="#000000" stroke-width="1.5" stroke-miterlimit="8"/><path d="M388.31127,102.24767l-4.29007,4.94932" fill="none" stroke="#000000" stroke-width="1.5" stroke-miterlimit="8"/><path d="M400.30138,112.12478l-5.23611,-12.02334" fill="none" stroke="#000000" stroke-width="1.5" stroke-miterlimit="8"/><path d="M400.37678,112.09965l-5.01673,-7.42967" fill="none" stroke="#000000" stroke-width="1.5" stroke-miterlimit="8"/><path d="M393.03977,76.12614l-2.17507,12.9324" fill="none" stroke="#000000" stroke-width="1.5" stroke-miterlimit="8"/><path d="M392.96311,76.10541l0.14839,8.96357" fill="none" stroke="#000000" stroke-width="1.5" stroke-miterlimit="8"/><path d="M158.50255,318.71394c51.49367,-98.49053 136.07453,-276.67358 153.97975,-277.42785c21.4159,0.253 103.48861,178.93732 154.98228,277.42785z" fill="#8faadc" stroke="#000000" stroke-width="1.5" stroke-miterlimit="8"/><path d="M328.04258,160.63109c-12.75767,10.63595 -31.72375,8.91524 -42.3597,-3.84425c-0.2242,-0.26795 -0.44294,-0.54137 -0.65803,-0.81661l23.76,-18.44111z" fill="#dae3f3" stroke="none" stroke-width="1.5" stroke-miterlimit="10"/><path d="M328.04258,160.63109c-12.75767,10.63595 -31.72375,8.91524 -42.3597,-3.84425c-0.2242,-0.26795 -0.44294,-0.54137 -0.65803,-0.81661" fill="none" stroke="#000000" stroke-width="1.5" stroke-miterlimit="8"/><path d="M362.95521,156.62096c-12.4478,10.37529 -30.87797,9.02461 -41.67797,-3.05499l22.42025,-20.04699z" fill="#dae3f3" stroke="none" stroke-width="1.5" stroke-miterlimit="10"/><path d="M362.95521,156.62097c-12.4478,10.37529 -30.87797,9.02461 -41.67797,-3.05499" fill="none" stroke="#000000" stroke-width="1.5" stroke-miterlimit="8"/><path d="M382.09446,149.51209c-7.64658,6.37428 -17.95078,8.55068 -27.52223,5.81651l8.26451,-28.91848z" fill="#dae3f3" stroke="none" stroke-width="1.5" stroke-miterlimit="10"/><path d="M382.09446,149.51209c-7.64658,6.37428 -17.95078,8.55068 -27.52223,5.81651" fill="none" stroke="#000000" stroke-width="1.5" stroke-miterlimit="8"/><path d="M247.18104,146.09803c21.04952,-40.25347 54.8403,-104.61892 65.76425,-103.98714c12.04496,-0.2098 47.16091,66.24055 68.21043,106.49529c-31.05114,-0.69266 -37.49651,2.69043 -68.70441,4.97438c-31.05661,6.12273 -41.73813,-4.20516 -65.27028,-7.48253z" fill="#dae3f3" stroke="none" stroke-width="1.5" stroke-miterlimit="10"/><path d="M292.634,152.16243c-14.4802,11.18278 -35.20527,8.43949 -46.33154,-6.13367l26.21529,-20.34775z" fill="#dae3f3" stroke="none" stroke-width="1.5" stroke-miterlimit="10"/><path d="M291.2606,152.16243c-14.4802,11.18278 -35.20527,8.43949 -46.33154,-6.13367" fill="none" stroke="#000000" stroke-width="1.5" stroke-miterlimit="8"/><path d="M261.1482,192.57722l-39.1279,102.1999" fill="none" stroke="#000000" stroke-width="1.5" stroke-miterlimit="8"/><path d="M271.14252,198.22729l-19.95767,75.32166" fill="none" stroke="#000000" stroke-width="1.5" stroke-miterlimit="8"/><path d="M402.20889,256.92152l30.07595,33.47544" fill="none" stroke="#000000" stroke-width="1.5" stroke-miterlimit="8"/><path d="M362.83674,228.48609l59.33529,66.2163" fill="none" stroke="#000000" stroke-width="1.5" stroke-miterlimit="8"/><path d="M26.46257,318.71394c51.49367,-98.49053 136.07453,-276.67358 153.97975,-277.42785c21.4159,0.253 103.48861,178.93732 154.98228,277.42785z" fill="#8faadc" stroke="#000000" stroke-width="1.5" stroke-miterlimit="8"/><path d="M197.376,160.63109c-12.75767,10.63595 -31.72375,8.91524 -42.3597,-3.84425c-0.2242,-0.26795 -0.44294,-0.54137 -0.65803,-0.81661l23.76,-18.44111z" fill="#dae3f3" stroke="none" stroke-width="1.5" stroke-miterlimit="10"/><path d="M197.376,160.63109c-12.75767,10.63595 -31.72375,8.91524 -42.3597,-3.84425c-0.2242,-0.26795 -0.44294,-0.54137 -0.65803,-0.81661" fill="none" stroke="#000000" stroke-width="1.5" stroke-miterlimit="8"/><path d="M230.91523,156.62096c-12.4478,10.37529 -30.87797,9.02461 -41.67797,-3.05499l22.42025,-20.04699z" fill="#dae3f3" stroke="none" stroke-width="1.5" stroke-miterlimit="10"/><path d="M229.54183,156.62097c-12.4478,10.37529 -30.87797,9.02461 -41.67797,-3.05499" fill="none" stroke="#000000" stroke-width="1.5" stroke-miterlimit="8"/><path d="M248.68108,149.51209c-7.64658,6.37428 -17.95078,8.55068 -27.52223,5.81651l8.26451,-28.91848z" fill="#dae3f3" stroke="none" stroke-width="1.5" stroke-miterlimit="10"/><path d="M248.68108,149.51209c-7.64658,6.37428 -17.95078,8.55068 -27.52223,5.81651" fill="none" stroke="#000000" stroke-width="1.5" stroke-miterlimit="8"/><path d="M115.14106,146.09803c21.04952,-40.25347 54.8403,-104.61892 65.76425,-103.98714c12.04496,-0.2098 47.16091,66.24055 68.21043,106.49529c-31.05114,-0.69266 -37.49651,2.69043 -68.70441,4.97438c-31.05661,6.12273 -41.73813,-4.20516 -65.27028,-7.48253z" fill="#dae3f3" stroke="none" stroke-width="1.5" stroke-miterlimit="10"/><path d="M160.59402,152.16243c-14.4802,11.18278 -35.20527,8.43949 -46.33154,-6.13367l26.21529,-20.34775z" fill="#dae3f3" stroke="none" stroke-width="1.5" stroke-miterlimit="10"/><path d="M161.28071,152.16243c-14.4802,11.18278 -35.20527,8.43949 -46.33154,-6.13367" fill="none" stroke="#000000" stroke-width="1.5" stroke-miterlimit="8"/><path d="M91.35372,294.77711l39.1279,-102.1999" fill="none" stroke="#000000" stroke-width="1.5" stroke-miterlimit="8"/><path d="M120.51828,273.54895l19.95767,-75.32166" fill="none" stroke="#000000" stroke-width="1.5" stroke-miterlimit="8"/><path d="M298.87146,290.39696l-30.07595,-33.47544" fill="none" stroke="#000000" stroke-width="1.5" stroke-miterlimit="8"/><path d="M288.75865,294.70239l-59.33529,-66.2163" fill="none" stroke="#000000" stroke-width="1.5" stroke-miterlimit="8"/><path d="M47.88408,319.27065c26.32949,-70.60122 14.18316,-63.86511 21.27474,-95.79855h13.25895c7.09158,31.93344 1.70447,70.13556 21.27474,95.79855z" fill="#843c0c" stroke="#000000" stroke-width="1.5" stroke-miterlimit="8"/><path d="M22.46814,273.41534c32.3369,-36.07997 36.07997,-53.32016 54.11996,-79.98023c18.03999,26.66008 18.66383,43.90026 54.11996,79.98023c-50.11739,-16.22177 -66.70174,-16.22177 -108.23992,0z" fill="#548235" stroke="#000000" stroke-width="1.5" stroke-miterlimit="8"/><path d="M28.51109,228.98188c29.80064,-23.46798 40.36869,-62.08954 48.07701,-62.56232c9.7878,0.47277 7.10047,26.55344 48.07701,62.56232c-43.22665,-11.4976 -58.90455,-10.97507 -96.15402,0z" fill="#548235" stroke="#000000" stroke-width="1.5" stroke-miterlimit="8"/><path d="M36.15364,190.94682c23.62083,-21.78128 26.42369,-41.47064 39.63465,-62.20685c13.21096,20.73621 2.74243,21.59644 39.63465,62.20685c-39.69508,-13.59842 -30.20765,-15.16781 -79.2693,0z" fill="#548235" stroke="#000000" stroke-width="1.5" stroke-miterlimit="8"/><path d="M44.50714,155.75552c28.41076,-29.06873 23.21026,-31.47631 31.5602,-48.52134c7.30664,19.13625 10.44364,30.42981 32.60172,48.52134c-29.72421,-11.50116 -33.13492,-12.0237 -64.16192,0z" fill="#548235" stroke="#000000" stroke-width="1.5" stroke-miterlimit="8"/><path d="M62.28053,309.15761l9.36453,-37.8742" fill="none" stroke="#000000" stroke-width="1.5" stroke-miterlimit="8"/><path d="M75.64968,276.08169l-1.99419,33.23766" fill="none" stroke="#000000" stroke-width="1.5" stroke-miterlimit="8"/><path d="M89.1681,309.20027l-8.04779,-34.54081" fill="none" stroke="#000000" stroke-width="1.5" stroke-miterlimit="8"/><path d="M58.98756,253.1545l-14.48042,3.40456" fill="none" stroke="#000000" stroke-width="1.5" stroke-miterlimit="8"/><path d="M55.60589,243.73369l-11.09875,13.05286" fill="none" stroke="#000000" stroke-width="1.5" stroke-miterlimit="8"/><path d="M58.98886,212.45313l-10.74931,3.84389" fill="none" stroke="#000000" stroke-width="1.5" stroke-miterlimit="8"/><path d="M48.23955,216.51739l7.36764,-9.21918" fill="none" stroke="#000000" stroke-width="1.5" stroke-miterlimit="8"/><path d="M60.80509,177.26077l-9.18859,3.54101" fill="none" stroke="#000000" stroke-width="1.5" stroke-miterlimit="8"/><path d="M51.61649,181.06126l6.06707,-6.99939" fill="none" stroke="#000000" stroke-width="1.5" stroke-miterlimit="8"/><path d="M60.68092,144.89952l9.18859,-3.541" fill="none" stroke="#000000" stroke-width="1.5" stroke-miterlimit="8"/><path d="M60.68092,145.15903l6.06707,-6.99939" fill="none" stroke="#000000" stroke-width="1.5" stroke-miterlimit="8"/><path d="M99.24916,258.66342l14.47998,3.40538" fill="none" stroke="#000000" stroke-width="1.5" stroke-miterlimit="8"/><path d="M113.90332,262.2963l-11.09948,-13.05277" fill="none" stroke="#000000" stroke-width="1.5" stroke-miterlimit="8"/><path d="M100.84878,217.25145l10.74934,3.84438" fill="none" stroke="#000000" stroke-width="1.5" stroke-miterlimit="8"/><path d="M111.59278,221.31622l-7.36707,-9.21906" fill="none" stroke="#000000" stroke-width="1.5" stroke-miterlimit="8"/><path d="M102.75052,181.86818l-9.18884,-3.54046" fill="none" stroke="#000000" stroke-width="1.5" stroke-miterlimit="8"/><path d="M96.58315,174.95078l6.06783,6.99916" fill="none" stroke="#000000" stroke-width="1.5" stroke-miterlimit="8"/><path d="M92.61969,143.83313l-9.18884,-3.54046" fill="none" stroke="#000000" stroke-width="1.5" stroke-miterlimit="8"/><path d="M92.6979,144.09262l-6.06783,-6.99916" fill="none" stroke="#000000" stroke-width="1.5" stroke-miterlimit="8"/><path d="M63.70417,241.99555l9.86397,-4.73469" fill="none" stroke="#000000" stroke-width="1.5" stroke-miterlimit="8"/><path d="M63.73972,242.12707l5.95641,-9.61515" fill="none" stroke="#000000" stroke-width="1.5" stroke-miterlimit="8"/><path d="M82.17964,231.01185l11.07279,18.58004" fill="none" stroke="#000000" stroke-width="1.5" stroke-miterlimit="8"/><path d="M93.31285,249.5599l-11.20708,-12.78685" fill="none" stroke="#000000" stroke-width="1.5" stroke-miterlimit="8"/><path d="M66.57991,201.67661l7.85052,-8.28808" fill="none" stroke="#000000" stroke-width="1.5" stroke-miterlimit="8"/><path d="M69.08713,190.32699l-2.40414,11.55402" fill="none" stroke="#000000" stroke-width="1.5" stroke-miterlimit="8"/><path d="M79.23634,194.92451l7.8505,8.28772" fill="none" stroke="#000000" stroke-width="1.5" stroke-miterlimit="8"/><path d="M84.58079,191.86215l2.40296,11.55448" fill="none" stroke="#000000" stroke-width="1.5" stroke-miterlimit="8"/><path d="M73.77966,160.19832l-9.18859,3.54101" fill="none" stroke="#000000" stroke-width="1.5" stroke-miterlimit="8"/><path d="M70.65814,156.82169l-6.06707,6.99939" fill="none" stroke="#000000" stroke-width="1.5" stroke-miterlimit="8"/><path d="M80.20974,153.78644l7.40497,17.00357" fill="none" stroke="#000000" stroke-width="1.5" stroke-miterlimit="8"/><path d="M87.72135,170.75448l-7.09473,-10.50713" fill="none" stroke="#000000" stroke-width="1.5" stroke-miterlimit="8"/><path d="M77.34524,119.8803l-3.07601,18.28917" fill="none" stroke="#000000" stroke-width="1.5" stroke-miterlimit="8"/><path d="M77.23683,119.85097l0.20986,12.6764" fill="none" stroke="#000000" stroke-width="1.5" stroke-miterlimit="8"/><path d="M203.92438,322.6665c23.38958,-62.71799 12.59948,-56.73403 18.89923,-85.10183h11.77848c6.29975,28.3678 1.51415,62.30433 18.89924,85.10183z" fill="#843c0c" stroke="#000000" stroke-width="1.5" stroke-miterlimit="8"/><path d="M181.34635,281.93129c28.72621,-32.05133 32.05133,-47.36651 48.07701,-71.04976c16.02567,23.68326 16.57986,38.99842 48.07701,71.04976c-44.52135,-14.41048 -59.25392,-14.41048 -96.15401,0z" fill="#548235" stroke="#000000" stroke-width="1.5" stroke-miterlimit="8"/><path d="M186.71455,242.45921c26.47314,-20.84758 35.86119,-55.15672 42.7088,-55.57671c8.69491,0.41998 6.30764,23.58854 42.7088,55.57671c-38.40002,-10.21379 -52.32735,-9.74961 -85.4176,0z" fill="#548235" stroke="#000000" stroke-width="1.5" stroke-miterlimit="8"/><path d="M193.50375,208.67109c20.98337,-19.34922 23.47327,-36.84008 35.2091,-55.26092c11.73584,18.42084 2.43621,19.18502 35.2091,55.26092c-35.26279,-12.08004 -26.8347,-13.4742 -70.4182,0z" fill="#548235" stroke="#000000" stroke-width="1.5" stroke-miterlimit="8"/><path d="M200.9245,177.40919c25.23846,-25.82296 20.61864,-27.96171 28.03624,-43.10351c6.49079,16.99953 9.27751,27.03205 28.96147,43.10351c-26.40525,-10.21696 -29.43513,-10.68115 -56.9977,0z" fill="#548235" stroke="#000000" stroke-width="1.5" stroke-miterlimit="8"/><path d="M216.71335,313.68262l8.3189,-33.64522" fill="none" stroke="#000000" stroke-width="1.5" stroke-miterlimit="8"/><path d="M226.81819,313.82632l1.77152,-29.52639" fill="none" stroke="#000000" stroke-width="1.5" stroke-miterlimit="8"/><path d="M233.4495,283.03651l7.14919,30.68402" fill="none" stroke="#000000" stroke-width="1.5" stroke-miterlimit="8"/><path d="M200.9245,266.95716l12.86356,-3.02441" fill="none" stroke="#000000" stroke-width="1.5" stroke-miterlimit="8"/><path d="M210.78398,255.56384l-9.85948,11.5954" fill="none" stroke="#000000" stroke-width="1.5" stroke-miterlimit="8"/><path d="M204.24017,231.19072l9.54905,-3.41469" fill="none" stroke="#000000" stroke-width="1.5" stroke-miterlimit="8"/><path d="M204.24017,231.38649l6.54498,-8.18978" fill="none" stroke="#000000" stroke-width="1.5" stroke-miterlimit="8"/><path d="M207.24004,199.65883l8.16261,-3.14562" fill="none" stroke="#000000" stroke-width="1.5" stroke-miterlimit="8"/><path d="M207.24003,199.88933l5.38963,-6.21785" fill="none" stroke="#000000" stroke-width="1.5" stroke-miterlimit="8"/><path d="M215.29234,167.76536l8.16261,-3.14562" fill="none" stroke="#000000" stroke-width="1.5" stroke-miterlimit="8"/><path d="M215.29235,167.99588l5.38963,-6.21785" fill="none" stroke="#000000" stroke-width="1.5" stroke-miterlimit="8"/><path d="M262.41729,271.85168l-12.86317,-3.02515" fill="none" stroke="#000000" stroke-width="1.5" stroke-miterlimit="8"/><path d="M252.71188,260.45845l9.86013,11.59532" fill="none" stroke="#000000" stroke-width="1.5" stroke-miterlimit="8"/><path d="M250.97513,232.03857l9.54908,3.41512" fill="none" stroke="#000000" stroke-width="1.5" stroke-miterlimit="8"/><path d="M253.97498,227.45981l6.54448,8.18967" fill="none" stroke="#000000" stroke-width="1.5" stroke-miterlimit="8"/><path d="M244.50168,197.46101l8.16282,3.14513" fill="none" stroke="#000000" stroke-width="1.5" stroke-miterlimit="8"/><path d="M247.18579,194.46115l5.39031,6.21765" fill="none" stroke="#000000" stroke-width="1.5" stroke-miterlimit="8"/><path d="M243.66487,166.81803l-8.16282,-3.14513" fill="none" stroke="#000000" stroke-width="1.5" stroke-miterlimit="8"/><path d="M238.34405,160.83089l5.39031,6.21765" fill="none" stroke="#000000" stroke-width="1.5" stroke-miterlimit="8"/><path d="M226.7406,249.81376l-8.76257,4.20602" fill="none" stroke="#000000" stroke-width="1.5" stroke-miterlimit="8"/><path d="M218.0096,254.13662l5.29133,-8.54154" fill="none" stroke="#000000" stroke-width="1.5" stroke-miterlimit="8"/><path d="M234.39055,244.2625l9.83642,16.50543" fill="none" stroke="#000000" stroke-width="1.5" stroke-miterlimit="8"/><path d="M234.32493,249.38042l9.95572,11.35909" fill="none" stroke="#000000" stroke-width="1.5" stroke-miterlimit="8"/><path d="M220.53266,218.20281l6.97394,-7.36265" fill="none" stroke="#000000" stroke-width="1.5" stroke-miterlimit="8"/><path d="M220.62424,218.38438l2.13569,-10.26391" fill="none" stroke="#000000" stroke-width="1.5" stroke-miterlimit="8"/><path d="M238.74982,219.56696l-6.97392,-7.36233" fill="none" stroke="#000000" stroke-width="1.5" stroke-miterlimit="8"/><path d="M238.65824,219.74852l-2.13465,-10.26432" fill="none" stroke="#000000" stroke-width="1.5" stroke-miterlimit="8"/><path d="M218.76589,184.50154l8.16261,-3.14562" fill="none" stroke="#000000" stroke-width="1.5" stroke-miterlimit="8"/><path d="M224.15552,178.35631l-5.38963,6.21785" fill="none" stroke="#000000" stroke-width="1.5" stroke-miterlimit="8"/><path d="M239.21875,190.76496l-6.57815,-15.10497" fill="none" stroke="#000000" stroke-width="1.5" stroke-miterlimit="8"/><path d="M239.31348,190.7334l-6.30254,-9.33393" fill="none" stroke="#000000" stroke-width="1.5" stroke-miterlimit="8"/><path d="M230.09596,145.53975l-2.73255,16.24703" fill="none" stroke="#000000" stroke-width="1.5" stroke-miterlimit="8"/><path d="M229.99965,145.51368l0.18642,11.26097" fill="none" stroke="#000000" stroke-width="1.5" stroke-miterlimit="8"/><path d="M416.63757,318.89018c16.24254,-43.55357 8.74952,-39.39809 13.12429,-59.09768h8.17939c4.37477,19.69959 1.05148,43.26631 13.12429,59.09768z" fill="#843c0c" stroke="#000000" stroke-width="1.5" stroke-miterlimit="8"/><path d="M400.95859,290.60222c19.94849,-22.25757 22.25757,-32.89296 33.38636,-49.33944c11.12878,16.44648 11.51364,27.08187 33.38636,49.33944c-30.91719,-10.00714 -41.148,-10.00714 -66.77271,0z" fill="#548235" stroke="#000000" stroke-width="1.5" stroke-miterlimit="8"/><path d="M404.68645,263.19144c18.38388,-14.47729 24.90326,-38.30275 29.65848,-38.59441c6.03805,0.29165 4.38025,16.3807 29.65849,38.59441c-26.66632,-7.09281 -36.33795,-6.77047 -59.31698,0z" fill="#548235" stroke="#000000" stroke-width="1.5" stroke-miterlimit="8"/><path d="M409.40112,239.72779c14.57159,-13.43678 16.30065,-25.58305 24.45043,-38.37512c8.14978,12.79207 1.69179,13.32275 24.45044,38.37512c-24.48771,-8.3888 -18.63496,-9.35696 -48.90087,0z" fill="#548235" stroke="#000000" stroke-width="1.5" stroke-miterlimit="8"/><path d="M414.55434,218.01843c17.52647,-17.93236 14.31831,-19.41759 19.46934,-29.93259c4.50744,11.80507 6.44263,18.77201 20.11186,29.93259c-18.33673,-7.09501 -20.44079,-7.41736 -39.5812,0z" fill="#548235" stroke="#000000" stroke-width="1.5" stroke-miterlimit="8"/><path d="M425.51867,312.65148l5.77694,-23.36442" fill="none" stroke="#000000" stroke-width="1.5" stroke-miterlimit="8"/><path d="M433.76604,292.2471l-1.23021,20.50416" fill="none" stroke="#000000" stroke-width="1.5" stroke-miterlimit="8"/><path d="M442.10548,312.6778l-4.96464,-21.30806" fill="none" stroke="#000000" stroke-width="1.5" stroke-miterlimit="8"/><path d="M423.48725,278.10342l-8.93291,2.10026" fill="none" stroke="#000000" stroke-width="1.5" stroke-miterlimit="8"/><path d="M414.55435,280.34401l6.84676,-8.05225" fill="none" stroke="#000000" stroke-width="1.5" stroke-miterlimit="8"/><path d="M416.85686,255.3662l6.6312,-2.37128" fill="none" stroke="#000000" stroke-width="1.5" stroke-miterlimit="8"/><path d="M421.40192,249.81488l-4.54506,5.68727" fill="none" stroke="#000000" stroke-width="1.5" stroke-miterlimit="8"/><path d="M424.60848,231.28492l-5.6684,2.18443" fill="none" stroke="#000000" stroke-width="1.5" stroke-miterlimit="8"/><path d="M418.94007,233.62942l3.74275,-4.31789" fill="none" stroke="#000000" stroke-width="1.5" stroke-miterlimit="8"/><path d="M430.20027,209.13699l-5.6684,2.18443" fill="none" stroke="#000000" stroke-width="1.5" stroke-miterlimit="8"/><path d="M428.27463,207.1636l-3.74275,4.31789" fill="none" stroke="#000000" stroke-width="1.5" stroke-miterlimit="8"/><path d="M448.32445,281.50184l8.93264,2.10076" fill="none" stroke="#000000" stroke-width="1.5" stroke-miterlimit="8"/><path d="M457.36453,283.74295l-6.84722,-8.0522" fill="none" stroke="#000000" stroke-width="1.5" stroke-miterlimit="8"/><path d="M449.31125,255.95498l6.63122,2.37158" fill="none" stroke="#000000" stroke-width="1.5" stroke-miterlimit="8"/><path d="M451.39446,252.77533l4.54471,5.68719" fill="none" stroke="#000000" stroke-width="1.5" stroke-miterlimit="8"/><path d="M444.81586,231.94311l5.66855,2.18409" fill="none" stroke="#000000" stroke-width="1.5" stroke-miterlimit="8"/><path d="M446.6798,229.85991l3.74322,4.31775" fill="none" stroke="#000000" stroke-width="1.5" stroke-miterlimit="8"/><path d="M444.23475,210.66356l-5.66855,-2.18409" fill="none" stroke="#000000" stroke-width="1.5" stroke-miterlimit="8"/><path d="M444.28301,210.82364l-3.74322,-4.31775" fill="none" stroke="#000000" stroke-width="1.5" stroke-miterlimit="8"/><path d="M432.48195,268.2987l-6.08504,2.9208" fill="none" stroke="#000000" stroke-width="1.5" stroke-miterlimit="8"/><path d="M430.09331,265.3691l-3.67448,5.93154" fill="none" stroke="#000000" stroke-width="1.5" stroke-miterlimit="8"/><path d="M437.79434,264.44372l6.83075,11.46194" fill="none" stroke="#000000" stroke-width="1.5" stroke-miterlimit="8"/><path d="M437.74877,267.99777l6.9136,7.88815" fill="none" stroke="#000000" stroke-width="1.5" stroke-miterlimit="8"/><path d="M428.17093,246.34694l4.84295,-5.11288" fill="none" stroke="#000000" stroke-width="1.5" stroke-miterlimit="8"/><path d="M428.23453,246.47303l1.4831,-7.12763" fill="none" stroke="#000000" stroke-width="1.5" stroke-miterlimit="8"/><path d="M440.82156,247.29426l-4.84293,-5.11266" fill="none" stroke="#000000" stroke-width="1.5" stroke-miterlimit="8"/><path d="M440.75797,247.42034l-1.48238,-7.1279" fill="none" stroke="#000000" stroke-width="1.5" stroke-miterlimit="8"/><path d="M432.61243,220.75918l-5.6684,2.18443" fill="none" stroke="#000000" stroke-width="1.5" stroke-miterlimit="8"/><path d="M430.68678,218.67614l-3.74275,4.31789" fill="none" stroke="#000000" stroke-width="1.5" stroke-miterlimit="8"/><path d="M441.14721,227.29314l-4.56809,-10.48942" fill="none" stroke="#000000" stroke-width="1.5" stroke-miterlimit="8"/><path d="M441.21299,227.27121l-4.3767,-6.4818" fill="none" stroke="#000000" stroke-width="1.5" stroke-miterlimit="8"/><path d="M434.81202,195.88717l-1.89758,11.2825" fill="none" stroke="#000000" stroke-width="1.5" stroke-miterlimit="8"/><path d="M434.74514,195.86907l0.12946,7.82001" fill="none" stroke="#000000" stroke-width="1.5" stroke-miterlimit="8"/><path d="M85.20795,7.19793c-1.45932,4.37977 -4.49756,8.73622 -8.64599,10.88286c-1.37113,0.65132 -2.52723,0.95381 -4.04212,1.00498c-1.12892,0.07737 -1.62301,0.34399 -2.40522,1.14124c-0.63423,0.62486 -1.32824,1.15664 -2.03193,1.70093c-0.25731,0.2009 -0.51463,0.40179 -0.77194,0.60269c-0.19087,0.14804 -0.38114,0.29603 -0.57745,0.44855c0.19873,0.00537 0.39745,0.01069 0.60221,0.01619c4.31453,0.16188 9.0833,1.30034 12.21999,4.46935c0.08456,0.0958 0.16852,0.19178 0.2555,0.29023c-0.06886,0.20597 -0.13711,0.41135 -0.20778,0.62336c-3.42421,1.6665 -8.40981,2.52904 -12.09314,1.28113c-2.03375,-0.86919 -4.00286,-1.7275 -5.55097,-3.35788c-2.07724,1.36763 -3.98414,2.88252 -5.81252,4.56835c-0.27181,0.23859 -0.54422,0.47657 -0.81724,0.71395c-0.871,0.75805 -1.72207,1.53784 -2.57555,2.31643c-0.58409,0.52912 -1.17603,1.04738 -1.77099,1.56442c-0.91872,0.80939 -1.82053,1.63871 -2.72415,2.46502c1.18208,-0.19812 2.35026,-0.42825 3.51542,-0.71033c3.91346,-0.92536 7.80881,-1.21711 11.81952,-1.23644c0.16792,-0.00121 0.33584,-0.00302 0.50859,-0.00483c3.18924,-0.02416 6.67989,0.16732 9.68913,1.32885c0.13651,0.13711 0.27362,0.27423 0.41496,0.41496c-0.19993,0.00483 -0.19993,0.00484 -0.40349,0.00967c-5.51835,0.13771 -11.54106,0.30503 -16.82566,2.06697c0.55268,0.45604 1.10657,0.91026 1.66227,1.36267c0.36362,0.29657 0.72664,0.59436 1.08664,0.89576c1.33248,1.08664 2.78817,1.92805 4.30849,2.72536c0.22591,0.119 0.45181,0.23859 0.68436,0.36181c0.99483,0.33765 1.83261,0.2863 2.87092,0.23496c2.93857,-0.06765 4.98682,0.97308 7.447,2.51757c0.14255,0.08698 0.28509,0.17396 0.43188,0.26275c0.3461,0.21745 0.3461,0.21744 0.81362,0.56778c0,0.13711 0,0.27423 0,0.41557c0.17939,0.07732 0.17939,0.07731 0.36302,0.15584c0.52912,0.29416 0.88611,0.64933 1.29744,1.09026c-0.06886,0.20537 -0.13712,0.41074 -0.20779,0.62275c-2.79844,0.96765 -6.64908,0.79912 -9.34122,-0.41557c-1.53482,-0.85711 -2.55984,-1.86885 -3.5287,-3.32213c-0.53214,-0.15161 -0.53215,-0.15161 -1.03771,-0.20778c0.08698,0.17033 0.17457,0.34067 0.26517,0.51584c0.11356,0.22409 0.22711,0.44758 0.34429,0.67831c0.16973,0.33221 0.16973,0.33221 0.34309,0.67167c1.26724,2.71086 0.55751,6.40204 -0.3298,9.13947c-0.19812,0.4204 -0.40228,0.83778 -0.62275,1.2461c-0.64751,-0.27543 -0.96341,-0.51462 -1.3222,-1.11865c-0.08456,-0.14194 -0.16913,-0.28389 -0.25611,-0.43006c-0.08759,-0.15282 -0.17456,-0.30563 -0.26395,-0.46268c-0.09121,-0.15705 -0.18181,-0.3147 -0.27544,-0.47657c-1.43093,-2.53267 -2.99354,-5.63131 -2.33818,-8.60673c0.28329,-0.94529 0.57986,-1.53784 1.34214,-2.19501c0,-0.13711 0,-0.27362 0,-0.41496c-0.18422,-0.09121 -0.36785,-0.18241 -0.55751,-0.27604c-2.04522,-1.03832 -3.89293,-2.27052 -5.74003,-3.62776c-0.69523,-0.54603 -0.69523,-0.54603 -1.54569,-0.61127c-0.68134,0.15765 -1.34455,0.34127 -2.0132,0.54664c-0.25671,0.07853 -0.51342,0.15705 -0.77799,0.23799c-0.1341,0.04108 -0.26819,0.08214 -0.4065,0.12503c-5.90191,1.81026 -11.67033,2.92468 -17.81324,3.60542c0.32376,0.29416 0.64872,0.58831 0.97308,0.88247c0.1806,0.16369 0.36121,0.32738 0.54725,0.49651c0.54,0.48805 0.54,0.48805 1.08422,0.89153c1.34154,1.13012 2.43724,2.79964 3.20797,4.37433c0,0.20537 0,0.41074 0,0.62275c-5.08044,0.14074 -10.23034,-0.52128 -14.11602,-4.15327c-1.42972,-1.61455 -1.42972,-1.61456 -1.86824,-2.4916c-8.99088,-0.14497 -18.18532,0.93322 -26.1554,5.39876c-0.22651,0.11658 -0.45362,0.23316 -0.68738,0.35275c-4.40816,2.27415 -8.57833,5.49298 -12.0273,9.0549c-0.82751,0.80335 -1.74502,1.50342 -2.64623,2.221c-0.30805,0.2549 -0.30805,0.25489 -0.62275,0.51462c-1.73415,1.41402 -3.58125,2.48072 -5.60473,3.43025c-0.13711,0.06463 -0.27362,0.12926 -0.41496,0.19571c-4.09649,1.87005 -8.7233,2.68488 -13.11696,3.56796c-5.21815,1.05523 -9.83349,2.47166 -14.07615,5.78835c-0.33463,-0.83295 -0.061,-1.39409 0.24644,-2.2065c0.04772,-0.12865 0.09604,-0.25792 0.14497,-0.39081c0.27966,-0.74536 0.57623,-1.48227 0.88006,-2.21736c0.77375,-1.91656 1.46476,-3.8579 0.71335,-5.87896c-0.46812,-0.98335 -1.18026,-1.58616 -2.02106,-2.25784c-0.18725,-0.16732 -0.18724,-0.16732 -0.37932,-0.33826c0,-0.13651 0,-0.27362 0,-0.41496c0.41496,-0.10087 0.83053,-0.19993 1.24549,-0.29839c0.34671,-0.08336 0.34671,-0.08335 0.70067,-0.16791c1.42428,-0.29658 2.81052,-0.39624 4.26018,-0.41557c0.35637,-0.00664 0.71214,-0.01389 1.06791,-0.02054c0.55026,-0.00966 1.09992,-0.01873 1.65019,-0.02718c8.1229,-0.12745 13.71011,-2.27596 19.92853,-7.4476c2.35146,-1.94435 4.75185,-3.80655 7.2664,-5.53526c0.22168,-0.15402 0.44335,-0.30805 0.67167,-0.46631c2.94461,-2.02166 6.06197,-3.82226 9.29229,-5.34802c-0.0447,-0.16308 -0.09,-0.32678 -0.13591,-0.4953c-1.21046,-4.73554 0.14496,-9.22886 2.41911,-13.41716c0.20597,0 0.41133,0 0.62274,0c1.84348,3.71897 3.01408,7.08579 3.52931,11.21308c1.85676,-0.90785 3.51541,-1.8912 5.10761,-3.21703c0.87644,-0.72785 0.87644,-0.72784 1.32704,-0.72784c0.13711,-0.27423 0.27423,-0.54846 0.41557,-0.83114c0.13711,0 0.27362,0 0.41496,0c0.13711,-0.27362 0.27423,-0.54785 0.41497,-0.83053c0.13711,0 0.27423,0 0.41557,0c0.04168,-0.11477 0.08336,-0.22952 0.12624,-0.34792c0.40288,-0.67348 0.97187,-1.09026 1.58616,-1.55959c0.12987,-0.10027 0.25912,-0.19993 0.39322,-0.30262c4.05602,-3.08354 8.61035,-5.26581 13.67025,-6.09562c-0.06826,-0.13699 -0.13651,-0.27411 -0.20718,-0.41527c-0.02899,-4.50335 1.9353,-8.02596 4.98199,-11.21296c1.4575,-1.45358 1.4575,-1.45358 2.2832,-1.45358c1.11321,3.66491 0.6753,7.99418 -0.98577,11.4077c-0.15463,0.28178 -0.31047,0.56313 -0.46752,0.84352c3.91407,-0.89824 7.27848,-2.22154 10.80295,-4.14257c0.40832,-0.21902 0.82147,-0.42783 1.23704,-0.63332c-1.52636,3.34314 -6.30056,5.61753 -9.53632,6.8832c-1.64234,0.59497 -3.31126,1.10295 -4.98319,1.6073c-4.55554,1.37717 -8.92082,3.22488 -12.29851,6.72398c-0.3751,0.3594 -0.37509,0.3594 -0.79066,0.3594c-0.06403,0.13228 -0.12805,0.26516 -0.1945,0.40227c-0.22047,0.42825 -0.22047,0.42826 -0.42825,0.63544c11.3514,0.81785 11.3514,0.81785 22.6267,-0.20718c0.31409,-0.05617 0.62758,-0.11235 0.94167,-0.16792c3.96722,-0.75382 9.50008,-2.21254 12.00798,-5.62104c1.2014,-1.99267 1.87005,-4.34099 2.51696,-6.55999c1.30167,-4.45413 3.36622,-9.63978 7.36727,-12.36139c0.13711,0.06856 0.27423,0.13705 0.41557,0.20766c-0.10087,0.15391 -0.20174,0.30781 -0.30503,0.46643c-2.5085,3.94216 -4.91554,8.86506 -4.67695,13.65364c0.06826,0.20555 0.13651,0.41116 0.20718,0.6228c0.29114,-0.21467 0.29114,-0.21466 0.58832,-0.43381c1.64113,-1.18461 3.27803,-2.15908 5.1203,-2.99547c3.15662,-1.43957 6.21479,-3.15518 9.10806,-5.07029c0.30503,-0.20066 0.6155,-0.39364 0.92657,-0.58572c1.19536,-0.80444 1.52093,-1.55584 1.89663,-2.92975c0.92174,-2.82568 3.21341,-4.83985 5.7654,-6.19293c1.22556,-0.57811 2.50911,-0.9935 3.80172,-1.39396c0.39442,-0.12231 0.78825,-0.24826 1.18147,-0.37432c1.3814,-0.42372 2.54957,-0.68043 3.9944,-0.58076z" fill="#78320e" stroke="none" stroke-width="1" stroke-miterlimit="10"/><path d="M-7.59715,43.7839c0.29054,0.43248 0.55691,0.86133 0.81724,1.31133c0.6004,1.11744 0.6004,1.11745 1.46596,2.01261c0.83114,0.09181 0.83113,0.09181 1.29744,-0.41557c0.1196,-0.13711 0.2398,-0.27423 0.36302,-0.41557c-0.12986,0.59738 -0.12986,0.59738 -0.41496,1.2461c-0.41315,0.14375 -0.82933,0.28087 -1.2455,0.41556c-0.75684,0.36906 -1.49315,0.77557 -2.23126,1.18147c-0.1945,0.1045 -0.38959,0.20959 -0.59013,0.31771c-1.19597,0.65356 -2.311,1.3657 -3.4079,2.17569c-0.41255,0.27181 -0.41254,0.27181 -0.82751,0.27181c0,0.13711 0,0.27422 0,0.41556c-0.29295,0.20537 -0.58772,0.40893 -0.89033,0.60101c-0.56295,0.36423 -1.08422,0.77919 -1.61334,1.19053c-0.11657,0.09 -0.23255,0.17999 -0.35275,0.27301c-0.36241,0.28087 -0.72483,0.56174 -1.08724,0.84322c-4.57608,3.55468 -9.1141,6.83029 -14.47662,9.10021c-0.13469,0.05798 -0.2694,0.11597 -0.40832,0.17517c-2.16421,0.88792 -4.28615,1.18932 -6.60982,1.29201c-3.19468,0.18846 -6.09459,0.67831 -8.92323,2.24213c-0.50375,0.27423 -1.00933,0.48926 -1.5457,0.69221c0,0.13711 0,0.27362 0,0.41496c-0.41074,0.10329 -0.41074,0.10329 -0.82993,0.20779c0,0.13711 0,0.27422 0,0.41556c-0.31228,0.30745 -0.31227,0.30745 -0.73932,0.66201c-0.83536,0.70913 -1.61033,1.46053 -2.37381,2.24576c-0.25792,-0.77375 -0.11416,-0.99543 0.18121,-1.73959c0.62939,-1.59885 0.9767,-3.15058 0.35034,-4.80319c-0.46812,-0.98335 -1.17966,-1.58677 -2.02046,-2.25783c-0.18785,-0.16792 -0.18785,-0.16792 -0.37932,-0.33886c0,-0.13711 0,-0.27423 0,-0.41496c0.41496,-0.10087 0.82992,-0.19993 1.24549,-0.29899c0.23134,-0.05496 0.46207,-0.11054 0.70067,-0.16791c1.42368,-0.29597 2.80991,-0.39564 4.25957,-0.41557c0.35577,-0.00664 0.71154,-0.01328 1.06791,-0.02053c0.54966,-0.00967 1.09932,-0.01873 1.64959,-0.02718c8.12229,-0.12745 13.7083,-2.27596 19.92611,-7.45002c2.35085,-1.94495 4.75124,-3.80776 7.26519,-5.53708c0.22168,-0.15402 0.44336,-0.30745 0.67168,-0.46631c6.25224,-4.29218 6.25224,-4.29219 8.66833,-4.72648c0.62275,-0.20779 0.62275,-0.20778 1.03771,-0.20778z" fill="#a96021" stroke="none" stroke-width="1" stroke-miterlimit="10"/><path d="M85.20795,7.19805c-1.4575,4.39741 -4.49212,8.77132 -8.63571,10.92665c-1.57046,0.75008 -2.98992,1.02593 -4.72285,1.12136c-0.55691,0.02471 -0.55691,0.02471 -1.15429,0.25249c-0.36604,-0.64383 -0.41436,-0.88254 -0.41436,-1.66789c-0.13711,-0.0688 -0.27363,-0.1376 -0.41496,-0.20845c0.97791,-3.50013 2.79542,-5.93881 5.89103,-7.80754c1.36147,-0.72573 2.81414,-1.2005 4.28192,-1.65774c0.39382,-0.1228 0.78704,-0.24928 1.17965,-0.37582c1.37959,-0.42541 2.54656,-0.68315 3.98957,-0.58306z" fill="#77a32a" stroke="none" stroke-width="1" stroke-miterlimit="10"/><path d="M-5.53804,29.22332c2.92951,2.72294 3.52267,8.0921 3.9334,11.83281h-0.41436l0.06524,0.7653c-0.00665,1.99992 -0.90483,3.77937 -2.26871,5.19399l-0.28087,0.26819c-1.02986,-0.13651 -1.35482,-0.46208 -1.9818,-1.24972c-1.12349,-1.56442 -1.12349,-1.56442 -1.12349,-2.27958c-0.25611,-0.44879 -0.32255,-0.26335 -0.41436,-0.41496l-0.1359,-0.49529c-1.18751,-4.65883 0.08154,-9.30498 2.41367,-13.41294z" fill="#75a125" stroke="none" stroke-width="1" stroke-miterlimit="10"/><path d="M71.40603,23.40072c2.9869,0.66092 6.36942,2.03266 8.42491,4.36147c-0.10268,0.30745 -0.10268,0.30745 -0.20779,0.62094c-3.423,1.66046 -8.41283,2.523 -12.09435,1.2763c-2.1612,-0.91872 -4.10675,-1.8332 -5.75815,-3.55298c0.74235,-0.60904 1.50704,-1.15417 2.30918,-1.68154c0.21443,-0.1414 0.42946,-0.2828 0.65053,-0.42844c0.18785,-0.12328 0.3757,-0.24657 0.56899,-0.37353c1.53543,-1.02025 4.35017,-0.54591 6.10667,-0.22222z" fill="#7aa52f" stroke="none" stroke-width="1" stroke-miterlimit="10"/><path d="M30.09629,45.29456c1.74019,-0.03261 1.29865,0.12322 1.75288,0.32376l0.97187,0.88248l0.54724,0.49651c0.53939,0.48805 0.5394,0.48805 1.08302,0.89093c1.34093,1.13012 2.43602,2.79904 3.20555,4.37313v0.62215c-5.07621,0.14074 -10.22248,-0.52067 -14.10454,-4.15145c-1.42912,-1.61455 -1.42912,-1.61455 -1.86704,-2.49099l-0.27665,-0.42765c3.44776,0.04591 5.25198,-0.20597 8.68766,-0.51886z" fill="#7ca532" stroke="none" stroke-width="1" stroke-miterlimit="10"/><path d="M29.37872,13.6402c1.11382,3.6646 0.6759,7.99363 -0.98637,11.40685c-0.15282,0.2828 -0.30745,0.56477 -0.46752,0.84352c0.30866,0.10274 0.30866,0.10274 0.62335,0.20761c-0.15705,0.01782 -0.31409,0.03557 -0.47597,0.05388c-0.71577,0.08124 -1.43153,0.1629 -2.1467,0.24457c-0.24705,0.02803 -0.4947,0.056 -0.74899,0.08481c-0.2398,0.02742 -0.4796,0.05485 -0.72664,0.08311c-0.21926,0.025 -0.43912,0.05002 -0.66563,0.07581c-0.6312,0.07997 -1.25697,0.17957 -1.88334,0.28836c0.20537,-0.10274 0.20537,-0.10274 0.41496,-0.20761c-0.06825,-0.13706 -0.13711,-0.2741 -0.20779,-0.41527c-0.02839,-4.50305 1.9371,-8.02541 4.98561,-11.21218c1.45871,-1.45346 1.45871,-1.45346 2.28502,-1.45346z" fill="#76a32a" stroke="none" stroke-width="1" stroke-miterlimit="10"/><path d="M61.71931,45.4957c0.64691,0.23316 1.1555,0.60583 1.71663,0.99905c0.20597,0.13711 0.41195,0.27423 0.62456,0.41496c0,0.20597 0,0.41135 0,0.62336c0.15704,0.34732 0.32798,0.68858 0.50677,1.02502c1.40435,2.64622 0.89517,6.0203 0.15221,8.81632c-0.23073,0.70972 -0.51221,1.33791 -0.86738,1.99388c-0.64872,-0.27544 -0.96583,-0.51463 -1.32462,-1.11866c-0.08517,-0.14194 -0.17034,-0.28388 -0.25731,-0.43006c-0.08759,-0.15282 -0.17456,-0.30564 -0.26456,-0.46268c-0.13711,-0.23618 -0.13711,-0.23617 -0.27604,-0.47657c-1.43576,-2.53509 -2.98387,-5.61319 -2.35146,-8.59162c0.32194,-1.08724 0.76892,-1.81388 1.5608,-2.62448c0.41617,-0.20779 0.41617,-0.20778 0.78039,-0.16852z" fill="#7aa532" stroke="none" stroke-width="1" stroke-miterlimit="10"/><path d="M64.06533,44.99255c0.14496,0.0296 0.29054,0.0598 0.44034,0.0906c0.29536,0.05799 0.29536,0.05799 0.59617,0.11658c0.27483,0.05678 0.27483,0.05678 0.55449,0.11416c0.65174,0.08819 1.25999,0.08698 1.91536,0.05859c2.91139,-0.11114 5.04782,0.99543 7.48324,2.52542c0.14195,0.08698 0.28449,0.17335 0.43127,0.26275c0.34611,0.21745 0.34611,0.21744 0.81242,0.56778c0,0.13711 0,0.27362 0,0.41496c0.1196,0.05134 0.2398,0.10268 0.36302,0.15584c0.52852,0.29416 0.8849,0.64872 1.29623,1.08966c-0.10268,0.30805 -0.10268,0.30805 -0.20779,0.62274c-2.79542,0.96704 -6.64183,0.79912 -9.33094,-0.41557c-1.53301,-0.8565 -2.55683,-1.86764 -3.52447,-3.32092c-0.20537,-0.13651 -0.41074,-0.27362 -0.62215,-0.41496c0.27362,-0.06825 0.54725,-0.13711 0.82933,-0.20718c-0.04047,-0.4053 -0.04047,-0.4053 -0.20718,-0.83053c-0.41134,-0.26638 -0.41134,-0.26637 -0.82932,-0.41496c0,-0.13711 0,-0.27422 0,-0.41496z" fill="#7ba631" stroke="none" stroke-width="1" stroke-miterlimit="10"/><path d="M85.20795,7.19793c-0.45725,1.30083 -1.02442,2.5114 -1.65864,3.73521c-0.41436,-0.62257 -0.41436,-0.62257 -0.41436,-1.03759c0.20537,0 0.41013,0 0.62154,0c0.06886,-0.47935 0.13711,-0.95864 0.20779,-1.45255c0.20537,0 0.41012,0 0.62153,0c0,-0.20543 0,-0.41085 0,-0.62257c-0.71819,0.49367 -1.36025,0.94421 -1.96911,1.56931c-0.43429,0.42354 -0.73933,0.65211 -1.25698,0.93382c-0.69583,0.34653 -0.69583,0.34653 -1.07818,0.7871c-0.59074,0.5667 -1.25456,0.9372 -1.9673,1.32692c-0.14436,0.08046 -0.28933,0.16091 -0.43852,0.24379c-1.03227,0.56862 -2.08025,1.10222 -3.13789,1.6238c-1.11322,0.54978 -2.20106,1.09201 -3.21341,1.81575c-0.06826,0.20543 -0.13651,0.41086 -0.20718,0.62251c-0.27241,0.28093 -0.54845,0.55781 -0.82932,0.83005c-0.06825,0.13699 -0.13711,0.27392 -0.20718,0.41502c-0.13711,-0.13693 -0.27363,-0.27392 -0.41496,-0.41502c0.97791,-3.48376 2.79542,-5.91109 5.89103,-7.77112c1.36147,-0.72229 2.81414,-1.19488 4.28192,-1.64995c0.39382,-0.12225 0.78704,-0.24813 1.17965,-0.37407c1.37959,-0.42348 2.54656,-0.68001 3.98957,-0.5804z" fill="#8dbc2e" stroke="none" stroke-width="1" stroke-miterlimit="10"/><path d="M-5.51448,29.22332c0.62033,0.52852 0.93442,1.1259 1.25214,1.86825l-0.20839,0.41496h-0.41738c-0.49289,5.44224 -0.49288,5.44225 -0.69161,10.89899c-0.0006,0.16127 -0.00181,0.32254 -0.00302,0.48925c0.01329,1.04375 0.21865,1.93529 0.48564,2.93555c0.03202,0.49107 0.02053,0.96039 0,1.45328c-1.17422,-0.83476 -1.86039,-1.83079 -2.50368,-3.11374c0,-0.13832 0.06946,-0.27665 0,-0.41557c-0.06946,-0.13832 -0.32497,-0.26335 -0.41738,-0.41496l-0.13711,-0.49529c-1.19657,-4.65883 0.08214,-9.30498 2.4324,-13.41294z" fill="#8fbc31" stroke="none" stroke-width="1" stroke-miterlimit="10"/><path d="M71.39092,23.40048c2.99233,0.66044 6.3809,2.03127 8.44002,4.35869c-0.10329,0.30685 -0.10329,0.30684 -0.20779,0.62033c-0.13771,0 -0.27483,0 -0.41617,0c0,-0.20477 0,-0.40953 0,-0.62033c-0.13711,0.06825 -0.27423,0.13651 -0.41617,0.20657c-3.66219,0.30563 -8.52095,-0.3365 -11.46314,-2.62405c-0.2694,-0.22771 -0.53818,-0.45604 -0.80577,-0.68508c-0.20597,-0.13651 -0.41195,-0.27296 -0.62395,-0.41363c0,-0.13651 0,-0.27302 0,-0.41363c-0.20597,-0.06825 -0.41195,-0.1365 -0.62396,-0.20682c1.53784,-1.01953 4.35742,-0.54555 6.11694,-0.22204z" fill="#90be35" stroke="none" stroke-width="1" stroke-miterlimit="10"/><path d="M29.16006,45.35074c0.57261,0.03503 2.08328,0.0761 2.69515,0.26879l0.9755,0.88671l0.54906,0.49892c0.5412,0.49107 0.5412,0.49107 1.08664,0.89456c0.59375,0.50254 1.01415,1.04375 1.47382,1.67133l0.47657,0.6451c1.05885,1.51247 1.05885,1.51247 1.05885,2.08085c-8.68344,-2.75011 -8.68343,-2.75012 -11.03308,-5.63372l-0.20839,-0.62637l-0.41617,-0.41738l2.60213,-0.20839z" fill="#92bc37" stroke="none" stroke-width="1" stroke-miterlimit="10"/><path d="M29.3908,13.6402c-0.06886,0.20555 -0.13772,0.41116 -0.20839,0.62293c-0.08033,0.35571 -0.16007,0.71142 -0.23979,1.06725c-0.65114,2.82235 -1.70637,5.36047 -3.50515,7.65333c-0.10812,0.15524 -0.21684,0.31047 -0.32859,0.47042c-0.09725,0.11881 -0.19509,0.23768 -0.29536,0.36011c-0.13772,0 -0.27483,0 -0.41617,0c-0.04288,0.1199 -0.08577,0.2398 -0.12987,0.36332c-0.2863,0.46721 -0.2863,0.46721 -0.92355,0.86949c-0.65537,0.36724 -0.65537,0.36725 -0.79308,0.99924c-0.00845,0.15414 -0.01752,0.30829 -0.02597,0.46715c0.20597,0.0685 0.41194,0.13705 0.62395,0.20766c-0.61792,0.10274 -0.61791,0.10274 -1.24791,0.20761c0.20597,-0.10274 0.20597,-0.10274 0.41557,-0.20761c-0.06826,-0.13706 -0.13711,-0.2741 -0.20778,-0.41527c-0.029,-4.50305 1.93952,-8.02541 4.99346,-11.21218c1.46052,-1.45346 1.46053,-1.45346 2.28865,-1.45346z" fill="#8ebc31" stroke="none" stroke-width="1" stroke-miterlimit="10"/><path d="M64.05265,44.98832l0.44033,0.09181l0.59617,0.11779l0.5551,0.11537c0.65113,0.08879 1.25938,0.08759 1.91475,0.05859c2.91199,-0.11235 5.04842,1.00449 7.48324,2.54777l0.43187,0.26516c0.3455,0.21926 0.34551,0.21926 0.81242,0.57262v0.41859l0.36241,0.15704c0.52913,0.29718 0.8855,0.65477 1.29623,1.09933l-0.20718,0.62818l-1.24428,0.2096l-0.20718,-0.62819c-0.60342,-0.23436 -0.60343,-0.23436 -1.3349,-0.4059c-2.05549,-0.52611 -3.85668,-1.3367 -5.6766,-2.43421l-0.51463,-0.30504c-0.66321,-0.39503 -1.32401,-0.79127 -1.97575,-1.20563c-0.49167,-0.30503 -0.49167,-0.30503 -1.28053,-0.4651v2.09355l-0.62214,-0.62819l-0.62214,-0.41859l-0.20718,-1.46596z" fill="#92bf3b" stroke="none" stroke-width="1" stroke-miterlimit="10"/><path d="M62.35474,46.261c0.71154,0.11355 1.07214,0.21926 1.68703,0.62395c0,0.20597 0,0.41195 0,0.62395c0.15946,0.34792 0.33282,0.6904 0.51403,1.02745c1.42308,2.65166 0.90724,6.03238 0.15403,8.83444c-0.23376,0.71094 -0.51886,1.34033 -0.87886,1.99751c-0.6312,-0.22832 -0.8112,-0.34912 -1.10717,-0.96221c-0.05194,-0.16308 -0.10449,-0.32617 -0.15825,-0.49409c0.27846,0.13711 0.55691,0.27423 0.84382,0.41617c0.06947,-1.18449 -0.13893,-2.25421 -0.3751,-3.41394c-0.59376,-2.91804 -0.82268,-5.68265 -0.67952,-8.65323z" fill="#92bf3a" stroke="none" stroke-width="1" stroke-miterlimit="10"/><path d="M76.92317,49.58312c0.34188,0.2694 0.68375,0.53819 1.0359,0.81544c-0.06825,0.20174 -0.13711,0.40409 -0.20718,0.61187c-0.41013,0.06705 -0.82027,0.13469 -1.24248,0.20355c0,-0.20174 0,-0.40349 0,-0.61128c0.20477,-0.06765 0.41013,-0.13469 0.62094,-0.20415c-0.06825,-0.26879 -0.13651,-0.53819 -0.20718,-0.81544z" fill="#adca74" stroke="none" stroke-width="1" stroke-miterlimit="10"/></g></g></svg>