<svg version="1.1" xmlns="http://www.w3.org/2000/svg" xmlns:xlink="http://www.w3.org/1999/xlink" width="407.4408" height="272.07053" viewBox="0,0,407.4408,272.07053"><g transform="translate(-37.36674,-43.99443)"><g stroke-width="1.5"><path d="M88.39952,285.59076c26.32949,-70.60122 14.18316,-63.86511 21.27474,-95.79855h13.25895c7.09158,31.93344 1.70447,70.13556 21.27474,95.79855z" fill="#843c0c" fill-rule="evenodd" stroke="#000000" stroke-miterlimit="8"/><path d="M62.98358,239.73543c32.3369,-36.07997 36.07997,-53.32016 54.11996,-79.98023c18.03999,26.66008 18.66383,43.90026 54.11996,79.98023c-50.11739,-16.22177 -66.70174,-16.22177 -108.23992,0z" fill="#548235" fill-rule="evenodd" stroke="#000000" stroke-miterlimit="8"/><path d="M69.02653,195.30197c29.80064,-23.46798 40.36869,-62.08954 48.07701,-62.56232c9.7878,0.47277 7.10047,26.55344 48.07701,62.56232c-43.22665,-11.4976 -58.90455,-10.97507 -96.15402,0z" fill="#548235" fill-rule="evenodd" stroke="#000000" stroke-miterlimit="8"/><path d="M76.66909,157.26691c23.62083,-21.78128 26.42369,-41.47064 39.63465,-62.20685c13.21096,20.73621 2.74243,21.59644 39.63465,62.20685c-39.69508,-13.59842 -30.20765,-15.16781 -79.2693,0z" fill="#548235" fill-rule="evenodd" stroke="#000000" stroke-miterlimit="8"/><path d="M85.02258,122.07561c28.41076,-29.06873 23.21026,-31.47631 31.5602,-48.52134c7.30664,19.13625 10.44364,30.42981 32.60172,48.52134c-29.72421,-11.50116 -33.13492,-12.0237 -64.16192,0z" fill="#548235" fill-rule="evenodd" stroke="#000000" stroke-miterlimit="8"/><path d="M112.1605,237.6035l-9.36453,37.8742" fill="none" fill-rule="evenodd" stroke="#000000" stroke-miterlimit="8"/><path d="M114.17093,275.63944l1.99419,-33.23765" fill="none" fill-rule="evenodd" stroke="#000000" stroke-miterlimit="8"/><path d="M129.68354,275.52036l-8.04779,-34.5408" fill="none" fill-rule="evenodd" stroke="#000000" stroke-miterlimit="8"/><path d="M99.503,219.47459l-14.48042,3.40456" fill="none" fill-rule="evenodd" stroke="#000000" stroke-miterlimit="8"/><path d="M96.12133,210.05378l-11.09875,13.05286" fill="none" fill-rule="evenodd" stroke="#000000" stroke-miterlimit="8"/><path d="M88.75499,182.61711l10.74931,-3.84389" fill="none" fill-rule="evenodd" stroke="#000000" stroke-miterlimit="8"/><path d="M96.12263,173.6183l-7.36764,9.21918" fill="none" fill-rule="evenodd" stroke="#000000" stroke-miterlimit="8"/><path d="M92.13194,147.12187l9.18859,-3.54101" fill="none" fill-rule="evenodd" stroke="#000000" stroke-miterlimit="8"/><path d="M98.199,140.38196l-6.06707,6.99939" fill="none" fill-rule="evenodd" stroke="#000000" stroke-miterlimit="8"/><path d="M110.38495,107.67862l-9.18859,3.54101" fill="none" fill-rule="evenodd" stroke="#000000" stroke-miterlimit="8"/><path d="M101.19636,111.47912l6.06707,-6.99939" fill="none" fill-rule="evenodd" stroke="#000000" stroke-miterlimit="8"/><path d="M139.7646,224.98351l14.47998,3.40538" fill="none" fill-rule="evenodd" stroke="#000000" stroke-miterlimit="8"/><path d="M154.41876,228.61639l-11.09948,-13.05277" fill="none" fill-rule="evenodd" stroke="#000000" stroke-miterlimit="8"/><path d="M152.11356,187.41592l-10.74934,-3.84438" fill="none" fill-rule="evenodd" stroke="#000000" stroke-miterlimit="8"/><path d="M152.10822,187.63631l-7.36707,-9.21906" fill="none" fill-rule="evenodd" stroke="#000000" stroke-miterlimit="8"/><path d="M134.07712,144.64781l9.18884,3.54046" fill="none" fill-rule="evenodd" stroke="#000000" stroke-miterlimit="8"/><path d="M137.09859,141.27087l6.06783,6.99916" fill="none" fill-rule="evenodd" stroke="#000000" stroke-miterlimit="8"/><path d="M133.13513,110.15322l-9.18884,-3.54046" fill="none" fill-rule="evenodd" stroke="#000000" stroke-miterlimit="8"/><path d="M133.21334,110.41271l-6.06783,-6.99916" fill="none" fill-rule="evenodd" stroke="#000000" stroke-miterlimit="8"/><path d="M114.08358,203.58095l-9.86397,4.73469" fill="none" fill-rule="evenodd" stroke="#000000" stroke-miterlimit="8"/><path d="M110.21157,198.83201l-5.95641,9.61515" fill="none" fill-rule="evenodd" stroke="#000000" stroke-miterlimit="8"/><path d="M133.76787,215.91198l-11.07279,-18.58004" fill="none" fill-rule="evenodd" stroke="#000000" stroke-miterlimit="8"/><path d="M122.62122,203.09314l11.20708,12.78685" fill="none" fill-rule="evenodd" stroke="#000000" stroke-miterlimit="8"/><path d="M107.09535,167.99671l7.85052,-8.28808" fill="none" fill-rule="evenodd" stroke="#000000" stroke-miterlimit="8"/><path d="M109.60257,156.64708l-2.40414,11.55402" fill="none" fill-rule="evenodd" stroke="#000000" stroke-miterlimit="8"/><path d="M127.60228,169.53233l-7.8505,-8.28773" fill="none" fill-rule="evenodd" stroke="#000000" stroke-miterlimit="8"/><path d="M127.49919,169.73672l-2.40296,-11.55448" fill="none" fill-rule="evenodd" stroke="#000000" stroke-miterlimit="8"/><path d="M114.2951,126.51841l-9.18859,3.54101" fill="none" fill-rule="evenodd" stroke="#000000" stroke-miterlimit="8"/><path d="M111.17358,123.14178l-6.06707,6.99939" fill="none" fill-rule="evenodd" stroke="#000000" stroke-miterlimit="8"/><path d="M120.72518,120.10655l7.40497,17.00357" fill="none" fill-rule="evenodd" stroke="#000000" stroke-miterlimit="8"/><path d="M121.14206,126.56744l7.09473,10.50713" fill="none" fill-rule="evenodd" stroke="#000000" stroke-miterlimit="8"/><path d="M114.78468,104.48956l3.07601,-18.28917" fill="none" fill-rule="evenodd" stroke="#000000" stroke-miterlimit="8"/><path d="M117.75227,86.17106l0.20986,12.6764" fill="none" fill-rule="evenodd" stroke="#000000" stroke-miterlimit="8"/><path d="M38.80527,315.25546c67.06503,-96.03493 177.22198,-269.77546 200.54244,-270.51093c27.89,0.24669 134.78269,174.47599 201.84701,270.51093z" fill="#8faadc" fill-rule="evenodd" stroke="#000000" stroke-miterlimit="8"/><path d="M247.34217,150.95296c-5.86522,15.26734 -27.40656,22.90812 -48.11362,17.06423c-7.65802,-2.16124 -14.46807,-6.00029 -19.51464,-10.99817l30.13353,-16.64655z" fill="#dae3f3" fill-rule="evenodd" stroke="none" stroke-miterlimit="10"/><path d="M247.34217,150.95295c-5.86522,15.26734 -27.40656,22.90812 -48.11362,17.06423c-7.65802,-2.16124 -14.46807,-6.00029 -19.51464,-10.99817" fill="none" fill-rule="evenodd" stroke="#000000" stroke-miterlimit="8"/><path d="M154.2434,146.94327c27.39376,-39.24986 71.36903,-102.01052 85.58596,-101.3945c15.67613,-0.20457 61.37683,64.58902 88.77095,103.84012c-40.41135,-0.67539 -48.79861,2.62335 -89.41257,4.85036c-40.41703,5.97008 -54.31813,-4.10032 -84.94434,-7.29597z" fill="#dae3f3" fill-rule="evenodd" stroke="none" stroke-miterlimit="10"/><path d="M204.37146,152.5721c-16.66948,7.24265 -37.67033,5.23782 -51.43991,-4.90723l30.01587,-23.29558z" fill="#dae3f3" fill-rule="evenodd" stroke="none" stroke-miterlimit="10"/><path d="M204.37146,152.57211c-16.66948,7.24265 -37.67033,5.23782 -51.43991,-4.90723" fill="none" fill-rule="evenodd" stroke="#000000" stroke-miterlimit="8"/><path d="M166.77364,203.23159l143.2741,-8.12375" fill="none" fill-rule="evenodd" stroke="#000000" stroke-miterlimit="8"/><path d="M273.93756,216.79091l-116.40608,21.14855" fill="none" fill-rule="evenodd" stroke="#000000" stroke-miterlimit="8"/><path d="M272.34755,258.55836l112.82367,42.57614" fill="none" fill-rule="evenodd" stroke="#000000" stroke-miterlimit="8"/><path d="M309.91159,293.66081l-200.72373,-15.72945" fill="none" fill-rule="evenodd" stroke="#000000" stroke-miterlimit="8"/><path d="M285.78778,142.68656c-5.90965,15.58015 -27.58074,24.62503 -48.40226,20.20301c-5.3018,-1.12683 -10.22503,-3.07657 -14.45154,-5.72303l25.1529,-22.48866z" fill="#dae3f3" fill-rule="evenodd" stroke="none" stroke-miterlimit="10"/><path d="M285.78778,142.68656c-5.90965,15.58015 -27.58074,24.62503 -48.40226,20.20301c-5.3018,-1.12683 -10.22503,-3.07657 -14.45154,-5.72303" fill="none" fill-rule="evenodd" stroke="#000000" stroke-miterlimit="8"/><path d="M329.51031,149.76213c-16.37995,10.58761 -41.12761,9.2315 -55.27523,-3.02503c-0.59719,-0.51721 -1.16949,-1.05041 -1.71691,-1.59783l31.37713,-17.57077z" fill="#dae3f3" fill-rule="evenodd" stroke="none" stroke-miterlimit="10"/><path d="M329.51031,149.76213c-16.37995,10.58761 -41.12761,9.2315 -55.27523,-3.02503c-0.59719,-0.51721 -1.16949,-1.05041 -1.71691,-1.59783" fill="none" fill-rule="evenodd" stroke="#000000" stroke-miterlimit="8"/><path d="M383.56407,315.31496c18.61777,-49.92262 10.02901,-45.15947 15.04352,-67.73983h9.3755c5.01451,22.58036 1.20524,49.59335 15.04352,67.73983z" fill="#843c0c" fill-rule="evenodd" stroke="#000000" stroke-miterlimit="8"/><path d="M365.59228,282.89032c22.86565,-25.5124 25.5124,-37.70306 38.26861,-56.55459c12.7562,18.85153 13.19733,31.04218 38.26861,56.55459c-35.43836,-11.47053 -47.16527,-11.47053 -76.53721,0z" fill="#548235" fill-rule="evenodd" stroke="#000000" stroke-miterlimit="8"/><path d="M369.86529,251.47111c21.07224,-16.59437 28.54499,-43.90395 33.99559,-44.23826c6.92102,0.3343 5.02079,18.77613 33.99559,44.23826c-30.56587,-8.13003 -41.65182,-7.76055 -67.99119,0z" fill="#548235" fill-rule="evenodd" stroke="#000000" stroke-miterlimit="8"/><path d="M375.2694,224.57625c16.70246,-15.4017 18.68438,-29.32418 28.02594,-43.9869c9.34156,14.66272 1.93919,15.271 28.02594,43.9869c-28.06867,-9.61554 -21.36004,-10.72527 -56.05188,0z" fill="#548235" fill-rule="evenodd" stroke="#000000" stroke-miterlimit="8"/><path d="M381.17621,199.69223c20.08945,-20.5547 16.41214,-22.25712 22.31644,-34.30978c5.16658,13.53138 7.38477,21.51713 23.05291,34.30978c-21.0182,-8.13255 -23.42994,-8.50204 -45.36935,0z" fill="#548235" fill-rule="evenodd" stroke="#000000" stroke-miterlimit="8"/><path d="M400.36563,281.38282l-6.62173,26.78111" fill="none" fill-rule="evenodd" stroke="#000000" stroke-miterlimit="8"/><path d="M403.19732,284.77572l-1.41011,23.50258" fill="none" fill-rule="evenodd" stroke="#000000" stroke-miterlimit="8"/><path d="M407.06564,283.77006l5.69065,24.42404" fill="none" fill-rule="evenodd" stroke="#000000" stroke-miterlimit="8"/><path d="M391.41542,268.56374l-10.23921,2.40739" fill="none" fill-rule="evenodd" stroke="#000000" stroke-miterlimit="8"/><path d="M389.02421,261.90221l-7.848,9.22977" fill="none" fill-rule="evenodd" stroke="#000000" stroke-miterlimit="8"/><path d="M391.41634,239.78351l-7.60091,2.71804" fill="none" fill-rule="evenodd" stroke="#000000" stroke-miterlimit="8"/><path d="M383.81543,242.65738l5.20971,-6.51895" fill="none" fill-rule="evenodd" stroke="#000000" stroke-miterlimit="8"/><path d="M386.20329,217.40262l6.49732,-2.50387" fill="none" fill-rule="evenodd" stroke="#000000" stroke-miterlimit="8"/><path d="M386.20328,217.5861l4.29007,-4.94932" fill="none" fill-rule="evenodd" stroke="#000000" stroke-miterlimit="8"/><path d="M392.6128,192.01588l6.49732,-2.50387" fill="none" fill-rule="evenodd" stroke="#000000" stroke-miterlimit="8"/><path d="M396.90288,187.25005l-4.29007,4.94932" fill="none" fill-rule="evenodd" stroke="#000000" stroke-miterlimit="8"/><path d="M419.88469,272.45913l10.2389,2.40797" fill="none" fill-rule="evenodd" stroke="#000000" stroke-miterlimit="8"/><path d="M422.39822,265.79826l7.84852,9.22971" fill="none" fill-rule="evenodd" stroke="#000000" stroke-miterlimit="8"/><path d="M421.01579,243.17643l7.60093,2.71839" fill="none" fill-rule="evenodd" stroke="#000000" stroke-miterlimit="8"/><path d="M428.61294,246.05066l-5.20931,-6.51886" fill="none" fill-rule="evenodd" stroke="#000000" stroke-miterlimit="8"/><path d="M415.86302,215.65319l6.49749,2.50348" fill="none" fill-rule="evenodd" stroke="#000000" stroke-miterlimit="8"/><path d="M422.29014,218.2145l-4.29061,-4.94916" fill="none" fill-rule="evenodd" stroke="#000000" stroke-miterlimit="8"/><path d="M408.69944,188.75834l6.49749,2.50348" fill="none" fill-rule="evenodd" stroke="#000000" stroke-miterlimit="8"/><path d="M410.96163,186.49615l4.29061,4.94916" fill="none" fill-rule="evenodd" stroke="#000000" stroke-miterlimit="8"/><path d="M401.72545,257.32523l-6.97488,3.34793" fill="none" fill-rule="evenodd" stroke="#000000" stroke-miterlimit="8"/><path d="M394.7757,260.76616l4.21182,-6.79894" fill="none" fill-rule="evenodd" stroke="#000000" stroke-miterlimit="8"/><path d="M415.64435,266.04459l-7.82965,-13.13808" fill="none" fill-rule="evenodd" stroke="#000000" stroke-miterlimit="8"/><path d="M415.68708,266.02197l-7.92461,-9.04167" fill="none" fill-rule="evenodd" stroke="#000000" stroke-miterlimit="8"/><path d="M402.33518,226.3028l-5.55116,5.86056" fill="none" fill-rule="evenodd" stroke="#000000" stroke-miterlimit="8"/><path d="M398.5569,224.13796l-1.69998,8.16993" fill="none" fill-rule="evenodd" stroke="#000000" stroke-miterlimit="8"/><path d="M405.73348,227.3889l5.55114,5.86031" fill="none" fill-rule="evenodd" stroke="#000000" stroke-miterlimit="8"/><path d="M409.51257,225.22348l1.69915,8.17025" fill="none" fill-rule="evenodd" stroke="#000000" stroke-miterlimit="8"/><path d="M395.3777,205.33764l6.49732,-2.50387" fill="none" fill-rule="evenodd" stroke="#000000" stroke-miterlimit="8"/><path d="M399.66777,200.44612l-4.29007,4.94932" fill="none" fill-rule="evenodd" stroke="#000000" stroke-miterlimit="8"/><path d="M411.65788,210.32323l-5.23611,-12.02334" fill="none" fill-rule="evenodd" stroke="#000000" stroke-miterlimit="8"/><path d="M411.73328,210.2981l-5.01673,-7.42967" fill="none" fill-rule="evenodd" stroke="#000000" stroke-miterlimit="8"/><path d="M404.39627,174.32461l-2.17507,12.9324" fill="none" fill-rule="evenodd" stroke="#000000" stroke-miterlimit="8"/><path d="M404.468,183.26743l-0.14839,-8.96357" fill="none" fill-rule="evenodd" stroke="#000000" stroke-miterlimit="8"/><path d="M135.7224,237.53894c-5.49526,9.22108 -10.64209,8.57729 -15.94241,3.11227c-5.30033,-5.465 -3.03578,-11.55753 1.06989,-18.44689c4.10568,-6.88934 13.56819,-20.30418 20.04911,-13.62189c6.48093,6.6823 0.31865,19.73541 -5.1766,28.95649z" fill="#546381" fill-rule="nonzero" stroke="#000000" stroke-miterlimit="10"/><path d="M347.55293,246.5961c1.03833,6.36187 -1.74055,8.80939 -6.54344,9.51316c-4.80289,0.70378 -6.15752,-2.78525 -6.93329,-7.5384c-0.77576,-4.75315 -1.56795,-14.77597 4.30474,-15.6365c5.8727,-0.86053 8.13365,7.29987 9.17199,13.66174z" fill="#546381" fill-rule="nonzero" stroke="#000000" stroke-miterlimit="10"/><path d="M228.93001,257.57077c1.81998,5.76748 -3.0508,7.98633 -11.46922,8.62434c-8.41843,0.63803 -10.7928,-2.52503 -12.15256,-6.83409c-1.35975,-4.30906 -2.74829,-13.39544 7.54527,-14.17557c10.29357,-0.78013 14.25653,6.61784 16.0765,12.38531z" fill="#546381" fill-rule="nonzero" stroke="#000000" stroke-miterlimit="10"/><path d="M268.01355,185.12519c-6.36187,1.03834 -8.80939,-1.74055 -9.51316,-6.54343c-0.70378,-4.80289 2.78526,-6.15752 7.5384,-6.9333c4.75315,-0.77576 14.77597,-1.56795 15.6365,4.30473c0.86054,5.8727 -7.29987,8.13365 -13.66174,9.17199z" fill="#546381" fill-rule="nonzero" stroke="#000000" stroke-miterlimit="10"/></g></g></svg>