<svg version="1.1" xmlns="http://www.w3.org/2000/svg" xmlns:xlink="http://www.w3.org/1999/xlink" width="107.17718" height="63.92629" viewBox="0,0,107.17718,63.92629"><g transform="translate(-186.40506,-148.03056)"><g fill-rule="evenodd" stroke="#000000" stroke-width="1.5" stroke-miterlimit="8"><path d="M234.80061,155.18219h12.412c1.71459,0 3.10377,1.39083 3.10377,3.10655v26.86018h31.37651c1.71356,0 3.10274,1.39124 3.10274,3.10686v12.42538c0,1.71562 -1.38918,3.10686 -3.10274,3.10686h-83.90068c-1.71356,0 -3.10274,-1.39124 -3.10274,-3.10686v-12.42538c0,-1.71562 1.38918,-3.10686 3.10274,-3.10686h33.90566v-26.86018c0,-1.71572 1.38918,-3.10655 3.10274,-3.10655z" fill="#548235"/><path d="M207.76774,188.1353l6.01806,-11.12168l4.89766,10.94558" fill="#ffd966"/><path d="M244.00895,181.09981l12.11027,-3.57541l-4.2458,11.1917" fill="#ffd966"/><path d="M199.22052,201.31655l-11.12168,-6.01806l10.94558,-4.89766" fill="#ffd966"/><path d="M229.24287,188.8407l-3.57541,-12.11027l11.1917,4.24477" fill="#ffd966"/><path d="M215.90303,199.25698l-6.01806,11.0187l-4.89766,-10.84363" fill="#ffd966"/><path d="M237.6315,199.25698l-6.01806,11.0187l-4.89766,-10.84363" fill="#ffd966"/><path d="M257.30038,198.94804l-6.01806,11.12168l-4.89766,-10.94558" fill="#ffd966"/><path d="M277.38118,199.25698l-6.01806,11.0187l-4.89766,-10.84363" fill="#ffd966"/><path d="M280.77948,188.75317l11.12168,6.0747l-10.94558,4.944" fill="#ffd966"/><path d="M261.72847,187.20849l6.01806,-11.12168l4.89766,10.94558" fill="#ffd966"/><path d="M235.46894,160.846l6.01806,-11.12168l4.89766,10.94517" fill="#ffd966"/><path d="M234.54214,174.54214l-11.12168,-6.01817l10.94558,-4.89755" fill="#ffd966"/><path d="M247.6204,163.62642l11.12168,6.01817l-10.94558,4.89755" fill="#ffd966"/></g></g></svg>