<svg version="1.1" xmlns="http://www.w3.org/2000/svg" xmlns:xlink="http://www.w3.org/1999/xlink" width="75.68325" height="53.36602" viewBox="0,0,75.68325,53.36602"><g transform="translate(-202.15837,-153.32452)"><g fill-rule="evenodd" stroke-width="0.4"><path d="M263.76156,187.82104c-0.47431,-0.02321 -0.43999,0.22 -0.60146,0.70641c-0.13927,0.4622 -0.4622,1.34219 -0.6943,1.94365c-0.2311,0.60247 -0.36935,1.20393 -0.2311,1.29678c0.32394,0.32394 9.2066,-1.20393 9.6688,-1.66714c0.18569,-0.18468 0.09284,-0.37036 -0.2311,-0.37036c-0.32394,-0.04642 -2.26658,-0.4622 -4.25564,-1.01825c-2.19796,-0.57825 -3.18088,-0.86788 -3.65519,-0.89109zM253.30965,169.65609c-4.22234,0.60146 -7.47487,5.2971 -6.8502,11.37226c0.55504,5.27692 4.34849,9.48916 8.51229,9.48916c1.89622,0 4.90352,-2.03649 6.06003,-4.07298l1.06467,-1.89824l1.52586,1.06467c2.12833,1.43503 6.56965,2.40686 7.49506,1.61971c2.96089,-2.45328 3.7006,-9.581 1.48044,-13.42288c-1.57329,-2.68538 -3.05373,-3.65721 -5.55141,-3.65721c-2.35942,0 -3.79344,0.87898 -4.81169,2.91648l-0.78614,1.43503l-1.34219,-1.71356c-0.78614,-0.97182 -1.8498,-1.99007 -2.35942,-2.26759c-1.51475,-0.81036 -3.02951,-1.06467 -4.43729,-0.86485zM247.47669,164.45688c-6.33755,-0.04642 -9.25302,0.6943 -15.72983,3.98115c-2.70557,1.42292 -6.68773,4.56546 -8.50927,6.5747l-0.42082,0.52779l0.10495,-0.0333c2.67428,-0.7155 5.23352,-1.01421 5.95205,0.36935c0.17963,0.34614 0.30174,0.87797 0.37339,1.54604c0.01009,0.32899 0.01917,0.65798 0.02926,0.98696l0.4299,0.14229c2.05264,0.83357 3.84491,1.87502 4.35454,2.70759c0.41578,0.6943 -0.04642,0.55605 -2.63795,-0.73972l-2.10814,-0.77201c0.00101,0.01413 0.00101,0.02725 0.00202,0.04137c-0.13927,5.3526 -1.86393,13.84471 -3.72482,14.79938c-0.93045,0.47734 -2.53906,-0.60247 -4.28188,-2.27263l-0.27853,-0.28862l-0.00404,0.00101c-0.98192,0.09486 -1.00816,0.29468 -0.80027,0.98898c1.06467,3.56436 4.34949,7.08231 8.32762,8.93412c4.44133,2.03649 8.42046,2.54511 17.07101,2.31401c10.82631,-0.32394 15.22121,-1.75897 19.38502,-6.38801c1.8498,-2.08291 3.05272,-4.3505 2.5441,-4.76729c-0.09284,-0.09284 -1.85081,0.13826 -3.83987,0.50862c-1.98906,0.32394 -3.74702,0.50963 -3.83987,0.41679c-0.09284,-0.09284 0.13927,-1.29577 0.50862,-2.59153c0.6943,-2.31502 0.6943,-2.40786 -0.09183,-1.75998c-6.19929,5.4626 -14.66617,0.23211 -15.26763,-9.3499c-0.18468,-2.91648 -0.04541,-3.93473 0.83357,-5.9248c1.29476,-2.9629 3.74702,-5.23049 7.40221,-6.89763c1.52586,-0.64788 2.72878,-1.43402 2.63694,-1.71255c-0.27752,-0.87898 -2.91547,-1.29577 -8.42046,-1.34219zM254.37028,153.53269c0.67008,0.08073 1.57228,0.37036 2.49768,0.83357c3.93271,2.03649 6.56965,6.34158 6.56965,10.73851c0,1.29678 0.27752,1.89824 1.1565,2.45327c0.60146,0.41679 1.43402,0.74073 1.80438,0.74073c1.52686,0 5.87535,2.36144 6.29213,3.47152c0.2311,0.55605 0.60146,1.20393 0.87898,1.3432c0.83256,0.50862 1.98906,5.55444 1.80438,7.68377c-0.23211,2.12933 -1.38861,5.18407 -2.54511,6.52626c-0.55504,0.64788 -0.50862,0.83357 0.18569,1.11109c0.4622,0.2311 0.92439,0.41679 1.06366,0.41679c0.13927,0.04642 0.50862,0.2311 0.83256,0.46321c0.32394,0.18468 1.1565,0.2311 1.80438,0.04541c1.01825,-0.2311 1.11008,-0.18468 0.6943,0.37036c-0.32394,0.32394 -1.75796,0.92641 -3.19198,1.25035c-3.51693,0.83256 -5.22848,1.71255 -5.22848,2.68438c0,1.20393 -2.35942,4.72188 -4.21023,6.34158c-3.14556,2.7308 -7.30937,4.39793 -13.6005,5.32334c-3.23841,0.50963 -16.93275,0.50963 -16.65523,0c0.27752,-0.46321 -1.43402,-0.9254 -3.60877,-0.9254c-1.06366,0 -2.26658,0.37036 -3.14556,1.01825c-1.61971,1.20292 -5.36673,1.43503 -7.67973,0.4622c-1.98906,-0.87898 -1.57329,-2.12833 0.50862,-1.66613c2.26658,0.50963 5.92177,0.32394 6.33856,-0.37036c0.41578,-0.6943 -0.64788,-2.03649 -1.85081,-2.36043c-0.4622,-0.09284 -1.66512,0.09284 -2.63694,0.46321c-0.97182,0.37036 -3.28483,0.74073 -5.08921,0.87898c-2.68337,0.18569 -3.37666,0.09284 -3.60877,-0.50862c-0.64687,-1.71356 0.09284,-2.0375 3.79344,-1.80539c4.02555,0.27752 5.32031,-0.18569 4.39592,-1.52787c-0.32394,-0.46321 -1.1565,-2.03649 -1.85081,-3.47152c-1.48044,-3.10116 -1.89723,-3.194 -5.32031,-1.48145l-2.40585,1.20393l0.83256,-1.25035c0.46321,-0.6943 0.60146,-1.11109 0.32394,-0.97182c-0.27752,0.18468 -0.50862,0.2311 -0.50862,0.04642c0,-0.13927 0.55504,-0.46321 1.20292,-0.6943c0.64788,-0.27752 1.06366,-0.64788 0.87898,-0.87999c-0.27752,-0.4622 -3.33125,0.74073 -7.63331,3.00933c-1.34219,0.6943 -2.54511,1.06467 -2.72979,0.83256c-0.2311,-0.2311 -0.78614,-1.57329 -1.29577,-3.00832l-0.9254,-2.54612l1.20292,-0.55504c0.64788,-0.32394 1.19586,-0.3855 1.99007,-0.55605c0.79421,-0.16954 1.71154,-0.18468 2.7752,-0.4622c-0.14936,-0.33807 -0.22202,-0.64687 -0.45009,-1.0132c-0.22706,-0.36633 -0.17963,-0.64587 -0.9143,-1.18577c-0.73467,-0.5399 -2.71768,-1.66815 -3.49271,-2.05365c-0.77403,-0.38651 -0.62669,-0.68421 -0.80834,-1.30283c-0.18165,-0.61862 -0.72761,-1.69439 -0.28156,-2.40988l7.81698,0.13119c0.49449,0.19477 2.27466,-0.23917 3.56235,-0.35321l6.50406,-3.80152l3.4695,-3.37969c1.94264,-1.85081 3.74702,-3.47152 4.07097,-3.60978c0.32394,-0.13927 1.38861,-0.78715 2.40584,-1.43503c1.01825,-0.64788 2.68336,-1.48145 3.70161,-1.85182c1.01724,-0.32394 2.03548,-0.78715 2.313,-0.97182c0.2311,-0.18569 0.87898,-0.37036 1.43402,-0.37036c0.60146,0 1.1565,-0.18569 1.29476,-0.41679c0.6943,-1.11109 11.38135,-1.52787 14.85085,-0.60146c1.71154,0.4622 1.75796,0.4622 0.9254,-0.18569c-0.50862,-0.37036 -1.80438,-0.9254 -2.86804,-1.24934c-1.11109,-0.27752 -1.99007,-0.6943 -1.99007,-0.87999c0,-0.18468 -0.73972,-0.37036 -1.66512,-0.37036c-1.85081,0 -5.27389,-0.87898 -5.27389,-1.38861c0,-0.74073 4.76527,-1.94365 6.56965,-1.66613c2.12833,0.32394 7.77157,2.91648 7.77157,3.56437c0,0.2311 0.27752,0.41678 0.64788,0.41678c0.32394,0 0.9254,0.4622 1.34219,1.01825c1.11008,1.71255 1.3876,0.64788 0.36935,-1.29678c-0.55504,-0.97182 -0.97081,-1.99007 -0.97081,-2.26759c0,-0.64788 -3.14657,-3.65721 -4.48775,-4.35151c-0.60146,-0.32394 -1.06366,-0.74073 -1.06366,-0.97182c0,-0.37036 0.43899,-0.49752 1.11008,-0.41679z" fill="#000000" stroke="#000000" stroke-miterlimit="8"/><path d="M268.58233,176.63345c0.441,0.07468 0.8255,0.45513 0.8255,1.07779c0,0.59944 0.22605,1.29072 0.49752,1.56723c0.72357,0.7377 0.31688,2.9518 -0.63375,3.55124c-0.67816,0.41477 -0.94962,0.32192 -1.49255,-0.36935c-0.63275,-0.92238 -0.8588,-3.78133 -0.36128,-5.07206c0.22605,-0.59944 0.72357,-0.83054 1.16458,-0.75485z" fill="#000000" stroke="#2f528f" stroke-miterlimit="8"/><path d="M257.7419,177.56087c0.52678,-0.14027 1.13632,0.16752 1.30787,0.76596c0.13725,0.46825 0.45816,1.31292 0.73366,1.87503c1.05357,2.25144 -0.91632,5.01857 -2.19897,3.18996c-0.64183,-0.89109 -0.87091,-4.97215 -0.32091,-5.53425c0.13725,-0.15238 0.30376,-0.24926 0.47834,-0.29669z" fill="#000000" stroke="#2f528f" stroke-miterlimit="8"/><path d="M265.02099,189.0835c0.58834,0.01817 1.16558,0.22706 1.48246,0.62366c0.63375,0.79219 0.31688,1.02531 -1.85585,1.16558c-1.76604,0.14027 -2.12833,-0.27954 -1.17769,-1.25843c0.36229,-0.37339 0.96274,-0.54798 1.55108,-0.53082z" fill="#000000" stroke="none" stroke-miterlimit="10"/><path d="M228.52964,178.18352l-0.02624,0.12009h0.39055zM247.46357,164.51138c5.50297,0.04642 8.13891,0.46119 8.41643,1.33916c0.09284,0.27651 -1.10907,1.06164 -2.63594,1.70851c-3.65317,1.66209 -6.10342,3.92464 -7.39818,6.87947c-0.87898,1.98503 -1.01724,3.00125 -0.83256,5.90966c0.60146,9.55779 9.0633,14.77516 15.26057,9.32669c0.78614,-0.64587 0.78614,-0.55403 0.09183,1.75494c-0.36935,1.29274 -0.60045,2.49263 -0.50862,2.58548c0.09284,0.09183 1.8498,-0.09284 3.83886,-0.41577c1.98805,-0.36935 3.74501,-0.60045 3.83785,-0.50761c0.50862,0.41578 -0.6933,2.67731 -2.54309,4.75518c-4.16179,4.61692 -8.55569,6.04893 -19.37594,6.37186c-8.64752,0.2311 -12.62464,-0.27651 -17.06395,-2.30897c-3.97711,-1.84677 -7.26093,-5.35563 -8.32459,-8.91091c-0.13826,-0.46119 -0.17257,-0.70338 0.11,-0.84265l0.00807,-0.00101l3.85198,-3.46345l-4.07399,2.74593l-0.61963,-0.01211c-2.91245,-0.27045 -3.22831,-1.08283 -1.00412,-2.63493c0.51568,-0.36027 0.92137,-0.68623 1.20898,-0.95164l0.41477,-0.4955v-0.12413l-0.18871,-0.06055c-0.22403,0.07165 -0.58431,0.2533 -1.09191,0.56816c-3.10822,1.99613 -6.99451,2.38667 -8.54055,0.87091c-1.23522,-1.17467 -0.86788,-1.62173 1.47136,-1.55411c1.02531,0.05349 2.55419,-0.31486 3.35648,-0.82045l1.48751,-0.89311l-2.8529,0.39862c-3.43116,0.47734 -5.39297,0.15238 -7.49102,-1.18577c-1.1676,-0.78614 -3.28382,-3.02144 -3.20611,-3.43015c1.16558,0.22202 0.94861,1.03237 3.49675,0.66403c2.54814,-0.36835 9.78889,-1.42393 11.79208,-2.87511c2.32511,-1.68329 0.47935,-1.62677 2.67327,-0.47229l7.19332,-3.97106l-5.96012,2.1031c0,-1.24632 5.87232,-6.18617 9.47907,-8.07936c6.47479,-3.27877 9.38825,-4.01748 15.72277,-3.97106z" fill="#71e4ff" stroke="#71e4ff" stroke-miterlimit="8"/><path d="M253.29653,169.72068c1.40879,-0.19981 2.92657,0.05449 4.44436,0.86283c0.50963,0.27752 1.5753,1.29476 2.36245,2.26456l1.34421,1.70952l0.78816,-1.432c1.01925,-2.03346 2.4553,-2.91144 4.81876,-2.91144c2.50172,0 3.98418,0.97082 5.56049,3.65014c2.22319,3.83583 1.48246,10.95144 -1.48347,13.40068c-0.92641,0.78513 -5.3748,-0.18467 -7.50616,-1.61769l-1.52888,-1.06265l-1.06568,1.89521c-1.15852,2.03246 -4.17087,4.06592 -6.07012,4.06592c-4.17087,0 -7.97037,-4.20518 -8.52642,-9.47302c-0.62467,-6.06406 2.63291,-10.75163 6.86231,-11.35208zM268.59747,176.66675c-0.4511,-0.07569 -0.96173,0.15541 -1.19283,0.75586c-0.50963,1.29375 -0.27853,4.15876 0.37036,5.08316c0.55605,0.6933 0.83458,0.78513 1.52888,0.36935c0.97384,-0.60045 1.39063,-2.81859 0.64889,-3.5573c-0.27752,-0.27752 -0.50963,-0.97081 -0.50963,-1.57127c0,-0.62366 -0.39357,-1.00513 -0.84568,-1.0798zM257.74896,177.63858c-0.17761,0.04642 -0.34614,0.14128 -0.4844,0.29165c-0.55605,0.55504 -0.32495,4.57454 0.32394,5.45251c1.29778,1.80237 3.28987,-0.92439 2.22419,-3.14153c-0.27853,-0.55504 -0.60247,-1.38659 -0.74173,-1.84879c-0.17358,-0.58935 -0.79017,-0.8921 -1.322,-0.75385z" fill="#ffffff" stroke="#000000" stroke-miterlimit="8"/><path d="M263.77871,187.82305c0.47229,0.02321 1.4532,0.31587 3.64409,0.90017c1.98301,0.5621 3.91959,0.98293 4.24252,1.03036c0.32293,0 0.41578,0.18669 0.2311,0.3744c-0.46119,0.46724 -9.3166,2.01227 -9.63953,1.68429c-0.13826,-0.09385 0,-0.70137 0.23009,-1.30989c0.2311,-0.60853 0.55403,-1.4976 0.69229,-1.96585c0.16147,-0.49146 0.12715,-0.7377 0.59944,-0.71348zM265.1098,189.16524c-0.59944,-0.01716 -1.20999,0.15844 -1.57934,0.53284c-0.9688,0.98293 -0.59944,1.40375 1.19889,1.26347c2.21411,-0.14027 2.53704,-0.3744 1.89117,-1.17063c-0.32293,-0.39761 -0.91026,-0.60853 -1.51072,-0.62568z" fill="#ed7d31" stroke="#ae5a21" stroke-miterlimit="8"/></g></g></svg>