<svg version="1.1" xmlns="http://www.w3.org/2000/svg" xmlns:xlink="http://www.w3.org/1999/xlink" width="462.99273" height="281.669" viewBox="0,0,462.99273,281.669"><g transform="translate(-7.96236,-28.71797)"><g fill-rule="evenodd" stroke="none" stroke-miterlimit="10"><g><path d="M368.94142,30.25309c5.53087,2.90317 8.34457,7.65513 11.73954,12.69951c2.19697,3.25626 4.53582,6.35408 6.99683,9.41272c1.2374,1.54458 2.41767,3.11891 3.57033,4.72754c1.01081,1.24607 2.14969,2.3357 3.29251,3.46078c0.44925,0.46757 0.90046,0.93515 1.36351,1.41691c5.70229,5.90071 11.85974,10.26924 18.96297,14.35346c5.37323,3.15163 10.03909,6.57064 11.87944,12.70247c0.3192,3.19044 0.26403,5.48731 -0.97534,8.43107c-0.45515,1.10814 -0.79604,2.22181 -1.14085,3.36838c-1.18025,3.5656 -3.127,6.52276 -5.96632,8.97804c-0.33891,0 -0.67781,0 -1.02657,0c6.84511,8.00784 14.8764,14.74989 24.18645,19.71978c4.9693,2.69469 10.22432,6.15508 12.00948,11.80554c0.63841,3.41685 0.60294,6.31901 -0.78224,9.51676c-0.21675,0.71506 -0.43151,1.4305 -0.64038,2.14772c-2.23441,6.63625 -6.71507,11.20754 -12.90009,14.3838c-0.27388,0.13201 -0.54777,0.26207 -0.82954,0.39801c5.03039,6.76236 13.26462,11.54053 20.46637,15.71184c5.06191,2.97134 9.41253,6.23824 11.35532,11.99176c0.98519,3.95061 0.266,7.16234 -1.54084,10.77406c-0.09064,0.71328 -0.09064,0.71328 -0.18521,1.44035c-0.92213,4.61464 -5.22742,8.69136 -8.91598,11.3829c-12.55528,8.25788 -28.72227,9.47163 -43.18686,6.6402c-5.79884,-1.22755 -12.34247,-2.71716 -17.36104,-6.00967c-1.14873,-0.73692 -1.14873,-0.73692 -2.48071,-0.59506c-1.54478,0.58717 -2.36643,1.33986 -3.54275,2.50041c-2.06103,1.93097 -4.17721,3.63142 -6.48059,5.25697c-0.28374,0.20098 -0.56747,0.40196 -0.85909,0.60886c-0.28374,0.19901 -0.56747,0.39605 -0.85909,0.60096c-0.2857,0.20493 -0.57339,0.40983 -0.87091,0.62264c-0.9714,0.63643 -0.9714,0.63643 -2.21669,1.27089c-1.31819,0.71722 -2.33293,1.35956 -3.37329,2.44524c-0.57339,1.97432 -0.36256,3.80678 -0.15961,5.83628c0.0394,0.58717 0.07882,1.17632 0.12019,1.78319c0.12414,1.6965 0.27388,3.38512 0.4394,5.07571c0.12019,1.23347 0.23645,2.46494 0.35073,3.69644c0.41575,4.42943 0.86106,8.85489 1.33396,13.27842c0.42166,3.95653 0.74677,7.91109 0.99504,11.88337c3.91121,-0.9517 7.78105,-1.99009 11.63905,-3.14474c7.5584,-1.97039 16.08227,-1.61178 22.90768,2.34081c0.68766,0.41773 1.36745,0.84924 2.03934,1.29257c2.53194,1.60783 4.57719,1.91915 7.55445,1.56448c0.6857,-0.15763 1.37138,-0.32511 2.05314,-0.5123c0,0.33891 0,0.67781 0,1.02459c0.86696,0.07684 0.86696,0.07684 1.75364,0.15369c22.22001,2.05708 22.22001,2.05708 27.50064,8.05492c0.88668,1.4699 1.02657,2.03738 1.02657,3.81663c-0.51427,1.83443 -0.97337,2.66987 -2.51421,3.78905c-4.67375,2.61865 -9.87753,3.78313 -15.09708,4.73877c-0.34087,0.06502 -0.68175,0.12808 -1.03249,0.1931c-11.74743,2.18515 -23.53031,3.41664 -35.43931,4.23238c-0.45713,0.03152 -0.91228,0.06305 -1.38123,0.09459c-13.41633,0.9044 -26.81494,1.198 -40.2569,1.18815c-0.38619,0 -0.77437,0 -1.17238,0c-12.89221,-0.00197 -25.73911,-0.2266 -38.60572,-1.12311c-0.865,-0.05714 -1.72999,-0.11626 -2.59697,-0.17339c-2.55756,-0.17536 -5.11314,-0.36649 -7.66874,-0.56354c-0.38423,-0.02759 -0.77042,-0.05714 -1.16647,-0.08669c-9.84798,-0.74087 -9.84798,-0.74087 -13.85179,-3.3398c-2.67972,-1.64725 -5.95647,-1.41277 -9.0086,-1.54281c-13.93848,-0.6916 -13.93848,-0.6916 -18.894,-5.29047c-0.89061,-1.65907 -1.00884,-2.53391 -0.7054,-4.39396c1.6965,-3.61369 4.6639,-4.90428 8.24605,-6.2205c3.43438,-1.07976 6.82343,-1.72606 10.3918,-2.14772c0.37436,-0.04532 0.74677,-0.09064 1.13298,-0.13793c1.9625,-0.19901 3.62747,-0.18325 5.57027,0.17143c3.01863,0.39408 5.2353,-0.95957 7.85987,-2.30928c8.24013,-3.98608 15.37885,-5.43825 24.28301,-2.69351c0.37831,0.17931 0.75662,0.35664 1.14676,0.53989c1.76941,0.60491 3.17232,0.55367 5.03827,0.4729c0.33891,-0.01182 0.67781,-0.02562 1.02459,-0.03744c1.07386,-0.04137 2.14377,-0.09261 3.21566,-0.14186c0.73102,-0.02955 1.46202,-0.05912 2.19107,-0.08867c1.78319,-0.07094 3.5664,-0.14976 5.34761,-0.2325c1.13298,-11.77895 2.1753,-23.55791 2.95164,-35.36641c0.0335,-0.50047 0.06699,-1.00292 0.10049,-1.51916c0.09459,-1.42262 0.18521,-2.84327 0.27585,-4.26588c0.02759,-0.41968 0.05517,-0.84136 0.08276,-1.27287c0.22068,-2.9004 0.22068,-2.9004 0.18325,-5.80081c-1.4108,-1.41277 -3.10138,-2.39007 -4.7703,-3.47773c-0.94185,-0.6719 -1.76941,-1.4108 -2.62258,-2.19304c-1.81473,-1.57039 -3.55457,-3.06 -5.95252,-3.56245c-3.16247,0.50047 -5.91312,2.35067 -8.61846,3.96835c-12.62819,7.22736 -31.07492,7.56825 -44.77892,3.96441c-8.63224,-2.42357 -16.16305,-6.85693 -21.02398,-14.60251c-0.59899,-1.27287 -1.11326,-2.5418 -1.58025,-3.86984c-0.46305,-1.32606 -0.46305,-1.32606 -1.28469,-2.73489c-1.42065,-3.127 -1.17632,-6.80373 -0.42758,-10.11595c2.84917,-7.42244 11.30408,-11.17799 17.72163,-15.01629c4.89641,-2.99301 9.7337,-6.6461 13.72372,-10.79179c1.10144,-1.07781 1.10144,-1.07781 2.12802,-1.07781c-1.4502,-1.58221 -2.794,-2.52209 -4.71513,-3.46393c-5.41461,-2.88662 -9.16623,-6.75447 -11.2903,-12.56868c-0.13989,-0.4654 -0.27585,-0.9312 -0.41773,-1.4108c-0.25812,-0.46383 -0.51624,-0.92824 -0.78224,-1.40685c-1.41277,-3.114 -1.24332,-6.76471 -0.47485,-10.07024c2.36445,-5.56634 8.49433,-8.56546 13.4794,-11.40044c5.02842,-2.86375 9.54847,-6.21676 13.95425,-9.95616c0.63643,-0.53004 1.27484,-1.05948 1.91325,-1.58891c0.65613,-0.54953 1.31228,-1.09948 1.96842,-1.64941c0.31132,-0.25852 0.62264,-0.51664 0.94578,-0.78283c1.49159,-1.26558 2.70534,-2.31993 3.38314,-4.18727c-0.22857,-0.20531 -0.4591,-0.41103 -0.69555,-0.62284c-2.5615,-2.4082 -4.86094,-5.14468 -5.72199,-8.63541c-0.27782,-1.09829 -0.72905,-1.86221 -1.31228,-2.82987c-1.53493,-3.03913 -1.5901,-6.08907 -0.54186,-9.31242c2.17137,-4.77817 6.02544,-7.11939 10.38983,-9.76562c10.42727,-6.46068 19.58955,-14.54694 27.13808,-24.24044c0.2522,-0.32432 0.50639,-0.64865 0.76647,-0.98282c2.74278,-3.5266 5.456,-7.06658 8.01748,-10.72696c5.32594,-7.60725 12.90996,-14.58991 22.58847,-9.86945zM352.45326,108.2649c0.50047,0.60018 1.00489,1.19839 1.50734,1.7956c0.2798,0.33339 0.55959,0.66697 0.84924,1.01021c0.23842,0.25951 0.47683,0.5186 0.72313,0.78539c0.16946,0 0.33891,0 0.51427,0c0,-1.8624 0,-3.72403 0,-5.64337c-1.22952,0 -2.61075,1.3836 -3.59397,2.05215zM370.41724,111.34302c-0.10246,4.64656 -0.10246,4.64656 0.51427,9.23459c2.81962,-1.61039 4.2974,-3.49743 6.15745,-6.15646c-2.20092,-1.01514 -4.40381,-2.03146 -6.67172,-3.07813zM351.29861,148.89045c-0.465,0.47605 -0.932,0.9521 -1.4108,1.44251c-1.01081,0.8784 -2.04131,1.72073 -3.0797,2.56426c0.4788,0.57929 0.95957,1.15661 1.44232,1.73197c0.40196,0.48275 0.40196,0.48275 0.81179,0.97534c0.86696,0.99899 0.86696,0.99899 2.36445,1.91127c0.50837,0 1.01672,0 1.54084,0c0.16946,-3.21764 0.33891,-6.4333 0.5123,-9.74787c-1.17238,-0.11901 -1.17238,-0.11901 -2.18122,1.12252zM372.47038,156.48923c-0.07487,5.32791 0.15369,10.59278 0.51427,15.90297c0.33694,0.16946 0.67585,0.34087 1.02657,0.51427c4.91808,-3.78313 4.91808,-3.78313 9.23715,-8.20861c0,-0.33891 0,-0.67781 0,-1.02657c-0.55959,-0.2325 -1.12115,-0.465 -1.70044,-0.7054c-2.70336,-1.32409 -4.71513,-3.3595 -6.86087,-5.42643c-1.05416,-1.16253 -1.05416,-1.16253 -2.21669,-1.05021zM336.76704,159.82312c-0.42363,0.24038 -0.84726,0.47683 -1.28469,0.72313c-0.32709,0.18521 -0.65613,0.37043 -0.99307,0.55959c0.16946,0.33891 0.33891,0.67781 0.51427,1.02657c1.46597,0.41181 2.90829,0.76845 4.39396,1.09159c0.41378,0.09261 0.82756,0.18521 1.25317,0.28177c1.02459,0.23053 2.05116,0.45515 3.07775,0.67978c-0.69752,-1.52114 -1.50144,-2.71519 -2.59893,-3.97623c-0.4059,-0.4729 -0.4059,-0.4729 -0.81969,-0.95367c-0.2266,-0.23645 -0.45318,-0.47092 -0.68766,-0.71328c-1.02459,0 -1.99009,0.79407 -2.85508,1.28074zM375.03778,194.96687c0.13399,2.45312 0.27192,4.90823 0.40983,7.36135c0.04532,0.83151 0.09261,1.66497 0.13793,2.49648c0.25418,4.58902 0.52215,9.16819 0.9911,13.74145c3.65309,-1.95857 7.24313,-3.99397 10.77799,-6.15745c-0.41181,-0.48668 -0.82559,-0.97337 -1.25119,-1.47385c-0.2798,-0.33102 -0.55959,-0.66205 -0.84924,-1.00489c-0.67388,-0.76647 -1.37138,-1.51129 -2.08466,-2.24032c-2.88464,-2.98513 -4.65208,-5.91903 -6.38207,-9.64306c-0.69752,-1.58418 -0.69752,-1.58418 -1.74969,-3.0797zM348.36668,204.13112c-0.61279,0.62066 -0.61279,0.62066 -1.2374,1.2571c-0.40786,0.40983 -0.81377,0.81969 -1.23149,1.24332c-0.37831,0.38226 -0.75465,0.76647 -1.14283,1.16055c-0.5123,0.51427 -1.02657,1.02657 -1.54084,1.53886c0.63841,0.43348 1.28074,0.85909 1.92507,1.28272c0.35861,0.23842 0.71525,0.47683 1.08371,0.72115c1.198,0.71722 1.198,0.71722 3.15064,0.56156c0.16946,-2.87872 0.33891,-5.75549 0.51427,-8.72091c-0.68373,-0.05912 -0.68373,-0.05912 -1.52114,0.95563z" fill="#8a5a3e"/><path d="M368.84881,30.25506c5.52692,2.90671 8.34064,7.66479 11.73166,12.71587c2.19697,3.2602 4.53385,6.36198 6.99289,9.42473c1.2374,1.54655 2.41767,3.12286 3.57033,4.73346c1.00884,1.24764 2.14772,2.33885 3.29053,3.46532c0.44925,0.46816 0.8985,0.93633 1.36153,1.41868c5.69835,5.9084 11.85382,10.28224 18.95312,14.37177c5.36929,3.15577 10.03516,6.57911 11.87352,12.71883c0.34679,3.4724 0.37634,6.42305 -1.4108,9.50296c-2.49254,3.00916 -5.98405,4.83334 -9.84601,5.2623c-7.71601,0.5527 -13.65278,-0.76647 -19.89495,-5.54269c-1.05416,-0.83741 -1.05416,-0.83741 -2.57726,-1.26065c-1.08766,0.63347 -1.08766,0.63347 -2.24426,1.50931c-3.13292,1.96329 -5.93873,2.19342 -9.55439,1.57295c-1.59798,-0.63288 -2.8078,-1.44724 -4.10234,-2.5686c-0.4453,-0.38106 -0.88864,-0.76273 -1.34774,-1.15583c-3.68068,-4.26865 -6.24611,-9.08288 -6.86087,-14.76822c-0.51822,0.18029 -1.03642,0.36058 -1.57039,0.546c-2.66592,0.76687 -5.03827,0.12433 -7.66282,-0.546c-0.14976,0.39763 -0.2995,0.79465 -0.45318,1.20411c-2.56938,6.54009 -6.43527,11.7823 -12.92374,14.87875c-3.0935,1.11406 -6.46877,1.32469 -9.70808,0.86854c-1.4502,-0.72371 -2.68564,-1.52567 -3.97228,-2.5077c-1.14676,-0.72589 -1.14676,-0.72589 -2.4413,-0.24512c-1.23937,0.67604 -2.41175,1.39621 -3.58807,2.1755c-5.65303,3.41487 -11.66269,4.52971 -18.17678,3.39911c-4.11416,-1.0638 -6.05893,-3.33902 -8.24211,-6.93121c-1.11523,-3.34866 -0.93396,-6.71803 0.54382,-9.92029c2.01374,-3.9979 6.08651,-6.2006 9.77901,-8.44348c10.42332,-6.46896 19.5797,-14.56567 27.12429,-24.27157c0.2522,-0.32472 0.50442,-0.64943 0.76647,-0.98402c2.74081,-3.53112 5.45205,-7.07565 8.01355,-10.74075c5.32397,-7.61691 12.90206,-14.60862 22.57664,-9.88207z" fill="#fcfcfc"/><path d="M418.25419,274.50926c2.53194,1.60783 4.57719,1.91915 7.55445,1.56448c0.68766,-0.15763 1.37336,-0.32511 2.05314,-0.5123c0,0.33694 0,0.67585 0,1.02459c0.57929,0.04927 1.15858,0.10049 1.75364,0.15171c22.22198,2.05708 22.22198,2.05708 27.5026,8.05295c0.88668,1.46794 1.02657,2.03541 1.02657,3.8127c-0.51427,1.83443 -0.97337,2.66987 -2.51421,3.78708c-4.67375,2.61667 -9.87753,3.78117 -15.09708,4.7368c-0.34087,0.06305 -0.68175,0.12808 -1.03444,0.1931c-11.74546,2.18515 -23.53031,3.41467 -35.44128,4.23041c-0.45515,0.02955 -0.91032,0.06109 -1.37928,0.09459c-13.41633,0.90243 -26.81692,1.19602 -40.25887,1.18617c-0.38816,0 -0.77437,0 -1.17238,0c-12.89419,-0.00197 -25.74108,-0.2266 -38.60769,-1.12115c-0.865,-0.05912 -1.73197,-0.11626 -2.59697,-0.17536c-2.55756,-0.17339 -5.11314,-0.36451 -7.66874,-0.56156c-0.38619,-0.02955 -0.77042,-0.05714 -1.16647,-0.08669c-9.84798,-0.74284 -9.84798,-0.74284 -13.85376,-3.33782c-2.67972,-1.64725 -5.9545,-1.41277 -9.0086,-1.54281c-13.94046,-0.6916 -13.94046,-0.6916 -18.894,-5.28851c-0.89061,-1.6571 -1.01081,-2.52998 -0.7054,-4.39001c1.6965,-3.61172 4.66193,-4.90034 8.24605,-6.21852c3.43438,-1.07781 6.82343,-1.72212 10.3918,-2.14575c0.37436,-0.04532 0.74677,-0.09064 1.13298,-0.13596c1.9625,-0.20098 3.62747,-0.18521 5.57224,0.17143c3.01863,0.39211 5.2353,-0.96155 7.85987,-2.30928c8.24013,-3.98411 15.37885,-5.43628 24.28301,-2.69351c0.56747,0.26797 0.56747,0.26797 1.14676,0.54186c1.76941,0.60294 3.17232,0.55171 5.03827,0.4729c0.33891,-0.0138 0.67781,-0.02562 1.02657,-0.0394c1.07189,-0.04137 2.14377,-0.09064 3.21566,-0.14186c0.72905,-0.02955 1.46005,-0.05912 2.19107,-0.08669c1.78123,-0.0729 3.56442,-0.15171 5.34761,-0.2325c-0.2463,4.52597 -0.58717,8.88643 -1.54084,13.32964c0.51624,-0.19703 1.03249,-0.39605 1.56251,-0.59899c1.85216,-0.70935 3.71221,-1.397 5.57421,-2.07678c0.92017,-0.34087 1.83443,-0.69948 2.74671,-1.06006c10.11201,-3.66294 20.40529,-0.62066 30.15277,2.71124c-0.11034,-0.89061 -0.11034,-0.89061 -0.22463,-1.79896c-0.09654,-0.78815 -0.1931,-1.57828 -0.28767,-2.36643c-0.07487,-0.58521 -0.07487,-0.58521 -0.14976,-1.18223c-0.26009,-2.16347 -0.41968,-4.26195 -0.36451,-6.44512c0.54186,-0.13201 0.54186,-0.13201 1.09553,-0.26403c3.54472,-0.86894 7.04806,-1.83443 10.54351,-2.8807c8.61649,-2.24426 17.52262,-1.28074 24.94899,3.63142z" fill="#fbfcfb"/><path d="M337.49805,162.18167c0.76647,0.13793 0.76647,0.13793 1.55069,0.2798c3.52305,0.71328 5.73382,1.72409 8.19286,4.33484c0.43348,0.41181 0.86696,0.82362 1.31424,1.24922c0.61871,0.65023 0.61871,0.65023 1.24922,1.31424c0.24827,0.25024 0.49654,0.50047 0.75269,0.7586c3.81467,4.08657 5.58209,9.07362 5.50919,14.58871c-0.28177,4.16736 -2.21077,6.96924 -5.2353,9.77704c-4.34469,3.25508 -8.48643,4.19495 -13.87938,4.16539c-0.35466,0.00197 -0.7113,0.00395 -1.07781,0.0059c-1.93097,-0.00395 -3.67279,-0.20295 -5.55649,-0.58324c-1.78911,-0.30344 -1.78911,-0.30344 -3.59004,0c-1.08766,1.04627 -1.86005,1.93689 -2.72504,3.14079c-3.50138,4.48262 -7.51898,7.05398 -13.17398,8.13964c-4.9969,0.60886 -8.84504,-1.03642 -12.79764,-3.99593c-1.14085,-0.79209 -1.14085,-0.79209 -3.09942,-0.61871c-1.13691,0.61081 -2.21274,1.23937 -3.30236,1.9231c-6.76039,4.05505 -14.75619,5.92888 -22.58847,4.39199c-5.25697,-1.48567 -9.20366,-3.63536 -12.06072,-8.36624c-1.13888,-3.41861 -1.08961,-7.8106 0.22463,-11.18389c3.60187,-6.66187 11.01247,-10.12383 17.2704,-13.86953c4.89246,-2.99104 9.72778,-6.64413 13.7119,-10.78588c1.10341,-1.07781 1.10341,-1.07781 2.12802,-1.07781c0,-0.33891 0,-0.67585 0,-1.02459c2.4216,0.23645 4.76832,0.53397 7.14855,1.03444c3.46196,0.63643 6.87072,0.67978 10.38392,0.66403c0.66008,-0.00395 1.31819,-0.0059 1.99599,-0.00985c6.56138,-0.08276 12.21243,-1.05219 18.35806,-3.35557c3.33389,-1.24922 5.76731,-1.79306 9.29627,-0.89653z" fill="#fcfcfc"/><path d="M308.28121,107.74116c2.6147,0.38974 4.58114,1.52666 6.87072,2.79342c4.83139,2.09846 9.51104,2.58948 14.73255,2.51224c0.56156,0.00158 1.12311,0.00315 1.70242,0.00493c4.62449,-0.03035 8.95145,-0.43348 13.22325,-2.28801c1.26696,-0.40196 1.26696,-0.40196 2.50436,-0.45024c1.86005,1.06834 3.16837,2.55716 4.62054,4.11593c0.7113,0.58559 1.42853,1.1649 2.15165,1.7365c2.62455,2.28171 4.45701,5.25876 5.55254,8.55323c0.07487,1.25258 0.11429,2.50751 0.12808,3.76225c0.02167,0.99977 0.02167,0.99977 0.04137,2.01964c-0.30541,3.49663 -2.1753,6.35389 -4.79197,8.62378c-3.36344,2.01235 -6.57713,3.66393 -10.53761,3.66964c-0.44136,0.0008 -0.88076,0.00138 -1.33591,0.00197c-0.68373,-0.00296 -0.68373,-0.00296 -1.38321,-0.0059c-0.44925,0.00197 -0.90046,0.00395 -1.36548,0.0059c-2.0492,-0.00296 -3.8324,-0.06305 -5.8481,-0.49436c-1.6827,-0.28433 -1.6827,-0.28433 -2.83145,0.98874c-0.34876,0.50343 -0.69948,1.00687 -1.06006,1.52547c-3.06788,4.08638 -6.99289,7.56863 -12.23213,8.37846c-3.84225,0.15369 -7.10915,-0.98893 -10.23812,-3.16936c-1.56054,-1.04056 -1.56054,-1.04056 -3.43438,-0.93238c-0.53004,0.27585 -1.05809,0.55171 -1.60388,0.83603c-0.82362,0.41989 -1.64725,0.83781 -2.47284,1.25395c-0.39408,0.21162 -0.79012,0.42323 -1.198,0.64116c-3.66294,1.69177 -6.89634,2.48584 -10.93562,2.41292c-0.4256,-0.00395 -0.85318,-0.00985 -1.29257,-0.0138c-4.61858,-0.11429 -8.95736,-0.90638 -12.34839,-4.29425c-0.82756,-1.17061 -1.41868,-2.30437 -2.05511,-3.60147c-0.16946,-0.3395 -0.33891,-0.67919 -0.5123,-1.02894c-0.32709,-4.07947 -0.61081,-8.00606 2.05314,-11.31868c3.326,-3.74413 7.42441,-6.09026 11.71589,-8.53727c5.03236,-2.87125 9.55834,-6.23154 13.9641,-9.98432c0.63841,-0.53733 1.27681,-1.07445 1.91522,-1.61178c0.65613,-0.55564 1.31228,-1.11169 1.96842,-1.66812c0.31132,-0.26325 0.62461,-0.52687 0.94578,-0.7982c1.34578,-1.1515 2.39992,-2.15461 3.38709,-3.6391z" fill="#fcfcfc"/><path d="M438.67721,168.15784c0.96352,0.82954 1.71227,1.73984 2.52011,2.72109c0.83151,0.73495 1.67877,1.4502 2.53983,2.14969c0.72707,0.59111 0.72707,0.59111 1.46794,1.19405c4.39593,3.45999 9.08937,6.50029 13.92667,9.30021c5.07176,2.97528 9.43025,6.24414 11.377,12.00358c0.91623,3.67279 0.35269,6.59093 -1.06006,10.07654c-3.03636,3.71811 -8.14754,5.99784 -12.86069,6.53576c-1.63148,0.05714 -3.24719,0.04927 -4.88064,0.01182c-0.54382,-0.00197 -1.08961,-0.00197 -1.6492,-0.00197c-7.5446,-0.08472 -14.01534,-2.05708 -20.5846,-5.67076c-1.78516,-0.74087 -2.42554,-0.78815 -4.21663,-0.16946c-0.59506,0.25418 -1.18815,0.50837 -1.80093,0.77042c-3.41074,1.46005 -6.86482,1.63935 -10.54156,1.28469c-2.61075,-1.23347 -4.91808,-3.37132 -6.05301,-6.08258c-0.20886,-0.66008 -0.41378,-1.32016 -0.61279,-1.98417c-0.97534,-3.31418 -0.97534,-3.31418 -3.48166,-5.52299c-1.58221,-0.36058 -1.58221,-0.36058 -3.20187,-0.55564c-3.52698,-0.52412 -6.50621,-2.67579 -8.7623,-5.36733c-2.68366,-3.83634 -4.88261,-8.2559 -4.53779,-13.06955c0.56549,-1.74576 1.49946,-2.85508 2.67381,-4.25997c0.40786,-0.49457 0.81377,-0.9911 1.23347,-1.50144c1.1448,-1.19405 1.1448,-1.19405 2.6876,-1.70832c1.22952,0.35664 2.4019,0.74284 3.59989,1.18815c5.55649,2.01571 10.84303,2.595 16.74431,2.56741c0.63249,-0.00395 1.26499,-0.0059 1.91718,-0.00788c6.25399,-0.08079 12.1021,-0.62461 17.96005,-2.87872c4.03535,-1.54281 4.03535,-1.54281 5.59589,-1.02262z" fill="#fcfcfc"/><path d="M417.08774,110.30287c1.93097,1.61218 3.76935,3.2399 5.51904,5.04772c5.58998,5.65519 12.18879,10.46568 19.18562,14.2104c4.97128,2.70219 10.22827,6.17183 12.01343,11.83747c0.74677,4.00618 0.55959,7.30066 -1.55266,10.82883c-4.44518,4.45306 -11.12675,5.53677 -17.16598,5.56239c-6.35448,-0.07487 -13.9582,-0.52609 -19.25064,-4.4373c-1.21967,-0.97732 -1.21967,-0.97732 -2.50239,-0.86894c-1.66497,0.62066 -3.27478,1.33198 -4.88064,2.09058c-2.54376,1.09553 -5.05206,1.32606 -7.79483,0.99702c-2.44919,-1.1113 -3.60187,-2.49844 -4.68163,-4.88498c-0.90835,-2.59479 -1.4502,-5.28339 -1.99206,-7.97533c-0.39013,-0.07567 -0.78224,-0.15133 -1.1842,-0.22916c-5.10526,-1.11149 -8.99875,-2.94494 -12.0154,-7.34835c-1.65315,-2.92268 -3.18809,-6.43015 -3.01863,-9.85626c0.70737,-2.52288 2.38022,-4.64597 3.89741,-6.74344c0.20098,-0.36294 0.40196,-0.72569 0.60688,-1.09948c0.93396,-0.95819 0.93396,-0.95819 2.52801,-1.17553c0.64431,0.01734 1.28666,0.03467 1.95067,0.05261c0.34876,0.00531 0.69948,0.01065 1.05809,0.01615c1.11918,0.01833 2.23639,0.05025 3.35359,0.08413c9.16623,0.23842 18.22605,-0.598 25.92631,-6.10858z" fill="#fbfcfc"/><path d="M359.51512,81.13724c0.38226,0.17989 0.76254,0.36 1.15465,0.5454c2.74868,0.68786 5.28654,0.30226 8.0766,-0.03211c0.14976,0.49634 0.2995,0.99267 0.45318,1.504c1.61965,5.21777 3.42256,10.28461 7.75148,13.89612c0.27585,0.23821 0.55171,0.47624 0.83741,0.72176c2.61273,1.97018 5.03039,2.24485 8.25788,2.14358c2.30338,-0.41122 3.86786,-1.40351 5.71412,-2.80524c0.35861,-0.18916 0.71722,-0.37852 1.08766,-0.57358c1.00489,0.31289 1.00489,0.31289 2.05116,1.02677c0.40786,0.26856 0.81574,0.53733 1.23542,0.81397c0.44925,0.30323 0.8985,0.60629 1.35956,0.91839c6.07076,3.81998 11.83412,4.80518 18.9413,3.91436c2.21864,-0.61634 4.14766,-1.44705 6.1535,-2.56682c0.68373,-0.34404 1.36745,-0.68688 2.05116,-1.02657c-0.79801,4.80104 -3.38906,7.90359 -7.17811,10.77996c-0.3192,0.26325 -0.63841,0.52668 -0.96549,0.79801c-6.86875,5.20319 -15.68425,5.96712 -23.96972,5.97163c-0.61673,0.00611 -1.23149,0.0126 -1.86595,0.01892c-0.89455,0.00158 -0.89455,0.00158 -1.80684,0.00315c-0.53792,0.00197 -1.07583,0.00414 -1.63148,0.0063c-1.68467,-0.13516 -3.04818,-0.57299 -4.63041,-1.15129c-0.87485,-0.14365 -1.74969,-0.27211 -2.6285,-0.38501c-3.38512,-0.56885 -6.18897,-2.06712 -9.16623,-3.72166c-0.16946,1.18578 -0.33891,2.37155 -0.5123,3.59319c-0.16946,0 -0.33891,0 -0.51427,0c0.0335,-0.58225 0.06502,-1.1645 0.09654,-1.76448c-0.2798,-2.36229 -1.42262,-3.23773 -3.23734,-4.68419c-0.50837,-0.38186 -1.01672,-0.76372 -1.53886,-1.15701c-1.61571,-1.22893 -2.98513,-2.57017 -4.37622,-4.04047c-0.67978,-0.73594 -0.67978,-0.73594 -1.71227,-1.18716c-0.19113,0.49241 -0.19113,0.49241 -0.38423,0.99465c-0.80984,1.33828 -1.23937,1.20863 -2.69154,1.57217c-0.14976,0.31762 -0.29752,0.63526 -0.44925,0.96233c-1.24922,2.3613 -4.33682,2.87637 -6.73084,3.65762c-0.30737,0.15744 -0.61673,0.31487 -0.93396,0.47723c-1.32606,0.652 -2.66592,1.131 -4.0649,1.60823c-0.50639,0.17517 -1.01081,0.35053 -1.53099,0.53141c-4.0511,1.12056 -8.13964,1.08548 -12.3149,1.1048c-0.56549,0.01065 -1.131,0.02108 -1.71424,0.03211c-8.50615,0.04 -16.28718,-2.74533 -22.4801,-8.7087c-1.53689,-1.74595 -2.85508,-3.61289 -3.62551,-5.82505c0.16946,-0.33891 0.33891,-0.67762 0.51427,-1.02677c0.51822,0.31762 1.03444,0.63526 1.56843,0.96253c5.03236,2.81784 10.63415,2.861 16.1532,1.34755c3.19004,-1.0705 5.76929,-2.7339 8.49433,-4.66409c1.47385,-0.72589 1.47385,-0.72589 2.84917,-0.39723c0.94578,0.55505 1.86005,1.16351 2.75853,1.78871c2.87479,1.67344 6.26779,1.32942 9.4342,0.71998c5.02054,-1.47011 9.06179,-4.77326 12.07253,-8.99736c0.97927,-1.83857 1.78123,-3.71771 2.56348,-5.64673c0.33496,-0.68786 0.67388,-1.37375 1.02459,-2.05334z" fill="#79aca9"/><path d="M386.33596,175.92508c0.11822,0.50245 0.23645,1.00489 0.35861,1.52311c0.96942,3.95456 2.07875,7.318 4.258,10.79573c0.22857,0.53792 0.22857,0.53792 0.46107,1.08568c0.7192,1.22952 1.31031,1.45612 2.61667,1.99404c0.41968,0.20688 0.84136,0.41378 1.27287,0.62658c2.31323,1.09553 4.35652,2.00782 6.90422,2.35658c1.31621,0.25418 1.89157,0.37634 2.75263,1.42065c0.54777,1.07976 0.97534,2.1556 1.38321,3.29645c1.9034,4.77227 1.9034,4.77227 5.54269,8.2835c3.92303,1.53689 8.64013,0.39211 12.41341,-1.09751c0.33299,-0.19901 0.66598,-0.39605 1.00884,-0.59899c1.45612,-0.59899 2.1024,-0.38816 3.60777,0.08472c1.45612,0.62658 2.87479,1.31819 4.29544,2.02161c7.86972,3.88756 18.5019,5.45797 27.14006,3.14079c3.00483,-1.11918 5.58406,-2.62652 8.06675,-4.64813c0.5123,1.53886 0.5123,1.53886 -0.1931,3.36739c-4.07082,7.57612 -11.34743,12.04693 -19.30187,14.5966c-15.8537,4.75257 -33.18125,3.33585 -48.22316,-3.59397c-0.86303,-0.50047 -1.72014,-1.01081 -2.56543,-1.53886c-1.12311,-0.35664 -1.12311,-0.35664 -2.05116,-0.51427c0,-0.50639 0,-1.01474 0,-1.53886c-0.37241,-0.05122 -0.7448,-0.10246 -1.12903,-0.15566c-6.01754,-1.49552 -13.17793,-9.02238 -16.36207,-14.08036c-2.80188,-4.92005 -4.46883,-9.0283 -3.54078,-14.70497c0.67388,-1.76744 1.69847,-2.6206 3.07577,-3.90924c0.98912,-1.1113 1.93492,-2.25609 2.88662,-3.39891c4.00775,-4.81364 4.00775,-4.81364 5.32201,-4.81364z" fill="#437d7b"/><path d="M377.03379,124.68882c0.33891,0 0.67781,0 1.02657,0c0.07487,0.4658 0.07487,0.4658 0.15171,0.94105c0.9517,5.33402 2.43342,10.38747 7.04608,13.63604c2.11816,1.25808 3.83634,1.87284 6.26384,2.24485c1.29257,0.33438 1.29257,0.33438 2.43737,1.12154c0.9379,2.04664 1.51522,4.02943 2.03344,6.21222c0.54382,2.26042 1.36548,3.95416 3.15852,5.48317c3.67476,1.51719 6.88845,0.4985 10.45879,-0.89258c1.26104,-0.51427 1.26104,-0.51427 2.33688,-1.16253c1.25514,-0.52393 1.78123,-0.37201 3.03833,0.10049c0.58324,0.30737 1.1645,0.61279 1.76349,0.93002c4.20873,2.14969 8.89431,3.5191 13.62323,3.68461c0.32906,0.01182 0.65811,0.02562 0.99702,0.0394c7.85197,0.2798 14.37986,-0.71722 21.05552,-5.16673c-1.6965,6.29774 -5.22348,10.9242 -10.83513,14.29356c-13.52667,7.12097 -29.91829,8.46083 -44.5543,4.16341c-0.83151,-0.22068 -0.83151,-0.22068 -1.68074,-0.44333c-2.47284,-0.67585 -2.47284,-0.67585 -3.44816,-1.09553c-0.16748,-0.33891 -0.33694,-0.67585 -0.5123,-1.02459c-0.52412,-0.09654 -0.52412,-0.09654 -1.05809,-0.1931c-1.73984,-0.37043 -3.0876,-1.06204 -4.65208,-1.8896c-1.02854,-0.54579 -1.02854,-0.54579 -2.49451,-0.99307c0,-0.33891 0,-0.67781 0,-1.02657c-0.55762,-0.06897 -0.55762,-0.06897 -1.12706,-0.13793c-1.70832,-0.4453 -2.58908,-1.13493 -3.93879,-2.26396c-0.66598,-0.55959 -0.66598,-0.55959 -1.34578,-1.12903c-0.42363,-0.35664 -0.84726,-0.71525 -1.28272,-1.08371c-0.34876,-0.266 -0.69752,-0.53397 -1.05809,-0.80984c-2.3487,-1.8364 -3.42846,-3.64914 -4.58311,-6.3667c-0.22857,-0.43684 -0.45713,-0.87366 -0.69358,-1.32371c-2.28761,-4.67157 -2.94769,-9.95418 -1.43444,-14.99974c1.24922,-2.4821 3.06592,-4.11396 5.20772,-5.83765c1.40685,-1.24981 2.41767,-2.68898 3.47181,-4.23967c0.20688,-0.25438 0.41575,-0.50875 0.62856,-0.77082z" fill="#4e8584"/><path d="M355.50342,187.74936c1.02262,3.08168 -0.25812,6.38405 -1.57236,9.24307c-2.34081,4.39789 -5.62348,8.0963 -9.4933,11.19572c-0.24235,0.2266 -0.48472,0.45515 -0.73495,0.68963c0,0.34087 0,0.67978 0,1.03051c-0.45515,0.2522 -0.45515,0.2522 -0.92017,0.50837c-1.75364,0.97534 -3.49743,1.94477 -5.20378,3.00286c-1.05809,0.61081 -1.05809,0.61081 -2.08466,0.61081c0,0.67978 0,1.36153 0,2.06103c-0.34481,0.04532 -0.68963,0.09064 -1.04431,0.13793c-1.93885,0.48275 -3.58412,1.3773 -5.33579,2.31126c-15.53451,7.98399 -34.33787,10.01742 -51.04868,4.60479c-7.44016,-2.68366 -13.6922,-6.94364 -17.9896,-13.75327c-0.63643,-1.36745 -1.09356,-2.67381 -1.53886,-4.12204c0.33891,0 0.67781,0 1.02657,0c0.31724,0.37241 0.63446,0.7448 0.96155,1.12706c2.88662,3.04818 7.79483,4.33879 11.85777,4.6639c8.25788,0.18521 16.55122,-2.0886 23.09289,-7.33573c1.58025,0.7586 3.0403,1.63935 4.52202,2.5753c3.93683,2.37235 7.60765,3.19991 12.12377,2.33688c5.57421,-1.48172 9.26867,-4.21663 12.58877,-8.87066c0.65811,-0.86894 0.65811,-0.86894 2.06299,-2.22654c2.18909,-0.27782 4.0176,0.08472 6.15548,0.51624c6.35251,0.28965 11.96219,0.01577 17.44381,-3.60777c2.1162,-1.98221 3.92894,-4.03732 5.13088,-6.6993z" fill="#386c6a"/><path d="M364.64598,64.58367c3.00878,1.69217 3.97623,5.75234 5.13088,8.7824c2.52011,6.56394 5.71805,14.53058 11.86565,18.4621c3.00681,1.04056 6.88255,1.16469 9.86965,0.06817c1.06006,-0.60037 2.02753,-1.25375 2.89252,-2.11954c2.32308,-0.1797 3.80285,0.18048 5.86978,1.21809c4.17721,2.07895 7.59385,2.47086 12.18484,2.33963c4.34469,-0.06798 8.0963,0.09774 12.21834,1.5706c0.50837,0.16946 1.01672,0.33851 1.54084,0.51289c-0.65811,3.06414 -2.10437,4.46942 -4.61858,6.15409c-4.49838,2.87341 -10.25782,2.63637 -15.39263,2.05137c-4.12007,-0.94855 -7.42637,-2.85982 -10.76421,-5.40889c-1.05612,-0.83544 -1.05612,-0.83544 -2.57726,-1.25789c-1.08961,0.6319 -1.08961,0.6319 -2.24426,1.50636c-3.13487,1.96014 -5.9407,2.18989 -9.55636,1.5706c-1.59995,-0.6319 -2.80977,-1.44528 -4.10627,-2.56426c-0.44333,-0.38068 -0.88864,-0.76156 -1.34578,-1.15385c-3.68264,-4.26174 -6.24809,-9.06809 -6.86285,-14.74399c-0.7783,0.26955 -0.7783,0.26955 -1.57236,0.54481c-2.66592,0.76588 -5.03827,0.12414 -7.66282,-0.54481c-0.14976,0.39664 -0.2995,0.79327 -0.45318,1.20193c-2.57135,6.52925 -6.43724,11.7626 -12.92768,14.85412c-3.09547,1.11267 -6.47074,1.32251 -9.71005,0.86757c-1.4502,-0.72313 -2.68564,-1.52349 -3.97426,-2.50415c-1.14676,-0.72432 -1.14676,-0.72432 -2.4413,-0.24433c-1.23937,0.67446 -2.41175,1.39385 -3.59004,2.17156c-5.65106,3.40975 -11.66467,4.52202 -18.17875,3.39339c-2.72109,-0.70225 -4.39199,-1.60428 -6.19292,-3.84225c-0.30737,-0.37023 -0.61476,-0.74028 -0.93002,-1.12174c-0.60886,-0.92963 -0.60886,-0.92963 -0.60886,-1.95521c0.67585,0.02384 1.35168,0.04748 2.0492,0.07212c8.76623,0.21497 15.89312,-0.84195 23.60518,-5.20044c1.83443,-0.99425 3.01468,-1.24174 5.13088,-1.02579c0.87091,0.48766 1.72606,1.00057 2.56543,1.53848c1.22557,0.39053 1.22557,0.39053 2.56543,0.51289c0.7783,0.09517 0.7783,0.09517 1.57236,0.19231c5.47767,-0.52156 9.68838,-3.37132 13.30797,-7.37199c3.36935,-4.13722 6.03922,-8.59658 8.51797,-13.31269c2.70139,-5.08103 2.70139,-5.08103 4.82349,-5.21363z" fill="#cde9ef"/><path d="M358.51415,133.95081c0.16946,0 0.33891,0 0.5123,0c-0.48472,4.53286 -0.9576,7.83799 -3.93288,11.42763c-0.79209,0.94105 -0.79209,0.94105 -1.20193,2.44703c-0.68373,0.34246 -1.36941,0.68509 -2.05314,1.02775c-1.33396,1.23504 -2.46494,2.42002 -3.4994,3.91791c-1.15465,1.25514 -1.56054,1.4443 -3.1132,1.92704c-2.18909,0.70343 -3.08365,1.84033 -4.46292,3.62354c-1.08766,1.19602 -2.27776,1.4443 -3.81663,1.8364c-0.35073,0.22463 -0.70145,0.45122 -1.06204,0.68175c-8.36822,4.78015 -18.57481,6.11016 -28.01491,6.19095c-0.61673,0.00788 -1.23542,0.01577 -1.87186,0.02167c-3.82255,-0.0197 -7.318,-0.47485 -11.03414,-1.37533c-1.69257,-0.41378 -1.69257,-0.41378 -3.56048,-0.63643c-4.86488,-0.7389 -10.29131,-4.85109 -13.50895,-8.47856c-1.60388,-2.25411 -3.0403,-4.45503 -3.59397,-7.19504c0.32314,0.21064 0.64628,0.42126 0.97927,0.6382c0.4394,0.27704 0.87879,0.55388 1.33198,0.83918c0.42955,0.27408 0.85711,0.54836 1.30046,0.8309c5.13285,2.60899 12.2479,2.83361 17.7236,1.18439c2.74671,-0.96037 5.32989,-2.12111 7.83425,-3.61113c1.64133,-0.90934 1.64133,-0.90934 2.861,-0.68451c0.44333,0.26482 0.88864,0.52983 1.34774,0.80293c0.76845,0.44215 1.53886,0.88076 2.30928,1.3168c0.56549,0.33477 0.56549,0.33477 1.14085,0.67644c2.56543,1.26104 5.55451,1.56843 8.36034,1.08961c5.4619,-1.99501 9.13666,-4.94881 12.3543,-9.82749c0.32906,-0.31802 0.65811,-0.63584 0.99504,-0.96352c0.84136,0.10148 1.6827,0.21005 2.51816,0.35427c6.63428,0.98282 13.26068,0.58935 18.98464,-3.08424c1.79896,-1.38419 2.92207,-3.10079 4.17326,-4.97817z" fill="#4a807f"/><path d="M350.92425,170.80209c1.65907,1.49749 2.55165,2.8669 3.43438,4.91413c0.2128,0.48865 0.42758,0.97732 0.64826,1.47976c1.4443,3.52108 1.69452,7.54263 0.50639,11.20951c-1.99599,4.4905 -5.73775,7.19781 -10.04501,9.25095c-2.78218,0.87879 -5.54269,0.97927 -8.43916,0.96352c-0.35664,0.00197 -0.71328,0.00395 -1.07976,0.0059c-1.93295,-0.00395 -3.67871,-0.20295 -5.56436,-0.58324c-1.78911,-0.30541 -1.78911,-0.30541 -3.59397,0c-1.08766,1.04824 -1.86201,1.94082 -2.72701,3.1467c-3.50728,4.49445 -7.52883,7.06973 -13.18974,8.15936c-5.00477,0.60886 -8.85687,-1.03839 -12.81537,-4.00578c-1.13888,-0.79407 -1.13888,-0.79407 -3.10138,-0.61871c-1.13888,0.61081 -2.21471,1.24134 -3.3063,1.92704c-6.77024,4.0649 -14.77394,5.94267 -22.61606,4.40184c-4.51809,-1.27879 -8.49826,-2.96149 -11.07946,-7.03623c-0.34284,-0.61476 -0.67781,-1.23542 -0.99504,-1.86398c0.68373,-0.10246 1.36745,-0.19703 2.05314,-0.28767c0.57141,-0.08079 0.57141,-0.08079 1.15465,-0.16354c1.4837,-0.06502 2.86297,0.11429 4.32894,0.31526c8.76623,1.00095 16.70491,0.30147 24.52339,-3.87771c2.4078,-1.26302 4.27573,-1.68074 6.96334,-1.12508c1.06598,0.40786 2.12407,0.83939 3.17626,1.28469c4.26982,1.75364 8.79972,2.24821 13.15821,0.44925c0.72905,-0.38423 1.44627,-0.79209 2.14969,-1.21967c0.37831,-0.23053 0.75662,-0.46107 1.1448,-0.69752c2.47677,-1.5901 4.79789,-3.37132 7.0993,-5.20575c2.22456,-1.73394 3.59989,-1.91915 6.3269,-1.81669c0.76845,0.01577 1.53493,0.03152 2.30338,0.04532c1.20193,0.02955 2.40387,0.06109 3.6058,0.10246c4.75257,0.15369 8.87461,0.22463 12.89616,-2.70731c2.44327,-2.38613 3.13685,-4.96143 3.18019,-8.31502c-0.0059,-0.97732 -0.0197,-1.95265 -0.03547,-2.92799c-0.0059,-0.50047 -0.00985,-1.00095 -0.0138,-1.51719c-0.01182,-1.22952 -0.02955,-2.45707 -0.05122,-3.68659z" fill="#cce7ee"/><path d="M352.46114,115.03257c3.41664,2.59735 5.81263,5.63707 7.18402,9.7534c0.07684,1.24962 0.11429,2.5018 0.12808,3.75377c0.02167,0.99761 0.02167,0.99761 0.04137,2.01531c-0.30541,3.48876 -2.17332,6.33971 -4.78802,8.60427c-3.36147,2.00802 -6.57123,3.65584 -10.52973,3.66156c-0.4394,0.0008 -0.88076,0.00138 -1.33396,0.00216c-0.45515,-0.00216 -0.91228,-0.00414 -1.38123,-0.00611c-0.45122,0.00197 -0.90046,0.00395 -1.36548,0.00611c-2.04723,-0.00315 -3.82845,-0.06305 -5.84416,-0.49338c-1.68074,-0.28374 -1.68074,-0.28374 -2.8275,0.98658c-0.35073,0.50226 -0.69948,1.0045 -1.06006,1.52192c-3.06592,4.07752 -6.98894,7.55267 -12.22228,8.36053c-3.8383,0.15369 -7.10323,-0.98755 -10.23022,-3.16286c-1.55858,-1.03839 -1.55858,-1.03839 -3.43044,-0.93042c-0.53004,0.27526 -1.05809,0.55052 -1.60388,0.83407c-0.82362,0.4191 -1.64527,0.83603 -2.46889,1.25138c-0.39605,0.21104 -0.79209,0.42206 -1.198,0.63958c-3.66097,1.68744 -6.8924,2.47954 -10.92775,2.4086c-0.4256,-0.0059 -0.85121,-0.00985 -1.29059,-0.01577c-4.62449,-0.11231 -8.93963,-0.90835 -12.33854,-4.28381c-0.8847,-1.18262 -1.4364,-2.23126 -2.05314,-3.59338c0.16946,-0.3387 0.33891,-0.67742 0.5123,-1.02657c0.96352,0.0731 1.92507,0.14837 2.88662,0.22463c0.53594,0.04158 1.07189,0.08335 1.6236,0.1263c1.07189,0.10561 2.1418,0.2463 3.20384,0.42699c6.40965,1.04647 13.11289,-0.11152 18.93932,-2.95972c2.20682,-1.06559 4.28558,-1.36685 6.70324,-0.89829c0.47092,0.25418 0.93987,0.50816 1.42458,0.77002c1.93885,0.90283 3.59792,1.02657 5.6944,0.99465c0.36649,-0.00512 0.73102,-0.01006 1.10736,-0.01516c5.05206,-0.17122 7.41455,-2.28288 10.92183,-5.74386c4.47277,-3.69387 8.94948,-3.46887 14.51187,-3.44423c6.49241,0.06147 6.49241,0.06147 11.92869,-3.21113c2.0886,-3.21902 2.41372,-6.07725 2.1359,-9.88383c-0.41968,-1.59995 -0.41968,-1.59995 -1.02657,-3.0801c-0.35861,-1.19327 -0.68963,-2.39322 -1.02657,-3.59319z" fill="#cde9ee"/><path d="M357.99791,86.65512c0.62066,1.24863 0.56354,2.01985 0.54382,3.4125c-0.00395,0.47407 -0.00788,0.94796 -0.01182,1.43621c-0.01182,0.99702 -0.02562,1.99423 -0.0394,2.99124c-0.00395,0.47584 -0.00788,0.95189 -0.01182,1.44213c-0.0059,0.43407 -0.01182,0.86795 -0.01773,1.31484c0.05122,1.33178 0.26995,2.55361 0.56156,3.85151c0.76254,0.25537 0.76254,0.25537 1.53886,0.51585c0.61081,1.32232 0.61081,1.32232 1.02657,2.58002c-0.84529,-0.51072 -1.69257,-1.02165 -2.56543,-1.54794c-0.18916,0.49497 -0.18916,0.49497 -0.38423,0.99977c-0.80984,1.34517 -1.23937,1.21494 -2.69351,1.58025c-0.14778,0.3194 -0.29556,0.6386 -0.44728,0.96766c-1.24922,2.37352 -4.33879,2.89114 -6.73279,3.67655c-0.30935,0.15822 -0.61673,0.31663 -0.93396,0.4796c-1.32804,0.65554 -2.66987,1.13711 -4.06884,1.61669c-0.50442,0.17615 -1.01081,0.3525 -1.53099,0.53418c-4.05307,1.12647 -8.14162,1.09121 -12.31883,1.11051c-0.56549,0.01065 -1.13298,0.02128 -1.7162,0.03232c-8.50812,0.0402 -16.29113,-2.75952 -22.486,-8.75402c-1.53886,-1.75522 -2.85705,-3.63181 -3.62747,-5.85558c0.16946,-0.34068 0.33891,-0.68116 0.51427,-1.03209c0.51822,0.3194 1.03642,0.6386 1.57039,0.96766c5.03236,2.83242 10.6381,2.87578 16.15912,1.35444c3.19004,-1.07602 5.76929,-2.7481 8.4963,-4.68833c1.47385,-0.72963 1.47385,-0.72963 2.85115,-0.3992c0.94382,0.55801 1.85808,1.16962 2.75853,1.79797c2.87479,1.68211 6.26976,1.33631 9.43616,0.72352c4.67573,-1.37533 8.06084,-4.23238 11.14055,-7.93552c0.94578,-1.11897 1.94477,-2.14812 2.98906,-3.17271z" fill="#6c9f9c"/><path d="M391.81561,168.24059c1.69452,0.50837 3.38906,1.01869 5.13481,1.54281c-4.10824,3.0876 -4.10824,3.0876 -5.64712,3.0876c-0.94775,2.84917 -1.07583,5.79489 0.04729,8.61057c2.32111,4.08264 4.989,6.72492 9.50512,8.08054c1.27089,0.2995 2.53588,0.48472 3.82649,0.67388c2.861,0.52215 4.78212,2.03738 6.64217,4.24618c0,0.33891 0,0.67781 0,1.02854c0.30541,0.13793 0.61279,0.27585 0.93002,0.41773c1.12311,0.61081 1.12311,0.61081 1.83443,1.35168c2.29353,2.22456 5.28062,3.00286 8.39974,3.08562c2.25018,-0.07684 3.35162,-0.58914 5.26289,-1.76744c3.72403,-0.67978 6.66777,0.47683 10.07259,1.89945c6.1732,2.39795 12.51588,2.81765 19.05951,2.79598c0.56549,0.00197 1.13298,0.00395 1.7162,0.0059c3.77131,-0.0059 7.4914,-0.2128 11.24498,-0.58521c0.16946,-0.67978 0.33891,-1.35956 0.51427,-2.05905c-0.29162,2.96543 -0.62856,4.99295 -2.98513,6.94757c-4.9496,3.54275 -9.76522,4.70528 -15.78473,4.56537c-0.54382,0 -1.08766,-0.00197 -1.64725,-0.00197c-7.5308,-0.08276 -13.98972,-2.05905 -20.54913,-5.68258c-1.78123,-0.74087 -2.4216,-0.78815 -4.20873,-0.16748c-0.59309,0.25418 -1.18617,0.50837 -1.79699,0.77042c-3.40482,1.464 -6.853,1.64133 -10.52381,1.28666c-2.60682,-1.23542 -4.90823,-3.37724 -6.04316,-6.09243c-0.20886,-0.66205 -0.41181,-1.32606 -0.61081,-1.99009c-0.97337,-3.32207 -0.97337,-3.32207 -3.47576,-5.53481c-1.58025,-0.36058 -1.58025,-0.36058 -3.19596,-0.55564c-3.52305,-0.52609 -6.49636,-2.68169 -8.7485,-5.37915c-2.68169,-3.85012 -4.86291,-8.26773 -4.53385,-13.09517c0.57536,-1.76349 1.54084,-2.86494 2.73686,-4.26982c0.41968,-0.49654 0.83741,-0.99307 1.26892,-1.5034c1.04234,-1.198 1.04234,-1.198 1.55463,-1.71227z" fill="#cde9ef"/><path d="M383.19124,116.41202c1.1842,0.16965 2.3684,0.3395 3.58807,0.51446c0,0.50934 0,1.01848 0,1.54321c-2.69351,2.05786 -2.69351,2.05786 -4.10037,2.05786c-1.26892,4.65601 -0.28965,7.71051 2.05116,11.83215c0.14384,0.36787 0.28767,0.73614 0.43545,1.11523c0.83939,1.34439 1.65512,1.47187 3.15064,1.97138c0.70343,0.2796 1.40488,0.56413 2.1024,0.85199c0.37831,0.15448 0.75662,0.30915 1.14676,0.46836c0.38619,0.15841 0.77437,0.31684 1.17238,0.48019c0.39211,0.15841 0.78224,0.31703 1.18617,0.48038c0.37634,0.15448 0.75269,0.30896 1.14085,0.46816c0.51032,0.20827 0.51032,0.20827 1.03249,0.42107c0.93396,0.43092 0.93396,0.43092 2.47086,1.45986c0,0.3395 0,0.679 0,1.02873c0.33891,0 0.67585,0 1.02459,0c0.57732,0.59703 1.15465,1.19485 1.72606,1.79659c3.33585,3.09114 6.25991,4.52066 10.73859,4.49739c1.65907,-0.14562 2.56741,-0.74637 3.93683,-1.66399c2.54968,-0.16729 4.56537,0.18542 6.98501,0.96451c5.79884,1.86635 11.62527,2.28368 17.67828,2.22811c1.07976,-0.00966 2.15954,-0.01065 3.24128,-0.01044c3.31812,0.17911 3.31812,0.17911 6.43724,-0.61003c1.02459,-0.0205 2.05116,-0.02226 3.07577,0c-0.26207,2.30397 -0.90835,3.52343 -2.56348,5.14369c-7.64114,4.90231 -16.92953,5.00872 -25.60907,3.44423c-3.30236,-0.7586 -6.70522,-1.55858 -9.4677,-3.60382c-1.2177,-0.97732 -1.2177,-0.97732 -2.49844,-0.86894c-1.663,0.62066 -3.26886,1.33198 -4.87276,2.09058c-2.53983,1.09356 -5.04419,1.32606 -7.78105,0.99702c-2.44722,-1.11326 -3.59792,-2.49844 -4.67573,-4.88557c-0.90835,-2.595 -1.44823,-5.28377 -1.98812,-7.97592c-0.39013,-0.07567 -0.78027,-0.15112 -1.1842,-0.22916c-5.09738,-1.11149 -8.98495,-2.94494 -11.99569,-7.34875c-1.6492,-2.92287 -3.18217,-6.43054 -3.01468,-9.85684c0.92213,-3.28719 3.40089,-6.11883 5.43038,-8.8017z" fill="#cce8ee"/><path d="M312.01509,288.51277c1.31621,0.95957 1.31621,0.95957 1.83048,1.47187c-0.04927,0.30344 -0.09852,0.60491 -0.14976,0.91623c-0.20688,1.40095 -0.2325,2.32308 0.14976,3.69644c1.36351,1.28074 2.77233,2.23047 4.36244,3.21369c1.28469,0.8847 1.28469,0.8847 1.79896,2.4216c-0.16946,0.33891 -0.33891,0.67585 -0.51427,1.02459c-4.79592,-0.18325 -9.59971,-0.37241 -14.37591,-0.865c-0.82756,-0.08079 -0.82756,-0.08079 -1.66892,-0.16551c-1.84823,-0.48472 -3.11912,-1.131 -4.77817,-2.04526c-3.50531,-1.81276 -6.66384,-2.05708 -10.56323,-2.1753c-13.7454,-0.59111 -13.7454,-0.59111 -18.74032,-5.21955c-0.84529,-1.57236 -0.87091,-2.63047 -0.70737,-4.38804c0.16946,0.50837 0.33891,1.01474 0.51427,1.53689c9.31794,0.20098 18.29894,0.38619 27.45532,-1.58616c5.53677,-1.18025 10.55336,-0.94775 15.38672,2.16347z" fill="#d7eef3"/><path d="M381.61099,275.04915c1.02854,1.02854 1.02854,1.02854 1.09159,2.63637c-0.02167,0.48865 -0.04137,0.97534 -0.06305,1.47779c0.67585,-0.12019 0.67585,-0.12019 1.36548,-0.24433c8.96328,-1.26302 23.11259,-1.92507 30.98428,3.32995c-0.16946,0.67978 -0.33891,1.35759 -0.51427,2.05708c-11.38685,3.06198 -21.70376,4.63828 -33.37632,2.05708c0.50837,-0.16946 1.01672,-0.33891 1.54084,-0.51427c-0.33891,-3.56245 -0.67781,-7.12687 -1.02854,-10.79966z" fill="#d4ebf0"/><path d="M436.80733,294.32147c0.60688,0.09064 0.60688,0.09064 1.22557,0.18325c2.1359,0.36451 3.47576,0.85514 5.14073,2.21471c-11.44596,2.07678 -22.85644,3.73388 -34.45609,4.69936c-0.51032,0.04335 -1.01869,0.08669 -1.54478,0.13201c-3.53093,0.27388 -7.03821,0.33102 -10.58096,0.28374c-0.16748,-0.67388 -0.33694,-1.34971 -0.51032,-2.04526c0.78619,-0.40786 1.57631,-0.81179 2.36643,-1.21572c0.4394,-0.22463 0.87879,-0.45122 1.33198,-0.68175c3.41861,-1.58813 6.87467,-2.14772 10.56913,-2.73883c0.53792,-0.08867 1.07583,-0.17733 1.6295,-0.26797c8.32487,-1.35956 16.44876,-1.84625 24.8288,-0.56354z" fill="#d6ecf2"/><path d="M343.6555,279.21454c-0.33694,2.70534 -0.67388,5.41068 -1.02262,8.19876c-13.09517,4.08067 -13.09517,4.08067 -19.43192,1.02459c-0.33694,-0.33891 -0.67388,-0.67781 -1.02262,-1.02459c0.04137,-1.85216 0.2463,-2.78415 1.5034,-4.16341c6.24809,-3.83437 12.80355,-4.17918 19.97377,-4.03535z" fill="#d1e8ee"/><path d="M368.33651,204.30255c0.16748,0 0.33496,0 0.50837,0c0.83544,4.71118 1.24725,9.38493 1.47187,14.15523c0.07684,1.6295 0.16354,3.25704 0.24827,4.88656c0.06502,1.24725 0.13004,2.49254 0.1931,3.73978c0.56747,10.96321 1.42262,21.88111 2.46101,32.81081c0.7192,7.6175 1.3773,15.24879 1.22755,22.90768c0.50245,0.16946 1.00687,0.33891 1.52704,0.5123c-0.84136,0 -1.68074,0 -2.54573,0c-0.87288,-1.54281 -1.16843,-2.72898 -1.25907,-4.49642c-0.0394,-0.73102 -0.0394,-0.73102 -0.08276,-1.47582c-0.02365,-0.52412 -0.04927,-1.05021 -0.07487,-1.59208c-0.02955,-0.54974 -0.05912,-1.09948 -0.09064,-1.66695c-0.06305,-1.17632 -0.12414,-2.3546 -0.18325,-3.53093c-0.12216,-2.43539 -0.25615,-4.87079 -0.38816,-7.30618c-0.06502,-1.2039 -0.13004,-2.40977 -0.1931,-3.61565c-0.2522,-4.69936 -0.53004,-9.39478 -0.84726,-14.09021c-0.03744,-0.59703 -0.07684,-1.19405 -0.11626,-1.80881c-0.03547,-0.53004 -0.0729,-1.06204 -0.11034,-1.6098c-0.02955,-0.44925 -0.06109,-0.89653 -0.09261,-1.35759c-0.07094,-1.08961 -0.07094,-1.08961 -0.63446,-2.08663c-0.11626,-1.28272 -0.20493,-2.55558 -0.27388,-3.84027c-0.02167,-0.39211 -0.04335,-0.78422 -0.06502,-1.18815c-0.07094,-1.28272 -0.13793,-2.56741 -0.20295,-3.85407c-0.02365,-0.43348 -0.04532,-0.86894 -0.06897,-1.31819c-0.41773,-8.06477 -0.532,-16.09803 -0.40786,-24.17462z" fill="#7f4d2f"/><path d="M356.41372,211.00382c0.33694,0 0.67388,0 1.02066,0c0.07684,6.46286 -0.14778,12.91389 -0.38226,19.37083c-0.02167,0.58521 -0.04335,1.16843 -0.06305,1.77137c-0.38226,10.38195 -0.93396,20.74813 -1.56054,31.11826c-0.06897,1.13691 -0.13596,2.27579 -0.20493,3.41271c-0.12808,2.1359 -0.26009,4.26982 -0.39211,6.40375c-0.0394,0.64038 -0.07882,1.27879 -0.11822,1.93885c-0.03744,0.58914 -0.07487,1.1783 -0.11429,1.78516c-0.03152,0.5123 -0.06305,1.02459 -0.09654,1.55266c-0.12808,1.35563 -0.35073,2.64622 -0.64235,3.97426c-0.50639,0 -1.01277,0 -1.53296,0c0.02562,-0.37436 0.05122,-0.74677 0.07684,-1.131c0.6719,-9.90905 1.29257,-19.82008 1.86595,-29.73506c0.08867,-1.51129 0.17733,-3.0206 0.266,-4.53187c0.50245,-8.4628 0.9576,-16.92164 1.1901,-25.39824c0.10246,-3.52698 0.32314,-7.02048 0.68766,-10.53169z" fill="#7e4c2f"/><path d="M394.52882,216.58986c0.51032,0.15961 1.02066,0.31724 1.54676,0.48077c-0.3192,2.97726 -1.88172,4.03535 -4.08264,5.90327c-9.8992,7.93079 -9.8992,7.93079 -16.01528,7.93079c0.19901,-1.27287 0.36451,-1.90733 1.31819,-2.80977c0.3192,-0.21478 0.63841,-0.42758 0.96745,-0.64826c0.3192,-0.21871 0.63643,-0.4394 0.96549,-0.66403c0.87091,-0.48865 0.87091,-0.48865 1.90142,-0.48865c0,-0.33891 0,-0.67585 0,-1.02459c1.10144,-0.84136 2.20289,-1.62753 3.34965,-2.4019c2.20289,-1.50734 4.2383,-2.99893 6.15153,-4.86881c1.35366,-1.24332 2.04723,-1.6571 3.89741,-1.40883z" fill="#815235"/><path d="M361.11506,152.47556c0.94775,1.02262 0.94775,1.02262 1.06401,2.44327c-0.00197,0.60688 -0.00395,1.21375 -0.0059,1.83836c0,0.33496 0,0.66993 0,1.01474c-0.00197,1.11326 -0.01182,2.22654 -0.02167,3.33782c-0.00197,0.77437 -0.0059,1.54676 -0.00788,2.31913c-0.04532,8.63422 -0.28965,17.2645 -0.55367,25.89281c-0.31329,0 -0.62658,0 -0.94775,0c-0.0138,-3.43831 -0.02167,-6.87664 -0.02759,-10.31496c-0.00197,-1.1645 -0.00395,-2.32703 -0.00985,-3.49153c-0.02562,-7.69631 0.11429,-15.3552 0.51032,-23.03969z" fill="#7f4d2f"/><path d="M367.32767,110.89396c1.2236,0.25142 1.2236,0.25142 2.47086,0.50776c0.36058,2.40505 0.55959,4.77011 0.61871,7.20372c0.01182,0.49949 0.02562,0.99878 0.03744,1.51345c-0.18916,1.67976 -0.65811,2.63263 -1.64527,3.97663c-0.32511,0 -0.6522,0 -0.98717,0c-0.57732,-4.40223 -0.54382,-8.77076 -0.49457,-13.20156z" fill="#815237"/><path d="M347.54109,155.06071c1.77334,0.44925 1.77334,0.44925 2.78613,1.28469c0.71722,1.72999 0.37634,3.0206 0,4.82349c0.28177,0.13793 0.56354,0.27585 0.85514,0.41773c1.28666,0.66993 2.51618,1.31424 3.70431,2.15362c0,0.50837 0,1.01869 0,1.54281c-0.67781,-0.40196 -1.35168,-0.81179 -2.02556,-1.22164c-0.37634,-0.2266 -0.75269,-0.45318 -1.14085,-0.68766c-0.29162,-0.21871 -0.58521,-0.43743 -0.88668,-0.66205c0,-0.34087 0,-0.67978 0,-1.02854c-0.33496,-0.09654 -0.66796,-0.19113 -1.01277,-0.28965c-2.16347,-1.05219 -3.92303,-2.57726 -5.57421,-4.34075c0,-0.33891 0,-0.67781 0,-1.02854c1.52114,-1.02854 1.52114,-1.02854 3.29448,-0.96352z" fill="#855437"/><path d="M362.12982,259.08707c0.16946,0 0.33694,0 0.51032,0c0,7.11308 0,14.22617 0,21.556c1.34381,0 2.6876,0 4.07082,0c0,0.16946 0,0.33891 0,0.5123c-2.01571,0 -4.0314,0 -6.10818,0c0.13399,-3.06 0.26995,-6.12001 0.40786,-9.18001c0.04729,-1.04234 0.09261,-2.08466 0.13793,-3.127c0.06502,-1.49355 0.13201,-2.98711 0.20098,-4.48262c0.0197,-0.46895 0.0394,-0.9379 0.05912,-1.42065c0.15566,-3.2866 0.15566,-3.2866 0.72115,-3.85801z" fill="#7e4c30"/><path d="M376.94315,184.79379c0.33102,0.16946 0.66008,0.33891 1.00095,0.5123c-0.31526,0.19901 -0.63249,0.39998 -0.9576,0.60688c-1.69847,1.51129 -1.6768,3.08168 -1.95857,5.30034c-0.29556,4.64223 0.33496,9.35341 0.76254,13.97198c0.15171,1.64725 0.29752,3.29448 0.43743,4.94173c0.06109,0.71525 0.06109,0.71525 0.12216,1.4443c0.14384,2.17332 0.13399,4.34469 0.09261,6.52196c-0.16551,0 -0.33102,0 -0.50047,0c-0.03152,-0.32117 -0.06109,-0.64235 -0.09261,-0.97337c-0.04137,-0.41773 -0.08472,-0.83741 -0.12808,-1.26892c-0.05912,-0.62264 -0.05912,-0.62264 -0.12216,-1.25907c-0.10444,-1.131 -0.10444,-1.131 -0.66008,-2.13392c-0.11231,-1.12508 -0.19703,-2.25214 -0.26797,-3.37921c-0.02167,-0.34087 -0.04335,-0.67978 -0.06502,-1.02854c-0.20886,-3.32995 -0.39211,-6.6599 -0.56354,-9.99182c-0.06305,-1.19405 -0.12808,-2.38613 -0.19703,-3.58019c-0.06897,-1.20982 -0.11822,-2.41962 -0.15763,-3.63339c-0.0394,-0.94578 -0.0394,-0.94578 -0.07882,-1.91127c0.4729,-2.26791 1.50537,-2.8334 3.33389,-4.13977z" fill="#846d5c"/><path d="M389.41174,214.5505c0.50837,0.16946 1.01672,0.33891 1.53886,0.51427c0,0.33891 0,0.67781 0,1.02854c-1.14873,0.84924 -2.29746,1.63542 -3.49743,2.40977c-0.34876,0.22857 -0.69752,0.45713 -1.05809,0.6916c-1.04627,0.68373 -2.09452,1.36153 -3.1467,2.03738c-0.55367,0.35861 -1.10736,0.71722 -1.67877,1.08568c-1.31819,0.84529 -2.64032,1.68467 -3.96835,2.51421c-0.45515,0.2857 -0.90835,0.57339 -1.3773,0.86894c-1.1901,0.6719 -1.1901,0.6719 -2.21864,0.6719c0,-0.33891 0,-0.67781 0,-1.02854c0.96549,-0.7054 0.96549,-0.7054 2.34278,-1.54084c0.51032,-0.31724 1.02066,-0.63249 1.54478,-0.9576c0.28177,-0.17536 0.56156,-0.34876 0.85121,-0.52807c1.67877,-1.05416 3.33389,-2.14377 4.98705,-3.23734c0.32709,-0.2128 0.65416,-0.42758 0.99307,-0.64826c1.74774,-1.15858 3.25901,-2.32308 4.68753,-3.88166z" fill="#7e4c2f"/><path d="M383.16759,116.41202c1.2039,0.16906 2.40584,0.33812 3.64521,0.5123c0,0.50717 0,1.01435 0,1.53689c-5.41658,3.0738 -5.41658,3.0738 -7.29041,3.0738c1.80486,-2.53588 1.80486,-2.53588 3.64521,-5.12299z" fill="#d0e2e5"/><path d="M355.49552,187.74936c1.06598,3.17232 -0.31724,6.51409 -1.72409,9.42435c-1.12115,2.09452 -2.3881,3.81072 -4.00578,5.55057c-0.52017,-1.54871 -0.52017,-1.54871 -0.03152,-2.67775c0.27388,-0.46305 0.27388,-0.46305 0.55367,-0.93593c0.34284,0 0.68766,0 1.04036,0c0.17339,-0.68175 0.34481,-1.36351 0.52215,-2.06496c0.34284,0 0.68766,0 1.04036,0c0.14581,-0.62856 0.28965,-1.2571 0.43743,-1.9034c0.19113,-0.81771 0.38226,-1.63542 0.57339,-2.45509c0.14186,-0.62066 0.14186,-0.62066 0.28767,-1.25514c0.72707,-3.1073 0.72707,-3.1073 1.30636,-3.68264z" fill="#526459"/><path d="M348.99721,111.77434c0.59703,0.54993 1.18617,1.11051 1.75167,1.69473c-1.23937,0.81593 -1.87186,1.07957 -3.35359,0.93456c-0.67388,-0.16669 -0.67388,-0.16669 -1.36351,-0.33654c-0.45515,-0.10837 -0.90835,-0.21654 -1.3773,-0.32807c-0.34481,-0.08906 -0.68963,-0.17832 -1.04431,-0.26995c0,-0.35093 0,-0.70185 0,-1.06342c-0.50442,-0.17536 -1.01081,-0.35073 -1.53099,-0.53162c2.70139,-1.44705 4.36834,-2.13825 6.91802,-0.09969z" fill="#c8e2e5"/><path d="M372.46643,163.70872c0.16946,0 0.33891,0 0.5123,0c0.16946,2.89449 0.33891,5.78899 0.5123,8.77215c1.92112,-1.16055 3.78117,-2.35263 5.6353,-3.61172c-0.29162,1.8699 -0.98519,2.71124 -2.33688,3.9979c-0.4926,0.47485 -0.4926,0.47485 -0.99504,0.95957c-0.2522,0.23842 -0.50442,0.47485 -0.76647,0.7192c-1.27089,-0.4788 -1.27089,-0.4788 -2.5615,-1.54871c-0.33496,-1.58418 -0.24038,-3.13094 -0.15961,-4.74075c0.01182,-0.43743 0.02365,-0.87288 0.03547,-1.32213c0.02955,-1.07583 0.07684,-2.15165 0.12414,-3.22551z" fill="#8e6e5c"/><path d="M368.238,133.95081c0.33299,0.16866 0.66796,0.33734 1.01081,0.51131c-0.24433,0.33673 -0.49062,0.67348 -0.74284,1.02046c-0.95957,1.90634 -1.04234,3.56403 -1.02459,5.65736c-0.00197,0.38167 -0.00197,0.76332 -0.00197,1.15642c0.08079,3.13193 0.86894,5.60653 2.27579,8.41137c0.25024,0.56234 0.25024,0.56234 0.50442,1.13632c-0.16748,0.33734 -0.33299,0.67486 -0.50639,1.02165c-0.16551,-0.67407 -0.33299,-1.34893 -0.50442,-2.04408c-0.33299,0 -0.66796,0 -1.01081,0c-1.68665,-3.19714 -1.74576,-6.00395 -1.70437,-9.58572c-0.00985,-0.79781 -0.00985,-0.79781 -0.01773,-1.61157c0.00197,-0.50954 0.00395,-1.01888 0.0059,-1.54359c0.00197,-0.46185 0.00197,-0.92372 0.00395,-1.39956c0.23053,-1.40389 0.63249,-1.85432 1.71227,-2.73035z" fill="#716957"/><path d="M354.99112,175.92508c0.16551,0.67978 0.32906,1.35956 0.4985,2.05905c0.32906,0 0.65811,0 0.99702,0c0.87879,11.0775 0.87879,11.0775 -0.99702,16.46256c-0.16354,0 -0.32906,0 -0.4985,0c0.03744,-0.52215 0.0729,-1.04431 0.11034,-1.58221c0.79801,-8.3229 0.79801,-8.3229 -0.60688,-16.42511c0.16354,-0.16946 0.32906,-0.33891 0.49654,-0.51427z" fill="#7b624f"/><path d="M390.85799,221.64585c1.1113,0.19901 1.1113,0.19901 2.06496,0.5123c-1.05416,0.81179 -2.10831,1.62163 -3.16247,2.43342c-0.4394,0.34087 -0.4394,0.34087 -0.89061,0.68766c-5.28062,4.0511 -5.28062,4.0511 -6.786,4.0511c0.51624,-1.53689 0.51624,-1.53689 1.54871,-2.5615c0.51032,0 1.02262,0 1.54871,0c0.16946,-0.50837 0.34087,-1.01474 0.51624,-1.53689c0.84529,-0.53792 1.70832,-1.04627 2.57923,-1.53689c0.43743,-0.38028 0.87288,-0.76254 1.32409,-1.15268c0.41378,-0.29752 0.82954,-0.59309 1.2571,-0.89653z" fill="#866450"/><path d="M342.12648,209.82159c0.50442,0 1.00884,0 1.52901,0c0,0.52017 0,1.04036 0,1.57631c-0.32511,0.06502 -0.6522,0.13004 -0.98717,0.19703c-0.34876,0.10837 -0.69555,0.21675 -1.05219,0.32906c-0.16946,0.34679 -0.33694,0.69358 -0.51032,1.05021c-0.67978,0.35073 -1.35956,0.70145 -2.03934,1.05021c-0.16946,0.34679 -0.33694,0.69358 -0.51032,1.05219c-0.84136,0 -1.6827,0 -2.54968,0c-0.16946,0.34679 -0.33694,0.69358 -0.51032,1.05021c-0.16946,-0.34679 -0.33694,-0.69358 -0.51032,-1.05021c1.22952,-1.40095 2.56348,-2.27381 4.14371,-3.21961c1.59208,-0.88864 1.59208,-0.88864 2.99696,-2.03541z" fill="#715a45"/><path d="M386.22168,175.92508c-0.29556,1.79501 -0.87485,2.61075 -2.17727,3.84816c-0.48077,0.46305 -0.48077,0.46305 -0.96942,0.9379c-0.31526,0.29752 -0.62856,0.59703 -0.9517,0.9044c-0.50245,0.50442 -1.00489,1.01081 -1.50537,1.51916c-0.34876,0.35269 -0.69752,0.70343 -1.05612,1.06598c-0.33694,-0.16946 -0.67585,-0.34087 -1.02459,-0.51624c0.7251,-0.90638 1.4502,-1.81078 2.17727,-2.71519c0.40393,-0.50442 0.80786,-1.00884 1.22557,-1.52704c2.93587,-3.51713 2.93587,-3.51713 4.28165,-3.51713z" fill="#58776f"/><path d="M345.71848,258.10189c0.17733,0 0.35466,0 0.53792,0c0.83544,5.08161 0.08669,9.4401 -1.07583,14.3838c-0.17733,0 -0.35664,0 -0.53792,0c0.51822,-9.66868 0.51822,-9.66868 1.07583,-14.3838z" fill="#8e6e5f"/><path d="M377.99927,184.20267c0.50245,0.17143 1.00489,0.34087 1.52114,0.51822c-0.38423,0.36649 -0.38423,0.36649 -0.77634,0.74087c-1.78911,1.8561 -3.02651,3.16049 -3.02651,5.85203c0.08276,1.1783 0.2463,2.17727 0.58521,3.3063c0.08669,0.47683 0.08669,0.47683 0.17536,0.96155c-0.33496,0.34087 -0.66993,0.68373 -1.01474,1.03444c-1.15268,-3.46393 -1.16253,-6.33281 0,-9.82631c0.76845,-1.13298 1.4502,-1.74182 2.53588,-2.58711z" fill="#5a7e7a"/><path d="M359.04617,102.61758c1.72212,0.75288 2.8275,1.70143 4.12796,3.05941c0.34087,0.35309 0.68175,0.70618 1.03249,1.06991c0.34087,0.35586 0.68175,0.71151 1.03249,1.07819c0.6857,0.69534 1.37336,1.39011 2.06299,2.08289c-2.72504,-0.77357 -4.78802,-2.64878 -6.70719,-4.68675c0,-0.34364 0,-0.68727 0,-1.04154c-2.04526,1.0311 -2.04526,1.0311 -4.12992,2.08308c0.57339,-1.7369 1.27681,-2.41471 2.5812,-3.64521z" fill="#75604a"/><path d="M386.81279,211.3979c2.43342,0.45122 2.43342,0.45122 3.5861,1.03051c0,0.34087 0,0.67978 0,1.03051c0.44333,0.12808 0.88864,0.25615 1.34578,0.38619c1.84428,0.68766 3.24325,1.5034 4.80182,2.70534c0.16946,0.51032 0.33891,1.02066 0.5123,1.54676c-0.33694,0 -0.67585,0 -1.02459,0c0,-0.34087 0,-0.67978 0,-1.03051c-0.55171,-0.07487 -0.55171,-0.07487 -1.11721,-0.14976c-1.66695,-0.42166 -2.68169,-1.09356 -4.06884,-2.10437c-0.43545,-0.31329 -0.86894,-0.62461 -1.31819,-0.94775c-0.98912,-0.77239 -1.86005,-1.55069 -2.71716,-2.46692z" fill="#5c7569"/><path d="M353.9606,190.31086c0.17536,0 0.35269,0 0.53397,0c-0.29359,2.35658 -0.7586,4.4708 -1.60388,6.6993c-0.53004,0 -1.06006,0 -1.60388,0c-0.17733,-0.51032 -0.35466,-1.01869 -0.53594,-1.54478c0.35269,0 0.7054,0 1.06991,0c0,-0.34087 0,-0.67978 0,-1.03051c-0.35269,-0.17143 -0.7054,-0.34087 -1.06991,-0.51624c0.52215,-0.60294 1.04627,-1.2039 1.57039,-1.80291c0.29162,-0.33496 0.58324,-0.66993 0.8847,-1.01474c0.37241,-0.39013 0.37241,-0.39013 0.75465,-0.79012z" fill="#437273"/><path d="M358.53385,133.9506c0.16158,0 0.32511,0 0.4926,0c-0.74875,7.20431 -0.74875,7.20431 -2.27776,9.14691c-0.22463,0.16748 -0.44728,0.33536 -0.67781,0.50797c0.07094,-0.35624 0.14186,-0.71269 0.21478,-1.07976c0.2857,-1.49926 0.532,-3.00187 0.77042,-4.50982c-0.32511,-0.16767 -0.65023,-0.33536 -0.98519,-0.50816c0.39801,-0.59426 0.79801,-1.18676 1.19997,-1.77846c0.22265,-0.33024 0.44728,-0.66027 0.67585,-1.00057c0.1931,-0.25674 0.38816,-0.51347 0.58717,-0.7781z" fill="#617b76"/><path d="M352.32715,108.73838c-0.63249,1.28331 -1.25907,1.46754 -2.51816,2.04446c0.83151,1.01199 1.66103,2.02398 2.51816,3.0667c-2.21077,0 -2.90632,-1.08785 -4.53187,-2.55558c0.50245,-1.27484 0.84924,-1.93591 1.98221,-2.71538c1.03839,-0.35132 1.03839,-0.35132 2.54968,0.1598z" fill="#765c4b"/><path d="M343.69491,277.21658c0.16946,0 0.33891,0 0.5123,0c0,2.68366 0,5.36733 0,8.13177c0.33891,0.16748 0.67585,0.33496 1.02459,0.50837c-0.84529,0.33496 -1.69059,0.66993 -2.5615,1.01474c0.28177,-3.22749 0.59703,-6.44119 1.02459,-9.65488z" fill="#8a7262"/><path d="M367.69811,197.60324c1.28074,1.24922 1.37336,1.85018 1.57631,3.5861c-0.23053,1.6965 -0.23053,1.6965 -0.52609,3.0738c-0.34679,-0.16946 -0.69358,-0.33891 -1.05021,-0.5123c0,-2.02949 0,-4.05702 0,-6.1476zM367.69811,204.26314c0.17339,0 0.34679,0 0.52609,0c0,2.02753 0,4.05702 0,6.1476c-0.17339,0 -0.34679,0 -0.52609,0c0,-2.02949 0,-4.05702 0,-6.1476z" fill="#845136"/><path d="M330.25492,189.86948c0,0.16748 0,0.33496 0,0.50639c-0.65811,0.00985 -1.31621,0.02167 -1.99404,0.03152c-3.08365,0.32117 -4.86094,2.0492 -7.1249,4.01565c-0.50245,0.33299 -1.00489,0.66796 -1.52114,1.01081c0.17931,-1.42065 0.45318,-1.97039 1.48567,-2.99498c3.12502,-2.27579 5.29244,-3.08562 9.15441,-2.56938z" fill="#dbebee"/><path d="M451.91819,151.88366c0.17143,0.33812 0.34284,0.67663 0.51822,1.02539c-0.59309,1.42655 -0.59309,1.42655 -1.45415,3.10532c-0.28177,0.55564 -0.56156,1.1113 -0.85121,1.6827c-0.79801,1.35956 -0.79801,1.35956 -1.83246,1.87186c0.29752,-1.2236 0.63249,-2.39205 1.03444,-3.5861c0.34087,0 0.68175,0 1.03444,0c0.09654,-0.72905 0.09654,-0.72905 0.1931,-1.47385c0.32314,-1.59995 0.32314,-1.59995 1.35759,-2.62534z" fill="#618282"/><path d="M462.65087,214.94458c0.33496,0.16946 0.6719,0.33891 1.01672,0.5123c-0.63249,0.57929 -1.27089,1.15465 -1.90733,1.72999c-0.35466,0.3192 -0.70935,0.64038 -1.07386,0.9714c-1.01081,0.82164 -1.94477,1.37928 -3.127,1.9093c0,-0.50639 0,-1.01474 0,-1.53689c1.11326,-0.93396 1.11326,-0.93396 2.54573,-1.8896c0.70935,-0.4788 0.70935,-0.4788 1.43247,-0.96549c0.54974,-0.36256 0.54974,-0.36256 1.11326,-0.73102z" fill="#587d7d"/><path d="M343.6555,209.42357c-1.62163,1.33789 -3.21173,2.58908 -5.08949,3.55063c-0.33694,-0.16748 -0.6719,-0.33496 -1.01869,-0.50837c0.32511,-0.21871 0.65023,-0.4394 0.98717,-0.66598c1.18617,-0.80984 1.18617,-0.80984 1.55858,-2.37628c1.35759,-0.67585 2.12013,-0.34087 3.56245,0z" fill="#55655b"/><path d="M349.76565,160.16005c0.16748,0.33891 0.33694,0.67585 0.5123,1.02459c0.6719,0.36058 1.35759,0.69948 2.0492,1.02459c1.40883,0.73692 1.40883,0.73692 2.5615,1.53689c0,0.50837 0,1.01474 0,1.53689c-0.6857,-0.39998 -1.36941,-0.80786 -2.0492,-1.21572c-0.38028,-0.2266 -0.76254,-0.45122 -1.15268,-0.6857c-0.4453,-0.32511 -0.4453,-0.32511 -0.89653,-0.66008c0,-0.33694 0,-0.67585 0,-1.02459c-0.33891,0 -0.67781,0 -1.02459,0c0,-0.50639 0,-1.01474 0,-1.53689z" fill="#7f4e31"/><path d="M347.71054,111.87916c2.46889,0.87072 2.46889,0.87072 3.03833,1.99028c-1.72409,0.56589 -2.92602,0.41792 -4.68558,0.03113c-0.45318,-0.09675 -0.9044,-0.19369 -1.36941,-0.29338c-0.34284,-0.07764 -0.6857,-0.15526 -1.03839,-0.23527c0,-0.16433 0,-0.32846 0,-0.49772c0.57536,-0.07172 1.1507,-0.14365 1.74182,-0.21753c1.70832,-0.08669 1.70832,-0.08669 2.31323,-0.77752z" fill="#e2ecec"/><path d="M335.37989,216.12681c3.97426,1.198 3.97426,1.198 5.19393,1.97039c0.39013,1.04627 0.39013,1.04627 0.52017,1.97039c-2.22654,-1.13691 -4.0117,-2.13392 -5.71412,-3.94076z" fill="#866856"/><path d="M375.97373,113.98963c0.73102,-0.03902 1.464,-0.0668 2.19501,-0.08984c0.61279,-0.02503 0.61279,-0.02503 1.23542,-0.05044c1.39503,0.16985 1.80881,0.56806 2.67775,1.57631c-0.82756,-0.05458 -1.65315,-0.11565 -2.48071,-0.1795c-0.46107,-0.03331 -0.92213,-0.0666 -1.39503,-0.10089c-1.21375,-0.19842 -1.21375,-0.19842 -2.23244,-1.15564z" fill="#8fa49e"/><path d="M381.04942,179.07967c0.34087,0.17143 0.68175,0.34284 1.03444,0.51822c-1.36548,1.71424 -2.73096,3.42846 -4.13781,5.1959c0,-1.61375 0.27782,-2.26201 1.03444,-3.63732c0.34087,0 0.68175,0 1.03444,0c0.34087,-0.6857 0.68175,-1.37138 1.03444,-2.07678z" fill="#745940"/><path d="M347.75389,153.98093c0.33891,0.50047 0.67781,0.99899 1.02459,1.51326c-0.47485,-0.00985 -0.94972,-0.02167 -1.44035,-0.03152c-1.64527,-0.04729 -1.64527,-0.04729 -3.17034,0.53594c-0.16748,0.33299 -0.33694,0.66598 -0.5123,1.00884c0,-1.51326 0,-1.51326 0.60886,-2.36445c1.24725,-0.88864 1.98614,-0.88864 3.48955,-0.66205z" fill="#82644d"/><path d="M274.28817,149.32195c1.36548,0.85356 2.73096,1.70694 4.13781,2.58633c-0.68175,0.17063 -1.36548,0.34127 -2.0689,0.51801c-0.16946,0.34087 -0.34087,0.68175 -0.51624,1.03444c-1.55266,-2.97489 -1.55266,-2.97489 -1.55266,-4.1388z" fill="#5f8585"/><path d="M386.22168,175.92706c0,0.52017 0,1.04036 0,1.57631c-1.13298,0.78815 -1.13298,0.78815 -2.51816,1.57631c-0.67781,0.51624 -1.35168,1.03839 -2.01374,1.57631c0.77634,-1.99206 2.29353,-4.72892 4.53187,-4.72892z" fill="#676f5f"/><path d="M388.80485,171.98432c0.51624,1.53689 0.51624,1.53689 -0.12808,2.84917c-0.9044,1.24922 -0.9044,1.24922 -2.45509,2.27381c0.26009,-2.25411 1.07976,-3.43831 2.58318,-5.12299z" fill="#c5d0cb"/><path d="M378.08794,230.90862c1.04431,0.22857 1.04431,0.22857 2.02359,0.52412c-0.50047,0.34679 -1.00095,0.69358 -1.51719,1.05219c-0.37241,1.6098 -0.37241,1.6098 -0.50639,3.15262c-1.01277,-1.57631 -1.01277,-1.57631 -0.85514,-2.95557c0.34876,-1.24922 0.34876,-1.24922 0.85514,-1.77334z" fill="#8d6d58"/><path d="M342.1186,209.82159c0.50639,0 1.01474,0 1.53689,0c0,0.52017 0,1.04036 0,1.57631c-0.32709,0.06502 -0.65416,0.13004 -0.99307,0.19703c-0.34876,0.10837 -0.69752,0.21675 -1.05612,0.32906c-0.16946,0.34679 -0.33891,0.69358 -0.5123,1.05021c0,-2.1024 0,-2.1024 1.02459,-3.15262z" fill="#785336"/><path d="M384.7774,168.24059c0.34679,0.34679 0.69358,0.69358 1.05021,1.05021c-0.72115,0.78815 -0.72115,0.78815 -1.57631,1.57631c-0.34679,0 -0.69358,0 -1.05021,0c0.98519,-2.03541 0.98519,-2.03541 1.57631,-2.62652zM381.62478,171.9193c0.17339,0.34679 0.34679,0.69358 0.52609,1.05021c-0.34679,-0.17339 -0.69358,-0.34679 -1.05219,-0.52609c0.17339,-0.17339 0.34679,-0.34679 0.52609,-0.52412z" fill="#7f4e30"/><path d="M412.43173,281.15931c1.26696,0.52017 1.26696,0.52017 2.5615,1.05219c-0.16946,0.69358 -0.33891,1.38715 -0.5123,2.10043c-0.67585,-0.17339 -1.35168,-0.34679 -2.0492,-0.52412c0.16946,-0.34679 0.33891,-0.69358 0.5123,-1.05219c-0.16946,-0.52017 -0.33891,-1.04036 -0.5123,-1.57631z" fill="#e1f0f4"/><path d="M374.36983,176.51621c0.33496,0 0.66796,0 1.01277,0c-0.65416,1.46202 -1.34774,2.46889 -2.53391,3.5467c-0.33299,-0.16748 -0.66796,-0.33299 -1.01277,-0.50639c0.81969,-1.03444 1.66497,-2.04723 2.53391,-3.0403z" fill="#805235"/><path d="M382.675,164.69391c0,2.02161 -0.76254,2.64622 -2.02753,4.13781c-0.50047,-0.17143 -1.00292,-0.34284 -1.51916,-0.51822c1.1704,-1.19405 2.34081,-2.39007 3.5467,-3.61959z" fill="#8e6f5d"/><path d="M347.79528,152.98983c-0.17143,0.33694 -0.34284,0.67585 -0.51822,1.02262c-1.19602,0.37436 -2.40387,0.71722 -3.62157,1.02459c1.04824,-2.29353 1.65907,-2.78395 4.13977,-2.04723z" fill="#628074"/><path d="M357.98413,102.02647c0.66993,0.17339 1.33789,0.34679 2.02753,0.5255c-0.33496,0 -0.66796,0 -1.01277,0c-0.13596,0.33595 -0.27192,0.6719 -0.41181,1.0179c-0.60294,1.08371 -0.60294,1.08371 -2.1221,1.60922c0,-0.52017 0,-1.04036 0,-1.57631c0.33496,0 0.66796,0 1.01277,0c0.16748,-0.52017 0.33496,-1.04036 0.50639,-1.57631z" fill="#7a9688"/></g><path d="M232.52665,85.31765c0.99599,0.8298 1.98958,1.66572 2.97361,2.50992c0.76668,0.5982 1.53338,1.19631 2.32396,1.81264c10.22494,9.11401 18.0256,21.2724 24.93536,32.96956c2.91868,4.85379 6.06905,9.56643 9.1764,14.30009c0.53739,0.82066 1.07481,1.6411 1.62652,2.4866c12.60144,19.10182 25.55396,33.96559 47.62079,41.76267c11.37855,4.06394 18.31699,10.92929 24.46246,21.24021c0.96731,1.58736 1.93703,3.17448 2.90674,4.76136c0.48725,0.8061 0.97687,1.6122 1.47846,2.44266c2.33112,3.83298 4.7124,7.633 7.09369,11.4342c0.45857,0.7366 0.91954,1.47319 1.39245,2.23177c3.98871,6.37834 8.02279,12.72515 12.06643,19.06766c3.06199,4.8003 6.11204,9.60608 9.13819,14.42884c1.64326,2.61916 3.31517,5.21898 4.99664,7.81427c0.90283,1.41276 1.80566,2.82552 2.70611,4.23852c0.4347,0.65896 0.867,1.31819 1.31125,1.99722c0.39409,0.61981 0.7858,1.23937 1.18944,1.87779c0.3535,0.54504 0.7046,1.08985 1.06763,1.65114c0.85028,2.09681 0.64011,3.23038 -0.0812,5.34987c-1.22765,0.76311 -2.46964,1.50449 -3.71881,2.23104c-0.46097,0.69026 -0.91954,1.38052 -1.39486,2.09157c-6.31983,9.48237 -19.27952,12.71011 -29.83644,15.01305c-0.78102,0.17317 -0.78102,0.17317 -1.57637,0.34991c-19.48016,4.22874 -39.36634,6.38096 -59.21193,7.96976c-0.70938,0.05852 -1.41635,0.11703 -2.14722,0.17722c-29.97737,2.43694 -60.03354,2.90842 -90.09451,2.85204c-4.54282,-0.00859 -9.08326,-0.00359 -13.62368,0.00502c-28.88346,0.0461 -57.75259,-0.47577 -86.53812,-3.03428c-1.08197,-0.09338 -1.08197,-0.09338 -2.18543,-0.18845c-74.0991,-6.42468 -74.0991,-6.42468 -86.76502,-21.11934c-1.18228,-1.59716 -2.32396,-3.1869 -3.39399,-4.86c-0.30811,-0.47553 -0.61862,-0.95108 -0.93866,-1.44095c-0.96731,-1.90287 -1.39245,-3.09663 -1.52382,-5.2522c0.96016,-1.93298 1.92509,-3.58577 3.12169,-5.36253c0.50634,-0.77743 0.50634,-0.77743 1.01986,-1.5704c1.08675,-1.66354 2.18781,-3.31541 3.29367,-4.96582c0.71175,-1.07122 1.42351,-2.14244 2.13526,-3.21366c1.82237,-2.73692 3.66149,-5.46404 5.5006,-8.19021c9.881,-14.66147 18.7899,-29.60715 27.16856,-45.1791c19.13144,-35.48512 19.13144,-35.48512 37.93327,-41.50948c3.0811,-0.91765 6.16936,-1.80185 9.27912,-2.62156c19.06217,-5.12895 28.13826,-20.36794 38.39902,-35.98191c30.4455,-46.20321 30.4455,-46.20321 54.17708,-51.1421c15.33142,-2.00087 30.13739,1.06483 42.5358,10.5654z" fill="#7ca8b9"/><path d="M199.36789,82.3076c1.00077,-0.00863 1.00077,-0.00863 2.02301,-0.01742c11.06088,0.03215 20.32328,4.47913 28.81898,11.35743c0.60188,0.47064 1.20378,0.94128 1.82237,1.42626c11.77025,9.8203 19.88858,24.42158 27.7776,37.36216c3.77136,6.18297 7.55942,12.3215 11.7392,18.2372c0.34154,0.48438 0.6831,0.96875 1.03658,1.46793c2.0445,2.84129 4.22993,5.4884 6.58254,8.08225c0.83357,1.09272 0.83357,1.09272 0.83357,2.58c-1.28976,0.02865 -1.28976,0.02865 -2.60579,0.05803c-1.14407,0.0418 -2.28813,0.08455 -3.4322,0.12778c-0.8479,0.01577 -0.8479,0.01577 -1.71252,0.032c-3.90033,0.16815 -6.27922,0.87369 -9.3412,3.50003c-2.01345,3.00585 -1.98718,6.17485 -1.48799,9.66699c0.58756,1.83312 1.199,3.63162 1.85821,5.43777c1.75551,4.88414 2.87091,9.45394 1.85821,14.63973c-1.57875,2.46321 -1.57875,2.46321 -3.71641,3.71809c-5.00617,0.34154 -9.26716,-3.64215 -12.91433,-6.67498c-2.70849,-2.39203 -5.32384,-4.85141 -7.82931,-7.45362c-8.28551,-8.80094 -8.28551,-8.80094 -19.2007,-12.87372c-4.37086,0.07882 -6.65421,2.21862 -9.63259,5.27202c-3.41548,4.04053 -5.62479,8.86613 -8.01801,13.55061c-4.38518,8.57714 -7.88664,14.9132 -16.7215,19.33375c-4.54282,0.3788 -6.79274,0.06592 -10.40645,-2.97433c-5.80393,-5.97972 -6.79989,-13.3772 -6.71391,-21.34457c0.00956,-0.712 0.02149,-1.42399 0.03105,-2.15748c0.01434,-1.5286 0.02627,-3.05672 0.03821,-4.58533c0.0239,-2.39395 0.05015,-4.78788 0.0836,-7.18158c0.03343,-2.3211 0.05015,-4.64171 0.06448,-6.9628c0.01434,-0.71653 0.02865,-1.43307 0.04299,-2.17134c0.00238,-0.66782 0.00478,-1.33561 0.00716,-2.02373c0.00716,-0.58541 0.01434,-1.17081 0.02149,-1.7739c-0.33438,-2.06554 -1.07003,-3.0811 -2.49114,-4.59561c-2.30724,-0.53693 -3.74031,-0.38909 -5.83736,0.74353c-3.63521,2.55181 -6.45598,5.71555 -9.37225,9.03955c-16.77165,18.82381 -16.77165,18.82381 -28.06184,21.02739c-3.7809,0.00813 -5.92812,-0.80802 -8.75126,-3.29678c-1.82715,-2.99153 -2.03735,-6.25415 -1.48799,-9.66699c2.5604,-7.8642 6.52284,-13.8666 11.83474,-20.09397c4.1368,-4.91471 7.64542,-10.26004 11.20419,-15.59941c0.65443,-0.97496 1.30647,-1.95015 1.96092,-2.92489c2.34307,-3.50671 4.67657,-7.02107 6.99575,-10.54428c5.57462,-8.44005 11.3881,-16.62691 17.79869,-24.45481c0.47053,-0.61454 0.94104,-1.22908 1.42829,-1.86206c8.49092,-10.20492 20.80575,-15.53955 33.87292,-15.42696z" fill="#fcfdfd"/><path d="M232.3905,85.30811c0.99837,0.82909 1.98958,1.66431 2.97361,2.50779c0.76668,0.59769 1.53338,1.1953 2.32396,1.81108c10.21776,9.10621 18.01604,21.25432 24.92341,32.94144c2.9163,4.8495 6.06664,9.55807 9.17162,14.28791c0.53502,0.81995 1.07241,1.63967 1.62414,2.48447c12.59666,19.08559 25.54202,33.93668 47.5993,41.72708c11.37139,4.06035 18.30503,10.91973 24.44812,21.22204c0.96731,1.58593 1.93703,3.17162 2.90674,4.75706c0.48725,0.80538 0.97449,1.61077 1.47846,2.44075c2.32874,3.82964 4.70762,7.62654 7.08891,11.4244c0.45857,0.73587 0.91954,1.47176 1.39245,2.22985c3.98631,6.37308 8.01801,12.71416 12.06165,19.05118c3.05721,4.79646 6.10963,9.59797 9.13341,14.41666c1.64326,2.61678 3.31277,5.21445 4.99186,7.80782c0.90283,1.41133 1.80566,2.8229 2.70611,4.23471c0.4323,0.6585 0.86462,1.31698 1.31125,1.99554c0.39171,0.61932 0.7858,1.2384 1.18944,1.87635c0.3511,0.54433 0.7022,1.08888 1.06525,1.64969c0.84312,2.07507 0.57085,3.23516 -0.0812,5.34533c-0.74281,0.74305 -0.74281,0.74305 -3.47041,1.25082c-1.62892,-0.02652 -1.62892,-0.02652 -3.21963,-0.50777c-2.05884,-2.1742 -3.31755,-4.73962 -4.69091,-7.38411c-0.83834,-1.51427 -1.67907,-3.02734 -2.51981,-4.53947c-0.4132,-0.75331 -0.82641,-1.50662 -1.24915,-2.28264c-1.65519,-2.95068 -3.46801,-5.77668 -5.33577,-8.59577c-0.67114,-1.02129 -1.33991,-2.04307 -2.00869,-3.06509c-0.33438,-0.50755 -0.66639,-1.01532 -1.0103,-1.5384c-2.18781,-3.36507 -4.31591,-6.76908 -6.45357,-10.16666c-2.00629,-3.1838 -4.01974,-6.36163 -6.04993,-9.52941c-4.29682,-6.70484 -8.52197,-13.43142 -12.57995,-20.28267c-7.23699,-12.15049 -13.63802,-20.61729 -27.45278,-25.0309c-15.10692,-4.86764 -27.3644,-15.53873 -36.93013,-27.95698c-0.81207,-1.04446 -0.81207,-1.04446 -1.64326,-2.10996c-6.30789,-8.24252 -11.87295,-16.92165 -17.30906,-25.75389c-18.22383,-29.71177 -18.22383,-29.71177 -47.19327,-47.92577c-12.72801,-2.87071 -25.58263,-0.82824 -36.59097,6.02273c-12.25272,8.38005 -19.965,21.98726 -28.07139,34.10122c-0.37021,0.55411 -0.74281,1.108 -1.12496,1.67885c-2.63207,3.92709 -5.25457,7.86061 -7.84603,11.81492c-11.36899,17.27204 -21.80171,28.80464 -42.40445,33.689c-12.55127,2.99845 -20.0462,8.50477 -26.96793,19.46987c-3.20291,5.23237 -6.08814,10.64171 -9.00204,16.03697c-3.49428,6.41966 -7.12712,12.76384 -10.75995,19.10635c-0.38931,0.68024 -0.77864,1.36045 -1.17751,2.06122c-5.9114,10.29466 -12.30287,20.19955 -18.96186,30.02441c-1.34231,1.98766 -2.67268,3.98296 -3.99587,5.98353c-0.39649,0.60117 -0.79535,1.20235 -1.20616,1.82191c-0.72369,1.09701 -1.44978,2.1945 -2.17349,3.29295c-0.97209,1.46603 -1.9633,2.91868 -2.95689,4.37038c-0.54935,0.83619 -0.54935,0.83619 -1.10824,1.68935c-0.37499,0.54576 -0.75236,1.09177 -1.13929,1.65425c-0.33438,0.49824 -0.66876,0.99623 -1.01508,1.50927c-1.1966,1.09153 -1.1966,1.09153 -3.10738,1.30623c-1.80566,-0.21473 -1.80566,-0.21473 -3.19813,-1.05067c-0.83834,-1.39318 -0.83834,-1.39318 -0.80013,-3.26143c1.02226,-3.74509 3.06676,-6.5675 5.23308,-9.75918c0.45857,-0.69121 0.91954,-1.38219 1.39245,-2.09443c1.47128,-2.21122 2.95451,-4.41528 4.44013,-6.61886c1.92987,-2.88333 3.85494,-5.76904 5.78003,-8.65524c0.7022,-1.05283 0.7022,-1.05283 1.42113,-2.12691c5.5006,-8.25423 10.80772,-16.62286 15.69924,-25.25517c0.36303,-0.63701 0.72609,-1.27399 1.10106,-1.93033c3.05483,-5.39097 5.97111,-10.85285 8.88501,-16.32048c8.67722,-16.22877 17.62911,-32.29272 36.14671,-38.24376c3.0787,-0.9162 6.16458,-1.79755 9.27194,-2.61583c19.05502,-5.12609 28.12394,-20.35026 38.37991,-35.95158c30.43356,-46.16377 30.43356,-46.16377 54.15081,-51.09843c15.32427,-1.99916 30.12545,1.06393 42.5143,10.55637z" fill="#3a5668"/><path d="M204.29046,82.52904c10.00281,0.04623 18.42206,4.96455 25.9791,11.15419c0.5995,0.46969 1.199,0.93939 1.81522,1.42333c11.7607,9.81246 19.86947,24.42592 27.75133,37.36533c3.76418,6.18297 7.54748,12.3215 11.72249,18.2372c0.51352,0.72658 0.51352,0.72658 1.03658,1.46793c2.04212,2.84129 4.22515,5.4884 6.57301,8.08225c0.83357,1.09272 0.83357,1.09272 0.83357,2.58c-1.28738,0.02865 -1.28738,0.02865 -2.60341,0.05803c-1.14167,0.04204 -2.28335,0.08455 -3.42742,0.12778c-0.8455,0.01577 -0.8455,0.01577 -1.71012,0.032c-3.89555,0.16839 -6.27206,0.87369 -9.33164,3.50027c-2.00869,3.00563 -1.98242,6.1746 -1.48321,9.66699c0.58516,1.8329 1.1966,3.63162 1.85583,5.43777c1.75311,4.8839 2.86613,9.45394 1.85583,14.63973c-1.57875,2.46321 -1.57875,2.46321 -3.71163,3.71809c-5.03245,0.3437 -9.32926,-3.68943 -12.97881,-6.75356c-4.25143,-3.77733 -8.28551,-7.76866 -12.25988,-11.8369c0.69742,-1.79658 1.39008,-3.54062 2.29768,-5.24288c2.22842,-4.80078 0.51352,-9.93903 -1.18466,-14.64857c-0.62577,-1.6934 -1.26349,-3.38179 -1.90838,-5.06779c-1.20856,-3.17759 -2.35979,-6.37618 -3.51818,-9.57216c-0.2484,-0.68094 -0.49918,-1.36164 -0.75474,-2.06313c-1.66235,-4.5624 -3.25306,-9.14535 -4.81272,-13.74382c-7.76005,-23.9592 -7.76005,-23.9592 -21.10908,-45.04156c-0.92672,-1.28969 -0.92672,-1.28969 -0.92672,-3.52051z" fill="#e1f0f5"/><path d="M135.06856,219.40265c3.53012,0.55699 3.53012,0.55699 5.20203,2.22794c-0.24362,2.77632 -1.1154,4.56504 -2.72523,6.803c-0.4132,0.58182 -0.82641,1.1639 -1.25393,1.7634c-0.44904,0.61956 -0.89805,1.23913 -1.36142,1.87732c-0.9506,1.33348 -1.9036,2.66693 -2.85419,4.0004c-0.48963,0.68213 -0.97687,1.36404 -1.48321,2.06672c-1.86539,2.61319 -3.70688,5.24502 -5.54359,7.87973c-1.70534,2.44529 -3.41786,4.88509 -5.13276,7.32489c-0.77864,1.11183 -1.55966,2.22483 -2.33589,3.33904c-1.02464,1.4689 -2.05406,2.93469 -3.08586,4.39927c-0.29617,0.42633 -0.59234,0.85292 -0.89567,1.29214c-1.41157,1.99363 -2.47204,3.17926 -4.53804,4.55619c-2.36933,-0.27824 -2.36933,-0.27824 -4.45922,-0.74256c-0.45857,-3.13411 0.06926,-4.87029 1.82715,-7.3975c0.81923,-1.10036 1.65279,-2.19259 2.49354,-3.27815c0.89327,-1.19541 1.78894,-2.39155 2.68221,-3.58863c0.44904,-0.59783 0.89805,-1.1959 1.36142,-1.81187c1.8797,-2.5327 3.65911,-5.12704 5.42893,-7.73521c2.89956,-4.24284 5.82302,-8.46751 8.77991,-12.67165c0.54217,-0.7784 0.54217,-0.7784 1.09868,-1.57256c2.13766,-3.03452 4.37802,-5.91259 6.79511,-8.73192z" fill="#538497"/><path d="M282.29944,223.94118c1.7388,0.21305 3.47519,0.4593 5.20443,0.74138c0.48963,1.22336 0.97927,2.44672 1.48561,3.7071c0.48963,0 0.98165,0 1.48561,0c0.26274,0.50277 0.52308,1.00552 0.79295,1.52334c2.91152,5.47503 6.21235,10.48814 9.92161,15.45394c5.79437,7.83768 5.79437,7.83768 5.45283,11.93792c-0.18392,0.48938 -0.36781,0.97879 -0.55889,1.48275c-2.20693,0.36711 -2.20693,0.36711 -4.45922,0.74162c-3.5373,-4.50985 -6.62078,-9.23516 -9.66127,-14.08703c-0.867,-1.35997 -1.73402,-2.71923 -2.60341,-4.0778c-0.42036,-0.66804 -0.84312,-1.3361 -1.2802,-2.0242c-0.91239,-1.42113 -1.84865,-2.82792 -2.80403,-4.22278c-0.47531,-0.70627 -0.953,-1.41252 -1.44262,-2.14028c-0.43708,-0.63174 -0.87178,-1.26324 -1.32081,-1.91434c-1.13212,-2.29099 -1.18944,-3.85591 -0.95538,-6.38026c0.246,-0.24457 0.48963,-0.48916 0.74281,-0.74138z" fill="#598a9c"/><path d="M161.05246,156.10169c0,2.23223 0,2.23223 -1.57159,4.05676c-0.72131,0.71821 -1.445,1.4302 -2.17587,2.13718c-0.38215,0.37667 -0.76192,0.75331 -1.15361,1.14167c-1.21812,1.20305 -2.44337,2.39824 -3.66864,3.59317c-0.82401,0.81399 -1.65042,1.62819 -2.47682,2.44315c-2.02541,1.99746 -4.05557,3.98774 -6.09292,5.97445c-0.48963,-0.24554 -0.98165,-0.49106 -1.49039,-0.744c0.36066,-0.35588 0.72131,-0.71175 1.0939,-1.07862c1.65519,-1.63824 3.30799,-3.27934 4.9608,-4.92068c0.56845,-0.55962 1.13452,-1.11947 1.71968,-1.69603c2.58192,-2.56901 5.10411,-5.13994 7.45194,-7.92771c1.91315,-2.23534 1.91315,-2.23534 3.40353,-2.97935z" fill="#88a6b2"/></g></g></svg>