<svg version="1.1" xmlns="http://www.w3.org/2000/svg" xmlns:xlink="http://www.w3.org/1999/xlink" width="61.28383" height="61.28383" viewBox="0,0,61.28383,61.28383"><g transform="translate(-209.35809,-149.35809)"><g fill-rule="evenodd"><path d="M210.1081,180c0,-16.50887 13.38304,-29.89191 29.89191,-29.89191c16.5086,0 29.89192,13.38304 29.89192,29.89191c0,16.50887 -13.38332,29.89192 -29.89192,29.89192c-16.50887,0 -29.89191,-13.38305 -29.89191,-29.89192z" fill="#e7e6e6" stroke="#000000" stroke-width="1.5" stroke-miterlimit="8"/><g stroke-width="1"><path d="M232.35256,161.63022c0.05929,0.01847 0.11902,0.03652 0.18004,0.05543c3.39793,1.08366 5.62971,3.60934 7.25434,6.68458c0.08722,-0.13191 0.08722,-0.13192 0.1766,-0.26641c2.12908,-3.17665 4.93019,-5.44924 8.74449,-6.21107c3.03786,-0.49499 6.21966,0.22945 8.74835,1.97525c1.26971,0.9221 2.29623,2.04959 3.14657,3.36442c0.05328,0.07949 0.10613,0.15898 0.1607,0.24105c1.66373,2.64857 2.04143,6.31634 1.37714,9.34432c-0.01676,0.07218 -0.03352,0.14437 -0.0507,0.21828c-0.01934,0.08293 -0.03867,0.16543 -0.05844,0.25093c-1.05015,4.34581 -3.53544,8.26453 -6.55568,11.51466c-0.11086,0.12074 -0.22129,0.24233 -0.32785,0.36738c-0.47437,0.55773 -0.99128,1.07163 -1.50905,1.58854c-0.15856,0.15769 -0.31625,0.31625 -0.47394,0.4748c-0.50875,0.5096 -1.02093,1.00632 -1.57092,1.47252c-0.1405,0.12718 -0.28059,0.25481 -0.42066,0.38285c-0.4589,0.41422 -0.93542,0.80394 -1.41581,1.19237c-0.14781,0.12246 -0.2952,0.24449 -0.443,0.36695c-1.02566,0.83874 -2.07322,1.64955 -3.1586,2.40966c-0.17359,0.12203 -0.34675,0.24534 -0.51949,0.36866c-0.80308,0.57191 -1.61433,1.12878 -2.43888,1.66932c-0.05672,0.03738 -0.11343,0.07434 -0.17187,0.11301c-0.36695,0.24062 -0.73519,0.47867 -1.10515,0.71499c-0.14953,0.09625 -0.29863,0.1925 -0.44773,0.2896c-0.24793,0.16113 -0.49672,0.32055 -0.74593,0.47996c-0.0782,0.05113 -0.15641,0.10226 -0.23676,0.15511c-0.0739,0.04683 -0.14781,0.09367 -0.22386,0.14137c-0.06531,0.04211 -0.13019,0.08422 -0.19765,0.12761c-0.25996,0.1057 -0.36652,0.08422 -0.63163,-0.00859c-0.21484,-0.12504 -0.41723,-0.25308 -0.62219,-0.39273c-0.05929,-0.03996 -0.11859,-0.07949 -0.18004,-0.12031c-0.19207,-0.12933 -0.3837,-0.25953 -0.57534,-0.3893c-0.13234,-0.08937 -0.26469,-0.17832 -0.39703,-0.26769c-0.87483,-0.58996 -1.7458,-1.18464 -2.59872,-1.80596c-0.06617,-0.04812 -0.13277,-0.09624 -0.20109,-0.14609c-1.1653,-0.84777 -2.30396,-1.7226 -3.41555,-2.63912c-0.15769,-0.12976 -0.31582,-0.25867 -0.47437,-0.38715c-0.47609,-0.38585 -0.93843,-0.78245 -1.39131,-1.19495c-0.1766,-0.1607 -0.35578,-0.31796 -0.53625,-0.47437c-0.89975,-0.78675 -1.75869,-1.61432 -2.60173,-2.46123c-0.16027,-0.1607 -0.32098,-0.32097 -0.48167,-0.48124c-0.51218,-0.51261 -1.01534,-1.02652 -1.48111,-1.5821c-0.07648,-0.08809 -0.15339,-0.1766 -0.23031,-0.26469c-3.57368,-4.17652 -6.69662,-9.29405 -6.70134,-14.94954c0,-0.06918 0,-0.13793 0,-0.20883c0.00386,-2.90852 0.8714,-5.7367 2.82087,-7.94828c0.06402,-0.07477 0.12804,-0.14953 0.19421,-0.22645c2.81227,-3.2209 7.6402,-4.82921 11.78836,-3.53758z" fill="#ff4200" stroke="#000000" stroke-miterlimit="8"/><path d="M257.79323,164.58429c0.98656,0.83229 1.79822,1.75826 2.49646,2.84966c0.07562,0.11472 0.07562,0.11472 0.15254,0.2316c1.58253,2.54674 1.94174,6.07357 1.30968,8.98511c-0.0159,0.06918 -0.03179,0.13836 -0.04813,0.20969c-0.0275,0.11945 -0.0275,0.11946 -0.05586,0.24149c-0.99858,4.17867 -3.36184,7.94656 -6.23427,11.07164c-0.1057,0.11602 -0.21054,0.23289 -0.31152,0.3532c-0.45159,0.53625 -0.94273,1.03038 -1.43557,1.5271c-0.15039,0.15211 -0.30035,0.30422 -0.45074,0.45676c-0.48382,0.48984 -0.97109,0.96765 -1.49358,1.41581c-0.13363,0.12246 -0.26726,0.24492 -0.40046,0.36824c-0.43613,0.39831 -0.88944,0.773 -1.3462,1.14683c-0.1405,0.1173 -0.28101,0.2346 -0.42109,0.35234c-0.97581,0.80651 -1.97138,1.58596 -3.00392,2.31685c-0.16628,0.11817 -0.33172,0.23804 -0.49715,0.3575c-0.5689,0.4112 -1.14081,0.81769 -1.72389,1.20784c-0.07175,0.04942 -0.07175,0.04942 -0.14523,0.09969c-0.13492,0.08852 -0.13493,0.08852 -0.36395,0.21054c-0.0825,-0.0275 -0.165,-0.05543 -0.24965,-0.08422c0.07648,-0.06617 0.15254,-0.13192 0.23117,-0.20024c0.7498,-0.64925 1.4953,-1.30237 2.22748,-1.97224c0.17832,-0.16199 0.35922,-0.32054 0.54097,-0.47867c0.32484,-0.28445 0.62218,-0.59339 0.91952,-0.90706c0.15641,-0.1448 0.15641,-0.1448 0.32313,-0.1448c0,-0.05586 0,-0.11129 0,-0.16844c0.12761,-0.12461 0.12762,-0.12461 0.30121,-0.26855c0.28832,-0.24578 0.52851,-0.5023 0.76097,-0.80178c0.03394,-0.03566 0.06746,-0.07133 0.10227,-0.10786c0.05457,0 0.10957,0 0.16629,0c0.02664,-0.06918 0.02664,-0.06918 0.05414,-0.13922c0.15039,-0.26512 0.35792,-0.45675 0.57492,-0.66601c0.40089,-0.39531 0.76269,-0.80695 1.11202,-1.25124c0.15856,-0.1998 0.32355,-0.38972 0.49414,-0.57921c3.2179,-3.63512 5.76377,-8.24605 6.49853,-13.10362c0.00903,-0.05972 0.01805,-0.11945 0.0275,-0.18133c0.44515,-3.41813 -0.33946,-6.88825 -2.39806,-9.6451c-1.90006,-2.38431 -4.41456,-3.94664 -7.36133,-4.65004c0.08293,-0.16843 0.08292,-0.16844 0.29476,-0.24019c3.2209,-0.69179 6.77783,0.08894 9.35291,2.18795z" fill="#ff7e51" stroke="none" stroke-miterlimit="10"/><path d="M227.75323,161.71272c2.92141,-0.07004 2.92142,-0.07003 4.24828,0.32742c0.05758,0.01719 0.11559,0.03438 0.17488,0.05199c2.55748,0.7846 4.65992,2.44919 6.09506,4.62124c0.08894,0.13449 0.18218,0.26641 0.27585,0.39789c0.86066,1.32987 1.26155,3.27461 0.97195,4.82018c-0.11774,0.40219 -0.31239,0.70769 -0.6355,0.99171c-0.46965,0.25223 -0.87742,0.26769 -1.39733,0.17402c-0.45632,-0.19422 -0.78761,-0.47695 -0.9887,-0.91995c-0.0507,-0.12933 -0.09968,-0.2591 -0.14695,-0.3893c-0.05715,-0.14609 -0.11429,-0.29218 -0.17187,-0.43785c-0.02965,-0.07648 -0.05929,-0.1534 -0.0898,-0.23246c-0.46449,-1.18249 -0.97881,-2.33017 -1.62377,-3.43145c-0.0391,-0.07433 -0.07863,-0.14867 -0.11945,-0.22516c-0.60457,-1.13609 -1.42311,-2.13682 -2.34435,-3.04775c-0.05328,-0.05758 -0.10656,-0.11472 -0.16156,-0.17402c-1.06432,-1.11245 -2.60174,-1.85924 -4.08672,-2.28076c0,-0.08121 0,-0.16199 0,-0.24578z" fill="#ff7e52" stroke="none" stroke-miterlimit="10"/><path d="M228.70884,164.29984c0.10183,0.00129 0.10184,0.00129 0.20539,0.00215c0.168,0.02406 0.16801,0.02406 0.34332,0.1998c-0.08379,0.03179 -0.16758,0.0636 -0.25394,0.09668c-0.95003,0.36738 -1.84291,0.73734 -2.58841,1.45448c-0.13621,0.11559 -0.13621,0.11559 -0.31152,0.11559c0,0.05801 0,0.11602 0,0.17574c-0.12676,0.10613 -0.25351,0.21183 -0.38242,0.31538c-1.54471,1.32944 -2.51407,3.7825 -3.12595,5.65721c-0.17789,0.5096 -0.40218,0.85077 -0.87183,1.13393c-0.35234,0.1216 -0.63034,0.11215 -0.98569,-0.01074c-0.44386,-0.30336 -0.62004,-0.62046 -0.76656,-1.12964c-0.20668,-1.54171 0.45589,-3.23079 1.32557,-4.47902c0.19164,-0.24277 0.39144,-0.47093 0.60199,-0.69738c0.07175,-0.08035 0.14395,-0.16027 0.21785,-0.24277c1.75225,-1.86139 4.08285,-2.61935 6.5922,-2.59142z" fill="#fe7f54" stroke="none" stroke-miterlimit="10"/></g></g></g></svg>