<svg version="1.1" xmlns="http://www.w3.org/2000/svg" xmlns:xlink="http://www.w3.org/1999/xlink" width="340.72835" height="278.92804" viewBox="0,0,340.72835,278.92804"><g transform="translate(-84.28054,-40.53589)"><g stroke-width="1.5"><path d="M280.40688,255.81008c26.32949,-70.60122 14.18316,-63.86511 21.27474,-95.79855h13.25895c7.09158,31.93344 1.70447,70.13556 21.27474,95.79855z" fill="#843c0c" fill-rule="evenodd" stroke="#000000" stroke-miterlimit="8"/><path d="M254.99094,209.95474c32.3369,-36.07997 36.07997,-53.32016 54.11996,-79.98023c18.03999,26.66008 18.66383,43.90026 54.11996,79.98023c-50.11739,-16.22177 -66.70174,-16.22177 -108.23992,0z" fill="#548235" fill-rule="evenodd" stroke="#000000" stroke-miterlimit="8"/><path d="M261.03389,165.52128c29.80064,-23.46798 40.36869,-62.08954 48.07701,-62.56232c9.7878,0.47277 7.10047,26.55344 48.07701,62.56232c-43.22665,-11.4976 -58.90455,-10.97507 -96.15402,0z" fill="#548235" fill-rule="evenodd" stroke="#000000" stroke-miterlimit="8"/><path d="M268.67645,127.48622c23.62083,-21.78128 26.42369,-41.47064 39.63465,-62.20685c13.21096,20.73621 2.74243,21.59644 39.63465,62.20685c-39.69508,-13.59842 -30.20765,-15.16781 -79.2693,0z" fill="#548235" fill-rule="evenodd" stroke="#000000" stroke-miterlimit="8"/><path d="M277.02994,92.29492c28.41076,-29.06873 23.21026,-31.47631 31.5602,-48.52134c7.30664,19.13625 10.44364,30.42981 32.60172,48.52134c-29.72421,-11.50116 -33.13492,-12.0237 -64.16192,0z" fill="#548235" fill-rule="evenodd" stroke="#000000" stroke-miterlimit="8"/><path d="M294.80333,245.69701l9.36453,-37.8742" fill="none" fill-rule="evenodd" stroke="#000000" stroke-miterlimit="8"/><path d="M306.17829,245.85875l1.99419,-33.23765" fill="none" fill-rule="evenodd" stroke="#000000" stroke-miterlimit="8"/><path d="M321.6909,245.73968l-8.04779,-34.5408" fill="none" fill-rule="evenodd" stroke="#000000" stroke-miterlimit="8"/><path d="M291.51036,189.6939l-14.48042,3.40456" fill="none" fill-rule="evenodd" stroke="#000000" stroke-miterlimit="8"/><path d="M288.12869,180.27309l-11.09875,13.05286" fill="none" fill-rule="evenodd" stroke="#000000" stroke-miterlimit="8"/><path d="M291.51166,148.99253l-10.74931,3.84389" fill="none" fill-rule="evenodd" stroke="#000000" stroke-miterlimit="8"/><path d="M288.12999,143.83761l-7.36764,9.21918" fill="none" fill-rule="evenodd" stroke="#000000" stroke-miterlimit="8"/><path d="M293.32789,113.80018l-9.18859,3.54101" fill="none" fill-rule="evenodd" stroke="#000000" stroke-miterlimit="8"/><path d="M290.20636,110.60128l-6.06707,6.99939" fill="none" fill-rule="evenodd" stroke="#000000" stroke-miterlimit="8"/><path d="M302.39231,77.89793l-9.18859,3.54101" fill="none" fill-rule="evenodd" stroke="#000000" stroke-miterlimit="8"/><path d="M293.20372,81.69843l6.06707,-6.99939" fill="none" fill-rule="evenodd" stroke="#000000" stroke-miterlimit="8"/><path d="M331.77197,195.20282l14.47998,3.40538" fill="none" fill-rule="evenodd" stroke="#000000" stroke-miterlimit="8"/><path d="M335.32664,185.78293l11.09948,13.05277" fill="none" fill-rule="evenodd" stroke="#000000" stroke-miterlimit="8"/><path d="M333.37158,153.79085l10.74934,3.84438" fill="none" fill-rule="evenodd" stroke="#000000" stroke-miterlimit="8"/><path d="M336.74851,148.63656l7.36707,9.21906" fill="none" fill-rule="evenodd" stroke="#000000" stroke-miterlimit="8"/><path d="M335.27332,118.40758l-9.18884,-3.54046" fill="none" fill-rule="evenodd" stroke="#000000" stroke-miterlimit="8"/><path d="M329.10596,111.49019l6.06783,6.99916" fill="none" fill-rule="evenodd" stroke="#000000" stroke-miterlimit="8"/><path d="M325.14249,80.37253l-9.18884,-3.54046" fill="none" fill-rule="evenodd" stroke="#000000" stroke-miterlimit="8"/><path d="M319.15287,73.63286l6.06783,6.99916" fill="none" fill-rule="evenodd" stroke="#000000" stroke-miterlimit="8"/><path d="M306.09094,173.80026l-9.86397,4.73469" fill="none" fill-rule="evenodd" stroke="#000000" stroke-miterlimit="8"/><path d="M296.26252,178.66647l5.95641,-9.61515" fill="none" fill-rule="evenodd" stroke="#000000" stroke-miterlimit="8"/><path d="M325.77523,186.13129l-11.07279,-18.58004" fill="none" fill-rule="evenodd" stroke="#000000" stroke-miterlimit="8"/><path d="M314.62858,173.31245l11.20708,12.78685" fill="none" fill-rule="evenodd" stroke="#000000" stroke-miterlimit="8"/><path d="M299.10271,138.21602l7.85052,-8.28808" fill="none" fill-rule="evenodd" stroke="#000000" stroke-miterlimit="8"/><path d="M299.20579,138.42041l2.40414,-11.55402" fill="none" fill-rule="evenodd" stroke="#000000" stroke-miterlimit="8"/><path d="M311.75914,131.46391l7.8505,8.28773" fill="none" fill-rule="evenodd" stroke="#000000" stroke-miterlimit="8"/><path d="M317.10359,128.40155l2.40296,11.55448" fill="none" fill-rule="evenodd" stroke="#000000" stroke-miterlimit="8"/><path d="M297.11387,100.27873l9.18859,-3.54101" fill="none" fill-rule="evenodd" stroke="#000000" stroke-miterlimit="8"/><path d="M303.18094,93.36109l-6.06707,6.99939" fill="none" fill-rule="evenodd" stroke="#000000" stroke-miterlimit="8"/><path d="M320.13751,107.32943l-7.40497,-17.00357" fill="none" fill-rule="evenodd" stroke="#000000" stroke-miterlimit="8"/><path d="M313.14942,96.78675l7.09473,10.50713" fill="none" fill-rule="evenodd" stroke="#000000" stroke-miterlimit="8"/><path d="M309.86805,56.4197l-3.07601,18.28917" fill="none" fill-rule="evenodd" stroke="#000000" stroke-miterlimit="8"/><path d="M309.96949,69.06677l-0.20986,-12.6764" fill="none" fill-rule="evenodd" stroke="#000000" stroke-miterlimit="8"/><path d="M85.51898,318.71393c51.49367,-98.49053 136.07453,-276.67358 153.97975,-277.42785c21.4159,0.253 103.48861,178.93732 154.98228,277.42785z" fill="#8faadc" fill-rule="evenodd" stroke="#000000" stroke-miterlimit="8"/><path d="M256.43242,160.63108c-12.75767,10.63595 -31.72375,8.91524 -42.3597,-3.84425c-0.2242,-0.26795 -0.44294,-0.54137 -0.65803,-0.81661l23.76,-18.44111z" fill="#dae3f3" fill-rule="evenodd" stroke="none" stroke-miterlimit="10"/><path d="M256.43242,160.63108c-12.75767,10.63595 -31.72375,8.91524 -42.3597,-3.84425c-0.2242,-0.26795 -0.44294,-0.54137 -0.65803,-0.81661" fill="none" fill-rule="evenodd" stroke="#000000" stroke-miterlimit="8"/><path d="M289.97164,156.62094c-12.4478,10.37529 -30.87797,9.02461 -41.67797,-3.05499l22.42025,-20.04699z" fill="#dae3f3" fill-rule="evenodd" stroke="none" stroke-miterlimit="10"/><path d="M289.97164,156.62095c-12.4478,10.37529 -30.87797,9.02461 -41.67797,-3.05499" fill="none" fill-rule="evenodd" stroke="#000000" stroke-miterlimit="8"/><path d="M309.1109,149.51209c-7.64658,6.37428 -17.95078,8.55068 -27.52223,5.81651l8.26451,-28.91848z" fill="#dae3f3" fill-rule="evenodd" stroke="none" stroke-miterlimit="10"/><path d="M309.1109,149.51208c-7.64658,6.37428 -17.95078,8.55068 -27.52223,5.81651" fill="none" fill-rule="evenodd" stroke="#000000" stroke-miterlimit="8"/><path d="M174.19748,146.09801c21.04952,-40.25347 54.8403,-104.61892 65.76425,-103.98714c12.04496,-0.2098 47.16091,66.24055 68.21043,106.49529c-31.05114,-0.69266 -37.49651,2.69043 -68.70441,4.97438c-31.05661,6.12273 -41.73813,-4.20516 -65.27028,-7.48253z" fill="#dae3f3" fill-rule="evenodd" stroke="none" stroke-miterlimit="10"/><path d="M219.65044,152.16241c-14.4802,11.18278 -35.20527,8.43949 -46.33154,-6.13367l26.21529,-20.34775z" fill="#dae3f3" fill-rule="evenodd" stroke="none" stroke-miterlimit="10"/><path d="M219.65044,152.16241c-14.4802,11.18278 -35.20527,8.43949 -46.33154,-6.13367" fill="none" fill-rule="evenodd" stroke="#000000" stroke-miterlimit="8"/><path d="M150.41014,294.77711l39.1279,-102.1999" fill="none" fill-rule="evenodd" stroke="#000000" stroke-miterlimit="8"/><path d="M179.5747,273.54895l19.95767,-75.32166" fill="none" fill-rule="evenodd" stroke="#000000" stroke-miterlimit="8"/><path d="M359.30128,290.39696l-30.07595,-33.47544" fill="none" fill-rule="evenodd" stroke="#000000" stroke-miterlimit="8"/><path d="M349.18847,294.70237l-59.33529,-66.2163" fill="none" fill-rule="evenodd" stroke="#000000" stroke-miterlimit="8"/><path d="M339.50687,318.5692c26.32949,-70.60122 14.18316,-63.86511 21.27474,-95.79855h13.25895c7.09158,31.93344 1.70447,70.13556 21.27474,95.79855z" fill="#843c0c" fill-rule="evenodd" stroke="#000000" stroke-miterlimit="8"/><path d="M314.09093,272.71386c32.3369,-36.07997 36.07997,-53.32016 54.11996,-79.98023c18.03999,26.66008 18.66383,43.90026 54.11996,79.98023c-50.11739,-16.22177 -66.70174,-16.22177 -108.23992,0z" fill="#548235" fill-rule="evenodd" stroke="#000000" stroke-miterlimit="8"/><path d="M320.13388,228.2804c29.80064,-23.46798 40.36869,-62.08954 48.07701,-62.56232c9.7878,0.47277 7.10047,26.55344 48.07701,62.56232c-43.22665,-11.4976 -58.90455,-10.97507 -96.15402,0z" fill="#548235" fill-rule="evenodd" stroke="#000000" stroke-miterlimit="8"/><path d="M327.77644,190.24534c23.62083,-21.78128 26.42369,-41.47064 39.63465,-62.20685c13.21096,20.73621 2.74243,21.59644 39.63465,62.20685c-39.69508,-13.59842 -30.20765,-15.16781 -79.2693,0z" fill="#548235" fill-rule="evenodd" stroke="#000000" stroke-miterlimit="8"/><path d="M336.12993,155.05404c28.41076,-29.06873 23.21026,-31.47631 31.5602,-48.52134c7.30664,19.13625 10.44364,30.42981 32.60172,48.52134c-29.72421,-11.50116 -33.13492,-12.0237 -64.16192,0z" fill="#548235" fill-rule="evenodd" stroke="#000000" stroke-miterlimit="8"/><path d="M363.26785,270.58193l-9.36453,37.8742" fill="none" fill-rule="evenodd" stroke="#000000" stroke-miterlimit="8"/><path d="M365.27828,308.61787l1.99419,-33.23765" fill="none" fill-rule="evenodd" stroke="#000000" stroke-miterlimit="8"/><path d="M380.79089,308.4988l-8.04779,-34.5408" fill="none" fill-rule="evenodd" stroke="#000000" stroke-miterlimit="8"/><path d="M336.12993,255.85758l14.48042,-3.40456" fill="none" fill-rule="evenodd" stroke="#000000" stroke-miterlimit="8"/><path d="M347.22868,243.03221l-11.09875,13.05286" fill="none" fill-rule="evenodd" stroke="#000000" stroke-miterlimit="8"/><path d="M339.86234,215.59554l10.74931,-3.84389" fill="none" fill-rule="evenodd" stroke="#000000" stroke-miterlimit="8"/><path d="M347.22998,206.59673l-7.36764,9.21918" fill="none" fill-rule="evenodd" stroke="#000000" stroke-miterlimit="8"/><path d="M343.23929,180.10031l9.18859,-3.54101" fill="none" fill-rule="evenodd" stroke="#000000" stroke-miterlimit="8"/><path d="M349.30635,173.3604l-6.06707,6.99939" fill="none" fill-rule="evenodd" stroke="#000000" stroke-miterlimit="8"/><path d="M361.4923,140.65705l-9.18859,3.54101" fill="none" fill-rule="evenodd" stroke="#000000" stroke-miterlimit="8"/><path d="M352.30371,144.45755l6.06707,-6.99939" fill="none" fill-rule="evenodd" stroke="#000000" stroke-miterlimit="8"/><path d="M390.87196,257.96194l14.47998,3.40538" fill="none" fill-rule="evenodd" stroke="#000000" stroke-miterlimit="8"/><path d="M405.52611,261.59482l-11.09948,-13.05277" fill="none" fill-rule="evenodd" stroke="#000000" stroke-miterlimit="8"/><path d="M392.47157,216.54997l10.74934,3.84438" fill="none" fill-rule="evenodd" stroke="#000000" stroke-miterlimit="8"/><path d="M403.21557,220.61474l-7.36707,-9.21906" fill="none" fill-rule="evenodd" stroke="#000000" stroke-miterlimit="8"/><path d="M385.18447,177.62624l9.18884,3.54046" fill="none" fill-rule="evenodd" stroke="#000000" stroke-miterlimit="8"/><path d="M388.20595,174.24931l6.06783,6.99916" fill="none" fill-rule="evenodd" stroke="#000000" stroke-miterlimit="8"/><path d="M384.24248,143.13165l-9.18884,-3.54046" fill="none" fill-rule="evenodd" stroke="#000000" stroke-miterlimit="8"/><path d="M378.25286,136.39198l6.06783,6.99916" fill="none" fill-rule="evenodd" stroke="#000000" stroke-miterlimit="8"/><path d="M355.32696,241.29407l9.86397,-4.73469" fill="none" fill-rule="evenodd" stroke="#000000" stroke-miterlimit="8"/><path d="M361.31892,231.81044l-5.95641,9.61515" fill="none" fill-rule="evenodd" stroke="#000000" stroke-miterlimit="8"/><path d="M384.87522,248.89041l-11.07279,-18.58004" fill="none" fill-rule="evenodd" stroke="#000000" stroke-miterlimit="8"/><path d="M373.72857,236.07157l11.20708,12.78685" fill="none" fill-rule="evenodd" stroke="#000000" stroke-miterlimit="8"/><path d="M366.05322,192.68706l-7.85052,8.28808" fill="none" fill-rule="evenodd" stroke="#000000" stroke-miterlimit="8"/><path d="M358.30578,201.17953l2.40414,-11.55402" fill="none" fill-rule="evenodd" stroke="#000000" stroke-miterlimit="8"/><path d="M378.70963,202.51076l-7.8505,-8.28773" fill="none" fill-rule="evenodd" stroke="#000000" stroke-miterlimit="8"/><path d="M378.60654,202.71515l-2.40296,-11.55448" fill="none" fill-rule="evenodd" stroke="#000000" stroke-miterlimit="8"/><path d="M365.40245,159.49684l-9.18859,3.54101" fill="none" fill-rule="evenodd" stroke="#000000" stroke-miterlimit="8"/><path d="M356.21386,163.1196l6.06707,-6.99939" fill="none" fill-rule="evenodd" stroke="#000000" stroke-miterlimit="8"/><path d="M371.83253,153.08498l7.40497,17.00357" fill="none" fill-rule="evenodd" stroke="#000000" stroke-miterlimit="8"/><path d="M372.24941,159.54587l7.09473,10.50713" fill="none" fill-rule="evenodd" stroke="#000000" stroke-miterlimit="8"/><path d="M368.96804,119.17882l-3.07601,18.28917" fill="none" fill-rule="evenodd" stroke="#000000" stroke-miterlimit="8"/><path d="M368.85962,119.14949l0.20986,12.6764" fill="none" fill-rule="evenodd" stroke="#000000" stroke-miterlimit="8"/><path d="M142.34655,277.32058c-3.76431,5.23274 -7.45994,4.99842 -11.35372,2.09991c-3.89381,-2.89851 -2.38455,-6.3235 0.42787,-10.23304c2.81244,-3.90953 6.30794,-7.00959 11.06904,-3.46546c4.76112,3.54413 3.62111,6.36584 -0.1432,11.59857z" fill="#546381" fill-rule="nonzero" stroke="#000000" stroke-miterlimit="10"/><path d="M255.12281,294.53687c-2.1324,2.96424 -20.34926,4.15878 -33.49393,-0.62097c-10.05948,-3.65789 -15.7352,-13.07576 -17.42323,-14.33232c-2.11322,-1.57306 -4.35411,-20.13086 0.1026,-33.03232c3.75519,-10.87066 14.04601,-16.34064 15.33209,-18.12842c2.81244,-3.90953 27.45392,16.8649 32.21502,20.40903c4.76112,3.54413 19.99219,22.05478 16.22788,27.28752z" fill="#546381" fill-rule="nonzero" stroke="#000000" stroke-miterlimit="10"/><path d="M278.35346,212.25178c-6.66277,11.46059 -13.20399,10.9474 -20.09594,4.59917c-6.89198,-6.34823 -4.22062,-13.84955 0.75732,-22.4121c4.97798,-8.56254 11.16497,-15.35219 19.59205,-7.58995c8.42712,7.76225 6.40932,13.94226 -0.25345,25.40286z" fill="#546381" fill-rule="nonzero" stroke="#000000" stroke-miterlimit="10"/><path d="M194.76307,181.13367c-3.76431,5.23274 -7.45994,4.99842 -11.35372,2.09991c-3.8938,-2.89851 -2.38455,-6.3235 0.42787,-10.23304c2.81244,-3.90953 6.30794,-7.00959 11.06904,-3.46546c4.76112,3.54413 3.62111,6.36584 -0.1432,11.59857z" fill="#546381" fill-rule="nonzero" stroke="#000000" stroke-miterlimit="10"/></g></g></svg>