<svg version="1.1" xmlns="http://www.w3.org/2000/svg" xmlns:xlink="http://www.w3.org/1999/xlink" width="424.11552" height="163.20721" viewBox="0,0,424.11552,163.20721"><g transform="translate(-52.15298,-120.64052)"><g fill-rule="evenodd" stroke="#000000" stroke-width="1.5" stroke-miterlimit="8"><path d="M69.04907,215.55331h6.79441c0,21.5257 10.77518,64.7854 0,64.57835h-6.79441c-6.38031,-12.35269 0,-43.05264 0,-64.57835z" fill="#843c0c"/><path d="M73.3614,222.33133l-0.00005,27.36042" fill="none"/><path d="M70.28027,276.01409l0.00005,-19.05122" fill="none"/><path d="M75.70304,241.92717l-0.00005,19.05122" fill="none"/><path d="M64.42251,184.6192c1.39141,0 2.72491,0.24526 3.95981,0.6951l1.75006,0.99703l0.0074,-0.0037c1.37786,-0.57924 2.89376,-0.89968 4.4836,-0.89968c6.36183,0 11.51957,5.12693 11.51957,11.45055l-0.07148,0.70002l0.79985,0.65565c2.08528,2.07295 3.3744,4.9359 3.3744,8.0971c0,6.32486 -5.15774,11.45179 -11.51956,11.45179c-2.38476,0 -4.60191,-0.72097 -6.43947,-1.95587l-0.0456,-0.03697l-0.50653,0.41533c-1.83879,1.2349 -4.0547,1.95587 -6.4407,1.95587c-6.36183,0 -11.51956,-5.12692 -11.51956,-11.45055c0,-1.58121 0.3229,-3.08724 0.90584,-4.45771l0.02958,-0.05423l-0.90214,-1.65146c-0.58294,-1.37047 -0.9046,-2.87651 -0.9046,-4.45772c0,-6.32362 5.15774,-11.45055 11.51957,-11.45055z" fill="#548235"/><path d="M82.85111,206.74141c0,3.30169 -2.53758,5.97731 -5.6692,5.97731" fill="none"/><path d="M75.3234,192.00395c3.18955,0.85531 5.11584,4.00788 4.30366,7.04213" fill="none"/><path d="M68.57705,211.83999c-2.85925,1.65146 -6.45056,0.78506 -8.02192,-1.93615" fill="none"/><path d="M60.29756,196.51219c0,-3.30169 2.56593,-5.97731 5.73082,-5.97731" fill="none"/><path d="M65.03996,205.14047c0.32537,-2.35518 1.94478,-4.28271 4.12373,-4.90633" fill="none"/><path d="M74.53464,201.81044c-0.32537,2.35518 -1.94478,4.28271 -4.12373,4.90633" fill="none"/><path d="M103.03801,185.86022h5.66886c0,31.83676 8.98997,95.81833 0,95.5121h-5.66886c-5.32253,-18.26977 0,-63.67534 0,-95.5121z" fill="#843c0c"/><path d="M106.68723,236.35136l0.00007,-40.46637" fill="none"/><path d="M104.13533,275.46468l0.00007,-28.17697" fill="none"/><path d="M108.51008,224.86745l-0.00007,28.17697" fill="none"/><path d="M102.92864,121.39014c0.66532,0.02005 1.29965,0.16223 1.89205,0.43382c1.77722,0.81661 2.91828,2.68314 3.41408,5.21316l0.1203,1.17023l2.92922,0.27706c6.70967,1.29053 11.75696,6.87008 11.75696,13.55787c0,1.91028 -0.41195,3.72942 -1.15747,5.38633l-0.91504,1.58218l0.71271,0.47939c3.07868,3.07139 4.98349,7.31301 4.98349,11.99939l-0.10572,1.03716l1.18299,0.97337c3.07868,3.07139 4.98349,7.31301 4.98349,11.99939c0,9.37276 -7.61742,16.97013 -17.0157,16.97013c-3.52344,0 -6.79716,-1.06815 -9.51311,-2.89823l-0.06562,-0.05468l-0.74916,0.6161c-2.71595,1.83008 -5.98967,2.89823 -9.51311,2.89823c-9.39646,0 -17.0157,-7.59737 -17.0157,-16.97013c0,-2.34228 0.47757,-4.57519 1.33792,-6.60577l0.04375,-0.0802l-1.33063,-2.448c-0.86218,-2.03058 -1.33792,-4.26167 -1.33792,-6.60577c0,-4.68638 1.90481,-8.928 4.98349,-11.99939l2.69043,-1.8082l0.43382,-3.82238c0.53408,-2.30765 1.3598,-4.73742 2.47716,-7.17266c3.90987,-8.5197 10.11281,-14.2797 14.77732,-14.12841z" fill="#548235"/><path d="M124.91507,174.65009c0,4.88324 -3.79504,8.84051 -8.47595,8.84051" fill="none"/><path d="M110.76662,134.61263c4.71737,1.26319 7.56638,5.92587 6.36334,10.41357" fill="none"/><path d="M98.19123,183.52159c-4.23068,2.44253 -9.54228,1.15929 -11.86451,-2.86359" fill="none"/><path d="M94.81725,141.09263c-1.53478,-4.35646 0.39008,-9.22329 4.40749,-11.13722" fill="none"/><path d="M84.97057,165.7786c-2.66856,-4.02471 -1.74805,-9.5277 2.0561,-12.28922c0.54684,-0.39554 1.13559,-0.72182 1.75716,-0.97154" fill="none"/><path d="M114.25543,162.61789c-0.48122,3.48334 -2.87635,6.33418 -6.09904,7.25651" fill="none"/><path d="M112.21026,152.87511c4.25803,0.24243 7.93641,3.76405 8.784,8.41033" fill="none"/><path d="M93.87487,170.20432c0.24243,-4.25803 3.76405,-7.93641 8.41033,-8.784" fill="none"/><path d="M106.41745,146.75966c-0.48122,3.48334 -2.87635,6.33418 -6.09904,7.25651" fill="none"/><path d="M443.5513,211.99502l12.45914,0.55097c6.84809,36.81224 -11.59713,39.1441 15.77566,70.54257l-38.56825,-0.21328c23.29558,-39.83549 4.95344,-33.57926 10.33345,-70.88026z" fill="#843c0c"/><path d="M443.17628,125.43864c7.43283,0 13.45801,6.06428 13.45801,13.5451l-0.06576,0.64517l1.01664,0.17418c6.1336,2.14169 10.74579,11.4034 10.74579,22.50466c0,3.17255 -0.37502,6.19402 -1.05752,8.94179l-1.50541,3.81239l0.99531,1.20326c1.79156,2.63935 2.83841,5.82256 2.83841,9.24927l-0.10309,1.01131l1.15349,0.94732c3.00726,2.99304 4.86635,7.1289 4.86635,11.69844c0,9.13552 -7.43816,16.54169 -16.61278,16.54169c-3.43915,0 -6.63658,-1.04152 -9.28659,-2.82419l-0.06576,-0.05332l-0.73049,0.59896c-2.65179,1.78445 -5.84744,2.82597 -9.28837,2.82597c-9.17462,0 -16.61278,-7.40617 -16.61278,-16.54347c0,-2.28388 0.46566,-4.45934 1.30634,-6.4393l0.04266,-0.0782l-1.30101,-2.38519c-0.8389,-1.97996 -1.30457,-4.15542 -1.30457,-6.4393c0,-3.42671 1.04508,-6.60992 2.83663,-9.24927l0.7607,-0.91888l-1.27791,-3.23831c-0.6825,-2.74777 -1.05929,-5.76924 -1.05929,-8.94179c0,-7.92871 2.35497,-14.91898 5.93453,-19.04774l1.18371,-1.09484l-0.05332,-0.17062c-0.17951,-0.88156 -0.27371,-1.79511 -0.27371,-2.72999c0,-7.48082 6.02696,-13.5451 13.45978,-13.5451z" fill="#548235"/><path d="M453.35054,223.90356l-6.62492,50.70711" fill="none"/><path d="M469.65329,199.99799c0,4.76149 -3.65954,8.62009 -8.17576,8.62009" fill="none"/><path d="M453.79943,144.26243c4.59975,1.23347 7.37773,5.7799 6.20647,10.15571" fill="none"/><path d="M441.1359,207.2602c-4.12343,2.38163 -9.30259,1.13039 -11.5687,-2.7922" fill="none"/><path d="M435.35066,140.10168c0,-4.76149 3.65954,-8.62009 8.17576,-8.62009" fill="none"/><path d="M428.08134,166.60358c-2.08126,-2.72821 -2.40296,-6.35043 -0.81935,-9.22261" fill="none"/><path d="M462.99182,169.24826c-0.46922,3.39649 -2.80464,6.17625 -5.94697,7.07558" fill="none"/><path d="M431.08504,188.62303c0,-4.76149 3.65954,-8.62009 8.17576,-8.62009" fill="none"/><path d="M453.47952,265.84839l8.20242,14.14228" fill="none"/><path d="M446.5479,221.41492l1.08773,10.61071" fill="none"/><path d="M398.14584,207.47259h7.77392c0,24.62894 12.32857,74.12512 0,73.88822h-7.77392c-7.30013,-14.1335 0,-49.25928 0,-73.88822z" fill="#843c0c"/><path d="M403.07981,246.53257l0.00005,-31.30481" fill="none"/><path d="M399.55459,254.85191l-0.00005,21.79772" fill="none"/><path d="M405.75906,237.6486l-0.00005,21.79772" fill="none"/><path d="M392.8523,172.07889c1.59201,0 3.11775,0.28061 4.53068,0.7953l2.00235,1.14077l0.00846,-0.00423c1.5765,-0.66275 3.31093,-1.02938 5.12997,-1.02938c7.27898,0 13.18027,5.86604 13.18027,13.1013l-0.08179,0.80094l0.91516,0.75018c2.3859,2.3718 3.86087,5.64748 3.86087,9.26441c0,7.23667 -5.9013,13.10272 -13.18027,13.10272c-2.72856,0 -5.26534,-0.82491 -7.36781,-2.23784l-0.05217,-0.0423l-0.57955,0.47521c-2.10388,1.41293 -4.63925,2.23784 -7.36922,2.23784c-7.27898,0 -13.18027,-5.86604 -13.18027,-13.1013c0,-1.80917 0.36945,-3.53232 1.03643,-5.10036l0.03385,-0.06204l-1.0322,-1.88954c-0.66698,-1.56804 -1.03502,-3.29119 -1.03502,-5.10036c0,-7.23526 5.9013,-13.1013 13.18027,-13.1013z" fill="#548235"/><path d="M413.93764,197.39032c0,3.77768 -2.90341,6.83902 -6.48649,6.83902" fill="none"/><path d="M405.3247,180.52826c3.64936,0.97861 5.85336,4.58567 4.92409,8.05735" fill="none"/><path d="M397.60577,203.22393c-3.27145,1.88954 -7.38051,0.89824 -9.17839,-2.21527" fill="none"/><path d="M388.13267,185.68643c0,-3.77768 2.93585,-6.83902 6.557,-6.83902" fill="none"/><path d="M393.55876,195.55859c0.37227,-2.69471 2.22515,-4.90013 4.71822,-5.61364" fill="none"/><path d="M404.42223,191.74848c-0.37227,2.69471 -2.22515,4.90013 -4.71822,5.61364" fill="none"/></g></g></svg>